<?xml version="1.0" encoding="UTF-8"?>
<svg width="80px" height="80px" viewBox="0 0 80 80" version="1.1" xmlns="http://www.w3.org/2000/svg" xmlns:xlink="http://www.w3.org/1999/xlink">
    <title>部门/员工</title>
    <g id="0512评审版本app设计稿" stroke="none" stroke-width="1" fill="none" fill-rule="evenodd">
        <g id="切图提供" transform="translate(-980.000000, -268.000000)">
            <g id="交易定价" transform="translate(980.000000, 268.000000)">
                <circle id="椭圆形" fill="#DEF7F4" cx="40" cy="40" r="40"></circle>
                <g id="部门管理" transform="translate(20.000000, 26.000000)" fill="#3DD598">
                    <path d="M21.7142934,14.6249813 C21.9668875,14.6405169 21.9347836,14.6147794 21.7142934,14.6249813 C21.9282023,14.5516096 21.954592,14.5225 21.7142934,14.6249813 C24.7804075,13.8754921 26.8564174,11.4081441 26.2857175,8.99998849 C26.8564174,5.03110041 24.0427254,2.24999712 20.5714374,2.24999712 C17.1001494,2.24999712 14.2864574,5.03010752 14.8571573,8.99998849 C14.2864574,11.4071512 16.3624673,13.8754921 19.4285814,14.6249813 C19.1882828,14.5225 19.2146725,14.5516096 19.4285814,14.6249813 C19.2080912,14.6147794 19.1759873,14.6405169 19.4285814,14.6249813 C13.0344445,15.3320713 8.25819781,20.3266721 8.00002118,26.9999655 C7.99663945,26.6148693 8.06908857,26.7491764 8.00002118,26.9999655 C8.33283021,26.9467383 8.5128724,27.0015658 9.1428772,26.9999655 L31.9999976,26.9999655 C32.6300024,27.0015658 32.8100446,26.9467383 33.1428536,26.9999655 C33.0737862,26.7491764 33.1462353,26.6148693 33.1428536,26.9999655 C32.884677,20.3266721 28.1084303,15.3320713 21.7142934,14.6249813 L21.7142934,14.6249813 Z M27.4285735,7.87498993 C27.9028306,10.8913852 26.6375688,12.9665759 25.1428615,13.4999827 C24.656763,14.0189913 24.5854675,14.1509031 25.1428615,14.6249813 C29.8343007,15.5123226 32.9420862,19.846054 34.2857096,23.6250499 L40.0000198,23.6250499 C39.8438784,17.6170031 35.9053339,12.9620883 30.8571494,12.3749842 C30.1614963,11.828818 30.0204121,11.7168011 29.7142855,11.2499856 C32.3888399,10.3140886 33.7088038,8.15555695 33.1428536,5.62499281 C33.7088038,2.34380507 30.4498094,0 27.4285735,0 C25.4621427,0 24.0696876,0.515752511 22.8571494,1.12499856 C22.8877297,1.76619186 22.9776132,1.85630135 22.8571494,2.24999712 C25.7134162,2.91372922 27.9028306,5.2241979 27.4285735,7.87498993 Z M12.5714453,7.87498993 C12.1005638,10.8845258 13.3592441,12.9561506 14.8571573,13.4999827 C15.3351976,14.0129555 15.4077764,14.1475197 14.8571573,14.6249813 C15.3364749,14.4105649 15.1989601,14.5155622 14.8571573,14.6249813 C10.161155,15.5237215 7.05872386,19.8503461 5.71430914,23.6249698 C6.16076299,23.5052952 5.95455002,23.6268655 5.71430914,23.6249698 L2.90499135e-05,23.6249698 C0.365366752,23.6264859 0.237989028,23.5894925 2.90499135e-05,23.6249698 C0.0506251825,23.4552128 -0.00140031476,23.3636317 2.90499135e-05,23.6249698 C0.158895585,17.6213137 4.0862095,12.9747445 9.1428772,12.3749842 C9.81843555,11.8294568 9.95911562,11.7154398 10.2857332,11.2499856 C10.0125121,11.4367096 9.91996051,11.2994952 10.2857332,11.2499856 C7.60286172,10.2988157 6.29212571,8.14768562 6.85716516,5.62499281 C6.29212571,2.34412266 9.55250368,0 12.5714453,0 C14.5387286,0 15.9286604,0.512937124 17.1428693,1.12499856 C17.1155632,1.44721705 17.1608358,1.55544657 17.1428693,1.12499856 C17.1118627,1.76754747 17.0203956,1.85938495 17.1428693,2.24999712 C14.2851238,2.91925341 12.1005638,5.22779105 12.5714453,7.87498993 Z" id="形状"></path>
                </g>
            </g>
        </g>
    </g>
</svg>