<?xml version="1.0" encoding="UTF-8"?>
<svg width="80px" height="80px" viewBox="0 0 80 80" version="1.1" xmlns="http://www.w3.org/2000/svg" xmlns:xlink="http://www.w3.org/1999/xlink">
    <title>业务日志</title>
    <g id="0512评审版本app设计稿" stroke="none" stroke-width="1" fill="none" fill-rule="evenodd">
        <g id="切图提供" transform="translate(-979.000000, -668.000000)">
            <g id="编组-9" transform="translate(979.000000, 668.000000)">
                <circle id="椭圆形" fill="#FFF6E8" cx="40" cy="40" r="40"></circle>
                <g id="日志" transform="translate(25.000000, 23.000000)" fill="#FFB01F" fill-rule="nonzero">
                    <path d="M10.7070313,4.61328125 L18.8867188,4.61328125 C19.609375,4.61328125 20.1914063,4.05078125 20.1914063,3.359375 L20.1914063,1.25390625 C20.1914063,0.5625 19.6054688,0 18.8867188,0 L10.7070313,0 C9.984375,0 9.40234375,0.5625 9.40234375,1.25390625 L9.40234375,3.359375 C9.40234375,4.05078125 9.98828125,4.61328125 10.7070313,4.61328125 Z M25.4492188,2.4921875 L21.2734375,2.4921875 L21.2734375,3.890625 C21.2734375,4.75 20.5507812,5.4453125 19.65625,5.4453125 L9.94140625,5.4453125 C9.046875,5.4453125 8.32421875,4.75 8.32421875,3.890625 L8.32421875,2.4921875 L4.1484375,2.4921875 C1.85546875,2.4921875 0,4.27734375 0,6.4765625 L0,30.328125 C0,32.5273438 1.859375,34.3125 4.1484375,34.3125 L25.4453125,34.3125 C27.7382813,34.3125 29.5937561,32.5273438 29.5937561,30.328125 L29.5937561,6.4765625 C29.5976563,4.27734375 27.7382813,2.4921875 25.4492188,2.4921875 Z M24.375,25.6289062 L6.0625,25.6289062 C5.484375,25.6289062 5.015625,25.1796875 5.015625,24.625 C5.015625,24.0703125 5.484375,23.6210937 6.0625,23.6210937 L24.3789062,23.6210937 C24.9570312,23.6210937 25.4257812,24.0703125 25.4257812,24.625 C25.4257812,25.1796875 24.953125,25.6289062 24.375,25.6289062 Z M24.375,19.0429688 L6.0625,19.0429688 C5.484375,19.0429688 5.015625,18.59375 5.015625,18.0390625 C5.015625,17.484375 5.484375,17.0351562 6.0625,17.0351562 L24.3789062,17.0351562 C24.9570312,17.0351562 25.4257812,17.484375 25.4257812,18.0390625 C25.4257812,18.59375 24.953125,19.0429688 24.375,19.0429688 Z M24.375,12.4570312 L6.0625,12.4570312 C5.484375,12.4570312 5.015625,12.0078125 5.015625,11.453125 C5.015625,10.8984375 5.484375,10.4492188 6.0625,10.4492188 L24.3789062,10.4492188 C24.9570312,10.4492188 25.4257812,10.8984375 25.4257812,11.453125 C25.4257812,12.0078125 24.953125,12.4570312 24.375,12.4570312 Z" id="形状"></path>
                </g>
            </g>
        </g>
    </g>
</svg>