<?xml version="1.0" encoding="UTF-8"?>
<svg width="80px" height="80px" viewBox="0 0 80 80" version="1.1" xmlns="http://www.w3.org/2000/svg" xmlns:xlink="http://www.w3.org/1999/xlink">
    <title>经营收支表</title>
    <defs>
        <linearGradient x1="50%" y1="0%" x2="50%" y2="100%" id="p-amb-l-inout">
            <stop stop-color="#01C377" offset="0%"></stop>
            <stop stop-color="#45D69C" offset="100%"></stop>
        </linearGradient>
    </defs>
    <g id="0512评审版本app设计稿" stroke="none" stroke-width="1" fill="none" fill-rule="evenodd">
        <g id="切图提供" transform="translate(-696.000000, -263.000000)">
            <g id="经营收支表" transform="translate(696.000000, 263.000000)">
                <g id="编组-7" fill="url(#p-amb-l-inout)">
                    <path d="M40,0 C41.3100533,0 42.6169497,0.0642036328 43.9206872,0.192610913 C45.2244287,0.321018207 46.5187344,0.513010749 47.8036062,0.768588636 C49.0884862,1.02416663 50.3577436,1.34209914 51.6113785,1.72238644 C52.8650174,2.1026736 54.097001,2.54348412 55.3073231,3.04481824 C56.5176554,3.54615241 57.7005005,4.1055959 58.8558605,4.72314892 C60.0112205,5.34070195 61.1335364,6.01339056 62.2228021,6.74121456 C63.3120697,7.46903938 64.3630441,8.24849538 65.3757231,9.07958195 C66.3884021,9.91066851 67.3579138,10.7893832 68.2842626,11.7157276 C69.2106113,12.642072 70.0893313,13.6115863 70.9204185,14.6242679 C71.7514974,15.6369487 72.5309477,16.6879214 73.2587692,17.7771877 C73.9865969,18.8664558 74.6592903,19.9887711 75.2768492,21.1441294 C75.8944,22.2994917 76.4538421,23.4823335 76.9551754,24.6926587 C77.4565087,25.9029858 77.8973149,27.1349686 78.2775959,28.3886092 C78.6578831,29.642248 78.9758215,30.9115052 79.2313949,32.1963834 C79.4869764,33.4812613 79.6789703,34.7755713 79.8073785,36.0793169 C79.9357887,37.3830544 80,38.6899508 80,40 C80,41.3100533 79.9357887,42.6169497 79.8073785,43.9206872 C79.6789703,45.2244287 79.4869764,46.5187344 79.2313949,47.8036062 C78.9758215,49.0884862 78.6578831,50.3577436 78.2775959,51.6113785 C77.8973149,52.8650174 77.4565087,54.097001 76.9551754,55.3073231 C76.4538421,56.5176554 75.8944,57.7005005 75.2768492,58.8558605 C74.6592903,60.0112205 73.9866051,61.1335364 73.2587774,62.2228021 C72.5309559,63.3120697 71.7515056,64.3630441 70.9204185,65.3757231 C70.0893313,66.3884021 69.2106113,67.3579138 68.2842626,68.2842626 C67.3579138,69.2106113 66.3884021,70.0893313 65.3757231,70.9204185 C64.3630441,71.7514974 63.3120697,72.5309477 62.2228021,73.2587692 C61.1335364,73.9865969 60.0112205,74.6592903 58.8558605,75.2768492 C57.7005005,75.8944 56.5176595,76.4538421 55.3073272,76.9551754 C54.097001,77.4565087 52.8650174,77.8973149 51.6113826,78.2775959 C50.3577436,78.6578831 49.0884862,78.9758215 47.8036062,79.2313949 C46.5187344,79.4869764 45.2244287,79.6789703 43.9206872,79.8073785 C42.6169497,79.9357887 41.3100533,80 40,80 C38.6899508,80 37.3830544,79.9357887 36.0793169,79.8073785 C34.7755713,79.6789703 33.4812613,79.4869764 32.1963813,79.2313949 C30.9115052,78.9758215 29.642248,78.6578831 28.3886092,78.2775959 C27.1349686,77.8973149 25.9029858,77.4565087 24.6926587,76.9551754 C23.4823335,76.4538421 22.2994917,75.8944 21.1441294,75.2768492 C19.9887711,74.6592903 18.8664558,73.9866051 17.7771877,73.2587774 C16.6879214,72.5309559 15.6369487,71.7515056 14.6242679,70.9204185 C13.6115863,70.0893313 12.642072,69.2106113 11.7157276,68.2842626 C10.7893832,67.3579138 9.91066851,66.3884021 9.07958195,65.3757231 C8.24849538,64.3630441 7.46903938,63.3120697 6.74121456,62.2228021 C6.01339056,61.1335364 5.34070195,60.0112205 4.72314892,58.8558605 C4.1055959,57.7005005 3.54615241,56.5176595 3.04481824,55.3073272 C2.54348412,54.097001 2.1026736,52.8650174 1.72238632,51.6113826 C1.34209914,50.3577436 1.02416663,49.0884862 0.768588636,47.8036062 C0.513010749,46.5187344 0.321018207,45.2244287 0.192610913,43.9206872 C0.0642036328,42.6169497 0,41.3100533 0,40 C0,38.6899508 0.0642036328,37.3830544 0.192610913,36.0793169 C0.321018207,34.7755713 0.513010749,33.4812613 0.768588636,32.1963813 C1.02416663,30.9115052 1.34209914,29.642248 1.72238644,28.3886092 C2.1026736,27.1349686 2.54348412,25.9029858 3.04481824,24.6926587 C3.54615241,23.4823335 4.1055959,22.2994917 4.72314892,21.1441294 C5.34070195,19.9887711 6.01339056,18.8664558 6.74121456,17.7771877 C7.46903938,16.6879214 8.24849538,15.6369487 9.07958195,14.6242679 C9.91066851,13.6115863 10.7893832,12.642072 11.7157276,11.7157276 C12.642072,10.7893832 13.6115863,9.91066851 14.6242679,9.07958195 C15.6369487,8.24849538 16.6879214,7.46903938 17.7771877,6.74121456 C18.8664558,6.01339056 19.9887711,5.34070195 21.1441294,4.72314892 C22.2994917,4.1055959 23.4823335,3.54615241 24.6926587,3.04481824 C25.9029858,2.54348412 27.1349686,2.1026736 28.3886092,1.72238632 C29.642248,1.34209914 30.9115052,1.02416663 32.1963834,0.768588636 C33.4812613,0.513010749 34.7755713,0.321018207 36.0793169,0.192610913 C37.3830544,0.0642036328 38.6899508,0 40,0 Z" id="Stroke-1061"></path>
                </g>
                <g id="收支流水" transform="translate(20.000000, 20.000000)" fill="#FFFFFF" fill-rule="nonzero">
                    <path d="M34.18,5.82 C37.9285714,9.56857143 39.8685714,14.2971429 40,20 C39.8685714,25.7028571 37.9285714,30.4285714 34.18,34.18 C30.4314286,37.9314286 25.7028571,39.8685714 20,40 C14.2971429,39.8685714 9.57142857,37.9285714 5.82,34.18 C2.06857143,30.4314286 0.131428571,25.7028571 0,20 C0.131428571,14.2971429 2.07142857,9.57142857 5.82,5.82 C9.56857143,2.06857143 14.2971429,0.131428571 20,0 C25.7028571,0.131428571 30.4314286,2.07142857 34.18,5.82 Z M28.8685714,25.1371429 C29.2342857,24.76 29.4142857,24.2857143 29.4142857,23.7114286 C29.4142857,23.14 29.2314286,22.6628571 28.8685714,22.2857143 C28.5028571,21.9085714 28.0228571,21.72 27.4228571,21.72 L12.3057143,21.72 C11.9942857,21.72 11.6685714,21.8057143 11.3285714,21.9742857 C10.9885714,22.1428571 10.7428571,22.4428571 10.5857143,22.8714286 C10.4285714,23.3 10.3628571,23.7114286 10.3914286,24.1028571 C10.4171429,24.4942857 10.5742857,24.8457143 10.86,25.1571429 L16.0171429,31.1342857 C16.1485714,31.2914286 16.3428571,31.4285714 16.6028571,31.5457143 C16.8628571,31.6628571 17.1371429,31.7228571 17.4228571,31.7228571 C17.7085714,31.7228571 17.9828571,31.6628571 18.2428571,31.5457143 C18.5028571,31.4285714 18.7114286,31.2914286 18.8685714,31.1342857 C19.3114286,30.6914286 19.5714286,30.2171429 19.6485714,29.7085714 C19.7257143,29.2 19.5571429,28.7257143 19.14,28.2828571 L16.8742857,25.7057143 L27.42,25.7057143 C28.0228571,25.7028571 28.5028571,25.5142857 28.8685714,25.1371429 L28.8685714,25.1371429 Z M11.1342857,14.8628571 C10.7685714,15.24 10.5885714,15.7171429 10.5885714,16.2885714 C10.5885714,16.8628571 10.7714286,17.3485714 11.1342857,17.7542857 C11.5,18.1571429 11.98,18.4257143 12.58,18.5542857 L27.4228571,18.5542857 C27.7342857,18.58 28.06,18.5028571 28.4,18.32 C28.7371429,18.1371429 28.9857143,17.8314286 29.1428571,17.4028571 C29.3,16.9742857 29.3571429,16.5628571 29.32,16.1714286 C29.2828571,15.78 29.1314286,15.4428571 28.8714286,15.1571429 L23.7114286,9.14285714 C23.2685714,8.7 22.7942857,8.44 22.2857143,8.36285714 C21.7771429,8.28571429 21.3028571,8.45428571 20.86,8.87142857 C20.4171429,9.18285714 20.1971429,9.62 20.1971429,10.18 C20.1971429,10.74 20.4171429,11.2542857 20.86,11.7228571 L23.1257143,14.3 L12.58,14.3 C11.98,14.2971429 11.4971429,14.4857143 11.1342857,14.8628571 L11.1342857,14.8628571 Z" id="形状"></path>
                </g>
            </g>
        </g>
    </g>
</svg>