<?xml version="1.0" encoding="UTF-8"?>
<svg width="80px" height="80px" viewBox="0 0 80 80" version="1.1" xmlns="http://www.w3.org/2000/svg" xmlns:xlink="http://www.w3.org/1999/xlink">
    <title>费用分担</title>
    <g id="0512评审版本app设计稿" stroke="none" stroke-width="1" fill="none" fill-rule="evenodd">
        <g id="切图提供" transform="translate(-494.000000, -156.000000)">
            <g id="费用分担" transform="translate(494.000000, 156.000000)">
                <circle id="椭圆形" fill="#FFD1CF" opacity="0.5" cx="40" cy="40" r="40"></circle>
                <g id="天平,公平,天平秤" transform="translate(20.000000, 22.000000)" fill="#FC655C" fill-rule="nonzero">
                    <path d="M39.5745188,19.4399657 C39.5667088,19.4282199 39.5628039,19.416474 39.5588989,19.4047282 L34.8651278,6.4764711 C34.8260782,6.3746738 34.9041775,6.26504593 35.0135166,6.26504593 L38.0086268,6.26504593 C38.094536,6.26504593 38.1648255,6.19457088 38.1648255,6.1084347 C38.1648255,5.4584981 37.9031926,4.87512126 37.4775512,4.44835566 C37.0519097,4.02159005 36.4661646,3.75926624 35.8218449,3.75926624 L21.8811106,3.75926624 C21.5374734,3.75926624 21.2563158,3.47736602 21.2563158,3.13282132 L21.2563158,1.27697823 C21.2563158,0.591804095 20.7174302,0.0162578213 20.0340609,0.000286590865 C19.6787088,-0.00723386329 19.3545965,0.133716245 19.1202985,0.368633091 C18.8938104,0.595719376 18.7532315,0.908941838 18.7532315,1.25348655 L18.7532315,3.13282132 C18.7532315,3.47736602 18.4720739,3.75926624 18.1284367,3.75926624 L4.23065702,3.75926624 C2.93811274,3.75926624 1.88767646,4.81247677 1.88767646,6.1084347 C1.88767646,6.15150279 1.9072013,6.1906556 1.93453607,6.21806257 C1.96187084,6.24546953 2.00092052,6.26504593 2.04387516,6.26504593 L4.92574125,6.26504593 C5.03508034,6.26504593 5.10927473,6.3746738 5.07413002,6.4764711 L0.376453998,19.4047282 C0.364739095,19.4360505 0.353024192,19.4673727 0.337404322,19.4986949 C-0.146811661,20.4970915 -0.119476887,21.6677605 0.481888123,22.5995973 C0.950484235,23.3239243 1.54403931,23.9699456 2.23912354,24.5141696 C3.68005659,25.6378552 5.5466311,26.3151988 7.58892915,26.3151988 C10.7675728,26.3151988 13.5244799,24.6746961 14.8990285,22.2667985 C15.4027693,21.3858603 15.3402898,20.3169886 14.8209291,19.443881 C14.8131192,19.4321352 14.8092142,19.4203893 14.8053093,19.4086435 L10.1076333,6.4764711 C10.0685836,6.3746738 10.1466829,6.26504593 10.256022,6.26504593 L15.0083676,6.26504593 C17.0780004,6.26504593 18.7571365,7.94861667 18.7571365,10.0237155 L18.7571365,32.8732941 C18.7571365,33.7973003 18.0854821,34.588187 17.1756246,34.7291372 C14.6998752,35.1128347 12.6771019,35.9389589 11.5680911,37 L29.0740609,37 C27.8791408,35.8606533 25.6376894,34.9953762 22.908117,34.6508315 C21.9670199,34.5333731 21.2602207,33.7346558 21.2602207,32.7871579 L21.2602207,10.0237155 C21.2602207,7.94861667 22.9393568,6.26504593 25.0089896,6.26504593 L29.7144756,6.26504593 C29.8238147,6.26504593 29.8980091,6.3746738 29.8628643,6.4764711 L25.1612834,19.4047282 C25.1534734,19.4243046 25.1456635,19.443881 25.1339486,19.4634574 C24.6145879,20.4187859 24.5950631,21.5620479 25.1651883,22.4860542 C26.5787866,24.7725781 29.2654043,26.3151988 32.3464237,26.3151988 C35.5211624,26.3151988 38.2741646,24.6786114 39.6487131,22.2785443 C40.1602639,21.3897756 40.0938795,20.3130733 39.5745188,19.4399657 Z" id="形状"></path>
                    <path d="M13,19 L3,19 L7.84897959,6.10371552 C7.90204082,5.96542816 8.10204082,5.96542816 8.15510204,6.10371552 L13,19 Z" id="路径" opacity="0"></path>
                    <path d="M28,19 L32.8465002,6.1040317 C32.8997135,5.96532277 33.1002865,5.96532277 33.1534998,6.1040317 L38,19 L28,19 L28,19 Z" id="路径" opacity="0"></path>
                </g>
            </g>
        </g>
    </g>
</svg>