<?xml version="1.0" encoding="UTF-8"?>
<svg width="80px" height="80px" viewBox="0 0 80 80" version="1.1" xmlns="http://www.w3.org/2000/svg" xmlns:xlink="http://www.w3.org/1999/xlink">
    <title>模版报表</title>
    <defs>
        <linearGradient x1="50%" y1="0%" x2="50%" y2="100%" id="p-amb-l-template">
            <stop stop-color="#7D73F3" offset="0%"></stop>
            <stop stop-color="#9C6DEF" offset="100%"></stop>
        </linearGradient>
    </defs>
    <g id="0512评审版本app设计稿" stroke="none" stroke-width="1" fill="none" fill-rule="evenodd">
        <g id="切图提供" transform="translate(-808.000000, -711.000000)">
            <g id="模版报表" transform="translate(808.000000, 711.000000)">
                <path d="M40,0 C41.3100533,0 42.6169497,0.0642036328 43.9206872,0.192610913 C45.2244287,0.321018207 46.5187344,0.513010749 47.8036062,0.768588636 C49.0884862,1.02416663 50.3577436,1.34209914 51.6113785,1.72238644 C52.8650174,2.1026736 54.097001,2.54348412 55.3073231,3.04481824 C56.5176554,3.54615241 57.7005005,4.1055959 58.8558605,4.72314892 C60.0112205,5.34070195 61.1335364,6.01339056 62.2228021,6.74121456 C63.3120697,7.46903938 64.3630441,8.24849538 65.3757231,9.07958195 C66.3884021,9.91066851 67.3579138,10.7893832 68.2842626,11.7157276 C69.2106113,12.642072 70.0893313,13.6115863 70.9204185,14.6242679 C71.7514974,15.6369487 72.5309477,16.6879214 73.2587692,17.7771877 C73.9865969,18.8664558 74.6592903,19.9887711 75.2768492,21.1441294 C75.8944,22.2994917 76.4538421,23.4823335 76.9551754,24.6926587 C77.4565087,25.9029858 77.8973149,27.1349686 78.2775959,28.3886092 C78.6578831,29.642248 78.9758215,30.9115052 79.2313949,32.1963834 C79.4869764,33.4812613 79.6789703,34.7755713 79.8073785,36.0793169 C79.9357887,37.3830544 80,38.6899508 80,40 C80,41.3100533 79.9357887,42.6169497 79.8073785,43.9206872 C79.6789703,45.2244287 79.4869764,46.5187344 79.2313949,47.8036062 C78.9758215,49.0884862 78.6578831,50.3577436 78.2775959,51.6113785 C77.8973149,52.8650174 77.4565087,54.097001 76.9551754,55.3073231 C76.4538421,56.5176554 75.8944,57.7005005 75.2768492,58.8558605 C74.6592903,60.0112205 73.9866051,61.1335364 73.2587774,62.2228021 C72.5309559,63.3120697 71.7515056,64.3630441 70.9204185,65.3757231 C70.0893313,66.3884021 69.2106113,67.3579138 68.2842626,68.2842626 C67.3579138,69.2106113 66.3884021,70.0893313 65.3757231,70.9204185 C64.3630441,71.7514974 63.3120697,72.5309477 62.2228021,73.2587692 C61.1335364,73.9865969 60.0112205,74.6592903 58.8558605,75.2768492 C57.7005005,75.8944 56.5176595,76.4538421 55.3073272,76.9551754 C54.097001,77.4565087 52.8650174,77.8973149 51.6113826,78.2775959 C50.3577436,78.6578831 49.0884862,78.9758215 47.8036062,79.2313949 C46.5187344,79.4869764 45.2244287,79.6789703 43.9206872,79.8073785 C42.6169497,79.9357887 41.3100533,80 40,80 C38.6899508,80 37.3830544,79.9357887 36.0793169,79.8073785 C34.7755713,79.6789703 33.4812613,79.4869764 32.1963813,79.2313949 C30.9115052,78.9758215 29.642248,78.6578831 28.3886092,78.2775959 C27.1349686,77.8973149 25.9029858,77.4565087 24.6926587,76.9551754 C23.4823335,76.4538421 22.2994917,75.8944 21.1441294,75.2768492 C19.9887711,74.6592903 18.8664558,73.9866051 17.7771877,73.2587774 C16.6879214,72.5309559 15.6369487,71.7515056 14.6242679,70.9204185 C13.6115863,70.0893313 12.642072,69.2106113 11.7157276,68.2842626 C10.7893832,67.3579138 9.91066851,66.3884021 9.07958195,65.3757231 C8.24849538,64.3630441 7.46903938,63.3120697 6.74121456,62.2228021 C6.01339056,61.1335364 5.34070195,60.0112205 4.72314892,58.8558605 C4.1055959,57.7005005 3.54615241,56.5176595 3.04481824,55.3073272 C2.54348412,54.097001 2.1026736,52.8650174 1.72238632,51.6113826 C1.34209914,50.3577436 1.02416663,49.0884862 0.768588636,47.8036062 C0.513010749,46.5187344 0.321018207,45.2244287 0.192610913,43.9206872 C0.0642036328,42.6169497 0,41.3100533 0,40 C0,38.6899508 0.0642036328,37.3830544 0.192610913,36.0793169 C0.321018207,34.7755713 0.513010749,33.4812613 0.768588636,32.1963813 C1.02416663,30.9115052 1.34209914,29.642248 1.72238644,28.3886092 C2.1026736,27.1349686 2.54348412,25.9029858 3.04481824,24.6926587 C3.54615241,23.4823335 4.1055959,22.2994917 4.72314892,21.1441294 C5.34070195,19.9887711 6.01339056,18.8664558 6.74121456,17.7771877 C7.46903938,16.6879214 8.24849538,15.6369487 9.07958195,14.6242679 C9.91066851,13.6115863 10.7893832,12.642072 11.7157276,11.7157276 C12.642072,10.7893832 13.6115863,9.91066851 14.6242679,9.07958195 C15.6369487,8.24849538 16.6879214,7.46903938 17.7771877,6.74121456 C18.8664558,6.01339056 19.9887711,5.34070195 21.1441294,4.72314892 C22.2994917,4.1055959 23.4823335,3.54615241 24.6926587,3.04481824 C25.9029858,2.54348412 27.1349686,2.1026736 28.3886092,1.72238632 C29.642248,1.34209914 30.9115052,1.02416663 32.1963834,0.768588636 C33.4812613,0.513010749 34.7755713,0.321018207 36.0793169,0.192610913 C37.3830544,0.0642036328 38.6899508,0 40,0 Z" id="Stroke-1061" fill="url(#p-amb-l-template)"></path>
                <g id="作业评价模版" transform="translate(22.222222, 23.333333)" fill="#FFFFFF" fill-rule="nonzero">
                    <path d="M34.8115359,0.843076221 C35.2493628,1.3177676 35.4124748,1.95916607 35.3008719,2.77009717 L35.3008719,14.5865218 L17.6504359,14.5865218 C16.8005366,14.5865218 16.1366421,14.8323441 15.6558909,15.3183377 C15.1751397,15.8071568 14.9347641,16.4570319 14.9347641,17.267963 L14.9347641,33.90194 C14.906148,33.7606628 14.8489157,33.678722 14.7659289,33.6504666 L14.6400179,33.6080834 C13.7071317,32.966685 12.7570758,32.4270061 11.7984351,31.9946979 C10.8369327,31.5623897 9.88115359,31.2120222 8.93395931,30.9464211 C7.98676503,30.68082 6.98233848,30.4802063 5.92067963,30.3389291 C4.85814256,30.1999183 3.78749526,30.1300708 2.71567181,30.1298389 C2.00885312,30.1298389 1.38502124,29.8868421 0.849899396,29.398023 C0.31191594,28.9092039 0.0286161413,28.2593288 0,27.4483977 L0,2.77009717 C0.0286161413,2.07218782 0.31191594,1.45621925 0.849899396,0.927842538 C1.38788285,0.396640282 2.00885312,0.116911435 2.71567181,0.0886559956 C3.79163872,-0.0215402171 4.87332886,-0.0300168488 5.96074223,0.0688771882 C7.0481556,0.167771225 8.13270736,0.354257123 9.20581265,0.633985971 C10.2817796,0.913714818 11.3119607,1.29798879 12.3020791,1.78680789 C13.2921976,2.27562698 14.2537,2.78705043 15.1865862,3.31542715 C16.0078694,3.98508105 16.9178627,4.3354485 17.9222893,4.36370394 C18.9267159,4.39195938 19.9082495,4.14048597 20.8726135,3.60928371 C21.8341158,2.9396298 22.8299575,2.38864874 23.8630002,1.95351498 C24.8960429,1.52120676 25.8918846,1.17083931 26.853387,0.905238187 C27.8148893,0.639637059 28.8279007,0.439023441 29.886698,0.297746245 C30.9483568,0.159294593 32.0157389,0.0886559956 33.0917058,0.0886559956 C33.8013861,0.116911435 34.3737089,0.368384843 34.8115359,0.843076221 Z M18.6462777,17.8528506 C18.1512184,18.3840528 17.9051196,18.9971959 17.9051196,19.6951052 L17.9051196,24.5126576 L25.4998435,24.5126576 L25.4998435,17.0164896 L20.6179298,17.0164896 C19.7995082,17.044745 19.1413369,17.3244739 18.6462777,17.8528506 L18.6462777,17.8528506 Z M17.902258,31.7630033 C17.902258,32.5739344 18.1483568,33.2153328 18.6434161,33.6900242 C19.1384753,34.1647156 19.7966465,34.416189 20.6179298,34.4444444 L25.4969819,34.4444444 L25.4969819,26.9030677 L17.902258,26.9030677 L17.902258,31.7630033 L17.902258,31.7630033 Z M27.9608317,34.4444444 L32.8398837,34.4444444 C33.661167,34.416189 34.3164766,34.1647156 34.8143975,33.6900242 C35.3094567,33.2153328 35.5555556,32.5739344 35.5555556,31.7630033 L35.5555556,19.6979308 C35.5555556,18.8587442 35.3065951,18.203218 34.8143975,17.7285266 C34.3193383,17.2538353 33.661167,17.0164896 32.8398837,17.0164896 L27.9608317,17.0164896 L27.9608317,34.4444444 Z" id="形状"></path>
                </g>
            </g>
        </g>
    </g>
</svg>