<?xml version="1.0" encoding="UTF-8"?>
<svg width="80px" height="80px" viewBox="0 0 80 80" version="1.1" xmlns="http://www.w3.org/2000/svg" xmlns:xlink="http://www.w3.org/1999/xlink">
    <title>内部交易明细表</title>
    <defs>
        <linearGradient x1="50%" y1="0%" x2="50%" y2="100%" id="p-amb-l-details">
            <stop stop-color="#7C73F3" offset="0%"></stop>
            <stop stop-color="#9D6DEF" offset="100%"></stop>
        </linearGradient>
    </defs>
    <g id="0512评审版本app设计稿" stroke="none" stroke-width="1" fill="none" fill-rule="evenodd">
        <g id="切图提供" transform="translate(-696.000000, -496.000000)">
            <g id="内部交易明细表" transform="translate(696.000000, 496.000000)">
                <path d="M40,0 C41.3100533,0 42.6169497,0.0642036328 43.9206872,0.192610913 C45.2244287,0.321018207 46.5187344,0.513010749 47.8036062,0.768588636 C49.0884862,1.02416663 50.3577436,1.34209914 51.6113785,1.72238644 C52.8650174,2.1026736 54.097001,2.54348412 55.3073231,3.04481824 C56.5176554,3.54615241 57.7005005,4.1055959 58.8558605,4.72314892 C60.0112205,5.34070195 61.1335364,6.01339056 62.2228021,6.74121456 C63.3120697,7.46903938 64.3630441,8.24849538 65.3757231,9.07958195 C66.3884021,9.91066851 67.3579138,10.7893832 68.2842626,11.7157276 C69.2106113,12.642072 70.0893313,13.6115863 70.9204185,14.6242679 C71.7514974,15.6369487 72.5309477,16.6879214 73.2587692,17.7771877 C73.9865969,18.8664558 74.6592903,19.9887711 75.2768492,21.1441294 C75.8944,22.2994917 76.4538421,23.4823335 76.9551754,24.6926587 C77.4565087,25.9029858 77.8973149,27.1349686 78.2775959,28.3886092 C78.6578831,29.642248 78.9758215,30.9115052 79.2313949,32.1963834 C79.4869764,33.4812613 79.6789703,34.7755713 79.8073785,36.0793169 C79.9357887,37.3830544 80,38.6899508 80,40 C80,41.3100533 79.9357887,42.6169497 79.8073785,43.9206872 C79.6789703,45.2244287 79.4869764,46.5187344 79.2313949,47.8036062 C78.9758215,49.0884862 78.6578831,50.3577436 78.2775959,51.6113785 C77.8973149,52.8650174 77.4565087,54.097001 76.9551754,55.3073231 C76.4538421,56.5176554 75.8944,57.7005005 75.2768492,58.8558605 C74.6592903,60.0112205 73.9866051,61.1335364 73.2587774,62.2228021 C72.5309559,63.3120697 71.7515056,64.3630441 70.9204185,65.3757231 C70.0893313,66.3884021 69.2106113,67.3579138 68.2842626,68.2842626 C67.3579138,69.2106113 66.3884021,70.0893313 65.3757231,70.9204185 C64.3630441,71.7514974 63.3120697,72.5309477 62.2228021,73.2587692 C61.1335364,73.9865969 60.0112205,74.6592903 58.8558605,75.2768492 C57.7005005,75.8944 56.5176595,76.4538421 55.3073272,76.9551754 C54.097001,77.4565087 52.8650174,77.8973149 51.6113826,78.2775959 C50.3577436,78.6578831 49.0884862,78.9758215 47.8036062,79.2313949 C46.5187344,79.4869764 45.2244287,79.6789703 43.9206872,79.8073785 C42.6169497,79.9357887 41.3100533,80 40,80 C38.6899508,80 37.3830544,79.9357887 36.0793169,79.8073785 C34.7755713,79.6789703 33.4812613,79.4869764 32.1963813,79.2313949 C30.9115052,78.9758215 29.642248,78.6578831 28.3886092,78.2775959 C27.1349686,77.8973149 25.9029858,77.4565087 24.6926587,76.9551754 C23.4823335,76.4538421 22.2994917,75.8944 21.1441294,75.2768492 C19.9887711,74.6592903 18.8664558,73.9866051 17.7771877,73.2587774 C16.6879214,72.5309559 15.6369487,71.7515056 14.6242679,70.9204185 C13.6115863,70.0893313 12.642072,69.2106113 11.7157276,68.2842626 C10.7893832,67.3579138 9.91066851,66.3884021 9.07958195,65.3757231 C8.24849538,64.3630441 7.46903938,63.3120697 6.74121456,62.2228021 C6.01339056,61.1335364 5.34070195,60.0112205 4.72314892,58.8558605 C4.1055959,57.7005005 3.54615241,56.5176595 3.04481824,55.3073272 C2.54348412,54.097001 2.1026736,52.8650174 1.72238632,51.6113826 C1.34209914,50.3577436 1.02416663,49.0884862 0.768588636,47.8036062 C0.513010749,46.5187344 0.321018207,45.2244287 0.192610913,43.9206872 C0.0642036328,42.6169497 0,41.3100533 0,40 C0,38.6899508 0.0642036328,37.3830544 0.192610913,36.0793169 C0.321018207,34.7755713 0.513010749,33.4812613 0.768588636,32.1963813 C1.02416663,30.9115052 1.34209914,29.642248 1.72238644,28.3886092 C2.1026736,27.1349686 2.54348412,25.9029858 3.04481824,24.6926587 C3.54615241,23.4823335 4.1055959,22.2994917 4.72314892,21.1441294 C5.34070195,19.9887711 6.01339056,18.8664558 6.74121456,17.7771877 C7.46903938,16.6879214 8.24849538,15.6369487 9.07958195,14.6242679 C9.91066851,13.6115863 10.7893832,12.642072 11.7157276,11.7157276 C12.642072,10.7893832 13.6115863,9.91066851 14.6242679,9.07958195 C15.6369487,8.24849538 16.6879214,7.46903938 17.7771877,6.74121456 C18.8664558,6.01339056 19.9887711,5.34070195 21.1441294,4.72314892 C22.2994917,4.1055959 23.4823335,3.54615241 24.6926587,3.04481824 C25.9029858,2.54348412 27.1349686,2.1026736 28.3886092,1.72238632 C29.642248,1.34209914 30.9115052,1.02416663 32.1963834,0.768588636 C33.4812613,0.513010749 34.7755713,0.321018207 36.0793169,0.192610913 C37.3830544,0.0642036328 38.6899508,0 40,0 Z" id="Stroke-1061" fill="url(#p-amb-l-details)"></path>
                <g id="nav交易中心" transform="translate(20.000000, 23.333333)" fill="#FFFFFF" fill-rule="nonzero">
                    <path d="M37.5976145,3.51423561 C35.2532966,1.1699177 32.1604107,0 29.0764897,0 C25.9925686,0 22.8996827,1.16991774 20.5553648,3.51423561 L12.3704231,11.6946948 C11.2542947,12.8108232 11.2542947,14.6262127 12.3704231,15.7378587 C13.4865515,16.8539871 15.3019411,16.8539871 16.4135871,15.7378587 L24.3968187,7.75462705 C24.7598967,7.39154913 25.3515792,7.39154913 25.7191395,7.75462705 L38.0413764,20.0768639 C42.2772854,15.3658159 42.1293648,8.04150344 37.5976145,3.51423561 L37.5976145,3.51423561 Z" id="路径"></path>
                    <path d="M25.0243608,9.77620902 L17.7359079,17.064662 C15.8936236,18.9069462 12.8903866,18.9069462 11.0481023,17.064662 C9.20581811,15.2223778 9.20581811,12.2191407 11.0481023,10.3768565 L19.1299478,2.29501099 C17.0276818,0.766497807 14.5264784,0 12.0342399,0 C8.9503188,0 5.85743288,1.16991774 3.51311501,3.51423561 C-1.17103834,8.19838896 -1.17103834,15.872332 3.51311501,20.5564854 L11.0167252,28.0600956 C11.0167252,28.0600956 11.0212076,28.064578 11.0212077,28.0690605 L18.9013431,35.949196 C19.8112791,36.859132 21.2949679,36.859132 22.2049039,35.949196 C23.0789804,35.0751195 23.1013926,33.6676323 22.2900703,32.7532138 L16.534613,26.9887916 C16.2656665,26.719845 16.2656665,26.2760831 16.534613,26.0026541 C16.8035596,25.7337075 17.2473216,25.7337075 17.5207506,26.0026541 L23.186559,31.6639801 C24.096495,32.5739161 25.5801838,32.5739161 26.4901198,31.6639801 C27.3955734,30.7585265 27.3955734,29.2838026 26.4990847,28.3738667 L20.8467236,22.7215055 C20.577777,22.4525589 20.577777,22.008797 20.8467236,21.735368 C21.1156702,21.4664214 21.5594321,21.4664214 21.8328611,21.735368 L27.5165994,27.4191062 C28.4265354,28.2842178 29.878847,28.2707704 30.7708533,27.3787642 C31.6807893,26.4688282 31.6807893,24.9851394 30.7708533,24.0752034 L25.1095272,18.4049126 C24.8405807,18.135966 24.8405807,17.6922041 25.1095272,17.418775 C25.3784738,17.1498284 25.8222358,17.1498284 26.0956648,17.418775 L31.8511221,23.1742323 C32.7655406,23.9945194 34.1819927,23.9765897 35.0605516,23.0980308 C35.9704876,22.1880948 35.9704876,20.704406 35.0605516,19.79447 L25.0243608,9.77620902 Z" id="路径"></path>
                </g>
            </g>
        </g>
    </g>
</svg>