<?xml version="1.0" encoding="UTF-8"?>
<svg width="80px" height="80px" viewBox="0 0 80 80" version="1.1" xmlns="http://www.w3.org/2000/svg" xmlns:xlink="http://www.w3.org/1999/xlink">
    <title>经营核算</title>
    <g id="0512评审版本app设计稿" stroke="none" stroke-width="1" fill="none" fill-rule="evenodd">
        <g id="切图提供" transform="translate(-494.000000, -573.000000)">
            <g id="经营核算" transform="translate(494.000000, 573.000000)">
                <g id="编组-7备份-2" fill="#EBF4FF">
                    <circle id="椭圆形" cx="40" cy="40" r="40"></circle>
                </g>
                <g id="核对中心_fill" transform="translate(23.000000, 22.000000)" fill="#0062FF" fill-rule="nonzero">
                    <path d="M10,2 L10,5.2020034 C10,6.2563652 10.8158778,7.12016853 11.8507377,7.19651767 L12,7.2020034 L22,7.2020034 C23.0543618,7.2020034 23.9181651,6.38612561 23.9945143,5.35126575 L24,5.2020034 L24,2 L30,2 C32.1757486,2 33.8931124,3.63766288 33.9951971,5.7961491 L34,6 L34,33 C33.9996499,35.1903528 32.3483066,36.893661 30.2025754,36.9952068 L30,37 L4,37 C1.82449903,37 0.107242097,35.3627086 0.00483441933,33.2038847 L0,33 L0,6 C0.00035010199,3.80964716 1.65169338,2.10633902 3.79742459,2.00479324 L4,2 L10,2 Z M23.8492424,15.2426407 C23.4587181,14.8521164 22.8255531,14.8521164 22.4350288,15.2426407 L22.4350288,15.2426407 L14.6568542,23.0208153 L11.8284271,20.1923882 C11.4379028,19.8018639 10.8047379,19.8018639 10.4142136,20.1923882 L10.4142136,20.1923882 L9.70710678,20.8994949 C9.31658249,21.2900192 9.31658249,21.9231842 9.70710678,22.3137085 L9.70710678,22.3137085 L13.9497475,26.5563492 C14.3402718,26.9468735 14.9734367,26.9468735 15.363961,26.5563492 L15.363961,26.5563492 L24.5563492,17.363961 C24.9468735,16.9734367 24.9468735,16.3402718 24.5563492,15.9497475 L24.5563492,15.9497475 Z M21,-5.89750471e-13 L21,4 L13,4 L13,-5.89750471e-13 L21,-5.89750471e-13 Z" id="形状结合"></path>
                </g>
            </g>
        </g>
    </g>
</svg>