<?xml version="1.0" encoding="UTF-8"?>
<svg width="80px" height="80px" viewBox="0 0 80 80" version="1.1" xmlns="http://www.w3.org/2000/svg" xmlns:xlink="http://www.w3.org/1999/xlink">
    <title>经营科目</title>
    <g id="0512评审版本app设计稿" stroke="none" stroke-width="1" fill="none" fill-rule="evenodd">
        <g id="切图提供" transform="translate(-980.000000, -368.000000)">
            <g id="经营计划" transform="translate(980.000000, 368.000000)">
                <circle id="椭圆形" fill="#EBF4FF" cx="40" cy="40" r="40"></circle>
                <g id="项目" transform="translate(23.000000, 24.000000)" fill="#2573EF">
                    <path d="M27.475879,0.466473402 C28.2202722,0.915828221 28.7545776,1.64570686 28.9595766,2.49325285 L34.9028077,26.0308961 C35.1103949,26.8729707 34.9826182,27.7631513 34.546659,28.5120722 C34.1041808,29.2593189 33.3830899,29.7983893 32.5433227,30.009719 L28.2695385,31.105013 C28.0071189,31.1678765 27.7379646,31.1979084 27.468204,31.1946964 C25.9777856,31.1996296 24.674878,30.1860889 24.3073844,28.7356016 L19.7218112,10.5577395 L19.7219701,28.7132486 C19.7219701,29.5925201 19.371207,30.4351441 18.7479037,31.0526678 C18.1246005,31.6701916 17.2808423,32.0110934 16.4053355,31.9997245 L11.953477,31.9997245 C11.1339179,31.9936974 10.3864245,31.6858129 9.81551111,31.1814372 C9.24042419,31.6907734 8.48478832,31.9991305 7.65743353,31.9991305 L3.20557501,31.9991305 C1.41943379,31.9746008 -0.0121651409,30.5070287 7.79448262e-05,28.7132486 L7.79448262e-05,4.43795842 C-0.00569317425,3.56855028 0.334081793,2.73270489 0.944192074,2.11583145 C1.55430235,1.49895801 2.38430743,1.15207659 3.25009359,1.15207659 L7.70195212,1.15207659 C8.51282193,1.16315627 9.25149852,1.46973268 9.81693553,1.96893474 C10.4181914,1.43861213 11.1937652,1.1465766 11.9979956,1.15200045 L16.4498541,1.15200045 C17.4627785,1.15200045 18.3682039,1.61421846 18.9684046,2.34007011 C19.4121159,1.78125281 20.0270418,1.3783154 20.7236383,1.19678247 L24.9974225,0.101488525 C25.8389504,-0.114318838 26.7314858,0.0171185832 27.475879,0.466473402 Z M4.68581796,23.5998856 C4.21061156,23.8754003 3.91787237,24.3845726 3.91787237,24.9356022 C3.91787237,25.7874201 4.60551428,26.4779549 5.45376356,26.4779549 C6.30201284,26.4779549 6.98965475,25.7874201 6.98965475,24.9356022 C6.98965475,24.3845726 6.69691556,23.8754003 6.22170917,23.5998856 C5.74650277,23.3243708 5.16102435,23.3243708 4.68581796,23.5998856 Z M14.2016656,23.3932495 C13.3534163,23.3932495 12.6657744,24.0837843 12.6657744,24.9356022 C12.6657744,25.7874201 13.3534163,26.4779549 14.2016656,26.4779549 C15.0499148,26.4779549 15.7375568,25.7874201 15.7375568,24.9356022 C15.7375568,24.0837843 15.0499148,23.3932495 14.2016656,23.3932495 Z M28.6702058,22.1638379 C27.8219565,22.1638379 27.1343146,22.8543728 27.1343146,23.7061906 C27.1343146,24.5580085 27.8219565,25.2485433 28.6702058,25.2485433 C29.518455,25.2485433 30.206097,24.5580085 30.206097,23.7061906 C30.206097,22.8543728 29.518455,22.1638379 28.6702058,22.1638379 Z M7.23450697,8.41678131 L3.67302015,8.41678131 C3.05834676,8.41678131 2.56005552,8.91716886 2.56005552,9.53442819 C2.56005552,10.1131088 2.9980068,10.5890701 3.55922598,10.6463048 L3.67302015,10.6520751 L7.23450697,10.6520751 C7.84918036,10.6520751 8.3474716,10.1516875 8.3474716,9.53442819 C8.3474716,8.95574757 7.90952032,8.47978628 7.34830114,8.4225516 L7.23450697,8.41678131 Z M16.0046683,8.41678131 L12.4209222,8.41678131 C11.8062488,8.41678131 11.3079575,8.91716886 11.3079575,9.53442819 C11.3079575,10.1131088 11.7459088,10.5890701 12.307128,10.6463048 L12.4209222,10.6520751 L16.0046683,10.6520751 C16.6193417,10.6520751 17.1176329,10.1516875 17.1176329,9.53442819 C17.1176329,8.95574757 16.6796816,8.47978628 16.1184624,8.4225516 L16.0046683,8.41678131 Z M27.2201908,7.41305665 C27.0083897,7.2868833 26.7608654,7.23868967 26.519647,7.27431174 L26.3997579,7.29913443 L22.9273083,8.10384018 C22.3126349,8.17791132 21.8741386,8.73834537 21.9478994,9.35560468 C22.0170502,9.93428529 22.5118775,10.3574713 23.0799361,10.3470764 L23.1944198,10.3391339 L23.4837906,10.2944281 L26.9339809,9.4226635 C27.214781,9.34917948 27.4548464,9.16635936 27.6010589,8.91465499 C27.7472713,8.66295062 27.7875765,8.36311346 27.7130562,8.08148725 C27.6449451,7.8011942 27.4672922,7.5602589 27.2201908,7.41305665 Z M7.23450697,4.61678192 L3.67302015,4.61678192 C3.05834676,4.61678192 2.56005552,5.11716947 2.56005552,5.7344288 C2.56005552,6.31310942 2.9980068,6.7890707 3.55922598,6.84630539 L3.67302015,6.85207568 L7.23450697,6.85207568 C7.84918036,6.85207568 8.3474716,6.35168813 8.3474716,5.7344288 C8.3474716,5.15574818 7.90952032,4.67978689 7.34830114,4.6225522 L7.23450697,4.61678192 Z M16.0046683,4.61678192 L12.4209222,4.61678192 C11.8062488,4.61678192 11.3079575,5.11716947 11.3079575,5.7344288 C11.3079575,6.31310942 11.7459088,6.7890707 12.307128,6.84630539 L12.4209222,6.85207568 L16.0046683,6.85207568 C16.6193417,6.85207568 17.1176329,6.35168813 17.1176329,5.7344288 C17.1176329,5.15574818 16.6796816,4.67978689 16.1184624,4.6225522 L16.0046683,4.61678192 Z M26.5061473,3.81059623 C26.2604389,3.55964666 25.9118529,3.44442649 25.5701921,3.49478411 L25.4426083,3.52148798 L21.992418,4.41560548 C21.3777446,4.48967661 20.9392483,5.05011067 21.0130091,5.66736998 C21.0867699,6.2846293 21.6448561,6.72497035 22.2595295,6.65089924 C22.3341866,6.63632599 22.4048053,6.60659619 22.4671758,6.56382357 L22.526641,6.51678161 L25.9768314,5.64501705 C26.3607355,5.55484015 26.6662928,5.26362739 26.776022,4.88334473 C26.8857513,4.50306207 26.7825692,4.09291449 26.5061473,3.81059623 Z" id="形状"></path>
                </g>
            </g>
        </g>
    </g>
</svg>