<?xml version="1.0" encoding="UTF-8"?>
<svg width="80px" height="80px" viewBox="0 0 80 80" version="1.1" xmlns="http://www.w3.org/2000/svg" xmlns:xlink="http://www.w3.org/1999/xlink">
    <title>收支转移</title>
    <g id="0512评审版本app设计稿" stroke="none" stroke-width="1" fill="none" fill-rule="evenodd">
        <g id="切图提供" transform="translate(-494.000000, -297.000000)">
            <g id="收支转移" transform="translate(494.000000, 297.000000)">
                <g id="编组-7备份">
                    <circle id="椭圆形" fill="#FFEDD2" opacity="0.5" cx="40" cy="40" r="40"></circle>
                    <g id="天平,公平,天平秤" transform="translate(22.362592, 24.862649)" fill="#FC655C" fill-rule="nonzero" opacity="0">
                        <path d="M9.80612883,13.1692308 L0,13.1692308 L4.75497186,0.105065666 C4.80700438,-0.0350218887 5.00312695,-0.0350218887 5.05515947,0.105065666 L9.80612883,13.1692308 Z" id="路径"></path>
                    </g>
                </g>
                <g id="资产转移申请单-200" transform="translate(19.000000, 19.000000)" fill="#FFB01F">
                    <path d="M22,0 C28.599675,0 34.608127,3.23917157 38.491044,8.37382018 L38.88508,8.91169714 C41.4606,12.5418857 43,17.0515714 43,22 C43,25.0055492 42.3272977,27.8893878 41.1275288,30.5058801 C39.4827946,28.3732813 36.9017708,27 34,27 C29.0294373,27 25,31.0294373 25,36 C25,38.4192157 25.9545143,40.6154925 27.5074788,42.2327666 C25.7447624,42.7321244 23.8966143,43 22,43 C9.62892857,43 1.42108547e-14,33.3710714 1.42108547e-14,22 C1.42108547e-14,9.62892856 9.62892857,0 22,0 Z M25.1516,12.8202034 L22.7121,16.8919053 L20.3355,16.8919053 L17.8977,12.8202034 C17.4663247,12.1004659 16.5441541,11.806072 15.7523,12.1353055 L15.5738,12.2205081 C14.7607441,12.6729838 14.4821801,13.6750473 14.9516,14.4587153 L16.4085,16.8919053 L14.7,16.8919053 C13.8381428,16.8920149 13.1127373,17.5137322 13.0119,18.3387113 L13,18.5304172 C13,19.4353422 13.7611159,20.168929 14.7,20.168929 L19.8,20.168929 L19.8,22.2989944 L14.7,22.2989944 C13.8381428,22.299104 13.1127373,22.9208213 13.0119,23.7458003 L13,23.9375062 C13,24.8424313 13.7611159,25.576018 14.7,25.5760181 L19.8,25.5760181 L19.8,28.3614882 C19.8001137,29.1921724 20.4451621,29.8913404 21.3011,29.9885304 L21.5,30 C22.4388841,30 23.2,29.2664133 23.2,28.3614882 L23.2,25.5760181 L28.3,25.5760181 C29.1618572,25.5759085 29.8872627,24.9541911 29.9881,24.1292121 L30,23.9375062 C30,23.0325811 29.2388841,22.2989944 28.3,22.2989944 L23.2,22.2989944 L23.2,20.168929 L28.3,20.168929 C29.2387825,20.1687905 29.9997398,19.4352443 29.9997398,18.5304172 C29.9997398,17.62559 29.2387825,16.8920439 28.3,16.8919053 L26.6391,16.8919053 L28.0977,14.4587153 C28.567142,13.6745977 28.288193,12.6721514 27.47465,12.2196889 C26.661107,11.7672264 25.6210421,12.0360859 25.1516,12.8202034 Z" id="形状" fill-rule="nonzero"></path>
                    <path d="M38.7413711,36 C39.4364926,36 40,36.5635074 40,37.2586289 C40,37.9537505 39.4364926,38.5172579 38.7413711,38.5172579 L31.969,38.518 L33.1606322,39.8566019 C33.6124365,40.3639152 33.6124365,41.1292588 33.1606322,41.636572 C32.7707852,42.0743158 32.0998904,42.1131438 31.6621467,41.7232969 C31.6315909,41.6960844 31.6026343,41.6671278 31.5754218,41.636572 L28.9334046,38.6699552 C28.8618904,38.5896547 28.8016959,38.5028895 28.7528211,38.4117061 C28.3102849,38.2177816 28,37.7744407 28,37.2586289 C28,36.5635074 28.5635074,36 29.2586289,36 L38.7413711,36 Z M36.3378533,29.2767031 C36.3684091,29.3039156 36.3973657,29.3328722 36.4245782,29.363428 L39.0665954,32.3300448 C39.1381096,32.4103453 39.1983041,32.4971105 39.2471789,32.5882939 C39.6897151,32.7822184 40,33.2255593 40,33.7413711 C40,34.4364926 39.4364926,35 38.7413711,35 L29.2586289,35 C28.5635074,35 28,34.4364926 28,33.7413711 C28,33.0462495 28.5635074,32.4827421 29.2586289,32.4827421 L36.031,32.482 L34.8393678,31.1433981 C34.3875635,30.6360848 34.3875635,29.8707412 34.8393678,29.363428 C35.2292148,28.9256842 35.9001096,28.8868562 36.3378533,29.2767031 Z" id="形状"></path>
                </g>
            </g>
        </g>
    </g>
</svg>