<?xml version="1.0" encoding="UTF-8"?>
<svg width="80px" height="80px" viewBox="0 0 80 80" version="1.1" xmlns="http://www.w3.org/2000/svg" xmlns:xlink="http://www.w3.org/1999/xlink">
    <title>单位时间核算表</title>
    <defs>
        <linearGradient x1="50%" y1="0%" x2="50%" y2="100%" id="p-amb-l-time">
            <stop stop-color="#04C479" offset="0%"></stop>
            <stop stop-color="#43D59B" offset="100%"></stop>
        </linearGradient>
    </defs>
    <g id="0512评审版本app设计稿" stroke="none" stroke-width="1" fill="none" fill-rule="evenodd">
        <g id="切图提供" transform="translate(-808.000000, -375.000000)">
            <g id="单位时间核算表" transform="translate(808.000000, 375.000000)">
                <path d="M40,0 C41.3100533,0 42.6169497,0.0642036328 43.9206872,0.192610913 C45.2244287,0.321018207 46.5187344,0.513010749 47.8036062,0.768588636 C49.0884862,1.02416663 50.3577436,1.34209914 51.6113785,1.72238644 C52.8650174,2.1026736 54.097001,2.54348412 55.3073231,3.04481824 C56.5176554,3.54615241 57.7005005,4.1055959 58.8558605,4.72314892 C60.0112205,5.34070195 61.1335364,6.01339056 62.2228021,6.74121456 C63.3120697,7.46903938 64.3630441,8.24849538 65.3757231,9.07958195 C66.3884021,9.91066851 67.3579138,10.7893832 68.2842626,11.7157276 C69.2106113,12.642072 70.0893313,13.6115863 70.9204185,14.6242679 C71.7514974,15.6369487 72.5309477,16.6879214 73.2587692,17.7771877 C73.9865969,18.8664558 74.6592903,19.9887711 75.2768492,21.1441294 C75.8944,22.2994917 76.4538421,23.4823335 76.9551754,24.6926587 C77.4565087,25.9029858 77.8973149,27.1349686 78.2775959,28.3886092 C78.6578831,29.642248 78.9758215,30.9115052 79.2313949,32.1963834 C79.4869764,33.4812613 79.6789703,34.7755713 79.8073785,36.0793169 C79.9357887,37.3830544 80,38.6899508 80,40 C80,41.3100533 79.9357887,42.6169497 79.8073785,43.9206872 C79.6789703,45.2244287 79.4869764,46.5187344 79.2313949,47.8036062 C78.9758215,49.0884862 78.6578831,50.3577436 78.2775959,51.6113785 C77.8973149,52.8650174 77.4565087,54.097001 76.9551754,55.3073231 C76.4538421,56.5176554 75.8944,57.7005005 75.2768492,58.8558605 C74.6592903,60.0112205 73.9866051,61.1335364 73.2587774,62.2228021 C72.5309559,63.3120697 71.7515056,64.3630441 70.9204185,65.3757231 C70.0893313,66.3884021 69.2106113,67.3579138 68.2842626,68.2842626 C67.3579138,69.2106113 66.3884021,70.0893313 65.3757231,70.9204185 C64.3630441,71.7514974 63.3120697,72.5309477 62.2228021,73.2587692 C61.1335364,73.9865969 60.0112205,74.6592903 58.8558605,75.2768492 C57.7005005,75.8944 56.5176595,76.4538421 55.3073272,76.9551754 C54.097001,77.4565087 52.8650174,77.8973149 51.6113826,78.2775959 C50.3577436,78.6578831 49.0884862,78.9758215 47.8036062,79.2313949 C46.5187344,79.4869764 45.2244287,79.6789703 43.9206872,79.8073785 C42.6169497,79.9357887 41.3100533,80 40,80 C38.6899508,80 37.3830544,79.9357887 36.0793169,79.8073785 C34.7755713,79.6789703 33.4812613,79.4869764 32.1963813,79.2313949 C30.9115052,78.9758215 29.642248,78.6578831 28.3886092,78.2775959 C27.1349686,77.8973149 25.9029858,77.4565087 24.6926587,76.9551754 C23.4823335,76.4538421 22.2994917,75.8944 21.1441294,75.2768492 C19.9887711,74.6592903 18.8664558,73.9866051 17.7771877,73.2587774 C16.6879214,72.5309559 15.6369487,71.7515056 14.6242679,70.9204185 C13.6115863,70.0893313 12.642072,69.2106113 11.7157276,68.2842626 C10.7893832,67.3579138 9.91066851,66.3884021 9.07958195,65.3757231 C8.24849538,64.3630441 7.46903938,63.3120697 6.74121456,62.2228021 C6.01339056,61.1335364 5.34070195,60.0112205 4.72314892,58.8558605 C4.1055959,57.7005005 3.54615241,56.5176595 3.04481824,55.3073272 C2.54348412,54.097001 2.1026736,52.8650174 1.72238632,51.6113826 C1.34209914,50.3577436 1.02416663,49.0884862 0.768588636,47.8036062 C0.513010749,46.5187344 0.321018207,45.2244287 0.192610913,43.9206872 C0.0642036328,42.6169497 0,41.3100533 0,40 C0,38.6899508 0.0642036328,37.3830544 0.192610913,36.0793169 C0.321018207,34.7755713 0.513010749,33.4812613 0.768588636,32.1963813 C1.02416663,30.9115052 1.34209914,29.642248 1.72238644,28.3886092 C2.1026736,27.1349686 2.54348412,25.9029858 3.04481824,24.6926587 C3.54615241,23.4823335 4.1055959,22.2994917 4.72314892,21.1441294 C5.34070195,19.9887711 6.01339056,18.8664558 6.74121456,17.7771877 C7.46903938,16.6879214 8.24849538,15.6369487 9.07958195,14.6242679 C9.91066851,13.6115863 10.7893832,12.642072 11.7157276,11.7157276 C12.642072,10.7893832 13.6115863,9.91066851 14.6242679,9.07958195 C15.6369487,8.24849538 16.6879214,7.46903938 17.7771877,6.74121456 C18.8664558,6.01339056 19.9887711,5.34070195 21.1441294,4.72314892 C22.2994917,4.1055959 23.4823335,3.54615241 24.6926587,3.04481824 C25.9029858,2.54348412 27.1349686,2.1026736 28.3886092,1.72238632 C29.642248,1.34209914 30.9115052,1.02416663 32.1963834,0.768588636 C33.4812613,0.513010749 34.7755713,0.321018207 36.0793169,0.192610913 C37.3830544,0.0642036328 38.6899508,0 40,0 Z" id="Stroke-1061" fill="url(#p-amb-l-time)"></path>
                <g id="时间-(2)" transform="translate(20.000000, 20.000000)" fill="#FFFFFF" fill-rule="nonzero">
                    <path d="M20,0 C8.95535714,0 0,8.95535714 0,20 C0,31.0446429 8.95535714,40 20,40 C31.0446429,40 40,31.0446429 40,20 C40,8.95535714 31.0446429,0 20,0 Z M28.34375,20.9598214 C28.34375,21.8794643 27.5892857,22.6339286 26.6696429,22.6339286 L18.8660714,22.6339286 C18.0491071,22.6339286 17.3660714,22.0446429 17.2232143,21.2678571 C17.1741071,21.1071429 17.1473214,20.9419643 17.1473214,20.7678571 L17.1473214,10.15625 C17.1473214,9.23660714 17.9017857,8.48214286 18.8214286,8.48214286 L19.0714286,8.48214286 C19.9910714,8.48214286 20.7455357,9.23660714 20.7455357,10.15625 L20.7455357,19.0357143 L26.6741071,19.0357143 C27.59375,19.0357143 28.3482143,19.7901786 28.3482143,20.7098214 L28.3482143,20.9598214 L28.34375,20.9598214 Z" id="形状"></path>
                </g>
            </g>
        </g>
    </g>
</svg>