<?xml version="1.0" encoding="UTF-8"?>
<svg width="80px" height="80px" viewBox="0 0 80 80" version="1.1" xmlns="http://www.w3.org/2000/svg" xmlns:xlink="http://www.w3.org/1999/xlink">
    <title>经营上报</title>
    <g id="0512评审版本app设计稿" stroke="none" stroke-width="1" fill="none" fill-rule="evenodd">
        <g id="切图提供" transform="translate(-494.000000, -436.000000)">
            <g id="经营上报" transform="translate(494.000000, 436.000000)">
                <g id="编组-7备份-3" fill="#DEF7F4">
                    <circle id="椭圆形" cx="40" cy="40" r="40"></circle>
                </g>
                <g id="上报" transform="translate(20.800000, 19.200000)" fill="#3DD598" fill-rule="nonzero">
                    <path d="M34.2,0.8 L38.2,8.8 L38.2,31.8 C38.2,33.4568542 36.8568542,34.8 35.2,34.8 L3.2,34.8 C1.54314575,34.8 0.2,33.4568542 0.2,31.8 L0.2,8.8 L0.2,8.8 L4.2,0.8 L34.2,0.8 Z M18.2,13.8 L11.2,20.8 L17.2,20.8 L17.2,28.8 L20.2,28.8 L20.2,20.8 L26.2,20.8 L18.2,13.8 Z M32.2,4.8 L6.2,4.8 L4.2,8.8 L34.2,8.8 L32.2,4.8 Z" id="形状"></path>
                </g>
            </g>
        </g>
    </g>
</svg>