<?xml version="1.0" encoding="UTF-8"?>
<svg width="80px" height="80px" viewBox="0 0 80 80" version="1.1" xmlns="http://www.w3.org/2000/svg" xmlns:xlink="http://www.w3.org/1999/xlink">
    <title>经营利润表</title>
    <defs>
        <linearGradient x1="50%" y1="0%" x2="50%" y2="100%" id="p-amb-l-profit">
            <stop stop-color="#7B74F3" offset="0%"></stop>
            <stop stop-color="#9F6DEF" offset="100%"></stop>
        </linearGradient>
    </defs>
    <g id="0512评审版本app设计稿" stroke="none" stroke-width="1" fill="none" fill-rule="evenodd">
        <g id="切图提供" transform="translate(-808.000000, -151.000000)">
            <g id="利润表-selected" transform="translate(808.000000, 151.000000)">
                <path d="M40,0 C41.3100533,0 42.6169497,0.0642036328 43.9206872,0.192610913 C45.2244287,0.321018207 46.5187344,0.513010749 47.8036062,0.768588636 C49.0884862,1.02416663 50.3577436,1.34209914 51.6113785,1.72238644 C52.8650174,2.1026736 54.097001,2.54348412 55.3073231,3.04481824 C56.5176554,3.54615241 57.7005005,4.1055959 58.8558605,4.72314892 C60.0112205,5.34070195 61.1335364,6.01339056 62.2228021,6.74121456 C63.3120697,7.46903938 64.3630441,8.24849538 65.3757231,9.07958195 C66.3884021,9.91066851 67.3579138,10.7893832 68.2842626,11.7157276 C69.2106113,12.642072 70.0893313,13.6115863 70.9204185,14.6242679 C71.7514974,15.6369487 72.5309477,16.6879214 73.2587692,17.7771877 C73.9865969,18.8664558 74.6592903,19.9887711 75.2768492,21.1441294 C75.8944,22.2994917 76.4538421,23.4823335 76.9551754,24.6926587 C77.4565087,25.9029858 77.8973149,27.1349686 78.2775959,28.3886092 C78.6578831,29.642248 78.9758215,30.9115052 79.2313949,32.1963834 C79.4869764,33.4812613 79.6789703,34.7755713 79.8073785,36.0793169 C79.9357887,37.3830544 80,38.6899508 80,40 C80,41.3100533 79.9357887,42.6169497 79.8073785,43.9206872 C79.6789703,45.2244287 79.4869764,46.5187344 79.2313949,47.8036062 C78.9758215,49.0884862 78.6578831,50.3577436 78.2775959,51.6113785 C77.8973149,52.8650174 77.4565087,54.097001 76.9551754,55.3073231 C76.4538421,56.5176554 75.8944,57.7005005 75.2768492,58.8558605 C74.6592903,60.0112205 73.9866051,61.1335364 73.2587774,62.2228021 C72.5309559,63.3120697 71.7515056,64.3630441 70.9204185,65.3757231 C70.0893313,66.3884021 69.2106113,67.3579138 68.2842626,68.2842626 C67.3579138,69.2106113 66.3884021,70.0893313 65.3757231,70.9204185 C64.3630441,71.7514974 63.3120697,72.5309477 62.2228021,73.2587692 C61.1335364,73.9865969 60.0112205,74.6592903 58.8558605,75.2768492 C57.7005005,75.8944 56.5176595,76.4538421 55.3073272,76.9551754 C54.097001,77.4565087 52.8650174,77.8973149 51.6113826,78.2775959 C50.3577436,78.6578831 49.0884862,78.9758215 47.8036062,79.2313949 C46.5187344,79.4869764 45.2244287,79.6789703 43.9206872,79.8073785 C42.6169497,79.9357887 41.3100533,80 40,80 C38.6899508,80 37.3830544,79.9357887 36.0793169,79.8073785 C34.7755713,79.6789703 33.4812613,79.4869764 32.1963813,79.2313949 C30.9115052,78.9758215 29.642248,78.6578831 28.3886092,78.2775959 C27.1349686,77.8973149 25.9029858,77.4565087 24.6926587,76.9551754 C23.4823335,76.4538421 22.2994917,75.8944 21.1441294,75.2768492 C19.9887711,74.6592903 18.8664558,73.9866051 17.7771877,73.2587774 C16.6879214,72.5309559 15.6369487,71.7515056 14.6242679,70.9204185 C13.6115863,70.0893313 12.642072,69.2106113 11.7157276,68.2842626 C10.7893832,67.3579138 9.91066851,66.3884021 9.07958195,65.3757231 C8.24849538,64.3630441 7.46903938,63.3120697 6.74121456,62.2228021 C6.01339056,61.1335364 5.34070195,60.0112205 4.72314892,58.8558605 C4.1055959,57.7005005 3.54615241,56.5176595 3.04481824,55.3073272 C2.54348412,54.097001 2.1026736,52.8650174 1.72238632,51.6113826 C1.34209914,50.3577436 1.02416663,49.0884862 0.768588636,47.8036062 C0.513010749,46.5187344 0.321018207,45.2244287 0.192610913,43.9206872 C0.0642036328,42.6169497 0,41.3100533 0,40 C0,38.6899508 0.0642036328,37.3830544 0.192610913,36.0793169 C0.321018207,34.7755713 0.513010749,33.4812613 0.768588636,32.1963813 C1.02416663,30.9115052 1.34209914,29.642248 1.72238644,28.3886092 C2.1026736,27.1349686 2.54348412,25.9029858 3.04481824,24.6926587 C3.54615241,23.4823335 4.1055959,22.2994917 4.72314892,21.1441294 C5.34070195,19.9887711 6.01339056,18.8664558 6.74121456,17.7771877 C7.46903938,16.6879214 8.24849538,15.6369487 9.07958195,14.6242679 C9.91066851,13.6115863 10.7893832,12.642072 11.7157276,11.7157276 C12.642072,10.7893832 13.6115863,9.91066851 14.6242679,9.07958195 C15.6369487,8.24849538 16.6879214,7.46903938 17.7771877,6.74121456 C18.8664558,6.01339056 19.9887711,5.34070195 21.1441294,4.72314892 C22.2994917,4.1055959 23.4823335,3.54615241 24.6926587,3.04481824 C25.9029858,2.54348412 27.1349686,2.1026736 28.3886092,1.72238632 C29.642248,1.34209914 30.9115052,1.02416663 32.1963834,0.768588636 C33.4812613,0.513010749 34.7755713,0.321018207 36.0793169,0.192610913 C37.3830544,0.0642036328 38.6899508,0 40,0 Z" id="Stroke-1061" fill="url(#p-amb-l-profit)"></path>
                <path d="M42.8307141,50.9317378 C42.4531066,47.9108776 43.2847991,45.9224632 44.0734731,44.7657414 C44.135611,44.6749244 44.197749,44.5888872 44.2598869,44.5028501 C44.2933458,44.4550516 44.2598869,44.3929137 44.2025288,44.3976935 C44.1738498,44.4024734 44.1451707,44.4024734 44.1117118,44.4024734 L42.5821623,44.4024734 C42.0802789,44.4024734 41.6739923,43.9961868 41.6739923,43.4943034 L41.6739923,34.3170063 C41.6739923,33.8151229 42.0802789,33.4088363 42.5821623,33.4088363 L44.1117118,33.4088363 C44.6135952,33.4088363 45.0198818,33.8151229 45.0198818,34.3170063 L45.0198818,43.4943034 C45.0198818,43.5468816 45.0820198,43.5755607 45.1250384,43.5373219 C45.7511977,42.958961 46.4155958,42.5717938 47.0274156,42.3519211 C47.075214,42.3328017 47.0943334,42.2754436 47.0608745,42.2372049 C46.4920732,41.505889 45.5791234,40.0862759 45.3401313,38.5519465 C45.043781,36.6400096 46.6067894,36.114227 47.0035164,36.114227 C47.8304291,36.114227 48.5091666,36.9745986 49.345639,36.9745986 C50.1821114,36.9745986 50.7843715,36.3245401 51.7642392,36.3245401 C51.7881384,36.3245401 51.8168175,36.3245401 51.8407167,36.3293199 C51.8646159,36.3293199 51.8885151,36.3245401 51.9171941,36.3245401 C52.1705258,36.3245401 52.4238574,36.3675586 52.6867487,36.4344764 C52.9878788,36.5109539 53.284229,36.2767416 53.284229,35.9660519 L53.284229,27.9454767 C53.284229,26.6262402 52.2135444,25.5555556 50.8943079,25.5555556 L23.5010322,25.5555556 C22.1817958,25.5555556 21.1111111,26.6262402 21.1111111,27.9454767 L21.1111111,49.0723792 C21.1111111,50.3916157 22.1817958,51.4623003 23.5010322,51.4623003 L42.3575097,51.4623003 C42.6443003,51.4623003 42.864173,51.2137485 42.8307141,50.9317378 Z M31.7605996,43.4943034 C31.7605996,43.9961868 31.354313,44.4024734 30.8524295,44.4024734 L29.32288,44.4024734 C28.8209966,44.4024734 28.41471,43.9961868 28.41471,43.4943034 L28.41471,40.052817 C28.41471,39.5509335 28.8209966,39.144647 29.32288,39.144647 L30.8524295,39.144647 C31.354313,39.144647 31.7605996,39.5509335 31.7605996,40.052817 L31.7605996,43.4943034 Z M38.3902407,43.4943034 C38.3902407,43.9961868 37.9839541,44.4024734 37.4820707,44.4024734 L35.9525212,44.4024734 C35.4506377,44.4024734 35.0443511,43.9961868 35.0443511,43.4943034 L35.0443511,37.1849116 C35.0443511,36.6830282 35.4506377,36.2767416 35.9525212,36.2767416 L37.4820707,36.2767416 C37.9839541,36.2767416 38.3902407,36.6830282 38.3902407,37.1849116 L38.3902407,43.4943034 Z" id="形状" fill="#FFFFFF" fill-rule="nonzero"></path>
                <path d="M51.8693957,37.4286836 C51.8502764,37.4286836 51.8263771,37.4239038 51.8024779,37.4239038 C50.9660055,37.4239038 50.0387162,37.9735856 49.3265197,37.9735856 C48.6143232,37.9735856 47.7348322,37.1705721 47.2759674,37.1705721 C46.8983598,37.1705721 46.1622641,37.4669223 46.3964764,38.9630129 C46.5685507,40.0719363 47.3811239,41.0948226 47.8686678,41.6206052 C48.0885405,41.8595973 48.4231295,41.9982128 48.772058,41.9982128 L54.9715133,41.9982128 C55.3204418,41.9982128 55.6550307,41.8595973 55.8749035,41.6206052 C56.3624474,41.0948226 57.1702407,40.0719363 57.3470949,38.9630129 C57.5813072,37.4621425 56.8452115,37.1705721 56.4676039,37.1705721 C56.0039592,37.1705721 55.1244683,37.9783655 54.4122718,37.9783655 C53.7000753,37.9783655 52.7775657,37.4286836 51.9363135,37.4286836 L51.8693957,37.4286836 L51.8693957,37.4286836 Z M60.9606556,55.4678081 C60.7646821,54.9229061 60.4014141,54.4831606 60.0763848,54.1198926 C59.9377694,53.9669376 59.5936207,53.2069427 59.8134935,51.7777699 C60.2914777,48.6565329 59.493244,46.6251 58.7428088,45.473158 C57.6625645,43.8193326 56.161694,43.0306587 55.1579272,42.9876401 C54.7564204,42.9685207 52.7345472,42.9828602 51.8741756,42.9876401 C51.013804,42.9828602 48.9919307,42.9733006 48.590424,42.9876401 C47.5818773,43.0306587 46.0857866,43.8193326 45.0055423,45.473158 C44.2503272,46.6298799 43.4520936,48.6613128 43.9348577,51.7777699 C44.1547304,53.2117226 43.8105818,53.9669376 43.6719663,54.1198926 C43.3469371,54.4831606 42.9836691,54.9229061 42.7876955,55.4678081 C42.5104647,56.227803 42.620401,57.0069173 43.0983853,57.6665355 C44.1212715,59.0813688 45.8850333,59.0526897 47.2998666,59.0240107 C47.5053998,59.0192309 47.7204927,59.014451 47.9260259,59.014451 L55.8366648,59.014451 C56.042198,59.014451 56.252511,59.0192309 56.4628241,59.0240107 C56.6587976,59.0287905 56.859551,59.0335704 57.0650842,59.0335704 C58.3508618,59.0335704 59.7800346,58.8901751 60.6643054,57.6665355 C61.1279501,57.0069173 61.2378864,56.2230232 60.9606556,55.4678081 Z M54.010765,50.2195413 C54.4887492,50.2195413 54.7564204,50.4824327 54.7564204,50.9651967 C54.7564204,51.4384011 54.4935291,51.7012924 54.010765,51.7012924 L52.6293906,51.7012924 L52.6293906,51.9594039 L54.0059852,51.9594039 C54.4839694,51.9594039 54.7516406,52.2222952 54.7516406,52.7050593 C54.7516406,53.1782637 54.4887492,53.441155 54.0059852,53.441155 L52.6293906,53.441155 L52.6293906,54.5500784 C52.6293906,54.8751077 52.5815922,55.0806409 52.4764357,55.2049168 C52.3664993,55.3339725 52.1609661,55.3961105 51.8502764,55.3961105 C51.5826052,55.3961105 51.3866317,55.3387524 51.2575759,55.2192563 C51.1237403,55.0997602 51.0616024,54.8798875 51.0616024,54.5548582 L51.0616024,53.4459348 L49.7041272,53.4459348 C49.226143,53.4459348 48.9584718,53.1830435 48.9584718,52.7098391 C48.9584718,52.2318549 49.2165833,51.9641838 49.6850078,51.9641838 L51.0616024,51.9641838 L51.0616024,51.7012924 L49.7041272,51.7012924 C49.226143,51.7012924 48.9584718,51.4384011 48.9584718,50.9651967 C48.9584718,50.4872125 49.2165833,50.2195413 49.6850078,50.2195413 L50.2824881,50.2195413 C50.1104138,49.9375307 49.9335596,49.6507401 49.7567055,49.3639496 C49.5320529,49.0054614 49.3121801,48.6469733 49.0970872,48.2932649 C48.9584718,48.0733922 48.9106734,47.8726388 48.953692,47.6910048 C48.9919307,47.5093708 49.1018671,47.3564159 49.2739414,47.2369198 C49.4699149,47.1030842 49.6611086,47.0457261 49.8379628,47.0744052 C50.0243766,47.1030842 50.1916711,47.2416997 50.3446261,47.4998111 L51.859836,50.0331275 C52.0844886,49.6459603 52.3091412,49.2683527 52.5337938,48.8859654 C52.801465,48.4366602 53.0643563,47.987355 53.3320274,47.53327 C53.4180646,47.3898748 53.4993219,47.2847182 53.5805792,47.2130206 C53.6713962,47.1317633 53.7669931,47.0839649 53.8673698,47.0696253 C53.9677464,47.0552858 54.0681231,47.0696253 54.16372,47.1126439 C54.2401975,47.1461028 54.3214548,47.1939012 54.4074919,47.2464795 C54.6273647,47.3850949 54.7468607,47.5380499 54.7659801,47.7101242 C54.7850995,47.867859 54.7325212,48.0590527 54.5986856,48.2884851 L53.4324041,50.2195413 L54.010765,50.2195413 L54.010765,50.2195413 Z" id="形状" fill="#FFFFFF" fill-rule="nonzero"></path>
            </g>
        </g>
    </g>
</svg>