<?xml version="1.0" encoding="UTF-8"?>
<svg width="80px" height="80px" viewBox="0 0 80 80" version="1.1" xmlns="http://www.w3.org/2000/svg" xmlns:xlink="http://www.w3.org/1999/xlink">
    <title>交易定价</title>
    <g id="0512评审版本app设计稿" stroke="none" stroke-width="1" fill="none" fill-rule="evenodd">
        <g id="切图提供" transform="translate(-68.000000, -293.000000)">
            <g id="交易定价" transform="translate(68.000000, 293.000000)">
                <circle id="椭圆形" fill="#DEF7F4" cx="40" cy="40" r="40"></circle>
                <g id="经营管理2" transform="translate(22.000000, 25.000000)" fill="#3DD598">
                    <polygon id="路径" points="2.57695312 26.7417595 2.57695312 0 0 0 0 30 36 30 36 26.7417595"></polygon>
                    <path d="M6,15 L12,15 L12,25 L6,25 L6,15 Z M13,6 L19,6 L19,25 L13,25 L13,6 Z M20,11 L26,11 L26,25 L20,25 L20,11 Z M27,3 L33,3 L33,25 L27,25 L27,3 Z" id="形状"></path>
                </g>
            </g>
        </g>
    </g>
</svg>