<?xml version="1.0" encoding="UTF-8"?>
<svg width="80px" height="80px" viewBox="0 0 80 80" version="1.1" xmlns="http://www.w3.org/2000/svg" xmlns:xlink="http://www.w3.org/1999/xlink">
    <title>编组 4</title>
    <defs>
        <linearGradient x1="50%" y1="0%" x2="50%" y2="100%" id="p-amb-l-compute">
            <stop stop-color="#245BDB" offset="0%"></stop>
            <stop stop-color="#4991FF" offset="100%"></stop>
        </linearGradient>
    </defs>
    <g id="0512评审版本app设计稿" stroke="none" stroke-width="1" fill="none" fill-rule="evenodd">
        <g id="切图提供" transform="translate(-696.000000, -156.000000)">
            <g id="编组-4" transform="translate(696.000000, 156.000000)">
                <path d="M40,0 C41.3100533,0 42.6169497,0.0642036328 43.9206872,0.192610913 C45.2244287,0.321018207 46.5187344,0.513010749 47.8036062,0.768588636 C49.0884862,1.02416663 50.3577436,1.34209914 51.6113785,1.72238644 C52.8650174,2.1026736 54.097001,2.54348412 55.3073231,3.04481824 C56.5176554,3.54615241 57.7005005,4.1055959 58.8558605,4.72314892 C60.0112205,5.34070195 61.1335364,6.01339056 62.2228021,6.74121456 C63.3120697,7.46903938 64.3630441,8.24849538 65.3757231,9.07958195 C66.3884021,9.91066851 67.3579138,10.7893832 68.2842626,11.7157276 C69.2106113,12.642072 70.0893313,13.6115863 70.9204185,14.6242679 C71.7514974,15.6369487 72.5309477,16.6879214 73.2587692,17.7771877 C73.9865969,18.8664558 74.6592903,19.9887711 75.2768492,21.1441294 C75.8944,22.2994917 76.4538421,23.4823335 76.9551754,24.6926587 C77.4565087,25.9029858 77.8973149,27.1349686 78.2775959,28.3886092 C78.6578831,29.642248 78.9758215,30.9115052 79.2313949,32.1963834 C79.4869764,33.4812613 79.6789703,34.7755713 79.8073785,36.0793169 C79.9357887,37.3830544 80,38.6899508 80,40 C80,41.3100533 79.9357887,42.6169497 79.8073785,43.9206872 C79.6789703,45.2244287 79.4869764,46.5187344 79.2313949,47.8036062 C78.9758215,49.0884862 78.6578831,50.3577436 78.2775959,51.6113785 C77.8973149,52.8650174 77.4565087,54.097001 76.9551754,55.3073231 C76.4538421,56.5176554 75.8944,57.7005005 75.2768492,58.8558605 C74.6592903,60.0112205 73.9866051,61.1335364 73.2587774,62.2228021 C72.5309559,63.3120697 71.7515056,64.3630441 70.9204185,65.3757231 C70.0893313,66.3884021 69.2106113,67.3579138 68.2842626,68.2842626 C67.3579138,69.2106113 66.3884021,70.0893313 65.3757231,70.9204185 C64.3630441,71.7514974 63.3120697,72.5309477 62.2228021,73.2587692 C61.1335364,73.9865969 60.0112205,74.6592903 58.8558605,75.2768492 C57.7005005,75.8944 56.5176595,76.4538421 55.3073272,76.9551754 C54.097001,77.4565087 52.8650174,77.8973149 51.6113826,78.2775959 C50.3577436,78.6578831 49.0884862,78.9758215 47.8036062,79.2313949 C46.5187344,79.4869764 45.2244287,79.6789703 43.9206872,79.8073785 C42.6169497,79.9357887 41.3100533,80 40,80 C38.6899508,80 37.3830544,79.9357887 36.0793169,79.8073785 C34.7755713,79.6789703 33.4812613,79.4869764 32.1963813,79.2313949 C30.9115052,78.9758215 29.642248,78.6578831 28.3886092,78.2775959 C27.1349686,77.8973149 25.9029858,77.4565087 24.6926587,76.9551754 C23.4823335,76.4538421 22.2994917,75.8944 21.1441294,75.2768492 C19.9887711,74.6592903 18.8664558,73.9866051 17.7771877,73.2587774 C16.6879214,72.5309559 15.6369487,71.7515056 14.6242679,70.9204185 C13.6115863,70.0893313 12.642072,69.2106113 11.7157276,68.2842626 C10.7893832,67.3579138 9.91066851,66.3884021 9.07958195,65.3757231 C8.24849538,64.3630441 7.46903938,63.3120697 6.74121456,62.2228021 C6.01339056,61.1335364 5.34070195,60.0112205 4.72314892,58.8558605 C4.1055959,57.7005005 3.54615241,56.5176595 3.04481824,55.3073272 C2.54348412,54.097001 2.1026736,52.8650174 1.72238632,51.6113826 C1.34209914,50.3577436 1.02416663,49.0884862 0.768588636,47.8036062 C0.513010749,46.5187344 0.321018207,45.2244287 0.192610913,43.9206872 C0.0642036328,42.6169497 0,41.3100533 0,40 C0,38.6899508 0.0642036328,37.3830544 0.192610913,36.0793169 C0.321018207,34.7755713 0.513010749,33.4812613 0.768588636,32.1963813 C1.02416663,30.9115052 1.34209914,29.642248 1.72238644,28.3886092 C2.1026736,27.1349686 2.54348412,25.9029858 3.04481824,24.6926587 C3.54615241,23.4823335 4.1055959,22.2994917 4.72314892,21.1441294 C5.34070195,19.9887711 6.01339056,18.8664558 6.74121456,17.7771877 C7.46903938,16.6879214 8.24849538,15.6369487 9.07958195,14.6242679 C9.91066851,13.6115863 10.7893832,12.642072 11.7157276,11.7157276 C12.642072,10.7893832 13.6115863,9.91066851 14.6242679,9.07958195 C15.6369487,8.24849538 16.6879214,7.46903938 17.7771877,6.74121456 C18.8664558,6.01339056 19.9887711,5.34070195 21.1441294,4.72314892 C22.2994917,4.1055959 23.4823335,3.54615241 24.6926587,3.04481824 C25.9029858,2.54348412 27.1349686,2.1026736 28.3886092,1.72238632 C29.642248,1.34209914 30.9115052,1.02416663 32.1963834,0.768588636 C33.4812613,0.513010749 34.7755713,0.321018207 36.0793169,0.192610913 C37.3830544,0.0642036328 38.6899508,0 40,0 Z" id="Stroke-1061" fill="url(#p-amb-l-compute)"></path>
                <path d="M60,41.5384615 L60,54.1700405 C60,57.5932153 57.5922839,60 54.1700405,60 L54.1700405,60 L41.5384615,60 L41.5384615,42.5101215 C41.5384615,42.0740961 42.0671588,41.5384615 42.5101215,41.5384615 L42.5101215,41.5384615 L60,41.5384615 Z M37.4898785,41.5384615 C37.9256966,41.5456061 38.4615385,42.081448 38.4615385,42.5101215 L38.4615385,42.5101215 L38.4615385,60 L25.8299595,60 C22.4077161,60 20,57.5922839 20,54.1700405 L20,54.1700405 L20,41.5384615 Z M50.7692308,52.8205128 C49.636339,52.8205128 48.7179487,53.7389031 48.7179487,54.8717949 C48.7179487,56.0046867 49.636339,56.9230769 50.7692308,56.9230769 C51.9021226,56.9230769 52.8205128,56.0046867 52.8205128,54.8717949 C52.8205128,53.7389031 51.9021226,52.8205128 50.7692308,52.8205128 Z M27.2069353,45.650175 C26.6354364,45.0786761 25.7088535,45.0786761 25.1373545,45.650175 C24.5658556,46.221674 24.5658556,47.1482569 25.1373545,47.7197558 L25.1373545,47.7197558 L27.2065768,49.7887659 L25.491129,51.505143 C24.8903224,52.1059496 24.8903224,53.0800496 25.491129,53.6808562 C26.0919356,54.2816628 27.0660356,54.2816628 27.6668422,53.6808562 L27.6668422,53.6808562 L29.38229,51.9644791 L31.346097,53.9284983 C31.9175959,54.4999973 32.8441788,54.4999973 33.4156778,53.9284983 C33.9871768,53.3569994 33.9871768,52.4304165 33.4156778,51.8589175 L33.4156778,51.8589175 L31.4521185,49.8946506 L33.468744,47.8789544 C34.0695506,47.2781478 34.0695506,46.3040478 33.468744,45.7032412 C32.8679374,45.1024346 31.8938374,45.1024346 31.2930308,45.7032412 L31.2930308,45.7032412 L29.2764053,47.7189374 Z M55.5029586,48.7179487 L46.035503,48.7179487 C45.2511933,48.7179487 44.6153846,49.3537574 44.6153846,50.1380671 C44.6153846,50.9223768 45.2511933,51.5581854 46.035503,51.5581854 L46.035503,51.5581854 L55.5029586,51.5581854 C56.2872683,51.5581854 56.9230769,50.9223768 56.9230769,50.1380671 C56.9230769,49.3537574 56.2872683,48.7179487 55.5029586,48.7179487 L55.5029586,48.7179487 Z M50.7692308,43.5897436 C49.636339,43.5897436 48.7179487,44.5081338 48.7179487,45.6410256 C48.7179487,46.7739174 49.636339,47.6923077 50.7692308,47.6923077 C51.9021226,47.6923077 52.8205128,46.7739174 52.8205128,45.6410256 C52.8205128,44.5081338 51.9021226,43.5897436 50.7692308,43.5897436 Z M54.1700405,20 C57.5851393,20 60,22.4077161 60,25.8299595 L60,25.8299595 L60,38.4615385 L42.5101215,38.4615385 C42.0743034,38.4615385 41.5384615,37.9256966 41.5384615,37.4898785 L41.5384615,37.4898785 L41.5384615,20 Z M38.4615385,20 L38.4615385,37.4898785 C38.4615385,37.9256966 37.9256966,38.4615385 37.4898785,38.4615385 L37.4898785,38.4615385 L20,38.4615385 L20,38.4615385 L20,25.8299595 C20,22.4150394 22.4150394,20 25.8299595,20 L25.8299595,20 L38.4615385,20 L38.4615385,20 Z M29.112426,23.0769231 C28.2627572,23.0769231 27.5739645,23.7657158 27.5739645,24.6153846 L27.5739645,24.6153846 L27.57357,27.2974359 L24.7731755,27.2978304 C23.9888658,27.2978304 23.3530572,27.933639 23.3530572,28.7179487 C23.3530572,29.5022584 23.9888658,30.1380671 24.7731755,30.1380671 L24.7731755,30.1380671 L27.57357,30.1374359 L27.5739645,32.8205128 C27.5739645,33.6701817 28.2627572,34.3589744 29.112426,34.3589744 C29.9620949,34.3589744 30.6508876,33.6701817 30.6508876,32.8205128 L30.6508876,32.8205128 L30.6504931,30.1374359 L33.2149901,30.1380671 C33.9992998,30.1380671 34.6351085,29.5022584 34.6351085,28.7179487 C34.6351085,27.933639 33.9992998,27.2978304 33.2149901,27.2978304 L33.2149901,27.2978304 L30.6504931,27.2974359 L30.6508876,24.6153846 C30.6508876,23.7657158 29.9620949,23.0769231 29.112426,23.0769231 Z M55.8849281,28.2051282 L47.1044403,28.2051282 C46.2962187,28.2051282 45.6410256,28.8603213 45.6410256,29.6685428 C45.6410256,30.4767644 46.2962187,31.1319575 47.1044403,31.1319575 L47.1044403,31.1319575 L55.8849281,31.1319575 C56.6931497,31.1319575 57.3483427,30.4767644 57.3483427,29.6685428 C57.3483427,28.8603213 56.6931497,28.2051282 55.8849281,28.2051282 L55.8849281,28.2051282 Z" id="形状结合" fill="#FFFFFF"></path>
            </g>
        </g>
    </g>
</svg>