<?xml version="1.0" encoding="UTF-8"?>
<svg width="80px" height="80px" viewBox="0 0 80 80" version="1.1" xmlns="http://www.w3.org/2000/svg" xmlns:xlink="http://www.w3.org/1999/xlink">
    <title>经营填报偏差表</title>
    <defs>
        <linearGradient x1="50%" y1="0%" x2="50%" y2="100%" id="p-amb-l-deviation">
            <stop stop-color="#06C57A" offset="0%"></stop>
            <stop stop-color="#42D59A" offset="100%"></stop>
        </linearGradient>
    </defs>
    <g id="0512评审版本app设计稿" stroke="none" stroke-width="1" fill="none" fill-rule="evenodd">
        <g id="切图提供" transform="translate(-696.000000, -711.000000)">
            <g id="经营填报偏差表" transform="translate(696.000000, 711.000000)">
                <path d="M40,0 C41.3100533,0 42.6169497,0.0642036328 43.9206872,0.192610913 C45.2244287,0.321018207 46.5187344,0.513010749 47.8036062,0.768588636 C49.0884862,1.02416663 50.3577436,1.34209914 51.6113785,1.72238644 C52.8650174,2.1026736 54.097001,2.54348412 55.3073231,3.04481824 C56.5176554,3.54615241 57.7005005,4.1055959 58.8558605,4.72314892 C60.0112205,5.34070195 61.1335364,6.01339056 62.2228021,6.74121456 C63.3120697,7.46903938 64.3630441,8.24849538 65.3757231,9.07958195 C66.3884021,9.91066851 67.3579138,10.7893832 68.2842626,11.7157276 C69.2106113,12.642072 70.0893313,13.6115863 70.9204185,14.6242679 C71.7514974,15.6369487 72.5309477,16.6879214 73.2587692,17.7771877 C73.9865969,18.8664558 74.6592903,19.9887711 75.2768492,21.1441294 C75.8944,22.2994917 76.4538421,23.4823335 76.9551754,24.6926587 C77.4565087,25.9029858 77.8973149,27.1349686 78.2775959,28.3886092 C78.6578831,29.642248 78.9758215,30.9115052 79.2313949,32.1963834 C79.4869764,33.4812613 79.6789703,34.7755713 79.8073785,36.0793169 C79.9357887,37.3830544 80,38.6899508 80,40 C80,41.3100533 79.9357887,42.6169497 79.8073785,43.9206872 C79.6789703,45.2244287 79.4869764,46.5187344 79.2313949,47.8036062 C78.9758215,49.0884862 78.6578831,50.3577436 78.2775959,51.6113785 C77.8973149,52.8650174 77.4565087,54.097001 76.9551754,55.3073231 C76.4538421,56.5176554 75.8944,57.7005005 75.2768492,58.8558605 C74.6592903,60.0112205 73.9866051,61.1335364 73.2587774,62.2228021 C72.5309559,63.3120697 71.7515056,64.3630441 70.9204185,65.3757231 C70.0893313,66.3884021 69.2106113,67.3579138 68.2842626,68.2842626 C67.3579138,69.2106113 66.3884021,70.0893313 65.3757231,70.9204185 C64.3630441,71.7514974 63.3120697,72.5309477 62.2228021,73.2587692 C61.1335364,73.9865969 60.0112205,74.6592903 58.8558605,75.2768492 C57.7005005,75.8944 56.5176595,76.4538421 55.3073272,76.9551754 C54.097001,77.4565087 52.8650174,77.8973149 51.6113826,78.2775959 C50.3577436,78.6578831 49.0884862,78.9758215 47.8036062,79.2313949 C46.5187344,79.4869764 45.2244287,79.6789703 43.9206872,79.8073785 C42.6169497,79.9357887 41.3100533,80 40,80 C38.6899508,80 37.3830544,79.9357887 36.0793169,79.8073785 C34.7755713,79.6789703 33.4812613,79.4869764 32.1963813,79.2313949 C30.9115052,78.9758215 29.642248,78.6578831 28.3886092,78.2775959 C27.1349686,77.8973149 25.9029858,77.4565087 24.6926587,76.9551754 C23.4823335,76.4538421 22.2994917,75.8944 21.1441294,75.2768492 C19.9887711,74.6592903 18.8664558,73.9866051 17.7771877,73.2587774 C16.6879214,72.5309559 15.6369487,71.7515056 14.6242679,70.9204185 C13.6115863,70.0893313 12.642072,69.2106113 11.7157276,68.2842626 C10.7893832,67.3579138 9.91066851,66.3884021 9.07958195,65.3757231 C8.24849538,64.3630441 7.46903938,63.3120697 6.74121456,62.2228021 C6.01339056,61.1335364 5.34070195,60.0112205 4.72314892,58.8558605 C4.1055959,57.7005005 3.54615241,56.5176595 3.04481824,55.3073272 C2.54348412,54.097001 2.1026736,52.8650174 1.72238632,51.6113826 C1.34209914,50.3577436 1.02416663,49.0884862 0.768588636,47.8036062 C0.513010749,46.5187344 0.321018207,45.2244287 0.192610913,43.9206872 C0.0642036328,42.6169497 0,41.3100533 0,40 C0,38.6899508 0.0642036328,37.3830544 0.192610913,36.0793169 C0.321018207,34.7755713 0.513010749,33.4812613 0.768588636,32.1963813 C1.02416663,30.9115052 1.34209914,29.642248 1.72238644,28.3886092 C2.1026736,27.1349686 2.54348412,25.9029858 3.04481824,24.6926587 C3.54615241,23.4823335 4.1055959,22.2994917 4.72314892,21.1441294 C5.34070195,19.9887711 6.01339056,18.8664558 6.74121456,17.7771877 C7.46903938,16.6879214 8.24849538,15.6369487 9.07958195,14.6242679 C9.91066851,13.6115863 10.7893832,12.642072 11.7157276,11.7157276 C12.642072,10.7893832 13.6115863,9.91066851 14.6242679,9.07958195 C15.6369487,8.24849538 16.6879214,7.46903938 17.7771877,6.74121456 C18.8664558,6.01339056 19.9887711,5.34070195 21.1441294,4.72314892 C22.2994917,4.1055959 23.4823335,3.54615241 24.6926587,3.04481824 C25.9029858,2.54348412 27.1349686,2.1026736 28.3886092,1.72238632 C29.642248,1.34209914 30.9115052,1.02416663 32.1963834,0.768588636 C33.4812613,0.513010749 34.7755713,0.321018207 36.0793169,0.192610913 C37.3830544,0.0642036328 38.6899508,0 40,0 Z" id="Stroke-1061" fill="url(#p-amb-l-deviation)"></path>
                <g id="编组-2" transform="translate(22.222222, 21.111111)">
                    <path d="M5.0178117,14.272348 L5.0178117,18.5466828 C5.0178117,19.8486354 6.08069793,20.9049365 7.39076699,20.9049365 C8.70083606,20.9049365 9.76372228,19.8486354 9.76372228,18.5466828 L9.76372228,18.5466828 L9.76372228,14.272348 L22.5677935,14.272348 L22.5674869,16.9630042 C17.5886903,18.7687917 14.031746,23.54044 14.031746,29.1428571 C14.031746,31.3815352 14.5996952,33.4875616 15.5993659,35.3247087 L2.96619411,35.3246753 C1.33478735,35.3246753 0,33.9981576 0,32.3768582 L0,32.3768582 L0,14.272348 L5.0178117,14.272348 Z M26.984127,20.5079365 C29.0261212,20.5079365 30.9025652,21.216741 32.3808449,22.4017356 L32.3809524,32.3768582 C32.3809524,33.9981576 31.046165,35.3246753 29.4147583,35.3246753 L29.4147583,35.3246753 L20.9550492,35.3244547 C19.3474044,33.7562312 18.3492063,31.566115 18.3492063,29.1428571 C18.3492063,25.2118557 20.9759872,21.8943719 24.5700292,20.849925 C24.6910978,20.8706053 24.8147806,20.8803714 24.9407488,20.8803714 C25.384632,20.8803714 25.8001382,20.759106 26.1555383,20.5481076 C26.4279147,20.5212311 26.7044683,20.5079365 26.984127,20.5079365 Z M32.3809524,14.272348 L32.380727,17.3648131 C30.8389357,16.6572198 29.1342742,16.2434589 27.3384406,16.1952286 L27.3384224,14.272348 L32.3809524,14.272348 Z M29.4147583,5.35520113 C31.0214467,5.35520113 32.3809524,6.65715369 32.3809524,8.30301826 L32.3809524,8.30301826 L32.3809524,11.7912685 L0,11.7912685 L0,8.30301826 C0,6.68171884 1.33478735,5.35520113 2.96619411,5.35520113 L2.96619411,5.35520113 Z M19.9476554,0 C21.8509633,0 23.4082152,1.547604 23.4082152,3.43911999 C23.4082152,3.51281542 23.3834969,3.61107599 23.3834969,3.68477142 L23.3834969,3.68477142 L9.09632861,3.68477142 C9.07161032,3.61107599 9.07161032,3.51281542 9.07161032,3.43911999 C9.07161032,1.547604 10.6288622,0 12.5321701,0 L12.5321701,0 Z" id="形状结合" fill="#FFFFFF" fill-rule="nonzero"></path>
                    <circle id="椭圆形" fill="#FFFFFF" cx="26.984127" cy="29.1428571" r="10.7936508"></circle>
                    <g id="末端左右展开" transform="translate(19.451444, 26.574269)" fill="#2ED08F" fill-rule="nonzero">
                        <path d="M12.24,1.92743765 L11.4088889,1.07936509 L12.4666667,0 L15.1111111,2.69841271 L12.4666667,5.3968254 L11.4088889,4.31746032 L12.24,3.46938775 L8.31111112,3.46938775 L8.31111112,1.92743765 L12.24,1.92743765 Z M2.87111112,1.92743765 L6.79999999,1.92743765 L6.79999999,3.46938775 L2.87111112,3.46938775 L3.70222223,4.31746032 L2.64444445,5.3968254 L0,2.69841271 L2.64444445,0 L3.70222223,1.07936509 L2.87111112,1.92743765 Z" id="形状"></path>
                    </g>
                </g>
            </g>
        </g>
    </g>
</svg>