<?xml version="1.0" encoding="UTF-8"?>
<svg width="80px" height="80px" viewBox="0 0 80 80" version="1.1" xmlns="http://www.w3.org/2000/svg" xmlns:xlink="http://www.w3.org/1999/xlink">
    <title>往来账款</title>
    <g id="0512评审版本app设计稿" stroke="none" stroke-width="1" fill="none" fill-rule="evenodd">
        <g id="切图提供" transform="translate(-374.000000, -575.000000)">
            <g id="往来账款" transform="translate(374.000000, 575.000000)">
                <circle id="椭圆形" fill="#F2EFFF" cx="40" cy="40" r="40"></circle>
                <g id="我的账单" transform="translate(23.000000, 20.000000)" fill="#5906D8" fill-rule="nonzero">
                    <path d="M2.91428571,0 C1.49835305,0 0,1.49875059 0,2.92547566 L0,38.0311835 C0,38.5954852 1.23800093,39.1482159 1.94285714,38.0311835 L4.57248066,36.7113233 C5.32208992,36.3350795 6.2285196,36.4823503 6.82045604,37.0765596 L9.71428571,39.9815006 L9.71428571,39.9815006 C9.90932073,39.977312 10.5362912,40.0251444 10.6857143,39.9815006 L15.5125579,36.7512492 C16.1261314,36.3406296 16.9194198,36.3132606 17.5598341,36.6806167 L23.3142857,39.9815006 L23.3142857,39.9815006 C23.4741978,40.0251444 24.1011683,39.977312 24.2857143,39.9815006 L28.030939,36.9738164 C28.6926548,36.4424112 29.6227197,36.4020031 30.3280304,36.8740158 L32.0571429,38.0311835 L32.0571429,38.0311835 C32.7565482,39.1322717 33.9999866,38.579541 33.9999866,38.0311835 L33.9999866,2.92547566 C34.0051757,1.49875059 32.5068226,0 31.0857143,0 L2.91428571,0 Z M3.88571429,8.77642697 C3.88571429,7.70709423 4.64773763,6.82610986 5.82857143,6.82610986 L15.5428571,6.82610986 C16.7183991,6.82610986 17.4857143,7.70101847 17.4857143,8.77642697 C17.4857143,9.84575971 16.7236909,10.7267441 15.5428571,10.7267441 L5.82857143,10.7267441 C4.65302946,10.7267441 3.88571429,9.84575971 3.88571429,8.77642697 Z M21.3714286,15.6025368 C21.3714286,16.6718696 20.5848172,17.5528539 19.4285714,17.5528539 L5.82857143,17.5528539 C4.67778819,17.5528539 3.88571429,16.6779453 3.88571429,15.6025368 C3.88571429,14.5332041 4.67232561,13.6522197 5.82857143,13.6522197 L19.4285714,13.6522197 C20.5848172,13.6522197 21.3714286,14.5271283 21.3714286,15.6025368 Z" id="形状"></path>
                </g>
            </g>
        </g>
    </g>
</svg>