<?xml version="1.0" encoding="UTF-8"?>
<svg width="80px" height="80px" viewBox="0 0 80 80" version="1.1" xmlns="http://www.w3.org/2000/svg" xmlns:xlink="http://www.w3.org/1999/xlink">
    <title>应付账龄表</title>
    <defs>
        <linearGradient x1="50%" y1="0%" x2="50%" y2="100%" id="p-amb-l-payable">
            <stop stop-color="#FC655C" offset="0%"></stop>
            <stop stop-color="#FC885C" offset="100%"></stop>
        </linearGradient>
    </defs>
    <g id="0512评审版本app设计稿" stroke="none" stroke-width="1" fill="none" fill-rule="evenodd">
        <g id="切图提供" transform="translate(-808.000000, -263.000000)">
            <g id="应付账龄表" transform="translate(808.000000, 263.000000)">
                <path d="M40,0 C41.3100533,0 42.6169497,0.0642036328 43.9206872,0.192610913 C45.2244287,0.321018207 46.5187344,0.513010749 47.8036062,0.768588636 C49.0884862,1.02416663 50.3577436,1.34209914 51.6113785,1.72238644 C52.8650174,2.1026736 54.097001,2.54348412 55.3073231,3.04481824 C56.5176554,3.54615241 57.7005005,4.1055959 58.8558605,4.72314892 C60.0112205,5.34070195 61.1335364,6.01339056 62.2228021,6.74121456 C63.3120697,7.46903938 64.3630441,8.24849538 65.3757231,9.07958195 C66.3884021,9.91066851 67.3579138,10.7893832 68.2842626,11.7157276 C69.2106113,12.642072 70.0893313,13.6115863 70.9204185,14.6242679 C71.7514974,15.6369487 72.5309477,16.6879214 73.2587692,17.7771877 C73.9865969,18.8664558 74.6592903,19.9887711 75.2768492,21.1441294 C75.8944,22.2994917 76.4538421,23.4823335 76.9551754,24.6926587 C77.4565087,25.9029858 77.8973149,27.1349686 78.2775959,28.3886092 C78.6578831,29.642248 78.9758215,30.9115052 79.2313949,32.1963834 C79.4869764,33.4812613 79.6789703,34.7755713 79.8073785,36.0793169 C79.9357887,37.3830544 80,38.6899508 80,40 C80,41.3100533 79.9357887,42.6169497 79.8073785,43.9206872 C79.6789703,45.2244287 79.4869764,46.5187344 79.2313949,47.8036062 C78.9758215,49.0884862 78.6578831,50.3577436 78.2775959,51.6113785 C77.8973149,52.8650174 77.4565087,54.097001 76.9551754,55.3073231 C76.4538421,56.5176554 75.8944,57.7005005 75.2768492,58.8558605 C74.6592903,60.0112205 73.9866051,61.1335364 73.2587774,62.2228021 C72.5309559,63.3120697 71.7515056,64.3630441 70.9204185,65.3757231 C70.0893313,66.3884021 69.2106113,67.3579138 68.2842626,68.2842626 C67.3579138,69.2106113 66.3884021,70.0893313 65.3757231,70.9204185 C64.3630441,71.7514974 63.3120697,72.5309477 62.2228021,73.2587692 C61.1335364,73.9865969 60.0112205,74.6592903 58.8558605,75.2768492 C57.7005005,75.8944 56.5176595,76.4538421 55.3073272,76.9551754 C54.097001,77.4565087 52.8650174,77.8973149 51.6113826,78.2775959 C50.3577436,78.6578831 49.0884862,78.9758215 47.8036062,79.2313949 C46.5187344,79.4869764 45.2244287,79.6789703 43.9206872,79.8073785 C42.6169497,79.9357887 41.3100533,80 40,80 C38.6899508,80 37.3830544,79.9357887 36.0793169,79.8073785 C34.7755713,79.6789703 33.4812613,79.4869764 32.1963813,79.2313949 C30.9115052,78.9758215 29.642248,78.6578831 28.3886092,78.2775959 C27.1349686,77.8973149 25.9029858,77.4565087 24.6926587,76.9551754 C23.4823335,76.4538421 22.2994917,75.8944 21.1441294,75.2768492 C19.9887711,74.6592903 18.8664558,73.9866051 17.7771877,73.2587774 C16.6879214,72.5309559 15.6369487,71.7515056 14.6242679,70.9204185 C13.6115863,70.0893313 12.642072,69.2106113 11.7157276,68.2842626 C10.7893832,67.3579138 9.91066851,66.3884021 9.07958195,65.3757231 C8.24849538,64.3630441 7.46903938,63.3120697 6.74121456,62.2228021 C6.01339056,61.1335364 5.34070195,60.0112205 4.72314892,58.8558605 C4.1055959,57.7005005 3.54615241,56.5176595 3.04481824,55.3073272 C2.54348412,54.097001 2.1026736,52.8650174 1.72238632,51.6113826 C1.34209914,50.3577436 1.02416663,49.0884862 0.768588636,47.8036062 C0.513010749,46.5187344 0.321018207,45.2244287 0.192610913,43.9206872 C0.0642036328,42.6169497 0,41.3100533 0,40 C0,38.6899508 0.0642036328,37.3830544 0.192610913,36.0793169 C0.321018207,34.7755713 0.513010749,33.4812613 0.768588636,32.1963813 C1.02416663,30.9115052 1.34209914,29.642248 1.72238644,28.3886092 C2.1026736,27.1349686 2.54348412,25.9029858 3.04481824,24.6926587 C3.54615241,23.4823335 4.1055959,22.2994917 4.72314892,21.1441294 C5.34070195,19.9887711 6.01339056,18.8664558 6.74121456,17.7771877 C7.46903938,16.6879214 8.24849538,15.6369487 9.07958195,14.6242679 C9.91066851,13.6115863 10.7893832,12.642072 11.7157276,11.7157276 C12.642072,10.7893832 13.6115863,9.91066851 14.6242679,9.07958195 C15.6369487,8.24849538 16.6879214,7.46903938 17.7771877,6.74121456 C18.8664558,6.01339056 19.9887711,5.34070195 21.1441294,4.72314892 C22.2994917,4.1055959 23.4823335,3.54615241 24.6926587,3.04481824 C25.9029858,2.54348412 27.1349686,2.1026736 28.3886092,1.72238632 C29.642248,1.34209914 30.9115052,1.02416663 32.1963834,0.768588636 C33.4812613,0.513010749 34.7755713,0.321018207 36.0793169,0.192610913 C37.3830544,0.0642036328 38.6899508,0 40,0 Z" id="Stroke-1061" fill="url(#p-amb-l-payable)"></path>
                <g id="应收账单管理备份" transform="translate(41.111111, 38.535350) rotate(180.000000) translate(-41.111111, -38.535350) translate(21.111111, 19.090905)" fill="#FFFFFF" fill-rule="nonzero">
                    <path d="M39.4687965,22.4095675 L23.5443626,36.6947873 C22.575645,37.4979559 21.3438462,37.9797943 19.999837,37.9797943 C18.6693434,37.9797943 17.446031,37.5020393 16.4773135,36.7126913 L0.562623255,22.4450614 C0.199362711,22.0212535 6.35744082e-15,21.4815615 6.35744082e-15,20.9235327 C6.35744082e-15,19.8571434 0.705322076,18.9694803 1.65172328,18.6974646 C1.65172328,18.6974646 1.88368744,18.6082585 2.21434638,18.6082585 L6.90612015,18.6082585 L6.90612015,3.72498123 C6.90612015,1.58372168 8.48209347,0 10.5625417,0 L29.4330463,0 C31.5134945,0 33.0894678,1.58372168 33.0894678,3.72498123 L33.0894678,18.6082585 L37.6875758,18.6082585 C37.7054917,18.6082585 37.718693,18.6035469 37.7362946,18.6035469 C37.7545248,18.6035469 37.7630113,18.6082585 37.7809272,18.6082585 L37.834675,18.6082585 L37.8393898,18.6129701 C39.0447862,18.666054 40,19.6790454 40,20.9282443 C40.0009876,21.4687771 39.8131134,21.9926981 39.4687965,22.4095675 L39.4687965,22.4095675 Z M25.0892187,16.0074621 C25.9243526,16.0074621 26.4109115,15.3468975 26.4109115,14.490645 C26.4109115,13.6384758 25.9196379,13.0272259 25.0892187,13.0272259 L21.8794382,13.0272259 L25.1964,9.61446584 C25.7904546,9.00352997 25.7904546,8.01723762 25.1964,7.40598764 C24.5982594,6.79913514 23.6383426,6.79913514 23.0449167,7.40598764 L19.9734346,10.5649501 L16.9110676,7.4198083 C16.3173274,6.8126417 15.3574106,6.8126417 14.75927,7.4198083 C14.1655297,8.03074417 14.1655297,9.02143401 14.75927,9.62797239 L18.0762318,13.0319374 L14.9066835,13.0272259 C14.071864,13.0272259 13.585305,13.6293668 13.585305,14.490645 C13.585305,15.3472116 14.0765787,16.0074621 14.9066835,16.0074621 L18.1830987,16.0074621 L18.1830987,17.8723085 L14.9104553,17.8723085 C14.0756358,17.8723085 13.5887625,18.4254489 13.5887625,19.2820156 C13.5887625,20.1385822 14.0800362,20.8522307 14.9104553,20.8522307 L18.1871848,20.8522307 L18.1871848,23.0830104 C18.1871848,24.1537972 18.9641705,24.9481709 20.0042374,24.9481709 C21.0443044,24.9481709 21.8253761,24.1585088 21.8253761,23.0830104 L21.8253761,20.8522307 L25.191371,20.8522307 C26.0217901,20.8522307 26.4190837,20.2815004 26.4190837,19.4246196 C26.4190837,18.3092298 25.8385447,17.8723085 25.0087542,17.8723085 L21.8256904,17.8723085 L21.8256904,16.0074621 L25.0892187,16.0074621 L25.0892187,16.0074621 Z" id="形状"></path>
                </g>
            </g>
        </g>
    </g>
</svg>