<?xml version="1.0" encoding="UTF-8"?>
<svg width="80px" height="80px" viewBox="0 0 80 80" version="1.1" xmlns="http://www.w3.org/2000/svg" xmlns:xlink="http://www.w3.org/1999/xlink">
    <title>经营组织</title>
    <g id="0512评审版本app设计稿" stroke="none" stroke-width="1" fill="none" fill-rule="evenodd">
        <g id="切图提供" transform="translate(-68.000000, -153.000000)">
            <g id="编组-9" transform="translate(68.000000, 153.000000)">
                <circle id="椭圆形" fill="#FFF6E8" cx="40" cy="40" r="40"></circle>
                <g id="组织" transform="translate(25.000000, 25.000000)" fill="#FFB01F" fill-rule="nonzero">
                    <path d="M28.8288774,17.255064 L25.1719733,17.255064 L25.1719733,15.1760191 L25.1735209,15.1760191 L25.1735209,14.0155228 L15.9206096,14.0155228 L15.9206096,11.7441605 L19.9586024,11.7441605 C20.7393506,11.7441605 21.1301116,11.3529341 21.1301116,10.5700935 L21.1301116,1.17406709 C21.1301116,0.391226452 20.7393506,9.09494702e-13 19.9586024,9.09494702e-13 L10.5822725,9.09494702e-13 C9.80113737,9.09494702e-13 9.41076325,0.391226452 9.41076325,1.17406709 L9.41076325,10.5704812 C9.41076325,11.3529341 9.80113737,11.7445483 10.5822725,11.7445483 L14.5989862,11.7445483 L14.5989862,14.0159106 L5.3669671,14.0159106 L5.3669671,17.2554517 L1.17150925,17.2554517 C0.390374121,17.2554517 0,17.6466782 0,18.4295188 L0,27.8259329 C0,28.6083858 0.390374121,29 1.17150925,29 L10.5474522,29 C11.3282005,29 11.7189615,28.6083858 11.7189615,27.8259329 L11.7189615,18.4291311 C11.7189615,17.6462904 11.3285873,17.255064 10.5474522,17.255064 L6.67040656,17.255064 L6.67040656,15.1760191 L23.8685338,15.1760191 L23.8685338,17.255064 L19.4525475,17.255064 C18.6717993,17.255064 18.2810382,17.6462904 18.2810382,18.4291311 L18.2810382,27.8255452 C18.2810382,28.6079981 18.6717993,28.9996123 19.4525475,28.9996123 L28.8284905,28.9996123 C29.6096256,28.9996123 30,28.6079981 30,27.8255452 L30,18.4291311 C30.0003866,17.6462904 29.6096256,17.255064 28.8288774,17.255064 Z" id="路径"></path>
                </g>
            </g>
        </g>
    </g>
</svg>