<?xml version="1.0" encoding="UTF-8"?>
<svg width="80px" height="80px" viewBox="0 0 80 80" version="1.1" xmlns="http://www.w3.org/2000/svg" xmlns:xlink="http://www.w3.org/1999/xlink">
    <title>营业收支</title>
    <g id="0512评审版本app设计稿" stroke="none" stroke-width="1" fill="none" fill-rule="evenodd">
        <g id="切图提供" transform="translate(-374.000000, -156.000000)">
            <g id="营业收支" transform="translate(374.000000, 156.000000)">
                <circle id="椭圆形" fill="#FFEDD2" opacity="0.5" cx="40" cy="40" r="40"></circle>
                <g id="119收支明细、财富、红包、余额" transform="translate(18.435897, 18.435897)" fill="#FFB01F" fill-rule="nonzero">
                    <path d="M16.5641026,2.56410256 C20.7439308,-1.76396237 24.9708187,2.42655451 24.5641026,2.56410256 C24.9708187,2.42655451 30.701457,0.619634388 31.5641026,5.56410256 C31.6702192,6.59304319 31.3810365,7.92420508 30.5641026,9.56410256 C30.2773223,9.77918159 29.6314808,10.7114755 28.5641026,12.5641026 L28.5816402,12.5325857 C29.1791544,12.1199547 41.40272,18.1878886 40.5947179,32.1122043 L40.5641026,32.5641026 C40.3457018,34.5426374 39.7384181,36.2342222 38.5641026,37.5641026 C37.5165306,39.0647433 35.6898595,40.4631842 32.5641026,40.5641026 L32.5641026,40.5641026 L8.56410256,40.5641026 C5.43652371,40.4631842 3.60985265,39.0647433 2.56410256,37.5641026 C1.38796515,36.2390278 0.785501083,34.5426374 0.564102564,32.5641026 C-0.52635801,18.3144252 11.9553043,12.1153629 12.542989,12.5287498 L12.5446402,12.5305857 L12.4221755,12.3171571 C11.4930128,10.7086297 10.9034199,9.853078 10.606458,9.59789614 L10.5641026,9.56410256 C9.75980588,7.92420508 9.47062313,6.59304319 9.56410256,5.56410256 C10.4393854,0.619634388 16.1700236,2.42655451 16.5641026,2.56410256 Z M23.5713026,19.2476054 L21.5623026,22.6406904 L19.6051026,22.6406904 L17.5975025,19.2476054 C17.2422523,18.6478242 16.4828177,18.4024959 15.8307026,18.6768571 L15.6837026,18.7478593 C15.0141271,19.1249224 14.7847215,19.9599753 15.1713026,20.613032 L16.3711025,22.6406904 L14.9641025,22.6406904 C14.2543378,22.6407817 13.656945,23.1588794 13.5739025,23.846362 L13.5641026,24.0061169 C13.5641026,24.7602211 14.1909039,25.3715434 14.9641025,25.3715434 L19.1641026,25.3715434 L19.1641026,27.1465979 L14.9641025,27.1465979 C14.2543378,27.1466892 13.656945,27.664787 13.5739025,28.3522695 L13.5641026,28.5120244 C13.5641026,29.2661286 14.1909039,29.8774509 14.9641025,29.8774509 L19.1641026,29.8774509 L19.1641026,32.198676 C19.1641962,32.8909129 19.6954125,33.4735529 20.4003026,33.5545446 L20.5641026,33.5641026 C21.3373012,33.5641026 21.9641026,32.9527803 21.9641026,32.198676 L21.9641026,29.8774509 L26.1641026,29.8774509 C26.8738673,29.8773596 27.4712601,29.3592619 27.5543026,28.6717793 L27.5641026,28.5120244 C27.5641026,27.7579202 26.9373012,27.1465979 26.1641026,27.1465979 L21.9641026,27.1465979 L21.9641026,25.3715434 L26.1641026,25.3715434 C26.9372175,25.371428 27.5638883,24.7601395 27.5638883,24.0061169 C27.5638883,23.2520943 26.9372175,22.6408058 26.1641026,22.6406904 L24.7963026,22.6406904 L25.9975026,20.613032 C26.3841019,19.9596006 26.1543792,19.1242288 25.4844026,18.7471766 C24.8144259,18.3701245 23.9579019,18.5941741 23.5713026,19.2476054 Z" id="形状结合"></path>
                </g>
            </g>
        </g>
    </g>
</svg>