<?xml version="1.0" encoding="UTF-8"?>
<svg width="80px" height="80px" viewBox="0 0 80 80" version="1.1" xmlns="http://www.w3.org/2000/svg" xmlns:xlink="http://www.w3.org/1999/xlink">
    <title>企业信息</title>
    <g id="0512评审版本app设计稿" stroke="none" stroke-width="1" fill="none" fill-rule="evenodd">
        <g id="切图提供" transform="translate(-980.000000, -168.000000)">
            <g id="经营组织" transform="translate(980.000000, 168.000000)">
                <g id="Clip-1057"></g>
                <g id="编组-9">
                    <circle id="椭圆形" fill="#FFF6E8" cx="40" cy="40" r="40"></circle>
                    <g id="企业" transform="translate(22.000000, 24.000000)" fill="#FFB01F" fill-rule="nonzero">
                        <path d="M34.4285714,29.9285714 L34.4285714,9.2142857 C34.4285714,8.42857141 33.7857143,7.78571426 33,7.7857143 L19.4285714,7.7857143 L19.4285714,2.07142855 C19.4285714,1.28571426 18.7857143,0.642857148 18,0.642857148 L3,0.642857148 C2.2142857,0.642857148 1.57142855,1.2857143 1.57142855,2.07142855 L1.57142855,29.9285714 L0.571428555,29.9285714 L0.571428555,32.7857143 L35.4285714,32.7857143 L35.4285714,29.9285714 L34.4285714,29.9285714 L34.4285714,29.9285714 Z M13.3571429,24.5714286 L7.64285715,24.5714286 L7.64285715,21.7142857 L13.3571429,21.7142857 L13.3571429,24.5714286 Z M13.3571429,18.5714286 L7.64285715,18.5714286 L7.64285715,15.7142857 L13.3571429,15.7142857 L13.3571429,18.5714286 Z M13.3571429,12.6428571 L7.64285715,12.6428571 L7.64285715,9.7857143 L13.3571429,9.7857143 L13.3571429,12.6428571 Z M28.3571429,24.5714286 L22.6428571,24.5714286 L22.6428571,21.7142857 L28.3571429,21.7142857 L28.3571429,24.5714286 Z M28.3571429,18.5714286 L22.6428571,18.5714286 L22.6428571,15.7142857 L28.3571429,15.7142857 L28.3571429,18.5714286 Z" id="形状"></path>
                    </g>
                </g>
            </g>
        </g>
    </g>
</svg>