<?xml version="1.0" encoding="UTF-8"?>
<svg width="80px" height="80px" viewBox="0 0 80 80" version="1.1" xmlns="http://www.w3.org/2000/svg" xmlns:xlink="http://www.w3.org/1999/xlink">
    <title>会计设置</title>
    <g id="0512评审版本app设计稿" stroke="none" stroke-width="1" fill="none" fill-rule="evenodd">
        <g id="切图提供" transform="translate(-980.000000, -468.000000)">
            <g id="编组-9" transform="translate(980.000000, 468.000000)">
                <circle id="椭圆形" fill="#F2EFFF" cx="40" cy="40" r="40"></circle>
                <g id="设计美工" transform="translate(25.000000, 22.000000)" fill="#5906D8" fill-rule="nonzero">
                    <g id="计算器">
                        <path d="M26,0 L4,0 C1.790861,0 0,1.790861 0,4 L0,32 C0,34.209139 1.790861,36 4,36 L26,36 C28.209139,36 30,34.209139 30,32 L30,4 C30,1.790861 28.209139,0 26,0 L26,0 Z M10.8,30.36 C10.8,30.5809139 10.6209139,30.76 10.4,30.76 L5.52000002,30.76 C5.41391343,30.76 5.31217186,30.7178573 5.23715731,30.6428427 C5.16214275,30.5678282 5.12000002,30.4660866 5.12000002,30.36 L5.12000002,27.52 C5.12000002,27.2990861 5.29908612,27.12 5.52000002,27.12 L10.4,27.12 C10.6209139,27.12 10.8,27.2990861 10.8,27.52 L10.8,30.36 Z M10.8,25.22 C10.8,25.4409139 10.6209139,25.62 10.4,25.62 L5.52000002,25.62 C5.29908612,25.62 5.12000002,25.4409139 5.12000002,25.22 L5.12000002,22.38 C5.12000002,22.2739134 5.16214275,22.1721718 5.23715731,22.0971573 C5.31217186,22.0221427 5.41391343,21.98 5.52000002,21.98 L10.4,21.98 C10.6209139,21.98 10.8,22.1590861 10.8,22.38 L10.8,25.22 Z M10.8,20.1 C10.8,20.3209139 10.6209139,20.5 10.4,20.5 L5.52000002,20.5 C5.29908612,20.5 5.12000002,20.3209139 5.12000002,20.1 L5.12000002,17.26 C5.12000002,17.0390861 5.29908612,16.86 5.52000002,16.86 L10.4,16.86 C10.6209139,16.86 10.8,17.0390861 10.8,17.26 L10.8,20.1 Z M18,30.36 C18,30.5809139 17.8209139,30.76 17.6,30.76 L12.72,30.76 C12.6122294,30.7658385 12.5070601,30.7255741 12.430743,30.649257 C12.3544259,30.5729399 12.3141615,30.4677706 12.32,30.36 L12.32,27.52 C12.3141615,27.4122294 12.3544259,27.3070601 12.430743,27.230743 C12.5070601,27.1544259 12.6122294,27.1141615 12.72,27.12 L17.6,27.12 C17.8209139,27.12 18,27.2990861 18,27.52 L18,30.36 Z M18,25.22 C18,25.4409139 17.8209139,25.62 17.6,25.62 L12.72,25.62 C12.6122294,25.6258385 12.5070601,25.5855741 12.430743,25.509257 C12.3544259,25.4329399 12.3141615,25.3277706 12.32,25.22 L12.32,22.38 C12.3141615,22.2722294 12.3544259,22.1670601 12.430743,22.090743 C12.5070601,22.0144259 12.6122294,21.9741615 12.72,21.98 L17.6,21.98 C17.8209139,21.98 18,22.1590861 18,22.38 L18,25.22 Z M18,20.1 C18,20.3209139 17.8209139,20.5 17.6,20.5 L12.72,20.5 C12.6122294,20.5058385 12.5070601,20.4655741 12.430743,20.389257 C12.3544259,20.3129399 12.3141615,20.2077706 12.32,20.1 L12.32,17.26 C12.3141615,17.1522294 12.3544259,17.0470601 12.430743,16.970743 C12.5070601,16.8944259 12.6122294,16.8541615 12.72,16.86 L17.6,16.86 C17.8209139,16.86 18,17.0390861 18,17.26 L18,20.1 Z M25.2,30.36 C25.2,30.5809139 25.0209139,30.76 24.8,30.76 L19.9,30.76 C19.7939134,30.76 19.6921719,30.7178573 19.6171573,30.6428427 C19.5421427,30.5678282 19.5,30.4660866 19.5,30.36 L19.5,27.52 C19.5,27.2990861 19.6790861,27.12 19.9,27.12 L24.8,27.12 C25.0209139,27.12 25.2,27.2990861 25.2,27.52 L25.2,30.36 Z M25.2,25.22 C25.2,25.4409139 25.0209139,25.62 24.8,25.62 L19.9,25.62 C19.6790861,25.62 19.5,25.4409139 19.5,25.22 L19.5,22.38 C19.5,22.2739134 19.5421427,22.1721718 19.6171573,22.0971573 C19.6921719,22.0221427 19.7939134,21.98 19.9,21.98 L24.8,21.98 C25.0209139,21.98 25.2,22.1590861 25.2,22.38 L25.2,25.22 Z M25.2,20.1 C25.2,20.3209139 25.0209139,20.5 24.8,20.5 L19.9,20.5 C19.6790861,20.5 19.5,20.3209139 19.5,20.1 L19.5,17.26 C19.5,17.0390861 19.6790861,16.86 19.9,16.86 L24.8,16.86 C25.0209139,16.86 25.2,17.0390861 25.2,17.26 L25.2,20.1 Z M25.2,11.52 C25.2,12.6245695 24.3045695,13.52 23.2,13.52 L6.80000002,13.52 C5.69543053,13.52 4.80000002,12.6245695 4.80000002,11.52 L4.80000002,7.51999999 C4.80000002,6.41543049 5.69543053,5.51999999 6.80000002,5.51999999 L23.2,5.51999999 C24.3045695,5.51999999 25.2,6.41543049 25.2,7.51999999 L25.2,11.52 Z" id="形状"></path>
                    </g>
                </g>
            </g>
        </g>
    </g>
</svg>