<?xml version="1.0" encoding="UTF-8"?>
<svg width="80px" height="80px" viewBox="0 0 80 80" version="1.1" xmlns="http://www.w3.org/2000/svg" xmlns:xlink="http://www.w3.org/1999/xlink">
    <title>基础设计</title>
    <g id="0512评审版本app设计稿" stroke="none" stroke-width="1" fill="none" fill-rule="evenodd">
        <g id="切图提供" transform="translate(-188.000000, -433.000000)">
            <g id="编组-9" transform="translate(188.000000, 433.000000)">
                <circle id="椭圆形" fill="#FFF6E8" cx="40" cy="40" r="40"></circle>
                <g id="设计美工" transform="translate(23.000000, 23.000000)" fill-rule="nonzero">
                    <g id="205设置">
                        <rect id="矩形" fill="#000000" opacity="0" x="0" y="0" width="34" height="34"></rect>
                        <path d="M33.2257025,20.1875 L30.3438091,18.0017857 C30.3741448,17.6982143 30.4044805,17.3642857 30.4044805,17 C30.4044805,16.6357143 30.3741448,16.3017857 30.3438091,15.9982143 L33.2257025,13.8125 C34.0144312,13.2053571 34.2267812,12.1428571 33.711074,11.2321429 L30.4954877,5.79821429 C30.131459,5.16071429 29.4337375,4.76607143 28.7056802,4.76607143 C28.4629945,4.76607143 28.2506444,4.79642857 28.0079587,4.8875 L24.5800223,6.22321429 C24.0036436,5.82857143 23.3969292,5.49464286 22.7902148,5.22142857 L22.2745076,1.73035714 C22.122829,0.728571429 21.2734289,0 20.2420144,0 L13.7501703,0 C12.7187559,0 11.8693557,0.728571429 11.7176771,1.7 L11.2323056,5.22142857 C10.6255912,5.49464286 10.0492125,5.82857143 9.44249813,6.22321429 L6.01456179,4.8875 C5.77187603,4.79642857 5.52919027,4.76607143 5.28650451,4.76607143 C4.55844724,4.76607143 3.86072568,5.13035714 3.52703276,5.76785714 L0.28111074,11.2321429 C-0.234596497,12.0821429 -0.0222464579,13.2053571 0.766482257,13.8125 L3.64837564,15.9982143 C3.61803992,16.3625 3.5877042,16.6964286 3.5877042,17 C3.5877042,17.3035714 3.5877042,17.6375 3.64837564,18.0017857 L0.766482257,20.1875 C-0.0222464579,20.7946429 -0.234596497,21.8571429 0.28111074,22.7678571 L3.49669704,28.2017857 C3.86072568,28.8392857 4.55844724,29.2339286 5.28650451,29.2339286 C5.52919027,29.2339286 5.74154031,29.2035714 5.98422607,29.1125 L9.41216241,27.7767857 C9.98854108,28.1714286 10.5952555,28.5053571 11.2019699,28.7785714 L11.7176771,32.2696429 C11.83902,33.2410714 12.7187559,34 13.7501703,34 L20.2420144,34 C21.2734289,34 22.122829,33.2714286 22.2745076,32.3 L22.7902148,28.7785714 C23.3969292,28.5053571 23.9733079,28.1714286 24.5800223,27.7767857 L28.0079587,29.1125 C28.2506444,29.2035714 28.4933302,29.2339286 28.7360159,29.2339286 C29.4640732,29.2339286 30.1617948,28.8696429 30.4954877,28.2321429 L33.7414097,22.7375 C34.2267812,21.8571429 34.0144312,20.7946429 33.2257025,20.1875 L33.2257025,20.1875 Z M24,17.5 C24,21.625 20.625,25 16.5,25 C12.375,25 9,21.625 9,17.5 C9,13.375 12.375,10 16.5,10 C20.625,10 24,13.375 24,17.5 Z" id="形状" fill="#FFB01F"></path>
                    </g>
                </g>
            </g>
        </g>
    </g>
</svg>