<?xml version="1.0" encoding="UTF-8"?>
<svg width="80px" height="80px" viewBox="0 0 80 80" version="1.1" xmlns="http://www.w3.org/2000/svg" xmlns:xlink="http://www.w3.org/1999/xlink">
    <title>内部交易</title>
    <g id="0512评审版本app设计稿" stroke="none" stroke-width="1" fill="none" fill-rule="evenodd">
        <g id="切图提供" transform="translate(-374.000000, -436.000000)">
            <g id="内部交易" transform="translate(374.000000, 436.000000)">
                <circle id="椭圆形" fill="#EBF4FF" cx="40" cy="40" r="40"></circle>
                <g id="一手交易" transform="translate(19.000000, 23.000000)" fill="#0062FF">
                    <path d="M4.80487805,17.95 C4.84892708,17.9804982 4.89908788,18.0188474 4.95514615,18.0645063 L5.14079901,18.2228707 L5.14079901,18.2228707 L5.36055077,18.4218454 L5.36055077,18.4218454 L5.89720751,18.928634 L5.89720751,18.928634 L6.92578764,19.9121973 L6.92578764,19.9121973 L7.74556926,20.6789346 L7.74556926,20.6789346 L8.19182093,21.0858682 L8.19182093,21.0858682 L8.66059868,21.5041811 L8.66059868,21.5041811 L9.15061663,21.9306257 L9.15061663,21.9306257 L9.66058893,22.361954 C9.74717573,22.4340686 9.83454039,22.5062513 9.92265612,22.5784346 L10.4601489,23.0109987 C12.1893926,24.3773756 14.1704288,25.6950783 16.2195122,26.5 C20.5711077,28.1174766 24.9267252,28.8043978 29.5365854,28.4 C26.9877291,26.2083709 25.6144542,24.3550219 25.7317073,22.7 C25.6144542,21.2638765 26.8352772,20.3956933 28.5853659,20.8 C28.7096087,20.8287027 28.8668366,20.893792 29.0578883,20.9906053 L29.3034394,21.1217104 L29.3034394,21.1217104 L29.7333534,21.3715547 L29.7333534,21.3715547 L31.7132415,22.5925823 L31.7132415,22.5925823 L32.2125901,22.8950296 L32.2125901,22.8950296 L33.0277296,23.3767089 L33.0277296,23.3767089 L33.6157034,23.7138896 L33.6157034,23.7138896 L34.2396909,24.0618303 C34.3467079,24.1206177 34.4552388,24.1797787 34.5652905,24.2392762 L35.2439024,24.6 L35.2439024,24.6 L36.4647173,25.1657918 L36.4647173,25.1657918 L36.9000016,25.3746991 L36.9000016,25.3746991 L37.3660784,25.6055191 L37.3660784,25.6055191 L37.8729193,25.8653062 L37.8729193,25.8653062 L38.4304961,26.161115 C38.625919,26.2665054 38.8314598,26.3790751 39.0487805,26.5 C39.4563426,26.4109016 40,27.2316339 40,28.4 L40,33.15 C40,34.315677 39.1356957,35.2797546 38.097561,35.05 L37.5669342,35.1332409 L37.5669342,35.1332409 L36.5376551,35.2859408 L36.5376551,35.2859408 L35.550658,35.4210106 L35.550658,35.4210106 L34.6055223,35.5393454 C34.4514647,35.557723 34.2991339,35.5754406 34.148521,35.5925169 L33.2653886,35.6874274 C33.1216124,35.7020129 32.9795366,35.7159943 32.8391524,35.7293903 L32.0170769,35.8028907 L32.0170769,35.8028907 L31.2351802,35.8632365 L31.2351802,35.8632365 L30.4930417,35.9113228 L30.4930417,35.9113228 L29.7902406,35.9480448 L29.7902406,35.9480448 L29.1263564,35.9742974 L29.1263564,35.9742974 L28.2025789,35.9960045 L28.2025789,35.9960045 L27.6341463,36 L27.6341463,36 L25.995206,36.0003831 L25.1221672,35.9951348 C24.9740065,35.9936268 24.8245722,35.991747 24.6739448,35.9894127 L23.7565069,35.9692897 L23.7565069,35.9692897 L22.8142956,35.9342848 C19.7954773,35.7956792 16.4620986,35.3734695 13.3658537,34.1 C8.61553807,31.1974706 2.42815967,25.8559893 1,20.8 C0.25589468,17.2773244 2.34487912,16.7015155 3.77950286,17.224926 L3.97508521,17.3049081 C4.32458039,17.463939 4.62063875,17.6892799 4.80487805,17.95 Z M19,-1.15196771e-05 C23.8298827,-0.00151498638 28.3210353,2.51918827 31.1333333,6.74074074 C33.4360793,10.8171713 33.6982793,16.0076901 31.1333333,20.2222222 C27.7216943,18.5247278 25.8718283,18.755742 24.6,20.2222222 C23.3522205,21.3056162 22.8310709,23.301928 24.6,25.9999885 L24.1408891,25.9951987 L24.1408891,25.9951987 L23.6483587,25.979278 C23.563506,25.9755679 23.4772763,25.9712972 23.3896774,25.9664175 L22.8477151,25.9294435 C20.8937735,25.7717442 18.3428355,25.3027599 15.2666667,24.0740741 C11.7146472,22.0531434 7.62297636,17.9036046 5,14.4444444 C5,10.4089202 6.0997229,6.58807004 8.73333333,3.85185185 C11.3669438,1.11563366 15.2853683,-1.15196771e-05 19,-1.15196771e-05 Z M22.0072,5.68350286 L19.9982,9.07658779 L18.041,9.07658779 L16.0334,5.68350286 C15.6781498,5.08372162 14.9187151,4.83839333 14.2666,5.11275456 L14.1196,5.18375675 C13.4500246,5.56081981 13.2206189,6.39587277 13.6072,7.0489294 L14.807,9.07658779 L13.4,9.07658779 C12.6902352,9.07667911 12.0928425,9.59477686 12.0098,10.2822594 L12,10.4420143 C12,11.1961185 12.6268013,11.8074408 13.4,11.8074408 L17.6,11.8074408 L17.6,13.5824953 L13.4,13.5824953 C12.6902352,13.5825867 12.0928425,14.1006844 12.0098,14.7881669 L12,14.9479218 C12,15.7020261 12.6268013,16.3133484 13.4,16.3133484 L17.6,16.3133484 L17.6,18.6345735 C17.6000936,19.3268103 18.13131,19.9094503 18.8362,19.990442 L19,20 C19.7731987,20 20.4,19.3886777 20.4,18.6345735 L20.4,16.3133484 L24.6,16.3133484 C25.3097648,16.3132571 25.9071576,15.7951593 25.9902,15.1076767 L26,14.9479218 C26,14.1938176 25.3731987,13.5824953 24.6,13.5824953 L20.4,13.5824953 L20.4,11.8074408 L24.6,11.8074408 C25.373115,11.8073254 25.9997857,11.1960369 25.9997857,10.4420143 C25.9997857,9.68799169 25.373115,9.07670323 24.6,9.07658779 L23.2322,9.07658779 L24.4334,7.0489294 C24.8199993,6.39549807 24.5902766,5.5601262 23.9203,5.18307408 C23.2503234,4.80602196 22.3937993,5.03007155 22.0072,5.68350286 Z" id="形状"></path>
                </g>
            </g>
        </g>
    </g>
</svg>