<?xml version="1.0" encoding="UTF-8"?>
<svg width="80px" height="80px" viewBox="0 0 80 80" version="1.1" xmlns="http://www.w3.org/2000/svg" xmlns:xlink="http://www.w3.org/1999/xlink">
    <title>业务运营</title>
    <defs>
        <filter id="p-amb-b-operate">
            <feColorMatrix in="SourceGraphic" type="matrix" values="0 0 0 0 0.349020 0 0 0 0 0.023529 0 0 0 0 0.847059 0 0 0 1.000000 0"></feColorMatrix>
        </filter>
    </defs>
    <g id="0512评审版本app设计稿" stroke="none" stroke-width="1" fill="none" fill-rule="evenodd">
        <g id="切图提供" transform="translate(-188.000000, -153.000000)">
            <g id="编组-9" transform="translate(188.000000, 153.000000)">
                <circle id="椭圆形" fill="#F2EFFF" cx="40" cy="40" r="40"></circle>
                <g id="tiaoseban" transform="translate(23.000000, 23.000000)" filter="url(#p-amb-b-operate)">
                    <g>
                        <path d="M33.8157602,13.1764875 C33.127549,11.7251608 32.2954464,10.3906356 31.3522171,9.17415081 C30.692222,9.7667242 30.0272739,10.3538804 29.3574413,10.9355589 C26.6918048,13.2519523 22.848992,16.6870266 22.6607561,17.1505531 C22.4724823,17.6141171 21.3505467,21.6879013 15.0611616,23.2944752 C13.6075923,23.5781252 11.3852857,25.2431936 10.9260859,24.8326802 C9.93881597,24.1964858 10.9617741,20.0262869 11.7887512,18.2351435 C12.6153867,16.4441877 14.5226128,13.3892531 16.0719706,13.1362396 C17.6214043,12.8831886 21.6657411,9.32508038 24.720454,6.67067235 C25.4549837,6.03241299 26.1798701,5.41262561 26.8917341,4.81596575 C20.0814545,-0.260186002 11.0802282,-1.38753975 5.9488846,1.73865458 C-1.31676024,6.16505831 -2.02543511,16.5501388 4.36581292,24.9344638 C10.7569091,33.3187138 23.4337835,36.3933969 30.8916886,32.0084049 C32.5523249,31.1047048 28.9340056,25.088397 28.9420544,22.2775779 C28.950331,19.4667963 35.1335629,15.8551869 33.8157602,13.1764875 Z M15.5000192,2 C17.4329576,2 19,3.34315836 19,4.99996352 C19,6.65684164 17.4329191,8 15.5000192,8 C13.5671194,8 12,6.65684164 12,4.99996352 C12,3.34315836 13.5670809,2 15.5000192,2 Z M5.49994229,15 C3.56696549,15 2,13.6568498 2,11.9999818 C2,10.3431137 3.56700396,9 5.49994229,9 C7.43291909,9 9,10.3431502 9,12.0000182 C9,13.6568863 7.43291909,15 5.49994229,15 Z M23.4997307,31 C21.5667088,31 20,29.6567404 20,28.0001277 C20,26.3431867 21.5666703,25 23.4997307,25 C25.4328295,25 27,26.3431867 27,28.0001277 C27,29.6567404 25.4328295,31 23.4997307,31 L23.4997307,31 Z" id="形状" fill="#000000" fill-rule="nonzero"></path>
                        <path d="M21.6438857,14.124416 L20.7451328,13.3148951 C20.251525,12.8707377 19.4781894,12.9000384 19.0254956,13.3800079 C19.0254956,13.3800079 18.4634718,13.9761563 17.9428258,14.7143823 C17.6348114,14.6913002 17.2896997,14.7150042 16.904102,14.8054672 C14.5458565,15.3589264 13.7197643,17.6949412 13.7197643,17.6949412 C13.7197643,17.6949412 12.5645765,21.5546699 13.1811404,21.9667464 C13.4678595,22.2326117 14.5144308,20.8225162 15.4220657,20.6388833 C19.8773419,19.4586946 20.2785989,17.5162467 20.2094338,16.6390888 C20.9869785,16.1767511 21.5949459,15.6896118 21.5949459,15.6896118 C22.1151995,15.272853 22.1372795,14.5685003 21.6438857,14.124416 Z M33.8792215,2.11274947 C32.8928353,1.18153889 26.4615683,6.20644428 22.0430217,10.2623081 C21.503452,10.7574026 21.3762196,10.8739978 21.3762196,10.8739978 C20.8750767,11.3326233 20.8744973,12.0836069 21.3750606,12.5428755 L22.590668,13.6576044 C23.09134,14.116873 23.9072138,14.113733 24.4039743,13.6504922 C24.4039743,13.6504922 24.4733672,13.5857254 24.9828039,13.118134 C29.4014953,9.0624594 34.8854187,3.0629134 33.8792215,2.11274947 Z" id="形状" fill="#000000" fill-rule="nonzero"></path>
                    </g>
                </g>
            </g>
        </g>
    </g>
</svg>