<?xml version="1.0" encoding="UTF-8"?>
<svg width="80px" height="80px" viewBox="0 0 80 80" version="1.1" xmlns="http://www.w3.org/2000/svg" xmlns:xlink="http://www.w3.org/1999/xlink">
    <title>收支计提</title>
    <g id="0512评审版本app设计稿" stroke="none" stroke-width="1" fill="none" fill-rule="evenodd">
        <g id="切图提供" transform="translate(-374.000000, -297.000000)">
            <g id="收支计提" transform="translate(374.000000, 297.000000)">
                <circle id="椭圆形" fill="#DEF7F4" cx="40" cy="40" r="40"></circle>
                <g id="w_计算器" transform="translate(21.000000, 20.000000)" fill="#3DD598">
                    <path d="M17.0526316,21 C17.4775542,21.0069659 18,21.5294118 18,21.9473684 L18,21.9473684 L18,39 L5.68421053,39 C2.34752322,39 1.50066626e-10,36.6524768 1.50066626e-10,33.3157895 L1.50066626e-10,33.3157895 L1.50066626e-10,21 Z M39,21 L39,33.3157895 C39,36.6533849 36.6524768,39 33.3157895,39 L33.3157895,39 L21,39 L21,21.9473684 C21,21.5222437 21.5154799,21 21.9473684,21 L21.9473684,21 L39,21 Z M30,32 C28.8954305,32 28,32.8954305 28,34 C28,35.1045695 28.8954305,36 30,36 C31.1045695,36 32,35.1045695 32,34 C32,32.8954305 31.1045695,32 30,32 Z M7.02676195,25.0089207 C6.46955046,24.4517092 5.56613214,24.4517092 5.00892065,25.0089207 C4.45170916,25.5661321 4.45170916,26.4695505 5.00892065,27.026762 L5.00892065,27.026762 L7.0264124,29.0440467 L5.35385079,30.7175144 C4.76806435,31.3033009 4.76806435,32.2530483 5.35385079,32.8388348 C5.93963723,33.4246212 6.88938469,33.4246212 7.47517113,32.8388348 L7.47517113,32.8388348 L9.14773274,31.1653671 L11.0624446,33.0802859 C11.619656,33.6374973 12.5230744,33.6374973 13.0802859,33.0802859 C13.6374974,32.5230744 13.6374974,31.619656 13.0802859,31.0624446 L13.0802859,31.0624446 L11.1658155,29.1472843 L13.1320254,27.1819805 C13.7178118,26.5961941 13.7178118,25.6464466 13.1320254,25.0606602 C12.5462389,24.4748737 11.5964915,24.4748737 11.010705,25.0606602 L11.010705,25.0606602 L9.04449515,27.025964 Z M34.6153846,28 L25.3846154,28 C24.6199134,28 24,28.6199134 24,29.3846154 C24,30.1493173 24.6199134,30.7692308 25.3846154,30.7692308 L25.3846154,30.7692308 L34.6153846,30.7692308 C35.3800866,30.7692308 36,30.1493173 36,29.3846154 C36,28.6199134 35.3800866,28 34.6153846,28 L34.6153846,28 Z M30,23 C28.8954305,23 28,23.8954305 28,25 C28,26.1045695 28.8954305,27 30,27 C31.1045695,27 32,26.1045695 32,25 C32,23.8954305 31.1045695,23 30,23 Z M33.3157895,-6.01147576e-10 C36.6455108,-6.01147576e-10 39,2.34752322 39,5.68421053 L39,5.68421053 L39,18 L21.9473684,18 C21.5224458,18 21,17.4775542 21,17.0526316 L21,17.0526316 L21,-6.01147576e-10 Z M18,-6.01147576e-10 L18,17.0526316 C18,17.4775542 17.4775542,18 17.0526316,18 L17.0526316,18 L1.50066626e-10,18 L1.50066626e-10,18 L1.50066626e-10,5.68421053 C1.50066626e-10,2.35466341 2.35466341,-6.01147576e-10 5.68421053,-6.01147576e-10 L5.68421053,-6.01147576e-10 L18,-6.01147576e-10 L18,-6.01147576e-10 Z M8.88461538,3 C8.05618826,3 7.38461538,3.67157287 7.38461538,4.5 L7.38461538,4.5 L7.38423077,7.115 L4.65384615,7.11538461 C3.88914419,7.11538461 3.26923077,7.73529804 3.26923077,8.5 C3.26923077,9.26470196 3.88914419,9.88461538 4.65384615,9.88461538 L4.65384615,9.88461538 L7.38423077,9.884 L7.38461538,12.5 C7.38461538,13.3284271 8.05618826,14 8.88461538,14 C9.71304251,14 10.3846154,13.3284271 10.3846154,12.5 L10.3846154,12.5 L10.3842308,9.884 L12.8846154,9.88461538 C13.6493173,9.88461538 14.2692308,9.26470196 14.2692308,8.5 C14.2692308,7.73529804 13.6493173,7.11538461 12.8846154,7.11538461 L12.8846154,7.11538461 L10.3842308,7.115 L10.3846154,4.5 C10.3846154,3.67157287 9.71304251,3 8.88461538,3 Z M34.9878049,8 L26.4268293,8 C25.6388132,8 25,8.63881322 25,9.42682927 C25,10.2148453 25.6388132,10.8536585 26.4268293,10.8536585 L26.4268293,10.8536585 L34.9878049,10.8536585 C35.7758209,10.8536585 36.4146341,10.2148453 36.4146341,9.42682927 C36.4146341,8.63881322 35.7758209,8 34.9878049,8 L34.9878049,8 Z" id="形状结合"></path>
                </g>
            </g>
        </g>
    </g>
</svg>