<?xml version="1.0" encoding="UTF-8"?>
<svg width="16px" height="16px" viewBox="0 0 16 16" version="1.1" xmlns="http://www.w3.org/2000/svg" xmlns:xlink="http://www.w3.org/1999/xlink">
    <title>p-amb-worksheet备份</title>
    <g id="页面-1" stroke="none" stroke-width="1" fill="none" fill-rule="evenodd">
        <g id="画板" transform="translate(-438.000000, -141.000000)">
            <g id="p-amb-worksheet备份" transform="translate(438.000000, 141.000000)">
                <rect id="矩形" fill="#D8D8D8" opacity="0" x="0" y="0" width="16" height="16"></rect>
                <g id="形状结合-2" transform="translate(1.000000, 3.000000)" fill="#000000" fill-rule="nonzero">
                    <path d="M12.4,0 C13.2836556,5.97197047e-17 14,0.7163444 14,1.6 L14,1.6 L14,3.04336735 C14,3.1538243 13.9104569,3.24336735 13.8,3.24336735 L13.8,3.24336735 L7.57793883,3.24336735 L7.57793883,9.45059023 C7.57793883,9.56104718 7.48839578,9.65059023 7.37793883,9.65059023 L7.37793883,9.65059023 L1.6,9.65059023 C0.7163444,9.65059023 -1.13828005e-16,8.93424583 0,8.05059023 L0,8.05059023 L0,1.6 C3.3587261e-16,0.7163444 0.7163444,1.623249e-16 1.6,0 L1.6,0 Z M12.2476383,4.71923864 C12.2786916,4.71923864 12.3085357,4.73127656 12.3308983,4.75282234 C12.3786247,4.79880555 12.3800378,4.8747722 12.3340546,4.92249861 L12.3340546,4.92249861 L11.285,6.01 L13.9670677,8.69134027 L13.0418884,9.61651958 L10.377,6.952 L9.25257732,8.12079251 C9.23749795,8.13644353 9.21860611,8.14755542 9.19802774,8.15322435 L9.16616102,8.15753254 C9.09988685,8.15753254 9.04616102,8.10380671 9.04616102,8.03753254 L9.04616102,8.03753254 L9.04616102,4.83923864 C9.04616102,4.77296447 9.09988685,4.71923864 9.16616102,4.71923864 L9.16616102,4.71923864 Z" id="形状结合"></path>
                </g>
            </g>
        </g>
    </g>
</svg>