<?xml version="1.0" encoding="UTF-8"?>
<svg width="16px" height="16px" viewBox="0 0 16 16" version="1.1" xmlns="http://www.w3.org/2000/svg" xmlns:xlink="http://www.w3.org/1999/xlink">
    <title>p-amb-advanced-attr备份</title>
    <g id="页面-1" stroke="none" stroke-width="1" fill="none" fill-rule="evenodd">
        <g id="画板" transform="translate(-467.000000, -141.000000)">
            <g id="p-amb-advanced-attr备份" transform="translate(467.000000, 141.000000)">
                <rect id="矩形备份-40" fill="#D8D8D8" opacity="0" x="0" y="0" width="16" height="16"></rect>
                <path d="M9.0224375,1.55071792 L14.7974375,10.3007179 C15.0454099,10.6769089 15.0668548,11.1588606 14.8532741,11.5555888 C14.6396933,11.9523171 14.2255663,12.1997763 13.775,12.1999054 L2.22609374,12.1999054 C1.77538168,12.1999054 1.36108704,11.9523622 1.14747539,11.5554851 C0.933863741,11.158608 0.955442668,10.676487 1.20365624,10.3002804 L6.97865624,1.55028039 C7.20537244,1.20672561 7.58947483,1 8.00109374,1 C8.41271265,1 8.79681504,1.20672561 9.02353124,1.55028039 L9.0224375,1.55071792 Z M14.3,13.5999054 C14.6865993,13.5999054 15,13.9133061 15,14.2999054 C15,14.6865047 14.6865993,14.9999054 14.3,14.9999054 L1.7,14.9999054 C1.31340068,14.9999054 1,14.6865047 1,14.2999054 C1,13.9133061 1.31340068,13.5999054 1.7,13.5999054 L14.3,13.5999054 Z" id="形状备份" fill="#000000" fill-rule="nonzero"></path>
            </g>
        </g>
    </g>
</svg>