<?xml version="1.0" standalone="no"?><!DOCTYPE svg PUBLIC "-//W3C//DTD SVG 1.1//EN" "http://www.w3.org/Graphics/SVG/1.1/DTD/svg11.dtd"><svg t="1571981003760" class="icon" viewBox="0 0 1024 1024" version="1.1" xmlns="http://www.w3.org/2000/svg" p-id="9846" xmlns:xlink="http://www.w3.org/1999/xlink" width="200" height="200"><defs><style type="text/css"></style></defs><path d="M511.616 52.544a459.2 459.2 0 1 0-0.064 918.4 459.2 459.2 0 0 0 0.064-918.336z m0 84.992a372.48 372.48 0 0 1 236.288 84.16l-526.464 526.4a374.208 374.208 0 0 1 290.176-610.56z m0 748.48a372.032 372.032 0 0 1-227.968-77.952l524.288-524.288a372.352 372.352 0 0 1 77.888 227.968 374.208 374.208 0 0 1-374.208 374.272z" p-id="9847"></path></svg>