<?xml version="1.0" standalone="no"?><!DOCTYPE svg PUBLIC "-//W3C//DTD SVG 1.1//EN" "http://www.w3.org/Graphics/SVG/1.1/DTD/svg11.dtd"><svg t="1571983109347" class="icon" viewBox="0 0 1024 1024" version="1.1" xmlns="http://www.w3.org/2000/svg" p-id="15302" xmlns:xlink="http://www.w3.org/1999/xlink" width="200" height="200"><defs><style type="text/css"></style></defs><path d="M898.048 364.032H857.6L557.056 87.552c5.12-8.192 7.68-17.408 7.68-27.648 0-29.184-24.064-53.248-53.248-53.248S458.24 30.72 458.24 59.904c0 10.24 3.072 19.456 7.68 27.648L165.888 364.544h-39.936c-46.08 0-83.456 37.376-83.456 83.456v486.4c0 46.08 37.376 83.456 83.456 83.456h771.584c46.08 0 83.456-37.376 83.456-83.456V448c0-46.592-36.864-83.968-82.944-83.968zM511.488 115.2l269.824 248.832H241.664L511.488 115.2z m418.304 818.688c0 17.92-14.336 32.256-32.256 32.256H125.952c-17.92 0-32.256-14.336-32.256-32.256V446.976c0-17.92 14.336-32.256 32.256-32.256v0.512h771.584c17.92 0 32.256 14.336 32.256 32.256v486.4zM302.08 645.12c-27.136 0-49.664 20.48-49.664 46.08s20.48 46.08 47.616 46.08 47.616-20.48 49.664-46.08c0.512-25.6-19.968-46.08-47.616-46.08z m420.864-1.536c-27.136 0-49.664 20.48-49.664 46.08 0 27.136 22.016 47.616 49.664 47.616 27.136 0 47.616-20.48 47.616-46.08 2.048-27.136-19.968-47.616-47.616-47.616z m-208.896 1.536c-27.136 0-49.664 20.48-49.664 46.08s20.48 46.08 47.616 46.08c25.6 0 47.616-20.48 49.664-44.544 1.024-27.136-20.992-47.616-47.616-47.616z" p-id="15303"></path></svg>