<?xml version="1.0" encoding="utf-8"?>
<!-- Generator: Adobe Illustrator 16.0.0, SVG Export Plug-In . SVG Version: 6.00 Build 0)  -->
<!DOCTYPE svg PUBLIC "-//W3C//DTD SVG 1.1//EN" "http://www.w3.org/Graphics/SVG/1.1/DTD/svg11.dtd">
<svg version="1.1" id="图层_1" xmlns="http://www.w3.org/2000/svg" xmlns:xlink="http://www.w3.org/1999/xlink" x="0px" y="0px"
	 width="200px" height="200px" viewBox="0 0 200 200" enable-background="new 0 0 200 200" xml:space="preserve">
<path d="M35.642,86.272c-1.642-0.003-2.969-1.337-2.966-2.979c0.002-1.137,0.653-2.172,1.676-2.668l43.545-20.931
	c0.812-0.389,1.756-0.39,2.568-0.001l41.871,20.039l41.861-40.615c1.178-1.142,3.057-1.113,4.199,0.063
	c1.139,1.178,1.109,3.056-0.066,4.197l-43.342,42.058c-0.892,0.866-2.228,1.084-3.348,0.548L79.187,65.664L36.925,85.978
	C36.525,86.172,36.086,86.273,35.642,86.272z M39.774,156.106c-3.066,0-5.557-1.331-5.557-2.97v-26.498
	c0-1.641,2.488-2.973,5.557-2.973c3.071,0,5.559,1.331,5.559,2.973v26.5C45.333,154.779,42.843,156.106,39.774,156.106z
	 M82.168,156.24c-3.221,0-5.834-1.331-5.834-2.97v-48.765c0-1.639,2.61-2.97,5.834-2.97c3.221,0,5.832,1.331,5.832,2.97v48.765
	C87.995,154.912,85.387,156.24,82.168,156.24z M124.834,156.106c-3.219,0-5.834-1.331-5.834-2.97v-26.498
	c0-1.641,2.62-2.973,5.834-2.973c3.219,0,5.834,1.331,5.834,2.973v26.5C130.668,154.779,128.058,156.106,124.834,156.106z
	 M164.825,156.24c-3.032,0-5.492-1.331-5.492-2.97V92.476c0-1.639,2.46-2.969,5.492-2.969c3.03,0,5.491,1.329,5.491,2.969v60.794
	C170.316,154.912,167.863,156.24,164.825,156.24z M16.404,170.565c-2.905,0-5.264-1.328-5.264-2.967V39.573
	c0-1.639,2.356-2.969,5.264-2.969c2.907,0,5.263,1.33,5.263,2.969V167.6C21.667,169.237,19.311,170.565,16.404,170.565z
	 M186.463,172H13.908c-1.639,0-2.97-2.506-2.97-5.596s1.33-5.604,2.97-5.604h172.555c1.64,0,2.599,2.511,2.599,5.604
	C189.062,169.494,188.105,172,186.463,172L186.463,172z M167.562,44.668h-23.749c-1.639,0-2.97-1.805-2.97-4.032
	c0-2.227,1.331-4.032,2.97-4.032h23.749c1.64,0,2.97,1.805,2.97,4.032S169.203,44.668,167.562,44.668z M166.599,66.292
	c-2.171,0-3.933-1.329-3.933-2.969v-23.75c0-1.639,1.762-2.969,3.933-2.969c2.169,0,3.931,1.33,3.931,2.969v23.75
	C170.529,64.963,168.773,66.292,166.599,66.292z"/>
</svg>
