<?xml version="1.0" encoding="utf-8"?>
<!-- Generator: Adobe Illustrator 16.0.0, SVG Export Plug-In . SVG Version: 6.00 Build 0)  -->
<!DOCTYPE svg PUBLIC "-//W3C//DTD SVG 1.1//EN" "http://www.w3.org/Graphics/SVG/1.1/DTD/svg11.dtd">
<svg version="1.1" id="图层_1" xmlns="http://www.w3.org/2000/svg" xmlns:xlink="http://www.w3.org/1999/xlink" x="0px" y="0px"
	 width="200px" height="200px" viewBox="0 0 200 200" enable-background="new 0 0 200 200" xml:space="preserve">
<path d="M118.719,174.992H41.933c-9.366-0.002-16.957-7.596-16.956-16.961c0-0.003,0-0.006,0-0.01V41.95
	c-0.007-9.367,7.581-16.967,16.948-16.974c0.002,0,0.005,0,0.008,0h116.071c4.504-0.011,8.824,1.779,12,4.972
	c3.203,3.203,4.953,7.462,4.955,11.995l-0.264,76.771v0.021c0.021,3.455,2.84,6.238,6.295,6.217
	c3.417-0.021,6.186-2.781,6.217-6.197l0.259-76.785V41.95c0.007-16.264-13.171-29.455-29.435-29.462c-0.01,0-0.019,0-0.027,0H41.933
	c-16.25-0.012-29.432,13.15-29.444,29.399c0,0.021,0,0.042,0,0.063v116.071c-0.02,16.249,13.136,29.438,29.385,29.458
	c0.02,0,0.04,0,0.06,0h76.786c3.449,0,6.244-2.796,6.244-6.244S122.168,174.991,118.719,174.992L118.719,174.992z M185.653,176.822
	l-23.843-23.842c12.02-16.896,8.065-40.335-8.83-52.354s-40.335-8.065-52.354,8.83c-12.019,16.896-8.065,40.336,8.83,52.354
	c13.028,9.268,30.496,9.268,43.523,0l23.842,23.843c2.438,2.438,6.393,2.438,8.831,0S188.092,179.262,185.653,176.822
	L185.653,176.822L185.653,176.822z M131.25,156.256c-13.811,0-25.006-11.195-25.006-25.006
	c0.001-13.811,11.196-25.006,25.006-25.005c13.811,0,25.006,11.196,25.006,25.006c0,6.632-2.635,12.991-7.324,17.681
	C144.252,153.637,137.885,156.273,131.25,156.256L131.25,156.256z M150.001,68.792c3.448,0,6.243-2.813,6.244-6.261
	c0.001-3.448-2.795-6.265-6.243-6.265L50,56.233c-3.45,0.005-6.245,2.804-6.244,6.255c0,3.449,2.794,6.268,6.244,6.268
	L150.001,68.792z M87.5,106.256c3.449,0,6.244-2.795,6.244-6.244c0-3.448-2.795-6.244-6.244-6.244H50
	c-3.445,0-6.238,2.793-6.238,6.238c0,3.445,2.793,6.238,6.238,6.238L87.5,106.256z M50.003,131.232
	c-3.448,0-6.243,2.795-6.243,6.243s2.795,6.242,6.243,6.242l25,0.004c3.445,0.033,6.265-2.733,6.298-6.179s-2.733-6.265-6.178-6.298
	c-0.04-0.001-0.08-0.001-0.12,0L50.003,131.232z"/>
</svg>
