<svg xmlns="http://www.w3.org/2000/svg" xmlns:xlink="http://www.w3.org/1999/xlink" preserveAspectRatio="xMidYMid" width="200" height="200" viewBox="0 0 200 200">
  <defs>
    <style>
      .cls-1 {
        fill: #000;
        fill-rule: evenodd;
      }
    </style>
  </defs>
  <path d="M160.921,90.012 C160.795,90.240 160.666,90.467 160.536,90.693 C147.771,113.625 121.335,123.697 97.386,116.472 L88.934,131.408 L99.659,137.725 L86.867,160.331 L76.141,154.014 L72.303,160.797 L88.614,170.404 L75.821,193.010 L59.510,183.403 L55.352,190.750 L33.008,177.589 L74.924,103.521 C56.406,86.252 51.258,57.799 64.071,34.780 C64.198,34.552 64.327,34.324 64.456,34.099 C79.355,7.334 112.877,-1.935 139.329,13.395 C139.554,13.526 139.779,13.658 140.001,13.792 C166.454,29.123 175.821,63.248 160.921,90.012 ZM128.110,36.929 C127.813,36.747 127.512,36.570 127.209,36.398 C113.409,27.934 95.549,32.389 87.317,46.348 C87.139,46.649 86.968,46.953 86.800,47.260 C78.569,61.219 83.083,79.398 96.883,87.862 C97.180,88.045 97.481,88.222 97.785,88.393 C111.584,96.858 129.445,92.403 137.676,78.444 C137.854,78.143 138.026,77.838 138.192,77.532 C146.424,63.572 141.910,45.394 128.110,36.929 Z" class="cls-1"/>
</svg>
