<?xml version="1.0" standalone="no"?><!DOCTYPE svg PUBLIC "-//W3C//DTD SVG 1.1//EN" "http://www.w3.org/Graphics/SVG/1.1/DTD/svg11.dtd"><svg t="1571972940346" class="icon" viewBox="0 0 1024 1024" version="1.1" xmlns="http://www.w3.org/2000/svg" p-id="6693" xmlns:xlink="http://www.w3.org/1999/xlink" width="200" height="200"><defs><style type="text/css"></style></defs><path d="M814.53 898.858l-621.81-0.632c-71.468-6.758-127.565-67.101-127.565-135.197V334.722c0-82.827 63.218-146.045 140.943-146.045h608.428c77.706 0 140.903 63.218 140.903 142.976v428.29c0.004 75.672-63.214 138.915-140.899 138.915z m-608.453-652.74c-46.051 0-83.522 37.453-83.522 88.621v428.29c0 40.935 37.47 78.413 83.522 78.413H814.53c46.032 0 83.487-37.478 83.487-81.483V331.653c0-48.1-37.455-85.56-83.487-85.56H206.077v0.025z m459.924 82.486c-21.131 0-33.165-17.147-33.165-38.283v-130.95c0-21.128 12.034-38.278 33.165-38.278 21.128 0 33.16 17.15 33.16 38.278v130.942c0 21.144-12.011 38.29-33.16 38.29z m-316.246 0c-21.131 0-33.162-17.147-33.162-38.283v-130.95c0-21.128 12.03-38.278 33.162-38.278 21.129 0 33.163 17.15 33.163 38.278v130.942c0 21.144-12.008 38.29-33.163 38.29z m180.933 413.092h-36.54c-21.127 0-38.28-14.08-38.28-35.213 0-21.127 17.152-35.207 38.28-35.207h36.54c21.128 0 38.278 14.08 38.278 35.207 0 21.132-17.15 35.213-38.278 35.213z m387.248-284.44H125.099c-21.132 0-38.28-12.033-38.28-33.161 0-21.132 17.148-33.161 38.28-33.161h792.858c21.127 0 38.278 12.029 38.278 33.16 0 21.13-17.146 33.163-38.3 33.163zM333.26 621.4h-36.539c-21.128 0-38.279-14.08-38.279-35.206 0-21.133 17.151-33.163 38.28-33.163h36.538c21.127 0 38.28 12.03 38.28 33.163 0 21.131-17.153 35.206-38.28 35.206z m197.427 0h-36.54c-21.127 0-38.28-14.08-38.28-35.206 0-21.133 17.152-33.163 38.28-33.163h36.54c21.128 0 38.278 12.03 38.278 33.163 0 21.131-17.15 35.206-38.278 35.206z m199.614 0h-36.537c-21.131 0-38.277-14.08-38.277-35.206 0-21.133 17.146-33.163 38.277-33.163h36.537c21.132 0 38.277 12.03 38.277 33.163 0 21.131-17.125 35.206-38.277 35.206zM333.261 741.696h-36.539c-21.128 0-38.279-14.08-38.279-35.213 0-21.127 17.151-35.207 38.28-35.207h36.538c21.127 0 38.28 14.08 38.28 35.207 0 21.132-17.153 35.213-38.28 35.213z m397.041 0h-36.537c-21.131 0-38.277-14.08-38.277-35.213 0-21.127 17.146-35.207 38.277-35.207h36.537c21.132 0 38.277 14.08 38.277 35.207 0 21.132-17.125 35.213-38.277 35.213z" p-id="6694"></path></svg>