<svg xmlns="http://www.w3.org/2000/svg" xmlns:xlink="http://www.w3.org/1999/xlink" preserveAspectRatio="xMidYMid" width="200" height="200" viewBox="0 0 200 200">
  <defs>
    <style>
      .cls-1 {
        fill: #000;
        fill-rule: evenodd;
      }
    </style>
  </defs>
  <path d="M190.997,97.596 C190.997,96.121 184.012,71.032 168.646,20.855 C167.249,16.428 163.058,11.999 157.471,11.999 L41.527,11.999 C35.938,11.999 31.748,14.951 30.351,20.855 L8.000,97.596 L8.000,183.193 C8.000,190.573 13.587,195.000 19.176,195.000 L178.425,195.000 C185.409,195.000 189.600,189.096 189.600,183.193 L190.997,97.596 ZM44.320,25.282 L157.471,25.282 L177.028,91.693 L128.136,91.693 C126.739,91.693 125.341,91.693 123.944,93.169 C122.547,94.646 122.547,96.121 122.547,97.596 C122.547,109.403 112.769,119.733 101.594,119.733 C90.419,119.733 80.640,109.403 80.640,97.596 C80.640,93.169 77.847,90.218 73.655,90.218 L24.763,90.218 L44.320,25.282 ZM72.258,38.565 C68.068,38.565 65.274,41.517 65.274,45.943 C65.274,50.370 68.068,53.322 72.258,53.322 L130.929,53.322 C135.120,53.322 137.913,50.370 137.913,45.943 C137.913,41.517 135.120,38.565 130.929,38.565 L72.258,38.565 ZM56.893,65.129 C52.702,65.129 49.907,68.080 49.907,72.508 C49.907,76.936 52.702,79.886 56.893,79.886 L144.898,79.886 C149.089,79.886 151.883,76.936 151.883,72.508 C151.883,68.080 149.089,65.129 144.898,65.129 L56.893,65.129 Z" class="cls-1"/>
</svg>
