<?xml version="1.0" standalone="no"?><!DOCTYPE svg PUBLIC "-//W3C//DTD SVG 1.1//EN" "http://www.w3.org/Graphics/SVG/1.1/DTD/svg11.dtd"><svg t="1571973498529" class="icon" viewBox="0 0 1024 1024" version="1.1" xmlns="http://www.w3.org/2000/svg" p-id="8001" xmlns:xlink="http://www.w3.org/1999/xlink" width="200" height="200"><defs><style type="text/css"></style></defs><path d="M464.73728 998.61504c-10.95168 0-21.46816-1.62816-31.65696-4.80768-44.52864-13.87008-64.79872-52.72064-68.63872-81.78688l-1.78688-13.54752 112.81408-411.85792c-19.06176 16.4096-43.22816 43.5456-60.40064 69.21216l-112.29696-75.264c31.68256-47.31392 115.65056-155.79648 209.05472-142.8224 34.16576 4.7872 80.08704 26.6496 104.79616 103.53664l6.1696 19.13856-99.4816 363.264c23.54176-19.95776 54.81984-49.90976 95.31904-94.76608l100.32128 90.61888c-111.22176 123.12064-189.8496 179.08224-254.21312 179.08224zM408.58112 125.90592c0 58.1376 47.13472 105.27232 105.27232 105.27232 58.12736 0 105.27744-47.1296 105.27744-105.27232 0.01024-58.1376-47.08864-105.28256-105.23136-105.30304-58.13248-0.0256-105.28256 47.08864-105.31328 105.22112l-0.00512 0.08192z" p-id="8002"></path></svg>