<?xml version="1.0" standalone="no"?><!DOCTYPE svg PUBLIC "-//W3C//DTD SVG 1.1//EN" "http://www.w3.org/Graphics/SVG/1.1/DTD/svg11.dtd"><svg t="1571983400634" class="icon" viewBox="0 0 1024 1024" version="1.1" xmlns="http://www.w3.org/2000/svg" p-id="16887" xmlns:xlink="http://www.w3.org/1999/xlink" width="200" height="200"><defs><style type="text/css"></style></defs><path d="M828.308 683.561V502.794a29.317 29.317 0 0 0-29.332-29.317H535.071V336.732h54.456a33.52 33.52 0 0 0 33.52-33.515V135.69a33.52 33.52 0 0 0-33.52-33.51H421.99a33.516 33.516 0 0 0-33.515 33.51v167.522a33.516 33.516 0 0 0 33.515 33.515h54.452v136.745H212.536a29.317 29.317 0 0 0-29.322 29.317v181.822h-54.456a33.52 33.52 0 0 0-33.516 33.51v167.521a33.516 33.516 0 0 0 33.516 33.51H296.31a33.516 33.516 0 0 0 33.515-33.51V718.121a33.52 33.52 0 0 0-33.515-33.51h-54.451V532.13h234.583v151.435H421.99a33.516 33.516 0 0 0-33.515 33.51v167.527a33.51 33.51 0 0 0 33.515 33.5h167.537a33.52 33.52 0 0 0 33.52-33.5V717.076a33.526 33.526 0 0 0-33.52-33.515h-54.456v-151.43h234.583v151.435h-54.451a33.516 33.516 0 0 0-33.521 33.51v167.527a33.516 33.516 0 0 0 33.52 33.5h167.553a33.516 33.516 0 0 0 33.515-33.5V717.076a33.52 33.52 0 0 0-33.515-33.515h-54.447M447.12 160.819H564.4v117.274h-117.28V160.819m-175.933 699.7H153.892v-117.27h117.294v117.27m293.212-1.05H447.124V742.2h117.28V859.47m293.227 0H740.34V742.2h117.29V859.47z" p-id="16888"></path></svg>