<?xml version="1.0" standalone="no"?><!DOCTYPE svg PUBLIC "-//W3C//DTD SVG 1.1//EN" "http://www.w3.org/Graphics/SVG/1.1/DTD/svg11.dtd"><svg t="1571981428258" class="icon" viewBox="0 0 1024 1024" version="1.1" xmlns="http://www.w3.org/2000/svg" p-id="11406" xmlns:xlink="http://www.w3.org/1999/xlink" width="200" height="200"><defs><style type="text/css"></style></defs><path d="M540.704 781.968L845.744 476.8c13.744-13.632 13.744-34.784 0-48.528-13.632-13.744-34.784-13.744-48.528 0l-254.08 254.08V139.28c0-17.408-13.744-31.152-31.136-31.152s-31.136 13.744-31.136 31.152v543.056l-254.08-254.08c-13.632-13.744-34.784-13.744-48.528 0-13.744 13.616-13.744 34.784 0 48.528l305.296 305.168c4.368 4.992 9.984 7.536 16.176 8.752 3.648 1.824 8.016 2.432 12.4 2.432 4.256 0 8.624-0.608 12.4-2.432 5.6-1.92 11.808-4.368 16.176-8.736z m344.96 73.456H138.352a30.88 30.88 0 0 0-31.136 31.136 30.88 30.88 0 0 0 31.136 31.12h747.312a30.88 30.88 0 0 0 31.12-31.12 30.88 30.88 0 0 0-31.12-31.136z" p-id="11407"></path></svg>