<?xml version="1.0" encoding="UTF-8"?>
<svg width="40px" height="40px" viewBox="0 0 40 40" version="1.1" xmlns="http://www.w3.org/2000/svg" xmlns:xlink="http://www.w3.org/1999/xlink">
    <title>数据资产登记单管理</title>
    <g id="数据资产登记单管理" stroke="none" stroke-width="1" fill="none" fill-rule="evenodd">
        <g id="配比数据库备份" fill-rule="nonzero">
            <rect id="矩形" fill="#000000" opacity="0" x="0" y="0" width="40" height="40"></rect>
            <path d="M32.5,20 C33.3287501,20 34,20.67275 34,21.50375 L34,38 L31.1762501,36.125 L28.8010001,38 L26.5191251,36.125 L24.1907501,38 L21.7540001,36.125 L19,38 L19,21.50375 C18.9997912,20.6746288 19.6708809,20.0018613 20.5,20 L32.5,20 Z M17.1833333,3.33333332 C24.8333333,3.33333332 31.0333333,6.66666668 31.0333333,10.6333333 L31.0333333,10.6333333 L31.0333333,17.2 L29.0666667,17.2 L29.0666667,14.3833333 C25.620779,16.8744664 21.4304953,18.1203852 17.1833333,17.9166667 C12.15,17.9166666 7.73333336,16.5 5.31666668,14.3833333 L5.31666668,14.3833333 L5.31666668,17.9166667 C5.31666668,20 9.58333332,21.6666667 15.2,22.0333333 L15.2,22.0333333 L15.2,24.1 C11.695898,24.035771 8.27688467,23.0094904 5.31666668,21.1333333 L5.31666668,21.1333333 L5.31666668,24.2333333 C5.31666668,26.3 9.58333336,28.0166666 15.2166667,28.3333333 L15.2166667,28.3333333 L15.2166667,30.35 C11.7070111,30.2879608 8.28205719,29.2616278 5.31666668,27.3833333 L5.31666668,27.3833333 L5.31666668,30.4166667 C5.31666664,32.7166666 10.6333333,34.5833333 17.1833333,34.5833333 L17.1833333,34.5833333 L17.1833333,36.6666667 C9.53333332,36.6666667 3.33333332,33.8666667 3.33333332,30.4166667 L3.33333332,30.4166667 L3.33333332,10.6333333 C3.33333332,6.66666668 9.53333332,3.33333332 17.1833333,3.33333332 Z M31.3765001,21.4999994 L21.6235001,21.4999994 C21.3252426,21.4997004 21.0391313,21.6181272 20.8283368,21.8291327 C20.6175424,22.0401382 20.499402,22.326368 20.4999978,22.624625 L20.4999978,35.4575 L22.1290001,34.05725 L24.1907501,35.669 L26.5191251,34.05725 L28.8010001,35.669 L30.8012501,34.05725 L32.4999978,35.4575 L32.4999978,22.625 C32.4999978,22.004265 31.9972346,21.5008276 31.3765001,21.4999994 Z M30.2481251,30.5 C30.6632501,30.5 30.9999997,30.833 30.9999997,31.25 C30.9999997,31.664375 30.6636251,32 30.2481251,32 L22.7518751,32 C22.5525772,32.0006984 22.3612134,31.9219651 22.2201118,31.7812154 C22.0790102,31.6404656 21.9997994,31.449299 21.9999997,31.25 C21.9999997,30.835625 22.3363751,30.5 22.7518751,30.5 L30.2481251,30.5 Z M30.2481251,27.125 C30.6632501,27.125 30.9999997,27.458 30.9999997,27.875 C30.9999997,28.289375 30.6636251,28.625 30.2481251,28.625 L22.7518751,28.625 C22.5525772,28.6256984 22.3612134,28.5469651 22.2201118,28.4062154 C22.0790102,28.2654656 21.9997994,28.074299 21.9999997,27.875 C21.9999997,27.460625 22.3363751,27.125 22.7518751,27.125 L30.2481251,27.125 Z M30.2481251,23.75 C30.6632501,23.75 30.9999997,24.083 30.9999997,24.5 C30.9999997,24.914375 30.6636251,25.25 30.2481251,25.25 L22.7518751,25.25 C22.5525772,25.2506984 22.3612134,25.1719651 22.2201118,25.0312154 C22.0790102,24.8904656 21.9997994,24.699299 21.9999997,24.5 C21.9999997,24.085625 22.3363751,23.75 22.7518751,23.75 L30.2481251,23.75 Z M17.1833333,5.41666668 C10.6333334,5.41666668 5.31666668,7.76666664 5.31666668,10.6333333 C5.31666668,13.5 10.6333333,15.8333333 17.1833333,15.8333333 C23.75,15.8333333 29.0666667,13.5166666 29.0666667,10.6333333 C29.0666667,7.75 23.7333333,5.41666668 17.1833333,5.41666668 Z" id="形状结合" fill="#FFFFFF"></path>
        </g>
    </g>
</svg>