<?xml version="1.0" standalone="no"?><!DOCTYPE svg PUBLIC "-//W3C//DTD SVG 1.1//EN" "http://www.w3.org/Graphics/SVG/1.1/DTD/svg11.dtd"><svg t="1590559882973" class="icon" viewBox="0 0 1024 1024" version="1.1" xmlns="http://www.w3.org/2000/svg" p-id="1150" xmlns:xlink="http://www.w3.org/1999/xlink" width="200" height="200"><defs><style type="text/css"></style></defs><path d="M512 20.48L279.3472 154.8288v268.6976L512 557.8752l232.6528-134.3488V154.8288L512 20.48z m142.336 155.4432L512 258.048l-142.336-82.3296L512 93.5936l142.336 82.3296z m-311.5008 45.4656l142.7456 82.5344v165.4784l-142.7456-82.5344v-165.4784z m195.584 248.0128v-165.4784l142.7456-82.5344v165.4784l-142.7456 82.5344zM253.1328 466.1248L20.48 600.4736v268.6976L253.1328 1003.52l232.6528-134.3488V600.4736l-232.6528-134.3488z m142.336 155.4432l-142.336 82.3296L110.592 621.568l142.336-82.3296 142.5408 82.3296zM83.7632 667.0336l142.7456 82.5344v165.4784l-142.7456-82.5344v-165.4784z m195.584 248.0128V749.568l142.7456-82.5344v165.4784l-142.7456 82.5344zM770.8672 466.1248l-232.6528 134.3488v268.6976L770.8672 1003.52 1003.52 869.1712V600.4736l-232.6528-134.3488z m142.5408 155.4432l-142.336 82.3296-142.336-82.3296 142.336-82.3296 142.336 82.3296z m-311.7056 45.4656l142.7456 82.5344v165.4784l-142.7456-82.5344v-165.4784z m195.584 248.0128V749.568l142.7456-82.5344v165.4784l-142.7456 82.5344z" fill="#1296db" p-id="1151"></path></svg>