<?xml version="1.0" encoding="UTF-8"?>
<svg width="40px" height="40px" viewBox="0 0 40 40" version="1.1" xmlns="http://www.w3.org/2000/svg" xmlns:xlink="http://www.w3.org/1999/xlink">
    <title>数据资源登记簿</title>
    <g id="数据资源登记簿" stroke="none" stroke-width="1" fill="none" fill-rule="evenodd">
        <g fill-rule="nonzero">
            <rect id="矩形" fill="#000000" opacity="0" x="0" y="0" width="40" height="40"></rect>
            <path d="M27.5,3.75 L27.5,6.25 L34.2391304,6.25 C34.9891304,6.25 35.4891304,6.75 35.4891304,7.5 L35.4891304,7.5 L35.4891304,35 C35.4891304,35.75 34.9891304,36.25 34.2391304,36.25 L34.2391304,36.25 L5.76086957,36.25 C5.01086957,36.25 4.51086957,35.75 4.51086957,35 L4.51086957,35 L4.51086957,7.5 C4.51086957,6.75 5.01086957,6.25 5.76086957,6.25 L5.76086957,6.25 L12.5,6.25 L12.5,3.75 L27.5,3.75 Z M12.5,8.75 L7.01086957,8.75 L7.01086957,33.75 L32.9891304,33.75 L32.9891304,8.75 L27.5,8.75 L27.5,11.25 L12.5,11.25 L12.5,8.75 Z M22.5,26.25 L22.5,28.75 L12.5,28.75 L12.5,26.25 L22.5,26.25 Z M22.5,21.25 L22.5,23.75 L12.5,23.75 L12.5,21.25 L22.5,21.25 Z M27.5,16.25 L27.5,18.75 L12.5,18.75 L12.5,16.25 L27.5,16.25 Z M25,6.25 L15,6.25 L15,8.75 L25,8.75 L25,6.25 Z" id="形状结合" fill="#F1F1F2"></path>
        </g>
    </g>
</svg>