<?xml version="1.0" encoding="UTF-8"?>
<svg width="40px" height="40px" viewBox="0 0 40 40" version="1.1" xmlns="http://www.w3.org/2000/svg" xmlns:xlink="http://www.w3.org/1999/xlink">
    <title>我的申请审核</title>
    <g id="我的申请审核" stroke="none" stroke-width="1" fill="none" fill-rule="evenodd">
        <g id="申请管理@3x" fill-rule="nonzero">
            <rect id="矩形" fill="#000000" opacity="0" x="0" y="0" width="40" height="40"></rect>
            <path d="M29.8739658,12 C29.2511249,12 28.7462125,11.5456556 28.7462125,10.9851934 L28.7462125,7.03116023 L24.1286129,7.03116023 C23.5052972,7.03116023 23,6.57646953 23,6.01558012 C23,5.45469071 23.5052972,5 24.1286129,5 L31,5 L31,10.9851934 C31,11.5456556 30.4950876,12 29.8722467,12 L29.8739658,12 Z M15.8866529,37 L3,37 L3,4 L9.78361012,4 C10.3989634,4 10.8978058,4.48299607 10.8978058,5.07880192 C10.8978058,5.67460777 10.3989634,6.15760384 9.78361012,6.15760384 L5.22669416,6.15760384 L5.22669416,34.8423962 L15.8866529,34.8423962 C16.5015375,34.8423962 17,35.3250244 17,35.9203764 C17,36.5157285 16.5015375,36.9983567 15.8866529,36.9983567 L15.8866529,37 Z M29.999044,24 C27.7922732,23.9971434 26.0041194,22.380302 26.00096,20.3849487 L26.00096,18.6958501 C25.9692621,17.3851597 26.7244662,16.1615779 27.9748093,15.4978191 C29.2251525,14.8340603 30.7748475,14.8340603 32.0251907,15.4978191 C33.2755338,16.1615779 34.0307379,17.3851597 33.99904,18.6958501 L33.99904,20.3849487 C33.9958783,22.3809759 32.2065615,23.9980956 29.999044,24 L29.999044,24 Z M29.9987171,17 C28.8954422,17.0010983 28.0014136,17.6957497 28,18.5529835 L28,20.5006919 C28.0385713,21.3372804 28.9226052,22 30,22 C31.0773948,22 31.9614287,21.3372804 32,20.5006919 L32,18.5529835 C31.9985843,17.694972 31.1029939,17 29.9987171,17 L29.9987171,17 Z M37.9982469,37 L22,37 L22,30.2947262 C22.0048314,27.9227701 24.1376788,26.0017388 26.76827,26 L33.2334831,26 C35.8647562,26.0026134 37.9971016,27.9253132 38,30.2978876 L37.9982469,37 L37.9982469,37 Z M24,35 L36,35 L36,30.2687428 C35.9969536,29.0168561 34.8374318,28.0026645 33.4061538,28 L26.5956923,28 C25.1630769,28.0016148 24.0018462,29.0173011 24,30.2719723 L24,35 L24,35 Z M25,9 L8,9 L8,1 L25,1 L25,9 L25,9 Z M11,7 L23,7 L23,4 L11,4 L11,7 Z M9,14 L24,14 L24,16 L9,16 L9,14 Z M9,21 L23,21 L23,23 L9,23 L9,21.0015244 L9,21 Z M9,28 L19,28 L19,30 L9,30 L9,28 Z" id="形状" fill="#FFFFFF"></path>
        </g>
    </g>
</svg>