<?xml version="1.0" encoding="UTF-8"?>
<svg width="40px" height="40px" viewBox="0 0 40 40" version="1.1" xmlns="http://www.w3.org/2000/svg" xmlns:xlink="http://www.w3.org/1999/xlink">
    <title>我的数据</title>
    <g id="我的数据" stroke="none" stroke-width="1" fill="none" fill-rule="evenodd">
        <g id="配比数据库" fill-rule="nonzero">
            <rect id="矩形" fill="#000000" opacity="0" x="0" y="0" width="40" height="40"></rect>
            <path d="M30.2334831,29 C32.8647562,29.0023759 34.9971016,30.7502847 35,32.9071706 L34.9982469,39 L19,39 L19,32.9042966 C19.0048314,30.7479729 21.1376788,29.0015807 23.76827,29 L30.2334831,29 Z M30.2334831,30.8853284 L23.7665169,30.8853284 C22.4061575,30.8867654 21.3034952,31.7906309 21.3017421,32.9071706 L21.3017421,37.1146716 L32.6965049,37.1146716 L32.6965049,32.9042966 C32.6936122,31.7902349 31.5925724,30.8876995 30.2334831,30.8853284 Z M17.1833333,3.33333332 C24.8333333,3.33333332 31.0333333,6.66666668 31.0333333,10.6333333 L31.0333333,10.6333333 L31.0333333,17.2 L29.0666667,17.2 L29.0666667,14.3833333 C25.620779,16.8744664 21.4304953,18.1203852 17.1833333,17.9166667 C12.15,17.9166666 7.73333336,16.5 5.31666668,14.3833333 L5.31666668,14.3833333 L5.31666668,17.9166667 C5.31666668,20 9.58333332,21.6666667 15.2,22.0333333 L15.2,22.0333333 L15.2,24.1 C11.695898,24.035771 8.27688467,23.0094904 5.31666668,21.1333333 L5.31666668,21.1333333 L5.31666668,24.2333333 C5.31666668,26.3 9.58333336,28.0166666 15.2166667,28.3333333 L15.2166667,28.3333333 L15.2166667,30.35 C11.7070111,30.2879608 8.28205719,29.2616278 5.31666668,27.3833333 L5.31666668,27.3833333 L5.31666668,30.4166667 C5.31666664,32.7166666 10.6333333,34.5833333 17.1833333,34.5833333 L17.1833333,34.5833333 L17.1833333,36.6666667 C9.53333332,36.6666667 3.33333332,33.8666667 3.33333332,30.4166667 L3.33333332,30.4166667 L3.33333332,10.6333333 C3.33333332,6.66666668 9.53333332,3.33333332 17.1833333,3.33333332 Z M28.7783395,19.4978191 C30.1179929,20.1299704 30.9524023,21.2698976 30.9980275,22.5092523 L30.99892,24.3849487 C30.9953631,26.3809759 28.9823817,27.9980956 26.4989245,28 C24.0163073,27.9971434 22.0046343,26.380302 22.00108,24.3849487 L22.00108,22.6958501 C21.9654199,21.3851597 22.8150245,20.1615779 24.2216605,19.4978191 C25.6282965,18.8340603 27.3717035,18.8340603 28.7783395,19.4978191 Z M26.4983964,21 C25.1193027,21.0010983 24.0017669,21.6957497 24,22.5529835 L24,24.5006919 C24.0482141,25.3372804 25.1532565,26 26.5,26 C27.8467435,26 28.9517859,25.3372804 29,24.5006919 L29,22.5529835 C28.9982303,21.694972 27.8787424,21 26.4983964,21 Z M17.1833333,5.41666668 C10.6333334,5.41666668 5.31666668,7.76666664 5.31666668,10.6333333 C5.31666668,13.5 10.6333333,15.8333333 17.1833333,15.8333333 C23.75,15.8333333 29.0666667,13.5166666 29.0666667,10.6333333 C29.0666667,7.75 23.7333333,5.41666668 17.1833333,5.41666668 Z" id="形状结合" fill="#FFFFFF"></path>
        </g>
    </g>
</svg>