<?xml version="1.0" standalone="no"?><!DOCTYPE svg PUBLIC "-//W3C//DTD SVG 1.1//EN" "http://www.w3.org/Graphics/SVG/1.1/DTD/svg11.dtd"><svg t="1590559919228" class="icon" viewBox="0 0 1024 1024" version="1.1" xmlns="http://www.w3.org/2000/svg" p-id="2130" xmlns:xlink="http://www.w3.org/1999/xlink" width="200" height="200"><defs><style type="text/css"></style></defs><path d="M511.712 746.368c126.816 0 238.24-21.76 320.288-57.92v123.936h-0.384c-11.296 24.32-120.768 83.392-319.616 83.392-198.816 0-308.288-59.072-319.616-83.392H192v-123.648c82.016 35.968 193.184 57.632 319.712 57.632m0-221.376c126.816 0 238.24-21.696 320.288-57.824v150.208c-70.432 37.28-183.104 64.768-320.288 64.768-136.736 0-249.184-27.328-319.712-64.416v-150.336c82.016 36 193.184 57.6 319.712 57.6m0-64.224c-136.736 0-249.184-27.264-319.712-64.32v-142.4c68.8 33.024 186.368 54.816 320 54.816 133.664 0 251.232-21.792 320-54.816v142.016c-70.432 37.248-183.104 64.704-320.288 64.704M512 244.64c-134.976 0-231.456-22.24-282.464-43.52a15.936 15.936 0 0 1 0-29.376c51.008-21.248 147.488-43.52 282.464-43.52 134.848 0 231.232 22.208 282.336 43.424a16.064 16.064 0 0 1 0 29.536c-51.104 21.28-147.488 43.456-282.336 43.456M512 64C299.936 64 128 118.816 128 186.432v625.952C128 893.92 299.936 960 512 960c212.096 0 384-66.08 384-147.616V186.432C896 118.816 724.096 64 512 64" fill="#1296db" p-id="2131"></path></svg>