<?xml version="1.0" encoding="UTF-8"?>
<svg width="40px" height="40px" viewBox="0 0 40 40" version="1.1" xmlns="http://www.w3.org/2000/svg" xmlns:xlink="http://www.w3.org/1999/xlink">
    <title>数据抽取任务管理</title>
    <g id="数据抽取任务管理" stroke="none" stroke-width="1" fill="none" fill-rule="evenodd">
        <g id="提取业务" fill-rule="nonzero">
            <rect id="矩形" fill="#000000" opacity="0" x="0" y="0" width="40" height="40"></rect>
            <path d="M31.984375,12.7304688 C34.3125,12.7304688 36.2031609,14.625 36.2031609,16.9492187 L36.2031609,31.8867188 C36.2070312,34.2148438 34.3125,36.109375 31.984375,36.109375 L8.15234375,36.109375 C5.82421875,36.109375 3.93359375,34.2148438 3.93359375,31.890625 L3.93359375,16.953125 C3.93359375,14.625 5.828125,12.734375 8.15234375,12.734375 L9.08203125,12.734375 C9.765625,12.734375 10.3242187,13.2890625 10.3242187,13.9765625 C10.3242187,14.6640625 9.76953125,15.21875 9.08203125,15.21875 L8.15234375,15.21875 C7.1953125,15.21875 6.4140625,16 6.4140625,16.9570313 L6.4140625,31.8945312 C6.4140625,32.8515625 7.1953125,33.6328125 8.15234375,33.6328125 L31.984375,33.6328125 C32.9414062,33.6328125 33.7226562,32.8515625 33.7226562,31.8945312 L33.7226562,16.953125 C33.7226562,15.9960937 32.9414062,15.2148438 31.984375,15.2148438 L30.9648437,15.2148438 C30.28125,15.2148438 29.7226562,14.6601562 29.7226562,13.9726562 C29.7226562,13.2851562 30.2773437,12.7304688 30.9648437,12.7304688 L31.984375,12.7304688 Z M23.7929687,3.83984375 C26.1210937,3.83984375 28.0117391,5.734375 28.0117391,8.05859375 L28.0115937,26.1748438 L30.6835937,26.1757813 C31.3671875,26.1757813 31.9257812,26.7304688 31.9257812,27.4179688 C31.9257812,28.1054688 31.3671875,28.6601563 30.6835937,28.6601563 L26.9609375,28.6601563 L26.8674605,28.6566374 C26.8364159,28.6589692 26.8050604,28.6601562 26.7734375,28.6601562 L9.0859375,28.6601563 C8.40234375,28.6601563 7.84375,28.1054688 7.84375,27.4179688 C7.84375,26.7304688 8.3984375,26.1757813 9.0859375,26.1757813 L12.1245937,26.1748438 L12.125,8.05859375 C12.125,5.73046875 14.0195312,3.83984375 16.34375,3.83984375 L23.7929687,3.83984375 Z M23.7929687,6.3203125 L16.3476562,6.3203125 C15.390625,6.3203125 14.609375,7.1015625 14.609375,8.05859375 L14.609375,26.1796875 L25.53125,26.1796875 L25.53125,8.05859375 C25.53125,7.1015625 24.75,6.3203125 23.7929687,6.3203125 Z M19.8828125,10.1679688 C20.3230435,10.1679688 20.7114333,10.3980141 20.932176,10.7454289 C21.001501,10.7914177 21.0676119,10.8449556 21.1289062,10.90625 L23.3632812,13.140625 C23.8476562,13.625 23.8476562,14.4101562 23.3632812,14.8945312 C23.125,15.1367187 22.8085937,15.2578125 22.4882812,15.2578125 C22.171875,15.2578125 21.8515625,15.1367187 21.609375,14.8945312 L21.1245937,14.4098438 L21.125,21.09375 C21.125,21.7773438 20.5703125,22.3320312 19.8828125,22.3320312 C19.1992187,22.3320312 18.640625,21.7773438 18.640625,21.0898438 L18.6405937,14.4048437 L18.1523437,14.8945312 C17.9140625,15.1367187 17.59375,15.2578125 17.2773437,15.2578125 C16.9609375,15.2578125 16.640625,15.1367187 16.3984375,14.8945312 C15.9140625,14.4101562 15.9140625,13.625 16.3984375,13.140625 L18.6328125,10.90625 C18.6961998,10.8428627 18.7647382,10.7877704 18.8370794,10.7409734 C19.0570078,10.3968902 19.4426957,10.1679688 19.8828125,10.1679688 Z" id="形状结合" fill="#FFFFFF"></path>
        </g>
    </g>
</svg>