<?xml version="1.0" encoding="UTF-8"?>
<svg width="40px" height="40px" viewBox="0 0 40 40" version="1.1" xmlns="http://www.w3.org/2000/svg" xmlns:xlink="http://www.w3.org/1999/xlink">
    <title>API服务日志</title>
    <g id="API服务日志" stroke="none" stroke-width="1" fill="none" fill-rule="evenodd">
        <g id="系统日志备份-2" fill-rule="nonzero">
            <rect id="矩形" fill="#000000" opacity="0" x="0" y="0" width="40" height="40"></rect>
            <path d="M33.75,3.75 C36.5114237,3.75 38.75,5.98857625 38.75,8.75 L38.75,8.75 L38.75,31.25 C38.75,34.0114237 36.5114237,36.25 33.75,36.25 L33.75,36.25 L6.25,36.25 C3.48857625,36.25 1.25,34.0114237 1.25,31.25 L1.25,31.25 L1.25,8.75 C1.25,5.98857625 3.48857625,3.75 6.25,3.75 L6.25,3.75 Z M36.25,16.25 L3.75,16.25 L3.75,31.25 C3.75,32.6307119 4.86928813,33.75 6.25,33.75 L6.25,33.75 L33.75,33.75 C35.1307119,33.75 36.25,32.6307119 36.25,31.25 L36.25,31.25 L36.25,16.25 Z M13.586,20.004 L17.436,30 L15.798,30 L14.86,27.424 L10.562,27.424 L9.624,30 L8,30 L11.85,20.004 L13.586,20.004 Z M22.56,20.004 C24.94,20.004 26.13,21.012 26.13,23.042 C26.13,25.086 24.926,26.108 22.532,26.108 L22.532,26.108 L19.942,26.108 L19.942,30 L18.416,30 L18.416,20.004 Z M29.084,20.004 L29.084,30 L27.572,30 L27.572,20.004 L29.084,20.004 Z M12.746,21.642 L12.69,21.642 L11.024,26.164 L14.398,26.164 L12.746,21.642 Z M22.434,21.306 L19.942,21.306 L19.942,24.806 L22.434,24.806 C23.19,24.806 23.736,24.666 24.086,24.386 C24.422,24.106 24.604,23.658 24.604,23.042 C24.604,22.426 24.422,21.978 24.072,21.726 C23.722,21.446 23.176,21.306 22.434,21.306 L22.434,21.306 Z M33.75,6.25 L6.25,6.25 C4.86928813,6.25 3.75,7.36928813 3.75,8.75 L3.75,8.75 L3.75,13.75 L36.25,13.75 L36.25,8.75 C36.25,7.36928813 35.1307119,6.25 33.75,6.25 L33.75,6.25 Z M8.75,8.75 C9.44035594,8.75 10,9.30964406 10,10 C10,10.6903559 9.44035594,11.25 8.75,11.25 L8.75,11.25 L7.5,11.25 C6.80964406,11.25 6.25,10.6903559 6.25,10 C6.25,9.30964406 6.80964406,8.75 7.5,8.75 L7.5,8.75 Z M15,8.75 C15.6903559,8.75 16.25,9.30964406 16.25,10 C16.25,10.6903559 15.6903559,11.25 15,11.25 L15,11.25 L13.75,11.25 C13.0596441,11.25 12.5,10.6903559 12.5,10 C12.5,9.30964406 13.0596441,8.75 13.75,8.75 L13.75,8.75 Z" id="形状结合" fill="#FFFFFF"></path>
        </g>
    </g>
</svg>