<?xml version="1.0" encoding="UTF-8"?>
<svg width="40px" height="40px" viewBox="0 0 40 40" version="1.1" xmlns="http://www.w3.org/2000/svg" xmlns:xlink="http://www.w3.org/1999/xlink">
    <title>数据元标准</title>
    <g id="数据元标准" stroke="none" stroke-width="1" fill="none" fill-rule="evenodd">
        <g id="数据4" fill-rule="nonzero">
            <rect id="矩形" fill="#000000" opacity="0" x="0" y="0" width="40" height="40"></rect>
            <path d="M27.6,14.3 C27,14.3 26.4,14.4 25.8,14.5 L25.8,9.5 C25.8,9.5 25.8,9.5 25.8,9.5 C25.8,9.5 25.8,9.5 25.8,9.5 C25.8,9.5 25.8,9.5 25.8,9.5 C25.8,6.5 20,4.9 14.2,4.9 C8.5,4.8 2.6,6.4 2.6,9.4 L2.6,9.5 L2.6,30 C2.6,30.1 2.6,30.3 2.7,30.4 L2.6,30.4 C2.6,33.4 8.4,35 14.2,35 C16.5,35 18.8,34.7 20.7,34.2 C22.6,35.7 25,36.6 27.5,36.6 C33.7,36.6 38.7,31.6 38.7,25.4 C38.7,19.2 33.8,14.3 27.6,14.3 Z M14.2,6.8 C20.2,6.8 23.8,8.5 23.8,9.4 C23.8,10.3 20.2,12 14.2,12 C8.2,12 4.6,10.3 4.6,9.4 C4.6,8.5 8.3,6.8 14.2,6.8 Z M4.6,12.1 C6.8,13.4 10.5,14 14.2,14 C17.9,14 21.6,13.3 23.8,12.1 L23.8,15 C21.8,15.7 20,17 18.7,18.7 C17.4,18.9 15.9,19.1 14.2,19.1 C8.2,19.1 4.6,17.4 4.6,16.5 L4.6,12.1 Z M4.6,19.1 C6.8,20.4 10.5,21 14.2,21 C15.3,21 16.4,20.9 17.4,20.8 C16.8,22.2 16.4,23.8 16.4,25.4 C16.4,25.6 16.4,25.7 16.4,25.9 C15.7,26 15,26 14.2,26 C8.2,26 4.6,24.3 4.6,23.4 L4.6,19.1 Z M4.6,30.4 L4.6,30.4 C4.6,30.3 4.6,30.1 4.6,30 L4.6,26.1 C6.8,27.4 10.5,28 14.2,28 C15,28 15.9,28 16.7,27.9 C17.1,29.7 17.9,31.3 19,32.6 C17.6,32.9 16,33 14.2,33 C8.3,33.1 4.6,31.4 4.6,30.4 Z M27.6,34.7 C22.5,34.7 18.4,30.6 18.4,25.5 C18.4,21.2 21.4,17.5 25.5,16.6 C25.6,16.6 25.7,16.6 25.8,16.5 L25.8,16.5 C26.4,16.4 27,16.3 27.6,16.3 C32.7,16.3 36.8,20.4 36.8,25.5 C36.8,30.5 32.7,34.7 27.6,34.7 Z M24,22 L32,22 C32.5522847,22 33,22.4477153 33,23 C33,23.5522847 32.5522847,24 32,24 L24,24 C23.4477153,24 23,23.5522847 23,23 C23,22.4477153 23.4477153,22 24,22 Z M24,26 L32,26 C32.5522847,26 33,26.4477153 33,27 C33,27.5522847 32.5522847,28 32,28 L24,28 C23.4477153,28 23,27.5522847 23,27 C23,26.4477153 23.4477153,26 24,26 Z" id="形状" fill="#FFFFFF"></path>
        </g>
    </g>
</svg>