<?xml version="1.0" encoding="UTF-8"?>
<svg width="40px" height="40px" viewBox="0 0 40 40" version="1.1" xmlns="http://www.w3.org/2000/svg" xmlns:xlink="http://www.w3.org/1999/xlink">
    <title>FTP资产管理</title>
    <g id="FTP资产管理" stroke="none" stroke-width="1" fill="none" fill-rule="evenodd">
        <g id="其他广告数据" fill-rule="nonzero">
            <rect id="矩形" fill="#000000" opacity="0" x="0" y="0" width="40" height="40"></rect>
            <path d="M32.5,2.5 C35.1776316,2.5 37.3812327,4.63313712 37.4953574,7.28396541 L37.5,7.5 L37.5,32.5 C37.5,35.1776316 35.3668629,37.3812327 32.7160346,37.4953574 L32.5,37.5 L7.5,37.5 C4.82236842,37.5 2.61876731,35.3668629 2.50464262,32.7160346 L2.5,32.5 L2.5,7.5 C2.5,4.82236842 4.63313712,2.61876731 7.28396541,2.50464262 L7.5,2.5 L32.5,2.5 Z M32.5,5 L7.5,5 C6.06,5 5.0808,5.9216 5.004768,7.322432 L5,7.5 L5,32.5 C5,33.94 5.9216,34.9192 7.322432,34.995232 L7.5,35 L32.5,35 C33.94,35 34.9192,34.0784 34.995232,32.677568 L35,32.5 L35,7.5 C35,6 34,5 32.5,5 Z M31.25,29.25 C32,29.25 32.5,29.75 32.5,30.5 C32.5,31.25 32,31.75 31.25,31.75 L8.75,31.75 C8,31.75 7.5,31.25 7.5,30.5 C7.5,29.75 8,29.25 8.75,29.25 L31.25,29.25 Z M14.77,13.004 L14.77,14.306 L9.506,14.306 L9.506,17.218 L14.476,17.218 L14.476,18.52 L9.506,18.52 L9.506,23 L7.98,23 L7.98,13.004 L14.77,13.004 Z M23.534,13.004 L23.534,14.306 L20.202,14.306 L20.202,23 L18.69,23 L18.69,14.306 L15.344,14.306 L15.344,13.004 L23.534,13.004 Z M28.882,13.004 C31.262,13.004 32.452,14.012 32.452,16.042 C32.452,18.0178667 31.3269289,19.0387311 29.0894328,19.1045933 L28.854,19.108 L26.264,19.108 L26.264,23 L24.738,23 L24.738,13.004 L28.882,13.004 Z M28.756,14.306 L26.264,14.306 L26.264,17.806 L28.756,17.806 C29.512,17.806 30.058,17.666 30.408,17.386 C30.744,17.106 30.926,16.658 30.926,16.042 C30.926,15.426 30.744,14.978 30.394,14.726 C30.044,14.446 29.498,14.306 28.756,14.306 Z" id="形状结合" fill="#FFFFFF"></path>
        </g>
    </g>
</svg>