<?xml version="1.0" encoding="UTF-8"?>
<svg width="40px" height="40px" viewBox="0 0 40 40" version="1.1" xmlns="http://www.w3.org/2000/svg" xmlns:xlink="http://www.w3.org/1999/xlink">
    <title>API资产管理</title>
    <g id="API资产管理" stroke="none" stroke-width="1" fill="none" fill-rule="evenodd">
        <g id="机构资产备份" fill-rule="nonzero">
            <rect id="矩形" fill="#000000" opacity="0" x="0" y="0" width="40" height="40"></rect>
            <path d="M20,2.5390625 C29.1679688,2.5390625 36.640625,4.79296875 36.9804688,7.61328125 L36.9804688,7.61328125 L36.9921875,7.61328125 L36.9921875,32.359375 C36.6914062,35.1914062 29.1992188,37.4609375 20,37.4609375 C10.8007812,37.4609375 3.30859375,35.1914062 3.015625,32.359375 L3.015625,32.359375 L3.0078125,32.359375 L3.0078125,7.61328125 L3.01953125,7.61328125 C3.359375,4.79296875 10.8320312,2.5390625 20,2.5390625 Z M4.96484375,9.80859375 L4.96484375,32.140625 C5.00390625,32.2148438 5.2109375,32.5234375 5.94140625,32.9570312 C6.7265625,33.421875 7.84765625,33.8632812 9.18359375,34.234375 C12.1367188,35.0546875 15.9765625,35.5078125 20,35.5078125 C24.0234375,35.5078125 27.8632812,35.0546875 30.8203125,34.2304688 C32.15625,33.859375 33.2773438,33.4179688 34.0625,32.953125 C34.7929688,32.5195312 34.9960938,32.2109375 35.0390625,32.1367188 L35.0390625,32.1367188 L35.0390625,10.2695312 C32.1914063,11.9453125 26.5273438,13.0859375 20,13.0859375 C19.78125,13.0859375 19.5625,13.0859375 19.34375,13.0820312 C19.1992188,13.0820312 19.0507813,13.078125 18.9101563,13.0742187 C18.7695313,13.0703125 18.625,13.0625 18.4804688,13.0585937 C18.3359375,13.0507812 18.1914063,13.046875 18.0507813,13.0390625 C17.4804688,13.0078125 16.921875,12.96875 16.3710938,12.9179687 C16.0898438,12.8945312 15.8085938,12.8632812 15.53125,12.8320312 C15.4023438,12.8164062 15.2734375,12.8007812 15.1484375,12.7851562 C15.0742188,12.7773437 14.9960938,12.7695312 14.921875,12.7578125 C14.796875,12.7421875 14.671875,12.7226562 14.5507813,12.7070312 C14.4882813,12.6992187 14.421875,12.6875 14.3554688,12.6796875 C14.1601563,12.6523437 13.9648438,12.6210937 13.7734375,12.5898437 C13.7109375,12.578125 13.6445313,12.5703125 13.5820313,12.5585937 C13.390625,12.5273437 13.1992188,12.4960937 13.0117188,12.4609375 L13.0117188,12.4609375 L12.8242188,12.4257812 C12.6367188,12.390625 12.453125,12.3554687 12.2695313,12.3164062 C12.2070313,12.3007812 12.1484375,12.2890625 12.0859375,12.2773437 L12.0859375,12.2773437 L11.7265625,12.1992187 L11.4101563,12.1289062 C11.3828125,12.1210937 11.3554688,12.1171875 11.328125,12.109375 C11.2265625,12.0859375 11.1210938,12.0585937 11.0195313,12.0351562 L11.0195313,12.0351562 L10.6757813,11.9492187 C10.515625,11.9101562 10.359375,11.8710937 10.203125,11.828125 C10.1367188,11.8085938 10.0703125,11.7929687 10.0039063,11.7734375 C9.89453125,11.7460937 9.78515625,11.7148437 9.67578125,11.6835937 C9.62109375,11.6679687 9.5703125,11.6523437 9.515625,11.6367187 L9.515625,11.6367187 L9.19921875,11.5429687 L9.19921875,11.5429687 L9.04296875,11.4960937 C8.98046875,11.4765625 8.9140625,11.4570312 8.8515625,11.4375 C8.76171875,11.4101562 8.671875,11.3789062 8.58203125,11.3515625 C8.53515625,11.3320312 8.484375,11.3164062 8.43359375,11.3007812 C8.28125,11.25 8.13671875,11.1992188 7.9921875,11.1484375 C7.89453125,11.1171875 7.80078125,11.0820312 7.70703125,11.046875 C7.61328125,11.0117188 7.51953125,10.9765625 7.4296875,10.9414062 C7.19921875,10.8515625 6.98046875,10.765625 6.765625,10.6757812 C6.625,10.6171875 6.484375,10.5585937 6.3515625,10.5 C6.16015625,10.4179687 5.9765625,10.3320312 5.80078125,10.2460937 C5.76171875,10.2265625 5.72265625,10.2109375 5.6875,10.1914062 C5.59765625,10.1445312 5.5078125,10.1015625 5.421875,10.0546875 C5.390625,10.0390625 5.36328125,10.0234375 5.33203125,10.0078125 C5.23828125,9.9609375 5.1484375,9.91015625 5.0625,9.86328125 C5.02734375,9.84375 4.99609375,9.828125 4.96484375,9.80859375 L4.96484375,9.80859375 Z M13.586,18.004 L17.436,28 L15.798,28 L14.86,25.424 L10.562,25.424 L9.624,28 L8,28 L11.85,18.004 L13.586,18.004 Z M22.56,18.004 C24.94,18.004 26.13,19.012 26.13,21.042 C26.13,23.086 24.926,24.108 22.532,24.108 L22.532,24.108 L19.942,24.108 L19.942,28 L18.416,28 L18.416,18.004 Z M29.084,18.004 L29.084,28 L27.572,28 L27.572,18.004 L29.084,18.004 Z M12.746,19.642 L12.69,19.642 L11.024,24.164 L14.398,24.164 L12.746,19.642 Z M22.434,19.306 L19.942,19.306 L19.942,22.806 L22.434,22.806 C23.19,22.806 23.736,22.666 24.086,22.386 C24.422,22.106 24.604,21.658 24.604,21.042 C24.604,20.426 24.422,19.978 24.072,19.726 C23.722,19.446 23.176,19.306 22.434,19.306 L22.434,19.306 Z M20,4.4921875 C15.9765625,4.4921875 12.1328125,4.94140625 9.1796875,5.765625 C7.84765625,6.13671875 6.7265625,6.58203125 5.93359375,7.046875 C5.8984375,7.06640625 5.86328125,7.0859375 5.83203125,7.10546875 C5.828125,7.109375 5.8203125,7.11328125 5.8125,7.1171875 C5.78125,7.13671875 5.75,7.15625 5.72265625,7.17578125 C5.71484375,7.17578125 5.7109375,7.1796875 5.70703125,7.18359375 C5.68359375,7.19921875 5.65625,7.21875 5.6328125,7.234375 C5.62890625,7.234375 5.625,7.23828125 5.62109375,7.2421875 C5.59765625,7.26171875 5.5703125,7.28125 5.546875,7.296875 L5.546875,7.296875 L5.53125,7.30859375 C5.5078125,7.32421875 5.484375,7.34375 5.4609375,7.359375 C5.44140625,7.37890625 5.41796875,7.39453125 5.3984375,7.41015625 L5.3984375,7.41015625 L5.38671875,7.421875 C5.36328125,7.4375 5.34765625,7.453125 5.328125,7.46875 C5.328125,7.47265625 5.32421875,7.47265625 5.3203125,7.4765625 C5.3046875,7.48828125 5.2890625,7.50390625 5.2734375,7.515625 L5.2734375,7.515625 L5.2421875,7.54638672 L5.2421875,7.54638672 L5.21875,7.56640625 L5.2109375,7.57421875 C5.1953125,7.5859375 5.1796875,7.6015625 5.16796875,7.61328125 C5.3671875,7.76953125 5.68359375,7.984375 6.16015625,8.2421875 C7.05859375,8.7265625 8.2265625,9.19921875 9.53515625,9.609375 C12.6875,10.5898438 16.40625,11.1328125 20,11.1328125 C24.0234375,11.1328125 27.8632812,10.6796875 30.8203125,9.8515625 C32.15625,9.48046875 33.2773437,9.0390625 34.0625,8.57421875 C34.6796875,8.20703125 34.921875,7.9296875 35.0078125,7.80859375 C34.921875,7.6875 34.6835937,7.41015625 34.0625,7.04296875 C33.2773437,6.578125 32.15625,6.13671875 30.8203125,5.765625 C27.8632812,4.9453125 24.0234375,4.4921875 20,4.4921875 Z" id="形状结合" fill="#FFFFFF"></path>
        </g>
    </g>
</svg>