<?xml version="1.0" encoding="UTF-8"?>
<svg width="40px" height="40px" viewBox="0 0 40 40" version="1.1" xmlns="http://www.w3.org/2000/svg" xmlns:xlink="http://www.w3.org/1999/xlink">
    <title>数据资产登记</title>
    <g id="数据资产登记" stroke="none" stroke-width="1" fill="none" fill-rule="evenodd">
        <g fill="#F1F1F2" fill-rule="nonzero" id="形状">
            <path d="M19.9158031,0.0194300518 L10.4981865,5.45777202 L10.4981865,16.334456 L19.9158031,21.7727979 L29.3334197,16.334456 L29.3334197,5.45777202 L19.9158031,0.0194300518 Z M25.6774611,6.31165803 L19.9158031,9.63601036 L14.1541451,6.30336788 L19.9158031,2.97901554 L25.6774611,6.31165803 L25.6774611,6.31165803 Z M13.0681347,8.15207254 L18.8463731,11.4930052 L18.8463731,18.1914508 L13.0681347,14.8505181 L13.0681347,8.15207254 L13.0681347,8.15207254 Z M20.9852332,18.1914508 L20.9852332,11.4930052 L26.7634715,8.15207254 L26.7634715,14.8505181 L20.9852332,18.1914508 L20.9852332,18.1914508 Z M9.43704663,18.0588083 L0.0194300518,23.4971503 L0.0194300518,34.3738342 L9.43704663,39.8121762 L18.8546632,34.3738342 L18.8546632,23.4971503 L9.43704663,18.0588083 Z M15.1987047,24.3510363 L9.43704663,27.6836788 L3.66709845,24.3510363 L9.42875648,21.0183938 L15.1987047,24.3510363 Z M2.58108808,26.1914508 L8.35932642,29.5323834 L8.35932642,36.230829 L2.58108808,32.8898964 L2.58108808,26.1914508 Z M10.4981865,36.230829 L10.4981865,29.5323834 L16.2764249,26.1914508 L16.2764249,32.8898964 L10.4981865,36.230829 L10.4981865,36.230829 Z M30.3945596,18.0588083 L20.976943,23.4971503 L20.976943,34.3738342 L30.3945596,39.8121762 L39.8121762,34.3738342 L39.8121762,23.4971503 L30.3945596,18.0588083 L30.3945596,18.0588083 Z M36.1645078,24.3510363 L30.4028497,27.6836788 L24.6411917,24.3510363 L30.4028497,21.0183938 L36.1645078,24.3510363 Z M23.5468912,26.1914508 L29.3251295,29.5323834 L29.3251295,36.230829 L23.5468912,32.8898964 L23.5468912,26.1914508 Z M31.4639896,36.230829 L31.4639896,29.5323834 L37.242228,26.1914508 L37.242228,32.8898964 L31.4639896,36.230829 Z"></path>
        </g>
    </g>
</svg>