<?xml version="1.0" encoding="UTF-8"?>
<svg width="40px" height="40px" viewBox="0 0 40 40" version="1.1" xmlns="http://www.w3.org/2000/svg" xmlns:xlink="http://www.w3.org/1999/xlink">
    <title>我的申请</title>
    <g id="我的申请" stroke="none" stroke-width="1" fill="none" fill-rule="evenodd">
        <g id="申请" fill-rule="nonzero">
            <rect id="矩形" fill="#000000" opacity="0" x="0" y="0" width="40" height="40"></rect>
            <path d="M29.2301953,3.83238281 C31.0132422,3.83238281 32.4638281,5.28300781 32.4638281,7.06605469 L32.4638281,14.6131641 C32.4638281,15.3035156 31.9041797,15.8631641 31.2138281,15.8631641 C30.5234766,15.8631641 29.9638281,15.3035156 29.9638281,14.6131641 L29.9638281,7.06605469 C29.9638281,6.66835938 29.6278516,6.33238281 29.2301953,6.33238281 L8.23789063,6.33238281 C7.84019531,6.33238281 7.50421875,6.66835938 7.50421875,7.06605469 L7.50421875,32.9631641 C7.50421875,33.3608594 7.84019531,33.6968359 8.23789063,33.6968359 L14.0858203,33.6968359 C14.7761719,33.6968359 15.3358203,34.2564844 15.3358203,34.9468359 C15.3358203,35.6371875 14.7761719,36.196875 14.0858203,36.196875 L8.23789063,36.196875 C6.45484375,36.196875 5.00421875,34.74625 5.00421875,32.9632031 L5.00421875,7.06605469 C5.00421875,5.28300781 6.45484375,3.83238281 8.23789063,3.83238281 L29.2301953,3.83238281 Z M30.7280078,16.7667188 L34.9651563,20.5414844 C35.6458203,21.1478516 35.6973047,22.2053516 35.0805469,22.9003516 L32.4998047,25.8255859 C32.2276764,26.1340693 31.8372414,26.2762909 31.4565999,26.2442438 L31.3673047,26.2486328 L31.3673047,26.2486328 C31.0409375,26.2486328 30.7149219,26.1216016 30.4697656,25.86875 L26.9672188,22.2563828 L20.0717969,29.998125 C20.0776241,30.0580988 20.0811683,30.1182725 20.0824219,30.1785156 L20.1478516,33.2178125 L22.8059375,32.9123438 C22.8494949,32.8687621 22.8917783,32.8239255 22.9327344,32.7778906 L22.9415625,32.7680859 L28.2160547,26.9712891 C28.6806641,26.4607422 29.4711719,26.4233984 29.981875,26.8879688 C30.4924609,27.3526172 30.5297656,28.1431641 30.0651953,28.6537891 L24.7948047,34.4460156 C24.6665234,34.5896875 24.4702344,34.7952344 24.2553906,34.9692969 C23.7632031,35.3680078 23.3267969,35.4494922 22.9846875,35.4082031 L17.7074609,36.0146875 L17.5841797,30.2871094 C17.3690234,29.6070703 17.6957031,28.9069141 18.0903906,28.4639063 L28.3692578,16.9259375 C28.6567578,16.6032031 29.0501563,16.4027344 29.476875,16.3614844 C29.9329688,16.3173828 30.3893359,16.465 30.7280078,16.7667188 Z M18.85125,22.5423828 C19.5416016,22.5423828 20.10125,23.1020313 20.10125,23.7923828 C20.10125,24.4827344 19.5416016,25.0423828 18.85125,25.0423828 L11.4688281,25.0423828 C10.7784766,25.0423828 10.2188281,24.4827344 10.2188281,23.7923828 C10.2188281,23.1020313 10.7784766,22.5423828 11.4688281,22.5423828 L18.85125,22.5423828 Z M29.6957422,19.1952734 L28.6342188,20.3853828 L31.4252188,23.2633828 L32.674375,21.8488672 L29.6957422,19.1952734 Z M22.4448047,16.2927344 C23.1351563,16.2927344 23.6948047,16.8523828 23.6948047,17.5427344 C23.6948047,18.2330859 23.1351563,18.7927344 22.4448047,18.7927344 L11.4297266,18.7927344 C10.739375,18.7927344 10.1797266,18.2330859 10.1797266,17.5427344 C10.1797266,16.8523828 10.739375,16.2927344 11.4297266,16.2927344 L22.4448047,16.2927344 Z M24.1634766,10.1699219 C24.8538281,10.1699219 25.4134766,10.7295703 25.4134766,11.4199219 C25.4134766,12.1102734 24.8538281,12.6699219 24.1634766,12.6699219 L11.4199219,12.6699219 C10.7295703,12.6699219 10.1699219,12.1102734 10.1699219,11.4199219 C10.1699219,10.7295703 10.7295703,10.1699219 11.4199219,10.1699219 L24.1634766,10.1699219 Z" id="形状结合" fill="#FFFFFF"></path>
        </g>
    </g>
</svg>