<?xml version="1.0" encoding="UTF-8"?>
<svg width="40px" height="40px" viewBox="0 0 40 40" version="1.1" xmlns="http://www.w3.org/2000/svg" xmlns:xlink="http://www.w3.org/1999/xlink">
    <title>基础标签管理</title>
    <g id="基础标签管理" stroke="none" stroke-width="1" fill="none" fill-rule="evenodd">
        <g id="标签备份-2" fill-rule="nonzero">
            <rect id="矩形" fill="#000000" opacity="0" x="0" y="0" width="40" height="40"></rect>
            <path d="M28.5,6 C29.4,6 30,6.6 30,7.5 L30,7.65 L29.7,16.35 C29.7,16.8 29.55,17.1 29.25,17.4 L19.95,26.7 C19.35,27.3 18.45,27.3 17.85,26.7 L9.45,18 C8.85,17.4 8.85,16.5 9.45,15.9 L18.75,6.75 C19.05,6.45 19.35,6.3 19.8,6.3 L28.5,6 Z M28.5,7.5 L19.8,7.8 L10.5,16.95 L19.05,25.5 L28.35,16.2 L28.5,7.5 Z M24,12 C24.45,12.45 24.45,13.2 24,13.65 C23.55,14.1 22.8,14.1 22.35,13.65 C22.05,13.05 22.05,12.3 22.5,12 C22.95,11.55 23.55,11.55 24,12 Z" id="形状" fill="#FFFFFF"></path>
            <path d="M34.9679695,39.6730095 L19.4393505,32.5625286 L3.91588713,39.6627977 C3.37768724,40.0529841 2.66324041,40.109004 2.06974904,39.8075536 C1.47625768,39.5061033 1.1053228,38.8987886 1.11124944,38.2382461 L1.11124944,1.75645118 C1.11124944,0.78639819 1.90528178,-2.87859225e-05 2.88477032,-2.87859225e-05 L36.0042419,-2.87859225e-05 C36.4750289,-0.00134645255 36.92693,0.183268942 37.2598281,0.512960205 C37.5927262,0.842651469 37.7791373,1.29019931 37.7778068,1.75645118 L37.7778068,38.243352 C37.7778068,38.7100739 37.5902046,39.1576059 37.2564891,39.4871488 C36.9227735,39.8166916 36.4703459,40.0011451 35.9990863,40.0000209 C35.6293375,40.0000209 35.2687271,39.8860172 34.9679695,39.6730095 Z M20.4704673,29.9679613 L35.2255654,35.8019623 L35.2255654,2.51288748 L3.64798004,2.51288748 L3.64798004,35.8121741 L18.4030781,29.9781731 C18.7021058,29.7605904 19.063138,29.6425974 19.4341949,29.6411824 C19.8085695,29.6439966 20.1681909,29.7579669 20.4704673,29.9679613 Z" id="形状" fill="#FFFFFF"></path>
        </g>
    </g>
</svg>