<?xml version="1.0" encoding="UTF-8"?>
<svg width="40px" height="40px" viewBox="0 0 40 40" version="1.1" xmlns="http://www.w3.org/2000/svg" xmlns:xlink="http://www.w3.org/1999/xlink">
    <title>数据开发</title>
    <g id="数据开发" stroke="none" stroke-width="1" fill="none" fill-rule="evenodd">
        <g fill-rule="nonzero">
            <rect id="矩形" fill="#000000" opacity="0" x="0" y="0" width="40" height="40"></rect>
            <path d="M9.60885038,19.5217391 L13.1564571,23.6608209 C13.6174663,24.1986919 13.4928923,24.9617454 12.8782134,25.3651486 C12.2635345,25.7685518 11.391517,25.6595442 10.9305078,25.1216732 L6.75685283,20.2521653 C6.38539688,19.8194557 6.38539688,19.2240226 6.75685283,18.7913129 L10.9305078,13.921805 C11.391517,13.383934 12.2635345,13.2749264 12.8782134,13.6783296 C13.4928923,14.0817329 13.6174663,14.8447864 13.1564571,15.3826574 L9.60885038,19.5217391 Z M25.8870212,23.6608208 C25.426012,24.1986918 25.5505859,24.9617454 26.1652649,25.3651486 C26.7799438,25.7685519 27.6519613,25.6595442 28.1129705,25.1216732 L32.2866254,20.2521653 C32.6580814,19.8194557 32.6580814,19.2240225 32.2866254,18.7913129 L28.1129705,13.921805 C27.6519613,13.383934 26.7799438,13.2749264 26.1652649,13.6783296 C25.550586,14.0817329 25.426012,14.8447864 25.8870212,15.3826574 L29.4346279,19.5217391 L25.8870212,23.6608208 Z M18.6130748,25.5482203 C18.1648977,25.6877012 17.6738829,25.5819713 17.3289532,25.2717113 C16.9840234,24.9614514 16.8389264,24.4950065 16.9494896,24.0518462 L19.552981,12.7053483 C19.6467228,12.2585658 19.9822264,11.8956084 20.4304035,11.7561275 C20.8785805,11.6166466 21.3695954,11.7223765 21.7145251,12.0326365 C22.0594548,12.3428965 22.2045518,12.8093413 22.0939886,13.2525016 L19.4904972,24.5989995 C19.3967555,25.045782 19.0612519,25.4087395 18.6130748,25.5482203 Z M5.99722479,4.73913043 C5.30239846,4.73913043 4.73913043,5.30239846 4.73913043,5.99722479 L4.73913043,33.0462535 C4.73913043,33.7410798 5.30239846,34.3043478 5.99722479,34.3043478 L33.0462535,34.3043478 C33.7410798,34.3043478 34.3043478,33.7410798 34.3043478,33.0462535 L34.3043478,5.99722479 C34.3043478,5.30239846 33.7410798,4.73913043 33.0462535,4.73913043 L5.99722479,4.73913043 Z M6.7944664,3 L33.9881423,3 C36.0837682,3 36.0435885,4.69884047 36.0435885,6.7944664 L36.0435885,33.9881423 C36.0435885,36.0837682 36.0837682,36.0435335 33.9881423,36.0435335 L6.7944664,36.0435335 C4.69884047,36.0435335 3,36.0837682 3,33.9881423 L3,6.7944664 C3,4.69884047 4.69884047,3 6.7944664,3 Z" id="形状" fill="#FFFFFF"></path>
        </g>
    </g>
</svg>