<?xml version="1.0" encoding="UTF-8"?>
<svg width="40px" height="40px" viewBox="0 0 40 40" version="1.1" xmlns="http://www.w3.org/2000/svg" xmlns:xlink="http://www.w3.org/1999/xlink">
    <title>业务标签管理</title>
    <g id="业务标签管理" stroke="none" stroke-width="1" fill="none" fill-rule="evenodd">
        <g id="标签备份" fill-rule="nonzero">
            <rect id="矩形" fill="#000000" opacity="0" x="0" y="0" width="40" height="40"></rect>
            <path d="M34.9679695,39.6730095 L19.4393505,32.5625286 L3.91588713,39.6627977 C3.37768724,40.0529841 2.66324041,40.109004 2.06974904,39.8075536 C1.47625768,39.5061033 1.1053228,38.8987886 1.11124944,38.2382461 L1.11124944,1.75645118 C1.11124944,0.78639819 1.90528178,-2.87859225e-05 2.88477032,-2.87859225e-05 L36.0042419,-2.87859225e-05 C36.4750289,-0.00134645255 36.92693,0.183268942 37.2598281,0.512960205 C37.5927262,0.842651469 37.7791373,1.29019931 37.7778068,1.75645118 L37.7778068,38.243352 C37.7778068,38.7100739 37.5902046,39.1576059 37.2564891,39.4871488 C36.9227735,39.8166916 36.4703459,40.0011451 35.9990863,40.0000209 C35.6293375,40.0000209 35.2687271,39.8860172 34.9679695,39.6730095 Z M20.4704673,29.9679613 L35.2255654,35.8019623 L35.2255654,2.51288748 L3.64798004,2.51288748 L3.64798004,35.8121741 L18.4030781,29.9781731 C18.7021058,29.7605904 19.063138,29.6425974 19.4341949,29.6411824 C19.8085695,29.6439966 20.1681909,29.7579669 20.4704673,29.9679613 Z" id="形状" fill="#FFFFFF"></path>
            <path d="M19.7191797,5 L25.0625781,8.06813281 L25.0573516,8.06813281 L25.0465703,8.07352344 L29.4383594,10.60775 L29.4383594,21.8232031 L19.7191797,27.4309766 L10,21.8232266 L10,10.60775 L14.3917891,8.07614844 L14.372875,8.06813281 L14.3784062,8.06813281 L19.7188984,5 L19.7191797,5 Z M11.5770859,12.4653125 L11.5770859,20.9146719 L18.9291953,25.1555938 L18.9291953,16.7062109 L11.5770859,12.4653125 Z M27.8612734,12.4708203 L20.5090234,16.7114844 L20.5090234,25.1527109 L24.3887031,22.9151328 L24.3887031,22.9148516 L27.8611562,20.9119297 L27.8611562,12.4705625 L27.8612734,12.4708203 Z M19.7216641,6.82207813 L15.9732812,8.98442188 L15.9689922,8.98207813 L12.3372578,11.0795469 L12.3393203,11.0805313 L12.3372578,11.0818906 L15.9823984,13.18475 L15.9851406,13.1829688 L19.7244297,15.3392188 L23.4729531,13.1767578 L23.4772422,13.1793828 L27.1088359,11.0817734 L27.1066328,11.0806484 L27.1088359,11.0795469 L23.4638359,8.97671094 L23.4607891,8.97821094 L19.7218047,6.82207813 L19.7216641,6.82207813 Z M19.7324453,11.0305625 L19.8102812,11.0751406 L19.7136719,11.1307578 L19.6356719,11.0861797 L19.7324453,11.0305625 Z" id="形状" fill="#FFFFFF"></path>
        </g>
    </g>
</svg>