<?xml version="1.0" standalone="no"?><!DOCTYPE svg PUBLIC "-//W3C//DTD SVG 1.1//EN" "http://www.w3.org/Graphics/SVG/1.1/DTD/svg11.dtd"><svg t="1590559909938" class="icon" viewBox="0 0 1024 1024" version="1.1" xmlns="http://www.w3.org/2000/svg" p-id="1890" xmlns:xlink="http://www.w3.org/1999/xlink" width="200" height="200"><defs><style type="text/css"></style></defs><path d="M904.857023 213.837024L563.414693 13.980831a102.018821 102.018821 0 0 0-103.085518 0L119.128629 213.837024A103.085517 103.085517 0 0 0 68.254333 302.813707v424.189508a103.042849 103.042849 0 0 0 51.98366 89.602478l341.342772 194.053366a101.890818 101.890818 0 0 0 100.809899 0l341.342773-194.053366a103.014404 103.014404 0 0 0 52.012105-89.602478V302.813707a103.085517 103.085517 0 0 0-50.888519-88.976683zM887.476987 727.003215a34.333394 34.333394 0 0 1-17.337368 29.867492L546.888013 940.641122V551.837482c0-1.123587-0.540459-2.076502-0.65424-3.214311l207.749745-120.650447c39.624207-22.471733 5.802827-81.822707-33.764489-59.294085l-211.732078 122.954512-208.091087-119.171296c-39.553094-22.585513-73.317583 36.836574-33.750267 59.322529l211.916971 121.375801v388.348517L153.860256 756.870707a34.347616 34.347616 0 0 1-17.337368-29.867492V302.813707a34.376062 34.376062 0 0 1 16.96758-29.654153l341.200546-199.856194a33.977828 33.977828 0 0 1 34.333394 0l341.484999 199.884639A34.233836 34.233836 0 0 1 887.476987 302.813707z" fill="#1296DB" p-id="1891"></path></svg>