<?xml version="1.0" encoding="UTF-8"?>
<svg width="40px" height="40px" viewBox="0 0 40 40" version="1.1" xmlns="http://www.w3.org/2000/svg" xmlns:xlink="http://www.w3.org/1999/xlink">
    <title>运费费用计算</title>
    <g id="运费费用计算" stroke="none" stroke-width="1" fill="none" fill-rule="evenodd">
        <g id="费用预缴&amp;住院押金&amp;账户查询" fill-rule="nonzero">
            <rect id="矩形" fill="#000000" opacity="0" x="0" y="0" width="40" height="40"></rect>
            <path d="M32.0195312,5.796875 L8.05859375,5.796875 C5.72265625,5.796875 3.828125,7.69140625 3.828125,10.0273437 L3.828125,31.171875 C3.828125,33.5078125 5.72265625,35.4023438 8.05859375,35.4023438 L32.0234375,35.4023438 C34.359375,35.4023438 36.2539062,33.5078125 36.2539062,31.171875 L36.2539062,10.0273437 C36.25,7.69140625 34.3554688,5.796875 32.0195312,5.796875 Z M33.4296875,24.828125 L24.2695313,24.828125 C21.9375,24.828125 20.0390625,22.9296875 20.0390625,20.5976562 C20.0390625,18.265625 21.9375,16.3671875 24.2695313,16.3671875 L33.4335938,16.3671875 L33.4335938,24.828125 L33.4296875,24.828125 Z M24.2695312,14.2539062 C20.765625,14.2539062 17.9257812,17.09375 17.9257812,20.5976562 C17.9257812,24.1015625 20.765625,26.9414063 24.2695312,26.9414063 L33.4335938,26.9414063 L33.4335938,31.171875 C33.4335938,31.9492188 32.8007812,32.5820312 32.0234375,32.5820312 L8.05859375,32.5820312 C7.28125,32.5820312 6.6484375,31.9492188 6.6484375,31.171875 L6.6484375,10.0273437 C6.6484375,9.25 7.28125,8.6171875 8.05859375,8.6171875 L32.0234375,8.6171875 C32.8007812,8.6171875 33.4335938,9.25 33.4335938,10.0273437 L33.4335938,14.2578125 L24.2695312,14.2578125 L24.2695312,14.2539062 Z M22.859375,20.5976562 C22.859375,21.376464 23.4907235,22.0078125 24.2695312,22.0078125 C25.048339,22.0078125 25.6796875,21.376464 25.6796875,20.5976562 C25.6796875,19.8188485 25.048339,19.1875 24.2695312,19.1875 C23.4907235,19.1875 22.859375,19.8188485 22.859375,20.5976562 Z" id="形状" fill="#FFFFFF"></path>
        </g>
    </g>
</svg>