<?xml version="1.0" encoding="UTF-8"?>
<svg width="40px" height="40px" viewBox="0 0 40 40" version="1.1" xmlns="http://www.w3.org/2000/svg" xmlns:xlink="http://www.w3.org/1999/xlink">
    <title>我的应用</title>
    <g id="我的应用" stroke="none" stroke-width="1" fill="none" fill-rule="evenodd">
        <g id="应用账号" fill-rule="nonzero">
            <rect id="矩形" fill="#000000" opacity="0" x="0" y="0" width="40" height="40"></rect>
            <path d="M16.8046875,20.8554688 C18.15625,20.8554688 19.2578125,21.9570312 19.2539166,23.3085938 L19.2539166,23.3085938 L19.2539166,33.59375 C19.2539166,34.9453125 18.15625,36.0429688 16.8046875,36.0429688 L16.8046875,36.0429688 L6.51953125,36.0429688 C5.16796875,36.0429688 4.0703125,34.9453125 4.0703125,33.59375 L4.0703125,33.59375 L4.0703125,23.3046875 C4.0703125,21.953125 5.16796875,20.8554688 6.51953125,20.8554688 L6.51953125,20.8554688 Z M30.625,29.2773438 C33.2148438,29.2773438 35.3203125,31.3828125 35.3203125,33.9726563 L35.3203125,33.9726563 L35.3203125,34.8007813 C35.3203125,35.34375 34.8828125,35.78125 34.3398438,35.78125 C33.796875,35.78125 33.359375,35.34375 33.359375,34.8007813 L33.359375,34.8007813 L33.359375,33.9726563 C33.359375,32.4648438 32.1328125,31.2382813 30.625,31.2382813 L30.625,31.2382813 L27.5429688,31.2382813 C26.0351562,31.2382813 24.8085938,32.4648438 24.8085938,33.9726563 L24.8085938,33.9726563 L24.8085938,34.8007813 C24.8085938,35.34375 24.3710938,35.78125 23.828125,35.78125 C23.2851562,35.78125 22.8476562,35.34375 22.8476562,34.8007813 L22.8476562,34.8007813 L22.8476562,33.9726563 C22.8476562,31.3828125 24.953125,29.2773438 27.5429688,29.2773438 L27.5429688,29.2773438 Z M16.8046875,23.3085938 L6.51953125,23.3085938 L6.51953125,33.59375 L16.8046875,33.59375 L16.8046875,23.3085938 Z M27.203125,21.4414063 C28.09375,20.9257813 29.1367188,20.7890625 30.1328125,21.0546875 C31.1328125,21.3242188 31.9648438,21.9609375 32.4804688,22.8554688 C32.828125,23.453125 33.0078125,24.1328125 33,24.8203125 C32.9960938,25.3632813 32.5585938,25.7929688 32.0117188,25.7929688 C31.46875,25.7890625 31.0351562,25.3476563 31.0390625,24.8046875 C31.0429688,24.46875 30.9570312,24.1328125 30.7851562,23.8398438 C30.53125,23.3984375 30.1210938,23.0859375 29.6289062,22.953125 C29.1367188,22.8242188 28.625,22.890625 28.1835938,23.1445313 C27.7421875,23.3984375 27.4296875,23.8085938 27.296875,24.2890625 C27.1679687,24.78125 27.234375,25.2929688 27.4882812,25.734375 C28.0117188,26.640625 29.1757812,26.953125 30.0859375,26.4296875 C30.1015625,26.421875 30.1210938,26.4101563 30.140625,26.3984375 C30.6015625,26.1132813 31.203125,26.2578125 31.4882812,26.71875 C31.7734375,27.1796875 31.6289062,27.78125 31.1679688,28.0664063 C31.1328125,28.0898438 31.1015625,28.109375 31.0664062,28.1289063 C30.4609375,28.4804688 29.796875,28.6484375 29.140625,28.6484375 C27.8046875,28.6484375 26.5039062,27.9570313 25.7890625,26.71875 C24.7226562,24.875 25.359375,22.5078125 27.203125,21.4414063 Z M16.9296875,4.43359375 C18.28125,4.43359375 19.3789063,5.53515625 19.3789063,6.88671875 L19.3789063,6.88671875 L19.3789063,17.1679688 C19.3789063,18.5195312 18.28125,19.6171875 16.9296875,19.6171875 L16.9296875,19.6171875 L6.64453125,19.6171875 C5.29296875,19.6171875 4.1953125,18.5195312 4.1953125,17.1679688 L4.1953125,17.1679688 L4.1953125,6.8828125 C4.1953125,5.53125 5.29296875,4.43359375 6.64453125,4.43359375 L6.64453125,4.43359375 Z M33.6054688,4.43359375 C34.9570312,4.43359375 36.0546875,5.47265625 36.0585938,6.74609375 L36.0585938,6.74609375 L36.0585938,7.984375 C36.0585938,8.6640625 35.5117188,9.2109375 34.8320312,9.2109375 C34.1523438,9.2109375 33.6054688,8.66015625 33.6054688,7.984375 L33.6054688,7.984375 L33.6054688,6.88671875 L23.3203125,6.88671875 L23.3203125,17.171875 L33.6015625,17.171875 L33.6015625,15.4023438 C33.6015625,14.7226563 34.1484375,14.1757813 34.828125,14.1757813 C35.5078125,14.1757813 36.0546875,14.7265625 36.0546875,15.4023438 L36.0546875,15.4023438 L36.0546875,17.2773438 C36.0546875,18.5664062 34.9570312,19.6171875 33.6054688,19.6171875 L33.6054688,19.6171875 L23.3203125,19.6171875 C21.96875,19.6171875 20.8710938,18.5195312 20.8710938,17.1679688 L20.8710938,17.1679688 L20.8710938,6.8828125 C20.8710938,5.53125 21.96875,4.43359375 23.3203125,4.43359375 L23.3203125,4.43359375 Z M16.9296875,6.88671875 L6.64453125,6.88671875 L6.64453125,17.171875 L16.9296875,17.171875 L16.9296875,6.88671875 Z M34.828125,10.4375 C35.5055368,10.4375 36.0546875,10.9866507 36.0546875,11.6640625 C36.0546875,12.3414743 35.5055368,12.890625 34.828125,12.890625 C34.1507132,12.890625 33.6015625,12.3414743 33.6015625,11.6640625 C33.6015625,10.9866507 34.1507132,10.4375 34.828125,10.4375 Z" id="形状结合" fill="#FFFFFF"></path>
        </g>
    </g>
</svg>