<?xml version="1.0" encoding="UTF-8"?>
<svg width="40px" height="40px" viewBox="0 0 40 40" version="1.1" xmlns="http://www.w3.org/2000/svg" xmlns:xlink="http://www.w3.org/1999/xlink">
    <title>数据架构</title>
    <g id="数据架构" stroke="none" stroke-width="1" fill="none" fill-rule="evenodd">
        <g id="架构图" fill-rule="nonzero">
            <rect id="矩形" fill="#000000" opacity="0" x="0" y="0" width="40" height="40"></rect>
            <path d="M37.5,11.875 L37.5,3.125 L27.5,3.125 L27.5,6.25 L17.5,6.25 L17.5,18.75 L12.5,18.75 L12.5,15.625 L2.5,15.625 L2.5,24.375 L12.5,24.375 L12.5,21.25 L17.5,21.25 L17.5,33.75 L27.5,33.75 L27.5,36.875 L37.5,36.875 L37.5,28.125 L27.5,28.125 L27.5,31.25 L20,31.25 L20,21.25 L27.5,21.25 L27.5,24.375 L37.5,24.375 L37.5,15.625 L27.5,15.625 L27.5,18.75 L20,18.75 L20,8.75 L27.5,8.75 L27.5,11.875 L37.5,11.875 Z M10,21.875 L5,21.875 L5,18.125 L10,18.125 L10,21.875 Z M30,30.625 L35,30.625 L35,34.375 L30,34.375 L30,30.625 Z M30,18.125 L35,18.125 L35,21.875 L30,21.875 L30,18.125 Z M30,5.625 L35,5.625 L35,9.375 L30,9.375 L30,5.625 Z" id="形状" fill="#FFFFFF"></path>
        </g>
    </g>
</svg>