<?xml version="1.0" encoding="UTF-8"?>
<svg width="40px" height="40px" viewBox="0 0 40 40" version="1.1" xmlns="http://www.w3.org/2000/svg" xmlns:xlink="http://www.w3.org/1999/xlink">
    <title>数据超市</title>
    <g id="数据超市" stroke="none" stroke-width="1" fill="none" fill-rule="evenodd">
        <g id="购物车" fill-rule="nonzero">
            <rect id="矩形" fill="#000000" opacity="0" x="0" y="0" width="40" height="40"></rect>
            <path d="M18.90625,33.75 C19.9417839,33.75 20.78125,34.5894661 20.78125,35.625 C20.78125,36.6605339 19.9417839,37.5 18.90625,37.5 C17.8707161,37.5 17.03125,36.6605339 17.03125,35.625 C17.03125,34.5894661 17.8707161,33.75 18.90625,33.75 Z M28.90625,33.75 C29.9417839,33.75 30.78125,34.5894661 30.78125,35.625 C30.78125,36.294873 30.4238771,36.9138612 29.84375,37.2487977 C29.263623,37.5837342 28.548877,37.5837342 27.96875,37.2487977 C27.3886229,36.9138612 27.03125,36.294873 27.03125,35.625 C27.03125,34.5894661 27.8707161,33.75 28.90625,33.75 Z M5.799375,2.50976562 C6.92796875,2.50976562 7.92078125,3.27097656 8.21371094,4.36085938 L8.21371094,4.36085938 L9.45640625,8.984375 L35.4069141,8.984375 C36.1890234,8.984375 36.9112109,9.33988281 37.3882031,9.95972656 C37.8651953,10.5795703 38.0238281,11.3686719 37.8235156,12.1246875 L37.8235156,12.1246875 L34.8530859,23.335625 C34.5629688,24.4305859 33.5692578,25.1953125 32.4364844,25.1953125 L32.4364844,25.1953125 L13.8135156,25.1953125 L15.0208984,29.6875 L32.34375,29.6875 C33.0341016,29.6875 33.59375,30.2471484 33.59375,30.9375 C33.59375,31.6278516 33.0341016,32.1875 32.34375,32.1875 L32.34375,32.1875 L15.0208984,32.1875 C13.8923438,32.1875 12.8995313,31.4262891 12.6066016,30.3364062 L12.6066016,30.3364062 L5.79941406,5.00976562 L3.7109375,5.00976562 C3.02058594,5.00976562 2.4609375,4.45011719 2.4609375,3.75976562 C2.4609375,3.06941406 3.02058594,2.50976562 3.7109375,2.50976562 L3.7109375,2.50976562 Z M35.4069141,11.484375 L10.1283594,11.484375 L13.1415625,22.6953125 L32.4364844,22.6953125 L35.4069141,11.484375 Z" id="形状结合" fill="#FFFFFF"></path>
        </g>
    </g>
</svg>