<?xml version="1.0" encoding="UTF-8"?>
<svg width="40px" height="40px" viewBox="0 0 40 40" version="1.1" xmlns="http://www.w3.org/2000/svg" xmlns:xlink="http://www.w3.org/1999/xlink">
    <title>数据模型管理</title>
    <g id="数据模型管理" stroke="none" stroke-width="1" fill="none" fill-rule="evenodd">
        <g id="cluster" fill-rule="nonzero">
            <rect id="矩形" fill="#000000" opacity="0" x="0" y="0" width="40" height="40"></rect>
            <path d="M34.6875,26.5625 L32.578125,26.5625 L32.578125,21.09375 L21.328125,21.09375 L21.328125,17.5 L30.625,17.5 C30.96875,17.5 31.25,17.21875 31.25,16.875 L31.25,6.5625 C31.25,6.21875 30.96875,5.9375 30.625,5.9375 L9.375,5.9375 C9.03125,5.9375 8.75,6.21875 8.75,6.5625 L8.75,16.875 C8.75,17.21875 9.03125,17.5 9.375,17.5 L18.671875,17.5 L18.671875,21.09375 L7.421875,21.09375 L7.421875,26.5625 L5.3125,26.5625 C5.140625,26.5625 5,26.703125 5,26.875 L5,33.75 C5,33.921875 5.140625,34.0625 5.3125,34.0625 L12.1875,34.0625 C12.359375,34.0625 12.5,33.921875 12.5,33.75 L12.5,26.875 C12.5,26.703125 12.359375,26.5625 12.1875,26.5625 L10.078125,26.5625 L10.078125,23.75 L18.671875,23.75 L18.671875,26.5625 L16.5625,26.5625 C16.390625,26.5625 16.25,26.703125 16.25,26.875 L16.25,33.75 C16.25,33.921875 16.390625,34.0625 16.5625,34.0625 L23.4375,34.0625 C23.609375,34.0625 23.75,33.921875 23.75,33.75 L23.75,26.875 C23.75,26.703125 23.609375,26.5625 23.4375,26.5625 L21.328125,26.5625 L21.328125,23.75 L29.921875,23.75 L29.921875,26.5625 L27.8125,26.5625 C27.640625,26.5625 27.5,26.703125 27.5,26.875 L27.5,33.75 C27.5,33.921875 27.640625,34.0625 27.8125,34.0625 L34.6875,34.0625 C34.859375,34.0625 35,33.921875 35,33.75 L35,26.875 C35,26.703125 34.859375,26.5625 34.6875,26.5625 Z M10,31.4570312 C10,31.515625 9.953125,31.5625 9.89453125,31.5625 L7.6015625,31.5625 C7.54296875,31.5625 7.49609375,31.515625 7.49609375,31.4570312 L7.49609375,29.1640625 C7.49609375,29.1054687 7.54296875,29.0585937 7.6015625,29.0585937 L9.89453125,29.0585937 C9.953125,29.0585937 10,29.1054687 10,29.1640625 L10,31.4570312 Z M21.25,31.4570312 C21.25,31.515625 21.203125,31.5625 21.1445312,31.5625 L18.8515625,31.5625 C18.7929688,31.5625 18.7460938,31.515625 18.7460938,31.4570312 L18.7460938,29.1640625 C18.7460938,29.1054687 18.7929688,29.0585937 18.8515625,29.0585937 L21.1445312,29.0585937 C21.203125,29.0585937 21.25,29.1054687 21.25,29.1640625 L21.25,31.4570312 Z M11.25,15 L11.25,8.4375 L28.75,8.4375 L28.75,15 L11.25,15 Z M32.5,31.4570312 C32.5,31.515625 32.453125,31.5625 32.3945312,31.5625 L30.1015625,31.5625 C30.0429687,31.5625 29.9960937,31.515625 29.9960937,31.4570312 L29.9960937,29.1640625 C29.9960937,29.1054687 30.0429687,29.0585937 30.1015625,29.0585937 L32.3945312,29.0585937 C32.453125,29.0585937 32.5,29.1054687 32.5,29.1640625 L32.5,31.4570312 Z M14.0625,11.71875 C14.0625,12.5816949 14.7620551,13.28125 15.625,13.28125 C16.4879449,13.28125 17.1875,12.5816949 17.1875,11.71875 C17.1875,10.8558051 16.4879449,10.15625 15.625,10.15625 C14.7620551,10.15625 14.0625,10.8558051 14.0625,11.71875 Z" id="形状" fill="#FFFFFF"></path>
        </g>
    </g>
</svg>