<?xml version="1.0" encoding="UTF-8"?>
<svg width="40px" height="40px" viewBox="0 0 40 40" version="1.1" xmlns="http://www.w3.org/2000/svg" xmlns:xlink="http://www.w3.org/1999/xlink">
    <title>360任务监控</title>
    <g id="360任务监控" stroke="none" stroke-width="1" fill="none" fill-rule="evenodd">
        <g id="定位监控" fill-rule="nonzero">
            <rect id="矩形" fill="#000000" opacity="0" x="0" y="0" width="40" height="40"></rect>
            <path d="M16.1725,6.16 C16.1725,8.18136218 17.8111378,9.82 19.8325,9.82 C21.8538622,9.82 23.4925,8.18136218 23.4925,6.16 C23.4925,4.13863782 21.8538622,2.5 19.8325,2.5 C17.8111378,2.5 16.1725,4.13863782 16.1725,6.16 L16.1725,6.16 Z M22.29,11.44 L17.5275,11.44 C15.92,11.44 14.475,12.025 13.4475,12.96 L13.4475,19.715 L13.4475,21.5425 L13.4475,22.4 L17.0275,22.4 L17.7975,33.4875 L22.175,33.4875 L22.92,22.4 L26.5525,22.4 L26.5525,22.005 L26.5525,19.54 L26.5525,13.1375 C25.5175,12.1 23.995,11.44 22.29,11.44 Z M25.5575,26.7725 L25.5575,28.7025 C29.615,29.3025 32.4025,30.5475 32.4025,31.985 C32.4025,34.0175 26.85,35.66 20.0025,35.66 C13.155,35.66 7.6,34.0175 7.6,31.985 C7.6,30.5425 10.4075,29.295 14.4925,28.6925 L14.4925,26.765 C7.71,27.5 2.82499756,29.5575 2.82499756,31.985 C2.82,35.03 10.515,37.5 20,37.5 C29.485,37.5 37.1775,35.03 37.1775,31.9875 C37.1775,29.565 32.315,27.515 25.5575,26.7725 Z" id="形状" fill="#FFFFFF"></path>
        </g>
    </g>
</svg>