<?xml version="1.0" encoding="UTF-8"?>
<svg width="40px" height="40px" viewBox="0 0 40 40" version="1.1" xmlns="http://www.w3.org/2000/svg" xmlns:xlink="http://www.w3.org/1999/xlink">
    <title>数据资产盘点</title>
    <g id="数据资产盘点" stroke="none" stroke-width="1" fill="none" fill-rule="evenodd">
        <g id="计算器" fill-rule="nonzero">
            <rect id="矩形" fill="#000000" opacity="0" x="0" y="0" width="40" height="40"></rect>
            <path d="M7.91542969,4.16601562 L32.0783203,4.16601562 C34.1490625,4.16601562 35.8277344,5.8446875 35.8277344,7.91542969 L35.8277344,32.0783203 C35.8277344,34.1490625 34.1490625,35.8277344 32.0783203,35.8277344 L7.91542969,35.8277344 C5.8446875,35.8277344 4.16601562,34.1490625 4.16601562,32.0783203 L4.16601562,7.91542969 C4.16601562,5.8446875 5.8446875,4.16601562 7.91542969,4.16601562 Z M7.91542969,6.665625 C7.22519531,6.665625 6.665625,7.22519531 6.665625,7.91542969 L6.665625,32.0783203 C6.665625,32.7685547 7.22519531,33.328125 7.91542969,33.328125 L32.0783203,33.328125 C32.7685547,33.328125 33.328125,32.7685547 33.328125,32.0783203 L33.328125,7.91542969 C33.328125,7.22519531 32.7685547,6.665625 32.0783203,6.665625 L7.91542969,6.665625 Z M13.7478516,24.4783984 L16.1044922,22.1217578 L17.8719922,23.8892578 L15.5153516,26.2458984 L17.8719922,28.6025391 L16.1044922,30.3700391 L13.7478516,28.0133984 L11.3912109,30.3700391 L9.62371094,28.6025391 L11.9803516,26.2458984 L9.62371094,23.8892578 L11.3912109,22.1217578 L13.7478516,24.4783984 Z M12.4980469,12.4980469 L12.4980469,9.16523437 L14.9976562,9.16523437 L14.9976562,12.4980469 L18.3304687,12.4980469 L18.3304687,14.9976562 L14.9976562,14.9976562 L14.9976562,18.3304687 L12.4980469,18.3304687 L12.4980469,14.9976562 L9.16523437,14.9976562 L9.16523437,12.4980469 L12.4980469,12.4980469 Z M21.6632812,12.4980469 L30.8285156,12.4980469 L30.8285156,14.9976562 L21.6632812,14.9976562 L21.6632812,12.4980469 L21.6632812,12.4980469 Z M21.6632812,22.4964844 L30.8285156,22.4964844 L30.8285156,24.9960938 L21.6632812,24.9960938 L21.6632812,22.4964844 L21.6632812,22.4964844 Z M21.6632812,27.4957031 L30.8285156,27.4957031 L30.8285156,29.9953125 L21.6632812,29.9953125 L21.6632812,27.4957031 L21.6632812,27.4957031 Z" id="形状" fill="#FFFFFF"></path>
        </g>
    </g>
</svg>