<?xml version="1.0" encoding="UTF-8"?>
<svg width="40px" height="40px" viewBox="0 0 40 40" version="1.1" xmlns="http://www.w3.org/2000/svg" xmlns:xlink="http://www.w3.org/1999/xlink">
    <title>数据资产登记审核</title>
    <g id="数据资产登记审核" stroke="none" stroke-width="1" fill="none" fill-rule="evenodd">
        <g fill-rule="nonzero">
            <rect id="矩形" fill="#000000" opacity="0" x="0" y="0" width="40" height="40"></rect>
            <path d="M18.1075,1.7625 C19.2733066,1.08006485 20.7166934,1.08006485 21.8825,1.7625 L21.8825,1.7625 L34.38625,9.08125 C35.5418621,9.75970701 36.2511824,10.9999471 36.2499978,12.34 L36.2499978,12.34 L36.2499978,27.87375 C36.251228,29.2304807 35.5238315,30.4833781 34.345,31.155 L34.345,31.155 L21.845,38.26125 C20.7007554,38.9124873 19.2979946,38.9124873 18.15375,38.26125 L18.15375,38.26125 L5.65375,31.155 C4.4775,30.48625 3.7499978,29.2325 3.7499978,27.87375 L3.7499978,27.87375 L3.7499978,12.34 C3.74855742,11.0002026 4.45736842,9.76002117 5.6125,9.08125 L5.6125,9.08125 Z M20.62375,3.935 C20.2354535,3.70749393 19.7545465,3.70749393 19.36625,3.935 L19.36625,3.935 L6.87125,11.25375 C6.48625,11.48 6.24999948,11.8925 6.24999948,12.34 L6.24999948,12.34 L6.24999948,27.87375 C6.24959068,28.3259936 6.49205617,28.743626 6.885,28.9675 L6.885,28.9675 L19.385,36.07375 C19.7661749,36.2911739 20.2338251,36.2911739 20.615,36.07375 L20.615,36.07375 L33.115,28.9675 C33.5075,28.745 33.7499995,28.32625 33.7499995,27.87375 L33.7499995,27.87375 L33.7499995,12.34 C33.7499995,11.8925 33.51375,11.47875 33.12875,11.255 L33.12875,11.255 Z M27.625,13.71 C29.07375,12.885 30.31,15.05875 28.86125,15.88125 L28.86125,15.88125 L21.25375,20.29875 C21.2575,20.34 21.2775,20.375 21.2775,20.41625 L21.2775,20.41625 L21.2775,30.495 C21.2775,31.1853559 20.7178559,31.745 20.0275,31.745 C19.3371441,31.745 18.7775,31.1853559 18.7775,30.495 L18.7775,30.495 L18.7775,20.46625 L11.015,16.02125 C9.56625,15.1975 10.8025,13.02375 12.25125,13.84875 L12.25125,13.84875 L19.87125,18.2125 Z" id="形状结合" fill="#F1F1F2"></path>
        </g>
    </g>
</svg>