<?xml version="1.0" encoding="UTF-8"?>
<svg width="40px" height="40px" viewBox="0 0 40 40" version="1.1" xmlns="http://www.w3.org/2000/svg" xmlns:xlink="http://www.w3.org/1999/xlink">
    <title>维度标签管理</title>
    <g id="维度标签管理" stroke="none" stroke-width="1" fill="none" fill-rule="evenodd">
        <g id="标签" fill-rule="nonzero">
            <rect id="矩形" fill="#000000" opacity="0" x="0" y="0" width="40" height="40"></rect>
            <path d="M34.9679695,39.6730095 L19.4393505,32.5625286 L3.91588713,39.6627977 C3.37768724,40.0529841 2.66324041,40.109004 2.06974904,39.8075536 C1.47625768,39.5061033 1.1053228,38.8987886 1.11124944,38.2382461 L1.11124944,1.75645118 C1.11124944,0.78639819 1.90528178,-2.87859225e-05 2.88477032,-2.87859225e-05 L36.0042419,-2.87859225e-05 C36.4750289,-0.00134645255 36.92693,0.183268942 37.2598281,0.512960205 C37.5927262,0.842651469 37.7791373,1.29019931 37.7778068,1.75645118 L37.7778068,38.243352 C37.7778068,38.7100739 37.5902046,39.1576059 37.2564891,39.4871488 C36.9227735,39.8166916 36.4703459,40.0011451 35.9990863,40.0000209 C35.6293375,40.0000209 35.2687271,39.8860172 34.9679695,39.6730095 Z M20.4704673,29.9679613 L35.2255654,35.8019623 L35.2255654,2.51288748 L3.64798004,2.51288748 L3.64798004,35.8121741 L18.4030781,29.9781731 C18.7021058,29.7605904 19.063138,29.6425974 19.4341949,29.6411824 C19.8085695,29.6439966 20.1681909,29.7579669 20.4704673,29.9679613 Z" id="形状" fill="#FFFFFF"></path>
            <path d="M30,13.7874655 C29.8001428,13.7873038 29.6022683,13.8270826 29.418,13.9044655 L19.482,8.4459655 C19.456733,7.62250894 18.7687066,6.97544848 17.94525,7.0007155 C17.1217934,7.02598253 16.474733,7.71400894 16.5,8.5374655 C16.5,8.6664655 16.542,8.7819655 16.5735,8.9004655 L11.286,11.7909655 C11.0539081,11.6324772 10.7809564,11.544445 10.5,11.5374655 C9.67157288,11.5374655 9,12.2090384 9,13.0374655 C9,13.7349655 9.486,14.2959655 10.131,14.4624655 C10.134,14.4744655 10.131,14.4879655 10.134,14.4984655 L11.5305,19.7094655 C11.3552797,19.9506769 11.2574618,20.2394228 11.25,20.5374655 C11.25,21.3658926 11.9215729,22.0374655 12.75,22.0374655 C12.813,22.0374655 12.8655,22.0089655 12.9255,22.0029655 L17.964,26.1849655 C18.003,26.2164655 18.051,26.2314655 18.093,26.2554655 C18.2895312,26.8674986 18.8571967,27.2838673 19.5,27.2874655 C19.8978247,27.2874655 20.2793556,27.1294302 20.5606602,26.8481257 C20.8419647,26.5668211 21,26.1852902 21,25.7874655 C21,25.6629655 20.958,25.5519655 20.9295,25.4349655 L29.2635,16.5669655 C29.4848211,16.7051007 29.7391825,16.7812538 30,16.7874655 C30.8284271,16.7874655 31.5,16.1158926 31.5,15.2874655 C31.5,14.4590384 30.8284271,13.7874655 30,13.7874655 Z M19.323,18.5994655 C19.8315,18.2274655 20.1705,17.6499655 20.229,16.9884655 L27.411,16.3464655 L20.034,24.1974655 L19.323,18.5994655 L19.323,18.5994655 Z M13.3515,19.1679655 C13.210896,19.1130236 13.0626472,19.0801357 12.912,19.0704655 L11.646,14.3484655 L15.84,16.1904655 C15.7831362,16.3844789 15.75286,16.5853108 15.75,16.7874655 C15.75,16.9884655 15.7845,17.1804655 15.8355,17.3664655 L13.3515,19.1679655 Z M28.089,14.7819655 L19.854,15.5154655 C19.6148447,15.1673929 19.2827324,14.8934911 18.8955,14.7249655 L18.834,9.7524655 L18.876,9.7224655 L28.089,14.7819655 Z M17.3955,14.6304655 C17.1546929,14.6946864 16.9264767,14.7991587 16.7205,14.9394655 L12.249,12.9744655 L17.34,10.1934655 L17.3955,14.6304655 Z M14.1435,21.0639655 C14.2110362,20.8964963 14.2471389,20.7180171 14.25,20.5374655 C14.25,20.4849655 14.2245,20.4414655 14.22,20.3889655 L16.683,18.6039655 C17.019,18.8484655 17.424,18.9969655 17.865,19.0239655 L18.579,24.6324655 C18.555,24.6519655 18.5265,24.6624655 18.504,24.6834655 L14.1435,21.0639655 L14.1435,21.0639655 Z" id="形状" fill="#FFFFFF"></path>
        </g>
    </g>
</svg>