<?xml version="1.0" encoding="UTF-8"?>
<svg width="40px" height="40px" viewBox="0 0 40 40" version="1.1" xmlns="http://www.w3.org/2000/svg" xmlns:xlink="http://www.w3.org/1999/xlink">
    <title>数据资源登记单管理</title>
    <g id="数据资源登记单管理" stroke="none" stroke-width="1" fill="none" fill-rule="evenodd">
        <g id="数据资产登记单管理" fill-rule="nonzero">
            <rect id="矩形" fill="#000000" opacity="0" x="0" y="0" width="40" height="40"></rect>
            <path d="M34.375,4.375 L5.625,4.375 C4.93359375,4.375 4.375,4.93359375 4.375,5.625 L4.375,34.375 C4.375,35.0664062 4.93359375,35.625 5.625,35.625 L34.375,35.625 C35.0664062,35.625 35.625,35.0664062 35.625,34.375 L35.625,5.625 C35.625,4.93359375 35.0664062,4.375 34.375,4.375 Z M32.8125,32.8125 L7.1875,32.8125 L7.1875,7.1875 L32.8125,7.1875 L32.8125,32.8125 Z M13.28125,26.6796875 L13.28125,29.6875 C13.28125,29.859375 13.421875,30 13.59375,30 L15.46875,30 C15.640625,30 15.78125,29.859375 15.78125,29.6875 L15.78125,26.6796875 C15.3867188,26.8085938 14.96875,26.875 14.53125,26.875 C14.09375,26.875 13.6757812,26.8046875 13.28125,26.6796875 Z M15.78125,18.9453125 L15.78125,10.3125 C15.78125,10.140625 15.640625,10 15.46875,10 L13.59375,10 C13.421875,10 13.28125,10.140625 13.28125,10.3125 L13.28125,18.9453125 C13.6757812,18.8164062 14.09375,18.75 14.53125,18.75 C14.96875,18.75 15.3867188,18.8203125 15.78125,18.9453125 Z M13.28125,26.6796875 C13.6757812,26.8085938 14.09375,26.875 14.53125,26.875 C14.96875,26.875 15.3867188,26.8046875 15.78125,26.6796875 C17.4140625,26.1523438 18.59375,24.6210938 18.59375,22.8125 C18.59375,21.0039062 17.4140625,19.4726562 15.78125,18.9453125 C15.3867188,18.8164062 14.96875,18.75 14.53125,18.75 C14.09375,18.75 13.6757812,18.8203125 13.28125,18.9453125 C11.6484375,19.4726562 10.46875,21.0039062 10.46875,22.8125 C10.46875,24.6210938 11.6484375,26.1523438 13.28125,26.6796875 Z M13.2851562,22.1601562 C13.296875,22.1367188 13.3125,22.1132812 13.3242188,22.0898438 L13.3242188,22.0859375 L13.3710938,22.015625 C13.375,22.0078125 13.3789062,22.0039063 13.3828125,21.9960938 C13.3945313,21.9765625 13.4101562,21.9609375 13.421875,21.9414063 C13.4257813,21.9375 13.4296875,21.9296875 13.4335938,21.9257813 C13.453125,21.9023438 13.46875,21.8828125 13.4882812,21.8632813 L13.5,21.8515625 L13.546875,21.8046875 L13.5625,21.7890625 C13.5820312,21.7695313 13.6015625,21.7539063 13.625,21.734375 C13.6484375,21.7148438 13.6679688,21.6992188 13.6914062,21.6835938 C13.6992188,21.6796875 13.703125,21.6757813 13.7109375,21.671875 C13.7304688,21.6601563 13.7460937,21.6445313 13.765625,21.6328125 C13.7695312,21.6289063 13.7773438,21.625 13.78125,21.6210938 C13.8046875,21.6054688 13.828125,21.59375 13.8554687,21.578125 C13.859375,21.5742188 13.8671875,21.5742188 13.8710937,21.5703125 C13.890625,21.5585938 13.9101562,21.5507813 13.9335937,21.5390625 L13.9570312,21.5273438 C13.984375,21.515625 14.0078125,21.5039063 14.0351562,21.4960938 C14.0625,21.484375 14.0898437,21.4765625 14.1171875,21.46875 C14.125,21.4648438 14.1328125,21.4648438 14.140625,21.4609375 C14.1640625,21.453125 14.1835938,21.4492188 14.2070312,21.4453125 C14.2148437,21.4453125 14.21875,21.4414063 14.2265625,21.4414063 C14.2539062,21.4335938 14.2851562,21.4296875 14.3125,21.4257813 C14.3203125,21.4257813 14.3242188,21.4257813 14.3320312,21.421875 C14.3554688,21.4179688 14.3789062,21.4179688 14.4023438,21.4140625 L14.4257812,21.4140625 C14.4570312,21.4140625 14.484375,21.4101563 14.515625,21.4101563 C14.546875,21.4101563 14.5742188,21.4101563 14.6054688,21.4140625 L14.6289063,21.4140625 C14.6523438,21.4140625 14.6757813,21.4179688 14.6992188,21.421875 C14.7070313,21.421875 14.7109375,21.421875 14.71875,21.4257813 C14.7460938,21.4296875 14.7773438,21.4335938 14.8046875,21.4414063 C14.8125,21.4414063 14.8164063,21.4453125 14.8242188,21.4453125 C14.8476563,21.4492188 14.8710938,21.4570313 14.890625,21.4609375 C14.8984375,21.4648438 14.90625,21.4648438 14.9140625,21.46875 C14.9414063,21.4765625 14.96875,21.484375 14.9960938,21.4960938 C15.0234375,21.5039063 15.046875,21.515625 15.0742188,21.5273438 L15.0976563,21.5390625 C15.1171875,21.546875 15.140625,21.5585938 15.1601563,21.5703125 C15.1640625,21.5742188 15.171875,21.5742188 15.1757813,21.578125 C15.1992188,21.5898438 15.2265625,21.6054688 15.25,21.6210938 C15.2539063,21.625 15.2617188,21.6289063 15.265625,21.6328125 C15.2851563,21.6445313 15.3046875,21.65625 15.3203125,21.671875 C15.328125,21.6757813 15.3320313,21.6796875 15.3398438,21.6835938 C15.3632813,21.6992188 15.3867188,21.71875 15.40625,21.734375 C15.4257812,21.75 15.4492188,21.7695313 15.46875,21.7890625 L15.484375,21.8046875 L15.53125,21.8515625 L15.5429688,21.8632813 C15.5625,21.8828125 15.5820312,21.90625 15.5976562,21.9257813 C15.6015625,21.9296875 15.6054688,21.9375 15.609375,21.9414063 C15.625,21.9570313 15.6367188,21.9765625 15.6484375,21.9960938 C15.6523438,22.0039063 15.65625,22.0078125 15.6601562,22.015625 L15.7070312,22.0859375 C15.7070312,22.0859375 15.7070312,22.0898438 15.7109375,22.0898438 C15.7265625,22.1132813 15.7382812,22.1367188 15.75,22.1601562 C15.8515625,22.3554688 15.9101563,22.578125 15.9101563,22.8125 C15.9101563,23.046875 15.8515625,23.2695313 15.75,23.4648438 C15.7382812,23.4882813 15.7226563,23.5117188 15.7109375,23.5351562 C15.7109375,23.5351562 15.7109375,23.5390625 15.7070312,23.5390625 L15.6601562,23.609375 C15.65625,23.6171875 15.6523438,23.6210938 15.6484375,23.6289062 C15.6367188,23.6484375 15.6210938,23.6640625 15.609375,23.6835938 C15.6054688,23.6875 15.6015625,23.6953125 15.5976562,23.6992188 C15.578125,23.7226562 15.5625,23.7421875 15.5429688,23.7617188 L15.53125,23.7734375 L15.484375,23.8203125 L15.46875,23.8359375 C15.4492188,23.8554688 15.4296875,23.8710938 15.40625,23.890625 C15.3828125,23.9101563 15.3632812,23.9257812 15.3398438,23.9414062 C15.3320313,23.9453125 15.328125,23.9492188 15.3203125,23.953125 C15.3007812,23.9648437 15.2851563,23.9804687 15.265625,23.9921875 C15.2617188,23.9960937 15.2539063,24 15.25,24.0039062 C15.2265625,24.0195312 15.203125,24.03125 15.1757813,24.046875 C15.171875,24.0507812 15.1640625,24.0507812 15.1601563,24.0546875 C15.140625,24.0664062 15.1210938,24.0742187 15.0976563,24.0859375 L15.0742188,24.0976562 C15.046875,24.109375 15.0234375,24.1210937 14.9960938,24.1289062 C14.96875,24.140625 14.9414063,24.1484375 14.9140625,24.15625 C14.90625,24.1601562 14.8984375,24.1601562 14.890625,24.1640625 C14.8671875,24.171875 14.8476562,24.1757812 14.8242188,24.1796875 C14.8164063,24.1796875 14.8125,24.1835937 14.8046875,24.1835937 C14.7773438,24.1914062 14.7460938,24.1953125 14.71875,24.1992187 C14.7109375,24.1992187 14.7070313,24.1992187 14.6992188,24.203125 C14.6757813,24.2070312 14.6523438,24.2070312 14.6289063,24.2109375 L14.6054688,24.2109375 C14.5742188,24.2109375 14.546875,24.2148437 14.515625,24.2148437 C14.484375,24.2148437 14.4570312,24.2148437 14.4257812,24.2109375 L14.4023438,24.2109375 C14.3789062,24.2109375 14.3554688,24.2070312 14.3320312,24.203125 C14.3242188,24.203125 14.3203125,24.203125 14.3125,24.1992187 C14.2851562,24.1953125 14.2539062,24.1914062 14.2265625,24.1835937 C14.21875,24.1835937 14.2148437,24.1796875 14.2070312,24.1796875 C14.1835937,24.1757812 14.1601562,24.1679687 14.140625,24.1640625 C14.1328125,24.1601562 14.125,24.1601562 14.1171875,24.15625 C14.0898438,24.1484375 14.0625,24.140625 14.0351562,24.1289062 C14.0078125,24.1210937 13.984375,24.109375 13.9570312,24.0976562 L13.9335937,24.0859375 C13.9140625,24.078125 13.890625,24.0664062 13.8710937,24.0546875 C13.8671875,24.0507812 13.859375,24.0507812 13.8554687,24.046875 C13.8320312,24.0351562 13.8046875,24.0195312 13.78125,24.0039062 C13.7773437,24 13.7695312,23.9960937 13.765625,23.9921875 C13.7460937,23.9804687 13.7265625,23.96875 13.7109375,23.953125 C13.703125,23.9492187 13.6992188,23.9453125 13.6914062,23.9414062 C13.6679687,23.9257812 13.6445312,23.90625 13.625,23.890625 C13.6054688,23.875 13.5820312,23.8554688 13.5625,23.8359375 L13.546875,23.8203125 L13.5,23.7734375 L13.4882812,23.7617188 C13.46875,23.7421875 13.4492188,23.71875 13.4335938,23.6992188 C13.4296875,23.6953125 13.4257813,23.6875 13.421875,23.6835938 C13.40625,23.6679688 13.3945313,23.6484375 13.3828125,23.6289062 C13.3789062,23.6210938 13.375,23.6171875 13.3710938,23.609375 L13.3242188,23.5390625 L13.3242188,23.5351562 C13.3085938,23.5117188 13.296875,23.4882812 13.2851562,23.4648438 C13.1835938,23.2695313 13.125,23.046875 13.125,22.8125 C13.125,22.578125 13.1835938,22.3554688 13.2851562,22.1601562 Z M24.21875,21.0546875 L24.21875,29.6875 C24.21875,29.859375 24.359375,30 24.53125,30 L26.40625,30 C26.578125,30 26.71875,29.859375 26.71875,29.6875 L26.71875,21.0546875 C26.3242188,21.1835938 25.90625,21.25 25.46875,21.25 C25.03125,21.25 24.6132812,21.1796875 24.21875,21.0546875 Z M26.71875,13.3203125 L26.71875,10.3125 C26.71875,10.140625 26.578125,10 26.40625,10 L24.53125,10 C24.359375,10 24.21875,10.140625 24.21875,10.3125 L24.21875,13.3203125 C24.6132812,13.1914062 25.03125,13.125 25.46875,13.125 C25.90625,13.125 26.3242188,13.1953125 26.71875,13.3203125 Z M24.21875,21.0546875 C24.6132812,21.1835938 25.03125,21.25 25.46875,21.25 C25.90625,21.25 26.3242188,21.1796875 26.71875,21.0546875 C28.3515625,20.5273438 29.53125,18.9960938 29.53125,17.1875 C29.53125,15.3789062 28.3515625,13.8476562 26.71875,13.3203125 C26.3242188,13.1914062 25.90625,13.125 25.46875,13.125 C25.03125,13.125 24.6132812,13.1953125 24.21875,13.3203125 C22.5859375,13.8476562 21.40625,15.3789062 21.40625,17.1875 C21.40625,18.9960938 22.5859375,20.5273438 24.21875,21.0546875 Z M24.2226562,16.5351562 C24.234375,16.5117188 24.25,16.4882812 24.2617188,16.4648438 L24.2617188,16.4609375 L24.3085938,16.390625 C24.3125,16.3828125 24.3164063,16.3789062 24.3203125,16.3710937 C24.3320312,16.3515625 24.3476563,16.3359375 24.359375,16.3164062 C24.3632812,16.3125 24.3671875,16.3046875 24.3710938,16.3007812 C24.390625,16.2773438 24.40625,16.2578125 24.4257812,16.2382812 L24.4375,16.2265625 L24.484375,16.1796875 L24.5,16.1640625 C24.5195312,16.1445312 24.5390625,16.1289062 24.5625,16.109375 C24.5859375,16.0898438 24.6054688,16.0742188 24.6289062,16.0585938 C24.6367188,16.0546875 24.640625,16.0507812 24.6484375,16.046875 C24.6679688,16.0351562 24.6835938,16.0195312 24.703125,16.0078125 C24.7070312,16.0039062 24.7148437,16 24.71875,15.9960937 C24.7421875,15.9804687 24.765625,15.96875 24.7929687,15.953125 C24.796875,15.9492187 24.8046875,15.9492187 24.8085937,15.9453125 C24.828125,15.9335937 24.8476562,15.9257812 24.8710937,15.9140625 L24.8945312,15.9023437 C24.921875,15.890625 24.9453125,15.8789062 24.9726562,15.8710937 C25,15.859375 25.0273437,15.8515625 25.0546875,15.84375 C25.0625,15.8398437 25.0703125,15.8398437 25.078125,15.8359375 C25.1015625,15.828125 25.1210938,15.8242187 25.1445312,15.8203125 C25.1523438,15.8203125 25.15625,15.8164062 25.1640625,15.8164062 C25.1914063,15.8085937 25.2226562,15.8046875 25.25,15.8007812 C25.2578125,15.8007812 25.2617188,15.8007812 25.2695313,15.796875 C25.2929688,15.7929687 25.3164063,15.7929687 25.3398438,15.7890625 L25.3632812,15.7890625 C25.3945312,15.7890625 25.421875,15.7851562 25.453125,15.7851562 C25.484375,15.7851562 25.5117188,15.7851562 25.5429688,15.7890625 L25.5664062,15.7890625 C25.5898438,15.7890625 25.6132812,15.7929687 25.6367187,15.796875 C25.6445312,15.796875 25.6484375,15.796875 25.65625,15.8007812 C25.6835938,15.8046875 25.7148437,15.8085937 25.7421875,15.8164062 C25.75,15.8164062 25.7539062,15.8203125 25.7617188,15.8203125 C25.7851562,15.8242187 25.8085938,15.8320312 25.828125,15.8359375 C25.8359375,15.8398437 25.84375,15.8398437 25.8515625,15.84375 C25.8789063,15.8515625 25.90625,15.859375 25.9335938,15.8710937 C25.9609375,15.8789062 25.984375,15.890625 26.0117188,15.9023437 L26.0351563,15.9140625 C26.0546875,15.921875 26.078125,15.9335937 26.0976563,15.9453125 C26.1015625,15.9492187 26.109375,15.9492187 26.1132813,15.953125 C26.1367188,15.9648437 26.1640625,15.9804687 26.1875,15.9960937 C26.1914063,16 26.1992188,16.0039062 26.203125,16.0078125 C26.2226562,16.0195312 26.2421875,16.03125 26.2578125,16.046875 C26.265625,16.0507812 26.2695312,16.0546875 26.2773438,16.0585938 C26.3007812,16.0742188 26.3242188,16.09375 26.34375,16.109375 C26.3632812,16.125 26.3867188,16.1445312 26.40625,16.1640625 L26.421875,16.1796875 L26.46875,16.2265625 L26.4804688,16.2382812 C26.5,16.2578125 26.5195313,16.28125 26.5351562,16.3007812 C26.5390625,16.3046875 26.5429688,16.3125 26.546875,16.3164062 C26.5625,16.3320312 26.5742188,16.3515625 26.5859375,16.3710937 C26.5898438,16.3789062 26.59375,16.3828125 26.5976562,16.390625 L26.6445312,16.4609375 L26.6445312,16.4648438 C26.6601562,16.4882812 26.671875,16.5117188 26.6835938,16.5351562 C26.7851562,16.7304688 26.84375,16.953125 26.84375,17.1875 C26.84375,17.421875 26.7851562,17.6445312 26.6835938,17.8398438 C26.671875,17.8632812 26.65625,17.8867188 26.6445312,17.9101562 L26.6445312,17.9140625 L26.5976562,17.984375 C26.59375,17.9921875 26.5898437,17.9960938 26.5859375,18.0039062 C26.5742188,18.0234375 26.5585937,18.0390625 26.546875,18.0585938 C26.5429688,18.0625 26.5390625,18.0703125 26.5351562,18.0742188 C26.515625,18.0976562 26.5,18.1171875 26.4804688,18.1367188 L26.46875,18.1484375 L26.421875,18.1953125 L26.40625,18.2109375 C26.3867188,18.2304688 26.3671875,18.2460937 26.34375,18.265625 C26.3203125,18.2851562 26.3007812,18.3007812 26.2773438,18.3164062 C26.2695312,18.3203125 26.265625,18.3242187 26.2578125,18.328125 C26.2382812,18.3398438 26.2226562,18.3554688 26.203125,18.3671875 C26.1992188,18.3710938 26.1914063,18.375 26.1875,18.3789062 C26.1640625,18.3945312 26.140625,18.40625 26.1132813,18.421875 C26.109375,18.4257812 26.1015625,18.4257812 26.0976563,18.4296875 C26.078125,18.4414062 26.0585938,18.4492188 26.0351563,18.4609375 L26.0117188,18.4726562 C25.984375,18.484375 25.9609375,18.4960938 25.9335938,18.5039062 C25.90625,18.515625 25.8789063,18.5234375 25.8515625,18.53125 C25.84375,18.5351562 25.8359375,18.5351562 25.828125,18.5390625 C25.8046875,18.546875 25.7851562,18.5507812 25.7617188,18.5546875 C25.7539062,18.5546875 25.75,18.5585938 25.7421875,18.5585938 C25.7148437,18.5664062 25.6835938,18.5703125 25.65625,18.5742188 C25.6484375,18.5742188 25.6445312,18.5742188 25.6367187,18.578125 C25.6132812,18.5820312 25.5898437,18.5820312 25.5664062,18.5859375 L25.5429688,18.5859375 C25.5117188,18.5859375 25.484375,18.5898438 25.453125,18.5898438 C25.421875,18.5898438 25.3945312,18.5898438 25.3632812,18.5859375 L25.3398438,18.5859375 C25.3164062,18.5859375 25.2929688,18.5820312 25.2695313,18.578125 C25.2617188,18.578125 25.2578125,18.578125 25.25,18.5742188 C25.2226562,18.5703125 25.1914063,18.5664062 25.1640625,18.5585938 C25.15625,18.5585938 25.1523438,18.5546875 25.1445312,18.5546875 C25.1210938,18.5507812 25.0976562,18.5429688 25.078125,18.5390625 C25.0703125,18.5351562 25.0625,18.5351562 25.0546875,18.53125 C25.0273437,18.5234375 25,18.515625 24.9726562,18.5039062 C24.9453125,18.4960938 24.921875,18.484375 24.8945312,18.4726562 L24.8710937,18.4609375 C24.8515625,18.453125 24.828125,18.4414062 24.8085937,18.4296875 C24.8046875,18.4257812 24.796875,18.4257812 24.7929687,18.421875 C24.7695312,18.4101562 24.7421875,18.3945312 24.71875,18.3789062 C24.7148437,18.375 24.7070312,18.3710938 24.703125,18.3671875 C24.6835938,18.3554688 24.6640625,18.34375 24.6484375,18.328125 C24.640625,18.3242187 24.6367188,18.3203125 24.6289062,18.3164062 C24.6054688,18.3007812 24.5820312,18.28125 24.5625,18.265625 C24.5429687,18.25 24.5195312,18.2304688 24.5,18.2109375 L24.484375,18.1953125 L24.4375,18.1484375 L24.4257812,18.1367188 C24.40625,18.1171875 24.3867187,18.09375 24.3710938,18.0742188 C24.3671875,18.0703125 24.3632812,18.0625 24.359375,18.0585938 C24.34375,18.0429688 24.3320312,18.0234375 24.3203125,18.0039062 C24.3164062,17.9960938 24.3125,17.9921875 24.3085938,17.984375 L24.2617188,17.9140625 L24.2617188,17.9101562 C24.2460938,17.8867188 24.234375,17.8632812 24.2226562,17.8398438 C24.1210938,17.6445312 24.0625,17.421875 24.0625,17.1875 C24.0625,16.953125 24.1210938,16.7304688 24.2226562,16.5351562 Z" id="形状" fill="#F1F1F2"></path>
        </g>
    </g>
</svg>