<?xml version="1.0" encoding="UTF-8"?>
<svg width="40px" height="40px" viewBox="0 0 40 40" version="1.1" xmlns="http://www.w3.org/2000/svg" xmlns:xlink="http://www.w3.org/1999/xlink">
    <title>任务监控</title>
    <g id="任务监控" stroke="none" stroke-width="1" fill="none" fill-rule="evenodd">
        <g id="课堂监控" fill-rule="nonzero">
            <rect id="矩形" fill="#000000" opacity="0" x="0" y="0" width="40" height="40"></rect>
            <path d="M37.34375,28.6601562 L37.34375,7.34765625 C37.34375,7.09375 37.1367188,6.8828125 36.8789062,6.8828125 L3.22265625,6.8828125 C2.96875,6.8828125 2.7578125,7.08984375 2.7578125,7.34765625 L2.7578125,28.65625 C2.7578125,28.9101563 2.96484375,29.1210938 3.22265625,29.1210938 L16.09375,29.1210938 C16.2226562,29.1210938 16.3242187,29.2265625 16.3242187,29.3515625 L16.3242187,32.5898438 C16.3242187,32.71875 16.21875,32.8203125 16.09375,32.8203125 L10.4726562,32.8203125 C10.34375,32.8203125 10.2421875,32.9257813 10.2421875,33.0507812 L10.2421875,35.0585938 C10.2421875,35.1875 10.3476562,35.2890625 10.4726562,35.2890625 L29.6289062,35.2890625 C29.7578125,35.2890625 29.859375,35.1835937 29.859375,35.0585938 L29.859375,33.0507812 C29.859375,32.921875 29.7539062,32.8203125 29.6289062,32.8203125 L24.0039062,32.8203125 C23.875,32.8203125 23.7734375,32.7148438 23.7734375,32.5898438 L23.7734375,29.3515625 C23.7734375,29.2226563 23.8789063,29.1210938 24.0039062,29.1210938 L36.8828125,29.1210938 C37.1367188,29.1210938 37.34375,28.9140625 37.34375,28.6601562 Z M5.4609375,9.3515625 L34.6367187,9.3515625 C34.765625,9.3515625 34.8671875,9.45703125 34.8671875,9.58203125 L34.8671875,26.4140625 C34.8671875,26.5429688 34.7617188,26.6445313 34.6367187,26.6445313 L5.4609375,26.6445313 C5.33203125,26.6445313 5.23046875,26.5390625 5.23046875,26.4140625 L5.23046875,9.5859375 C5.23046875,9.45703125 5.3359375,9.3515625 5.4609375,9.3515625 Z M21.0703125,32.8203125 L19.0234375,32.8203125 C18.8945312,32.8203125 18.7929688,32.7148438 18.7929688,32.5898438 L18.7929688,29.3515625 C18.7929688,29.2226563 18.8984375,29.1210938 19.0234375,29.1210938 L21.0703125,29.1210938 C21.1992187,29.1210938 21.3007812,29.2265625 21.3007812,29.3515625 L21.3007812,32.5898438 C21.3046875,32.71875 21.1992187,32.8203125 21.0703125,32.8203125 L21.0703125,32.8203125 Z M22.5703125,23.71875 C22.5195312,23.71875 22.4726562,23.7148438 22.421875,23.7070312 C22.0273438,23.6484375 21.6992188,23.3671875 21.5820312,22.984375 L19.453125,15.9609375 L15.7539062,21.1015625 C15.5742187,21.3515625 15.2890625,21.5117188 14.9765625,21.5273438 C14.6679688,21.546875 14.3671875,21.4257812 14.15625,21.1953125 L11.7851562,18.6171875 L10.3203125,20.2734375 C9.94140625,20.6992188 9.2890625,20.7382812 8.86328125,20.359375 C8.4375,19.9804688 8.3984375,19.328125 8.77734375,18.9023438 L11.0039062,16.3984375 C11.1992187,16.1796875 11.4765625,16.0546875 11.765625,16.0507813 C12.0507812,16.0507813 12.3359375,16.1679688 12.5351562,16.3828125 L14.8203125,18.8671875 L19,13.0625 C19.2304688,12.7421875 19.6210938,12.5820313 20.0078125,12.6484375 C20.3945312,12.7148438 20.7109375,12.9921875 20.828125,13.3671875 L22.921875,20.28125 L26.3554688,15.0742188 C26.5546875,14.7695313 26.8984375,14.59375 27.265625,14.6132813 C27.6289062,14.6289062 27.9570312,14.8359375 28.1289062,15.15625 L30.7617187,20.0664062 C31.03125,20.5703125 30.8398438,21.1953125 30.3398438,21.4648438 C29.8359375,21.734375 29.2109375,21.5429688 28.9414062,21.0429688 L27.125,17.65625 L23.4335938,23.2539062 C23.2382812,23.546875 22.9140625,23.71875 22.5703125,23.71875 L22.5703125,23.71875 Z" id="形状" fill="#FFFFFF"></path>
        </g>
    </g>
</svg>