<?xml version="1.0" encoding="UTF-8"?>
<svg width="40px" height="40px" viewBox="0 0 40 40" version="1.1" xmlns="http://www.w3.org/2000/svg" xmlns:xlink="http://www.w3.org/1999/xlink">
    <title>我的申请实施</title>
    <g id="我的申请实施" stroke="none" stroke-width="1" fill="none" fill-rule="evenodd">
        <g id="37类建筑修理x16" fill-rule="nonzero">
            <rect id="矩形" fill="#000000" opacity="0" x="0" y="0" width="40" height="40"></rect>
            <path d="M28.325,22.1575 C33.4716437,21.7853668 37.4577122,17.5025794 37.4600199,12.3425 C37.4600199,11.4425 37.3325,10.535 37.0775,9.6425 C36.9730151,9.26904151 36.6779758,8.97921992 36.3027126,8.88141469 C35.9274494,8.78360947 35.52848,8.89255087 35.255,9.1675 L33.37,11.0575 C32.1825,12.2475 30.11,12.25 28.92,11.0575 C27.6918746,9.82446986 27.6918746,7.83053014 28.92,6.5975 L30.805,4.71 C31.0813259,4.4373217 31.1917679,4.03825385 31.0949489,3.66230768 C30.9981299,3.2863615 30.708664,2.99028364 30.335,2.885 C29.4570605,2.63305916 28.5483721,2.5043283 27.635,2.5025 C22.2065445,2.51352769 17.8113673,6.91653348 17.81,12.345 C17.81,12.86 17.8575,13.3875 17.945,13.92 L16.6525,15.105 L10.4125,8.855 C11.0100114,7.60236046 10.7558418,6.10936425 9.7775,5.125 L7.4775,2.8225 C7.27304454,2.61777709 6.99558286,2.5025 6.70625,2.5025 C6.41691714,2.5025 6.13945546,2.61777709 5.935,2.8225 L2.8475,5.915 C2.64185943,6.11998314 2.52627634,6.39839482 2.52627634,6.68875 C2.52627634,6.97910518 2.64185943,7.25751686 2.8475,7.4625 L5.1475,9.7625 C6.12472316,10.7501207 7.62167706,11.0073155 8.8725,10.4025 L15.04,16.5825 L4.445,26.2925 C3.21256583,27.5215213 2.52223564,29.1919944 2.5275,30.9325 C2.5275,32.6825 3.2075,34.3325 4.445,35.57 C5.66978298,36.8047794 7.33831885,37.4972262 9.0775,37.492524 C10.8275,37.492524 12.4725,36.81 13.74,35.535 L21.19,27.38 L30.0075,36.21 C30.8325,37.0375 31.9275,37.492524 33.095,37.492524 C34.253605,37.4954716 35.3649593,37.033458 36.18,36.21 C37.005,35.385 37.4600199,34.2875 37.4600199,33.12 C37.4635078,31.9600717 37.0036117,30.8467811 36.1825,30.0275 L28.325,22.1575 Z M8.2325,8.2175 C7.8012777,8.63052411 7.1212223,8.63052411 6.69,8.2175 L5.1625,6.6875 L6.705,5.1425 L8.2325,6.67 C8.6575,7.0975 8.6575,7.7925 8.2325,8.2175 Z M12.165,34.0225 C10.515,35.675 7.64,35.6775 5.99,34.0225 C5.165,33.1975 4.71,32.1 4.71,30.9325 C4.71,29.765 5.165,28.665 5.955,27.8725 L19.87,15.12 L19.895,15.0875 C19.9715104,15.0125633 20.0363935,14.9266142 20.0875,14.8325 L20.1375,14.735 L20.1725,14.635 C20.2035767,14.5345122 20.2204072,14.4301626 20.2225,14.325 L20.2175,14.2225 C20.2145765,14.1847523 20.2095689,14.147195 20.2025,14.11 L20.1975,14.0675 C20.0653692,13.5019405 19.99744,12.9232841 19.995,12.3425 C19.995,8.09 23.5,4.6675 27.74,4.68988969 L27.3775,5.0525 C25.3002371,7.14052219 25.3002371,10.5144778 27.3775,12.6025 C28.385,13.61 29.7225,14.1675 31.1475,14.1675 C32.5725,14.1675 33.91,13.61 34.915,12.6025 L35.2775004,12.24 L35.2775004,12.3425 C35.2788872,16.5653647 31.8603568,19.9917255 27.6375,20 C27.0725,20 26.495,19.9325 25.9175,19.8 L25.875,19.7925 C25.7669026,19.7732379 25.6565712,19.769869 25.5475,19.7825 C25.4770441,19.790774 25.4075538,19.8058442 25.34,19.8275 L25.255,19.855 C25.2181413,19.871256 25.1822486,19.8896197 25.1475,19.91 L25.0675,19.955 C25.0063261,19.9968481 24.9493888,20.0445749 24.8975,20.0975 L24.865,20.1225 L12.165,34.025 L12.165,34.0225 Z M34.6375,34.665 C33.7742139,35.4913624 32.4132861,35.4913624 31.55,34.665 L23.07,26.17 L26.1575,23.0775 L34.6375,31.5725 C35.0488226,31.98224 35.2792568,32.5394226 35.27751,33.12 C35.27751,33.7025 35.0525,34.2525 34.6375,34.665 L34.6375,34.665 Z M9.0775,28.745 C7.86937711,28.745 6.89,29.7243771 6.89,30.9325 C6.89,32.1406229 7.86937711,33.12 9.0775,33.12 C10.2856229,33.12 11.265,32.1406229 11.265,30.9325 C11.265,29.7243771 10.2856229,28.745 9.0775,28.745 L9.0775,28.745 Z" id="形状" fill="#FFFFFF"></path>
        </g>
    </g>
</svg>