<?xml version="1.0" standalone="no"?><!DOCTYPE svg PUBLIC "-//W3C//DTD SVG 1.1//EN" "http://www.w3.org/Graphics/SVG/1.1/DTD/svg11.dtd"><svg t="1590559915879" class="icon" viewBox="0 0 1024 1024" version="1.1" xmlns="http://www.w3.org/2000/svg" p-id="2010" xmlns:xlink="http://www.w3.org/1999/xlink" width="200" height="200"><defs><style type="text/css"></style></defs><path d="M201.72507734 124.07748417A62.05498418 62.05498418 0 0 0 139.58009317 185.97496924v714.08232159A62.00998418 62.00998418 0 0 0 201.72507734 961.999775h620.54984532a62.05498418 62.05498418 0 0 0 62.14498417-61.91998417V185.97496924a62.00998418 62.00998418 0 0 0-62.14498417-61.91998506h-93.03747715l31.04999209 31.02749297V108.50748857A46.57498857 46.57498857 0 0 0 713.7574499 62H310.2200501a46.43998857 46.43998857 0 0 0-46.4849877 46.50748857v46.57498858L294.7625545 124.09998417H201.72507734z m124.06496924 62.05498507V108.50748857a15.63749648 15.63749648 0 0 1-15.56999648 15.56999561h403.5598998a15.50249648 15.50249648 0 0 1-15.56999648-15.56999561V186.13246924h124.06496924c0.1125 0 0.0675 713.92482158 0.0675 713.92482158 0-0.1125-620.61734443-0.135-620.61734532-0.135-0.1125 0-0.0675-713.92482158-0.0675-713.92482158 0 0.135 93.10497715 0.135 93.10497716 0.135h31.04999208z m372.41990684 15.5699956c0-8.52749825 6.99749825-15.56999648 15.56999648-15.5699956H310.2200501c8.66249824 0 15.56999648 6.92999824 15.56999648 15.5699956V155.10497715a31.04999209 31.04999209 0 0 0-62.05498418-1e-8v46.5749877a46.57498857 46.57498857 0 0 0 46.4849877 46.52998858h403.5598998a46.43998857 46.43998857 0 0 0 46.4849877-46.50748858V155.10497715a31.04999209 31.04999209 0 0 0-62.05498418-1e-8v46.5749877z m0 248.21993848a31.04999209 31.04999209 0 0 0 0-62.05498506H325.79004658a31.04999209 31.04999209 0 0 0 0 62.05498506h372.41990684zM325.79004658 543.04987959a31.04999209 31.04999209 0 0 0 0 62.07748506h372.41990684a31.04999209 31.04999209 0 0 0 0-62.07748506H325.79004658z m0 155.18246133a31.04999209 31.04999209 0 0 0 0 62.05498418H574.09998418a31.04999209 31.04999209 0 0 0 0-62.05498418H325.79004658z" fill="#1296db" p-id="2011"></path></svg>