<?xml version="1.0" encoding="UTF-8"?>
<svg width="40px" height="40px" viewBox="0 0 40 40" version="1.1" xmlns="http://www.w3.org/2000/svg" xmlns:xlink="http://www.w3.org/1999/xlink">
    <title>标签取数</title>
    <g id="标签取数" stroke="none" stroke-width="1" fill="none" fill-rule="evenodd">
        <g id="标签库" fill-rule="nonzero">
            <rect id="矩形" fill="#000000" opacity="0" x="0" y="0" width="40" height="40"></rect>
            <path d="M37,8 L20.4,8 C20.1,8 19.9,7.9 19.7,7.7 L16.3,4.3 C16.1,4.1 15.9,4 15.6,4 L3,4 C2.4,4 2,4.4 2,5 L2,35 C2,35.6 2.4,36 3,36 L37,36 C37.6,36 38,35.6 38,35 L38,9 C38,8.4 37.6,8 37,8 Z M36,34 L4,34 L4,6 L15.2,6 L18.3,9.1 C18.9,9.7 19.6,10 20.4,10 L36,10 L36,34 L36,34 Z M18.1,14.4 L26.6,22.9 L20.9,28.6 L12.4,20.1 L12.9,14.9 L18.1,14.4 M18.4,12.4 L11.9,13 C11.4,13 11,13.4 11,13.9 L10.4,20.4 C10.4,20.7 10.5,21 10.7,21.2 L20.3,30.8 C20.5,31 20.8,31.1 21,31.1 C21.2,31.1 21.5,31 21.7,30.8 L28.8,23.7 C29.2,23.3 29.2,22.7 28.8,22.3 L19.2,12.7 C19,12.5 18.7,12.4 18.4,12.4 L18.4,12.4 Z M15,18 C15,18.5522847 15.4477153,19 16,19 C16.5522847,19 17,18.5522847 17,18 C17,17.6427344 16.8094011,17.3126074 16.5,17.1339746 C16.1905989,16.9553418 15.8094011,16.9553418 15.5,17.1339746 C15.1905989,17.3126074 15,17.6427344 15,18 Z" id="形状" fill="#FFFFFF"></path>
        </g>
    </g>
</svg>