<?xml version="1.0" encoding="UTF-8"?>
<svg width="40px" height="40px" viewBox="0 0 40 40" version="1.1" xmlns="http://www.w3.org/2000/svg" xmlns:xlink="http://www.w3.org/1999/xlink">
    <title>数据资产价值评估</title>
    <g id="数据资产价值评估" stroke="none" stroke-width="1" fill="none" fill-rule="evenodd">
        <g id="机构资产" fill-rule="nonzero">
            <rect id="矩形" fill="#000000" opacity="0" x="0" y="0" width="40" height="40"></rect>
            <path d="M36.9804688,7.61328125 C36.640625,4.79296875 29.1679688,2.5390625 20,2.5390625 C10.8320312,2.5390625 3.359375,4.79296875 3.01953125,7.61328125 L3.0078125,7.61328125 L3.0078125,32.359375 L3.015625,32.359375 C3.30859375,35.1914062 10.8007812,37.4609375 20,37.4609375 C29.1992188,37.4609375 36.6914062,35.1914062 36.984375,32.359375 L36.9921875,32.359375 L36.9921875,7.61328125 L36.9804688,7.61328125 Z M9.1796875,5.765625 C12.1328125,4.94140625 15.9765625,4.4921875 20,4.4921875 C24.0234375,4.4921875 27.8632812,4.9453125 30.8203125,5.765625 C32.15625,6.13671875 33.2773437,6.578125 34.0625,7.04296875 C34.6835937,7.41015625 34.921875,7.6875 35.0078125,7.80859375 C34.921875,7.9296875 34.6796875,8.20703125 34.0625,8.57421875 C33.2773437,9.0390625 32.15625,9.48046875 30.8203125,9.8515625 C27.8632812,10.6796875 24.0234375,11.1328125 20,11.1328125 C16.40625,11.1328125 12.6875,10.5898438 9.53515625,9.609375 C8.2265625,9.19921875 7.05859375,8.7265625 6.16015625,8.2421875 C5.68359375,7.984375 5.3671875,7.76953125 5.16796875,7.61328125 C5.1796875,7.6015625 5.1953125,7.5859375 5.2109375,7.57421875 L5.21875,7.56640625 C5.234375,7.5546875 5.25,7.5390625 5.265625,7.5234375 L5.2734375,7.515625 C5.2890625,7.50390625 5.3046875,7.48828125 5.3203125,7.4765625 C5.32421875,7.47265625 5.328125,7.47265625 5.328125,7.46875 C5.34765625,7.453125 5.36328125,7.4375 5.38671875,7.421875 L5.3984375,7.41015625 C5.41796875,7.39453125 5.44140625,7.37890625 5.4609375,7.359375 C5.484375,7.34375 5.5078125,7.32421875 5.53125,7.30859375 C5.53515625,7.3046875 5.54296875,7.30078125 5.546875,7.296875 C5.5703125,7.28125 5.59765625,7.26171875 5.62109375,7.2421875 C5.625,7.23828125 5.62890625,7.234375 5.6328125,7.234375 C5.65625,7.21875 5.68359375,7.19921875 5.70703125,7.18359375 C5.7109375,7.1796875 5.71484375,7.17578125 5.72265625,7.17578125 C5.75,7.15625 5.78125,7.13671875 5.8125,7.1171875 C5.8203125,7.11328125 5.828125,7.109375 5.83203125,7.10546875 C5.86328125,7.0859375 5.8984375,7.06640625 5.93359375,7.046875 C6.7265625,6.58203125 7.84765625,6.13671875 9.1796875,5.765625 Z M34.0625,32.953125 C33.2773438,33.4179688 32.15625,33.859375 30.8203125,34.2304688 C27.8632812,35.0546875 24.0234375,35.5078125 20,35.5078125 C15.9765625,35.5078125 12.1367188,35.0546875 9.18359375,34.234375 C7.84765625,33.8632812 6.7265625,33.421875 5.94140625,32.9570312 C5.2109375,32.5234375 5.00390625,32.2148438 4.96484375,32.140625 L4.96484375,9.80859375 C4.99609375,9.828125 5.02734375,9.84375 5.0625,9.86328125 C5.1484375,9.91015625 5.23828125,9.9609375 5.33203125,10.0078125 C5.36328125,10.0234375 5.390625,10.0390625 5.421875,10.0546875 C5.5078125,10.1015625 5.59765625,10.1445312 5.6875,10.1914062 C5.72265625,10.2109375 5.76171875,10.2265625 5.80078125,10.2460937 C5.9765625,10.3320312 6.16015625,10.4179687 6.3515625,10.5 C6.484375,10.5585937 6.625,10.6171875 6.765625,10.6757812 C6.98046875,10.765625 7.19921875,10.8515625 7.4296875,10.9414062 C7.51953125,10.9765625 7.61328125,11.0117188 7.70703125,11.046875 C7.80078125,11.0820312 7.89453125,11.1171875 7.9921875,11.1484375 C8.13671875,11.1992188 8.28125,11.25 8.43359375,11.3007812 C8.484375,11.3164062 8.53515625,11.3320312 8.58203125,11.3515625 C8.671875,11.3789062 8.76171875,11.4101562 8.8515625,11.4375 C8.9140625,11.4570312 8.98046875,11.4765625 9.04296875,11.4960937 C9.09375,11.5117187 9.1484375,11.5273438 9.19921875,11.5429687 L9.515625,11.6367187 C9.5703125,11.6523437 9.62109375,11.6679687 9.67578125,11.6835937 C9.78515625,11.7148437 9.89453125,11.7460937 10.0039063,11.7734375 C10.0703125,11.7929687 10.1367188,11.8085938 10.203125,11.828125 C10.359375,11.8710937 10.515625,11.9101562 10.6757813,11.9492187 C10.7890625,11.9765625 10.90625,12.0078125 11.0195313,12.0351562 C11.1210938,12.0585937 11.2265625,12.0859375 11.328125,12.109375 C11.3554688,12.1171875 11.3828125,12.1210937 11.4101563,12.1289062 L11.7265625,12.1992187 C11.8476563,12.2265625 11.9648438,12.25 12.0859375,12.2773437 C12.1484375,12.2890625 12.2070313,12.3007812 12.2695313,12.3164062 C12.453125,12.3554687 12.6367188,12.390625 12.8242188,12.4257812 L13.0117188,12.4609375 C13.1992188,12.4960937 13.390625,12.5273437 13.5820313,12.5585937 C13.6445313,12.5703125 13.7109375,12.578125 13.7734375,12.5898437 C13.9648438,12.6210937 14.1601563,12.6523437 14.3554688,12.6796875 C14.421875,12.6875 14.4882813,12.6992187 14.5507813,12.7070312 C14.671875,12.7226562 14.796875,12.7421875 14.921875,12.7578125 C14.9960938,12.7695312 15.0742188,12.7773437 15.1484375,12.7851562 C15.2734375,12.8007812 15.4023438,12.8164062 15.53125,12.8320312 C15.8085938,12.8632812 16.0898438,12.8945312 16.3710938,12.9179687 C16.921875,12.96875 17.4804688,13.0078125 18.0507813,13.0390625 C18.1914063,13.046875 18.3359375,13.0507812 18.4804688,13.0585937 C18.625,13.0625 18.7695313,13.0703125 18.9101563,13.0742187 C19.0507813,13.078125 19.1992188,13.0820312 19.34375,13.0820312 C19.5625,13.0859375 19.78125,13.0859375 20,13.0859375 C26.5273438,13.0859375 32.1914063,11.9453125 35.0390625,10.2695312 L35.0390625,32.1367188 C34.9960938,32.2109375 34.7929688,32.5195312 34.0625,32.953125 L34.0625,32.953125 Z M21.4765625,20.71875 L25.46875,20.71875 L25.46875,22.671875 L20.9765625,22.671875 L20.9765625,25.2460938 L25.46875,25.2460938 L25.46875,27.1992188 L20.9765625,27.1992188 L20.9765625,32.3164062 L19.0234375,32.3164062 L19.0234375,27.1992188 L14.53125,27.1992188 L14.53125,25.2460938 L19.0234375,25.2460938 L19.0234375,22.671875 L14.53125,22.671875 L14.53125,20.71875 L18.5234375,20.71875 L14.9296875,17.125 L16.3125,15.7421875 L20,19.4296875 L23.6875,15.7421875 L25.0703125,17.125 L21.4765625,20.71875 Z" id="形状" fill="#FFFFFF"></path>
        </g>
    </g>
</svg>