<?xml version="1.0" encoding="UTF-8"?>
<svg width="40px" height="40px" viewBox="0 0 40 40" version="1.1" xmlns="http://www.w3.org/2000/svg" xmlns:xlink="http://www.w3.org/1999/xlink">
    <title>数据DNA</title>
    <g id="数据DNA" stroke="none" stroke-width="1" fill="none" fill-rule="evenodd">
        <g id="control" fill-rule="nonzero">
            <rect id="矩形" fill="#000000" opacity="0" x="0" y="0" width="40" height="40"></rect>
            <path d="M34.375,4.375 C35.0664062,4.375 35.625,4.93359375 35.625,5.625 L35.625,5.625 L35.625,34.375 C35.625,35.0664062 35.0664062,35.625 34.375,35.625 L34.375,35.625 L5.625,35.625 C4.93359375,35.625 4.375,35.0664062 4.375,34.375 L4.375,34.375 L4.375,5.625 C4.375,4.93359375 4.93359375,4.375 5.625,4.375 L5.625,4.375 Z M32.8125,7.1875 L7.1875,7.1875 L7.1875,32.8125 L32.8125,32.8125 L32.8125,7.1875 Z M23.801919,9.60164605 C23.971498,9.12963571 24.4922027,8.88425373 24.9649455,9.05357004 C25.4376882,9.22288635 25.683451,9.74278431 25.513872,10.2147947 C25.4780724,10.3082792 25.4496163,10.4063463 25.4220782,10.4979978 C25.3986405,10.5780568 25.4208141,10.6645051 25.4799083,10.7234606 L25.4799083,10.7234606 L29.2783327,14.5205828 C29.3348257,14.5774474 29.4171242,14.6004274 29.4949659,14.5810728 C29.5935975,14.559242 29.6910295,14.5323214 29.7868699,14.5004195 C30.0128993,14.4185484 30.2622668,14.4298412 30.4799452,14.5318059 C30.6976236,14.6337705 30.8657206,14.8180259 30.9471426,15.0439129 C31.0281068,15.2703365 31.0156608,15.5196005 30.9125429,15.7368611 C30.809425,15.9541216 30.6240836,16.1215788 30.3972982,16.2023881 C29.5870261,16.4689106 28.7450209,16.6273125 27.8931653,16.6734769 L27.8931653,16.6734769 L27.8665451,16.6734769 C27.3754292,16.6722024 26.9739932,16.2819361 26.9596231,15.7917893 C26.9555055,15.5203771 27.075043,15.2617805 27.2845729,15.0888222 L27.2845729,15.0888222 L25.1733172,12.9808374 C25.2367104,13.6172076 25.3967337,14.2402389 25.6478908,14.8285319 C26.6100795,17.1294172 26.4712355,19.7424545 25.2706186,21.9287746 C24.8922573,22.6304177 24.4142678,23.2737469 23.8514876,23.8387922 C22.3215699,25.3535392 20.2675454,26.2239415 18.1134618,26.2703069 L18.1134618,26.2703069 L18.0978569,26.2703069 C17.6068502,26.2598338 17.2130126,25.8617539 17.2085458,25.3714163 C17.204079,24.8810787 17.5905993,24.475912 18.081334,24.4565234 C18.6087718,24.4460842 19.132901,24.3706649 19.6418273,24.2319772 C19.7207617,24.2104926 19.7822704,24.148674 19.8032685,24.0697222 C19.8242667,23.9907705 19.8015783,23.9066279 19.7437184,23.8488739 L19.7437184,23.8488739 L16.1389787,20.255218 C16.0809718,20.197051 15.9960607,20.1746299 15.9168379,20.1965611 C15.8379395,20.2178917 15.7761734,20.2792136 15.754363,20.3578677 C15.3801603,21.7129296 15.4732737,23.1542735 16.018729,24.4501078 C16.8325225,26.3394672 16.8948874,28.4674016 16.193137,30.4010406 C16.0832747,30.7055592 15.8190468,30.9284259 15.4999856,30.9856889 C15.1809244,31.042952 14.8555028,30.9259119 14.646304,30.6786564 C14.4371051,30.4314009 14.3759113,30.091494 14.4857737,29.7869754 C14.5194169,29.6914245 14.5500301,29.5948368 14.5775675,29.4973567 C14.6009576,29.4170115 14.5788121,29.3303216 14.5197374,29.2709774 L14.5197374,29.2709774 L10.7203951,25.4775213 C10.6635195,25.4206623 10.5809676,25.3977088 10.502844,25.4170313 C10.4055426,25.4417772 10.3045695,25.4646901 10.2127758,25.4986011 C10.1155156,25.5332042 10.0131053,25.5511757 9.90985652,25.551759 C9.4675682,25.552698 9.08896929,25.2352614 9.01342627,24.8001464 C8.93788326,24.3650314 9.187384,23.9388842 9.60418341,23.7911334 C10.39556,23.5297964 11.2175467,23.3720617 12.0495683,23.3218777 C12.425876,23.3081117 12.7709505,23.529819 12.9143258,23.8774766 C13.057701,24.2251342 12.9690333,24.6251644 12.6921243,24.8799534 L12.6921243,24.8799534 L14.8244926,27.0090181 C14.7609942,26.3723709 14.6009767,25.7490532 14.349919,25.160407 C13.0664753,22.0706878 13.7761192,18.5131289 16.1472402,16.1501467 C17.6722829,14.6387055 19.7196141,13.7684945 21.8678252,13.718632 C22.3634625,13.7228934 22.7697216,14.1124426 22.7940239,14.6067352 C22.7989425,14.8471504 22.7079813,15.0796648 22.5411608,15.2531025 C22.3743402,15.4265402 22.1453329,15.5266864 21.9045427,15.531499 C21.3814674,15.5436062 20.861793,15.6190054 20.3569004,15.7560452 C20.2779661,15.7775298 20.2164574,15.8393484 20.1954592,15.9183002 C20.174461,15.9972519 20.1971495,16.0813945 20.2550094,16.1391485 L20.2550094,16.1391485 L23.859749,19.7383035 C23.9177888,19.7959886 24.002134,19.8185783 24.0812966,19.7976393 C24.1604592,19.7767003 24.2225407,19.7153799 24.2443647,19.6365703 C24.6177055,18.2814202 24.5246106,16.8403626 23.9799988,15.5443302 C23.1677308,13.6577202 23.104072,11.5333684 23.801919,9.60164605 Z M18.5638066,17.0628371 C18.4890613,16.9876623 18.3712638,16.9788912 18.2864394,17.0421848 C18.0619883,17.2100072 17.8498618,17.394066 17.6517279,17.592914 C17.4126105,17.8378791 17.1945783,18.1030172 17,18.3854477 L17,18.3854477 L21.4999855,22.936708 C21.5741228,23.0124712 21.6921652,23.0212875 21.7765019,22.9573604 L21.7765019,22.9573604 C22.2307215,22.6238807 22.628894,22.2208809 22.9582905,21.7629665 C23.020871,21.6771755 23.0121987,21.5580358 22.9378708,21.4824388 L22.9378708,21.4824388 Z" id="形状结合" fill="#F1F1F2"></path>
        </g>
    </g>
</svg>