<?xml version="1.0" encoding="UTF-8"?>
<svg width="40px" height="40px" viewBox="0 0 40 40" version="1.1" xmlns="http://www.w3.org/2000/svg" xmlns:xlink="http://www.w3.org/1999/xlink">
    <title>标签视图管理</title>
    <g id="标签视图管理" stroke="none" stroke-width="1" fill="none" fill-rule="evenodd">
        <g id="通用类_公有视图" fill-rule="nonzero">
            <rect id="矩形" fill="#000000" opacity="0" x="0" y="0" width="40" height="40"></rect>
            <path d="M35,0 L2.5,0 C1.12,0 0,1.12 0,2.5 L0,35 C0,36.38 1.12,37.5 2.5,37.5 L35,37.5 C36.38,37.5 37.5,36.38 37.5,35 L37.5,2.5 C37.5,1.12 36.38,0 35,0 Z M35,35 L2.5,35 L2.5,2.5 L35,2.5 L35,35 Z M20.56,32.5 L29.44,32.5 C31.13,32.5 32.5,31.13 32.5,29.44 L32.5,8.06 C32.5,6.37 31.13,5 29.44,5 L20.56,5 C18.87,5 17.5,6.37 17.5,8.06 L17.5,29.44 C17.5,31.13 18.87,32.5 20.56,32.5 Z M20,8.06 C20,7.75 20.25,7.5 20.56,7.5 L29.44,7.5 C29.75,7.5 30,7.75 30,8.06 L30,29.44 C30,29.75 29.75,30 29.44,30 L20.56,30 C20.25,30 20,29.75 20,29.44 L20,8.06 Z M7.5,17.5 L12.5,17.5 C13.88,17.5 15,16.38 15,15 L15,7.5 C15,6.12 13.88,5 12.5,5 L7.5,5 C6.12,5 5,6.12 5,7.5 L5,15 C5,16.38 6.12,17.5 7.5,17.5 Z M7.5,7.5 L12.5,7.5 L12.5,15 L7.5,15 L7.5,7.5 Z M7.48,32.5 L12.52,32.5 C13.89,32.5 15,31.39 15,30.02 L15,22.48 C15,21.11 13.89,20 12.52,20 L7.48,20 C6.11,20 5,21.11 5,22.48 L5,30.02 C5,31.39 6.11,32.5 7.48,32.5 Z M12.525,22.5 L12.545,30 L7.525,30.02 L7.505,22.5 L12.525,22.5 Z" id="形状" fill="#FFFFFF"></path>
        </g>
    </g>
</svg>