<?xml version="1.0" standalone="no"?><!DOCTYPE svg PUBLIC "-//W3C//DTD SVG 1.1//EN" "http://www.w3.org/Graphics/SVG/1.1/DTD/svg11.dtd"><svg t="1590559905908" class="icon" viewBox="0 0 1024 1024" version="1.1" xmlns="http://www.w3.org/2000/svg" p-id="1767" xmlns:xlink="http://www.w3.org/1999/xlink" width="200" height="200"><defs><style type="text/css"></style></defs><path d="M953.59997281 32.00003H70.40002719A38.35499719 38.35499719 0 0 0 32.00003 70.40002719v883.19994562A38.35499719 38.35499719 0 0 0 70.40002719 991.99997h883.19994562a38.35499719 38.35499719 0 0 0 38.39999719-38.39999719V70.40002719A38.35499719 38.35499719 0 0 0 953.59997281 32.00003zM118.40002438 905.59997562V118.40002438h787.19995124v200.33998781c-48.76499719-1.575-175.10998875 2.46-181.31998875 2.46H667.99999063a38.20499719 38.20499719 0 0 0-31.07999813 15.95999906L448.40000375 598.75999437l-85.49999437-118.4999925a38.38499719 38.38499719 0 0 0-31.01999813-16.01999906H275.600015a9.62999906 9.62999906 0 0 0-7.8 15.23999907l149.51999062 207.35998687a38.15999719 38.15999719 0 0 0 62.03999625 0L697.09998875 384.9350075l208.49998688-1.76999906V905.59997562z" fill="#1296DB" p-id="1768"></path></svg>