<?xml version="1.0" encoding="UTF-8"?>
<svg width="40px" height="40px" viewBox="0 0 40 40" version="1.1" xmlns="http://www.w3.org/2000/svg" xmlns:xlink="http://www.w3.org/1999/xlink">
    <title>共享交换节点管理</title>
    <g id="共享交换节点管理" stroke="none" stroke-width="1" fill="none" fill-rule="evenodd">
        <g id="deployment-unit" fill-rule="nonzero">
            <rect id="矩形" fill="#000000" opacity="0" x="0" y="0" width="40" height="40"></rect>
            <path d="M34.6992187,27.078125 C33.0390625,26.1171875 31.015625,26.375 29.6523437,27.578125 L27.5820312,26.3789063 L27.5820312,20.453125 C27.5820312,19.8398438 27.2539062,19.2695312 26.7226562,18.9648438 L21.4101562,15.90625 L21.4101562,13.2851563 C23.1367187,12.6992188 24.3789062,11.0664062 24.3789062,9.140625 C24.3789062,6.72265625 22.421875,4.765625 20.0039062,4.765625 C17.5859375,4.765625 15.6289062,6.72265625 15.6289062,9.140625 C15.6289062,11.0664062 16.8710937,12.6992188 18.5976562,13.2851563 L18.5976562,15.90625 L13.2851562,18.9648438 C12.7539062,19.2695313 12.4257812,19.8398438 12.4257812,20.453125 L12.4257812,26.375 L10.3554687,27.5742188 C8.9921875,26.3710938 6.96484375,26.1132813 5.30859375,27.0742188 C3.21875,28.2851563 2.5078125,30.9570313 3.70703125,33.046875 C4.91015625,35.1367188 7.5703125,35.8554688 9.65234375,34.6484375 C11.3125,33.6875 12.1015625,31.796875 11.7460937,30.0078125 L13.6484375,28.9023438 L19.140625,32.0664063 C19.40625,32.21875 19.703125,32.296875 20,32.296875 C20.296875,32.296875 20.59375,32.21875 20.859375,32.0664063 L26.3476562,28.90625 L28.25,30.0117188 C27.8945312,31.796875 28.6875,33.6914063 30.34375,34.6523438 C32.4257812,35.859375 35.0898438,35.1445312 36.2890625,33.0507812 C37.4921875,30.9570312 36.78125,28.2851562 34.6992187,27.078125 Z M8.41015625,32.484375 C7.51953125,33 6.375,32.6953125 5.86328125,31.796875 C5.34765625,30.9023438 5.65234375,29.7539063 6.546875,29.2382813 C7.4375,28.7226563 8.58203125,29.0273438 9.09375,29.9257813 C9.609375,30.8203125 9.3046875,31.96875 8.41015625,32.484375 Z M18.125,9.140625 C18.125,8.10546875 18.9648437,7.265625 20,7.265625 C21.0351562,7.265625 21.875,8.10546875 21.875,9.140625 C21.875,10.1757812 21.0351562,11.015625 20,11.015625 C18.9648437,11.015625 18.125,10.1757812 18.125,9.140625 Z M24.765625,26.5703125 L20,29.3164062 L15.234375,26.5703125 L15.234375,21.0859375 L20,18.3398437 L24.765625,21.0859375 L24.765625,26.5703125 L24.765625,26.5703125 Z M34.1367188,31.8007813 C33.6210938,32.6953125 32.4804688,33.0039062 31.5898437,32.4882813 C30.6992187,31.9726563 30.390625,30.8242188 30.90625,29.9296875 C31.421875,29.0351563 32.5625,28.7265625 33.453125,29.2421875 C34.3476562,29.7578125 34.6523438,30.9023438 34.1367188,31.8007813 Z" id="形状" fill="#FFFFFF"></path>
        </g>
    </g>
</svg>