<?xml version="1.0" encoding="UTF-8"?>
<svg width="40px" height="40px" viewBox="0 0 40 40" version="1.1" xmlns="http://www.w3.org/2000/svg" xmlns:xlink="http://www.w3.org/1999/xlink">
    <title>数据报表管理</title>
    <g id="数据报表管理" stroke="none" stroke-width="1" fill="none" fill-rule="evenodd">
        <g id="标签" fill-rule="nonzero">
            <rect id="矩形" fill="#000000" opacity="0" x="0.0779727096" y="0" width="39.9220273" height="39.9220273"></rect>
            <path d="M37.5289276,0.00039005848 L20.3426987,0.00039005848 C19.959647,0.00039005848 19.5442191,0.181383977 19.2567353,0.468867836 L0.494221131,19.2629779 L0.451703158,19.2844319 C-0.133796491,19.8699316 -0.133796491,20.8178091 0.451703158,21.3927768 L17.5954142,38.5364878 L17.6168681,38.5684738 C18.1918358,39.1539734 19.1502453,39.1539734 19.735745,38.5684738 L38.5509191,19.7529097 C38.849325,19.4548938 39.0193968,19.081984 39.0193968,18.6669463 L39.0193968,1.50178129 C39.0193968,0.670925653 38.3593932,0.00039005848 37.5289276,0.00039005848 Z M36.0170044,18.0490705 L18.6813775,35.3846975 L3.62455743,20.3493314 L20.9816384,2.99264051 L36.0170044,2.99264051 L36.0170044,18.0490705 Z M29.5854798,13.9388707 C32.0452805,13.9388707 34.0681995,11.9155618 34.0681995,9.44522908 C34.0681995,6.97489641 32.0448905,4.95158741 29.5854798,4.95158741 C27.1151472,4.95158741 25.0914481,6.95344234 25.0914481,9.44522908 C25.0914481,11.9159519 27.1151472,13.9388707 29.5854798,13.9388707 Z M29.5854798,6.76191304 C30.2974879,6.76077519 30.9806622,7.04311401 31.4841286,7.54658035 C31.9875949,8.0500467 32.2699337,8.73322107 32.2687959,9.44522908 C32.2687959,10.9251663 31.0548851,12.1499957 29.5854798,12.1499957 C28.0946206,12.1499957 26.8807133,10.9251663 26.8807133,9.44522908 C26.8807133,7.95475992 28.0946206,6.76191304 29.5854798,6.76191304 L29.5854798,6.76191304 Z" id="形状" fill="#FFFFFF"></path>
        </g>
    </g>
</svg>