<?xml version="1.0" encoding="UTF-8"?>
<svg width="40px" height="40px" viewBox="0 0 40 40" version="1.1" xmlns="http://www.w3.org/2000/svg" xmlns:xlink="http://www.w3.org/1999/xlink">
    <title>数据资产全链分析</title>
    <g id="数据资产全链分析" stroke="none" stroke-width="1" fill="none" fill-rule="evenodd">
        <g id="供应链" fill-rule="nonzero">
            <rect id="矩形" fill="#000000" opacity="0" x="0" y="0" width="40" height="40"></rect>
            <path d="M33.95,18.5666667 C32.1831333,18.5458427 30.5778668,19.5918975 29.8833333,21.2166667 L27.4,20.6833333 C27.4171424,20.444752 27.4171424,20.205248 27.4,19.9666667 C27.3785454,17.183127 25.7098531,14.6768166 23.15,13.5833333 L24.3,10.7833333 C24.5664111,10.799844 24.8335889,10.799844 25.1,10.7833333 C27.4534904,10.8583679 29.4262405,9.01961597 29.5166667,6.66666668 C29.3739278,4.35513042 27.4576059,2.55349257 25.1416667,2.55349257 C22.8257275,2.55349257 20.9094056,4.35513042 20.7666667,6.66666668 C20.7785534,8.22959791 21.6675599,9.65329667 23.0666667,10.35 L21.9166667,13.15 C21.2900342,12.9924573 20.6461278,12.9140687 20,12.9166667 C18.279027,12.9202799 16.6102325,13.5078836 15.2666667,14.5833333 L9.61666668,9.11666668 C10.1538112,8.41252732 10.4464099,7.55228713 10.45,6.66666668 C10.3863782,4.30733523 8.4261923,2.44404065 6.06666668,2.5 C4.93053838,2.46863312 3.82852296,2.89009496 3.00326903,3.67158542 C2.1780151,4.45307589 1.69719068,5.53051542 1.66666668,6.66666668 C1.69283596,7.80574235 2.17175596,8.88745293 2.99749066,9.67252644 C3.82322536,10.4576 4.92772138,10.8813342 6.06666668,10.85 C6.98269169,10.828902 7.87118789,10.5327366 8.61666668,10 L14.3166667,15.5 C13.2493252,16.7443245 12.6586586,18.3273112 12.65,19.9666667 C12.6512453,21.3290023 13.0636767,22.6592387 13.8333333,23.7833333 L9,27.4166667 C8.18276838,26.7041061 7.13424977,26.3131331 6.05,26.3166667 C4.47241622,26.1754223 2.95034816,26.937259 2.11792993,28.2847755 C1.28551171,29.6322919 1.28551171,31.3343748 2.11792993,32.6818912 C2.95034816,34.0294076 4.47241622,34.7912444 6.05,34.65 C7.18167833,34.6768347 8.27763565,34.2528516 9.09661347,33.4713842 C9.9155913,32.6899169 10.3904536,31.6150262 10.4166667,30.4833333 C10.4142301,29.7765689 10.2306046,29.0822351 9.88333332,28.4666667 L14.7166667,24.8333333 C16.1375196,26.2331105 18.0554955,27.0122882 20.05,27 C20.9718653,27.0039762 21.8867627,26.8401983 22.75,26.5166667 L24.8166667,30 C23.7191623,30.7582439 23.0550634,31.9995502 23.0333333,33.3333333 C22.9447494,35.1232903 23.954728,36.7868864 25.5836605,37.5341294 C27.212593,38.2813725 29.1323433,37.9617361 30.4312794,36.727006 C31.7302154,35.4922759 32.1466765,33.5911791 31.4828975,31.9264897 C30.8191186,30.2618003 29.208813,29.1688573 27.4166667,29.1666667 C26.9878329,29.1666561 26.5612324,29.228401 26.15,29.35 L24.0666667,25.9 C25.4975344,25.0267757 26.5723496,23.6743983 27.1,22.0833333 L29.5833333,22.6166667 L29.5833333,22.75 C29.494679,24.541474 30.5064325,26.2062009 32.137457,26.9525239 C33.7684815,27.6988468 35.6896354,27.3761575 36.9873187,26.13791 C38.2850021,24.8996626 38.6973417,22.9957359 38.0282506,21.3315377 C37.3591594,19.6673394 35.7436603,18.5787056 33.95,18.5833333 L33.95,18.5666667 Z M20,25.6666667 C18.4749584,25.6889289 17.0035514,25.104376 15.9095539,24.0416357 C14.8155565,22.9788953 14.1886086,21.5250462 14.1666667,20 C14.2752406,16.8701265 16.8686006,14.4027296 20,14.45 C23.1635422,14.3563958 25.8079668,16.8369405 25.9166667,20 C25.8949999,21.5398101 25.2565819,23.0065805 24.1444212,24.0717486 C23.0322604,25.1369166 21.5393111,25.7114557 20,25.6666667 Z" id="形状" fill="#FFFFFF"></path>
        </g>
    </g>
</svg>