<?xml version="1.0" encoding="UTF-8"?>
<svg width="40px" height="40px" viewBox="0 0 40 40" version="1.1" xmlns="http://www.w3.org/2000/svg" xmlns:xlink="http://www.w3.org/1999/xlink">
    <title>基础宽表管理</title>
    <g id="基础宽表管理" stroke="none" stroke-width="1" fill="none" fill-rule="evenodd">
        <g id="数据对接系统" fill-rule="nonzero">
            <rect id="矩形" fill="#000000" opacity="0" x="0" y="0" width="40" height="40"></rect>
            <path d="M8.7578125,9.41796875 L11.6289062,9.41796875 L11.6289062,12.2890625 L8.7578125,12.2890625 L8.7578125,9.41796875 Z M14.4804687,9.41796875 L25.8632812,9.41796875 L25.8632812,12.2890625 L14.4804687,12.2890625 L14.4804687,9.41796875 Z M8.7578125,15.1523437 L11.6289062,15.1523437 L11.6289062,18.0234375 L8.7578125,18.0234375 L8.7578125,15.1523437 Z M14.4804687,15.1523437 L25.8632812,15.1523437 L25.8632812,18.0234375 L14.4804687,18.0234375 L14.4804687,15.1523437 Z M8.7578125,20.9179688 L11.6289062,20.9179688 L11.6289062,23.7890625 L8.7578125,23.7890625 L8.7578125,20.9179688 Z M14.4804687,20.9179688 L18.4023438,20.9179688 L18.4023438,23.7890625 L14.4804687,23.7890625 L14.4804687,20.9179688 Z M8.7578125,26.6523437 L11.6289062,26.6523437 L11.6289062,29.5234375 L8.7578125,29.5234375 L8.7578125,26.6523437 Z M14.4804687,26.6523437 L18.4023438,26.6523437 L18.4023438,29.5234375 L14.4804687,29.5234375 L14.4804687,26.6523437 Z M5.84375,33.0117188 L5.84375,5.70703125 C5.84375,5.578125 5.96484375,5.46875 6.11328125,5.46875 L28.46875,5.421875 C28.6171875,5.421875 28.7382812,5.52734375 28.7382812,5.66015625 L28.7382812,17.7148438 L31.515625,17.7148438 L31.515625,3.09765625 C31.515625,2.8359375 31.2734375,2.62109375 30.9765625,2.62109375 L3.6015625,2.62109375 C3.3046875,2.62109375 3.0625,2.8359375 3.0625,3.09765625 L3.0625,35.5546875 C3.0625,35.8164062 3.3046875,36.03125 3.6015625,36.03125 L17.3789062,36.03125 L17.3789062,33.2539062 L6.11328125,33.2539062 C5.96484375,33.25 5.84375,33.1445312 5.84375,33.0117187 L5.84375,33.0117188 Z M34.3632813,31.5859375 C33.8140681,31.0327707 33.1941099,30.5546673 32.5195312,30.1640625 C33.5507812,29.0585938 34.1835938,27.578125 34.1835938,25.9492188 C34.1835938,22.5429688 31.4140625,19.7734375 28.0078125,19.7734375 C24.6015625,19.7734375 21.8320313,22.5429688 21.8320313,25.9492188 C21.8320313,27.5820313 22.4726563,29.0664063 23.5078125,30.1757813 C22.8476563,30.5585938 22.234375,31.0351563 21.6757813,31.5898438 C20.125,33.140625 19.2109375,35.1640625 19.0664062,37.3359375 L21.09375,37.3359375 C21.3164063,34.7109375 23.0078125,32.4960938 25.3398438,31.5117188 C26.1484375,31.9023438 27.0546875,32.1210938 28.0117188,32.1210938 C29.0546875,32.1210938 30.0351563,31.859375 30.8984375,31.4023438 C30.8632813,31.4492188 30.8242188,31.4960938 30.7851563,31.5390625 C33.0820312,32.5351563 34.7382813,34.734375 34.9570312,37.3320313 L36.96875,37.3320313 C36.828125,35.1640625 35.9140625,33.140625 34.3632812,31.5859375 L34.3632813,31.5859375 Z M28.0078125,30.109375 C25.7148438,30.109375 23.8476562,28.2421875 23.8476562,25.9492188 C23.8515625,23.65625 25.71875,21.7890625 28.0078125,21.7890625 C30.3007812,21.7890625 32.1679688,23.65625 32.1679688,25.9492188 C32.1679688,28.2421875 30.3046875,30.109375 28.0078125,30.109375 Z" id="形状" fill="#FFFFFF"></path>
        </g>
    </g>
</svg>