<?xml version="1.0" encoding="UTF-8"?>
<svg width="40px" height="40px" viewBox="0 0 40 40" version="1.1" xmlns="http://www.w3.org/2000/svg" xmlns:xlink="http://www.w3.org/1999/xlink">
    <title>资产目录管理</title>
    <g id="资产目录管理" stroke="none" stroke-width="1" fill="none" fill-rule="evenodd">
        <g id="招生数据字典" fill-rule="nonzero">
            <rect id="矩形" fill="#000000" opacity="0" x="0" y="0" width="40" height="40"></rect>
            <path d="M17.4023438,25.5 L17.4023438,27.3007812 C17.4023438,27.4296875 17.296875,27.5351562 17.1679688,27.5351562 L15.2382812,27.5351562 C15.109375,27.5351562 15.0039063,27.4296875 15.0039063,27.3007812 L15.0039063,20.28125 C15.0039063,20.1523438 15.109375,20.046875 15.2382812,20.046875 L17.1679688,20.046875 C17.296875,20.046875 17.4023438,20.1523438 17.4023438,20.28125 L17.4023438,22.0625 C17.4023438,22.3203125 17.6132812,22.53125 17.8710938,22.53125 L36.9335938,22.5507813 C37.1914062,22.5507813 37.4023438,22.3398438 37.4023438,22.0820313 L37.4023438,15.5195313 C37.4023438,15.2617188 37.1914062,15.0507813 36.9335938,15.0507813 L17.8710938,15.0429688 C17.6132812,15.0429688 17.4023438,15.2539063 17.4023438,15.5117188 L17.4023438,17.3125 C17.4023438,17.4414063 17.296875,17.546875 17.1679688,17.546875 L15.2382812,17.546875 C15.109375,17.546875 15.0039063,17.4414063 15.0039063,17.3125 L15.0039063,10.2929688 C15.0039063,10.1640625 15.109375,10.0585938 15.2382812,10.0585938 L17.1679688,10.0585938 C17.296875,10.0585938 17.4023438,10.1640625 17.4023438,10.2929688 L17.4023438,12.0742188 C17.4023438,12.3320313 17.6132812,12.5429688 17.8710938,12.5429688 L36.9375,12.5507813 C37.1953125,12.5507813 37.40625,12.3398438 37.40625,12.0820313 L37.40625,5.52734375 C37.40625,5.26953125 37.1953125,5.05859375 36.9375,5.05859375 L17.8710938,5.05078125 C17.6132812,5.05078125 17.4023438,5.26171875 17.4023438,5.51953125 L17.4023438,7.3203125 C17.4023438,7.44921875 17.296875,7.5546875 17.1679688,7.5546875 L15.0039063,7.5546875 L15.0039063,5.46875 C15.0039063,5.2109375 14.7929688,5 14.5351562,5 L10.234375,5 C10.1054688,5 10,4.89453125 10,4.765625 L10,2.7421875 C10,2.61328125 9.89453125,2.5078125 9.765625,2.5078125 L7.734375,2.5078125 C7.60546875,2.5078125 7.5,2.61328125 7.5,2.7421875 L7.5,4.765625 C7.5,4.89453125 7.39453125,5 7.265625,5 L2.96875,5 C2.7109375,5 2.5,5.2109375 2.5,5.46875 L2.5,32.0234375 C2.5,32.28125 2.7109375,32.4921875 2.96875,32.4921875 L4.76953125,32.4960938 C4.8984375,32.4960938 5.00390625,32.6015625 5.00390625,32.7304688 L5.00390625,34.5195312 C5.00390625,34.7773438 5.21484375,34.9882812 5.47265625,34.9882812 L7.265625,34.9882812 C7.39453125,34.9882812 7.5,35.09375 7.5,35.2226562 L7.5,37.2578125 C7.5,37.3867188 7.60546875,37.4921875 7.734375,37.4921875 L9.765625,37.4921875 C9.89453125,37.4921875 10,37.3867188 10,37.2578125 L10,35.2226562 C10,35.09375 10.1054688,34.9882812 10.234375,34.9882812 L12.03125,34.9882812 C12.2890625,34.9882812 12.5,34.7773438 12.5,34.5195312 L12.5,32.7265625 C12.5,32.5976562 12.6054687,32.4921875 12.734375,32.4921875 L14.5351562,32.4882812 C14.7929688,32.4882812 15.0039063,32.2773438 15.0039063,32.0195312 L15.0039063,30.2734375 C15.0039063,30.1445313 15.109375,30.0390625 15.2382812,30.0390625 L17.1679688,30.0390625 C17.296875,30.0390625 17.4023438,30.1445313 17.4023438,30.2734375 L17.4023438,32.0546875 C17.4023438,32.3125 17.6132812,32.5234375 17.8710938,32.5234375 L36.9375,32.5429688 C37.1953125,32.5429688 37.40625,32.3320312 37.40625,32.0742188 L37.40625,25.5078125 C37.40625,25.25 37.1953125,25.0390625 36.9375,25.0390625 L17.8710938,25.03125 C17.6132812,25.03125 17.4023438,25.2421875 17.4023438,25.5 Z M20.1367188,17.5390625 L34.671875,17.5390625 C34.8007812,17.5390625 34.90625,17.6445312 34.90625,17.7734375 L34.90625,19.8007812 C34.90625,19.9296875 34.8007812,20.0351562 34.671875,20.0351562 L20.1367188,20.0351562 C20.0078125,20.0351562 19.9023438,19.9296875 19.9023438,19.8007812 L19.9023438,17.7734375 C19.9023438,17.6445312 20.0078125,17.5390625 20.1367188,17.5390625 L20.1367188,17.5390625 Z M20.1367188,7.55078125 L34.671875,7.55078125 C34.8007812,7.55078125 34.90625,7.65625 34.90625,7.78515625 L34.90625,9.8125 C34.90625,9.94140625 34.8007812,10.046875 34.671875,10.046875 L20.1367188,10.046875 C20.0078125,10.046875 19.9023438,9.94140625 19.9023438,9.8125 L19.9023438,7.78515625 C19.9023438,7.65625 20.0078125,7.55078125 20.1367188,7.55078125 L20.1367188,7.55078125 Z M12.2695312,29.9960938 L5.234375,29.9960938 C5.10546875,29.9960938 5,29.890625 5,29.7617188 L5,27.7382813 C5,27.609375 5.10546875,27.5039063 5.234375,27.5039063 L12.2695312,27.5039063 C12.3984375,27.5039063 12.5039062,27.609375 12.5039062,27.7382813 L12.5039062,29.7617188 C12.5039062,29.890625 12.3984375,29.9960938 12.2695312,29.9960938 Z M12.2695312,25.0039063 L5.234375,25.0039063 C5.10546875,25.0039063 5,24.8984375 5,24.7695313 L5,22.7460938 C5,22.6171875 5.10546875,22.5117188 5.234375,22.5117188 L12.2695312,22.5117188 C12.3984375,22.5117188 12.5039062,22.6171875 12.5039062,22.7460938 L12.5039062,24.7695313 C12.5039062,24.8984375 12.3984375,25.0039063 12.2695312,25.0039063 Z M12.2695312,20.0078125 L5.234375,20.0078125 C5.10546875,20.0078125 5,19.9023438 5,19.7734375 L5,17.7382813 C5,17.609375 5.10546875,17.5039063 5.234375,17.5039063 L12.2695312,17.5039063 C12.3984375,17.5039063 12.5039062,17.609375 12.5039062,17.7382813 L12.5039062,19.7734375 C12.5039062,19.9023438 12.3984375,20.0078125 12.2695312,20.0078125 Z M12.2695312,15.0039063 L5.234375,15.0039063 C5.10546875,15.0039063 5,14.8984375 5,14.7695313 L5,12.7421875 C5,12.6132813 5.10546875,12.5078125 5.234375,12.5078125 L12.2695312,12.5078125 C12.3984375,12.5078125 12.5039062,12.6132813 12.5039062,12.7421875 L12.5039062,14.7695313 C12.5039062,14.8984375 12.3984375,15.0039063 12.2695312,15.0039063 Z M12.2695312,10.0078125 L5.234375,10.0078125 C5.10546875,10.0078125 5,9.90234375 5,9.7734375 L5,7.734375 C5,7.60546875 5.10546875,7.5 5.234375,7.5 L12.2695312,7.5 C12.3984375,7.5 12.5039062,7.60546875 12.5039062,7.734375 L12.5039062,9.76953125 C12.5039062,9.90234375 12.3984375,10.0078125 12.2695312,10.0078125 L12.2695312,10.0078125 Z M34.671875,30.0273438 L20.1367188,30.0273438 C20.0078125,30.0273438 19.9023438,29.921875 19.9023438,29.7929688 L19.9023438,27.765625 C19.9023438,27.6367188 20.0078125,27.53125 20.1367188,27.53125 L34.671875,27.53125 C34.8007812,27.53125 34.90625,27.6367188 34.90625,27.765625 L34.90625,29.7929688 C34.90625,29.921875 34.8007812,30.0273438 34.671875,30.0273438 Z" id="形状" fill="#FFFFFF"></path>
        </g>
    </g>
</svg>