<?xml version="1.0" encoding="UTF-8"?>
<svg width="40px" height="40px" viewBox="0 0 40 40" version="1.1" xmlns="http://www.w3.org/2000/svg" xmlns:xlink="http://www.w3.org/1999/xlink">
    <title>需求单审批日志</title>
    <g id="需求单审批日志" stroke="none" stroke-width="1" fill="none" fill-rule="evenodd">
        <g id="系统日志" fill-rule="nonzero">
            <rect id="矩形" fill="#000000" opacity="0" x="0" y="0" width="40" height="40"></rect>
            <path d="M33.75,3.75 C36.5114237,3.75 38.75,5.98857625 38.75,8.75 L38.75,8.75 L38.75,31.25 C38.75,34.0114237 36.5114237,36.25 33.75,36.25 L33.75,36.25 L6.25,36.25 C3.48857625,36.25 1.25,34.0114237 1.25,31.25 L1.25,31.25 L1.25,8.75 C1.25,5.98857625 3.48857625,3.75 6.25,3.75 L6.25,3.75 Z M36.25,16.25 L3.75,16.25 L3.75,31.25 C3.75,32.6307119 4.86928813,33.75 6.25,33.75 L6.25,33.75 L33.75,33.75 C35.1307119,33.75 36.25,32.6307119 36.25,31.25 L36.25,31.25 L36.25,16.25 Z M11.25,26.25 C11.9403559,26.25 12.5,26.8096441 12.5,27.5 C12.5,28.1903559 11.9403559,28.75 11.25,28.75 C10.5596441,28.75 10,28.1903559 10,27.5 C10,26.8096441 10.5596441,26.25 11.25,26.25 Z M28.75,26.25 C29.4403559,26.25 30,26.8096441 30,27.5 C30,28.1903559 29.4403559,28.75 28.75,28.75 L28.75,28.75 L16.25,28.75 C15.5596441,28.75 15,28.1903559 15,27.5 C15,26.8096441 15.5596441,26.25 16.25,26.25 L16.25,26.25 Z M11.25,21.25 C11.9403559,21.25 12.5,21.8096441 12.5,22.5 C12.5,23.1903559 11.9403559,23.75 11.25,23.75 C10.5596441,23.75 10,23.1903559 10,22.5 C10,21.8096441 10.5596441,21.25 11.25,21.25 Z M28.75,21.25 C29.4403559,21.25 30,21.8096441 30,22.5 C30,23.1903559 29.4403559,23.75 28.75,23.75 L28.75,23.75 L16.25,23.75 C15.5596441,23.75 15,23.1903559 15,22.5 C15,21.8096441 15.5596441,21.25 16.25,21.25 L16.25,21.25 Z M33.75,6.25 L6.25,6.25 C4.86928813,6.25 3.75,7.36928813 3.75,8.75 L3.75,8.75 L3.75,13.75 L36.25,13.75 L36.25,8.75 C36.25,7.36928813 35.1307119,6.25 33.75,6.25 L33.75,6.25 Z M8.75,8.75 C9.44035594,8.75 10,9.30964406 10,10 C10,10.6903559 9.44035594,11.25 8.75,11.25 L8.75,11.25 L7.5,11.25 C6.80964406,11.25 6.25,10.6903559 6.25,10 C6.25,9.30964406 6.80964406,8.75 7.5,8.75 L7.5,8.75 Z M15,8.75 C15.6903559,8.75 16.25,9.30964406 16.25,10 C16.25,10.6903559 15.6903559,11.25 15,11.25 L15,11.25 L13.75,11.25 C13.0596441,11.25 12.5,10.6903559 12.5,10 C12.5,9.30964406 13.0596441,8.75 13.75,8.75 L13.75,8.75 Z" id="形状结合" fill="#FFFFFF"></path>
        </g>
    </g>
</svg>