<?xml version="1.0" encoding="UTF-8"?>
<svg width="40px" height="40px" viewBox="0 0 40 40" version="1.1" xmlns="http://www.w3.org/2000/svg" xmlns:xlink="http://www.w3.org/1999/xlink">
    <title>数据资源审核</title>
    <g id="数据资源审核" stroke="none" stroke-width="1" fill="none" fill-rule="evenodd">
        <g id="数据4" fill-rule="nonzero">
            <rect id="矩形" fill="#000000" opacity="0" x="0" y="0" width="40" height="40"></rect>
            <path d="M13.8944863,4.89626742 L14.2,4.9 C20,4.9 25.8,6.5 25.8,9.5 L25.8,9.5 L25.8,14.5 C26.4,14.4 27,14.3 27.6,14.3 C33.8,14.3 38.7,19.2 38.7,25.4 C38.7,31.6 33.7,36.6 27.5,36.6 C25,36.6 22.6,35.7 20.7,34.2 C18.8,34.7 16.5,35 14.2,35 C8.4,35 2.6,33.4 2.6,30.4 L2.6,30.4 L2.7,30.4 C2.6,30.3 2.6,30.1 2.6,30 L2.6,9.4 C2.6,6.4 8.5,4.8 14.2,4.9 Z M27.6,16.3 C27,16.3 26.4,16.4 25.8,16.5 L25.8,16.5 L25.74,16.5488 C25.66,16.6 25.58,16.6 25.5,16.6 C21.4,17.5 18.4,21.2 18.4,25.5 C18.4,30.6 22.5,34.7 27.6,34.7 C32.7,34.7 36.8,30.5 36.8,25.5 C36.8,20.4 32.7,16.3 27.6,16.3 Z M4.6,26.1 L4.6,30.4 L4.60461032,30.4620779 C4.75193669,31.4686381 8.42040816,33.0979592 14.2,33 C16,33 17.6,32.9 19,32.6 C17.9,31.3 17.1,29.7 16.7,27.9 C15.9,28 15,28 14.2,28 C10.5,28 6.8,27.4 4.6,26.1 L4.6,26.1 Z M28,20 C31.2090925,20 33.9281878,23.2808333 34.8451824,24.5270833 C35.0516059,24.8035732 35.0516059,25.1964268 34.8451824,25.4729167 C33.9281877,26.7191667 31.2090924,30 28,30 C24.7909075,30 22.0718122,26.7191667 21.1548176,25.4729167 C20.9483941,25.1964268 20.9483941,24.8035732 21.1548176,24.5270833 C22.0718122,23.2808333 24.7909075,20 28,20 Z M28,22 C25.7861376,22 23.7700246,24.099675 23,25 C23.7700246,25.900325 25.7861376,28 28,28 C30.2138624,28 32.2299754,25.900325 33,25 C32.2299754,24.099675 30.2138624,22 28,22 Z M28.0002502,23 C29.104761,23 30,23.8953649 30,25.0002141 C30,25.809257 29.5125633,26.5388404 28.765111,26.8480103 C28.0166936,27.1575068 27.150077,26.9851626 26.5857207,26.4145945 C26.0138344,25.8424856 25.842713,24.9825163 26.1523613,24.234874 C26.4616391,23.4872316 27.1909422,23 27.9998798,23 L27.9998798,23 Z M4.6,19.1 L4.6,23.4 C4.6,24.3 8.2,26 14.2,26 C15,26 15.7,26 16.4,25.9 L16.4,25.9 L16.4,25.4 C16.4,23.8 16.8,22.2 17.4,20.8 C16.4,20.9 15.3,21 14.2,21 C10.5,21 6.8,20.4 4.6,19.1 L4.6,19.1 Z M28,24 C27.4477778,24 27,24.4476534 27,25 C27,25.5523466 27.4477778,26 28,26 C28.5522222,26 29,25.5523466 29,25 C29,24.4476534 28.5522222,24 28,24 Z M23.8,12.1 C21.6,13.3 17.9,14 14.2,14 C10.5,14 6.8,13.4 4.6,12.1 L4.6,12.1 L4.6,16.5 C4.6,17.4 8.2,19.1 14.2,19.1 C15.9,19.1 17.4,18.9 18.7,18.7 C20,17 21.8,15.7 23.8,15 L23.8,15 Z M14.2,6.8 C8.3,6.8 4.6,8.5 4.6,9.4 C4.6,10.3 8.2,12 14.2,12 C20.2,12 23.8,10.3 23.8,9.4 C23.8,8.5 20.2,6.8 14.2,6.8 Z" id="形状结合" fill="#FFFFFF"></path>
        </g>
    </g>
</svg>