<?xml version="1.0" standalone="no"?><!DOCTYPE svg PUBLIC "-//W3C//DTD SVG 1.1//EN" "http://www.w3.org/Graphics/SVG/1.1/DTD/svg11.dtd"><svg t="1590559922835" class="icon" viewBox="0 0 1072 1024" version="1.1" xmlns="http://www.w3.org/2000/svg" p-id="2250" xmlns:xlink="http://www.w3.org/1999/xlink" width="209.375" height="200"><defs><style type="text/css"></style></defs><path d="M889.43940594 456.972635a364.03440188 364.03440188 0 0 0-39.87490219-12.31430812v-241.94683313-1.5598125-1.75918687c0-49.2572325-45.23455781-93.42455063-127.40031281-124.31587219C648.58326781 47.24628594 551.24159469 32 448.27052375 32S248.00469125 47.24628594 174.35340125 75.04143875C92.18764625 105.97967188 46.95308844 150.10007844 46.95308844 199.35731v529.43315156h0.41047687c4.53870187 46.09069594 49.2572325 87.24394031 126.98983594 116.55199313 73.66301813 27.74824125 95.87568375 43.0179825 198.85848281 43.01798343 16.71227531 0 30.28147031-12.36121969 30.28147031-27.61923375s-13.55746687-27.5957775-30.28147031-27.59577843c-95.23064906 0-109.30414406-13.82720906-175.76622375-38.83111782-56.29398-21.1923375-89.96481656-48.58874156-89.96481562-73.28772468V568.97419813c18.38936625 12.25566844 40.75449563 23.45582531 66.84910031 33.27208781 73.66301813 27.71305687 95.87568375 42.99452719 198.85848375 42.99452719 16.71227531 0 30.28147031-12.37294781 30.28146937-27.61923375s-13.54573875-27.60750562-30.25801406-27.60750563c-95.23064906 0-109.30414406-13.83893625-175.76622375-38.84284594-56.29398-21.22752188-89.96481656-48.623925-89.96481562-73.32290906V290.51837375c18.38936625 12.24394031 40.75449563 23.45582531 66.84910031 33.26035969 73.67474625 27.74824125 170.95777969 43.04143875 273.94057875 43.04143875s200.25410437-15.24628594 273.94057875-43.04143875c26.11806094-9.83971875 48.48319031-21.01641938 66.84910125-33.26035969v143.08053188a634.96090688 634.96090688 0 0 0-77.50977375-4.69116563c-66.69663844 0.02345625-129.8162625 9.96872531-177.90070406 28.064895-76.23143063 28.72165781-87.56059406 67.59968719-87.56059407 88.18217344v335.57075812h0.22283063C448.17670062 902.2111025 463.28225188 937.39484 533.64972594 963.95856125c47.96716219 18.06098531 111.07505906 28.02971062 177.724785 28.04143875h0.17591906c66.64972594 0 129.75762281-9.98045344 177.74824125-28.04143875 70.47302625-26.56372125 85.49648156-61.78264313 87.37294687-83.26817812h0.29319844V548.34480031c0.05863969-1.10242406 0.09382313-2.16966375 0.09382313-3.18999187-0.09382313-20.58248625-11.41125844-59.48397188-87.61923375-88.18217344zM699.10711531 272.69194719c-66.52071937 25.06254844-155.59421438 38.87802937-250.83659156 38.87802937S263.90774 297.75449563 197.44566031 272.7154025c-56.29398-21.22752188-89.96481656-48.61219687-89.96481562-73.32290813s33.64738031-52.07193094 89.96481562-73.28772468C263.90774 101.04222031 353.03987469 87.26192375 448.27052375 87.26192375s184.31587219 13.7802975 250.84831875 38.85457313c56.29398 21.21579375 89.96481656 48.61219687 89.96481656 73.28772562s-33.64738031 52.09538719-89.97654375 73.28772469z m217.30648875 602.275215v0.7974975c0 9.07740469-15.5043 24.07740469-50.17200937 37.11884344-40.21501219 15.1290075-96.50899125 23.84284594-154.52697375 23.87802937h-0.15246282c-58.11180656 0-114.53479312-8.69038313-154.80844406-23.87802937-34.632525-13.0179825-50.13682594-28.05316687-50.13682593-37.11884344v-77.83815469A255.59812312 255.59812312 0 0 0 533.64972594 809.85379156c47.9085225 18.04925719 110.91086812 27.99452719 177.46677093 28.02971157h0.28147032c66.70836562 0 129.86317406-9.96872531 177.88897593-28.04143875a255.37529344 255.37529344 0 0 0 27.07974938-11.9272875z m0-154.09304156v0.79749749c0 9.05394844-15.5043 24.05394844-50.17200937 37.11884344C825.97967188 773.9546525 769.59186875 782.58639594 711.50351844 782.58639594s-114.523065-8.64347156-154.71462094-23.79593438c-34.65598125-13.05316687-50.17200938-28.05316687-50.17200938-37.11884343v-100.26192282A255.37529344 255.37529344 0 0 0 533.64972594 633.33698188c48.00234563 18.09616875 111.16888219 28.05316687 177.87724781 28.05316687s129.85144687-9.96872531 177.86552062-28.05316687a255.66849094 255.66849094 0 0 0 26.97419813-11.880375z m0-175.71931219v1.17279093c-1.27834219 9.15949969-16.91164969 23.45582531-50.07818531 35.91086813-40.27365094 15.18764625-96.69663844 23.87802938-154.808445 23.87802938s-114.53479312-8.71383938-154.80844406-23.87802938c-34.59734156-13.0179825-50.10164156-28.00625531-50.10164157-37.08365906s15.5043-24.10086 50.17200938-37.1188425C596.98045344 492.90695844 653.45035156 484.15793563 711.56215812 484.15793563c58.10007844 0 114.523065 8.69038313 154.80844407 23.85457406 34.60906969 13.04143875 50.13682594 28.08835031 50.13682593 37.14229875z" fill="#1296DB" p-id="2251"></path></svg>