<?xml version="1.0" encoding="UTF-8"?>
<svg width="40px" height="40px" viewBox="0 0 40 40" version="1.1" xmlns="http://www.w3.org/2000/svg" xmlns:xlink="http://www.w3.org/1999/xlink">
    <title>数据资产登记簿</title>
    <g id="数据资产登记簿" stroke="none" stroke-width="1" fill="none" fill-rule="evenodd">
        <g id="配比数据库备份-2" fill-rule="nonzero">
            <rect id="矩形" fill="#000000" opacity="0" x="0" y="0" width="40" height="40"></rect>
            <path d="M28.7150804,19.5854464 C29.2688666,19.5854464 29.7670482,19.7448544 30.2087467,20.0636706 C30.6510727,20.3824868 30.9622323,20.7936843 31.1409702,21.2972633 L32.1458687,21.2972633 C32.8561761,21.2972633 33.462931,21.5480486 33.9653802,22.0491171 C34.4680805,22.5506878 34.7193679,23.1561875 34.7193679,23.8644865 L34.7193679,35.8459497 C34.7193679,36.5546253 34.4680805,37.1594974 33.9653802,37.661068 C33.4629309,38.1626387 32.8561761,38.4131729 32.1458687,38.4131729 L21.8536292,38.4131729 C21.1438239,38.4131729 20.5370691,38.1626387 20.0346198,37.661068 C19.5319195,37.1594974 19.2806321,36.5546253 19.2806321,35.8459497 L19.2806321,23.864361 C19.2806321,23.1559364 19.5319195,22.5505623 20.0346198,22.0489916 C20.5370691,21.5479231 21.1438239,21.2971377 21.8536292,21.2971377 L22.8590298,21.2971377 C23.0377677,20.7935588 23.3489273,20.3823613 23.7912533,20.0636706 C24.2329518,19.7448544 24.7311334,19.5854464 25.2849196,19.5854464 L28.7150804,19.5854464 Z M22.8590298,23.0092057 L21.8531271,23.0092057 C21.6161488,23.0092057 21.4140646,23.0928008 21.2468744,23.259991 C21.07868,23.4275578 20.9949594,23.6290144 20.9949594,23.8649886 L20.9949594,35.8464517 C20.9949594,36.0825514 21.0785545,36.2840081 21.2468744,36.4520769 C21.4140646,36.6186395 21.6161488,36.7026112 21.8531271,36.7026112 L32.1453666,36.7026112 C32.3822194,36.7026112 32.5846803,36.6186396 32.7518705,36.4520769 C32.9200648,36.2838826 33.0036599,36.0825514 33.0036599,35.8464517 L33.0036599,23.8651141 C33.0036599,23.6288889 32.9200648,23.4275578 32.7518705,23.259991 C32.5845548,23.0928008 32.3822194,23.0092057 32.1453666,23.0092057 L31.1408447,23.0092057 C30.9621068,23.5127846 30.6509472,23.9238566 30.2086212,24.2426728 C29.7669227,24.5612379 29.2687411,24.7208971 28.7149549,24.7208971 L25.2844176,24.7208971 C24.7301293,24.7208971 24.2321987,24.5612379 23.7899981,24.2426728 C23.3477976,23.9238566 23.0372656,23.5127846 22.8590298,23.0092057 Z M17.1833333,3.33333332 C24.8333333,3.33333332 31.0333333,6.66666668 31.0333333,10.6333333 L31.0333333,10.6333333 L31.0333333,17.2 L29.0666667,17.2 L29.0666667,14.3833333 C25.620779,16.8744664 21.4304953,18.1203852 17.1833333,17.9166667 C12.15,17.9166666 7.73333336,16.5 5.31666668,14.3833333 L5.31666668,14.3833333 L5.31666668,17.9166667 C5.31666668,20 9.58333332,21.6666667 15.2,22.0333333 L15.2,22.0333333 L15.2,24.1 C11.695898,24.035771 8.27688467,23.0094904 5.31666668,21.1333333 L5.31666668,21.1333333 L5.31666668,24.2333333 C5.31666668,26.3 9.58333336,28.0166666 15.2166667,28.3333333 L15.2166667,28.3333333 L15.2166667,30.35 C11.7070111,30.2879608 8.28205719,29.2616278 5.31666668,27.3833333 L5.31666668,27.3833333 L5.31666668,30.4166667 C5.31666664,32.7166666 10.6333333,34.5833333 17.1833333,34.5833333 L17.1833333,34.5833333 L17.1833333,36.6666667 C9.53333332,36.6666667 3.33333332,33.8666667 3.33333332,30.4166667 L3.33333332,30.4166667 L3.33333332,10.6333333 C3.33333332,6.66666668 9.53333332,3.33333332 17.1833333,3.33333332 Z M28.7155824,21.2972633 L25.2849196,21.2972633 C25.0483179,21.2972633 24.8468612,21.3807328 24.6779137,21.5482996 C24.5109745,21.7157409 24.4268774,21.917072 24.4268774,22.1532972 C24.4268774,22.389648 24.5109745,22.5913557 24.6779137,22.7586714 C24.8467357,22.9259871 25.0481923,23.0099588 25.2849196,23.0099588 L28.7155824,23.0099588 C28.9521842,23.0099588 29.1548961,22.9259871 29.3220863,22.7586714 C29.4900296,22.5912301 29.5738757,22.389648 29.5738757,22.1531717 C29.5738757,21.917072 29.4900296,21.7157409 29.3220863,21.5482996 C29.1547706,21.3807328 28.9521842,21.2972633 28.7155824,21.2972633 Z M17.1833333,5.41666668 C10.6333334,5.41666668 5.31666668,7.76666664 5.31666668,10.6333333 C5.31666668,13.5 10.6333333,15.8333333 17.1833333,15.8333333 C23.75,15.8333333 29.0666667,13.5166666 29.0666667,10.6333333 C29.0666667,7.75 23.7333333,5.41666668 17.1833333,5.41666668 Z" id="形状结合" fill="#FFFFFF"></path>
        </g>
    </g>
</svg>