<?xml version="1.0" encoding="UTF-8"?>
<svg width="40px" height="40px" viewBox="0 0 40 40" version="1.1" xmlns="http://www.w3.org/2000/svg" xmlns:xlink="http://www.w3.org/1999/xlink">
    <title>数据源管理</title>
    <g id="数据源管理" stroke="none" stroke-width="1" fill="none" fill-rule="evenodd">
        <g id="配比数据库" fill-rule="nonzero">
            <rect id="矩形" fill="#000000" opacity="0" x="0" y="0" width="40" height="40"></rect>
            <path d="M27.35,24.45 C25.4446176,24.45 23.9,25.9946176 23.9,27.9 C23.9,29.8053824 25.4446176,31.35 27.35,31.35 C29.2553824,31.35 30.8,29.8053824 30.8,27.9 C30.8,25.9946176 29.2553824,24.45 27.35,24.45 L27.35,24.45 Z M27.35,29.5666667 C26.4295254,29.5666667 25.6833333,28.8204746 25.6833333,27.9 C25.6833333,26.9795254 26.4295254,26.2333333 27.35,26.2333333 C28.2704746,26.2333333 29.0166667,26.9795254 29.0166667,27.9 C29.0166667,28.8204746 28.2704746,29.5666667 27.35,29.5666667 L27.35,29.5666667 Z M36.4666667,26.1 C36.4272471,25.4974657 35.9518842,25.0150078 35.35,24.9666667 L35.2666667,24.9666667 C34.1962258,24.9575173 33.3332942,24.0871466 33.3333333,23.0166667 C33.3457174,22.7643759 33.4021224,22.5161938 33.5,22.2833333 C33.7213318,21.6711254 33.5022985,20.9866462 32.9666667,20.6166667 L30.6833333,19.3666667 C30.50526,19.2867718 30.3118178,19.2469455 30.1166667,19.25 C29.7093663,19.2551713 29.3180604,19.4093221 29.0166667,19.6833333 C28.6072689,20.1385828 28.0649895,20.4534547 27.4666667,20.5833333 C26.8554977,20.4522121 26.3013608,20.131396 25.8833333,19.6666667 C25.5920734,19.3748862 25.195586,19.2126868 24.7833333,19.2166667 C24.5933479,19.2114521 24.4048409,19.2514385 24.2333333,19.3333333 L21.9166667,20.6 C21.3993463,20.9838297 21.2016273,21.6656193 21.4333333,22.2666667 C21.5382979,22.4980098 21.6004151,22.7464787 21.6166667,23 C21.6320704,23.5497535 21.4146096,24.0804504 21.0178687,24.4613216 C20.6211279,24.8421928 20.0820006,25.0378205 19.5333333,25 L19.4333333,25 C18.8833333,25 18.45,25.45 18.3166667,26.1333333 C18.211449,26.7280189 18.1501722,27.3296462 18.1333333,27.9333333 C18.156608,28.5318456 18.2234516,29.1278673 18.3333333,29.7166667 C18.380704,30.3218835 18.8614498,30.8026293 19.4666667,30.85 L19.55,30.85 C20.6269553,30.85 21.5,31.7230447 21.5,32.8 C21.477276,33.0507642 21.4212269,33.2973804 21.3333333,33.5333333 C21.070934,34.1654969 21.2863281,34.8950575 21.85,35.2833333 L24.1,36.5166667 C24.2775464,36.5981811 24.4713599,36.6380838 24.6666667,36.6333333 C25.0825427,36.6388718 25.4816397,36.469558 25.7666667,36.1666667 C26.206329,35.6799087 26.7904772,35.3469442 27.4333333,35.2166667 C28.0805118,35.345687 28.6666483,35.6856461 29.1,36.1833333 C29.3375704,36.4404766 29.6544234,36.6106384 30,36.6666775 C30.2127941,36.6674839 30.4232176,36.621987 30.6166667,36.5333333 L32.8833333,35.2833333 C33.4161989,34.9104688 33.6173725,34.2167669 33.3666667,33.6166667 C33.2700585,33.3834004 33.2137042,33.1354414 33.2,32.8833333 C33.2,31.8063781 34.0730447,30.9333333 35.15,30.9333333 L35.2333333,30.9333333 C35.8352175,30.8849922 36.3105805,30.4025343 36.35,29.8 C36.520569,29.1792319 36.6266856,28.5425328 36.6666667,27.9 C36.6562812,27.2950757 36.5893227,26.6924498 36.4666667,26.1 L36.4666667,26.1 Z M34.8,29.1 C32.944073,29.3348891 31.551973,30.9126025 31.55,32.7833333 C31.5612187,33.1688248 31.6285943,33.5506199 31.75,33.9166667 L30.0833333,34.8166667 C29.9333333,34.6833334 29.7,34.4666667 29.4166667,34.25 C28.8254302,33.7653857 28.0963999,33.4796058 27.3333333,33.4333333 C26.5762291,33.4702993 25.8513335,33.7509041 25.2666667,34.2333333 C25.0329529,34.4082704 24.810304,34.597522 24.6,34.8 L23.0333333,33.9166667 C23.1633149,33.5586064 23.230961,33.1809156 23.2333333,32.8 C23.2408316,30.9285084 21.855616,29.3433648 20,29.1 C19.9314765,28.7034372 19.8924805,28.3023355 19.8833333,27.9 C19.8908107,27.4865207 19.9298127,27.0742139 20,26.6666667 C21.8727939,26.4651104 23.3021033,24.9000165 23.3333333,23.0166667 C23.330961,22.635751 23.2633149,22.2580603 23.1333333,21.9 L24.8,20.9666667 C25.0075881,21.1670501 25.230486,21.3509408 25.4666667,21.5166667 C26.048198,21.9775027 26.7589756,22.2455007 27.5,22.2833333 C28.2283027,22.2467415 28.9272185,21.9846481 29.5,21.5333333 C29.7319768,21.368104 29.9545456,21.190049 30.1666667,21 L31.8333333,21.9 C31.7116531,22.2602429 31.6442485,22.6365853 31.6333333,23.0166667 C31.6516443,24.8391179 32.9831609,26.3819863 34.7833333,26.6666667 C34.8447654,27.0582311 34.8781835,27.4536794 34.8833333,27.85 C34.8808225,28.2685605 34.8473982,28.6863638 34.7833333,29.1 L34.8,29.1 Z M17.1833333,3.33333332 C9.53333332,3.33333332 3.33333332,6.66666668 3.33333332,10.6333333 L3.33333332,30.4166667 C3.33333332,33.8666667 9.53333332,36.6666667 17.1833333,36.6666667 L17.1833333,34.5833333 C10.6333333,34.5833333 5.31666664,32.7166666 5.31666668,30.4166667 L5.31666668,27.3833333 C8.28205719,29.2616278 11.7070111,30.2879608 15.2166667,30.35 L15.2166667,28.3333333 C9.58333336,28.0166666 5.31666668,26.3 5.31666668,24.2333333 L5.31666668,21.1333333 C8.27688467,23.0094904 11.695898,24.035771 15.2,24.1 L15.2,22.0333333 C9.58333332,21.6666667 5.31666668,20 5.31666668,17.9166667 L5.31666668,14.3833333 C7.73333336,16.5 12.15,17.9166666 17.1833333,17.9166667 C21.4304953,18.1203852 25.620779,16.8744664 29.0666667,14.3833333 L29.0666667,17.2 L31.0333333,17.2 L31.0333333,10.6333333 C31.0333333,6.66666668 24.8333333,3.33333332 17.1833333,3.33333332 Z M17.1833333,15.8333333 C10.6333333,15.8333333 5.31666668,13.5 5.31666668,10.6333333 C5.31666668,7.76666664 10.6333334,5.41666668 17.1833333,5.41666668 C23.7333333,5.41666668 29.0666667,7.75 29.0666667,10.6333333 C29.0666667,13.5166666 23.75,15.8333333 17.1833333,15.8333333 Z" id="形状" fill="#FFFFFF"></path>
        </g>
    </g>
</svg>