<?xml version="1.0" encoding="UTF-8"?>
<svg width="40px" height="40px" viewBox="0 0 40 40" version="1.1" xmlns="http://www.w3.org/2000/svg" xmlns:xlink="http://www.w3.org/1999/xlink">
    <title>数据稽核结果管理</title>
    <g id="数据稽核结果管理" stroke="none" stroke-width="1" fill="none" fill-rule="evenodd">
        <g id="查询协议设置" fill-rule="nonzero">
            <rect id="矩形" fill="#000000" opacity="0" x="0" y="0" width="40" height="40"></rect>
            <path d="M20.1,39.1 L6,39 C3.3,39 1,36.8 1,34 L1,6 C1,3.3 3.2,1 6,1 L27.5,1 C30.2,1 32.5,3.2 32.5,6 L32.5,16.4 C32.5,17.3 31.8,18.1 30.8,18.1 C29.9,18.1 29.1,17.4 29.1,16.4 L29.1,6 C29.1,5.1 28.4,4.3 27.4,4.3 L6,4.3 C5.1,4.3 4.3,5 4.3,6 L4.3,34.1 C4.3,35 5,35.8 6,35.8 L20.1,35.8 C21.5,35.8 22.2,36.4 22.2,37.5 C22.2,38.6 21.5,39.1 20.1,39.1 Z M8.3,29.9 C8.2,29.9 8,29.9 7.9,29.8 C7.5,29.6 7.4,29.1 7.6,28.7 C11.1,22.4 12.5,22.6 13,22.7 C13.3,22.8 13.9,23 14.1,24 C14.3,24.8 14.3,25.7 14.4,26.4 L14.4,26.9 L15,26.2 C16.2,24.8 17,24 17.9,24.2 C18.7,24.4 19,25.3 19,25.6 C19.1,26.1 19.1,26.5 19.1,26.9 C19.2,26.8 19.4,26.8 19.5,26.7 C19.9,26.5 20.4,26.7 20.6,27.1 C20.8,27.5 20.6,28 20.2,28.2 C18.9,28.8 18.2,29.1 17.6,28.6 C17.1,28.2 17.2,27.6 17.3,27.2 C17.4,26.8 17.5,26.4 17.4,26 C17.1,26.3 16.6,26.8 16.2,27.3 L15.5,28 C15.1,28.4 14.4,29.2 13.6,28.9 C12.8,28.6 12.7,27.7 12.7,26.5 C12.7,25.9 12.6,25.3 12.5,24.6 C11.7,25.3 10.3,27.3 9,29.6 C8.8,29.8 8.6,29.9 8.3,29.9 L8.3,29.9 Z M7.6,10.9 L25.8,10.9 L25.8,12.6 L7.6,12.6 L7.6,10.9 Z M7.6,14.2 L25.8,14.2 L25.8,15.9 L7.6,15.9 L7.6,14.2 Z M7.6,17.5 L22.5,17.5 L22.5,19.2 L7.6,19.2 L7.6,17.5 Z M37.5,27.9 L39.1,27.9 C39.6,27.9 40,28.4 40,28.9 L40,30.7 C40,31.2 39.6,31.7 39.1,31.7 L37.5,31.7 C37.3,32 37.1,32.7 36.9,33.2 L38,34.3 C38.4,34.7 38.4,35.2 38,35.6 L36.7,37 C36.3,37.4 35.8,37.4 35.4,37 L34.3,35.9 C33.8,36.2 33.1,36.4 32.8,36.5 L32.8,38.1 C32.8,38.6 32.3,39 31.8,39 L30,39 C29.5,39 29,38.6 29,38.1 L29,36.5 C28.7,36.3 28,36.1 27.5,35.9 L26.4,37 C26,37.4 25.5,37.4 25.1,37 L23.8,35.7 C23.4,35.3 23.4,34.8 23.8,34.4 L24.9,33.3 C24.6,32.8 24.4,32.1 24.3,31.8 L22.7,31.8 C22.2,31.8 21.8,31.3 21.8,30.8 L21.8,29 C21.8,28.5 22.2,28 22.7,28 L24.3,28 C24.5,27.7 24.7,27 24.9,26.5 L23.8,25.4 C23.4,25 23.4,24.5 23.8,24.1 L25.1,22.8 C25.5,22.4 26,22.4 26.4,22.8 L27.5,23.9 C28,23.6 28.7,23.4 29,23.3 L29,21.7 C29,21.2 29.5,20.8 30,20.8 L31.8,20.8 C32.3,20.8 32.8,21.2 32.8,21.7 L32.8,23.3 C33.1,23.5 33.8,23.7 34.3,23.9 L35.4,22.8 C35.8,22.4 36.3,22.4 36.7,22.8 L38,24 C38.4,24.4 38.4,24.9 38,25.3 L36.9,26.4 C37.1,26.9 37.3,27.5 37.5,27.9 L37.5,27.9 Z M26.8,29.8 C26.8,32.1 28.6,33.9 30.9,33.9 C33.2,33.9 35,32 35,29.8 C35,27.5 33.2,25.7 30.9,25.7 C28.6,25.7 26.8,27.5 26.8,29.8 L26.8,29.8 Z" id="形状" fill="#FFFFFF"></path>
        </g>
    </g>
</svg>