<?xml version="1.0" encoding="UTF-8"?>
<svg width="40px" height="40px" viewBox="0 0 40 40" version="1.1" xmlns="http://www.w3.org/2000/svg" xmlns:xlink="http://www.w3.org/1999/xlink">
    <title>数据资产实施</title>
    <g id="数据资产实施" stroke="none" stroke-width="1" fill="none" fill-rule="evenodd">
        <g id="配比数据库" fill-rule="nonzero">
            <rect id="矩形" fill="#000000" opacity="0" x="0" y="0" width="40" height="40"></rect>
            <path d="M27.7466296,34.1107036 L28.9470297,35.3111037 L28.1127516,36.1273758 L28.2387937,36.7995999 C28.3668287,36.9288737 28.4381028,37.1038192 28.4368597,37.2857619 C28.4368597,37.6735951 28.1224588,37.987996 27.7346256,37.987996 C27.3467925,37.987996 27.0323916,37.6735951 27.0323915,37.2857619 C27.0339233,37.140705 27.0795477,37.0004585 27.1619112,36.8830717 L27.2304575,36.7995999 L27.3625016,36.1273758 L26.5462295,35.3111037 L27.7466296,34.1107036 Z M27.7106176,20 C30.921688,20 33.3224882,22.5148383 33.3224882,25.8459486 C33.4157559,27.0410182 33.1324048,28.2352904 32.5122181,29.261087 L32.3539154,29.5071691 L32.3539154,29.5071691 L32.1821081,29.7532511 L32.1821081,29.7892631 C32.0740721,29.9453151 31.9420281,30.1073691 31.8039821,30.2814271 C31.2840631,30.8351203 30.9016447,31.5033243 30.6876099,32.2320774 C30.6400726,32.4478246 30.6059955,32.6663188 30.5855759,32.8862954 C30.86767,32.9403134 31.143762,32.9943314 31.40785,33.0603534 C32.5017782,33.3491165 33.5237318,33.8621372 34.4088504,34.5668556 C34.9584166,34.9630075 35.2665367,35.6132315 35.2251224,36.2894298 C35.2380103,36.5810995 35.1267956,36.8645881 34.9190204,37.0696899 C34.6189204,37.3637879 34.1507643,37.555852 30.5135519,37.60987 C30.1329413,37.6036857 29.8240629,37.3000873 29.8113178,36.9196399 C29.8081068,36.7333879 29.8790297,36.5534916 30.0084788,36.41954 C30.1379278,36.2855883 30.3152951,36.2085584 30.5015479,36.2054018 C31.6082904,36.2160444 32.7146674,36.1599238 33.8146523,36.0373458 C33.795039,35.8881066 33.708999,35.7557375 33.5805743,35.6772257 C32.849519,35.0928156 32.0056042,34.6657498 31.101748,34.4228076 C30.8086781,34.3538333 30.5133129,34.2952247 30.2162046,34.2470813 L29.7693038,34.1827276 L29.1390938,34.0986996 L29.1390938,33.4624875 C29.1529874,32.9522304 29.2112261,32.4441478 29.3131518,31.9439813 C29.5715275,30.9944975 30.0554028,30.121463 30.7236219,29.399133 C30.8181534,29.2775925 30.9059327,29.1695565 30.9768313,29.075025 L31.041728,28.984995 L31.071738,28.948983 C31.173772,28.798933 31.269804,28.660887 31.34783,28.528843 C31.8321624,27.7227418 32.0427124,26.7815832 31.9480301,25.8459486 C31.9480301,23.2770924 30.1834419,21.4044682 27.7466296,21.4044682 C25.3098173,21.4044682 23.5452291,23.2770924 23.5452291,25.8459486 C23.451395,26.7834423 23.661841,27.7262402 24.1454292,28.5348449 C24.1974466,28.618873 24.2574666,28.7082361 24.3219325,28.8011559 L24.4215212,28.942981 L24.4215212,28.984995 C24.5055493,29.099033 24.6195873,29.243081 24.7516313,29.4051351 C25.4069415,30.1190993 25.8822787,30.9792332 26.1380934,31.9139713 C26.2145377,32.2890962 26.266408,32.6686739 26.2934268,33.0502821 L26.3121515,33.4324775 L26.3121515,34.0746916 L25.7119514,34.1527176 C25.2577386,34.2106263 24.8069455,34.2927708 24.3615012,34.3987996 C23.3878547,34.6257862 22.4721275,35.0529892 21.6726049,35.6532177 C21.5328104,35.7406427 21.435137,35.8817265 21.4025149,36.0433478 C22.5741539,36.1741374 23.7529258,36.2302694 24.9316913,36.2114038 C25.3195245,36.2114038 25.6339254,36.5258047 25.6339254,36.9136379 C25.6339254,37.301471 25.3195245,37.6158719 24.9316913,37.6158719 C21.1024149,37.5738579 20.6162528,37.3757919 20.3101508,37.0816939 C20.0998348,36.8733215 19.9884688,36.5850801 20.0040487,36.2894298 C19.9599773,35.5971335 20.2780297,34.9314953 20.8443288,34.5308436 C21.7954948,33.7987369 22.8924682,33.2789024 24.0614012,33.0063354 C24.3254892,32.9463154 24.5895773,32.8982994 24.8656693,32.8502834 C24.8452689,32.6342703 24.8111892,32.4197684 24.7636353,32.2080694 C24.5449175,31.4928281 24.1673917,30.8362615 23.6592672,30.2874291 C23.5632351,30.1673891 23.4725382,30.0553518 23.3907332,29.9477604 L23.2751391,29.7892631 L23.2451291,29.7472491 C23.1310911,29.5851951 23.0230551,29.429143 22.9210211,29.261087 C22.3008344,28.2352904 22.0174833,27.0410182 22.110751,25.8459486 C22.110751,22.5148383 24.4995472,20 27.7106176,20 Z M17.1833333,3.33333332 C24.8333333,3.33333332 31.0333333,6.66666668 31.0333333,10.6333333 L31.0333333,10.6333333 L31.0333333,17.2 L29.0666667,17.2 L29.0666667,14.3833333 C25.620779,16.8744664 21.4304953,18.1203852 17.1833333,17.9166667 C12.15,17.9166666 7.73333336,16.5 5.31666668,14.3833333 L5.31666668,14.3833333 L5.31666668,17.9166667 C5.31666668,20 9.58333332,21.6666667 15.2,22.0333333 L15.2,22.0333333 L15.2,24.1 C11.695898,24.035771 8.27688467,23.0094904 5.31666668,21.1333333 L5.31666668,21.1333333 L5.31666668,24.2333333 C5.31666668,26.3 9.58333336,28.0166666 15.2166667,28.3333333 L15.2166667,28.3333333 L15.2166667,30.35 C11.7070111,30.2879608 8.28205719,29.2616278 5.31666668,27.3833333 L5.31666668,27.3833333 L5.31666668,30.4166667 C5.31666664,32.7166666 10.6333333,34.5833333 17.1833333,34.5833333 L17.1833333,34.5833333 L17.1833333,36.6666667 C9.53333332,36.6666667 3.33333332,33.8666667 3.33333332,30.4166667 L3.33333332,30.4166667 L3.33333332,10.6333333 C3.33333332,6.66666668 9.53333332,3.33333332 17.1833333,3.33333332 Z M17.1833333,5.41666668 C10.6333334,5.41666668 5.31666668,7.76666664 5.31666668,10.6333333 C5.31666668,13.5 10.6333333,15.8333333 17.1833333,15.8333333 C23.75,15.8333333 29.0666667,13.5166666 29.0666667,10.6333333 C29.0666667,7.75 23.7333333,5.41666668 17.1833333,5.41666668 Z" id="形状结合" fill="#FFFFFF"></path>
        </g>
    </g>
</svg>