<?xml version="1.0" encoding="utf-8"?>
<!-- Generator: Adobe Illustrator 16.0.0, SVG Export Plug-In . SVG Version: 6.00 Build 0)  -->
<!DOCTYPE svg PUBLIC "-//W3C//DTD SVG 1.1//EN" "http://www.w3.org/Graphics/SVG/1.1/DTD/svg11.dtd">
<svg version="1.1" id="图层_1" xmlns="http://www.w3.org/2000/svg" xmlns:xlink="http://www.w3.org/1999/xlink" x="0px" y="0px"
	 width="200px" height="200px" viewBox="0 0 200 200" enable-background="new 0 0 200 200" xml:space="preserve">
<path d="M196.574,172.225H180.16c-1.543-7.602-8.264-13.324-16.321-13.324c-8.057,0-14.778,5.724-16.321,13.324H3.335
	c-1.84,0-3.332,1.492-3.332,3.332s1.492,3.332,3.332,3.332h144.181c1.543,7.603,8.266,13.324,16.321,13.324
	c8.06,0,14.779-5.723,16.322-13.324h16.414c1.839,0,3.33-1.49,3.331-3.33c0,0,0-0.001,0-0.002c0.001-1.839-1.489-3.33-3.328-3.332
	C196.575,172.225,196.574,172.225,196.574,172.225L196.574,172.225z M163.838,185.551c-5.52,0-9.992-4.475-9.992-9.994
	c0-5.519,4.475-9.994,9.992-9.994c5.52,0,9.994,4.476,9.994,9.994C173.832,181.076,169.357,185.551,163.838,185.551L163.838,185.551
	z M196.574,32.315h-16.115c-1.543-7.603-8.264-13.325-16.32-13.325c-8.078,0-14.812,5.75-16.332,13.381
	c-0.197-0.037-0.396-0.055-0.596-0.056H116.65c-1.543-7.603-8.264-13.325-16.323-13.325c-8.082,0-14.799,5.723-16.343,13.325
	l-0.014,0.056c-0.196-0.037-0.396-0.055-0.595-0.056H52.721c-1.543-7.603-8.264-13.325-16.322-13.325
	c-8.054,0-14.771,5.723-16.314,13.325l-0.014,0.056c-0.196-0.037-0.396-0.055-0.596-0.056H3.335c-1.84,0-3.332,1.492-3.332,3.332
	s1.492,3.332,3.332,3.332h16.14c0.203,0,0.402-0.021,0.594-0.056l0.014,0.056c1.545,7.602,8.263,13.325,16.316,13.325
	c8.059,0,14.779-5.722,16.322-13.325h30.655c0.203,0,0.401-0.021,0.594-0.056l0.014,0.056c1.544,7.602,8.262,13.325,16.344,13.325
	c8.061,0,14.779-5.722,16.322-13.325h30.562c0.203,0,0.401-0.021,0.595-0.056c1.521,7.63,8.256,13.38,16.332,13.38
	c8.059,0,14.778-5.722,16.321-13.325h16.115c1.839,0,3.331-1.492,3.33-3.332C199.905,33.806,198.414,32.315,196.574,32.315
	L196.574,32.315z M36.399,45.639c-4.348,0-8.037-2.783-9.41-6.662c-0.369-1.043-0.58-2.162-0.58-3.332s0.211-2.288,0.58-3.331
	c1.373-3.879,5.062-6.663,9.41-6.663c4.35,0,8.04,2.784,9.413,6.663c0.37,1.043,0.581,2.161,0.581,3.331s-0.212,2.288-0.581,3.332
	C44.439,42.856,40.749,45.639,36.399,45.639z M109.741,38.977c-1.373,3.879-5.063,6.662-9.414,6.662
	c-4.24,0.004-8.022-2.666-9.438-6.662c-0.37-1.043-0.581-2.162-0.581-3.332s0.211-2.288,0.581-3.331
	c1.416-3.997,5.197-6.667,9.438-6.663c4.351,0,8.041,2.784,9.414,6.663c0.37,1.043,0.581,2.161,0.581,3.331
	S110.109,37.934,109.741,38.977z M164.137,45.639c-5.519,0-9.992-4.474-9.992-9.994c0-5.519,4.475-9.994,9.992-9.994
	c5.521,0,9.994,4.475,9.994,9.994C174.131,41.165,169.656,45.639,164.137,45.639L164.137,45.639z M196.54,105.721h-16.31
	c-1.551-7.611-8.271-13.331-16.32-13.331c-8.08,0-14.811,5.75-16.34,13.389c-0.195-0.035-0.393-0.055-0.59-0.061h-37.09
	c0.379,1.04,0.58,2.17,0.58,3.34c0,1.172-0.201,2.291-0.58,3.33h37.09c0.199,0,0.399-0.02,0.59-0.06
	c1.529,7.63,8.261,13.38,16.33,13.38c8.061,0,14.779-5.721,16.33-13.32h16.311c1.84,0,3.33-1.488,3.33-3.33
	C199.871,107.219,198.381,105.725,196.54,105.721z M163.9,119.05c-5.512,0-9.99-4.47-9.99-9.989c0-5.521,4.479-10,9.99-10
	c5.52,0,10,4.48,10,10C173.9,114.58,169.42,119.05,163.9,119.05z M3.33,105.721c-1.84,0-3.33,1.5-3.33,3.34s1.49,3.33,3.33,3.33
	h87.76c-0.387-1.068-0.583-2.195-0.58-3.33c0-1.17,0.2-2.301,0.58-3.34H3.33z M116.87,105.721
	c-1.55-7.611-8.28-13.341-16.341-13.341c-8.069,0-14.799,5.73-16.339,13.341c-0.22,1.069-0.33,2.189-0.33,3.329
	c0,1.15,0.11,2.261,0.34,3.341c1.54,7.609,8.26,13.33,16.329,13.33c8.061,0,14.791-5.721,16.33-13.33
	c0.221-1.08,0.341-2.189,0.341-3.341C117.2,107.91,117.09,106.79,116.87,105.721L116.87,105.721z M100.49,119.04
	c-4.226-0.001-7.993-2.665-9.4-6.649c-0.387-1.068-0.583-2.195-0.58-3.33c0-1.17,0.2-2.301,0.58-3.34
	c1.411-3.981,5.177-6.642,9.4-6.641c4.34,0,8.029,2.77,9.398,6.641c0.381,1.039,0.58,2.17,0.58,3.34s-0.199,2.289-0.58,3.33
	C108.482,116.375,104.716,119.04,100.49,119.04z"/>
</svg>
