<?xml version="1.0" standalone="no"?><!DOCTYPE svg PUBLIC "-//W3C//DTD SVG 1.1//EN" "http://www.w3.org/Graphics/SVG/1.1/DTD/svg11.dtd"><svg t="1579501409556" class="icon" viewBox="0 0 1024 1024" version="1.1" xmlns="http://www.w3.org/2000/svg" p-id="1163" xmlns:xlink="http://www.w3.org/1999/xlink" width="200" height="200"><defs><style type="text/css"></style></defs><path d="M959.9 563.6c1.5-34.4-30.9-46.9-30.9-46.9L749.8 440s0.4-133.3 0-169.2c-0.5-36.1-32.4-48.6-32.4-48.6S575.6 165 533.5 143.9c-22-11-44.8 0-44.8 0S355.3 203.7 314 220.6c-37.7 15.4-37.1 48.6-37.1 48.6v169.7S159.4 490.4 110 510.1c-47.3 18.8-46 58.3-46 58.3s0.4 135.4 0 170.7c-0.4 38.1 33.5 50.1 33.5 50.1s114 58.1 168.5 83.3c40.3 18.6 66.4 0.6 66.4 0.6l179-89.2s141.6 67.5 174.9 88.8c38.7 24.6 64.9 4.2 64.9 4.2s157.7-81 182.4-92.4c26.3-12.2 26.3-42.3 26.3-42.3s-1.5-144.2 0-178.6z m-658.3 67.3L137.7 558l163.8-72.8 166.9 72.1-166.8 73.6z m183.8 108l-157.6 79.8V676.2l157.6-68.9v131.6z m25.9-391.6L334 270.6l177.3-79.4 184.4 79.4-184.4 76.7z m28.3 47.1l156.1-68.9v115.9l-156.1 70.4V394.4z m186.2 236.5L562.7 558l156.1-72.8 170 72.8-163 72.9z m180 112.8l-154.6 75.2V676.2l154.6-68.9v136.4z" p-id="1164"></path></svg>