<?xml version="1.0" standalone="no"?><!DOCTYPE svg PUBLIC "-//W3C//DTD SVG 1.1//EN" "http://www.w3.org/Graphics/SVG/1.1/DTD/svg11.dtd"><svg t="1571981401518" class="icon" viewBox="0 0 1024 1024" version="1.1" xmlns="http://www.w3.org/2000/svg" p-id="11295" xmlns:xlink="http://www.w3.org/1999/xlink" width="200" height="200"><defs><style type="text/css"></style></defs><path d="M988.942 284.221L818.988 400.196v565.835H33.208V180.255h613.83V52.292l341.904 231.93zM782.998 934.038V422.182l-135.96 91.979V360.206c-4.004-1.318-8.68-1.997-14.005-1.997h-15.991c-21.337 0-47.67 1.997-78.985 5.997-31.32 4-62.976 12.677-94.969 25.996-33.324 14.677-65.317 34.987-95.97 60.983-30.671 25.996-55.988 60.32-75.973 102.973 0-34.652 4.649-68.98 13.988-102.973a424.4 424.4 0 0 1 39.994-96.977c18.654-29.313 40.984-55.985 66.98-79.98 25.992-23.997 55.64-43.302 88.975-57.976H67.202v717.79h715.796z m-101.97-815.773v97.98h-37.994c-39.987 0-76.315 5.338-108.97 15.998-32.662 10.677-62.32 24.665-88.976 41.98-26.665 18.679-49.319 40.336-67.976 64.98-18.674 24.675-33.99 50.996-45.991 78.978 25.316-19.985 51.309-35.983 77.984-47.981 26.645-11.998 52.637-21.313 77.97-27.993 26.656-6.66 50.982-11.001 72.981-13.001 21.996-1.99 40.984-2.994 56.983-2.994h63.982v123.962L926.95 284.221 681.03 118.265z" p-id="11296"></path></svg>