<?xml version="1.0" encoding="utf-8"?>
<!-- Generator: Adobe Illustrator 16.0.0, SVG Export Plug-In . SVG Version: 6.00 Build 0)  -->
<!DOCTYPE svg PUBLIC "-//W3C//DTD SVG 1.1//EN" "http://www.w3.org/Graphics/SVG/1.1/DTD/svg11.dtd">
<svg version="1.1" id="图层_1" xmlns="http://www.w3.org/2000/svg" xmlns:xlink="http://www.w3.org/1999/xlink" x="0px" y="0px"
	 width="200px" height="200px" viewBox="0 0 200 200" enable-background="new 0 0 200 200" xml:space="preserve">
<path d="M13.52,94.22h-0.19c-0.01,0-0.01,0-0.01,0c-3.19,0.01-5.78,2.59-5.78,5.78c0.01,3.2,2.59,5.78,5.79,5.78h0.19
	c-0.13-1.91-0.19-3.84-0.19-5.78C13.33,98.06,13.39,96.13,13.52,94.22z M100,7.55c-3.19,0-5.78,2.58-5.78,5.78v0.19
	c1.91-0.13,3.84-0.19,5.78-0.19c1.94,0,3.87,0.06,5.78,0.19v-0.19C105.78,10.13,103.19,7.55,100,7.55z M186.68,94.22h-0.189
	c0.13,1.91,0.189,3.84,0.189,5.78c0,1.94-0.06,3.87-0.189,5.78h0.189c3.2,0,5.78-2.59,5.78-5.78
	C192.46,96.81,189.87,94.22,186.68,94.22z M24.88,94.22H13.52c-0.13,1.91-0.19,3.84-0.19,5.78c0,1.94,0.06,3.87,0.19,5.78h11.36
	c3.19,0,5.78-2.58,5.78-5.78C30.66,96.81,28.07,94.23,24.88,94.22z M100,13.33c-1.94,0-3.87,0.06-5.78,0.19v11.37
	c0.01,3.19,2.59,5.77,5.78,5.77c3.2,0,5.78-2.59,5.78-5.78V13.52C103.87,13.39,101.94,13.33,100,13.33z M100,169.35
	c-3.19,0-5.78,2.58-5.78,5.771v11.37c1.91,0.13,3.84,0.189,5.78,0.189c1.94,0,3.87-0.06,5.78-0.189v-11.37
	C105.78,171.93,103.19,169.35,100,169.35z M113.69,112.86c-3.75-1.04-5.94-4.91-4.9-8.65c0.34-1.25,1.02-2.38,1.97-3.26
	c6.15-6.49,9.55-15.12,9.471-24.06c0-14.37-9.051-23.12-20.23-23.12c-11.17,0-20.22,8.75-20.22,23.12c-0.08,8.91,3.3,17.51,9.42,24
	h-0.04c2.87,2.63,3.06,7.08,0.43,9.95c-0.9,0.99-2.07,1.7-3.37,2.04c-18.8,3.63-32.45,14.021-32.45,21.79
	c0,9.58,20.7,11.561,46.23,11.561c25.54,0,46.23-1.98,46.23-11.561C146.23,126.88,132.54,116.48,113.69,112.86z M186.49,94.22
	h-11.37c-3.19,0.01-5.78,2.59-5.78,5.78c0,3.2,2.59,5.78,5.78,5.78h11.37c0.13-1.91,0.189-3.84,0.189-5.78
	C186.68,98.06,186.62,96.13,186.49,94.22z M113.69,112.86c-3.75-1.04-5.94-4.91-4.9-8.65c0.34-1.25,1.02-2.38,1.97-3.26
	c6.15-6.49,9.55-15.12,9.471-24.06c0-14.37-9.051-23.12-20.23-23.12c-11.17,0-20.22,8.75-20.22,23.12c-0.08,8.91,3.3,17.51,9.42,24
	h-0.04c2.87,2.63,3.06,7.08,0.43,9.95c-0.9,0.99-2.07,1.7-3.37,2.04c-18.8,3.63-32.45,14.021-32.45,21.79
	c0,9.58,20.7,11.561,46.23,11.561c25.54,0,46.23-1.98,46.23-11.561C146.23,126.88,132.54,116.48,113.69,112.86z M100,169.35
	c-3.19,0-5.78,2.58-5.78,5.771v11.37c1.91,0.13,3.84,0.189,5.78,0.189c1.94,0,3.87-0.06,5.78-0.189v-11.37
	C105.78,171.93,103.19,169.35,100,169.35z M100,13.33c-1.94,0-3.87,0.06-5.78,0.19v11.37c0.01,3.19,2.59,5.77,5.78,5.77
	c3.2,0,5.78-2.59,5.78-5.78V13.52C103.87,13.39,101.94,13.33,100,13.33z M24.88,94.22H13.52c-0.13,1.91-0.19,3.84-0.19,5.78
	c0,1.94,0.06,3.87,0.19,5.78h11.36c3.19,0,5.78-2.58,5.78-5.78C30.66,96.81,28.07,94.23,24.88,94.22z M186.49,94.22h-11.37
	c-3.19,0.01-5.78,2.59-5.78,5.78c0,3.2,2.59,5.78,5.78,5.78h11.37c0.13-1.91,0.189-3.84,0.189-5.78
	C186.68,98.06,186.62,96.13,186.49,94.22z M24.88,94.22H13.52c-0.13,1.91-0.19,3.84-0.19,5.78c0,1.94,0.06,3.87,0.19,5.78h11.36
	c3.19,0,5.78-2.58,5.78-5.78C30.66,96.81,28.07,94.23,24.88,94.22z M100,13.33c-1.94,0-3.87,0.06-5.78,0.19v11.37
	c0.01,3.19,2.59,5.77,5.78,5.77c3.2,0,5.78-2.59,5.78-5.78V13.52C103.87,13.39,101.94,13.33,100,13.33z M100,169.35
	c-3.19,0-5.78,2.58-5.78,5.771v11.37c1.91,0.13,3.84,0.189,5.78,0.189c1.94,0,3.87-0.06,5.78-0.189v-11.37
	C105.78,171.93,103.19,169.35,100,169.35z M113.69,112.86c-3.75-1.04-5.94-4.91-4.9-8.65c0.34-1.25,1.02-2.38,1.97-3.26
	c6.15-6.49,9.55-15.12,9.471-24.06c0-14.37-9.051-23.12-20.23-23.12c-11.17,0-20.22,8.75-20.22,23.12c-0.08,8.91,3.3,17.51,9.42,24
	h-0.04c2.87,2.63,3.06,7.08,0.43,9.95c-0.9,0.99-2.07,1.7-3.37,2.04c-18.8,3.63-32.45,14.021-32.45,21.79
	c0,9.58,20.7,11.561,46.23,11.561c25.54,0,46.23-1.98,46.23-11.561C146.23,126.88,132.54,116.48,113.69,112.86z M186.68,94.22
	h-11.56c-3.19,0.01-5.78,2.59-5.78,5.78c0,3.2,2.59,5.78,5.78,5.78h11.56c3.2,0,5.78-2.59,5.78-5.78
	C192.46,96.81,189.87,94.22,186.68,94.22z M113.69,112.86c-3.75-1.04-5.94-4.91-4.9-8.65c0.34-1.25,1.02-2.38,1.97-3.26
	c6.15-6.49,9.55-15.12,9.471-24.06c0-14.37-9.051-23.12-20.23-23.12c-11.17,0-20.22,8.75-20.22,23.12c-0.08,8.91,3.3,17.51,9.42,24
	h-0.04c2.87,2.63,3.06,7.08,0.43,9.95c-0.9,0.99-2.07,1.7-3.37,2.04c-18.8,3.63-32.45,14.021-32.45,21.79
	c0,9.58,20.7,11.561,46.23,11.561c25.54,0,46.23-1.98,46.23-11.561C146.23,126.88,132.54,116.48,113.69,112.86z M100,169.35
	c-3.19,0-5.78,2.58-5.78,5.771v11.37c1.91,0.13,3.84,0.189,5.78,0.189c1.94,0,3.87-0.06,5.78-0.189v-11.37
	C105.78,171.93,103.19,169.35,100,169.35z M100,30.66c3.2,0,5.78-2.59,5.78-5.78V13.33c0-3.2-2.59-5.78-5.78-5.78
	c-3.19,0-5.78,2.58-5.78,5.78v11.56C94.23,28.08,96.81,30.66,100,30.66z M24.88,94.22H13.33c-0.01,0-0.01,0-0.01,0
	c-3.19,0.01-5.78,2.59-5.78,5.78c0.01,3.2,2.59,5.78,5.79,5.78h11.55c3.19,0,5.78-2.58,5.78-5.78
	C30.66,96.81,28.07,94.23,24.88,94.22z M100,1.77C45.74,1.77,1.77,45.74,1.77,100s43.97,98.24,98.23,98.24s98.24-43.98,98.24-98.24
	S154.26,1.77,100,1.77z M105.78,186.49v0.189c0,3.19-2.58,5.78-5.78,5.78c-3.19,0-5.77-2.58-5.78-5.78v-0.189
	c-43.24-2.851-77.85-37.46-80.7-80.71h11.36c3.19,0,5.78-2.58,5.78-5.78c0-3.19-2.59-5.77-5.78-5.78H13.52
	c2.85-43.24,37.46-77.85,80.7-80.7v11.37c0.01,3.19,2.59,5.77,5.78,5.77c3.2,0,5.78-2.59,5.78-5.78V13.52
	c43.25,2.85,77.859,37.46,80.71,80.7h-11.37c-3.19,0.01-5.78,2.59-5.78,5.78c0,3.2,2.59,5.78,5.78,5.78h11.37
	C183.64,149.03,149.03,183.64,105.78,186.49z M113.69,112.86c-3.75-1.04-5.94-4.91-4.9-8.65c0.34-1.25,1.02-2.38,1.97-3.26
	c6.15-6.49,9.55-15.12,9.471-24.06c0-14.37-9.051-23.12-20.23-23.12c-11.17,0-20.22,8.75-20.22,23.12c-0.08,8.91,3.3,17.51,9.42,24
	h-0.04c2.87,2.63,3.06,7.08,0.43,9.95c-0.9,0.99-2.07,1.7-3.37,2.04c-18.8,3.63-32.45,14.021-32.45,21.79
	c0,9.58,20.7,11.561,46.23,11.561c25.54,0,46.23-1.98,46.23-11.561C146.23,126.88,132.54,116.48,113.69,112.86z M100,169.35
	c-3.19,0-5.78,2.58-5.78,5.771v11.37c1.91,0.13,3.84,0.189,5.78,0.189c1.94,0,3.87-0.06,5.78-0.189v-11.37
	C105.78,171.93,103.19,169.35,100,169.35z M186.49,94.22h-11.37c-3.19,0.01-5.78,2.59-5.78,5.78c0,3.2,2.59,5.78,5.78,5.78h11.37
	c0.13-1.91,0.189-3.84,0.189-5.78C186.68,98.06,186.62,96.13,186.49,94.22z M24.88,94.22H13.52c-0.13,1.91-0.19,3.84-0.19,5.78
	c0,1.94,0.06,3.87,0.19,5.78h11.36c3.19,0,5.78-2.58,5.78-5.78C30.66,96.81,28.07,94.23,24.88,94.22z M100,13.33
	c-1.94,0-3.87,0.06-5.78,0.19v11.37c0.01,3.19,2.59,5.77,5.78,5.77c3.2,0,5.78-2.59,5.78-5.78V13.52
	C103.87,13.39,101.94,13.33,100,13.33z M100,169.35c-3.19,0-5.78,2.58-5.78,5.771v11.37c1.91,0.13,3.84,0.189,5.78,0.189
	c1.94,0,3.87-0.06,5.78-0.189v-11.37C105.78,171.93,103.19,169.35,100,169.35z M113.69,112.86c-3.75-1.04-5.94-4.91-4.9-8.65
	c0.34-1.25,1.02-2.38,1.97-3.26c6.15-6.49,9.55-15.12,9.471-24.06c0-14.37-9.051-23.12-20.23-23.12c-11.17,0-20.22,8.75-20.22,23.12
	c-0.08,8.91,3.3,17.51,9.42,24h-0.04c2.87,2.63,3.06,7.08,0.43,9.95c-0.9,0.99-2.07,1.7-3.37,2.04
	c-18.8,3.63-32.45,14.021-32.45,21.79c0,9.58,20.7,11.561,46.23,11.561c25.54,0,46.23-1.98,46.23-11.561
	C146.23,126.88,132.54,116.48,113.69,112.86z M186.49,94.22h-11.37c-3.19,0.01-5.78,2.59-5.78,5.78c0,3.2,2.59,5.78,5.78,5.78h11.37
	c0.13-1.91,0.189-3.84,0.189-5.78C186.68,98.06,186.62,96.13,186.49,94.22z M113.69,112.86c-3.75-1.04-5.94-4.91-4.9-8.65
	c0.34-1.25,1.02-2.38,1.97-3.26c6.15-6.49,9.55-15.12,9.471-24.06c0-14.37-9.051-23.12-20.23-23.12c-11.17,0-20.22,8.75-20.22,23.12
	c-0.08,8.91,3.3,17.51,9.42,24h-0.04c2.87,2.63,3.06,7.08,0.43,9.95c-0.9,0.99-2.07,1.7-3.37,2.04
	c-18.8,3.63-32.45,14.021-32.45,21.79c0,9.58,20.7,11.561,46.23,11.561c25.54,0,46.23-1.98,46.23-11.561
	C146.23,126.88,132.54,116.48,113.69,112.86z M100,169.35c-3.19,0-5.78,2.58-5.78,5.771v11.37c1.91,0.13,3.84,0.189,5.78,0.189
	c1.94,0,3.87-0.06,5.78-0.189v-11.37C105.78,171.93,103.19,169.35,100,169.35z M100,13.33c-1.94,0-3.87,0.06-5.78,0.19v11.37
	c0.01,3.19,2.59,5.77,5.78,5.77c3.2,0,5.78-2.59,5.78-5.78V13.52C103.87,13.39,101.94,13.33,100,13.33z M24.88,94.22H13.52
	c-0.13,1.91-0.19,3.84-0.19,5.78c0,1.94,0.06,3.87,0.19,5.78h11.36c3.19,0,5.78-2.58,5.78-5.78C30.66,96.81,28.07,94.23,24.88,94.22
	z M186.49,94.22h-11.37c-3.19,0.01-5.78,2.59-5.78,5.78c0,3.2,2.59,5.78,5.78,5.78h11.37c0.13-1.91,0.189-3.84,0.189-5.78
	C186.68,98.06,186.62,96.13,186.49,94.22z M24.88,94.22H13.52c-0.13,1.91-0.19,3.84-0.19,5.78c0,1.94,0.06,3.87,0.19,5.78h11.36
	c3.19,0,5.78-2.58,5.78-5.78C30.66,96.81,28.07,94.23,24.88,94.22z M100,13.33c-1.94,0-3.87,0.06-5.78,0.19v11.37
	c0.01,3.19,2.59,5.77,5.78,5.77c3.2,0,5.78-2.59,5.78-5.78V13.52C103.87,13.39,101.94,13.33,100,13.33z M100,169.35
	c-3.19,0-5.78,2.58-5.78,5.771v11.37c1.91,0.13,3.84,0.189,5.78,0.189c1.94,0,3.87-0.06,5.78-0.189v-11.37
	C105.78,171.93,103.19,169.35,100,169.35z M113.69,112.86c-3.75-1.04-5.94-4.91-4.9-8.65c0.34-1.25,1.02-2.38,1.97-3.26
	c6.15-6.49,9.55-15.12,9.471-24.06c0-14.37-9.051-23.12-20.23-23.12c-11.17,0-20.22,8.75-20.22,23.12c-0.08,8.91,3.3,17.51,9.42,24
	h-0.04c2.87,2.63,3.06,7.08,0.43,9.95c-0.9,0.99-2.07,1.7-3.37,2.04c-18.8,3.63-32.45,14.021-32.45,21.79
	c0,9.58,20.7,11.561,46.23,11.561c25.54,0,46.23-1.98,46.23-11.561C146.23,126.88,132.54,116.48,113.69,112.86z M186.49,94.22
	h-11.37c-3.19,0.01-5.78,2.59-5.78,5.78c0,3.2,2.59,5.78,5.78,5.78h11.37c0.13-1.91,0.189-3.84,0.189-5.78
	C186.68,98.06,186.62,96.13,186.49,94.22z M100,13.33c-1.94,0-3.87,0.06-5.78,0.19v11.37c0.01,3.19,2.59,5.77,5.78,5.77
	c3.2,0,5.78-2.59,5.78-5.78V13.52C103.87,13.39,101.94,13.33,100,13.33z M100,169.35c-3.19,0-5.78,2.58-5.78,5.771v11.37
	c1.91,0.13,3.84,0.189,5.78,0.189c1.94,0,3.87-0.06,5.78-0.189v-11.37C105.78,171.93,103.19,169.35,100,169.35z M24.88,94.22H13.52
	c-0.13,1.91-0.19,3.84-0.19,5.78c0,1.94,0.06,3.87,0.19,5.78h11.36c3.19,0,5.78-2.58,5.78-5.78C30.66,96.81,28.07,94.23,24.88,94.22
	z M186.49,94.22h-11.37c-3.19,0.01-5.78,2.59-5.78,5.78c0,3.2,2.59,5.78,5.78,5.78h11.37c0.13-1.91,0.189-3.84,0.189-5.78
	C186.68,98.06,186.62,96.13,186.49,94.22z M113.69,112.86c-3.75-1.04-5.94-4.91-4.9-8.65c0.34-1.25,1.02-2.38,1.97-3.26
	c6.15-6.49,9.55-15.12,9.471-24.06c0-14.37-9.051-23.12-20.23-23.12c-11.17,0-20.22,8.75-20.22,23.12c-0.08,8.91,3.3,17.51,9.42,24
	h-0.04c2.87,2.63,3.06,7.08,0.43,9.95c-0.9,0.99-2.07,1.7-3.37,2.04c-18.8,3.63-32.45,14.021-32.45,21.79
	c0,9.58,20.7,11.561,46.23,11.561c25.54,0,46.23-1.98,46.23-11.561C146.23,126.88,132.54,116.48,113.69,112.86z M105.78,186.49
	v0.189c0,3.19-2.58,5.78-5.78,5.78c-3.19,0-5.77-2.58-5.78-5.78v-0.189c1.91,0.13,3.84,0.189,5.78,0.189
	C101.94,186.68,103.87,186.62,105.78,186.49z"/>
</svg>
