<?xml version="1.0" standalone="no"?><!DOCTYPE svg PUBLIC "-//W3C//DTD SVG 1.1//EN" "http://www.w3.org/Graphics/SVG/1.1/DTD/svg11.dtd"><svg t="1579514460286" class="icon" viewBox="0 0 1024 1024" version="1.1" xmlns="http://www.w3.org/2000/svg" p-id="3861" xmlns:xlink="http://www.w3.org/1999/xlink" width="200" height="200"><defs><style type="text/css"></style></defs><path d="M543.6 821.5l-1-8.4c0-17.8-14.7-32.6-32.6-32.6H222.5c-17.8 0-32.6 14.7-32.6 32.6v8.4h-3.2c-26.2 0-47.2 21-47.2 47.2v42H591v-42c0-26.2-21-47.2-47.4-47.2zM297.3 600l-147-157.5c-14.7-15.8-14.7-42 2.2-56.7l23.1-21c15.8-14.8 42-14.8 56.7 2.2l146.9 157.5c14.7 15.8 14.7 42-2.1 56.7l-23.1 21c-15.8 14.6-42 13.6-56.7-2.2z m196.3-475.5L640.5 282c14.7 15.8 14.7 42-2.1 56.7l-23.1 21c-15.8 14.7-42 14.7-56.7-2.2L411.7 200.1c-14.7-15.8-14.7-42 2.1-56.7l23.1-21c15.7-14.7 40.9-13.6 56.7 2.1z m388.7 696.3s0-17.8-14.7-32.6L535.6 452l23.1-21-34.6-38.8 22-20L396 212.8 245.9 352.3l149 159.5 20-17.8 34.6 38.8 27.3-25.2 325.7 333.1c14.7 14.7 33.6 17.8 33.6 17.8l47.2 8.4-1-46.1z m0 0" p-id="3862"></path></svg>