<?xml version="1.0" encoding="utf-8"?>
<!-- Generator: Adobe Illustrator 16.0.0, SVG Export Plug-In . SVG Version: 6.00 Build 0)  -->
<!DOCTYPE svg PUBLIC "-//W3C//DTD SVG 1.1//EN" "http://www.w3.org/Graphics/SVG/1.1/DTD/svg11.dtd">
<svg version="1.1" id="图层_1" xmlns="http://www.w3.org/2000/svg" xmlns:xlink="http://www.w3.org/1999/xlink" x="0px" y="0px"
	 width="200px" height="200px" viewBox="0 0 200 200" enable-background="new 0 0 200 200" xml:space="preserve">
<path d="M42.239,41.454c12.423-12.425,28.444-20.483,46.144-23.025c21.635-3.105,43.195,2.406,60.692,15.513
	c17.5,13.111,28.851,32.251,31.959,53.892c6.416,44.688-24.724,86.25-69.387,92.67c-18.729,2.688-37.934-1.237-54.078-11.04
	c-2.761-1.679-3.638-5.276-1.963-8.033c1.69-2.74,5.271-3.642,8.032-1.964c13.83,8.406,30.289,11.768,46.347,9.459
	c38.276-5.49,64.967-41.123,59.473-79.43c-2.663-18.549-12.392-34.951-27.395-46.186c-15-11.238-33.476-15.956-52.019-13.289
	c-38.316,5.491-64.996,41.127-59.493,79.427c1.442,10.027,4.923,19.396,10.361,27.843c1.743,2.721,0.95,6.351-1.75,8.083
	c-2.716,1.748-6.337,0.963-8.082-1.749c-6.346-9.876-10.415-20.809-12.106-32.515c-3.105-21.637,2.402-43.204,15.521-60.706
	C36.858,47.24,39.446,44.248,42.239,41.454L42.239,41.454z M100.635,154.23c-4.84,0-8.77-3.93-8.77-8.771s3.929-8.771,8.77-8.771
	c4.842,0,8.771,3.929,8.771,8.771S105.477,154.23,100.635,154.23L100.635,154.23z M116.82,94.446
	c-5.088,5.083-10.338,10.333-10.338,15.052v9.889c0,3.227-2.619,5.847-5.848,5.847c-3.227,0-5.846-2.62-5.846-5.847v-9.889
	c0-9.566,7.309-16.875,13.763-23.325c4.73-4.73,9.624-9.62,9.624-13.52c0-9.748-7.87-17.676-17.541-17.676
	c-9.834,0-17.54,7.589-17.54,17.279c0,3.227-2.619,5.847-5.847,5.847c-3.229,0-5.848-2.619-5.848-5.847
	c0-15.976,13.115-28.975,29.234-28.975c16.121,0,29.234,13.175,29.234,29.372C129.869,81.401,123.233,88.032,116.82,94.446z"/>
</svg>
