<?xml version="1.0" standalone="no"?><!DOCTYPE svg PUBLIC "-//W3C//DTD SVG 1.1//EN" "http://www.w3.org/Graphics/SVG/1.1/DTD/svg11.dtd"><svg t="1571983423835" class="icon" viewBox="0 0 1024 1024" version="1.1" xmlns="http://www.w3.org/2000/svg" p-id="16998" xmlns:xlink="http://www.w3.org/1999/xlink" width="200" height="200"><defs><style type="text/css"></style></defs><path d="M192 473.6h220.16c33.93 0 61.44-27.51 61.44-61.44V197.12c0-33.93-27.51-61.44-61.44-61.44H192c-33.93 0-61.44 27.51-61.44 61.44v215.04c0 33.93 27.51 61.44 61.44 61.44z m-10.24-286.72H422.4V422.4H181.76V186.88z m647.06-51.2H609.736c-33.772 0-61.138 27.51-61.138 61.44v215.04c0 33.93 27.371 61.44 61.138 61.44H828.82c33.767 0 61.138-27.51 61.138-61.44V197.12c0-33.93-27.371-61.44-61.138-61.44z m10.19 286.72H599.541V186.88h239.467V422.4z m-10.19 125.68H609.736c-33.772 0-61.138 27.372-61.138 61.139v213.99c0 33.766 27.371 61.138 61.138 61.138H828.82c33.767 0 61.138-27.377 61.138-61.138v-213.99c0-33.767-27.371-61.138-61.138-61.138z m-414.612 0h-220.16c-33.935 0-61.44 27.372-61.44 61.139v213.99c0 33.766 27.505 61.138 61.44 61.138h220.16c33.93 0 61.44-27.377 61.44-61.138v-213.99c0-33.767-27.51-61.138-61.44-61.138z m10.24 285.318h-240.64V599.03h240.64v234.368z" p-id="16999"></path></svg>