<?xml version="1.0" encoding="utf-8"?>
<!-- Generator: Adobe Illustrator 16.0.0, SVG Export Plug-In . SVG Version: 6.00 Build 0)  -->
<!DOCTYPE svg PUBLIC "-//W3C//DTD SVG 1.1//EN" "http://www.w3.org/Graphics/SVG/1.1/DTD/svg11.dtd">
<svg version="1.1" id="图层_1" xmlns="http://www.w3.org/2000/svg" xmlns:xlink="http://www.w3.org/1999/xlink" x="0px" y="0px"
	 width="200px" height="200px" viewBox="0 0 200 200" enable-background="new 0 0 200 200" xml:space="preserve">
<path d="M99.9,38.6c-30.2,0-54.7,24.5-54.7,54.7c0,21,11.9,40,30.7,49.2v23.6c0,6.601,4,12.4,9.7,14.9v5.1c0,5.7,4.6,10.4,10.4,10.4
	h8c5.7,0,10.4-4.6,10.4-10.4V181c5.699-2.5,9.699-8.3,9.699-14.9v-23.6c18.7-9.2,30.7-28.2,30.7-49.2C154.6,63.1,130,38.6,99.9,38.6
	z M106.5,186c0,1.4-1.2,2.7-2.7,2.7h-8c-1.4,0-2.7-1.2-2.7-2.7v-3.6h13.3v3.6H106.5z M116.2,166c-0.101,4.8-4,8.6-8.7,8.6H92.3
	c-4.7,0-8.6-3.899-8.6-8.6v-9.3h32.6v9.3H116.2z M91.6,103.2h16.5l-8.2,15.1L91.6,103.2z M118.4,136.3l-2.301,1V149H103.7v-22.8
	c0.7-0.4,1.1-1.101,1.5-1.8l11.3-20.801c1-1.699,0.9-3.8-0.1-5.399c-1.101-1.8-3.101-2.9-5.301-2.9H88.5c-2.2,0-4.2,1.1-5.3,2.9
	c-1,1.7-1.1,3.6-0.1,5.399l11.4,20.9c0.4,0.7,0.9,1.3,1.5,1.8V148.9H83.6v-11.7l-2.3-1C64.1,128.8,53,111.8,53,93.1
	c0-25.8,21.1-46.9,46.9-46.9c25.8,0,46.9,21.1,46.9,46.9C146.8,111.9,135.7,128.8,118.4,136.3L118.4,136.3z M53,54.4
	c2.4-3,5-5.8,7.8-8.3L46.6,31.9c-2.2-2.2-5.8-2.2-8,0c-2.2,2.2-2.2,5.8,0,8.1L53,54.4z M99,31.7h0.2c1.8,0,3.7,0.1,5.5,0.3V12.7
	c0-3.1-2.5-5.7-5.7-5.7c-3.1,0-5.7,2.5-5.7,5.7V32c1.8-0.2,3.7-0.3,5.5-0.3H99z M145,54.4L159.4,40c2.199-2.3,2.1-5.9-0.101-8.1
	c-2.2-2.1-5.7-2.1-7.899,0l-14.2,14.2C140,48.7,142.7,51.4,145,54.4z M39,94.8c0-2.7,0.2-5.4,0.5-8.1H19.3c-3.1,0-5.7,2.5-5.7,5.7
	c0,3.1,2.5,5.7,5.7,5.7h19.8C39,97,39,95.9,39,94.8z M179.7,86.7h-20.2c0.3,2.7,0.5,5.4,0.5,8.1c0,1.1,0,2.2-0.1,3.3h19.8
	c3.1-0.1,5.6-2.7,5.6-5.8C185.2,89.2,182.8,86.8,179.7,86.7z M148,133.4c-2.2,3.1-4.6,6.1-7.1,9L151.3,152.8
	c2.3,2.2,5.9,2.101,8.101-0.1c2.1-2.2,2.1-5.7,0-7.9L148,133.4z M38.6,144.7c-2.2,2.2-2.2,5.8,0,8.1c2.2,2.2,5.8,2.2,8.1,0
	L57.1,142.4c-2.6-2.801-4.9-5.801-7.1-9L38.6,144.7z"/>
</svg>
