<?xml version="1.0" standalone="no"?><!DOCTYPE svg PUBLIC "-//W3C//DTD SVG 1.1//EN" "http://www.w3.org/Graphics/SVG/1.1/DTD/svg11.dtd"><svg t="1571980816927" class="icon" viewBox="0 0 1024 1024" version="1.1" xmlns="http://www.w3.org/2000/svg" p-id="9402" xmlns:xlink="http://www.w3.org/1999/xlink" width="200" height="200"><defs><style type="text/css"></style></defs><path d="M511.488 64C340.48 64 201.216 203.264 201.216 374.272c0 119.296 67.584 226.816 174.08 279.04v134.144c0 37.376 22.528 70.144 55.296 84.48v28.672c0 32.768 26.112 58.88 58.88 58.88h45.056c32.768 0 58.88-26.112 58.88-58.88v-28.672c32.768-14.336 55.296-47.104 55.296-84.48V653.312c105.984-52.224 174.08-159.744 174.08-279.04C821.76 203.264 682.496 64 511.488 64z m37.376 837.12c0 8.192-6.656 14.848-14.848 14.848H488.96c-8.192 0-14.848-6.656-14.848-14.848v-20.48h75.264v20.48h-0.512z m55.296-113.664c-0.512 27.136-22.528 49.152-49.664 49.152h-86.528c-27.136 0-49.152-22.016-49.152-49.152V734.72H604.16v52.736zM464.384 430.592h93.184l-46.592 86.016c0.512 0-46.592-86.016-46.592-86.016zM616.96 619.008l-13.312 5.632v66.56h-70.144V562.176c3.584-2.56 6.144-6.144 8.704-10.24l64-117.76c5.632-9.216 5.12-21.504-0.512-30.72-6.144-10.24-17.408-16.384-30.208-16.384H446.976c-12.288 0-24.064 6.144-30.208 16.384-5.632 9.216-6.144 20.48-0.512 30.72l64.512 118.272c2.56 3.584 5.12 7.68 8.704 10.24V691.2h-70.144v-66.56l-13.312-5.632c-97.792-41.984-160.768-138.752-160.768-244.736 0-146.944 119.808-266.24 266.24-266.24 146.944 0 266.24 119.808 266.24 266.24 0 105.984-62.976 201.728-160.768 244.736z" p-id="9403"></path></svg>