<?xml version="1.0" encoding="utf-8"?>
<!-- Generator: Adobe Illustrator 16.0.0, SVG Export Plug-In . SVG Version: 6.00 Build 0)  -->
<!DOCTYPE svg PUBLIC "-//W3C//DTD SVG 1.1//EN" "http://www.w3.org/Graphics/SVG/1.1/DTD/svg11.dtd">
<svg version="1.1" id="图层_1" xmlns="http://www.w3.org/2000/svg" xmlns:xlink="http://www.w3.org/1999/xlink" x="0px" y="0px"
	 width="200px" height="200px" viewBox="0 0 200 200" enable-background="new 0 0 200 200" xml:space="preserve">
<path d="M51,31.75v27H27v89.5c1.917,8.251,9.833,20.417,22.5,22.75H148c13.75-4.5,19.625-10.5,23.25-24V31.75H51z M50.667,136.666
	c-0.5,6.502-5.583,15.333-7.667,15.334s-7.167-8.499-7.833-14.5V67h15.5V136.666z M162.834,137.5
	c0,10.667-13.833,24.334-23.666,24.167H58.001c-2.085,0-4.835,0.168-5.5-2.5c0.914-2.024,4.082-5.249,6.333-13.667
	c0-5.663,0.167-105.666,0.167-105.666h103.833V137.5z M70.25,59h77v9.75h-77V59z M70.25,81.5h28.875v8H70.25V81.5z M70.25,96h28.875
	v8.25H70.25V96z M70.25,110.25h28.875v8H70.25V110.25z M70.25,124.75h28.875v7.75H70.25V124.75z M108.75,81.5h38.5v51h-38.5V81.5z"
	/>
</svg>
