<?xml version="1.0" encoding="utf-8"?>
<!-- Generator: Adobe Illustrator 16.0.0, SVG Export Plug-In . SVG Version: 6.00 Build 0)  -->
<!DOCTYPE svg PUBLIC "-//W3C//DTD SVG 1.1//EN" "http://www.w3.org/Graphics/SVG/1.1/DTD/svg11.dtd">
<svg version="1.1" id="图层_1" xmlns="http://www.w3.org/2000/svg" xmlns:xlink="http://www.w3.org/1999/xlink" x="0px" y="0px"
	 width="200px" height="200px" viewBox="0 0 200 200" enable-background="new 0 0 200 200" xml:space="preserve">
<path d="M141.418,135.357c0,1.412,0.553,2.748,1.552,3.746c0.992,0.996,2.341,1.556,3.747,1.553c1.412,0,2.748-0.554,3.747-1.553
	l35.435-35.43c0.994-1.004,1.542-2.334,1.542-3.736c0-1.413-0.554-2.748-1.553-3.747l-35.311-35.295
	c-1.997-1.998-5.496-1.998-7.493,0c-0.996,0.992-1.555,2.341-1.553,3.747c0,1.413,0.554,2.748,1.553,3.747l26.259,26.249H83.611
	c-2.924,0-5.299,2.375-5.299,5.299c0,2.923,2.375,5.299,5.299,5.299h85.736L142.97,131.61
	C141.974,132.603,141.414,133.951,141.418,135.357L141.418,135.357z M178.964,12.56H21.036c-4.673,0-8.477,3.804-8.477,8.477
	v157.928c0,4.673,3.804,8.477,8.477,8.477h157.928c4.673,0,8.477-3.804,8.477-8.477v-25.695c0-2.924-2.375-5.3-5.3-5.3
	c-2.924,0-5.299,2.376-5.299,5.3v23.573H23.158V23.158h153.684v23.573c0,2.924,2.375,5.299,5.299,5.299s5.3-2.375,5.3-5.299V21.036
	C187.44,16.363,183.637,12.56,178.964,12.56L178.964,12.56z"/>
</svg>
