<?xml version="1.0" standalone="no"?><!DOCTYPE svg PUBLIC "-//W3C//DTD SVG 1.1//EN" "http://www.w3.org/Graphics/SVG/1.1/DTD/svg11.dtd"><svg t="1571983013284" class="icon" viewBox="0 0 1024 1024" version="1.1" xmlns="http://www.w3.org/2000/svg" p-id="14744" xmlns:xlink="http://www.w3.org/1999/xlink" width="200" height="200"><defs><style type="text/css"></style></defs><path d="M562.592 430.169a22.098 22.098 0 0 0 0 31.232 22.098 22.098 0 0 0 31.24 0l271.25-271.285v211.558a22.064 22.064 0 1 0 44.141-0.027V136.84a22.132 22.132 0 0 0-22.064-22.071H622.34a22.077 22.077 0 0 0 0.007 44.141h211.545L562.592 430.17z m-447.815 456.99a22.153 22.153 0 0 0 22.07 22.064h264.834a22.064 22.064 0 1 0-0.007-44.141H190.13l271.279-271.25a22.098 22.098 0 0 0 0-31.253 22.132 22.132 0 0 0-31.24 0L158.912 833.877V622.32a22.064 22.064 0 1 0-44.134 0.014v264.826z" p-id="14745"></path></svg>