<?xml version="1.0" standalone="no"?><!DOCTYPE svg PUBLIC "-//W3C//DTD SVG 1.1//EN" "http://www.w3.org/Graphics/SVG/1.1/DTD/svg11.dtd"><svg t="1571982675535" class="icon" viewBox="0 0 1024 1024" version="1.1" xmlns="http://www.w3.org/2000/svg" p-id="14076" xmlns:xlink="http://www.w3.org/1999/xlink" width="200" height="200"><defs><style type="text/css"></style></defs><path d="M937.472 355.328c-1.536-2.56-3.584-5.12-6.144-7.168L529.408 60.416c-5.12-3.584-11.264-5.12-17.408-3.584-6.144-1.024-12.288 0-17.408 3.584L92.16 348.16c-2.56 2.048-5.12 4.608-6.656 7.68l-4.608-2.56v514.048c0 45.056 38.912 83.456 85.504 83.456h692.736c46.08 0 83.968-37.376 83.968-83.456V351.744l-5.632 3.584zM512 103.936l371.712 265.728-371.2 288.768L140.8 369.664 512 103.936z m-385.536 312.32l261.632 203.776-261.632 203.776V416.256z m732.672 488.96H166.4c-16.384 0-31.744-10.752-37.376-25.6l296.448-230.912 69.12 53.76c4.096 3.072 8.704 4.608 13.824 4.608 1.536 0 3.072 0 4.096-0.512 1.024 0.512 2.56 0.512 4.096 0.512 5.12 0 9.728-1.536 13.824-4.608l69.12-53.76 295.936 230.4c-5.12 15.36-19.968 26.112-36.352 26.112z m38.4-82.432L636.928 619.52l260.608-202.752v406.016z" p-id="14077"></path></svg>