<?xml version="1.0" encoding="utf-8"?>
<!-- Generator: Adobe Illustrator 16.0.0, SVG Export Plug-In . SVG Version: 6.00 Build 0)  -->
<!DOCTYPE svg PUBLIC "-//W3C//DTD SVG 1.1//EN" "http://www.w3.org/Graphics/SVG/1.1/DTD/svg11.dtd">
<svg version="1.1" id="图层_1" xmlns="http://www.w3.org/2000/svg" xmlns:xlink="http://www.w3.org/1999/xlink" x="0px" y="0px"
	 width="200px" height="200px" viewBox="0 0 200 200" enable-background="new 0 0 200 200" xml:space="preserve">
<path d="M100,173.414c-39.934,0-73.21-33.277-73.21-73.21c0-3.993,2.661-6.655,6.654-6.655c3.994,0,6.656,2.662,6.656,6.655
	c0,33.276,26.622,59.899,59.899,59.899c33.278,0,59.899-26.623,59.899-59.899c0-33.278-26.621-59.9-59.899-59.9v6.654L73.378,33.646
	L100,20.336v6.655c39.934,0,73.211,33.277,73.211,73.211C173.211,140.135,139.934,173.414,100,173.414z M75,106.25
	c0-3.75,2.5-6.25,6.25-6.25H100V81.25c0-3.75,2.5-6.25,6.25-6.25s6.25,2.5,6.25,6.25v25c0,3.75-2.5,6.25-6.25,6.25h-25
	C77.5,112.5,75,110,75,106.25z"/>
</svg>
