<?xml version="1.0" encoding="utf-8"?>
<!-- Generator: Adobe Illustrator 16.0.0, SVG Export Plug-In . SVG Version: 6.00 Build 0)  -->
<!DOCTYPE svg PUBLIC "-//W3C//DTD SVG 1.1//EN" "http://www.w3.org/Graphics/SVG/1.1/DTD/svg11.dtd">
<svg version="1.1" id="图层_1" xmlns="http://www.w3.org/2000/svg" xmlns:xlink="http://www.w3.org/1999/xlink" x="0px" y="0px"
	 width="200px" height="200px" viewBox="0 0 200 200" enable-background="new 0 0 200 200" xml:space="preserve">
<path d="M62.697,91.364c-2.332,2.332-2.385,6.058-0.12,8.323s5.991,2.211,8.323-0.12l0,0c2.331-2.331,2.385-6.058,0.12-8.322
	C68.754,88.979,65.028,89.033,62.697,91.364z M156.167,22.5H42.5l-16.667,16V177h104.833l8.75-8.166l-0.001-111.751l-9.666-9.25
	H42.833l9-9.333H146.5l8.667,9.333V159.5H172.5V39.167L156.167,22.5z M57.494,86.165c8.217-8.218,21.352-8.404,29.337-0.418h0.001
	c6.381,6.382,7.546,16.053,3.561,23.875l0.243-0.235l24.325,24.325l-0.253,9.636l-5.753-0.346l-4.512-4.512l-0.045-2.027
	l-6.597,0.094l0.084-6.57l-6.21,0.108l-1.647-1.646l-0.408-6.773l-6.189,0.486l-2.895-2.896c-7.745,3.736-17.188,2.504-23.458-3.768
	C49.094,107.512,49.278,94.38,57.494,86.165z"/>
</svg>
