<?xml version="1.0" encoding="UTF-8"?>
<svg width="16px" height="16px" viewBox="0 0 16 16" version="1.1" xmlns="http://www.w3.org/2000/svg" xmlns:xlink="http://www.w3.org/1999/xlink">
    <title>p-account-book</title>
    <g id="页面-1" stroke="none" stroke-width="1" fill="none" fill-rule="evenodd">
        <g id="画板" transform="translate(-614.000000, -830.000000)" fill="#000000" fill-rule="nonzero">
            <g id="p-account-book" transform="translate(614.000000, 830.000000)">
                <rect id="矩形" opacity="0" x="0" y="0" width="16" height="16"></rect>
                <path d="M5.8,1 C5.91045695,1 6,1.08954305 6,1.2 L6,2.299 L10,2.299 L10,1.2 C10,1.08954305 10.0895431,1 10.2,1 L11.3,1 C11.4104569,1 11.5,1.08954305 11.5,1.2 L11.5,2.299 L14.5,2.3 C14.7761424,2.3 15,2.52385763 15,2.8 L15,14.5 C15,14.7761424 14.7761424,15 14.5,15 L1.5,15 C1.22385763,15 1,14.7761424 1,14.5 L1,2.8 C1,2.52385763 1.22385763,2.3 1.5,2.3 L4.5,2.299 L4.5,1.2 C4.5,1.08954305 4.58954305,1 4.7,1 L5.8,1 Z M4.5,3.599 L2.3,3.599 L2.3,13.7 L13.7,13.7 L13.7,3.599 L11.5,3.599 L11.5,4.8 C11.5,4.91045695 11.4104569,5 11.3,5 L10.2,5 C10.0895431,5 10,4.91045695 10,4.8 L10,3.599 L6,3.599 L6,4.8 C6,4.91045695 5.91045695,5 5.8,5 L4.7,5 C4.58954305,5 4.5,4.91045695 4.5,4.8 L4.5,3.599 Z M10.23125,6.285 L9.44375,6.285 C9.39125,6.285 9.34225,6.31475 9.3195,6.362 L8.035,8.9065 L7.986,8.9065 L6.7015,6.362 C6.677,6.31475 6.62975,6.285 6.57725,6.285 L5.77225,6.285 C5.7495,6.285 5.725,6.29025 5.70575,6.3025 C5.6375,6.33925 5.613,6.425 5.64975,6.49325 L7.2125,9.36325 L6.362,9.36325 C6.285,9.36325 6.222,9.42625 6.222,9.50325 L6.222,9.876 C6.222,9.953 6.285,10.016 6.362,10.016 L7.50125,10.016 L7.50125,10.60575 L6.362,10.60575 C6.285,10.60575 6.222,10.66875 6.222,10.74575 L6.222,11.1185 C6.222,11.1955 6.285,11.2585 6.362,11.2585 L7.50125,11.2585 L7.50125,12.2 C7.50125,12.277 7.56425,12.34 7.64125,12.34 L8.364,12.34 C8.441,12.34 8.504,12.277 8.504,12.2 L8.504,11.2585 L9.6485,11.2585 C9.7255,11.2585 9.7885,11.1955 9.7885,11.1185 L9.7885,10.74575 C9.7885,10.66875 9.7255,10.60575 9.6485,10.60575 L8.504,10.60575 L8.504,10.016 L9.6485,10.016 C9.7255,10.016 9.7885,9.953 9.7885,9.876 L9.7885,9.50325 C9.7885,9.42625 9.7255,9.36325 9.6485,9.36325 L8.78925,9.36325 L10.352,6.4915 C10.3625,6.4705 10.3695717,6.44775 10.3695717,6.425 C10.37125,6.348 10.31,6.285 10.23125,6.285 L10.23125,6.285 Z" id="形状"></path>
            </g>
        </g>
    </g>
</svg>