<?xml version="1.0" encoding="UTF-8"?>
<svg width="16px" height="16px" viewBox="0 0 16 16" version="1.1" xmlns="http://www.w3.org/2000/svg" xmlns:xlink="http://www.w3.org/1999/xlink">
    <title>p-add-user</title>
    <g id="页面-1" stroke="none" stroke-width="1" fill="none" fill-rule="evenodd">
        <g id="画板" transform="translate(-594.000000, -830.000000)" fill="#000000" fill-rule="nonzero">
            <g id="p-add-user" transform="translate(594.000000, 830.000000)">
                <rect id="矩形" opacity="0" x="0" y="0" width="16" height="16"></rect>
                <path d="M10.8700683,10.2209246 C11.2889731,9.99951338 11.7684634,9.87347932 12.2791119,9.87347932 L12.2808429,9.87347932 C12.3327732,9.87347932 12.3570074,9.81216545 12.3189252,9.77810219 C11.7857735,9.3080292 11.1833814,8.93163017 10.5238659,8.65742092 C10.5169419,8.6540146 10.5100178,8.65231144 10.5030938,8.64890511 C11.5780521,7.88077859 12.2773809,6.6323601 12.2773809,5.22384428 C12.2773809,2.89051095 10.3594198,1 7.9931267,1 C5.6268336,1 3.71060355,2.89051095 3.71060355,5.22384428 C3.71060355,6.6323601 4.40993231,7.88077859 5.48662164,8.64890511 C5.47969759,8.65231144 5.47277355,8.6540146 5.4658495,8.65742092 C4.69208723,8.97931873 3.99795151,9.44087591 3.40075244,10.0301703 C2.80355338,10.6177616 2.33618019,11.3024331 2.00901897,12.0654501 C1.68878179,12.8114355 1.51741162,13.6034063 1.50003249,14.4175182 C1.49837049,14.4941606 1.56068691,14.5571776 1.63858245,14.5571776 L2.6754585,14.5571776 C2.74989201,14.5571776 2.81220843,14.4975669 2.81393945,14.4243309 C2.84855968,13.1094891 3.38344232,11.8781022 4.33030577,10.9447689 C5.30832743,9.97907543 6.61004829,9.44768856 7.99485772,9.44768856 C8.9763414,9.44768856 9.91801181,9.71508516 10.7298563,10.2158151 C10.7731316,10.2413625 10.825062,10.2447689 10.8700683,10.2209246 L10.8700683,10.2209246 Z M7.99485772,8.15328467 C7.20205432,8.15328467 6.45598824,7.84841849 5.89340941,7.29489051 C5.33256159,6.74136253 5.02271048,6.00559611 5.02271048,5.22384428 C5.02271048,4.44209246 5.33256159,3.70632603 5.89340941,3.15279805 C6.45425723,2.59927007 7.20032331,2.29440389 7.99485772,2.29440389 C8.78939212,2.29440389 9.53372719,2.59927007 10.096306,3.15279805 C10.6571538,3.70632603 10.9670049,4.44209246 10.9670049,5.22384428 C10.9670049,6.00559611 10.6571538,6.74136253 10.096306,7.29489051 C9.53372719,7.84841849 8.78766111,8.15328467 7.99485772,8.15328467 Z M14.3615191,12.2068127 L12.9074692,12.2068127 L12.9074692,10.7761557 C12.9074692,10.7012165 12.8451527,10.6399027 12.7689882,10.6399027 L11.7996216,10.6399027 C11.7234571,10.6399027 11.6611407,10.7012165 11.6611407,10.7761557 L11.6611407,12.2068127 L10.2070908,12.2068127 C10.1309263,12.2068127 10.0686098,12.2681265 10.0686098,12.3430657 L10.0686098,13.296837 C10.0686098,13.3717762 10.1309263,13.43309 10.2070908,13.43309 L11.6611407,13.43309 L11.6611407,14.863747 C11.6611407,14.9386861 11.7234571,15 11.7996216,15 L12.7689882,15 C12.8451527,15 12.9074692,14.9386861 12.9074692,14.863747 L12.9074692,13.43309 L14.3615191,13.43309 C14.4376836,13.43309 14.5,13.3717762 14.5,13.296837 L14.5,12.3430657 C14.5,12.2681265 14.4376836,12.2068127 14.3615191,12.2068127 Z" id="形状"></path>
            </g>
        </g>
    </g>
</svg>