<?xml version="1.0" encoding="UTF-8"?>
<svg width="16px" height="16px" viewBox="0 0 16 16" version="1.1" xmlns="http://www.w3.org/2000/svg" xmlns:xlink="http://www.w3.org/1999/xlink">
    <title>p-add-team</title>
    <g id="页面-1" stroke="none" stroke-width="1" fill="none" fill-rule="evenodd">
        <g id="画板" transform="translate(-548.000000, -830.000000)" fill="#000000" fill-rule="nonzero">
            <g id="p-add-team" transform="translate(548.000000, 830.000000)">
                <rect id="矩形" opacity="0" x="0" y="0" width="16" height="16"></rect>
                <path d="M14.3659631,12.4175493 L13.0255943,12.4175493 L13.0255943,11.0583647 C13.0255943,10.9836095 12.9652777,10.9224462 12.8915575,10.9224462 L12.0873362,10.9224462 C12.0136159,10.9224462 11.9532993,10.9836095 11.9532993,11.0583647 L11.9532993,12.4175493 L10.6129305,12.4175493 C10.5392102,12.4175493 10.4788936,12.4787126 10.4788936,12.5534677 L10.4788936,13.3689785 C10.4788936,13.4437336 10.5392102,13.5048969 10.6129305,13.5048969 L11.9532993,13.5048969 L11.9532993,14.8640815 C11.9532993,14.9388367 12.0136159,15 12.0873362,15 L12.8915575,15 C12.9652777,15 13.0255943,14.9388367 13.0255943,14.8640815 L13.0255943,13.5048969 L14.3659631,13.5048969 C14.4396834,13.5048969 14.5,13.4437336 14.5,13.3689785 L14.5,12.5534677 C14.5,12.4787126 14.4396834,12.4175493 14.3659631,12.4175493 Z M5.67869793,7.76913794 C5.66361878,7.62132661 5.65524148,7.47181631 5.65524148,7.32060702 C5.65524148,7.05046908 5.68037339,6.78712707 5.7272863,6.53058098 C5.73901453,6.46941767 5.70718077,6.40655538 5.65189056,6.38107067 C5.42402786,6.27743284 5.21459524,6.13471846 5.03364545,5.9546265 C4.60137652,5.52648335 4.36848745,4.94713092 4.38524205,4.33379887 C4.4003212,3.78842605 4.61645567,3.27023692 4.99343439,2.87947135 C5.40727325,2.44962922 5.9635263,2.21516988 6.55496403,2.2219658 C7.08943608,2.22706274 7.60547806,2.43603737 7.99586047,2.80641518 C8.12822189,2.93213975 8.24215323,3.07145617 8.33765451,3.22096648 C8.37116373,3.27363488 8.43650671,3.29572163 8.49347238,3.27533386 C8.78835351,3.17169604 9.09998926,3.09863987 9.4200023,3.06466025 C9.51382812,3.05446637 9.56744287,2.95252752 9.52555635,2.86757848 C8.98103153,1.77513386 7.86852544,1.02078641 6.5817714,1.00039864 C4.72536063,0.97151597 3.17723469,2.51588947 3.17723469,4.39836014 C3.17723469,5.46532005 3.66144291,6.41674927 4.42042674,7.0402752 C3.88763014,7.29002537 3.39672008,7.63491846 2.97115299,8.06645957 C2.05300037,8.99580204 1.53360746,10.2224661 1.50003145,11.5323803 C1.49842278,11.6088344 1.55873938,11.6716967 1.63413512,11.6716967 L2.57406873,11.6716967 C2.64611356,11.6716967 2.70643015,11.6139314 2.70810561,11.5408752 C2.73993937,10.5554664 3.1336727,9.63291982 3.82563809,8.93293975 C4.31822362,8.43343941 4.92138957,8.08684734 5.57984573,7.91864825 C5.64351325,7.89995946 5.68707524,7.83709717 5.67869793,7.76913794 L5.67869793,7.76913794 Z M13.2266497,7.32060702 C13.2266497,5.46192209 11.7539195,3.9515282 9.92766698,3.92264553 C8.07125621,3.89376286 6.52480573,5.43813635 6.52480573,7.32060702 C6.52480573,8.38756693 7.01068941,9.33899615 7.76799778,9.96252208 C7.23687665,10.2122723 6.74764204,10.5554664 6.32039949,10.9887065 C5.40224687,11.9180489 4.88285397,13.144713 4.84927795,14.4529282 C4.84766929,14.5293823 4.90798588,14.5922446 4.98338163,14.5922446 L5.92163977,14.5922446 C5.9936846,14.5922446 6.05400119,14.5344793 6.05567665,14.4614231 C6.08751041,13.4760143 6.48124374,12.5534677 7.17320913,11.8534877 C7.89533281,11.121227 8.85369649,10.7185685 9.87572769,10.7185685 C11.7254366,10.7185685 13.2266497,9.19798075 13.2266497,7.32060702 Z M11.3920199,8.8581846 C10.9865583,9.26933794 10.4487353,9.49530238 9.87572769,9.49530238 C9.30272004,9.49530238 8.76489706,9.26933794 8.3594355,8.8581846 C7.94894756,8.44193432 7.72611125,7.88806659 7.73113763,7.29852027 C7.73616402,6.74125459 7.95564941,6.20267769 8.33932997,5.80341722 C8.74144061,5.38546795 9.27926358,5.15270759 9.8539467,5.14591167 C10.421928,5.14081472 10.9731546,5.36508018 11.3786162,5.76773862 C11.7941305,6.18059094 12.0219932,6.73275968 12.0219932,7.32060702 C12.0203177,7.90165844 11.7974814,8.44703126 11.3920199,8.8581846 L11.3920199,8.8581846 Z" id="形状"></path>
            </g>
        </g>
    </g>
</svg>