<?xml version="1.0" encoding="UTF-8"?>
<svg width="16px" height="16px" viewBox="0 0 16 16" version="1.1" xmlns="http://www.w3.org/2000/svg" xmlns:xlink="http://www.w3.org/1999/xlink">
    <title>p-align-left备份</title>
    <g id="页面-1" stroke="none" stroke-width="1" fill="none" fill-rule="evenodd">
        <g id="画板" transform="translate(-548.000000, -810.000000)" fill="#000000" fill-rule="nonzero">
            <g id="p-align-left备份" transform="translate(548.000000, 810.000000)">
                <rect id="矩形" opacity="0" x="0" y="0" width="16" height="16"></rect>
                <path d="M1.14,3.3 L9.82,3.3 C9.897,3.3 9.96,3.235 9.96,3.15555556 L9.96,2.14444444 C9.96,2.065 9.897,2 9.82,2 L1.14,2 C1.063,2 1,2.065 1,2.14444444 L1,3.15555556 C1,3.235 1.063,3.3 1.14,3.3 Z" id="形状-path"></path>
                <path d="M1.14,10.3864407 L9.82,10.3864407 C9.897,10.3864407 9.96,10.3214407 9.96,10.2419962 L9.96,9.23088512 C9.96,9.15144068 9.897,9.08644068 9.82,9.08644068 L1.14,9.08644068 C1.063,9.08644068 1,9.15144068 1,9.23088512 L1,10.2419962 C1,10.3214407 1.063,10.3864407 1.14,10.3864407 Z" id="形状-path"></path>
                <path d="M14.86,12.7 L1.14,12.7 C1.063,12.7 1,12.765 1,12.8444444 L1,13.8555556 C1,13.935 1.063,14 1.14,14 L14.86,14 C14.937,14 15,13.935 15,13.8555556 L15,12.8444444 C15,12.765 14.937,12.7 14.86,12.7 Z" id="形状-path"></path>
                <path d="M14.86,5.49322034 L1.14,5.49322034 C1.063,5.49322034 1,5.55822034 1,5.63766478 L1,6.64877589 C1,6.72822034 1.063,6.79322034 1.14,6.79322034 L14.86,6.79322034 C14.937,6.79322034 15,6.72822034 15,6.64877589 L15,5.63766478 C15,5.55822034 14.937,5.49322034 14.86,5.49322034 Z" id="形状-path"></path>
            </g>
        </g>
    </g>
</svg>