<?xml version="1.0" encoding="UTF-8"?>
<svg width="16px" height="16px" viewBox="0 0 16 16" version="1.1" xmlns="http://www.w3.org/2000/svg" xmlns:xlink="http://www.w3.org/1999/xlink">
    <title>p-align-right备份</title>
    <g id="页面-1" stroke="none" stroke-width="1" fill="none" fill-rule="evenodd">
        <g id="画板" transform="translate(-571.000000, -810.000000)" fill="#000000" fill-rule="nonzero">
            <g id="p-align-right备份" transform="translate(571.000000, 810.000000)">
                <rect id="矩形" opacity="0" x="0" y="0" width="16" height="16"></rect>
                <path d="M14.86,2 L6.18,2 C6.103,2 6.04,2.065 6.04,2.14444444 L6.04,3.15555556 C6.04,3.235 6.103,3.3 6.18,3.3 L14.86,3.3 C14.937,3.3 15,3.235 15,3.15555556 L15,2.14444444 C15,2.065 14.937,2 14.86,2 Z" id="形状-path"></path>
                <path d="M14.86,9.18644068 L6.18,9.18644068 C6.103,9.18644068 6.04,9.25144068 6.04,9.33088512 L6.04,10.3419962 C6.04,10.4214407 6.103,10.4864407 6.18,10.4864407 L14.86,10.4864407 C14.937,10.4864407 15,10.4214407 15,10.3419962 L15,9.33088512 C15,9.25144068 14.937,9.18644068 14.86,9.18644068 Z" id="形状-path"></path>
                <path d="M14.86,12.7 L1.14,12.7 C1.063,12.7 1,12.765 1,12.8444444 L1,13.8555556 C1,13.935 1.063,14 1.14,14 L14.86,14 C14.937,14 15,13.935 15,13.8555556 L15,12.8444444 C15,12.765 14.937,12.7 14.86,12.7 Z" id="形状-path"></path>
                <path d="M14.86,5.59322034 L1.14,5.59322034 C1.063,5.59322034 1,5.65822034 1,5.73766478 L1,6.74877589 C1,6.82822034 1.063,6.89322034 1.14,6.89322034 L14.86,6.89322034 C14.937,6.89322034 15,6.82822034 15,6.74877589 L15,5.73766478 C15,5.65822034 14.937,5.59322034 14.86,5.59322034 Z" id="形状-path"></path>
            </g>
        </g>
    </g>
</svg>