<?xml version="1.0" encoding="UTF-8"?>
<svg width="16px" height="16px" viewBox="0 0 16 16" version="1.1" xmlns="http://www.w3.org/2000/svg" xmlns:xlink="http://www.w3.org/1999/xlink">
    <title>p-align-center</title>
    <g id="页面-1" stroke="none" stroke-width="1" fill="none" fill-rule="evenodd">
        <g id="画板" transform="translate(-595.000000, -810.000000)" fill="#000000" fill-rule="nonzero">
            <g id="p-align-center" transform="translate(595.000000, 810.000000)">
                <rect id="矩形" opacity="0" x="0" y="0" width="16" height="16"></rect>
                <path d="M3.66,3.3 L12.34,3.3 C12.417,3.3 12.48,3.235 12.48,3.15555556 L12.48,2.14444444 C12.48,2.065 12.417,2 12.34,2 L3.66,2 C3.583,2 3.52,2.065 3.52,2.14444444 L3.52,3.15555556 C3.52,3.235 3.583,3.3 3.66,3.3 Z M12.34,10.4864407 C12.417,10.4864407 12.48,10.4214407 12.48,10.3419962 L12.48,9.33088512 C12.48,9.25144068 12.417,9.18644068 12.34,9.18644068 L3.66,9.18644068 C3.583,9.18644068 3.52,9.25144068 3.52,9.33088512 L3.52,10.3419962 C3.52,10.4214407 3.583,10.4864407 3.66,10.4864407 L12.34,10.4864407 Z M14.86,12.7 L1.14,12.7 C1.063,12.7 1,12.765 1,12.8444444 L1,13.8555556 C1,13.935 1.063,14 1.14,14 L14.86,14 C14.937,14 15,13.935 15,13.8555556 L15,12.8444444 C15,12.765 14.937,12.7 14.86,12.7 Z M14.86,5.59322034 L1.14,5.59322034 C1.063,5.59322034 1,5.65822034 1,5.73766478 L1,6.74877589 C1,6.82822034 1.063,6.89322034 1.14,6.89322034 L14.86,6.89322034 C14.937,6.89322034 15,6.82822034 15,6.74877589 L15,5.73766478 C15,5.65822034 14.937,5.59322034 14.86,5.59322034 Z" id="形状"></path>
            </g>
        </g>
    </g>
</svg>