<?xml version="1.0" encoding="UTF-8"?>
<svg width="16px" height="16px" viewBox="0 0 16 16" version="1.1" xmlns="http://www.w3.org/2000/svg" xmlns:xlink="http://www.w3.org/1999/xlink">
    <title>p-alert</title>
    <g id="页面-1" stroke="none" stroke-width="1" fill="none" fill-rule="evenodd">
        <g id="画板" transform="translate(-571.000000, -830.000000)" fill="#000000" fill-rule="nonzero">
            <g id="p-alert" transform="translate(571.000000, 830.000000)">
                <rect id="矩形" opacity="0" x="0" y="0" width="16" height="16"></rect>
                <path d="M3.015625,12.4375 C3.015625,12.7140625 3.2390625,12.9375 3.515625,12.9375 L12.484375,12.9375 C12.7609375,12.9375 12.984375,12.7140625 12.984375,12.4375 L12.984375,8.796875 C12.984375,6.04375 10.753125,3.8125 8,3.8125 C5.246875,3.8125 3.015625,6.04375 3.015625,8.796875 L3.015625,12.4375 Z M4.140625,8.796875 C4.140625,6.665625 5.86875,4.9375 8,4.9375 C10.13125,4.9375 11.859375,6.665625 11.859375,8.796875 L11.859375,11.8125 L6.3125,11.8125 L6.3125,9.140625 C6.3125,9.0546875 6.2421875,8.984375 6.15625,8.984375 L5.46875,8.984375 C5.3828125,8.984375 5.3125,9.0546875 5.3125,9.140625 L5.3125,11.8125 L4.140625,11.8125 L4.140625,8.796875 Z M3.3890625,4.8515625 L4.0078125,4.2328125 C4.05625,4.184375 4.05625,4.1046875 4.0078125,4.05625 L2.946875,2.9953125 C2.8984375,2.946875 2.81875,2.946875 2.7703125,2.9953125 L2.1515625,3.6140625 C2.103125,3.6625 2.103125,3.7421875 2.1515625,3.790625 L3.2125,4.8515625 C3.2609375,4.9 3.3390625,4.9 3.3890625,4.8515625 Z M13.8515625,3.6140625 L13.2328125,2.9953125 C13.184375,2.946875 13.1046875,2.946875 13.05625,2.9953125 L11.9953125,4.05625 C11.946875,4.1046875 11.946875,4.184375 11.9953125,4.2328125 L12.6140625,4.8515625 C12.6625,4.9 12.7421875,4.9 12.790625,4.8515625 L13.8515625,3.790625 C13.9,3.740625 13.9,3.6625 13.8515625,3.6140625 L13.8515625,3.6140625 Z M13,13.9375 L3,13.9375 C2.7234375,13.9375 2.5,14.1609375 2.5,14.4375 L2.5,14.8125 C2.5,14.88125 2.55625,14.9375 2.625,14.9375 L13.375,14.9375 C13.44375,14.9375 13.5,14.88125 13.5,14.8125 L13.5,14.4375 C13.5,14.1609375 13.2765625,13.9375 13,13.9375 Z M7.5625,2.8125 L8.4375,2.8125 C8.50625,2.8125 8.5625,2.75625 8.5625,2.6875 L8.5625,1.1875 C8.5625,1.11875 8.50625,1.0625 8.4375,1.0625 L7.5625,1.0625 C7.49375,1.0625 7.4375,1.11875 7.4375,1.1875 L7.4375,2.6875 C7.4375,2.75625 7.49375,2.8125 7.5625,2.8125 Z" id="形状"></path>
            </g>
        </g>
    </g>
</svg>