<?xml version="1.0" standalone="no"?><!DOCTYPE svg PUBLIC "-//W3C//DTD SVG 1.1//EN" "http://www.w3.org/Graphics/SVG/1.1/DTD/svg11.dtd"><svg t="1669108030377" class="icon" viewBox="0 0 1024 1024" version="1.1" xmlns="http://www.w3.org/2000/svg" p-id="8434" width="16" height="16" xmlns:xlink="http://www.w3.org/1999/xlink"><path d="M1015.149714 453.997714l-142.409143-142.336a27.209143 27.209143 0 0 0-19.309714-8.045714c-7.314286 0-14.189714 2.852571-19.382857 8.045714L461.970286 683.666286a27.648 27.648 0 0 0-6.948572 11.922285l-55.588571 195.876572a27.136 27.136 0 0 0 26.404571 34.742857 28.16 28.16 0 0 0 7.094857-0.950857l197.851429-53.467429a27.867429 27.867429 0 0 0 12.214857-7.094857l372.150857-372.077714a27.209143 27.209143 0 0 0 0-38.619429zM506.148571 749.275429l70.875429 70.948571-98.523429 26.624 27.648-97.572571z m126.171429 35.766857l-90.697143-90.697143 311.734857-311.734857 90.624 90.697143-311.661714 311.734857z" fill="#3D3D3D" p-id="8435"></path><path d="M863.378286 860.013714a31.890286 31.890286 0 0 0-31.963429 31.890286 68.242286 68.242286 0 0 1-68.169143 68.242286H64.731429V64H554.422857l191.853714 193.097143a31.963429 31.963429 0 0 0 45.348572-45.202286L580.973714 0H0.950857v1024h762.294857c72.777143 0 132.096-59.245714 132.096-132.096a31.890286 31.890286 0 0 0-31.963428-31.890286z" fill="#3D3D3D" p-id="8436"></path><path d="M416.182857 193.828571H160.621714a31.890286 31.890286 0 1 0 0 63.853715H416.182857a31.890286 31.890286 0 1 0 0-63.926857zM416.182857 385.462857H160.621714a31.890286 31.890286 0 1 0 0 63.853714H416.182857a31.890286 31.890286 0 1 0 0-63.926857zM416.182857 577.097143H160.621714a31.890286 31.890286 0 1 0 0 63.853714H416.182857a31.890286 31.890286 0 1 0 0-63.853714z" fill="#3D3D3D" p-id="8437"></path></svg>