<?xml version="1.0" encoding="UTF-8"?>
<svg width="16px" height="16px" viewBox="0 0 16 16" version="1.1" xmlns="http://www.w3.org/2000/svg" xmlns:xlink="http://www.w3.org/1999/xlink">
    <title>p-amb-t-expend</title>
    <g id="页面-1" stroke="none" stroke-width="1" fill="none" fill-rule="evenodd">
        <g id="画板" transform="translate(-270.000000, -141.000000)" fill="#000000" fill-rule="nonzero">
            <g id="p-amb-t-expend" transform="translate(270.000000, 141.000000)">
                <rect id="矩形" opacity="0" x="0" y="0" width="16" height="16"></rect>
                <path d="M13.9978087,7.37256988 C14.0640829,7.37256988 14.1178087,7.42629571 14.1178087,7.49256988 L14.1172218,13.2475699 L14.81391,13.2477829 C14.8801842,13.2477829 14.93391,13.3015087 14.93391,13.3677829 L14.93391,14.3907968 C14.93391,14.4570709 14.8801842,14.5107968 14.81391,14.5107968 L1.45222183,14.5107968 C1.38594766,14.5107968 1.33222183,14.4570709 1.33222183,14.3907968 L1.33222183,13.3677829 C1.33222183,13.3015087 1.38594766,13.2477829 1.45222183,13.2477829 L2.12322183,13.2475699 L2.12352305,9.70049546 C2.12352305,9.63422129 2.17724888,9.58049546 2.24352305,9.58049546 L3.26653695,9.58049546 C3.33281112,9.58049546 3.38653695,9.63422129 3.38653695,9.70049546 L3.38622183,13.2475699 L5.70322183,13.2475699 L5.70419302,8.63539768 C5.70419302,8.56912351 5.75791885,8.51539768 5.82419302,8.51539768 L6.84720692,8.51539768 C6.91348109,8.51539768 6.96720692,8.56912351 6.96720692,8.63539768 L6.96622183,13.2475699 L9.28222183,13.2475699 L9.28230629,9.70049546 C9.28230629,9.63422129 9.33603212,9.58049546 9.40230629,9.58049546 L10.4253202,9.58049546 C10.4915944,9.58049546 10.5453202,9.63422129 10.5453202,9.70049546 L10.5452218,13.2475699 L12.8542218,13.2475699 L12.8547948,7.49256988 C12.8547948,7.42629571 12.9085206,7.37256988 12.9747948,7.37256988 L13.9978087,7.37256988 Z M14.88,1.49 C14.9462742,1.49 15,1.54372583 15,1.61 L15,5.24310621 C15,5.30938038 14.9462742,5.36310621 14.88,5.36310621 L13.8569861,5.36310621 C13.7907124,5.36310507 13.7369867,5.30937993 13.736985,5.24310621 L13.736,3.575 L10.0003143,6.60233184 C9.95618199,6.63809413 9.89302074,6.63801423 9.848979,6.6021404 L7.17123225,4.42100353 L1.80707465,8.44340588 C1.76730913,8.47322791 1.71505918,8.47463565 1.67464581,8.45110667 L1.63907942,8.41938949 L1.02536424,7.60090851 C0.985605773,7.54788465 0.9963595,7.47266971 1.04938336,7.43291124 L7.12835773,2.87476148 C7.17244629,2.8417029 7.23338363,2.84292117 7.27611566,2.87771549 L9.9255741,5.03502259 L12.743,2.752 L11.0141517,2.75300713 C10.9611324,2.75301554 10.916142,2.71863462 10.9002647,2.67094955 L10.8941517,2.6330139 L10.8941517,1.61 C10.8941517,1.54372583 10.9478775,1.49 11.0141517,1.49 L14.88,1.49 Z" id="形状结合"></path>
            </g>
        </g>
    </g>
</svg>