<?xml version="1.0" standalone="no"?><!DOCTYPE svg PUBLIC "-//W3C//DTD SVG 1.1//EN" "http://www.w3.org/Graphics/SVG/1.1/DTD/svg11.dtd"><svg t="1669190799782" class="icon" viewBox="0 0 1024 1024" version="1.1" xmlns="http://www.w3.org/2000/svg" p-id="7819" xmlns:xlink="http://www.w3.org/1999/xlink" width="16" height="16"><path d="M486.985143 46.372571a23.186286 23.186286 0 0 1 23.186286 23.186286v440.612572h440.539428a23.186286 23.186286 0 0 1 23.186286 23.186285 479.232 479.232 0 0 1-38.546286 188.854857 493.202286 493.202286 0 0 1-259.510857 259.510858 479.232 479.232 0 0 1-164.571429 38.034285l-24.283428 0.512a479.232 479.232 0 0 1-188.928-38.546285A493.202286 493.202286 0 0 1 38.546286 722.212571a482.084571 482.084571 0 0 1 0-377.782857 493.202286 493.202286 0 0 1 259.510857-259.510857 479.232 479.232 0 0 1 164.571428-37.961143l24.356572-0.585143z m-50.029714 76.214858l-11.556572 1.536a405.942857 405.942857 0 0 0-98.596571 28.013714 419.986286 419.986286 0 0 0-220.964572 220.964571 408.868571 408.868571 0 0 0 0 320.365715 420.059429 420.059429 0 0 0 220.964572 221.037714 406.308571 406.308571 0 0 0 160.182857 32.621714c55.076571 0.073143 109.494857-10.971429 160.109714-32.621714a420.059429 420.059429 0 0 0 221.037714-221.037714 405.942857 405.942857 0 0 0 28.013715-98.596572l1.462857-11.629714H437.028571V122.660571zM579.730286 0a440.612571 440.612571 0 0 1 440.539428 440.612571 23.186286 23.186286 0 0 1-23.186285 23.186286H579.730286a23.186286 23.186286 0 0 1-23.186286-23.186286V23.186286c0-10.971429 7.606857-20.187429 17.846857-22.601143L579.730286 0z m49.883428 76.507429V390.582857h314.075429l-1.901714-12.653714a367.835429 367.835429 0 0 0-299.446858-299.446857l-12.726857-1.974857z" fill="#2c2c2c" p-id="7820"></path></svg>