<?xml version="1.0" encoding="UTF-8"?>
<svg width="16px" height="16px" viewBox="0 0 16 16" version="1.1" xmlns="http://www.w3.org/2000/svg" xmlns:xlink="http://www.w3.org/1999/xlink">
    <title>p-amb-t-revenue</title>
    <g id="页面-1" stroke="none" stroke-width="1" fill="none" fill-rule="evenodd">
        <g id="画板" transform="translate(-296.000000, -141.000000)">
            <g id="p-amb-t-revenue" transform="translate(296.000000, 141.000000)">
                <rect id="矩形" fill="#D8D8D8" opacity="0" x="0" y="0" width="16" height="16"></rect>
                <path d="M12.8202712,13.7002589 C12.8865453,13.7002589 12.9402712,13.7539847 12.9402712,13.8202589 L12.9402712,14.8802589 C12.9402712,14.946533 12.8865453,15.0002589 12.8202712,15.0002589 L3.17791823,15.0002589 C3.11164406,15.0002589 3.05791823,14.946533 3.05791823,14.8802589 L3.05791823,13.8202589 C3.05791823,13.7539847 3.11164406,13.7002589 3.17791823,13.7002589 L12.8202712,13.7002589 Z M14.2463105,1 C14.6625617,1 15,1.33578644 15,1.75 L15,1.75 L15,10.9277147 C15,11.3419283 14.6625617,11.6777147 14.2463105,11.6777147 L14.2463105,11.6777147 L1.75368954,11.6777147 C1.3374383,11.6777147 1,11.3419283 1,10.9277147 L1,10.9277147 L1,1.75 C1,1.33578644 1.3374383,1 1.75368954,1 L1.75368954,1 Z M13.6930546,2.29925886 L2.30631303,2.29925886 L2.30631303,10.3772589 L13.6930546,10.3772589 L13.6930546,2.29925886 Z M6.62544446,3.65430382 L9.36491823,6.36225886 L11.7334902,4.09285093 C11.7813608,4.04704085 11.8573014,4.04865164 11.9031864,4.09645039 L12.6367859,4.86158555 C12.6826526,4.90942394 12.6810542,4.98538692 12.6332158,5.03125362 L9.43639719,8.09631272 C9.38946829,8.1413074 9.31524291,8.14074642 9.26899946,8.09504756 L6.52691823,5.38525886 L3.74726303,8.04795315 C3.71138633,8.08235537 3.65968839,8.09003764 3.61674077,8.07153813 L3.57762101,8.04428348 L3.57762101,8.04428348 L2.84458103,7.27861227 C2.79874932,7.23074036 2.80040323,7.15477857 2.84827513,7.10894685 L6.45809836,3.6529664 C6.50504014,3.60802517 6.57922696,3.60861807 6.62544446,3.65430382 Z" id="形状结合" fill="#000000" fill-rule="nonzero"></path>
            </g>
        </g>
    </g>
</svg>