<?xml version="1.0" encoding="UTF-8"?>
<svg width="16px" height="16px" viewBox="0 0 16 16" version="1.1" xmlns="http://www.w3.org/2000/svg" xmlns:xlink="http://www.w3.org/1999/xlink">
    <title>p-appstore-add</title>
    <g id="页面-1" stroke="none" stroke-width="1" fill="none" fill-rule="evenodd">
        <g id="画板" transform="translate(-180.000000, -1600.000000)" fill="#000000" fill-rule="nonzero">
            <g id="p-appstore-add" transform="translate(180.000000, 1600.000000)">
                <rect id="矩形" opacity="0" x="0" y="0" width="16" height="16"></rect>
                <path d="M7.08695652,1 L1.30434783,1 C1.13695652,1 1,1.13695652 1,1.30434783 L1,7.08695652 C1,7.25434783 1.13695652,7.39130435 1.30434783,7.39130435 L7.08695652,7.39130435 C7.25434783,7.39130435 7.39130435,7.25434783 7.39130435,7.08695652 L7.39130435,1.30434783 C7.39130435,1.13695652 7.25434783,1 7.08695652,1 Z M6.09782609,6.09782609 L2.29347826,6.09782609 L2.29347826,2.29347826 L6.09782609,2.29347826 L6.09782609,6.09782609 Z M14.6956522,1 L8.91304348,1 C8.74565217,1 8.60869565,1.13695652 8.60869565,1.30434783 L8.60869565,7.08695652 C8.60869565,7.25434783 8.74565217,7.39130435 8.91304348,7.39130435 L14.6956522,7.39130435 C14.8630435,7.39130435 15,7.25434783 15,7.08695652 L15,1.30434783 C15,1.13695652 14.8630435,1 14.6956522,1 Z M13.7065217,6.09782609 L9.90217391,6.09782609 L9.90217391,2.29347826 L13.7065217,2.29347826 L13.7065217,6.09782609 Z M14.6956522,8.60869565 L8.91304348,8.60869565 C8.74565217,8.60869565 8.60869565,8.74565217 8.60869565,8.91304348 L8.60869565,14.6956522 C8.60869565,14.8630435 8.74565217,15 8.91304348,15 L14.6956522,15 C14.8630435,15 15,14.8630435 15,14.6956522 L15,8.91304348 C15,8.74565217 14.8630435,8.60869565 14.6956522,8.60869565 Z M13.7065217,13.7065217 L9.90217391,13.7065217 L9.90217391,9.90217391 L13.7065217,9.90217391 L13.7065217,13.7065217 Z M7.24217391,11.193913 L4.8073913,11.193913 L4.8073913,8.75913043 C4.8073913,8.67543478 4.73891304,8.60695652 4.65521739,8.60695652 L3.74217391,8.60695652 C3.65847826,8.60695652 3.59,8.67543478 3.59,8.75913043 L3.59,11.193913 L1.15521739,11.193913 C1.07152174,11.193913 1.00304348,11.2623913 1.00304348,11.346087 L1.00304348,12.2591304 C1.00304348,12.3428261 1.07152174,12.4113043 1.15521739,12.4113043 L3.59,12.4113043 L3.59,14.846087 C3.59,14.9297826 3.65847826,14.9982609 3.74217391,14.9982609 L4.65521739,14.9982609 C4.73891304,14.9982609 4.8073913,14.9297826 4.8073913,14.846087 L4.8073913,12.4113043 L7.24217391,12.4113043 C7.32586957,12.4113043 7.39434783,12.3428261 7.39434783,12.2591304 L7.39434783,11.346087 C7.39434783,11.2623913 7.32586957,11.193913 7.24217391,11.193913 Z" id="形状"></path>
            </g>
        </g>
    </g>
</svg>