<?xml version="1.0" encoding="UTF-8"?>
<svg width="16px" height="16px" viewBox="0 0 16 16" version="1.1" xmlns="http://www.w3.org/2000/svg" xmlns:xlink="http://www.w3.org/1999/xlink">
    <title>p-app-store</title>
    <g id="页面-1" stroke="none" stroke-width="1" fill="none" fill-rule="evenodd">
        <g id="画板" transform="translate(-311.000000, -518.000000)" fill="#000000" fill-rule="nonzero">
            <g id="p-app-store" transform="translate(311.000000, 518.000000)">
                <rect id="矩形" opacity="0" x="0" y="0" width="16" height="16"></rect>
                <path d="M7.08695652,1 L1.30434783,1 C1.13695652,1 1,1.13695652 1,1.30434783 L1,7.08695652 C1,7.25434783 1.13695652,7.39130435 1.30434783,7.39130435 L7.08695652,7.39130435 C7.25434783,7.39130435 7.39130435,7.25434783 7.39130435,7.08695652 L7.39130435,1.30434783 C7.39130435,1.13695652 7.25434783,1 7.08695652,1 Z M6.09782609,6.09782609 L2.29347826,6.09782609 L2.29347826,2.29347826 L6.09782609,2.29347826 L6.09782609,6.09782609 Z M14.6956522,1 L8.91304348,1 C8.74565217,1 8.60869565,1.13695652 8.60869565,1.30434783 L8.60869565,7.08695652 C8.60869565,7.25434783 8.74565217,7.39130435 8.91304348,7.39130435 L14.6956522,7.39130435 C14.8630435,7.39130435 15,7.25434783 15,7.08695652 L15,1.30434783 C15,1.13695652 14.8630435,1 14.6956522,1 Z M13.7065217,6.09782609 L9.90217391,6.09782609 L9.90217391,2.29347826 L13.7065217,2.29347826 L13.7065217,6.09782609 Z M7.08695652,8.60869565 L1.30434783,8.60869565 C1.13695652,8.60869565 1,8.74565217 1,8.91304348 L1,14.6956522 C1,14.8630435 1.13695652,15 1.30434783,15 L7.08695652,15 C7.25434783,15 7.39130435,14.8630435 7.39130435,14.6956522 L7.39130435,8.91304348 C7.39130435,8.74565217 7.25434783,8.60869565 7.08695652,8.60869565 Z M6.09782609,13.7065217 L2.29347826,13.7065217 L2.29347826,9.90217391 L6.09782609,9.90217391 L6.09782609,13.7065217 Z M14.6956522,8.60869565 L8.91304348,8.60869565 C8.74565217,8.60869565 8.60869565,8.74565217 8.60869565,8.91304348 L8.60869565,14.6956522 C8.60869565,14.8630435 8.74565217,15 8.91304348,15 L14.6956522,15 C14.8630435,15 15,14.8630435 15,14.6956522 L15,8.91304348 C15,8.74565217 14.8630435,8.60869565 14.6956522,8.60869565 Z M13.7065217,13.7065217 L9.90217391,13.7065217 L9.90217391,9.90217391 L13.7065217,9.90217391 L13.7065217,13.7065217 Z" id="形状"></path>
            </g>
        </g>
    </g>
</svg>