<?xml version="1.0" encoding="UTF-8"?>
<svg width="16px" height="16px" viewBox="0 0 16 16" version="1.1" xmlns="http://www.w3.org/2000/svg" xmlns:xlink="http://www.w3.org/1999/xlink">
    <title>p-arrow-down</title>
    <g id="页面-1" stroke="none" stroke-width="1" fill="none" fill-rule="evenodd">
        <g id="画板" transform="translate(-136.000000, -271.000000)" fill="#000000">
            <g id="p-arrow-down" transform="translate(136.000000, 271.000000)">
                <rect id="矩形" fill-rule="nonzero" opacity="0" x="0" y="0" width="16" height="16"></rect>
                <path d="M8.46647698,1 C8.57638756,1 8.6654877,1.08910014 8.6654877,1.19901072 L8.66477206,12.5127704 L13.0677133,7.33823471 C13.1057129,7.29357582 13.1613967,7.26784275 13.2200345,7.26784275 L14.3925171,7.26784275 C14.502974,7.26784275 14.5925171,7.3573858 14.5925171,7.46784275 C14.5925171,7.51532075 14.5756269,7.56125033 14.5448673,7.59741674 L8.39792161,14.8248578 L8.39792161,14.8248578 C8.21986805,15.03414 7.90587038,15.0594558 7.69658818,14.8814022 L7.64082933,14.8257789 L1.46206005,7.59779913 C1.39028712,7.51383852 1.4001672,7.38759154 1.48412781,7.31581861 C1.5203482,7.28485596 1.56643336,7.26784275 1.61408419,7.26784275 L2.78840228,7.26784275 C2.84687798,7.26784275 2.90242469,7.29343433 2.94042249,7.33788178 L7.37120235,12.5207308 L7.37120235,12.5207308 L7.37191799,1.19901072 C7.37191799,1.08910014 7.46101813,1 7.57092872,1 L8.46647698,1 Z" id="路径"></path>
            </g>
        </g>
    </g>
</svg>