<?xml version="1.0" encoding="UTF-8"?>
<svg width="16px" height="16px" viewBox="0 0 16 16" version="1.1" xmlns="http://www.w3.org/2000/svg" xmlns:xlink="http://www.w3.org/1999/xlink">
    <title>p-arrows-alt</title>
    <g id="页面-1" stroke="none" stroke-width="1" fill="none" fill-rule="evenodd">
        <g id="画板" transform="translate(-277.000000, -347.000000)" fill="#000000">
            <g id="p-arrows-alt" transform="translate(277.000000, 347.000000)">
                <rect id="矩形" fill-rule="nonzero" opacity="0" x="0" y="0" width="16" height="16"></rect>
                <path d="M10.9043242,1.64339444 C10.9200289,1.62768976 10.9405148,1.61766011 10.9625508,1.61488743 L14.6296475,1.15347518 C14.7392404,1.13968566 14.8392615,1.21734959 14.853051,1.32694242 L14.8546156,1.35191054 L14.3916388,5.04397536 C14.384744,5.09877177 14.3347334,5.13760374 14.279937,5.13070898 C14.257901,5.1279363 14.2374151,5.11790665 14.2217104,5.10220198 L13.0178231,3.89927701 L13.0039431,3.91961132 L10.0881436,6.83762143 C10.0100387,6.91572629 9.88340571,6.91572629 9.80530086,6.83762143 L9.16890475,6.20122533 C9.09079989,6.12312047 9.09079989,5.99648748 9.16890475,5.91838262 L12.0680426,3.01924482 L12.1064057,2.98831154 L10.9043242,1.78481579 C10.8652718,1.74576336 10.8652718,1.68244687 10.9043242,1.64339444 Z M1.64991926,10.8977994 C1.67920858,10.8685101 1.72214644,10.8611877 1.75826004,10.8758324 L1.79134062,10.8977994 L2.99483636,12.0998809 L3.02576964,12.0615177 L5.92490744,9.16237993 C5.98999483,9.09729255 6.0887823,9.08644465 6.16510305,9.12983624 L6.20775016,9.16237993 L6.84414626,9.79877603 C6.90923364,9.86386341 6.92008154,9.96265089 6.87668995,10.0389716 L6.84414626,10.0816187 L3.92613615,12.9974182 L3.90580183,13.0112983 L5.1087268,14.2151856 C5.12443147,14.2308902 5.13446112,14.2513762 5.1372338,14.2734122 C5.14240487,14.3145095 5.12185466,14.3529148 5.08813912,14.3724576 L5.05050018,14.3851139 L1.38340348,14.8465262 C1.36682343,14.8486124 1.35004729,14.8486124 1.33346724,14.8465262 C1.24579298,14.8354946 1.17855322,14.7692747 1.16222451,14.6871165 L1.16,14.6231227 L1.62141226,10.956026 C1.62418494,10.93399 1.63421459,10.9135041 1.64991926,10.8977994 Z" id="形状"></path>
            </g>
        </g>
    </g>
</svg>