<?xml version="1.0" encoding="UTF-8"?>
<svg width="16px" height="16px" viewBox="0 0 16 16" version="1.1" xmlns="http://www.w3.org/2000/svg" xmlns:xlink="http://www.w3.org/1999/xlink">
    <title>p-area-chart</title>
    <g id="页面-1" stroke="none" stroke-width="1" fill="none" fill-rule="evenodd">
        <g id="画板" transform="translate(-161.000000, -518.000000)" fill="#000000" fill-rule="nonzero">
            <g id="p-area-chart" transform="translate(161.000000, 518.000000)">
                <rect id="矩形" opacity="0" x="0" y="0" width="16" height="16"></rect>
                <path d="M14.8541667,13.1704545 L2.3125,13.1704545 L2.3125,1.64772727 C2.3125,1.56647727 2.246875,1.5 2.16666667,1.5 L1.14583333,1.5 C1.065625,1.5 1,1.56647727 1,1.64772727 L1,14.3522727 C1,14.4335227 1.065625,14.5 1.14583333,14.5 L14.8541667,14.5 C14.934375,14.5 15,14.4335227 15,14.3522727 L15,13.3181818 C15,13.2369318 14.934375,13.1704545 14.8541667,13.1704545 Z M3.625,11.9886364 L13.3958333,11.9886364 C13.4760417,11.9886364 13.5416667,11.9221591 13.5416667,11.8409091 L13.5416667,3.78977273 C13.5416667,3.65681818 13.3830729,3.5921875 13.2919271,3.68451705 L9.45833333,7.56789773 L7.17239583,5.278125 C7.11588542,5.22088068 7.02291667,5.22088068 6.96640625,5.278125 L3.52109375,8.77926136 C3.49375,8.80696023 3.47916667,8.84389205 3.47916667,8.88267045 L3.47916667,11.8409091 C3.47916667,11.9221591 3.54479167,11.9886364 3.625,11.9886364 Z" id="形状"></path>
            </g>
        </g>
    </g>
</svg>