<?xml version="1.0" encoding="UTF-8"?>
<svg width="16px" height="16px" viewBox="0 0 16 16" version="1.1" xmlns="http://www.w3.org/2000/svg" xmlns:xlink="http://www.w3.org/1999/xlink">
    <title>p-attachment</title>
    <g id="页面-1" stroke="none" stroke-width="1" fill="none" fill-rule="evenodd">
        <g id="画板" transform="translate(-206.000000, -1600.000000)" fill="#000000" fill-rule="nonzero">
            <g id="p-attachment" transform="translate(206.000000, 1600.000000)">
                <rect id="矩形" opacity="0" x="0" y="0" width="16" height="16"></rect>
                <path d="M6.61010657,2.29125704 C8.33178263,0.569580986 11.123171,0.569580986 12.8448471,2.29125704 C14.4824233,3.92883326 14.5652845,6.54038226 13.076335,8.27611802 L12.9222,8.44670371 L7.29806598,14.0727787 C6.06177088,15.3090738 4.05734049,15.3090738 2.82104539,14.0727787 C1.65680987,12.9085432 1.58651377,11.057872 2.62478201,9.81078241 L2.75469624,9.66411142 L7.54182489,4.8749786 C8.29852591,4.11827758 9.52538067,4.11827758 10.2820817,4.8749786 C10.975845,5.56874188 11.0355669,6.66195895 10.4489843,7.42503877 L10.3387582,7.55612438 L10.2820817,7.6152354 L6.44056742,11.4567497 C6.3488,11.5485171 6.20951843,11.5638117 6.10191296,11.5026334 L6.04178433,11.4567497 L5.52307717,10.9380425 C5.43130974,10.8462751 5.41601517,10.7069935 5.47719346,10.599388 L5.52307717,10.5392594 L9.36459144,6.69774515 C9.61457659,6.44776 9.61457659,6.042454 9.36459144,5.79246885 C9.15357276,5.58145017 8.82981311,5.5475835 8.58489754,5.69404785 L8.49712421,5.7574312 L3.73853565,10.5132483 C3.00895642,11.2428276 3.00895642,12.4257092 3.73853565,13.1552884 C4.40841943,13.8251722 5.46444322,13.881824 6.197625,13.3163143 L6.32351441,13.2100582 L11.9273568,7.60850731 C13.142317,6.39354713 13.142317,4.42370747 11.9273568,3.20874729 C10.782368,2.06375844 8.96192118,1.99551583 7.73834967,3.01610004 L7.59446752,3.14379729 L2.86008093,7.87626318 C2.76831351,7.96803061 2.62903195,7.98332518 2.52142647,7.9221469 L2.46129785,7.87626318 L1.94259068,7.35755602 C1.85082326,7.2657886 1.83552869,7.12650703 1.89670697,7.01890156 L1.94259068,6.95877293 L6.61010657,2.29125704 Z" id="路径"></path>
            </g>
        </g>
    </g>
</svg>