<?xml version="1.0" encoding="UTF-8"?>
<svg width="17px" height="17px" viewBox="0 0 17 17" version="1.1" xmlns="http://www.w3.org/2000/svg" xmlns:xlink="http://www.w3.org/1999/xlink">
    <title>p-audio</title>
    <g id="页面-1" stroke="none" stroke-width="1" fill="none" fill-rule="evenodd">
        <g id="画板" transform="translate(-134.000000, -347.000000)" fill="#000000" fill-rule="nonzero">
            <g id="p-audio" transform="translate(134.011012, 347.072042)">
                <rect id="矩形" opacity="0" x="0" y="0" width="16" height="16"></rect>
                <path d="M13.15625,7.09375 C13.15625,7.025 13.1,6.96875 13.03125,6.96875 L12.09375,6.96875 C12.025,6.96875 11.96875,7.025 11.96875,7.09375 C11.96875,9.2859375 10.1921875,11.0625 8,11.0625 C5.8078125,11.0625 4.03125,9.2859375 4.03125,7.09375 C4.03125,7.025 3.975,6.96875 3.90625,6.96875 L2.96875,6.96875 C2.9,6.96875 2.84375,7.025 2.84375,7.09375 C2.84375,9.7296875 4.821875,11.9046875 7.375,12.2125 L7.375,13.8125 L5.1046875,13.8125 C4.890625,13.8125 4.71875,14.0359375 4.71875,14.3125 L4.71875,14.875 C4.71875,14.94375 4.7625,15 4.815625,15 L11.184375,15 C11.2375,15 11.28125,14.94375 11.28125,14.875 L11.28125,14.3125 C11.28125,14.0359375 11.109375,13.8125 10.8953125,13.8125 L8.5625,13.8125 L8.5625,12.2203125 C11.1453125,11.9390625 13.15625,9.7515625 13.15625,7.09375 Z M8,9.75 C9.4671875,9.75 10.65625,8.575 10.65625,7.125 L10.65625,3.625 C10.65625,2.175 9.4671875,1 8,1 C6.5328125,1 5.34375,2.175 5.34375,3.625 L5.34375,7.125 C5.34375,8.575 6.5328125,9.75 8,9.75 Z M6.53125,3.625 C6.53125,2.834375 7.1859375,2.1875 8,2.1875 C8.8140625,2.1875 9.46875,2.834375 9.46875,3.625 L9.46875,7.125 C9.46875,7.915625 8.8140625,8.5625 8,8.5625 C7.1859375,8.5625 6.53125,7.915625 6.53125,7.125 L6.53125,3.625 Z" id="形状"></path>
            </g>
        </g>
    </g>
</svg>