<?xml version="1.0" encoding="UTF-8"?>
<svg width="17px" height="17px" viewBox="0 0 17 17" version="1.1" xmlns="http://www.w3.org/2000/svg" xmlns:xlink="http://www.w3.org/1999/xlink">
    <title>p-audio-static</title>
    <g id="页面-1" stroke="none" stroke-width="1" fill="none" fill-rule="evenodd">
        <g id="画板" transform="translate(-161.000000, -347.000000)" fill="#000000" fill-rule="nonzero">
            <g id="p-audio-static" transform="translate(161.011012, 347.072042)">
                <rect id="矩形" opacity="0" x="0" y="0" width="16" height="16"></rect>
                <path d="M10.65625,7.109375 L10.65625,4.859375 L9.46875,6.046875 L9.46875,7.109375 C9.4671875,7.9015625 8.8125,8.5484375 8,8.546875 C7.7015625,8.5484375 7.425,8.4625 7.1875,8.3125 L6.34375,9.171875 C6.7984375,9.521875 7.3734375,9.734375 8,9.734375 C9.465625,9.734375 10.65625,8.5609375 10.65625,7.109375 Z M13.015625,6.96875 L12.078125,6.96875 C12.009375,6.96875 11.953125,7.025 11.953125,7.09375 C11.953125,9.2859375 10.1765625,11.0625 7.984375,11.0625 C7,11.0625 6.0984375,10.703125 5.40625,10.109375 L4.5625,10.953125 C5.3265625,11.628125 6.29375,12.0828125 7.359375,12.21875 L7.359375,13.8125 L5.09375,13.8125 C4.8765625,13.8125 4.7046875,14.0359375 4.703125,14.3125 L4.703125,14.875 C4.7046875,14.94375 4.7484375,15 4.796875,15 L11.171875,15 C11.221875,15 11.265625,14.94375 11.265625,14.875 L11.265625,14.3125 C11.265625,14.0359375 11.09375,13.8125 10.875,13.8125 L8.546875,13.8125 L8.546875,12.21875 C11.1296875,11.9390625 13.140625,9.7515625 13.140625,7.09375 C13.140625,7.025 13.084375,6.96875 13.015625,6.96875 Z M13.2203125,1.0671875 L12.540625,0.4125 C12.4921875,0.365625 12.4140625,0.365625 12.365625,0.4140625 L10.35,2.4296875 C9.9109375,1.58125 9.015625,1 7.984375,1 C6.5171875,1 5.328125,2.1765625 5.328125,3.625 L5.328125,7.125 C5.328125,7.2296875 5.334375,7.3328125 5.346875,7.434375 L4.284375,8.496875 C4.1203125,8.0609375 4.0296875,7.5875 4.03125,7.09375 C4.028125,7.025 3.971875,6.96875 3.90625,6.96875 L2.96875,6.96875 C2.9,6.96875 2.84375,7.025 2.84375,7.09375 C2.84375,7.921875 3.0390625,8.703125 3.384375,9.396875 L1.24375,11.5375 C1.1953125,11.5859375 1.1953125,11.665625 1.24375,11.7140625 L1.9109375,12.38125 C1.959375,12.4296875 2.0390625,12.4296875 2.0875,12.38125 L13.221875,1.246875 L13.2234375,1.2453125 C13.271875,1.1953125 13.2703125,1.115625 13.2203125,1.0671875 Z M6.515625,6.265625 L6.515625,3.625 C6.515625,2.834375 7.1703125,2.1875 7.984375,2.1875 C8.703125,2.1875 9.2984375,2.6921875 9.4265625,3.3546875 L6.515625,6.265625 Z" id="形状"></path>
            </g>
        </g>
    </g>
</svg>