<?xml version="1.0" encoding="UTF-8"?>
<svg width="16px" height="16px" viewBox="0 0 16 16" version="1.1" xmlns="http://www.w3.org/2000/svg" xmlns:xlink="http://www.w3.org/1999/xlink">
    <title>p-audit</title>
    <g id="页面-1" stroke="none" stroke-width="1" fill="none" fill-rule="evenodd">
        <g id="画板" transform="translate(-231.000000, -1600.000000)">
            <g id="p-audit" transform="translate(231.000000, 1600.000000)">
                <rect id="矩形" fill="#D8D8D8" opacity="0" x="0" y="0" width="16" height="16"></rect>
                <path d="M10.9860463,7.90917729 C12.058965,7.90917729 12.9287375,8.77894974 12.9287375,9.85186844 C12.9287375,10.7541202 12.3136633,11.5127137 11.4799436,11.7312202 L11.4790096,12.0851773 L13.705814,12.0859633 C13.8131058,12.0859633 13.9000831,12.1729405 13.9000831,12.2802324 L13.9000831,14.8057309 C13.9000831,14.9130228 13.8131058,15 13.705814,15 L8.26627872,15 C8.15898685,15 8.07200961,14.9130228 8.07200961,14.8057309 L8.07200961,12.2802324 C8.07200961,12.1729405 8.15898685,12.0859633 8.26627872,12.0859633 L10.4790096,12.0851773 L10.4791087,11.7277537 C9.65202372,11.5047888 9.04335519,10.7494097 9.04335519,9.85186844 C9.04335519,8.77894974 9.91312764,7.90917729 10.9860463,7.90917729 Z M12.9756595,1 C13.2518019,1 13.4756595,1.22385763 13.4756595,1.5 L13.4756595,7.27930336 C13.4756595,7.36214607 13.4085022,7.42930336 13.3256595,7.42930336 L12.4600448,7.42930336 C12.3772027,7.42930181 12.3100457,7.36214546 12.3100432,7.27930336 L12.3099904,2.16561089 L3.26482035,2.16561089 L3.26482035,13.4788728 L6.84010264,13.4796957 C6.92293186,13.4797492 6.99006811,13.5469009 6.99010264,13.6297302 L6.99010264,14.4953449 C6.99010264,14.5781876 6.92294535,14.6453449 6.84010264,14.6453449 L2.6,14.6453449 C2.32385763,14.6453449 2.1,14.4214872 2.1,14.1453449 L2.1,1.5 C2.1,1.22385763 2.32385763,1 2.6,1 L12.9756595,1 Z M12.9287375,13.0573088 L9.04335519,13.0573088 L9.04335519,14.0286544 L12.9287375,14.0286544 L12.9287375,13.0573088 Z M10.9860463,8.88052286 C10.449587,8.88052286 10.0147008,9.31540909 10.0147008,9.85186844 C10.0147008,10.3883278 10.449587,10.823214 10.9860463,10.823214 C11.5225057,10.823214 11.9573919,10.3883278 11.9573919,9.85186844 C11.9573919,9.31540909 11.5225057,8.88052286 10.9860463,8.88052286 Z M7.63782975,6.12786803 C7.72067246,6.12786803 7.78782975,6.19502532 7.78782975,6.27786803 L7.78782975,7.04634816 C7.78782975,7.12919088 7.72067246,7.19634816 7.63782975,7.19634816 L4.69439785,7.19634816 C4.61155513,7.19634816 4.54439785,7.12919088 4.54439785,7.04634816 L4.54439785,6.27786803 C4.54439785,6.19502532 4.61155513,6.12786803 4.69439785,6.12786803 L7.63782975,6.12786803 Z M10.8150392,3.76269614 C10.8978819,3.76269614 10.9650392,3.82985342 10.9650392,3.91269614 L10.9650392,4.68117627 C10.9650392,4.76401898 10.8978819,4.83117627 10.8150392,4.83117627 L4.69439785,4.83117627 C4.61155513,4.83117627 4.54439785,4.76401898 4.54439785,4.68117627 L4.54439785,3.91269614 C4.54439785,3.82985342 4.61155513,3.76269614 4.69439785,3.76269614 L10.8150392,3.76269614 Z" id="形状结合" fill="#000000" fill-rule="nonzero"></path>
            </g>
        </g>
    </g>
</svg>