<?xml version="1.0" encoding="UTF-8"?>
<svg width="16px" height="16px" viewBox="0 0 16 16" version="1.1" xmlns="http://www.w3.org/2000/svg" xmlns:xlink="http://www.w3.org/1999/xlink">
    <title>p-barcode</title>
    <g id="页面-1" stroke="none" stroke-width="1" fill="none" fill-rule="evenodd">
        <g id="画板" transform="translate(-141.000000, -518.000000)" fill="#000000" fill-rule="nonzero">
            <g id="p-barcode" transform="translate(141.000000, 518.000000)">
                <rect id="矩形" opacity="0" x="0" y="0" width="16" height="16"></rect>
                <path d="M1.875,2.5 L1.125,2.5 C1.05625,2.5 1,2.55625 1,2.625 L1,13.375 C1,13.44375 1.05625,13.5 1.125,13.5 L1.875,13.5 C1.94375,13.5 2,13.44375 2,13.375 L2,2.625 C2,2.55625 1.94375,2.5 1.875,2.5 Z M14.875,2.5 L14.125,2.5 C14.05625,2.5 14,2.55625 14,2.625 L14,13.375 C14,13.44375 14.05625,13.5 14.125,13.5 L14.875,13.5 C14.94375,13.5 15,13.44375 15,13.375 L15,2.625 C15,2.55625 14.94375,2.5 14.875,2.5 Z M3.125,11.5 L4.875,11.5 C4.94375,11.5 5,11.44375 5,11.375 L5,2.625 C5,2.55625 4.94375,2.5 4.875,2.5 L3.125,2.5 C3.05625,2.5 3,2.55625 3,2.625 L3,11.375 C3,11.44375 3.05625,11.5 3.125,11.5 Z M8.125,11.5 L8.875,11.5 C8.94375,11.5 9,11.44375 9,11.375 L9,2.625 C9,2.55625 8.94375,2.5 8.875,2.5 L8.125,2.5 C8.05625,2.5 8,2.55625 8,2.625 L8,11.375 C8,11.44375 8.05625,11.5 8.125,11.5 Z M10.125,11.5 L12.90625,11.5 C12.975,11.5 13.03125,11.44375 13.03125,11.375 L13.03125,2.625 C13.03125,2.55625 12.975,2.5 12.90625,2.5 L10.125,2.5 C10.05625,2.5 10,2.55625 10,2.625 L10,11.375 C10,11.44375 10.05625,11.5 10.125,11.5 Z M6.125,11.5 L6.875,11.5 C6.94375,11.5 7,11.44375 7,11.375 L7,2.625 C7,2.55625 6.94375,2.5 6.875,2.5 L6.125,2.5 C6.05625,2.5 6,2.55625 6,2.625 L6,11.375 C6,11.44375 6.05625,11.5 6.125,11.5 Z M4.875,12.5 L3.125,12.5 C3.05625,12.5 3,12.55625 3,12.625 L3,13.375 C3,13.44375 3.05625,13.5 3.125,13.5 L4.875,13.5 C4.94375,13.5 5,13.44375 5,13.375 L5,12.625 C5,12.55625 4.94375,12.5 4.875,12.5 Z M8.875,12.5 L8.125,12.5 C8.05625,12.5 8,12.55625 8,12.625 L8,13.375 C8,13.44375 8.05625,13.5 8.125,13.5 L8.875,13.5 C8.94375,13.5 9,13.44375 9,13.375 L9,12.625 C9,12.55625 8.94375,12.5 8.875,12.5 Z M12.90625,12.5 L10.125,12.5 C10.05625,12.5 10,12.55625 10,12.625 L10,13.375 C10,13.44375 10.05625,13.5 10.125,13.5 L12.90625,13.5 C12.975,13.5 13.03125,13.44375 13.03125,13.375 L13.03125,12.625 C13.03125,12.55625 12.975,12.5 12.90625,12.5 Z M6.875,12.5 L6.125,12.5 C6.05625,12.5 6,12.55625 6,12.625 L6,13.375 C6,13.44375 6.05625,13.5 6.125,13.5 L6.875,13.5 C6.94375,13.5 7,13.44375 7,13.375 L7,12.625 C7,12.55625 6.94375,12.5 6.875,12.5 Z" id="形状"></path>
            </g>
        </g>
    </g>
</svg>