<?xml version="1.0" encoding="UTF-8"?>
<svg width="16px" height="16px" viewBox="0 0 16 16" version="1.1" xmlns="http://www.w3.org/2000/svg" xmlns:xlink="http://www.w3.org/1999/xlink">
    <title>p-backward</title>
    <g id="页面-1" stroke="none" stroke-width="1" fill="none" fill-rule="evenodd">
        <g id="画板" transform="translate(-317.000000, -271.000000)" fill="#000000" fill-rule="nonzero">
            <g id="p-backward" transform="translate(317.000000, 271.000000)">
                <rect id="矩形" opacity="0" x="0" y="0" width="16" height="16"></rect>
                <path d="M7.46379189,2.58066442 L1.62643543,7.71098032 C1.45785486,7.8577971 1.45785486,8.14109145 1.62643543,8.28790822 L7.46379189,13.420292 C7.68111866,13.6105334 8,13.4389025 8,13.1307941 L8,2.86809445 C8,2.56205384 7.68111866,2.38835511 7.46379189,2.58066442 L7.46379189,2.58066442 Z M13.96375,2.58064925 L8.1259375,7.71000091 C8.04265625,7.78442923 8,7.8919368 8,7.99944438 C8,8.10695195 8.04265625,8.21445952 8.1259375,8.28888784 L13.96375,13.4203069 C14.1810937,13.6105127 14.5,13.438914 14.5,13.1308635 L14.5,2.86802526 C14.5,2.56204217 14.1810937,2.3883761 13.96375,2.58064925 Z" id="形状"></path>
            </g>
        </g>
    </g>
</svg>