<?xml version="1.0" encoding="UTF-8"?>
<svg width="16px" height="16px" viewBox="0 0 16 16" version="1.1" xmlns="http://www.w3.org/2000/svg" xmlns:xlink="http://www.w3.org/1999/xlink">
    <title>p-bank</title>
    <g id="页面-1" stroke="none" stroke-width="1" fill="none" fill-rule="evenodd">
        <g id="画板" transform="translate(-480.000000, -518.000000)" fill="#000000" fill-rule="nonzero">
            <g id="p-bank" transform="translate(480.000000, 518.000000)">
                <rect id="矩形" opacity="0" x="0" y="0" width="16" height="16"></rect>
                <path d="M14.4594113,7.17045083 C14.9819168,7.17045083 15.2000501,6.51211802 14.7756201,6.20865479 L8.31785855,1.60198339 C8.12860481,1.46600554 7.87131277,1.46600554 7.68205903,1.60198339 L1.22429744,6.20865479 C0.799867438,6.51045975 1.01800078,7.17045083 1.54219719,7.17045083 L2.58889906,7.17045083 L2.58889906,13.3723771 L1.37141062,13.3723771 C1.29700855,13.3723771 1.23613413,13.4320747 1.23613413,13.5050386 L1.23613413,14.3673385 C1.23613413,14.4403023 1.29700855,14.5 1.37141062,14.5 L14.628507,14.5 C14.702909,14.5 14.7637834,14.4403023 14.7637834,14.3673385 L14.7637834,13.5050386 C14.7637834,13.4320747 14.702909,13.3723771 14.628507,13.3723771 L13.4110185,13.3723771 L13.4110185,7.17045083 L14.4594113,7.17045083 Z M7.99995879,2.77106306 L12.584141,6.04116961 L3.41577663,6.04116961 L7.99995879,2.77106306 Z M3.8063875,7.17045083 L5.78480621,7.17045083 L5.78480621,13.3723771 L3.8063875,13.3723771 L3.8063875,7.17045083 Z M7.00229465,7.17045083 L8.98071336,7.17045083 L8.98071336,13.3723771 L7.00229465,13.3723771 L7.00229465,7.17045083 Z M12.1935301,13.3723771 L10.1982018,13.3723771 L10.1982018,7.17045083 L12.1935301,7.17045083 L12.1935301,13.3723771 Z" id="形状"></path>
            </g>
        </g>
    </g>
</svg>