<?xml version="1.0" encoding="UTF-8"?>
<svg width="16px" height="16px" viewBox="0 0 16 16" version="1.1" xmlns="http://www.w3.org/2000/svg" xmlns:xlink="http://www.w3.org/1999/xlink">
    <title>p-bar-chart</title>
    <g id="页面-1" stroke="none" stroke-width="1" fill="none" fill-rule="evenodd">
        <g id="画板" transform="translate(-182.000000, -518.000000)" fill="#000000" fill-rule="nonzero">
            <g id="p-bar-chart" transform="translate(182.000000, 518.000000)">
                <rect id="矩形" opacity="0" x="0" y="0" width="16" height="16"></rect>
                <path d="M14.8541667,13.1704545 L2.3125,13.1704545 L2.3125,1.64772727 C2.3125,1.56647727 2.246875,1.5 2.16666667,1.5 L1.14583333,1.5 C1.065625,1.5 1,1.56647727 1,1.64772727 L1,14.3522727 C1,14.4335227 1.065625,14.5 1.14583333,14.5 L14.8541667,14.5 C14.934375,14.5 15,14.4335227 15,14.3522727 L15,13.3181818 C15,13.2369318 14.934375,13.1704545 14.8541667,13.1704545 Z M3.91666667,11.6931818 L4.9375,11.6931818 C5.01770833,11.6931818 5.08333333,11.6267045 5.08333333,11.5454545 L5.08333333,8.88636364 C5.08333333,8.80511364 5.01770833,8.73863636 4.9375,8.73863636 L3.91666667,8.73863636 C3.83645833,8.73863636 3.77083333,8.80511364 3.77083333,8.88636364 L3.77083333,11.5454545 C3.77083333,11.6267045 3.83645833,11.6931818 3.91666667,11.6931818 Z M6.6875,11.6931818 L7.70833333,11.6931818 C7.78854167,11.6931818 7.85416667,11.6267045 7.85416667,11.5454545 L7.85416667,5.63636364 C7.85416667,5.55511364 7.78854167,5.48863636 7.70833333,5.48863636 L6.6875,5.48863636 C6.60729167,5.48863636 6.54166667,5.55511364 6.54166667,5.63636364 L6.54166667,11.5454545 C6.54166667,11.6267045 6.60729167,11.6931818 6.6875,11.6931818 Z M9.45833333,11.6931818 L10.4791667,11.6931818 C10.559375,11.6931818 10.625,11.6267045 10.625,11.5454545 L10.625,7.07670455 C10.625,6.99545455 10.559375,6.92897727 10.4791667,6.92897727 L9.45833333,6.92897727 C9.378125,6.92897727 9.3125,6.99545455 9.3125,7.07670455 L9.3125,11.5454545 C9.3125,11.6267045 9.378125,11.6931818 9.45833333,11.6931818 Z M12.2291667,11.6931818 L13.25,11.6931818 C13.3302083,11.6931818 13.3958333,11.6267045 13.3958333,11.5454545 L13.3958333,4.15909091 C13.3958333,4.07784091 13.3302083,4.01136364 13.25,4.01136364 L12.2291667,4.01136364 C12.1489583,4.01136364 12.0833333,4.07784091 12.0833333,4.15909091 L12.0833333,11.5454545 C12.0833333,11.6267045 12.1489583,11.6931818 12.2291667,11.6931818 Z" id="形状"></path>
            </g>
        </g>
    </g>
</svg>