<?xml version="1.0" encoding="UTF-8"?>
<svg width="16px" height="16px" viewBox="0 0 16 16" version="1.1" xmlns="http://www.w3.org/2000/svg" xmlns:xlink="http://www.w3.org/1999/xlink">
    <title>p-bell</title>
    <g id="页面-1" stroke="none" stroke-width="1" fill="none" fill-rule="evenodd">
        <g id="画板" transform="translate(-380.000000, -518.000000)" fill="#000000" fill-rule="nonzero">
            <g id="p-bell" transform="translate(380.000000, 518.000000)">
                <rect id="矩形" opacity="0" x="0" y="0" width="16" height="16"></rect>
                <path d="M7.915,15 C6.89021261,15 6.04544344,14.2328123 5.9287559,13.2439675 L2.7,13.2431568 C2.58954305,13.2431568 2.5,13.1536137 2.5,13.0431568 L2.5,12.4491646 C2.5,12.1730222 2.72385763,11.9491646 3,11.9491646 L3.5,11.949 L3.5,6.62607716 C3.5,4.40659026 5.12177965,2.56413976 7.25012728,2.20878351 L7.25,1.75 C7.25,1.33578644 7.58578644,1 8,1 C8.41421356,1 8.75,1.33578644 8.75,1.75 L8.75086941,2.20895003 C10.8787266,2.564715 12.5,4.40693673 12.5,6.62607716 L12.5,11.949 L13,11.9491646 C13.2761424,11.9491646 13.5,12.1730222 13.5,12.4491646 L13.5,13.0431568 C13.5,13.1536137 13.4104569,13.2431568 13.3,13.2431568 L9.9012441,13.2439675 C9.78455656,14.2328123 8.93978739,15 7.915,15 Z M8.8871172,13.2436311 L6.9428828,13.2436311 C7.03989599,13.643704 7.37969908,13.9495205 7.79837887,13.9979248 L7.915,14.0046214 C8.38617484,14.0046214 8.78123944,13.6802607 8.8871172,13.2436311 Z M8,3.44086565 C6.29363057,3.44086565 4.89920401,4.7702796 4.80506564,6.44532973 L4.8,6.62607716 L4.8,11.9491646 L11.2,11.9491646 L11.2,6.62607716 C11.2,4.92759355 9.86441377,3.5396112 8.18158661,3.44590787 L8,3.44086565 Z" id="形状结合"></path>
            </g>
        </g>
    </g>
</svg>