<?xml version="1.0" encoding="UTF-8"?>
<svg width="16px" height="16px" viewBox="0 0 16 16" version="1.1" xmlns="http://www.w3.org/2000/svg" xmlns:xlink="http://www.w3.org/1999/xlink">
    <title>p-bg-colors</title>
    <g id="页面-1" stroke="none" stroke-width="1" fill="none" fill-rule="evenodd">
        <g id="画板" transform="translate(-399.000000, -518.000000)" fill="#000000" fill-rule="nonzero">
            <g id="p-bg-colors" transform="translate(399.000000, 518.000000)">
                <rect id="矩形" opacity="0" x="0" y="0" width="16" height="16"></rect>
                <path d="M12.3938281,11.6296875 C13.0766406,11.6296875 13.6344531,11.0640625 13.6344531,10.371875 C13.6344531,9.5359375 12.3938281,8.171875 12.3938281,8.171875 C12.3938281,8.171875 11.1532031,9.5359375 11.1532031,10.371875 C11.1532031,11.0640625 11.7110156,11.6296875 12.3938281,11.6296875 Z M6.50164063,10.940625 C6.61257813,11.0515625 6.79226563,11.0515625 6.90164063,10.940625 L10.9032031,6.940625 C11.0141406,6.8296875 11.0141406,6.65 10.9032031,6.540625 L6.90320313,2.540625 C6.89382813,2.53125 6.88289063,2.521875 6.87195313,2.5140625 L5.65007813,1.2921875 C5.59539063,1.2375 5.50476563,1.2375 5.45007813,1.2921875 L4.70007813,2.0421875 C4.64539063,2.096875 4.64539063,2.1875 4.70007813,2.2421875 L5.75007813,3.2921875 L2.50320313,6.540625 C2.39226563,6.6515625 2.39226563,6.83125 2.50320313,6.940625 L6.50164063,10.940625 Z M6.70320313,3.93125 L9.49851563,6.7265625 L3.90945313,6.7265625 L6.70320313,3.93125 Z" id="形状"></path>
                <path d="M14.125,12.75 L1.875,12.75 C1.80625,12.75 1.75,12.79875 1.75,12.8583333 L1.75,13.9416667 C1.75,14.00125 1.80625,14.05 1.875,14.05 L14.125,14.05 C14.19375,14.05 14.25,14.00125 14.25,13.9416667 L14.25,12.8583333 C14.25,12.79875 14.19375,12.75 14.125,12.75 Z" id="形状-path"></path>
            </g>
        </g>
    </g>
</svg>