<?xml version="1.0" encoding="UTF-8"?>
<svg width="16px" height="16px" viewBox="0 0 16 16" version="1.1" xmlns="http://www.w3.org/2000/svg" xmlns:xlink="http://www.w3.org/1999/xlink">
    <title>p-book</title>
    <g id="页面-1" stroke="none" stroke-width="1" fill="none" fill-rule="evenodd">
        <g id="画板" transform="translate(-251.000000, -518.000000)" fill="#000000" fill-rule="nonzero">
            <g id="p-book" transform="translate(251.000000, 518.000000)">
                <rect id="矩形" opacity="0" x="0" y="0" width="16" height="16"></rect>
                <path d="M13,1 L3,1 C2.7234375,1 2.5,1.2234375 2.5,1.5 L2.5,14.5 C2.5,14.7765625 2.7234375,15 3,15 L13,15 C13.2765625,15 13.5,14.7765625 13.5,14.5 L13.5,1.5 C13.5,1.2234375 13.2765625,1 13,1 Z M8.9375,2.125 L10.4375,2.125 L10.4375,5.4046875 L9.7109375,4.875 L8.9375,5.428125 L8.9375,2.125 Z M12.375,13.875 L3.625,13.875 L3.625,2.125 L8,2.125 L8,6.7640625 C8,6.815625 8.015625,6.8671875 8.046875,6.909375 C8.1265625,7.021875 8.2828125,7.0484375 8.3953125,6.9671875 L9.7046875,6.03125 L10.9765625,6.959375 C11.01875,6.990625 11.0703125,7.0078125 11.1234375,7.0078125 C11.2609375,7.0078125 11.3734375,6.8953125 11.3734375,6.7578125 L11.3734375,2.125 L12.3734375,2.125 L12.3734375,13.875 L12.375,13.875 Z" id="形状结合"></path>
            </g>
        </g>
    </g>
</svg>