<?xml version="1.0" encoding="UTF-8"?>
<svg width="16px" height="16px" viewBox="0 0 16 16" version="1.1" xmlns="http://www.w3.org/2000/svg" xmlns:xlink="http://www.w3.org/1999/xlink">
    <title>p-border-horizontal</title>
    <g id="页面-1" stroke="none" stroke-width="1" fill="none" fill-rule="evenodd">
        <g id="画板" transform="translate(-215.000000, -157.000000)" fill="#000000">
            <g id="p-border-horizontal" transform="translate(215.000000, 157.000000)">
                <rect id="矩形" fill-rule="nonzero" opacity="0" x="0" y="0" width="16" height="16"></rect>
                <path d="M2.1,13.7 C2.21045695,13.7 2.3,13.7895431 2.3,13.9 L2.3,14.8 C2.3,14.9104569 2.21045695,15 2.1,15 L1.2,15 C1.08954305,15 1,14.9104569 1,14.8 L1,13.9 C1,13.7895431 1.08954305,13.7 1.2,13.7 L2.1,13.7 Z M5.3,13.7 C5.41045695,13.7 5.5,13.7895431 5.5,13.9 L5.5,14.8 C5.5,14.9104569 5.41045695,15 5.3,15 L4.4,15 C4.28954305,15 4.2,14.9104569 4.2,14.8 L4.2,13.9 C4.2,13.7895431 4.28954305,13.7 4.4,13.7 L5.3,13.7 Z M11.7,13.7 C11.8104569,13.7 11.9,13.7895431 11.9,13.9 L11.9,14.8 C11.9,14.9104569 11.8104569,15 11.7,15 L10.8,15 C10.6895431,15 10.6,14.9104569 10.6,14.8 L10.6,13.9 C10.6,13.7895431 10.6895431,13.7 10.8,13.7 L11.7,13.7 Z M14.8,13.7 C14.9104569,13.7 15,13.7895431 15,13.9 L15,14.8 C15,14.9104569 14.9104569,15 14.8,15 L13.9,15 C13.7895431,15 13.7,14.9104569 13.7,14.8 L13.7,13.9 C13.7,13.7895431 13.7895431,13.7 13.9,13.7 L14.8,13.7 Z M8.5,1 C8.61045695,1 8.7,1.08954305 8.7,1.2 L8.7,14.8 C8.7,14.9104569 8.61045695,15 8.5,15 L7.6,15 C7.48954305,15 7.4,14.9104569 7.4,14.8 L7.4,1.2 C7.4,1.08954305 7.48954305,1 7.6,1 L8.5,1 Z M2.1,10.6 C2.21045695,10.6 2.3,10.6895431 2.3,10.8 L2.3,11.7 C2.3,11.8104569 2.21045695,11.9 2.1,11.9 L1.2,11.9 C1.08954305,11.9 1,11.8104569 1,11.7 L1,10.8 C1,10.6895431 1.08954305,10.6 1.2,10.6 L2.1,10.6 Z M14.8,10.6 C14.9104569,10.6 15,10.6895431 15,10.8 L15,11.7 C15,11.8104569 14.9104569,11.9 14.8,11.9 L13.9,11.9 C13.7895431,11.9 13.7,11.8104569 13.7,11.7 L13.7,10.8 C13.7,10.6895431 13.7895431,10.6 13.9,10.6 L14.8,10.6 Z M2.1,7.4 C2.21045695,7.4 2.3,7.48954305 2.3,7.6 L2.3,8.5 C2.3,8.61045695 2.21045695,8.7 2.1,8.7 L1.2,8.7 C1.08954305,8.7 1,8.61045695 1,8.5 L1,7.6 C1,7.48954305 1.08954305,7.4 1.2,7.4 L2.1,7.4 Z M14.8,7.4 C14.9104569,7.4 15,7.48954305 15,7.6 L15,8.5 C15,8.61045695 14.9104569,8.7 14.8,8.7 L13.9,8.7 C13.7895431,8.7 13.7,8.61045695 13.7,8.5 L13.7,7.6 C13.7,7.48954305 13.7895431,7.4 13.9,7.4 L14.8,7.4 Z M5.3,7.4 C5.41045695,7.4 5.5,7.48954305 5.5,7.6 L5.5,8.5 C5.5,8.61045695 5.41045695,8.7 5.3,8.7 L4.4,8.7 C4.28954305,8.7 4.2,8.61045695 4.2,8.5 L4.2,7.6 C4.2,7.48954305 4.28954305,7.4 4.4,7.4 L5.3,7.4 Z M11.7,7.4 C11.8104569,7.4 11.9,7.48954305 11.9,7.6 L11.9,8.5 C11.9,8.61045695 11.8104569,8.7 11.7,8.7 L10.8,8.7 C10.6895431,8.7 10.6,8.61045695 10.6,8.5 L10.6,7.6 C10.6,7.48954305 10.6895431,7.4 10.8,7.4 L11.7,7.4 Z M2.1,4.2 C2.21045695,4.2 2.3,4.28954305 2.3,4.4 L2.3,5.3 C2.3,5.41045695 2.21045695,5.5 2.1,5.5 L1.2,5.5 C1.08954305,5.5 1,5.41045695 1,5.3 L1,4.4 C1,4.28954305 1.08954305,4.2 1.2,4.2 L2.1,4.2 Z M14.8,4.2 C14.9104569,4.2 15,4.28954305 15,4.4 L15,5.3 C15,5.41045695 14.9104569,5.5 14.8,5.5 L13.9,5.5 C13.7895431,5.5 13.7,5.41045695 13.7,5.3 L13.7,4.4 C13.7,4.28954305 13.7895431,4.2 13.9,4.2 L14.8,4.2 Z M5.3,1 C5.41045695,1 5.5,1.08954305 5.5,1.2 L5.5,2.1 C5.5,2.21045695 5.41045695,2.3 5.3,2.3 L4.4,2.3 C4.28954305,2.3 4.2,2.21045695 4.2,2.1 L4.2,1.2 C4.2,1.08954305 4.28954305,1 4.4,1 L5.3,1 Z M11.7,1 C11.8104569,1 11.9,1.08954305 11.9,1.2 L11.9,2.1 C11.9,2.21045695 11.8104569,2.3 11.7,2.3 L10.8,2.3 C10.6895431,2.3 10.6,2.21045695 10.6,2.1 L10.6,1.2 C10.6,1.08954305 10.6895431,1 10.8,1 L11.7,1 Z M14.8,1 C14.9104569,1 15,1.08954305 15,1.2 L15,2.1 C15,2.21045695 14.9104569,2.3 14.8,2.3 L13.9,2.3 C13.7895431,2.3 13.7,2.21045695 13.7,2.1 L13.7,1.2 C13.7,1.08954305 13.7895431,1 13.9,1 L14.8,1 Z M2.1,1 C2.21045695,1 2.3,1.08954305 2.3,1.2 L2.3,2.1 C2.3,2.21045695 2.21045695,2.3 2.1,2.3 L1.2,2.3 C1.08954305,2.3 1,2.21045695 1,2.1 L1,1.2 C1,1.08954305 1.08954305,1 1.2,1 L2.1,1 Z" id="形状结合"></path>
            </g>
        </g>
    </g>
</svg>