<?xml version="1.0" encoding="UTF-8"?>
<svg width="16px" height="16px" viewBox="0 0 16 16" version="1.1" xmlns="http://www.w3.org/2000/svg" xmlns:xlink="http://www.w3.org/1999/xlink">
    <title>p-bold</title>
    <g id="页面-1" stroke="none" stroke-width="1" fill="none" fill-rule="evenodd">
        <g id="画板" transform="translate(-291.000000, -518.000000)" fill="#000000" fill-rule="nonzero">
            <g id="p-bold" transform="translate(291.000000, 518.000000)">
                <rect id="矩形" opacity="0" x="0" y="0" width="16" height="16"></rect>
                <path d="M8.85053571,1 C10.98375,1 12.7142857,2.66059783 12.7142857,4.70733696 L12.7142857,4.70733696 L12.7142857,4.9013587 C12.7142857,5.89048913 12.3096429,6.79021739 11.6496429,7.45597826 C12.7653571,8.175 13.5,9.39809783 13.5,10.7866848 L13.5,10.7866848 L13.5,10.9959239 C13.5,13.2081522 11.6378571,15 9.33964286,15 L9.33964286,15 L3.07946429,15 C2.75928571,15 2.5,14.748913 2.5,14.4388587 L2.5,14.4388587 L2.5,1.52119565 C2.5,1.23396739 2.74160714,1 3.03821429,1 L3.03821429,1 Z M9.65,8.6 L3.8,8.6 L3.8,13.7 L9.65,13.7 C11.0583261,13.7 12.2,12.5583261 12.2,11.15 C12.2,9.74167389 11.0583261,8.6 9.65,8.6 L9.65,8.6 Z M8.9,2.3 L3.8,2.3 L3.8,7.3 L8.9,7.3 C10.2807119,7.3 11.4,6.18071187 11.4,4.8 C11.4,3.41928813 10.2807119,2.3 8.9,2.3 L8.9,2.3 Z" id="形状结合"></path>
            </g>
        </g>
    </g>
</svg>