<?xml version="1.0" encoding="UTF-8"?>
<svg width="16px" height="16px" viewBox="0 0 16 16" version="1.1" xmlns="http://www.w3.org/2000/svg" xmlns:xlink="http://www.w3.org/1999/xlink">
    <title>p-box-plot</title>
    <g id="页面-1" stroke="none" stroke-width="1" fill="none" fill-rule="evenodd">
        <g id="画板" transform="translate(-443.000000, -518.000000)" fill="#000000" fill-rule="nonzero">
            <g id="p-box-plot" transform="translate(443.000000, 518.000000)">
                <rect id="矩形" opacity="0" x="0" y="0" width="16" height="16"></rect>
                <path d="M14.875,3.5 L14.0625,3.5 C13.99375,3.5 13.9375,3.55625 13.9375,3.625 L13.9375,7.5 L12.5,7.5 L12.5,4.75 C12.5,4.68125 12.44375,4.625 12.375,4.625 L3.625,4.625 C3.55625,4.625 3.5,4.68125 3.5,4.75 L3.5,7.5 L2.0625,7.5 L2.0625,3.625 C2.0625,3.55625 2.00625,3.5 1.9375,3.5 L1.125,3.5 C1.05625,3.5 1,3.55625 1,3.625 L1,12.375 C1,12.44375 1.05625,12.5 1.125,12.5 L1.9375,12.5 C2.00625,12.5 2.0625,12.44375 2.0625,12.375 L2.0625,8.5625 L3.5,8.5625 L3.5,11.25 C3.5,11.31875 3.55625,11.375 3.625,11.375 L12.375,11.375 C12.44375,11.375 12.5,11.31875 12.5,11.25 L12.5,8.5625 L13.9375,8.5625 L13.9375,12.375 C13.9375,12.44375 13.99375,12.5 14.0625,12.5 L14.875,12.5 C14.94375,12.5 15,12.44375 15,12.375 L15,3.625 C15,3.55625 14.94375,3.5 14.875,3.5 Z M4.625,5.75 L6,5.75 L6,10.25 L4.625,10.25 L4.625,5.75 Z M11.375,10.25 L7,10.25 L7,5.75 L11.375,5.75 L11.375,10.25 Z" id="形状"></path>
            </g>
        </g>
    </g>
</svg>