<?xml version="1.0" encoding="UTF-8"?>
<svg width="16px" height="16px" viewBox="0 0 16 16" version="1.1" xmlns="http://www.w3.org/2000/svg" xmlns:xlink="http://www.w3.org/1999/xlink">
    <title>p-border-bottom</title>
    <g id="页面-1" stroke="none" stroke-width="1" fill="none" fill-rule="evenodd">
        <g id="画板" transform="translate(-155.000000, -157.000000)" fill="#000000">
            <g id="p-border-bottom" transform="translate(155.000000, 157.000000)">
                <rect id="矩形" fill-rule="nonzero" opacity="0" x="0" y="0" width="16" height="16"></rect>
                <rect id="矩形" transform="translate(8.000000, 14.324431) rotate(0.200000) translate(-8.000000, -14.324431) " x="1" y="13.6744306" width="14" height="1.3" rx="0.2"></rect>
                <path d="M2.1,10.5 C2.21045695,10.5 2.3,10.5895431 2.3,10.7 L2.3,11.6 C2.3,11.7104569 2.21045695,11.8 2.1,11.8 L1.2,11.8 C1.08954305,11.8 1,11.7104569 1,11.6 L1,10.7 C1,10.5895431 1.08954305,10.5 1.2,10.5 L2.1,10.5 Z M8.5,10.5 C8.61045695,10.5 8.7,10.5895431 8.7,10.7 L8.7,11.6 C8.7,11.7104569 8.61045695,11.8 8.5,11.8 L7.6,11.8 C7.48954305,11.8 7.4,11.7104569 7.4,11.6 L7.4,10.7 C7.4,10.5895431 7.48954305,10.5 7.6,10.5 L8.5,10.5 Z M14.8,10.5 C14.9104569,10.5 15,10.5895431 15,10.7 L15,11.6 C15,11.7104569 14.9104569,11.8 14.8,11.8 L13.9,11.8 C13.7895431,11.8 13.7,11.7104569 13.7,11.6 L13.7,10.7 C13.7,10.5895431 13.7895431,10.5 13.9,10.5 L14.8,10.5 Z M2.1,7.35 C2.21045695,7.35 2.3,7.43954305 2.3,7.55 L2.3,8.45 C2.3,8.56045695 2.21045695,8.65 2.1,8.65 L1.2,8.65 C1.08954305,8.65 1,8.56045695 1,8.45 L1,7.55 C1,7.43954305 1.08954305,7.35 1.2,7.35 L2.1,7.35 Z M5.3,7.35 C5.41045695,7.35 5.5,7.43954305 5.5,7.55 L5.5,8.45 C5.5,8.56045695 5.41045695,8.65 5.3,8.65 L4.4,8.65 C4.28954305,8.65 4.2,8.56045695 4.2,8.45 L4.2,7.55 C4.2,7.43954305 4.28954305,7.35 4.4,7.35 L5.3,7.35 Z M8.5,7.35 C8.61045695,7.35 8.7,7.43954305 8.7,7.55 L8.7,8.45 C8.7,8.56045695 8.61045695,8.65 8.5,8.65 L7.6,8.65 C7.48954305,8.65 7.4,8.56045695 7.4,8.45 L7.4,7.55 C7.4,7.43954305 7.48954305,7.35 7.6,7.35 L8.5,7.35 Z M11.7,7.35 C11.8104569,7.35 11.9,7.43954305 11.9,7.55 L11.9,8.45 C11.9,8.56045695 11.8104569,8.65 11.7,8.65 L10.8,8.65 C10.6895431,8.65 10.6,8.56045695 10.6,8.45 L10.6,7.55 C10.6,7.43954305 10.6895431,7.35 10.8,7.35 L11.7,7.35 Z M14.8,7.35 C14.9104569,7.35 15,7.43954305 15,7.55 L15,8.45 C15,8.56045695 14.9104569,8.65 14.8,8.65 L13.9,8.65 C13.7895431,8.65 13.7,8.56045695 13.7,8.45 L13.7,7.55 C13.7,7.43954305 13.7895431,7.35 13.9,7.35 L14.8,7.35 Z M2.1,4.2 C2.21045695,4.2 2.3,4.28954305 2.3,4.4 L2.3,5.3 C2.3,5.41045695 2.21045695,5.5 2.1,5.5 L1.2,5.5 C1.08954305,5.5 1,5.41045695 1,5.3 L1,4.4 C1,4.28954305 1.08954305,4.2 1.2,4.2 L2.1,4.2 Z M8.5,4.2 C8.61045695,4.2 8.7,4.28954305 8.7,4.4 L8.7,5.3 C8.7,5.41045695 8.61045695,5.5 8.5,5.5 L7.6,5.5 C7.48954305,5.5 7.4,5.41045695 7.4,5.3 L7.4,4.4 C7.4,4.28954305 7.48954305,4.2 7.6,4.2 L8.5,4.2 Z M14.8,4.2 C14.9104569,4.2 15,4.28954305 15,4.4 L15,5.3 C15,5.41045695 14.9104569,5.5 14.8,5.5 L13.9,5.5 C13.7895431,5.5 13.7,5.41045695 13.7,5.3 L13.7,4.4 C13.7,4.28954305 13.7895431,4.2 13.9,4.2 L14.8,4.2 Z M5.3,1 C5.41045695,1 5.5,1.08954305 5.5,1.2 L5.5,2.1 C5.5,2.21045695 5.41045695,2.3 5.3,2.3 L4.4,2.3 C4.28954305,2.3 4.2,2.21045695 4.2,2.1 L4.2,1.2 C4.2,1.08954305 4.28954305,1 4.4,1 L5.3,1 Z M8.5,1 C8.61045695,1 8.7,1.08954305 8.7,1.2 L8.7,2.1 C8.7,2.21045695 8.61045695,2.3 8.5,2.3 L7.6,2.3 C7.48954305,2.3 7.4,2.21045695 7.4,2.1 L7.4,1.2 C7.4,1.08954305 7.48954305,1 7.6,1 L8.5,1 Z M11.7,1 C11.8104569,1 11.9,1.08954305 11.9,1.2 L11.9,2.1 C11.9,2.21045695 11.8104569,2.3 11.7,2.3 L10.8,2.3 C10.6895431,2.3 10.6,2.21045695 10.6,2.1 L10.6,1.2 C10.6,1.08954305 10.6895431,1 10.8,1 L11.7,1 Z M14.8,1 C14.9104569,1 15,1.08954305 15,1.2 L15,2.1 C15,2.21045695 14.9104569,2.3 14.8,2.3 L13.9,2.3 C13.7895431,2.3 13.7,2.21045695 13.7,2.1 L13.7,1.2 C13.7,1.08954305 13.7895431,1 13.9,1 L14.8,1 Z M2.1,1 C2.21045695,1 2.3,1.08954305 2.3,1.2 L2.3,2.1 C2.3,2.21045695 2.21045695,2.3 2.1,2.3 L1.2,2.3 C1.08954305,2.3 1,2.21045695 1,2.1 L1,1.2 C1,1.08954305 1.08954305,1 1.2,1 L2.1,1 Z" id="形状结合"></path>
            </g>
        </g>
    </g>
</svg>