<?xml version="1.0" encoding="UTF-8"?>
<svg width="16px" height="16px" viewBox="0 0 16 16" version="1.1" xmlns="http://www.w3.org/2000/svg" xmlns:xlink="http://www.w3.org/1999/xlink">
    <title>p-border-outer</title>
    <g id="页面-1" stroke="none" stroke-width="1" fill="none" fill-rule="evenodd">
        <g id="画板" transform="translate(-133.000000, -157.000000)" fill="#000000">
            <g id="p-border-outer" transform="translate(133.000000, 157.000000)">
                <rect id="矩形" fill-rule="nonzero" opacity="0" x="0" y="0" width="16" height="16"></rect>
                <path d="M14.5,1 C14.7761424,1 15,1.22385763 15,1.5 L15,14.5 C15,14.7761424 14.7761424,15 14.5,15 L1.5,15 C1.22385763,15 1,14.7761424 1,14.5 L1,1.5 C1,1.22385763 1.22385763,1 1.5,1 L14.5,1 Z M13.7,2.3 L2.3,2.3 L2.3,13.7 L13.7,13.7 L13.7,2.3 Z" id="矩形" fill-rule="nonzero"></path>
                <path d="M8.45,10.55 C8.56045695,10.55 8.65,10.6395431 8.65,10.75 L8.65,11.65 C8.65,11.7604569 8.56045695,11.85 8.45,11.85 L7.55,11.85 C7.43954305,11.85 7.35,11.7604569 7.35,11.65 L7.35,10.75 C7.35,10.6395431 7.43954305,10.55 7.55,10.55 L8.45,10.55 Z M8.45,7.35 C8.56045695,7.35 8.65,7.43954305 8.65,7.55 L8.65,8.45 C8.65,8.56045695 8.56045695,8.65 8.45,8.65 L7.55,8.65 C7.43954305,8.65 7.35,8.56045695 7.35,8.45 L7.35,7.55 C7.35,7.43954305 7.43954305,7.35 7.55,7.35 L8.45,7.35 Z M11.65,7.35 C11.7604569,7.35 11.85,7.43954305 11.85,7.55 L11.85,8.45 C11.85,8.56045695 11.7604569,8.65 11.65,8.65 L10.75,8.65 C10.6395431,8.65 10.55,8.56045695 10.55,8.45 L10.55,7.55 C10.55,7.43954305 10.6395431,7.35 10.75,7.35 L11.65,7.35 Z M5.25,7.35 C5.36045695,7.35 5.45,7.43954305 5.45,7.55 L5.45,8.45 C5.45,8.56045695 5.36045695,8.65 5.25,8.65 L4.35,8.65 C4.23954305,8.65 4.15,8.56045695 4.15,8.45 L4.15,7.55 C4.15,7.43954305 4.23954305,7.35 4.35,7.35 L5.25,7.35 Z M8.45,4.15 C8.56045695,4.15 8.65,4.23954305 8.65,4.35 L8.65,5.25 C8.65,5.36045695 8.56045695,5.45 8.45,5.45 L7.55,5.45 C7.43954305,5.45 7.35,5.36045695 7.35,5.25 L7.35,4.35 C7.35,4.23954305 7.43954305,4.15 7.55,4.15 L8.45,4.15 Z" id="形状结合"></path>
            </g>
        </g>
    </g>
</svg>