<?xml version="1.0" encoding="UTF-8"?>
<svg width="16px" height="16px" viewBox="0 0 16 16" version="1.1" xmlns="http://www.w3.org/2000/svg" xmlns:xlink="http://www.w3.org/1999/xlink">
    <title>p-border-inner</title>
    <g id="页面-1" stroke="none" stroke-width="1" fill="none" fill-rule="evenodd">
        <g id="画板" transform="translate(-195.000000, -157.000000)" fill="#000000" fill-rule="nonzero">
            <g id="p-border-inner" transform="translate(195.000000, 157.000000)">
                <rect id="矩形" opacity="0" x="0" y="0" width="16" height="16"></rect>
                <path d="M2.1,13.7 C2.21045695,13.7 2.3,13.7895431 2.3,13.9 L2.3,14.8 C2.3,14.9104569 2.21045695,15 2.1,15 L1.2,15 C1.08954305,15 1,14.9104569 1,14.8 L1,13.9 C1,13.7895431 1.08954305,13.7 1.2,13.7 L2.1,13.7 Z M5.3,13.7 C5.41045695,13.7 5.5,13.7895431 5.5,13.9 L5.5,14.8 C5.5,14.9104569 5.41045695,15 5.3,15 L4.4,15 C4.28954305,15 4.2,14.9104569 4.2,14.8 L4.2,13.9 C4.2,13.7895431 4.28954305,13.7 4.4,13.7 L5.3,13.7 Z M11.7,13.7 C11.8104569,13.7 11.9,13.7895431 11.9,13.9 L11.9,14.8 C11.9,14.9104569 11.8104569,15 11.7,15 L10.8,15 C10.6895431,15 10.6,14.9104569 10.6,14.8 L10.6,13.9 C10.6,13.7895431 10.6895431,13.7 10.8,13.7 L11.7,13.7 Z M14.8,13.7 C14.9104569,13.7 15,13.7895431 15,13.9 L15,14.8 C15,14.9104569 14.9104569,15 14.8,15 L13.9,15 C13.7895431,15 13.7,14.9104569 13.7,14.8 L13.7,13.9 C13.7,13.7895431 13.7895431,13.7 13.9,13.7 L14.8,13.7 Z M8.5,1 C8.61045695,1 8.7,1.08954305 8.7,1.2 L8.69947061,7.426 L14.8022275,7.44817099 C14.9126838,7.44855656 15.0019137,7.53841162 15.0015281,7.6488679 L14.9983866,8.54886242 C14.998001,8.6593187 14.9081459,8.74854864 14.7976896,8.74816307 L8.69947061,8.726 L8.7,14.8 C8.7,14.9104569 8.61045695,15 8.5,15 L7.6,15 C7.48954305,15 7.4,14.9104569 7.4,14.8 L7.39947061,8.722 L1.1977725,8.70069021 C1.08731623,8.70030464 0.998086287,8.61044958 0.998471853,8.4999933 L1.00161344,7.59999878 C1.00199901,7.4895425 1.09185407,7.40031256 1.20231035,7.40069813 L7.39947061,7.422 L7.4,1.2 C7.4,1.08954305 7.48954305,1 7.6,1 L8.5,1 Z M2.1,10.6 C2.21045695,10.6 2.3,10.6895431 2.3,10.8 L2.3,11.7 C2.3,11.8104569 2.21045695,11.9 2.1,11.9 L1.2,11.9 C1.08954305,11.9 1,11.8104569 1,11.7 L1,10.8 C1,10.6895431 1.08954305,10.6 1.2,10.6 L2.1,10.6 Z M14.8,10.6 C14.9104569,10.6 15,10.6895431 15,10.8 L15,11.7 C15,11.8104569 14.9104569,11.9 14.8,11.9 L13.9,11.9 C13.7895431,11.9 13.7,11.8104569 13.7,11.7 L13.7,10.8 C13.7,10.6895431 13.7895431,10.6 13.9,10.6 L14.8,10.6 Z M2.1,4.2 C2.21045695,4.2 2.3,4.28954305 2.3,4.4 L2.3,5.3 C2.3,5.41045695 2.21045695,5.5 2.1,5.5 L1.2,5.5 C1.08954305,5.5 1,5.41045695 1,5.3 L1,4.4 C1,4.28954305 1.08954305,4.2 1.2,4.2 L2.1,4.2 Z M14.8,4.2 C14.9104569,4.2 15,4.28954305 15,4.4 L15,5.3 C15,5.41045695 14.9104569,5.5 14.8,5.5 L13.9,5.5 C13.7895431,5.5 13.7,5.41045695 13.7,5.3 L13.7,4.4 C13.7,4.28954305 13.7895431,4.2 13.9,4.2 L14.8,4.2 Z M5.3,1 C5.41045695,1 5.5,1.08954305 5.5,1.2 L5.5,2.1 C5.5,2.21045695 5.41045695,2.3 5.3,2.3 L4.4,2.3 C4.28954305,2.3 4.2,2.21045695 4.2,2.1 L4.2,1.2 C4.2,1.08954305 4.28954305,1 4.4,1 L5.3,1 Z M11.7,1 C11.8104569,1 11.9,1.08954305 11.9,1.2 L11.9,2.1 C11.9,2.21045695 11.8104569,2.3 11.7,2.3 L10.8,2.3 C10.6895431,2.3 10.6,2.21045695 10.6,2.1 L10.6,1.2 C10.6,1.08954305 10.6895431,1 10.8,1 L11.7,1 Z M14.8,1 C14.9104569,1 15,1.08954305 15,1.2 L15,2.1 C15,2.21045695 14.9104569,2.3 14.8,2.3 L13.9,2.3 C13.7895431,2.3 13.7,2.21045695 13.7,2.1 L13.7,1.2 C13.7,1.08954305 13.7895431,1 13.9,1 L14.8,1 Z M2.1,1 C2.21045695,1 2.3,1.08954305 2.3,1.2 L2.3,2.1 C2.3,2.21045695 2.21045695,2.3 2.1,2.3 L1.2,2.3 C1.08954305,2.3 1,2.21045695 1,2.1 L1,1.2 C1,1.08954305 1.08954305,1 1.2,1 L2.1,1 Z" id="形状结合"></path>
            </g>
        </g>
    </g>
</svg>