<?xml version="1.0" encoding="UTF-8"?>
<svg width="16px" height="16px" viewBox="0 0 16 16" version="1.1" xmlns="http://www.w3.org/2000/svg" xmlns:xlink="http://www.w3.org/1999/xlink">
    <title>p-carry-out</title>
    <g id="页面-1" stroke="none" stroke-width="1" fill="none" fill-rule="evenodd">
        <g id="画板" transform="translate(-203.000000, -518.000000)" fill="#000000" fill-rule="nonzero">
            <g id="p-carry-out" transform="translate(203.000000, 518.000000)">
                <rect id="矩形" opacity="0" x="0" y="0" width="16" height="16"></rect>
                <path d="M14.44,2.26 L11.5,2.26 L11.5,1.14 C11.5,1.063 11.437,1 11.36,1 L10.38,1 C10.303,1 10.24,1.063 10.24,1.14 L10.24,2.26 L5.76,2.26 L5.76,1.14 C5.76,1.063 5.697,1 5.62,1 L4.64,1 C4.563,1 4.5,1.063 4.5,1.14 L4.5,2.26 L1.56,2.26 C1.25025,2.26 1,2.51025 1,2.82 L1,14.44 C1,14.74975 1.25025,15 1.56,15 L14.44,15 C14.74975,15 15,14.74975 15,14.44 L15,2.82 C15,2.51025 14.74975,2.26 14.44,2.26 Z M13.74,13.74 L2.26,13.74 L2.26,3.52 L4.5,3.52 L4.5,4.36 C4.5,4.437 4.563,4.5 4.64,4.5 L5.62,4.5 C5.697,4.5 5.76,4.437 5.76,4.36 L5.76,3.52 L10.24,3.52 L10.24,4.36 C10.24,4.437 10.303,4.5 10.38,4.5 L11.36,4.5 C11.437,4.5 11.5,4.437 11.5,4.36 L11.5,3.52 L13.74,3.52 L13.74,13.74 Z M11.08,6.39 L10.114,6.39 C10.02475,6.39 9.939,6.43375 9.8865,6.5055 L7.24575,10.142 L6.1135,8.5845 C6.061,8.51275 5.977,8.469 5.886,8.469 L4.92,8.469 C4.80625,8.469 4.73975,8.5985 4.80625,8.69125 L7.01825,11.73625 C7.13025,11.89025 7.36125,11.89025 7.47325,11.73625 L11.19375,6.614 C11.26025,6.5195 11.19375,6.39 11.08,6.39 Z" id="形状"></path>
            </g>
        </g>
    </g>
</svg>