<?xml version="1.0" encoding="UTF-8"?>
<svg width="16px" height="16px" viewBox="0 0 16 16" version="1.1" xmlns="http://www.w3.org/2000/svg" xmlns:xlink="http://www.w3.org/1999/xlink">
    <title>p-camera</title>
    <g id="页面-1" stroke="none" stroke-width="1" fill="none" fill-rule="evenodd">
        <g id="画板" transform="translate(-271.000000, -518.000000)" fill="#000000" fill-rule="nonzero">
            <g id="p-camera" transform="translate(271.000000, 518.000000)">
                <rect id="矩形" opacity="0" x="0" y="0" width="16" height="16"></rect>
                <path d="M13.7037037,3.91481481 L11.5,3.91481481 L10.975,2.44351852 C10.900463,2.23773148 10.7060185,2.1 10.4856481,2.1 L5.51435185,2.1 C5.29560185,2.1 5.09953704,2.23773148 5.02662037,2.44351852 L4.5,3.91481481 L2.2962963,3.91481481 C1.58009259,3.91481481 1,4.49490741 1,5.21111111 L1,12.6 C1,13.3162037 1.58009259,13.8962963 2.2962963,13.8962963 L13.7037037,13.8962963 C14.4199074,13.8962963 15,13.3162037 15,12.6 L15,5.21111111 C15,4.49490741 14.4199074,3.91481481 13.7037037,3.91481481 Z M13.8333333,12.6 C13.8333333,12.6712963 13.775,12.7296296 13.7037037,12.7296296 L2.2962963,12.7296296 C2.225,12.7296296 2.16666667,12.6712963 2.16666667,12.6 L2.16666667,5.21111111 C2.16666667,5.13981481 2.225,5.08148148 2.2962963,5.08148148 L5.32152778,5.08148148 L5.59861111,4.30694444 L5.96967593,3.26666667 L10.0287037,3.26666667 L10.3997685,4.30694444 L10.6768519,5.08148148 L13.7037037,5.08148148 C13.775,5.08148148 13.8333333,5.13981481 13.8333333,5.21111111 L13.8333333,12.6 Z M8,6.11851852 C6.56759259,6.11851852 5.40740741,7.2787037 5.40740741,8.71111111 C5.40740741,10.1435185 6.56759259,11.3037037 8,11.3037037 C9.43240741,11.3037037 10.5925926,10.1435185 10.5925926,8.71111111 C10.5925926,7.2787037 9.43240741,6.11851852 8,6.11851852 Z M8,10.2666667 C7.1412037,10.2666667 6.44444444,9.56990741 6.44444444,8.71111111 C6.44444444,7.85231481 7.1412037,7.15555556 8,7.15555556 C8.8587963,7.15555556 9.55555556,7.85231481 9.55555556,8.71111111 C9.55555556,9.56990741 8.8587963,10.2666667 8,10.2666667 Z" id="形状"></path>
            </g>
        </g>
    </g>
</svg>