<?xml version="1.0" encoding="UTF-8"?>
<svg width="16px" height="16px" viewBox="0 0 16 16" version="1.1" xmlns="http://www.w3.org/2000/svg" xmlns:xlink="http://www.w3.org/1999/xlink">
    <title>p-calendar-check</title>
    <g id="页面-1" stroke="none" stroke-width="1" fill="none" fill-rule="evenodd">
        <g id="画板" transform="translate(-420.000000, -518.000000)" fill="#000000" fill-rule="nonzero">
            <g id="p-calendar-check" transform="translate(420.000000, 518.000000)">
                <rect id="矩形" opacity="0" x="0" y="0" width="16" height="16"></rect>
                <path d="M14.5,3 L12,3 L12,2.125 C12,2.05625 11.94375,2 11.875,2 L11,2 C10.93125,2 10.875,2.05625 10.875,2.125 L10.875,3 L8.5625,3 L8.5625,2.125 C8.5625,2.05625 8.50625,2 8.4375,2 L7.5625,2 C7.49375,2 7.4375,2.05625 7.4375,2.125 L7.4375,3 L5.125,3 L5.125,2.125 C5.125,2.05625 5.06875,2 5,2 L4.125,2 C4.05625,2 4,2.05625 4,2.125 L4,3 L1.5,3 C1.2234375,3 1,3.2234375 1,3.5 L1,13.5 C1,13.7765625 1.2234375,14 1.5,14 L14.5,14 C14.7765625,14 15,13.7765625 15,13.5 L15,3.5 C15,3.2234375 14.7765625,3 14.5,3 Z M13.875,12.875 L2.125,12.875 L2.125,4.125 L4,4.125 L4,5 C4,5.06875 4.05625,5.125 4.125,5.125 L5,5.125 C5.06875,5.125 5.125,5.06875 5.125,5 L5.125,4.125 L7.4375,4.125 L7.4375,5 C7.4375,5.06875 7.49375,5.125 7.5625,5.125 L8.4375,5.125 C8.50625,5.125 8.5625,5.06875 8.5625,5 L8.5625,4.125 L10.875,4.125 L10.875,5 C10.875,5.06875 10.93125,5.125 11,5.125 L11.875,5.125 C11.94375,5.125 12,5.06875 12,5 L12,4.125 L12.6693416,4.125 L13.875,4.125 L13.875,12.875 Z M6.63424325,7.4765625 L3.75924325,7.4765625 C3.69049325,7.4765625 3.63424325,7.5328125 3.63424325,7.6015625 L3.63424325,8.3515625 C3.63424325,8.4203125 3.69049325,8.4765625 3.75924325,8.4765625 L6.63424325,8.4765625 C6.70299325,8.4765625 6.75924325,8.4203125 6.75924325,8.3515625 L6.75924325,7.6015625 C6.75924325,7.5328125 6.70299325,7.4765625 6.63424325,7.4765625 Z M6.63424325,9.6015625 L3.75924325,9.6015625 C3.69049325,9.6015625 3.63424325,9.6578125 3.63424325,9.7265625 L3.63424325,10.4765625 C3.63424325,10.5453125 3.69049325,10.6015625 3.75924325,10.6015625 L6.63424325,10.6015625 C6.70299325,10.6015625 6.75924325,10.5453125 6.75924325,10.4765625 L6.75924325,9.7265625 C6.75924325,9.6578125 6.70299325,9.6015625 6.63424325,9.6015625 Z M11.4498682,7.06087856 L9.83111825,9.30619106 L9.00611825,8.16400356 C8.95924325,8.09837856 8.88424325,8.06087856 8.80455575,8.06087856 L7.94674325,8.06087856 C7.84518075,8.06087856 7.78580575,8.17650356 7.84518075,8.25931606 L9.62799325,10.7311911 C9.72799325,10.8686911 9.93111825,10.8686911 10.0311182,10.7311911 L12.6092432,7.15775356 C12.6686182,7.07494106 12.6092432,6.95931606 12.5076807,6.95931606 L11.6498682,6.95931606 C11.5717432,6.95775356 11.4967432,6.99681606 11.4498682,7.06087856 Z" id="形状"></path>
            </g>
        </g>
    </g>
</svg>