<?xml version="1.0" encoding="UTF-8"?>
<svg width="16px" height="16px" viewBox="0 0 16 16" version="1.1" xmlns="http://www.w3.org/2000/svg" xmlns:xlink="http://www.w3.org/1999/xlink">
    <title>p-check-square</title>
    <g id="页面-1" stroke="none" stroke-width="1" fill="none" fill-rule="evenodd">
        <g id="画板" transform="translate(-374.000000, -436.000000)" fill="#000000" fill-rule="nonzero">
            <g id="p-check-square" transform="translate(374.000000, 436.000000)">
                <rect id="矩形" opacity="0" x="0" y="0" width="16" height="16"></rect>
                <g id="编组-6" transform="translate(1.000000, 1.000000)">
                    <path d="M5.61925,9.54975 C5.8415,9.8595 6.30175,9.8595 6.524,9.54975 L10.2095,4.43975 C10.276,4.347 10.2095,4.2175 10.09575,4.2175 L9.275,4.2175 C9.0965,4.2175 8.92675,4.30325 8.82175,4.45025 L6.0725,8.26525 L4.8265,6.53625 C4.7215,6.391 4.5535,6.3035 4.37325,6.3035 L3.5525,6.3035 C3.43875,6.3035 3.37225,6.433 3.43875,6.52575 L5.61925,9.54975 L5.61925,9.54975 Z" id="路径"></path>
                    <path d="M13.44,0 L0.56,0 C0.25025,0 0,0.25025 0,0.56 L0,13.44 C0,13.74975 0.25025,14 0.56,14 L13.44,14 C13.74975,14 14,13.74975 14,13.44 L14,0.56 C14,0.25025 13.74975,0 13.44,0 Z M12.74,12.74 L1.26,12.74 L1.26,1.26 L12.74,1.26 L12.74,12.74 Z" id="形状"></path>
                </g>
            </g>
        </g>
    </g>
</svg>