<?xml version="1.0" encoding="UTF-8"?>
<svg width="16px" height="16px" viewBox="0 0 16 16" version="1.1" xmlns="http://www.w3.org/2000/svg" xmlns:xlink="http://www.w3.org/1999/xlink">
    <title>p-check-circle</title>
    <g id="页面-1" stroke="none" stroke-width="1" fill="none" fill-rule="evenodd">
        <g id="画板" transform="translate(-395.000000, -436.000000)" fill="#000000" fill-rule="nonzero">
            <g id="p-check-circle" transform="translate(395.000000, 436.000000)">
                <rect id="矩形" opacity="0" x="0" y="0" width="16" height="16"></rect>
                <g id="编组-7" transform="translate(1.000000, 1.000000)">
                    <path d="M9.921875,4.515625 L9.1890625,4.515625 C9.0296875,4.515625 8.878125,4.5921875 8.784375,4.7234375 L6.328125,8.1296875 L5.215625,6.5859375 C5.121875,6.45625 4.971875,6.378125 4.8109375,6.378125 L4.078125,6.378125 C3.9765625,6.378125 3.9171875,6.49375 3.9765625,6.5765625 L5.9234375,9.2765625 C6.121875,9.553125 6.5328125,9.553125 6.73125,9.2765625 L10.021875,4.7140625 C10.0828125,4.63125 10.0234375,4.515625 9.921875,4.515625 Z" id="路径"></path>
                    <path d="M7,0 C3.134375,0 0,3.134375 0,7 C0,10.865625 3.134375,14 7,14 C10.865625,14 14,10.865625 14,7 C14,3.134375 10.865625,0 7,0 Z M7,12.8125 C3.790625,12.8125 1.1875,10.209375 1.1875,7 C1.1875,3.790625 3.790625,1.1875 7,1.1875 C10.209375,1.1875 12.8125,3.790625 12.8125,7 C12.8125,10.209375 10.209375,12.8125 7,12.8125 Z" id="形状"></path>
                </g>
            </g>
        </g>
    </g>
</svg>