<?xml version="1.0" encoding="UTF-8"?>
<svg width="16px" height="16px" viewBox="0 0 16 16" version="1.1" xmlns="http://www.w3.org/2000/svg" xmlns:xlink="http://www.w3.org/1999/xlink">
    <title>p-ci</title>
    <g id="页面-1" stroke="none" stroke-width="1" fill="none" fill-rule="evenodd">
        <g id="画板" transform="translate(-364.000000, -518.000000)" fill="#000000" fill-rule="nonzero">
            <g id="p-ci" transform="translate(364.000000, 518.000000)">
                <rect id="矩形" opacity="0" x="0" y="0" width="16" height="16"></rect>
                <path d="M8,1 C4.134375,1 1,4.134375 1,8 C1,11.865625 4.134375,15 8,15 C11.865625,15 15,11.865625 15,8 C15,4.134375 11.865625,1 8,1 Z M8,13.8125 C4.790625,13.8125 2.1875,11.209375 2.1875,8 C2.1875,4.790625 4.790625,2.1875 8,2.1875 C11.209375,2.1875 13.8125,4.790625 13.8125,8 C13.8125,11.209375 11.209375,13.8125 8,13.8125 Z M11.40625,4.8734375 L10.61875,4.8734375 C10.55,4.8734375 10.49375,4.9296875 10.49375,4.9984375 L10.49375,11.0015625 C10.49375,11.0703125 10.55,11.1265625 10.61875,11.1265625 L11.40625,11.1265625 C11.475,11.1265625 11.53125,11.0703125 11.53125,11.0015625 L11.53125,4.9984375 C11.53125,4.9296875 11.475,4.8734375 11.40625,4.8734375 Z M7.009375,5.6484375 C7.7828125,5.6484375 8.3078125,6.140625 8.36875,6.8609375 C8.375,6.9265625 8.428125,6.9765625 8.49375,6.9765625 L9.315625,6.9765625 C9.353125,6.9765625 9.384375,6.9453125 9.384375,6.9078125 C9.384375,5.6390625 8.384375,4.75 7.0046875,4.75 C5.396875,4.75 4.46875,5.8359375 4.46875,7.63125 L4.46875,8.396875 C4.46875,10.178125 5.396875,11.25 7.0046875,11.25 C8.3796875,11.25 9.384375,10.3890625 9.384375,9.1796875 C9.384375,9.1421875 9.353125,9.1109375 9.315625,9.1109375 L8.4921875,9.1109375 C8.4265625,9.1109375 8.3734375,9.1609375 8.3671875,9.225 C8.3015625,9.896875 7.778125,10.35625 7.0078125,10.35625 C6.053125,10.35625 5.5140625,9.6546875 5.5140625,8.4 L5.5140625,7.6296875 C5.515625,6.3578125 6.0546875,5.6484375 7.009375,5.6484375 L7.009375,5.6484375 Z" id="形状"></path>
            </g>
        </g>
    </g>
</svg>