<?xml version="1.0" encoding="UTF-8"?>
<svg width="16px" height="16px" viewBox="0 0 16 16" version="1.1" xmlns="http://www.w3.org/2000/svg" xmlns:xlink="http://www.w3.org/1999/xlink">
    <title>p-cloud</title>
    <g id="页面-1" stroke="none" stroke-width="1" fill="none" fill-rule="evenodd">
        <g id="画板" transform="translate(-145.000000, -436.000000)" fill="#000000" fill-rule="nonzero">
            <g id="p-cloud" transform="translate(145.000000, 436.000000)">
                <rect id="矩形" opacity="0" x="0" y="0" width="16" height="16"></rect>
                <path d="M12.678125,6.5421875 C11.9625,4.6546875 10.1390625,3.3125 8.003125,3.3125 C5.8671875,3.3125 4.04375,4.653125 3.328125,6.540625 C1.9890625,6.8921875 1,8.1109375 1,9.5625 C1,11.2890625 2.3984375,12.6875 4.1234375,12.6875 L11.8765625,12.6875 C13.6015625,12.6875 15,11.2890625 15,9.5625 C15,8.1140625 14.0140625,6.8953125 12.678125,6.5421875 Z M13.2453125,10.9328125 C12.8796875,11.2984375 12.39375,11.5 11.8765625,11.5 L4.1234375,11.5 C3.60625,11.5 3.1203125,11.2984375 2.7546875,10.9328125 C2.3890625,10.5671875 2.1875,10.0796875 2.1875,9.5625 C2.1875,9.125 2.3296875,8.7140625 2.596875,8.3703125 C2.8578125,8.0375 3.225,7.7953125 3.6296875,7.6875 L4.221875,7.5328125 L4.4390625,6.9609375 C4.5734375,6.6046875 4.7609375,6.271875 4.996875,5.9703125 C5.2296875,5.6703125 5.50625,5.409375 5.815625,5.190625 C6.4578125,4.7390625 7.2140625,4.5 8.003125,4.5 C8.7921875,4.5 9.5484375,4.7390625 10.190625,5.190625 C10.5015625,5.409375 10.7765625,5.671875 11.009375,5.9703125 C11.2453125,6.271875 11.4328125,6.60625 11.5671875,6.9609375 L11.7828125,7.53125 L12.3734375,7.6875 C13.221875,7.9140625 13.8125,8.684375 13.8125,9.5625 C13.8125,10.0796875 13.6109375,10.5671875 13.2453125,10.9328125 Z" id="形状"></path>
            </g>
        </g>
    </g>
</svg>