<?xml version="1.0" encoding="UTF-8"?>
<svg width="16px" height="16px" viewBox="0 0 16 16" version="1.1" xmlns="http://www.w3.org/2000/svg" xmlns:xlink="http://www.w3.org/1999/xlink">
    <title>p-close-circle</title>
    <g id="页面-1" stroke="none" stroke-width="1" fill="none" fill-rule="evenodd">
        <g id="画板" transform="translate(-328.000000, -436.000000)" fill="#000000" fill-rule="nonzero">
            <g id="p-close-circle" transform="translate(328.000000, 436.000000)">
                <rect id="矩形" opacity="0" x="0" y="0" width="16" height="16"></rect>
                <g id="编组-5" transform="translate(1.000000, 1.000000)">
                    <path d="M9.709375,4.528125 C9.709375,4.459375 9.653125,4.403125 9.584375,4.403125 L8.553125,4.4078125 L7,6.259375 L5.4484375,4.409375 L4.415625,4.4046875 C4.346875,4.4046875 4.290625,4.459375 4.290625,4.5296875 C4.290625,4.559375 4.3015625,4.5875 4.3203125,4.6109375 L6.353125,7.0328125 L4.3203125,9.453125 C4.3015625,9.4765625 4.290625,9.5046875 4.290625,9.534375 C4.290625,9.603125 4.346875,9.659375 4.415625,9.659375 L5.4484375,9.6546875 L7,7.803125 L8.5515625,9.653125 L9.5828125,9.6578125 C9.6515625,9.6578125 9.7078125,9.603125 9.7078125,9.5328125 C9.7078125,9.503125 9.696875,9.475 9.678125,9.4515625 L7.6484375,7.03125 L9.68125,4.609375 C9.7,4.5875 9.709375,4.5578125 9.709375,4.528125 Z" id="路径"></path>
                    <path d="M7,0 C3.134375,0 0,3.134375 0,7 C0,10.865625 3.134375,14 7,14 C10.865625,14 14,10.865625 14,7 C14,3.134375 10.865625,0 7,0 Z M7,12.8125 C3.790625,12.8125 1.1875,10.209375 1.1875,7 C1.1875,3.790625 3.790625,1.1875 7,1.1875 C10.209375,1.1875 12.8125,3.790625 12.8125,7 C12.8125,10.209375 10.209375,12.8125 7,12.8125 Z" id="形状"></path>
                </g>
            </g>
        </g>
    </g>
</svg>