<?xml version="1.0" encoding="UTF-8"?>
<svg width="16px" height="16px" viewBox="0 0 16 16" version="1.1" xmlns="http://www.w3.org/2000/svg" xmlns:xlink="http://www.w3.org/1999/xlink">
    <title>p-close-square</title>
    <g id="页面-1" stroke="none" stroke-width="1" fill="none" fill-rule="evenodd">
        <g id="画板" transform="translate(-303.000000, -436.000000)" fill="#000000" fill-rule="nonzero">
            <g id="p-close-square" transform="translate(303.000000, 436.000000)">
                <rect id="矩形" opacity="0" x="0" y="0" width="16" height="16"></rect>
                <g id="编组-4" transform="translate(1.000000, 1.000000)">
                    <path d="M4.235,9.7825 L5.26575,9.7825 C5.348,9.7825 5.42675,9.74575 5.481,9.68275 L7,7.8715 L8.519,9.68275 C8.5715,9.74575 8.65025,9.7825 8.73425,9.7825 L9.765,9.7825 C9.884,9.7825 9.94875,9.64425 9.87175,9.55325 L7.7315,7 L9.8735,4.44675 C9.9505,4.35575 9.88575,4.2175 9.76675,4.2175 L8.736,4.2175 C8.65375,4.2175 8.575,4.25425 8.52075,4.31725 L7,6.1285 L5.481,4.31725 C5.4285,4.25425 5.34975,4.2175 5.26575,4.2175 L4.235,4.2175 C4.116,4.2175 4.05125,4.35575 4.12825,4.44675 L6.2685,7 L4.12825,9.55325 C4.05125,9.64425 4.116,9.7825 4.235,9.7825 Z" id="路径"></path>
                    <path d="M13.44,0 L0.56,0 C0.25025,0 0,0.25025 0,0.56 L0,13.44 C0,13.74975 0.25025,14 0.56,14 L13.44,14 C13.74975,14 14,13.74975 14,13.44 L14,0.56 C14,0.25025 13.74975,0 13.44,0 Z M12.74,12.74 L1.26,12.74 L1.26,1.26 L12.74,1.26 L12.74,12.74 Z" id="形状"></path>
                </g>
            </g>
        </g>
    </g>
</svg>