<?xml version="1.0" encoding="UTF-8"?>
<svg width="16px" height="16px" viewBox="0 0 16 16" version="1.1" xmlns="http://www.w3.org/2000/svg" xmlns:xlink="http://www.w3.org/1999/xlink">
    <title>p-cloud-server</title>
    <g id="页面-1" stroke="none" stroke-width="1" fill="none" fill-rule="evenodd">
        <g id="画板" transform="translate(-229.000000, -436.000000)" fill="#000000" fill-rule="nonzero">
            <g id="p-cloud-server" transform="translate(229.000000, 436.000000)">
                <rect id="矩形" opacity="0" x="0" y="0" width="16" height="16"></rect>
                <path d="M11,6.96875 L5,6.96875 C4.93125,6.96875 4.875,7.025 4.875,7.09375 L4.875,13.375 C4.875,13.44375 4.93125,13.5 5,13.5 L11,13.5 C11.06875,13.5 11.125,13.44375 11.125,13.375 L11.125,7.09375 C11.125,7.025 11.06875,6.96875 11,6.96875 Z M5.875,7.96875 L10.125,7.96875 L10.125,9.796875 L5.875,9.796875 L5.875,7.96875 Z M10.125,12.5 L5.875,12.5 L5.875,10.671875 L10.125,10.671875 L10.125,12.5 Z" id="形状"></path>
                <path d="M6.625,11.6875 C6.625,11.9636424 6.84885763,12.1875 7.125,12.1875 C7.40114237,12.1875 7.625,11.9636424 7.625,11.6875 C7.625,11.4113576 7.40114237,11.1875 7.125,11.1875 C6.84885763,11.1875 6.625,11.4113576 6.625,11.6875 Z" id="路径"></path>
                <path d="M6.625,8.90625 C6.625,9.18239237 6.84885763,9.40625 7.125,9.40625 C7.40114237,9.40625 7.625,9.18239237 7.625,8.90625 C7.625,8.63010763 7.40114237,8.40625 7.125,8.40625 C6.84885763,8.40625 6.625,8.63010763 6.625,8.90625 Z" id="路径"></path>
                <path d="M12.678125,5.7640625 C11.9625,3.875 10.1390625,2.53125 8.003125,2.53125 C5.8671875,2.53125 4.04375,3.8734375 3.328125,5.7625 C1.9828125,6.1171875 0.9921875,7.346875 0.999908762,8.80625 C1.009375,10.4375 2.275,11.7640625 3.86875,11.90625 C3.9421875,11.9125 4.0046875,11.8546875 4.0046875,11.78125 L4.0046875,10.8375 C4.0046875,10.775 3.9578125,10.721875 3.8953125,10.7140625 C3.4734375,10.6609375 3.075,10.4765625 2.76875,10.175 C2.39375,9.8078125 2.1875,9.3140625 2.1875,8.790625 C2.1875,8.353125 2.3296875,7.940625 2.596875,7.596875 C2.8578125,7.2625 3.225,7.0203125 3.6296875,6.9140625 L4.221875,6.7578125 L4.4390625,6.184375 C4.5734375,5.828125 4.7609375,5.49375 4.996875,5.1921875 C5.2296875,4.8921875 5.50625,4.6296875 5.815625,4.4109375 C6.4578125,3.959375 7.2140625,3.7203125 8.003125,3.7203125 C8.7921875,3.7203125 9.5484375,3.959375 10.190625,4.4125 C10.5015625,4.63125 10.7765625,4.89375 11.009375,5.19375 C11.2453125,5.4953125 11.4328125,5.8296875 11.5671875,6.1859375 L11.7828125,6.7578125 L12.3734375,6.9140625 C13.2203125,7.1390625 13.8125,7.909375 13.8125,8.7890625 C13.8125,9.3140625 13.60625,9.80625 13.23125,10.1734375 C12.9265625,10.4734375 12.5296875,10.659375 12.1078125,10.7125 C12.0453125,10.7203125 12,10.7734375 12,10.8359375 L12,11.78125 C12,11.8546875 12.0640625,11.9125 12.1375,11.90625 C13.7265625,11.7625 14.9890625,10.4375 15.0001313,8.809375 C15.009375,7.35 14.0203125,6.1203125 12.678125,5.7640625 L12.678125,5.7640625 Z" id="路径"></path>
            </g>
        </g>
    </g>
</svg>