<?xml version="1.0" encoding="UTF-8"?>
<svg width="16px" height="16px" viewBox="0 0 16 16" version="1.1" xmlns="http://www.w3.org/2000/svg" xmlns:xlink="http://www.w3.org/1999/xlink">
    <title>p-cloud-upload</title>
    <g id="页面-1" stroke="none" stroke-width="1" fill="none" fill-rule="evenodd">
        <g id="画板" transform="translate(-175.000000, -436.000000)" fill="#000000" fill-rule="nonzero">
            <g id="p-cloud-upload" transform="translate(175.000000, 436.000000)">
                <rect id="矩形" opacity="0" x="0" y="0" width="16" height="16"></rect>
                <path d="M8.0984375,7.171875 C8.0484375,7.1078125 7.9515625,7.1078125 7.9015625,7.171875 L6.1515625,9.3859375 C6.0875,9.4671875 6.1453125,9.5875 6.25,9.5875 L7.4046875,9.5875 L7.4046875,13.375 C7.4046875,13.44375 7.4609375,13.5 7.5296875,13.5 L8.4671875,13.5 C8.5359375,13.5 8.5921875,13.44375 8.5921875,13.375 L8.5921875,9.5890625 L9.75,9.5890625 C9.8546875,9.5890625 9.9125,9.46875 9.8484375,9.3875 L8.0984375,7.171875 Z" id="路径"></path>
                <path d="M12.678125,5.7296875 C11.9625,3.8421875 10.1390625,2.5 8.003125,2.5 C5.8671875,2.5 4.04375,3.840625 3.328125,5.728125 C1.9890625,6.0796875 1,7.3 1,8.75 C1,10.4765625 2.3984375,11.875 4.1234375,11.875 L4.75,11.875 C4.81875,11.875 4.875,11.81875 4.875,11.75 L4.875,10.8125 C4.875,10.74375 4.81875,10.6875 4.75,10.6875 L4.1234375,10.6875 C3.596875,10.6875 3.1015625,10.478125 2.7328125,10.0984375 C2.365625,9.7203125 2.1703125,9.2109375 2.1875,8.6828125 C2.2015625,8.2703125 2.3421875,7.8828125 2.596875,7.55625 C2.8578125,7.2234375 3.2234375,6.98125 3.6296875,6.8734375 L4.221875,6.71875 L4.4390625,6.146875 C4.5734375,5.790625 4.7609375,5.4578125 4.996875,5.15625 C5.2296875,4.85625 5.50625,4.5953125 5.815625,4.3765625 C6.4578125,3.925 7.2140625,3.6859375 8.003125,3.6859375 C8.7921875,3.6859375 9.5484375,3.925 10.190625,4.3765625 C10.5015625,4.5953125 10.7765625,4.8578125 11.009375,5.15625 C11.2453125,5.4578125 11.4328125,5.7921875 11.5671875,6.146875 L11.7828125,6.7171875 L12.3734375,6.8734375 C13.2203125,7.1015625 13.8125,7.871875 13.8125,8.75 C13.8125,9.2671875 13.6109375,9.7546875 13.2453125,10.1203125 C12.8796875,10.4859375 12.39375,10.6875 11.8765625,10.6875 L11.25,10.6875 C11.18125,10.6875 11.125,10.74375 11.125,10.8125 L11.125,11.75 C11.125,11.81875 11.18125,11.875 11.25,11.875 L11.8765625,11.875 C13.6015625,11.875 15,10.4765625 15,8.75 C15,7.3015625 14.0140625,6.0828125 12.678125,5.7296875 Z" id="路径"></path>
            </g>
        </g>
    </g>
</svg>