<?xml version="1.0" encoding="UTF-8"?>
<svg width="16px" height="16px" viewBox="0 0 16 16" version="1.1" xmlns="http://www.w3.org/2000/svg" xmlns:xlink="http://www.w3.org/1999/xlink">
    <title>p-close</title>
    <g id="页面-1" stroke="none" stroke-width="1" fill="none" fill-rule="evenodd">
        <g id="画板" transform="translate(-280.000000, -436.000000)" fill="#000000">
            <g id="p-close" transform="translate(280.000000, 436.000000)">
                <rect id="矩形" fill-rule="nonzero" opacity="0" x="0" y="0" width="16" height="16"></rect>
                <path d="M2.87484434,1 C2.93396407,1 2.99005467,1.02615604 3.02805535,1.07144501 L3.02805535,1.07144501 L7.993,6.988 L12.9581604,1.07144501 C12.9961611,1.02615604 13.0522517,1 13.1113714,1 L14.2861923,1 C14.3966492,1 14.4861923,1.08954305 14.4861923,1.2 C14.4861923,1.24702227 14.4696242,1.29254102 14.4393979,1.32856141 L8.841,7.999 L14.4394268,14.671445 C14.4595754,14.695458 14.4736543,14.7236917 14.4808015,14.7537777 L14.4862158,14.8 C14.4862158,14.9104569 14.3966727,15 14.2862158,15 L14.2862158,15 L13.1123663,15 C13.0532495,15 12.9971614,14.9738465 12.9591607,14.9285614 L12.9591607,14.9285614 L7.993,9.01 L3.02705507,14.9285614 C2.98905437,14.9738465 2.93296624,15 2.87384944,15 L1.7,15 C1.58954305,15 1.5,14.9104569 1.5,14.8 C1.5,14.7529806 1.5165661,14.7074645 1.54678898,14.671445 L7.144,7.999 L1.54681784,1.32856141 C1.52666701,1.30454782 1.51258645,1.27631273 1.5054384,1.24622499 L1.50002347,1.2 C1.50002347,1.08954305 1.58956652,1 1.70002347,1 L1.70002347,1 Z" id="形状结合"></path>
            </g>
        </g>
    </g>
</svg>