<?xml version="1.0" encoding="UTF-8"?>
<svg width="16px" height="16px" viewBox="0 0 16 16" version="1.1" xmlns="http://www.w3.org/2000/svg" xmlns:xlink="http://www.w3.org/1999/xlink">
    <title>p-copyright</title>
    <g id="页面-1" stroke="none" stroke-width="1" fill="none" fill-rule="evenodd">
        <g id="画板" transform="translate(-242.000000, -599.000000)" fill="#000000" fill-rule="nonzero">
            <g id="p-copyright" transform="translate(242.000000, 599.000000)">
                <rect id="矩形" opacity="0" x="0" y="0" width="16" height="16"></rect>
                <path d="M8,1 C4.134375,1 1,4.134375 1,8 C1,11.865625 4.134375,15 8,15 C11.865625,15 15,11.865625 15,8 C15,4.134375 11.865625,1 8,1 Z M8,13.8125 C4.790625,13.8125 2.1875,11.209375 2.1875,8 C2.1875,4.790625 4.790625,2.1875 8,2.1875 C11.209375,2.1875 13.8125,4.790625 13.8125,8 C13.8125,11.209375 11.209375,13.8125 8,13.8125 Z M8.0875,5.4890625 C8.915625,5.4890625 9.478125,6.0171875 9.540625,6.7921875 C9.5453125,6.8578125 9.6,6.9078125 9.665625,6.9078125 L10.5515625,6.9078125 C10.5921875,6.9078125 10.625,6.875 10.625,6.834375 C10.625,5.4796875 9.55625,4.53125 8.0828125,4.53125 C6.365625,4.53125 5.375,5.690625 5.375,7.60625 L5.375,8.4234375 C5.375,10.325 6.365625,11.46875 8.0828125,11.46875 C9.5515625,11.46875 10.625,10.55 10.625,9.259375 C10.625,9.21875 10.5921875,9.1859375 10.5515625,9.1859375 L9.6640625,9.1859375 C9.5984375,9.1859375 9.5453125,9.2359375 9.5390625,9.3 C9.4734375,10.0203125 8.9125,10.515625 8.0859375,10.515625 C7.065625,10.515625 6.490625,9.7671875 6.490625,8.428125 L6.490625,7.60625 C6.4921875,6.246875 7.06875,5.4890625 8.0875,5.4890625 L8.0875,5.4890625 Z" id="形状"></path>
            </g>
        </g>
    </g>
</svg>