<?xml version="1.0" encoding="UTF-8"?>
<svg width="16px" height="16px" viewBox="0 0 16 16" version="1.1" xmlns="http://www.w3.org/2000/svg" xmlns:xlink="http://www.w3.org/1999/xlink">
    <title>p-contacts</title>
    <g id="页面-1" stroke="none" stroke-width="1" fill="none" fill-rule="evenodd">
        <g id="画板" transform="translate(-293.000000, -599.000000)" fill="#000000" fill-rule="nonzero">
            <g id="p-contacts" transform="translate(293.000000, 599.000000)">
                <rect id="矩形" opacity="0" x="0" y="0" width="16" height="16"></rect>
                <path d="M9.2859375,9.60179139 C9.56875,9.29085389 9.740625,8.87679139 9.740625,8.42210389 C9.740625,7.45491639 8.9609375,6.67210389 8,6.67210389 C7.0390625,6.67210389 6.259375,7.45491639 6.259375,8.42210389 C6.259375,8.87679139 6.43125,9.28929139 6.7140625,9.60179139 C6.046875,10.0158539 5.5921875,10.7392914 5.5484375,11.5721039 C5.5453125,11.6439789 5.6015625,11.7033539 5.6734375,11.7033539 L6.359375,11.7033539 C6.425,11.7033539 6.478125,11.6517914 6.4828125,11.5861664 C6.5421875,10.7955414 7.2015625,10.1721039 8.0015625,10.1721039 C8.8015625,10.1721039 9.4609375,10.7971039 9.5203125,11.5861664 C9.525,11.6517914 9.578125,11.7033539 9.64375,11.7033539 L10.328125,11.7033539 C10.4,11.7033539 10.45625,11.6439789 10.453125,11.5721039 C10.409375,10.7392914 9.953125,10.0142914 9.2859375,9.60179139 Z M8,9.23460389 C7.5546875,9.23460389 7.1921875,8.87054139 7.1921875,8.42210389 C7.1921875,7.97366639 7.5546875,7.60960389 8,7.60960389 C8.4453125,7.60960389 8.8078125,7.97366639 8.8078125,8.42210389 C8.8078125,8.87054139 8.4453125,9.23460389 8,9.23460389 Z M14.5,3.5 L12,3.5 L12,2.625 C12,2.55625 11.94375,2.5 11.875,2.5 L11,2.5 C10.93125,2.5 10.875,2.55625 10.875,2.625 L10.875,3.5 L8.5625,3.5 L8.5625,2.625 C8.5625,2.55625 8.50625,2.5 8.4375,2.5 L7.5625,2.5 C7.49375,2.5 7.4375,2.55625 7.4375,2.625 L7.4375,3.5 L5.125,3.5 L5.125,2.625 C5.125,2.55625 5.06875,2.5 5,2.5 L4.125,2.5 C4.05625,2.5 4,2.55625 4,2.625 L4,3.5 L1.5,3.5 C1.2234375,3.5 1,3.7234375 1,4 L1,14 C1,14.2765625 1.2234375,14.5 1.5,14.5 L14.5,14.5 C14.7765625,14.5 15,14.2765625 15,14 L15,4 C15,3.7234375 14.7765625,3.5 14.5,3.5 Z M13.875,13.375 L2.125,13.375 L2.125,4.625 L4,4.625 L4,5.5 C4,5.56875 4.05625,5.625 4.125,5.625 L5,5.625 C5.06875,5.625 5.125,5.56875 5.125,5.5 L5.125,4.625 L7.4375,4.625 L7.4375,5.5 C7.4375,5.56875 7.49375,5.625 7.5625,5.625 L8.4375,5.625 C8.50625,5.625 8.5625,5.56875 8.5625,5.5 L8.5625,4.625 L10.875,4.625 L10.875,5.5 C10.875,5.56875 10.93125,5.625 11,5.625 L11.875,5.625 C11.94375,5.625 12,5.56875 12,5.5 L12,4.625 L13.875,4.625 L13.875,13.375 Z" id="形状"></path>
            </g>
        </g>
    </g>
</svg>