<?xml version="1.0" encoding="UTF-8"?>
<svg width="16px" height="16px" viewBox="0 0 16 16" version="1.1" xmlns="http://www.w3.org/2000/svg" xmlns:xlink="http://www.w3.org/1999/xlink">
    <title>p-comment</title>
    <g id="页面-1" stroke="none" stroke-width="1" fill="none" fill-rule="evenodd">
        <g id="画板" transform="translate(-318.000000, -599.000000)" fill="#000000" fill-rule="nonzero">
            <g id="p-comment" transform="translate(318.000000, 599.000000)">
                <rect id="矩形" opacity="0" x="0" y="0" width="16" height="16"></rect>
                <path d="M8.953125,6.578125 C8.5921875,6.578125 8.3125,6.8578125 8.3125,7.203125 C8.3125,7.5484375 8.5921875,7.828125 8.953125,7.828125 C9.2828125,7.828125 9.5625,7.5484375 9.5625,7.203125 C9.5625,6.8578125 9.2828125,6.578125 8.953125,6.578125 Z M4.578125,6.578125 C4.2171875,6.578125 3.9375,6.8578125 3.9375,7.203125 C3.9375,7.5484375 4.2171875,7.828125 4.578125,7.828125 C4.9078125,7.828125 5.1875,7.5484375 5.1875,7.203125 C5.1875,6.8578125 4.9078125,6.578125 4.578125,6.578125 Z M13.96875,5.390625 C13.2171875,4.359375 12.1671875,3.6703125 11.015625,3.359375 L11.015625,3.3609375 C10.7484375,3.0640625 10.446875,2.790625 10.109375,2.546875 C7.5515625,0.6875 3.9609375,1.2546875 2.09375,3.8125 C0.5890625,5.890625 0.653125,8.6859375 2.1875,10.671875 L2.2,12.74375 C2.2,12.79375 2.2078125,12.84375 2.2234375,12.890625 C2.30625,13.1546875 2.5875,13.3 2.85,13.2171875 L4.828125,12.59375 C5.3515625,12.7796875 5.8921875,12.8859375 6.4296875,12.915625 L6.421875,12.921875 C7.8140625,13.9359375 9.6390625,14.240625 11.3125,13.6875 L13.2984375,14.334375 C13.3484375,14.35 13.4,14.359375 13.453125,14.359375 C13.7296875,14.359375 13.953125,14.1359375 13.953125,13.859375 L13.953125,11.765625 C15.3296875,9.896875 15.365625,7.3140625 13.96875,5.390625 Z M5.046875,11.484375 L4.859375,11.40625 L3.3125,11.890625 L3.296875,10.265625 L3.171875,10.125 C1.85,8.5125 1.7625,6.1890625 3,4.484375 C4.50625,2.41875 7.39375,1.9625 9.453125,3.453125 C11.51875,4.9546875 11.9765625,7.8375 10.484375,9.890625 C9.2328125,11.6078125 6.9921875,12.2421875 5.046875,11.484375 Z M12.9375,11.21875 L12.8125,11.375 L12.828125,13 L11.296875,12.484375 L11.109375,12.5625 C10.234375,12.8875 9.3015625,12.9140625 8.4375,12.671875 L8.434375,12.6703125 C9.5890625,12.315625 10.6359375,11.596875 11.390625,10.5625 C12.584375,8.9171875 12.778125,6.85 12.084375,5.0875 L12.09375,5.09375 C12.453125,5.3515625 12.7828125,5.6734375 13.0625,6.0625 C14.196875,7.61875 14.1328125,9.7375 12.9375,11.21875 Z M6.765625,6.578125 C6.4046875,6.578125 6.125,6.8578125 6.125,7.203125 C6.125,7.5484375 6.4046875,7.828125 6.765625,7.828125 C7.0953125,7.828125 7.375,7.5484375 7.375,7.203125 C7.375,6.8578125 7.0953125,6.578125 6.765625,6.578125 Z" id="形状"></path>
            </g>
        </g>
    </g>
</svg>