<?xml version="1.0" encoding="UTF-8"?>
<svg width="16px" height="16px" viewBox="0 0 16 16" version="1.1" xmlns="http://www.w3.org/2000/svg" xmlns:xlink="http://www.w3.org/1999/xlink">
    <title>p-compass</title>
    <g id="页面-1" stroke="none" stroke-width="1" fill="none" fill-rule="evenodd">
        <g id="画板" transform="translate(-217.000000, -599.000000)" fill="#000000" fill-rule="nonzero">
            <g id="p-compass" transform="translate(217.000000, 599.000000)">
                <rect id="矩形" opacity="0" x="0" y="0" width="16" height="16"></rect>
                <path d="M8,1 C4.134375,1 1,4.134375 1,8 C1,11.865625 4.134375,15 8,15 C11.865625,15 15,11.865625 15,8 C15,4.134375 11.865625,1 8,1 Z M8,13.8125 C4.790625,13.8125 2.1875,11.209375 2.1875,8 C2.1875,4.790625 4.790625,2.1875 8,2.1875 C11.209375,2.1875 13.8125,4.790625 13.8125,8 C13.8125,11.209375 11.209375,13.8125 8,13.8125 Z M11.1,4.6234375 C10.975,4.575 10.8390625,4.578125 10.7171875,4.63125 L6.4828125,6.484375 L4.63125,10.71875 C4.575,10.846875 4.575,10.9921875 4.63125,11.1203125 C4.684375,11.2421875 4.7828125,11.3375 4.9078125,11.3859375 C4.9671875,11.409375 5.028125,11.4203125 5.090625,11.4203125 C5.159375,11.4203125 5.2265625,11.40625 5.290625,11.378125 L9.525,9.525 L11.3765625,5.290625 C11.4328125,5.1625 11.4328125,5.0171875 11.3765625,4.8890625 C11.321875,4.765625 11.2234375,4.671875 11.1,4.6234375 L11.1,4.6234375 Z M9.0125,8.35 L9.421875,8.759375 L8.759375,9.421875 L8.35,9.0125 L5.9375,10.06875 L6.9921875,7.65625 L6.59375,7.25625 L7.25625,6.59375 L7.6546875,6.9921875 L10.06875,5.9375 L9.0125,8.35 Z M7.25625,6.59375 L6.59375,7.25625 L6.9921875,7.65625 L8.35,9.0125 L8.759375,9.421875 L9.421875,8.759375 L9.0125,8.35 L7.65625,6.9921875 L7.25625,6.59375 Z" id="形状"></path>
            </g>
        </g>
    </g>
</svg>