<?xml version="1.0" encoding="UTF-8"?>
<svg width="16px" height="16px" viewBox="0 0 16 16" version="1.1" xmlns="http://www.w3.org/2000/svg" xmlns:xlink="http://www.w3.org/1999/xlink">
    <title>p-control</title>
    <g id="页面-1" stroke="none" stroke-width="1" fill="none" fill-rule="evenodd">
        <g id="画板" transform="translate(-192.000000, -599.000000)" fill="#000000" fill-rule="nonzero">
            <g id="p-control" transform="translate(192.000000, 599.000000)">
                <rect id="矩形" opacity="0" x="0" y="0" width="16" height="16"></rect>
                <path d="M14.44,1 L1.56,1 C1.25025,1 1,1.25025 1,1.56 L1,14.44 C1,14.74975 1.25025,15 1.56,15 L14.44,15 C14.74975,15 15,14.74975 15,14.44 L15,1.56 C15,1.25025 14.74975,1 14.44,1 Z M13.74,13.74 L2.26,13.74 L2.26,2.26 L13.74,2.26 L13.74,13.74 Z M4.99,10.9925 L4.99,12.34 C4.99,12.417 5.053,12.48 5.13,12.48 L5.97,12.48 C6.047,12.48 6.11,12.417 6.11,12.34 L6.11,10.9925 C5.93325,11.05025 5.746,11.08 5.55,11.08 C5.354,11.08 5.16675,11.0485 4.99,10.9925 Z M6.11,7.5275 L6.11,3.66 C6.11,3.583 6.047,3.52 5.97,3.52 L5.13,3.52 C5.053,3.52 4.99,3.583 4.99,3.66 L4.99,7.5275 C5.16675,7.46975 5.354,7.44 5.55,7.44 C5.746,7.44 5.93325,7.4715 6.11,7.5275 Z M4.99,10.9925 C5.16675,11.05025 5.354,11.08 5.55,11.08 C5.746,11.08 5.93325,11.0485 6.11,10.9925 C6.8415,10.75625 7.37,10.07025 7.37,9.26 C7.37,8.44975 6.8415,7.76375 6.11,7.5275 C5.93325,7.46975 5.746,7.44 5.55,7.44 C5.354,7.44 5.16675,7.4715 4.99,7.5275 C4.2585,7.76375 3.73,8.44975 3.73,9.26 C3.73,10.07025 4.2585,10.75625 4.99,10.9925 Z M4.99175,8.96775 C4.997,8.95725 5.004,8.94675 5.00925,8.93625 L5.00925,8.9345 L5.03025,8.903 C5.032,8.8995 5.03375,8.89775 5.0355,8.89425 C5.04075,8.8855 5.04775,8.8785 5.053,8.86975 C5.05475,8.868 5.0565,8.8645 5.05825,8.86275 C5.067,8.85225 5.074,8.8435 5.08275,8.83475 L5.088,8.8295 L5.109,8.8085 L5.116,8.8015 C5.12475,8.79275 5.1335,8.78575 5.144,8.777 C5.1545,8.76825 5.16325,8.76125 5.17375,8.75425 C5.17725,8.7525 5.179,8.75075 5.1825,8.749 C5.19125,8.74375 5.19825,8.73675 5.207,8.7315 C5.20875,8.72975 5.21225,8.728 5.214,8.72625 C5.2245,8.71925 5.235,8.714 5.24725,8.707 C5.249,8.70525 5.2525,8.70525 5.25425,8.7035 C5.263,8.69825 5.27175,8.69475 5.28225,8.6895 L5.29275,8.68425 C5.305,8.679 5.3155,8.67375 5.32775,8.67025 C5.34,8.665 5.35225,8.6615 5.3645,8.658 C5.368,8.65625 5.3715,8.65625 5.375,8.6545 C5.3855,8.651 5.39425,8.64925 5.40475,8.6475 C5.40825,8.6475 5.41,8.64575 5.4135,8.64575 C5.42575,8.64225 5.43975,8.6405 5.452,8.63875 C5.4555,8.63875 5.45725,8.63875 5.46075,8.637 C5.47125,8.63525 5.48175,8.63525 5.49225,8.6335 L5.50275,8.6335 C5.51675,8.6335 5.529,8.63175 5.543,8.63175 C5.557,8.63175 5.56925,8.63175 5.58325,8.6335 L5.59375,8.6335 C5.60425,8.6335 5.61475,8.63525 5.62525,8.637 C5.62875,8.637 5.6305,8.637 5.634,8.63875 C5.64625,8.6405 5.66025,8.64225 5.6725,8.64575 C5.676,8.64575 5.67775,8.6475 5.68125,8.6475 C5.69175,8.64925 5.70225,8.65275 5.711,8.6545 C5.7145,8.65625 5.718,8.65625 5.7215,8.658 C5.73375,8.6615 5.746,8.665 5.75825,8.67025 C5.7705,8.67375 5.781,8.679 5.79325,8.68425 L5.80375,8.6895 C5.8125,8.693 5.823,8.69825 5.83175,8.7035 C5.8335,8.70525 5.837,8.70525 5.83875,8.707 C5.84925,8.71225 5.8615,8.71925 5.872,8.72625 C5.87375,8.728 5.87725,8.72975 5.879,8.7315 C5.88775,8.73675 5.8965,8.742 5.9035,8.749 C5.907,8.75075 5.90875,8.7525 5.91225,8.75425 C5.92275,8.76125 5.93325,8.77 5.942,8.777 C5.95075,8.784 5.96125,8.79275 5.97,8.8015 L5.977,8.8085 L5.998,8.8295 L6.00325,8.83475 C6.012,8.8435 6.02075,8.854 6.02775,8.86275 C6.0295,8.8645 6.03125,8.868 6.033,8.86975 C6.04,8.87675 6.04525,8.8855 6.0505,8.89425 C6.05225,8.89775 6.054,8.8995 6.05575,8.903 L6.07675,8.9345 C6.07675,8.9345 6.07675,8.93625 6.0785,8.93625 C6.0855,8.94675 6.09075,8.95725 6.096,8.96775 C6.1415,9.05525 6.16775,9.155 6.16775,9.26 C6.16775,9.365 6.1415,9.46475 6.096,9.55225 C6.09075,9.56275 6.08375,9.57325 6.0785,9.58375 C6.0785,9.58375 6.0785,9.5855 6.07675,9.5855 L6.05575,9.617 C6.054,9.6205 6.05225,9.62225 6.0505,9.62575 C6.04525,9.6345 6.03825,9.6415 6.033,9.65025 C6.03125,9.652 6.0295,9.6555 6.02775,9.65725 C6.019,9.66775 6.012,9.6765 6.00325,9.68525 L5.998,9.6905 L5.977,9.7115 L5.97,9.7185 C5.96125,9.72725 5.9525,9.73425 5.942,9.743 C5.9315,9.75175 5.92275,9.75875 5.91225,9.76575 C5.90875,9.7675 5.907,9.76925 5.9035,9.771 C5.89475,9.77625 5.88775,9.78325 5.879,9.7885 C5.87725,9.79025 5.87375,9.792 5.872,9.79375 C5.8615,9.80075 5.851,9.806 5.83875,9.813 C5.837,9.81475 5.8335,9.81475 5.83175,9.8165 C5.823,9.82175 5.81425,9.82525 5.80375,9.8305 L5.79325,9.83575 C5.781,9.841 5.7705,9.84625 5.75825,9.84975 C5.746,9.855 5.73375,9.8585 5.7215,9.862 C5.718,9.86375 5.7145,9.86375 5.711,9.8655 C5.7005,9.869 5.69175,9.87075 5.68125,9.8725 C5.67775,9.8725 5.676,9.87425 5.6725,9.87425 C5.66025,9.87775 5.64625,9.8795 5.634,9.88125 C5.6305,9.88125 5.62875,9.88125 5.62525,9.883 C5.61475,9.88475 5.60425,9.88475 5.59375,9.8865 L5.58325,9.8865 C5.56925,9.8865 5.557,9.88825 5.543,9.88825 C5.529,9.88825 5.51675,9.88825 5.50275,9.8865 L5.49225,9.8865 C5.48175,9.8865 5.47125,9.88475 5.46075,9.883 C5.45725,9.883 5.4555,9.883 5.452,9.88125 C5.43975,9.8795 5.42575,9.87775 5.4135,9.87425 C5.41,9.87425 5.40825,9.8725 5.40475,9.8725 C5.39425,9.87075 5.38375,9.86725 5.375,9.8655 C5.3715,9.86375 5.368,9.86375 5.3645,9.862 C5.35225,9.8585 5.34,9.855 5.32775,9.84975 C5.3155,9.84625 5.305,9.841 5.29275,9.83575 L5.28225,9.8305 C5.2735,9.827 5.263,9.82175 5.25425,9.8165 C5.2525,9.81475 5.249,9.81475 5.24725,9.813 C5.23675,9.80775 5.2245,9.80075 5.214,9.79375 C5.21225,9.792 5.20875,9.79025 5.207,9.7885 C5.19825,9.78325 5.1895,9.778 5.1825,9.771 C5.179,9.76925 5.17725,9.7675 5.17375,9.76575 C5.16325,9.75875 5.15275,9.75 5.144,9.743 C5.13525,9.736 5.12475,9.72725 5.116,9.7185 L5.109,9.7115 L5.088,9.6905 L5.08275,9.68525 C5.074,9.6765 5.06525,9.666 5.05825,9.65725 C5.0565,9.6555 5.05475,9.652 5.053,9.65025 C5.046,9.64325 5.04075,9.6345 5.0355,9.62575 C5.03375,9.62225 5.032,9.6205 5.03025,9.617 L5.00925,9.5855 L5.00925,9.58375 C5.00225,9.57325 4.997,9.56275 4.99175,9.55225 C4.94625,9.46475 4.92,9.365 4.92,9.26 C4.92,9.155 4.94625,9.05525 4.99175,8.96775 Z M9.89,8.4725 L9.89,12.34 C9.89,12.417 9.953,12.48 10.03,12.48 L10.87,12.48 C10.947,12.48 11.01,12.417 11.01,12.34 L11.01,8.4725 C10.83325,8.53025 10.646,8.56 10.45,8.56 C10.254,8.56 10.06675,8.5285 9.89,8.4725 Z M11.01,5.0075 L11.01,3.66 C11.01,3.583 10.947,3.52 10.87,3.52 L10.03,3.52 C9.953,3.52 9.89,3.583 9.89,3.66 L9.89,5.0075 C10.06675,4.94975 10.254,4.92 10.45,4.92 C10.646,4.92 10.83325,4.9515 11.01,5.0075 Z M9.89,8.4725 C10.06675,8.53025 10.254,8.56 10.45,8.56 C10.646,8.56 10.83325,8.5285 11.01,8.4725 C11.7415,8.23625 12.27,7.55025 12.27,6.74 C12.27,5.92975 11.7415,5.24375 11.01,5.0075 C10.83325,4.94975 10.646,4.92 10.45,4.92 C10.254,4.92 10.06675,4.9515 9.89,5.0075 C9.1585,5.24375 8.63,5.92975 8.63,6.74 C8.63,7.55025 9.1585,8.23625 9.89,8.4725 Z M9.89175,6.44775 C9.897,6.43725 9.904,6.42675 9.90925,6.41625 L9.90925,6.4145 L9.93025,6.383 C9.932,6.3795 9.93375,6.37775 9.9355,6.37425 C9.94075,6.3655 9.94775,6.3585 9.953,6.34975 C9.95475,6.348 9.9565,6.3445 9.95825,6.34275 C9.967,6.33225 9.974,6.3235 9.98275,6.31475 L9.988,6.3095 L10.009,6.2885 L10.016,6.2815 C10.02475,6.27275 10.0335,6.26575 10.044,6.257 C10.0545,6.24825 10.06325,6.24125 10.07375,6.23425 C10.07725,6.2325 10.079,6.23075 10.0825,6.229 C10.09125,6.22375 10.09825,6.21675 10.107,6.2115 C10.10875,6.20975 10.11225,6.208 10.114,6.20625 C10.1245,6.19925 10.135,6.194 10.14725,6.187 C10.149,6.18525 10.1525,6.18525 10.15425,6.1835 C10.163,6.17825 10.17175,6.17475 10.18225,6.1695 L10.19275,6.16425 C10.205,6.159 10.2155,6.15375 10.22775,6.15025 C10.24,6.145 10.25225,6.1415 10.2645,6.138 C10.268,6.13625 10.2715,6.13625 10.275,6.1345 C10.2855,6.131 10.29425,6.12925 10.30475,6.1275 C10.30825,6.1275 10.31,6.12575 10.3135,6.12575 C10.32575,6.12225 10.33975,6.1205 10.352,6.11875 C10.3555,6.11875 10.35725,6.11875 10.36075,6.117 C10.37125,6.11525 10.38175,6.11525 10.39225,6.1135 L10.40275,6.1135 C10.41675,6.1135 10.429,6.11175 10.443,6.11175 C10.457,6.11175 10.46925,6.11175 10.48325,6.1135 L10.49375,6.1135 C10.50425,6.1135 10.51475,6.11525 10.52525,6.117 C10.52875,6.117 10.5305,6.117 10.534,6.11875 C10.54625,6.1205 10.56025,6.12225 10.5725,6.12575 C10.576,6.12575 10.57775,6.1275 10.58125,6.1275 C10.59175,6.12925 10.60225,6.13275 10.611,6.1345 C10.6145,6.13625 10.618,6.13625 10.6215,6.138 C10.63375,6.1415 10.646,6.145 10.65825,6.15025 C10.6705,6.15375 10.681,6.159 10.69325,6.16425 L10.70375,6.1695 C10.7125,6.173 10.723,6.17825 10.73175,6.1835 C10.7335,6.18525 10.737,6.18525 10.73875,6.187 C10.74925,6.19225 10.7615,6.19925 10.772,6.20625 C10.77375,6.208 10.77725,6.20975 10.779,6.2115 C10.78775,6.21675 10.7965,6.222 10.8035,6.229 C10.807,6.23075 10.80875,6.2325 10.81225,6.23425 C10.82275,6.24125 10.83325,6.25 10.842,6.257 C10.85075,6.264 10.86125,6.27275 10.87,6.2815 L10.877,6.2885 L10.898,6.3095 L10.90325,6.31475 C10.912,6.3235 10.92075,6.334 10.92775,6.34275 C10.9295,6.3445 10.93125,6.348 10.933,6.34975 C10.94,6.35675 10.94525,6.3655 10.9505,6.37425 C10.95225,6.37775 10.954,6.3795 10.95575,6.383 L10.97675,6.4145 L10.97675,6.41625 C10.98375,6.42675 10.989,6.43725 10.99425,6.44775 C11.03975,6.53525 11.066,6.635 11.066,6.74 C11.066,6.845 11.03975,6.94475 10.99425,7.03225 C10.989,7.04275 10.982,7.05325 10.97675,7.06375 L10.97675,7.0655 L10.95575,7.097 C10.954,7.1005 10.95225,7.10225 10.9505,7.10575 C10.94525,7.1145 10.93825,7.1215 10.933,7.13025 C10.93125,7.132 10.9295,7.1355 10.92775,7.13725 C10.919,7.14775 10.912,7.1565 10.90325,7.16525 L10.898,7.1705 L10.877,7.1915 L10.87,7.1985 C10.86125,7.20725 10.8525,7.21425 10.842,7.223 C10.8315,7.23175 10.82275,7.23875 10.81225,7.24575 C10.80875,7.2475 10.807,7.24925 10.8035,7.251 C10.79475,7.25625 10.78775,7.26325 10.779,7.2685 C10.77725,7.27025 10.77375,7.272 10.772,7.27375 C10.7615,7.28075 10.751,7.286 10.73875,7.293 C10.737,7.29475 10.7335,7.29475 10.73175,7.2965 C10.723,7.30175 10.71425,7.30525 10.70375,7.3105 L10.69325,7.31575 C10.681,7.321 10.6705,7.32625 10.65825,7.32975 C10.646,7.335 10.63375,7.3385 10.6215,7.342 C10.618,7.34375 10.6145,7.34375 10.611,7.3455 C10.6005,7.349 10.59175,7.35075 10.58125,7.3525 C10.57775,7.3525 10.576,7.35425 10.5725,7.35425 C10.56025,7.35775 10.54625,7.3595 10.534,7.36125 C10.5305,7.36125 10.52875,7.36125 10.52525,7.363 C10.51475,7.36475 10.50425,7.36475 10.49375,7.3665 L10.48325,7.3665 C10.46925,7.3665 10.457,7.36825 10.443,7.36825 C10.429,7.36825 10.41675,7.36825 10.40275,7.3665 L10.39225,7.3665 C10.38175,7.3665 10.37125,7.36475 10.36075,7.363 C10.35725,7.363 10.3555,7.363 10.352,7.36125 C10.33975,7.3595 10.32575,7.35775 10.3135,7.35425 C10.31,7.35425 10.30825,7.3525 10.30475,7.3525 C10.29425,7.35075 10.28375,7.34725 10.275,7.3455 C10.2715,7.34375 10.268,7.34375 10.2645,7.342 C10.25225,7.3385 10.24,7.335 10.22775,7.32975 C10.2155,7.32625 10.205,7.321 10.19275,7.31575 L10.18225,7.3105 C10.1735,7.307 10.163,7.30175 10.15425,7.2965 C10.1525,7.29475 10.149,7.29475 10.14725,7.293 C10.13675,7.28775 10.1245,7.28075 10.114,7.27375 C10.11225,7.272 10.10875,7.27025 10.107,7.2685 C10.09825,7.26325 10.0895,7.258 10.0825,7.251 C10.079,7.24925 10.07725,7.2475 10.07375,7.24575 C10.06325,7.23875 10.05275,7.23 10.044,7.223 C10.03525,7.216 10.02475,7.20725 10.016,7.1985 L10.009,7.1915 L9.988,7.1705 L9.98275,7.16525 C9.974,7.1565 9.96525,7.146 9.95825,7.13725 C9.9565,7.1355 9.95475,7.132 9.953,7.13025 C9.946,7.12325 9.94075,7.1145 9.9355,7.10575 C9.93375,7.10225 9.932,7.1005 9.93025,7.097 L9.90925,7.0655 L9.90925,7.06375 C9.90225,7.05325 9.897,7.04275 9.89175,7.03225 C9.84625,6.94475 9.82,6.845 9.82,6.74 C9.82,6.635 9.84625,6.53525 9.89175,6.44775 Z" id="形状"></path>
            </g>
        </g>
    </g>
</svg>