<?xml version="1.0" encoding="UTF-8"?>
<svg width="16px" height="16px" viewBox="0 0 16 16" version="1.1" xmlns="http://www.w3.org/2000/svg" xmlns:xlink="http://www.w3.org/1999/xlink">
    <title>p-column-width</title>
    <g id="页面-1" stroke="none" stroke-width="1" fill="none" fill-rule="evenodd">
        <g id="画板" transform="translate(-256.000000, -1600.000000)">
            <g id="p-column-width" transform="translate(256.000000, 1600.000000)">
                <rect id="矩形" fill="#D8D8D8" opacity="0" x="0" y="0" width="16" height="16"></rect>
                <path d="M2.13440546,2.17 C2.21724817,2.17 2.28440546,2.23715729 2.28440546,2.32 L2.28440546,13.6888331 C2.28440546,13.7716758 2.21724817,13.8388331 2.13440546,13.8388331 L1.15,13.8388331 C1.06715729,13.8388331 1,13.7716758 1,13.6888331 L1,2.32 C1,2.23715729 1.06715729,2.17 1.15,2.17 L2.13440546,2.17 Z M14.85,2.17 C14.9328427,2.17 15,2.23715729 15,2.32 L15,13.6888331 C15,13.7716758 14.9328427,13.8388331 14.85,13.8388331 L13.8655945,13.8388331 C13.7827518,13.8388331 13.7155945,13.7716758 13.7155945,13.6888331 L13.7155945,2.32 C13.7155945,2.23715729 13.7827518,2.17 13.8655945,2.17 L14.85,2.17 Z M10.4496911,6.16571447 L10.4857528,6.18234062 L12.7639286,7.8476383 C12.7790335,7.85867966 12.7925143,7.87178596 12.8039768,7.88657386 C12.8581124,7.95641514 12.858754,8.05078592 12.8121468,8.12038739 L12.7684298,8.16717395 L10.4880034,9.93478678 C10.4704724,9.9483755 10.448921,9.95575001 10.4267401,9.95575001 C10.3853188,9.95575001 10.3497795,9.93056603 10.3345986,9.89467452 L10.3267401,9.85575001 L10.3259524,8.70190173 L5.66995244,8.70190173 L5.67071431,9.85575001 C5.67071431,9.91097849 5.62594278,9.95575001 5.57071431,9.95575001 C5.54853344,9.95575001 5.52698206,9.9483755 5.50945103,9.93478678 L3.22902467,8.16717395 C3.14172306,8.0995044 3.12580814,7.97387546 3.1934777,7.88657386 C3.20494015,7.87178596 3.21842097,7.85867966 3.23352588,7.8476383 L5.51170163,6.18234062 C5.55628817,6.14974882 5.61885357,6.15947247 5.65144537,6.20405901 C5.66396605,6.22118767 5.67071431,6.24185475 5.67071431,6.26307168 L5.66995244,7.41790173 L10.3259524,7.41790173 L10.3267401,6.26307168 C10.3267401,6.25246322 10.3284272,6.24199221 10.3316794,6.23203224 L10.3460091,6.20405901 C10.3704529,6.17061911 10.4117569,6.15678958 10.4496911,6.16571447 Z" id="形状结合" fill="#000000" fill-rule="nonzero"></path>
            </g>
        </g>
    </g>
</svg>