<?xml version="1.0" encoding="UTF-8"?>
<svg width="16px" height="16px" viewBox="0 0 16 16" version="1.1" xmlns="http://www.w3.org/2000/svg" xmlns:xlink="http://www.w3.org/1999/xlink">
    <title>p-crown</title>
    <g id="页面-1" stroke="none" stroke-width="1" fill="none" fill-rule="evenodd">
        <g id="画板" transform="translate(-166.000000, -599.000000)" fill="#000000" fill-rule="nonzero">
            <g id="p-crown" transform="translate(166.000000, 599.000000)">
                <rect id="矩形" opacity="0" x="0" y="0" width="16" height="16"></rect>
                <path d="M14.7836743,3.83954881 L11.377899,5.96102283 L8.11213507,1.55706217 C8.05613054,1.48097928 7.94412149,1.48097928 7.88636682,1.55706217 L4.62235301,5.96102283 L1.21482759,3.83954881 C1.11506953,3.77762088 0.985559059,3.86078124 1.00131033,3.979329 L2.3384184,14.2522883 C2.35766996,14.3920685 2.47667958,14.5 2.61844104,14.5 L13.3835611,14.5 C13.5235725,14.5 13.6443322,14.3938378 13.6618336,14.2522883 L14.9989417,3.979329 C15.0129428,3.86078124 14.8851825,3.77762088 14.7836743,3.83954881 Z M12.5784961,13.2897513 L3.42000582,13.2897513 L2.47842972,6.04595257 L4.92512748,7.5693797 L8.00012602,3.42197761 L11.0751246,7.5693797 L13.5218223,6.04595257 L12.5784961,13.2897513 Z M8.00012602,7.95333288 C6.91328817,7.95333288 6.02946674,8.84686447 6.02946674,9.94564293 C6.02946674,11.0444214 6.91328817,11.937953 8.00012602,11.937953 C9.08696386,11.937953 9.9707853,11.0444214 9.9707853,9.94564293 C9.9707853,8.84686447 9.08696386,7.95333288 8.00012602,7.95333288 Z M8.00012602,10.8002484 C7.53458839,10.8002484 7.15655783,10.4180646 7.15655783,9.94564293 C7.15655783,9.47499064 7.53458839,9.09103746 8.00012602,9.09103746 C8.46566364,9.09103746 8.8436942,9.47322127 8.8436942,9.94564293 C8.8436942,10.4162952 8.46566364,10.8002484 8.00012602,10.8002484 Z" id="形状"></path>
            </g>
        </g>
    </g>
</svg>