<?xml version="1.0" encoding="UTF-8"?>
<svg width="16px" height="16px" viewBox="0 0 16 16" version="1.1" xmlns="http://www.w3.org/2000/svg" xmlns:xlink="http://www.w3.org/1999/xlink">
    <title>p-customerservice</title>
    <g id="页面-1" stroke="none" stroke-width="1" fill="none" fill-rule="evenodd">
        <g id="画板" transform="translate(-141.000000, -599.000000)" fill="#000000" fill-rule="nonzero">
            <g id="p-customerservice" transform="translate(141.000000, 599.000000)">
                <rect id="矩形" opacity="0" x="0" y="0" width="16" height="16"></rect>
                <path d="M8,1 C4.13359375,1 1,4.13359375 1,8 L1,14.5625 C1,14.8049479 1.19505208,15 1.4375,15 L4.79166667,15 C5.43515625,15 5.95833333,14.4768229 5.95833333,13.8333333 L5.95833333,10.0416667 C5.95833333,9.39817708 5.43515625,8.875 4.79166667,8.875 L2.3125,8.875 L2.3125,8 C2.3125,4.85911458 4.85911458,2.3125 8,2.3125 C11.1408854,2.3125 13.6875,4.85911458 13.6875,8 L13.6875,8.875 L11.2083333,8.875 C10.5648437,8.875 10.0416667,9.39817708 10.0416667,10.0416667 L10.0416667,13.8333333 C10.0416667,14.4768229 10.5648437,15 11.2083333,15 L14.5625,15 C14.8049479,15 15,14.8049479 15,14.5625 L15,8 C15,4.13359375 11.8664063,1 8,1 Z M4.64583333,10.1875 L4.64583333,13.6875 L2.3125,13.6875 L2.3125,10.1875 L4.64583333,10.1875 Z M13.6875,13.6875 L11.3541667,13.6875 L11.3541667,10.1875 L13.6875,10.1875 L13.6875,13.6875 Z" id="形状"></path>
            </g>
        </g>
    </g>
</svg>