<?xml version="1.0" encoding="UTF-8"?>
<svg width="16px" height="16px" viewBox="0 0 16 16" version="1.1" xmlns="http://www.w3.org/2000/svg" xmlns:xlink="http://www.w3.org/1999/xlink">
    <title>p-delete</title>
    <g id="页面-1" stroke="none" stroke-width="1" fill="none" fill-rule="evenodd">
        <g id="画板" transform="translate(-310.000000, -671.000000)" fill="#000000" fill-rule="nonzero">
            <g id="p-delete" transform="translate(310.000000, 671.000000)">
                <rect id="矩形" opacity="0" x="0" y="0" width="16" height="16"></rect>
                <path d="M5.34,2.26 L10.66,2.26 L10.66,3.52 L11.92,3.52 L11.92,2.12 C11.92,1.50225 11.41775,1 10.8,1 L5.2,1 C4.58225,1 4.08,1.50225 4.08,2.12 L4.08,3.52 L5.34,3.52 L5.34,2.26 Z M14.16,3.52 L1.84,3.52 C1.53025,3.52 1.28,3.77025 1.28,4.08 L1.28,4.64 C1.28,4.717 1.343,4.78 1.42,4.78 L2.477,4.78 L2.90925,13.9325 C2.93725,14.52925 3.43075,15 4.0275,15 L11.9725,15 C12.571,15 13.06275,14.531 13.09075,13.9325 L13.523,4.78 L14.58,4.78 C14.657,4.78 14.72,4.717 14.72,4.64 L14.72,4.08 C14.72,3.77025 14.46975,3.52 14.16,3.52 Z M11.83775,13.74 L4.16225,13.74 L3.73875,4.78 L12.26125,4.78 L11.83775,13.74 Z" id="形状"></path>
            </g>
        </g>
    </g>
</svg>