<?xml version="1.0" encoding="UTF-8"?>
<svg width="16px" height="16px" viewBox="0 0 16 16" version="1.1" xmlns="http://www.w3.org/2000/svg" xmlns:xlink="http://www.w3.org/1999/xlink">
    <title>p-delete-team</title>
    <g id="页面-1" stroke="none" stroke-width="1" fill="none" fill-rule="evenodd">
        <g id="画板" transform="translate(-334.000000, -671.000000)" fill="#000000" fill-rule="nonzero">
            <g id="p-delete-team" transform="translate(334.000000, 671.000000)">
                <rect id="矩形" opacity="0" x="0" y="0" width="16" height="16"></rect>
                <path d="M14.6097105,12.7600657 L10.6898255,12.7600657 C10.6128277,12.7600657 10.5498296,12.8230638 10.5498296,12.9000616 L10.5498296,13.740037 C10.5498296,13.8170347 10.6128277,13.8800328 10.6898255,13.8800328 L14.6097105,13.8800328 C14.6867082,13.8800328 14.7497064,13.8170347 14.7497064,13.740037 L14.7497064,12.9000616 C14.7497064,12.8230638 14.6867082,12.7600657 14.6097105,12.7600657 Z M5.60622456,7.97220612 C5.59047502,7.81996059 5.58172527,7.6659651 5.58172527,7.51021967 C5.58172527,7.23197783 5.6079745,6.96073579 5.65697307,6.69649354 C5.66922271,6.63349539 5.63597368,6.56874729 5.57822538,6.54249806 C5.34023236,6.43575119 5.12148877,6.2887555 4.93249432,6.10326094 C4.48100756,5.66227387 4.23776469,5.06554137 4.25526418,4.4338099 C4.27101372,3.87207638 4.4967571,3.33834203 4.89049555,2.93585384 C5.32273287,2.49311682 5.90371583,2.25162391 6.52144771,2.2586237 C7.07968134,2.26387355 7.61866553,2.47911723 8.02640357,2.86060604 C8.16464952,2.99010225 8.28364603,3.13359804 8.3833931,3.28759352 C8.41839208,3.34184193 8.48664007,3.36459126 8.54613833,3.34359188 C8.8541293,3.23684501 9.17961975,3.16159722 9.51385995,3.12659824 C9.61185707,3.11609855 9.66785543,3.01110163 9.62410671,2.9236042 C9.05537339,1.7983872 7.89340747,1.02140999 6.54944689,1.0004106 C4.60875381,0.970661476 2.99180124,2.56136482 2.99180124,4.498558 C2.99180124,5.59752577 3.4975364,6.57749703 4.29026315,7.21972819 C3.73377947,7.47697065 3.22104451,7.83221023 2.77655755,8.27669719 C1.81758568,9.23391912 1.27510159,10.4973821 1.24003284,11.8465925 C1.23835266,11.9253402 1.30135082,11.9900883 1.38009851,11.9900883 L2.36181971,11.9900883 C2.43706751,11.9900883 2.50006566,11.93059 2.50181561,11.8553422 C2.53506463,10.840372 2.94630257,9.89014987 3.66903137,9.16917102 C4.18351628,8.65468611 4.81349781,8.29769658 5.50122764,8.12445166 C5.56947563,8.10695217 5.6149743,8.04220407 5.60622456,7.97220612 L5.60622456,7.97220612 Z M13.4897433,7.51021967 C13.4897433,5.59577582 11.9515384,4.04007145 10.0440944,4.01032232 C8.10515126,3.9805732 6.48994864,5.57127654 6.48994864,7.51021967 C6.48994864,8.60918744 6.99743375,9.5891587 7.78841055,10.2313899 C7.23367682,10.4886323 6.72269181,10.8421219 6.2764549,11.2883589 C5.31748302,12.2455808 4.77499894,13.5090437 4.73993019,14.8565042 C4.73825001,14.9352519 4.80124817,15 4.87999586,15 L5.85996711,15 C5.93521491,15 5.99821306,14.9405017 5.99996301,14.865254 C6.03321203,13.8502837 6.44444997,12.9000616 7.16717877,12.1790827 C7.92140665,11.4248549 8.92237729,11.010117 9.98984599,11.010117 C11.9217893,11.010117 13.4897433,9.44391296 13.4897433,7.51021967 Z M11.5735495,9.09392322 C11.150062,9.5174108 10.5883284,9.75015398 9.98984599,9.75015398 C9.39136354,9.75015398 8.82963001,9.5174108 8.40614244,9.09392322 C7.97740501,8.6651858 7.74466184,8.09470253 7.74991168,7.48747034 C7.75516153,6.91348717 7.9844048,6.35875344 8.38514305,5.94751551 C8.80513073,5.51702813 9.36686426,5.27728516 9.96709665,5.27028537 C10.5603293,5.26503552 11.1360624,5.49602875 11.5595499,5.91076658 C11.9935372,6.33600411 12.2315302,6.90473743 12.2315302,7.51021967 C12.2297803,8.10870212 11.9970371,8.67043564 11.5735495,9.09392322 L11.5735495,9.09392322 Z" id="形状"></path>
            </g>
        </g>
    </g>
</svg>