<?xml version="1.0" encoding="UTF-8"?>
<svg width="16px" height="16px" viewBox="0 0 16 16" version="1.1" xmlns="http://www.w3.org/2000/svg" xmlns:xlink="http://www.w3.org/1999/xlink">
    <title>p-delete-user</title>
    <g id="页面-1" stroke="none" stroke-width="1" fill="none" fill-rule="evenodd">
        <g id="画板" transform="translate(-145.000000, -671.000000)" fill="#000000" fill-rule="nonzero">
            <g id="p-delete-user" transform="translate(145.000000, 671.000000)">
                <rect id="矩形" opacity="0" x="0" y="0" width="16" height="16"></rect>
                <path d="M10.9181199,10.5221106 C11.339173,10.2934673 11.8211222,10.1633166 12.3343894,10.1633166 L12.3361293,10.1633166 C12.3883259,10.1633166 12.4126844,10.1 12.3744068,10.0648241 C11.8385211,9.57939698 11.2330398,9.19070352 10.5701422,8.90753769 C10.5631826,8.9040201 10.5562231,8.90226131 10.5492635,8.89874372 C11.6297344,8.10552764 12.3326495,6.81633166 12.3326495,5.36180905 C12.3326495,2.95226131 10.4048527,1 8.02642479,1 C5.64799684,1 3.72193998,2.95226131 3.72193998,5.36180905 C3.72193998,6.81633166 4.42485504,8.10552764 5.50706585,8.89874372 C5.5001063,8.90226131 5.49314674,8.9040201 5.48618719,8.90753769 C4.70845691,9.23994975 4.01076151,9.71658291 3.41049989,10.3251256 C2.81023826,10.9319095 2.3404683,11.6389447 2.01162932,12.4268844 C1.6897499,13.1972362 1.51750091,14.0150754 1.50003265,14.8557789 C1.49836213,14.9349246 1.56099813,15 1.63929312,15 L2.6814865,15 C2.75630171,15 2.81893771,14.9384422 2.8206776,14.8628141 C2.85547537,13.5050251 3.393101,12.2334171 4.34482016,11.269598 C5.32785731,10.2723618 6.63625366,9.72361809 8.02816468,9.72361809 C9.01468161,9.72361809 9.9611811,9.99974874 10.7771889,10.5168342 C10.8206862,10.5432161 10.8728828,10.5467337 10.9181199,10.5221106 L10.9181199,10.5221106 Z M8.02816468,8.38693467 C7.23129562,8.38693467 6.48140356,8.07211055 5.91593971,7.50050251 C5.35221575,6.92889447 5.04077566,6.16909548 5.04077566,5.36180905 C5.04077566,4.55452261 5.35221575,3.79472362 5.91593971,3.22311558 C6.47966368,2.65150754 7.22955573,2.33668342 8.02816468,2.33668342 C8.82677362,2.33668342 9.57492579,2.65150754 10.1403896,3.22311558 C10.7041136,3.79472362 11.0155537,4.55452261 11.0155537,5.36180905 C11.0155537,6.16909548 10.7041136,6.92889447 10.1403896,7.50050251 C9.57492579,8.07211055 8.82503373,8.38693467 8.02816468,8.38693467 Z M14.4274756,12.5728643 L10.2517425,12.5728643 C10.1751874,12.5728643 10.1125514,12.6361809 10.1125514,12.7135678 L10.1125514,13.6984925 C10.1125514,13.7758794 10.1751874,13.839196 10.2517425,13.839196 L14.4274756,13.839196 C14.5040307,13.839196 14.5666667,13.7758794 14.5666667,13.6984925 L14.5666667,12.7135678 C14.5666667,12.6361809 14.5040307,12.5728643 14.4274756,12.5728643 Z" id="形状"></path>
            </g>
        </g>
    </g>
</svg>