<?xml version="1.0" encoding="UTF-8"?>
<svg width="16px" height="16px" viewBox="0 0 16 16" version="1.1" xmlns="http://www.w3.org/2000/svg" xmlns:xlink="http://www.w3.org/1999/xlink">
    <title>p-desktop</title>
    <g id="页面-1" stroke="none" stroke-width="1" fill="none" fill-rule="evenodd">
        <g id="画板" transform="translate(-286.000000, -671.000000)" fill="#000000" fill-rule="nonzero">
            <g id="p-desktop" transform="translate(286.000000, 671.000000)">
                <rect id="矩形" opacity="0" x="0" y="0" width="16" height="16"></rect>
                <path d="M14.3814867,2.7 C14.692403,2.7 14.949185,2.92851685 14.993303,3.22702099 L15,3.31851332 L15,10.927209 C15,11.2381253 14.7714832,11.4949073 14.472979,11.5390253 L14.3814867,11.5457223 L8.67938289,11.5452314 L8.67938289,13.0080645 L11.1907433,13.0085554 C11.344854,13.0085554 11.4776514,13.1028251 11.5344182,13.2366472 L11.5562124,13.306601 L11.5638149,13.3816269 L11.5638149,14.1179523 C11.5638149,14.2362247 11.4812601,14.3356755 11.3707791,14.3616763 L11.3134642,14.3683029 L4.68653576,14.3683029 C4.56826338,14.3683029 4.46881258,14.2857482 4.44281179,14.1752671 L4.43618513,14.1179523 L4.43618513,13.3816269 C4.43618513,13.2018311 4.56449668,13.0510451 4.73423074,13.0161579 L4.80925666,13.0085554 L7.31963534,13.0080645 L7.31963534,11.5452314 L1.61851332,11.5457223 C1.34214327,11.5457223 1.10854603,11.3651658 1.02906198,11.1153931 L1.00669698,11.0187013 L1,10.927209 L1,3.31851332 C1,3.00759701 1.22851685,2.75081505 1.52702099,2.70669698 L1.61851332,2.7 L14.3814867,2.7 Z M13.7678822,3.93211781 L2.23211781,3.93211781 L2.23211781,10.3136045 L13.7678822,10.3136045 L13.7678822,3.93211781 Z" id="形状结合"></path>
            </g>
        </g>
    </g>
</svg>