<?xml version="1.0" encoding="UTF-8"?>
<svg width="16px" height="16px" viewBox="0 0 16 16" version="1.1" xmlns="http://www.w3.org/2000/svg" xmlns:xlink="http://www.w3.org/1999/xlink">
    <title>p-diff</title>
    <g id="页面-1" stroke="none" stroke-width="1" fill="none" fill-rule="evenodd">
        <g id="画板" transform="translate(-260.000000, -671.000000)" fill="#000000" fill-rule="nonzero">
            <g id="p-diff" transform="translate(260.000000, 671.000000)">
                <rect id="矩形" opacity="0" x="0" y="0" width="16" height="16"></rect>
                <path d="M7.4325,6.2359375 C7.4325,6.175 7.3840625,6.125 7.323125,6.125 L6.666875,6.125 C6.6075,6.125 6.5575,6.175 6.5575,6.2359375 L6.5575,7.5625 L5.2371875,7.5625 C5.173125,7.5625 5.12,7.6109375 5.12,7.671875 L5.12,8.328125 C5.12,8.3875 5.173125,8.4375 5.2371875,8.4375 L6.5575,8.4375 L6.5575,9.7640625 C6.5575,9.825 6.6075,9.875 6.666875,9.875 L7.323125,9.875 C7.3840625,9.875 7.4325,9.825 7.4325,9.7640625 L7.4325,8.4375 L8.7528125,8.4375 C8.816875,8.4375 8.87,8.3875 8.87,8.328125 L8.87,7.671875 C8.87,7.6109375 8.816875,7.5625 8.7528125,7.5625 L7.4325,7.5625 L7.4325,6.2359375 Z M8.7528125,11 L5.2371875,11 C5.173125,11 5.12,11.05 5.12,11.109375 L5.12,11.765625 C5.12,11.825 5.173125,11.875 5.2371875,11.875 L8.7528125,11.875 C8.816875,11.875 8.87,11.825 8.87,11.765625 L8.87,11.109375 C8.87,11.05 8.816875,11 8.7528125,11 Z M9.146875,3.146875 C9.053125,3.053125 8.9265625,3 8.79375,3 L2.5,3 C2.2234375,3 2,3.2234375 2,3.5 L2,14.5 C2,14.7765625 2.2234375,15 2.5,15 L11.5,15 C11.7765625,15 12,14.7765625 12,14.5 L12,6.2078125 C12,6.075 11.946875,5.9484375 11.853125,5.8546875 L9.146875,3.146875 Z M10.875,13.875 L3.125,13.875 L3.125,4.125 L8.534375,4.125 L10.875,6.465625 L10.875,13.875 Z M13.846875,4.790625 L10.0515625,1.1390625 C9.9578125,1.05 9.834375,1 9.7046875,1 L4.125,1 C4.05625,1 4,1.05625 4,1.125 L4,2 C4,2.06875 4.05625,2.125 4.125,2.125 L9.453125,2.125 L12.875,5.415625 L12.875,12.875 C12.875,12.94375 12.93125,13 13,13 L13.875,13 C13.94375,13 14,12.94375 14,12.875 L14,5.15 C14,5.0140625 13.9453125,4.884375 13.846875,4.790625 Z" id="形状"></path>
            </g>
        </g>
    </g>
</svg>