<?xml version="1.0" encoding="UTF-8"?>
<svg width="16px" height="16px" viewBox="0 0 16 16" version="1.1" xmlns="http://www.w3.org/2000/svg" xmlns:xlink="http://www.w3.org/1999/xlink">
    <title>p-disconnect</title>
    <g id="页面-1" stroke="none" stroke-width="1" fill="none" fill-rule="evenodd">
        <g id="画板" transform="translate(-203.000000, -671.000000)" fill="#000000" fill-rule="nonzero">
            <g id="p-disconnect" transform="translate(203.000000, 671.000000)">
                <rect id="矩形" opacity="0" x="0" y="0" width="16" height="16"></rect>
                <path d="M13.4270868,2.57407587 C11.9951255,1.14197471 9.67792094,1.14197471 8.24765225,2.57407587 L6.60749797,4.21439033 L7.47073706,5.07771373 L9.11089134,3.43739927 C10.021524,2.52667773 11.5584281,2.43018864 12.5638477,3.43739927 C13.57096,4.4446099 13.4744803,5.97997132 12.5638477,6.89069287 L10.9236934,8.53100732 L11.7886252,9.39602351 L13.4287794,7.75570906 C14.8573555,6.32360789 14.8573555,4.00617704 13.4270868,2.57407587 Z M6.89185908,12.5649282 C5.98122647,13.4756498 4.44432236,13.5721389 3.43890271,12.5649282 C2.43179043,11.5577176 2.5282701,10.0223562 3.43890271,9.11163463 L5.07905699,7.47132017 L4.21412527,6.60630398 L2.57397099,8.24661844 C1.14200967,9.67871961 1.14200967,11.9961505 2.57397099,13.4265588 C4.00593231,14.8569672 6.32313686,14.85866 7.75340555,13.4265588 L9.39355983,11.7862444 L8.53032073,10.922921 L6.89185908,12.5649282 L6.89185908,12.5649282 Z M3.74019008,2.87877825 C3.68771868,2.82630173 3.60139477,2.82630173 3.54892338,2.87877825 L2.87864361,3.54912348 C2.82617222,3.6016 2.82617222,3.68793234 2.87864361,3.74040886 L12.2625603,13.125242 C12.3150317,13.1777186 12.4013556,13.1777186 12.453827,13.125242 L13.1241068,12.4548968 C13.1765782,12.4024203 13.1765782,12.3160879 13.1241068,12.2636114 L3.74019008,2.87877825 Z" id="形状"></path>
            </g>
        </g>
    </g>
</svg>