<?xml version="1.0" encoding="UTF-8"?>
<svg width="16px" height="16px" viewBox="0 0 16 16" version="1.1" xmlns="http://www.w3.org/2000/svg" xmlns:xlink="http://www.w3.org/1999/xlink">
    <title>p-dollar</title>
    <g id="页面-1" stroke="none" stroke-width="1" fill="none" fill-rule="evenodd">
        <g id="画板" transform="translate(-231.000000, -671.000000)" fill="#000000" fill-rule="nonzero">
            <g id="p-dollar" transform="translate(231.000000, 671.000000)">
                <rect id="矩形" opacity="0" x="0" y="0" width="16" height="16"></rect>
                <path d="M8,1 C4.134375,1 1,4.134375 1,8 C1,11.865625 4.134375,15 8,15 C11.865625,15 15,11.865625 15,8 C15,4.134375 11.865625,1 8,1 Z M8,13.8125 C4.790625,13.8125 2.1875,11.209375 2.1875,8 C2.1875,4.790625 4.790625,2.1875 8,2.1875 C11.209375,2.1875 13.8125,4.790625 13.8125,8 C13.8125,11.209375 11.209375,13.8125 8,13.8125 Z M8.7453125,7.6375 L8.3484375,7.5453125 L8.3484375,5.446875 C8.9421875,5.528125 9.309375,5.9 9.371875,6.35625 C9.3796875,6.41875 9.4328125,6.4640625 9.4953125,6.4640625 L10.196875,6.4640625 C10.2703125,6.4640625 10.328125,6.4 10.321875,6.3265625 C10.2265625,5.353125 9.425,4.728125 8.3546875,4.6203125 L8.3546875,4.109375 C8.3546875,4.040625 8.2984375,3.984375 8.2296875,3.984375 L7.790625,3.984375 C7.721875,3.984375 7.665625,4.040625 7.665625,4.109375 L7.665625,4.625 C6.559375,4.7328125 5.69375,5.34375 5.69375,6.484375 C5.69375,7.540625 6.471875,8.05 7.2890625,8.2453125 L7.675,8.34375 L7.675,10.5734375 C6.984375,10.48125 6.596875,10.1125 6.5171875,9.615625 C6.5078125,9.55625 6.4546875,9.5125 6.39375,9.5125 L5.671875,9.5125 C5.5984375,9.5125 5.540625,9.575 5.546875,9.6484375 C5.6171875,10.5078125 6.26875,11.2984375 7.659375,11.4 L7.659375,11.890625 C7.659375,11.959375 7.715625,12.015625 7.784375,12.015625 L8.228125,12.015625 C8.296875,12.015625 8.353125,11.959375 8.353125,11.8890625 L8.35,11.39375 C9.5734375,11.2859375 10.4484375,10.63125 10.4484375,9.45625 C10.446875,8.371875 9.7578125,7.8875 8.7453125,7.6375 Z M7.6734375,7.384375 C7.5859375,7.359375 7.5125,7.3359375 7.4390625,7.30625 C6.9109375,7.115625 6.665625,6.8078125 6.665625,6.4109375 C6.665625,5.84375 7.0953125,5.5203125 7.6734375,5.446875 L7.6734375,7.384375 Z M8.3484375,10.578125 L8.3484375,8.4890625 C8.396875,8.503125 8.440625,8.5140625 8.4859375,8.5234375 C9.225,8.7484375 9.4734375,9.0609375 9.4734375,9.540625 C9.4734375,10.1515625 9.0140625,10.51875 8.3484375,10.578125 Z" id="形状"></path>
            </g>
        </g>
    </g>
</svg>