<?xml version="1.0" encoding="UTF-8"?>
<svg width="16px" height="16px" viewBox="0 0 16 16" version="1.1" xmlns="http://www.w3.org/2000/svg" xmlns:xlink="http://www.w3.org/1999/xlink">
    <title>p-download</title>
    <g id="页面-1" stroke="none" stroke-width="1" fill="none" fill-rule="evenodd">
        <g id="画板" transform="translate(-371.000000, -1600.000000)">
            <g id="p-download" transform="translate(371.000000, 1600.000000)">
                <rect id="矩形" fill="#D8D8D8" opacity="0" x="0" y="0" width="16" height="16"></rect>
                <path d="M2.18215142,10.2393864 C2.24842559,10.2393735 2.30215142,10.2930993 2.30215142,10.3593735 L2.30182779,13.2525668 L13.6976561,13.2525668 L13.6978409,10.3593864 C13.6978528,10.2931152 13.7515774,10.239394 13.8178486,10.2393864 L14.88,10.2393864 C14.9462742,10.2393864 15,10.2931122 15,10.3593864 L15,14.1554879 C15,14.3764018 14.8209139,14.5554879 14.6,14.5554879 L1.4,14.5554879 C1.1790861,14.5554879 1,14.3764018 1,14.1554879 L1,10.3593864 C1,10.2931122 1.05372583,10.2393864 1.12,10.2393864 L2.18215142,10.2393864 Z M7.46892521,1.43999984 L8.53107479,1.44197826 C8.59734885,1.44210171 8.65097451,1.49592752 8.65085106,1.56220157 L8.638,7.93999963 L10.1027855,7.94079068 C10.1249975,7.94079068 10.146788,7.9457208 10.166644,7.95506253 L10.1947881,7.97231902 C10.2602181,8.02313062 10.2720688,8.11736313 10.2212572,8.18279322 L10.2212572,8.18279322 L8.17697449,10.8152159 C8.16468137,10.8310457 8.15045375,10.8452733 8.1346239,10.8575664 C8.02993575,10.938865 7.87916374,10.919904 7.79786519,10.8152159 L7.79786519,10.8152159 L5.7535825,8.18279322 C5.73314693,8.15647833 5.72205416,8.12410864 5.72205416,8.09079068 C5.72205416,8.00794797 5.78921145,7.94079068 5.87205416,7.94079068 L5.87205416,7.94079068 L7.336,7.93999963 L7.3487019,1.55977612 C7.34882535,1.49350206 7.40265115,1.4398764 7.46892521,1.43999984 Z" id="形状结合" fill="#000000" fill-rule="nonzero"></path>
            </g>
        </g>
    </g>
</svg>