<?xml version="1.0" encoding="UTF-8"?>
<svg width="17px" height="16px" viewBox="0 0 17 16" version="1.1" xmlns="http://www.w3.org/2000/svg" xmlns:xlink="http://www.w3.org/1999/xlink">
    <title>p-double-right</title>
    <g id="页面-1" stroke="none" stroke-width="1" fill="none" fill-rule="evenodd">
        <g id="画板" transform="translate(-343.000000, -1600.000000)">
            <g id="p-double-right" transform="translate(343.355556, 1600.000000)">
                <rect id="矩形" fill="#D8D8D8" opacity="0" x="0" y="0" width="16" height="16"></rect>
                <path d="M8.37308332,1 C8.4283118,1 8.47308332,1.04477153 8.47308332,1.1 C8.47308332,1.122706 8.46535603,1.144736 8.4511723,1.16246688 L3.05754694,7.9049635 L8.43857753,14.8386902 C8.47243798,14.8823211 8.46451748,14.9451403 8.42088659,14.9790007 C8.40334763,14.9926121 8.38177784,15 8.35957682,15 L6.93272759,15 C6.90183759,15 6.87268141,14.9857243 6.85373828,14.9613245 L1.41485716,7.95574331 C1.38651492,7.91923694 1.38688188,7.86806408 1.41574473,7.83196792 L6.84863048,1.03754907 C6.86760727,1.01381652 6.8963455,1 6.92673222,1 L8.37308332,1 Z M14.5044702,1 C14.5596987,1 14.6044702,1.04477153 14.6044702,1.1 C14.6044702,1.122706 14.5967429,1.144736 14.5825592,1.16246688 L9.1889338,7.9049635 L14.5699644,14.8386902 C14.6038248,14.8823211 14.5959043,14.9451403 14.5522735,14.9790007 C14.5347345,14.9926121 14.5131647,15 14.4909637,15 L13.0641145,15 C13.0332245,15 13.0040683,14.9857243 12.9851251,14.9613245 L7.54624402,7.95574331 C7.51790178,7.91923694 7.51826874,7.86806408 7.54713159,7.83196792 L12.9800173,1.03754907 C12.9989941,1.01381652 13.0277324,1 13.0581191,1 L14.5044702,1 Z" id="形状结合" fill="#000000" fill-rule="nonzero" transform="translate(7.998274, 8.000000) scale(-1, 1) translate(-7.998274, -8.000000) "></path>
            </g>
        </g>
    </g>
</svg>