<?xml version="1.0" encoding="UTF-8"?>
<svg width="16px" height="16px" viewBox="0 0 16 16" version="1.1" xmlns="http://www.w3.org/2000/svg" xmlns:xlink="http://www.w3.org/1999/xlink">
    <title>p-down-circle</title>
    <g id="页面-1" stroke="none" stroke-width="1" fill="none" fill-rule="evenodd">
        <g id="画板" transform="translate(-487.000000, -436.000000)" fill="#000000" fill-rule="nonzero">
            <g id="p-down-circle" transform="translate(487.000000, 436.000000)">
                <rect id="矩形" opacity="0" x="0" y="0" width="16" height="16"></rect>
                <path d="M10.78125,6.328125 L10.0484375,6.328125 C9.8890625,6.328125 9.7375,6.4046875 9.64375,6.534375 L8,8.80625 L6.35625,6.534375 C6.2625,6.4046875 6.1125,6.328125 5.9515625,6.328125 L5.21875,6.328125 C5.1171875,6.328125 5.0578125,6.44375 5.1171875,6.5265625 L7.8984375,10.3703125 C7.9484375,10.4390625 8.05,10.4390625 8.1,10.3703125 L10.88125,6.5265625 C10.9421875,6.44375 10.8828125,6.328125 10.78125,6.328125 Z" id="路径"></path>
                <path d="M8,1 C4.134375,1 1,4.134375 1,8 C1,11.865625 4.134375,15 8,15 C11.865625,15 15,11.865625 15,8 C15,4.134375 11.865625,1 8,1 Z M8,13.8125 C4.790625,13.8125 2.1875,11.209375 2.1875,8 C2.1875,4.790625 4.790625,2.1875 8,2.1875 C11.209375,2.1875 13.8125,4.790625 13.8125,8 C13.8125,11.209375 11.209375,13.8125 8,13.8125 Z" id="形状"></path>
            </g>
        </g>
    </g>
</svg>