<?xml version="1.0" encoding="UTF-8"?>
<svg width="16px" height="16px" viewBox="0 0 16 16" version="1.1" xmlns="http://www.w3.org/2000/svg" xmlns:xlink="http://www.w3.org/1999/xlink">
    <title>p-down</title>
    <g id="页面-1" stroke="none" stroke-width="1" fill="none" fill-rule="evenodd">
        <g id="画板" transform="translate(-429.000000, -436.000000)" fill="#000000" fill-rule="nonzero">
            <g id="p-down" transform="translate(429.000000, 436.000000)">
                <rect id="矩形备份-29" opacity="0" x="0" y="0" width="16" height="16"></rect>
                <path d="M14.7699264,3.71738363 L8.47591444,12.3998946 L8.47591444,12.3998946 C8.25771172,12.6944682 7.82948889,12.7190161 7.57628282,12.473538 L7.51185516,12.3998946 L1.2295378,3.71723924 C1.16478835,3.62775043 1.18484357,3.50271562 1.27433238,3.43796617 C1.3084419,3.4132863 1.3494699,3.4 1.39157162,3.4 L2.81902428,3.4 C2.88309304,3.4 2.94328371,3.43069436 2.98090727,3.48255258 L7.99983578,10.4003642 L7.99983578,10.4003642 L13.2742144,3.47877986 C13.3120433,3.42913697 13.3708786,3.4 13.433292,3.4 L14.6079972,3.4 C14.7184541,3.4 14.8079972,3.48954305 14.8079972,3.6 C14.8079972,3.64216264 14.7946724,3.68324681 14.7699264,3.71738363 Z" id="路径"></path>
            </g>
        </g>
    </g>
</svg>