<?xml version="1.0" encoding="UTF-8"?>
<svg width="16px" height="16px" viewBox="0 0 16 16" version="1.1" xmlns="http://www.w3.org/2000/svg" xmlns:xlink="http://www.w3.org/1999/xlink">
    <title>p-drag</title>
    <g id="页面-1" stroke="none" stroke-width="1" fill="none" fill-rule="evenodd">
        <g id="画板" transform="translate(-399.000000, -1600.000000)">
            <g id="p-drag" transform="translate(399.000000, 1600.000000)">
                <rect id="矩形" fill="#D8D8D8" opacity="0" x="0" y="0" width="16" height="16"></rect>
                <path d="M8.08770202,1.03249188 C8.09559521,1.0388358 8.1027768,1.04601739 8.10912072,1.05391058 L9.86823742,3.24262824 C9.9201352,3.30720018 9.90986076,3.40161754 9.84528882,3.45351532 C9.81864929,3.47492604 9.78549681,3.48659748 9.75131958,3.48659748 L8.6405308,3.486 L8.635,7.358 L12.514,7.3635308 L12.5134025,6.24867522 C12.5134025,6.1658325 12.5805598,6.09867522 12.6634025,6.09867522 C12.6975798,6.09867522 12.7307322,6.11034665 12.7573718,6.13175737 L14.9460894,7.89087408 C15.0063566,7.939312 15.015946,8.02743487 14.9675081,8.08770202 C14.9611642,8.09559521 14.9539826,8.1027768 14.9460894,8.10912072 L12.7573718,9.86823742 C12.6927998,9.9201352 12.5983825,9.90986076 12.5464847,9.84528882 C12.525074,9.81864929 12.5134025,9.78549681 12.5134025,9.75131958 L12.514,8.6405308 L8.634,8.635 L8.6295308,12.513 L9.75131958,12.5134025 C9.7741044,12.5134025 9.79643378,12.5185898 9.81668157,12.5283919 L9.84528882,12.5464847 C9.89694637,12.5880029 9.91385352,12.6567337 9.89197842,12.7156261 L9.86823742,12.7573718 L8.10912072,14.9460894 C8.1027768,14.9539826 8.09559521,14.9611642 8.08770202,14.9675081 C8.0394883,15.0062585 7.97344692,15.0078713 7.9241587,14.9761096 L7.89087408,14.9460894 L6.13175737,12.7573718 C6.11034665,12.7307322 6.09867522,12.6975798 6.09867522,12.6634025 C6.09867522,12.5971284 6.14165588,12.5408929 6.20126361,12.5210496 L6.24867522,12.5134025 L7.3525308,12.513 L7.357,8.634 L3.487,8.6295308 L3.48659748,9.75131958 C3.48659748,9.7741044 3.48141017,9.79643378 3.47160805,9.81668157 L3.45351532,9.84528882 C3.4119971,9.89694637 3.34326634,9.91385352 3.28437393,9.89197842 L3.24262824,9.86823742 L1.05391058,8.10912072 C1.04601739,8.1027768 1.0388358,8.09559521 1.03249188,8.08770202 C0.993741542,8.0394883 0.99212874,7.97344692 1.02389041,7.9241587 L1.05391058,7.89087408 L3.24262824,6.13175737 C3.26926776,6.11034665 3.30242024,6.09867522 3.33659748,6.09867522 C3.40287165,6.09867522 3.45910714,6.14165588 3.47895038,6.20126361 L3.48659748,6.24867522 L3.487,7.3525308 L7.358,7.357 L7.3635308,3.486 L6.24867522,3.48659748 C6.1658325,3.48659748 6.09867522,3.41944019 6.09867522,3.33659748 C6.09867522,3.30242024 6.11034665,3.26926776 6.13175737,3.24262824 L7.89087408,1.05391058 C7.939312,0.993643435 8.02743487,0.984053957 8.08770202,1.03249188 Z" id="形状结合" fill="#000000"></path>
            </g>
        </g>
    </g>
</svg>