<?xml version="1.0" encoding="UTF-8"?>
<svg width="16px" height="16px" viewBox="0 0 16 16" version="1.1" xmlns="http://www.w3.org/2000/svg" xmlns:xlink="http://www.w3.org/1999/xlink">
    <title>p-edit-square</title>
    <g id="页面-1" stroke="none" stroke-width="1" fill="none" fill-rule="evenodd">
        <g id="画板" transform="translate(-175.000000, -744.000000)" fill="#000000" fill-rule="nonzero">
            <g id="p-edit-square" transform="translate(175.000000, 744.000000)">
                <rect id="矩形" opacity="0" x="0" y="0" width="16" height="16"></rect>
                <path d="M7.85978563,1 C7.93678323,1 7.99978126,1.063 7.99978126,1.14 L7.99978126,1.14 L7.99978126,2.12 C7.99978126,2.197 7.93678323,2.26 7.85978563,2.26 L7.85978563,2.26 L2.25996063,2.26 L2.25996063,13.74 L13.7396019,13.74 L13.7396019,8.14 C13.7396019,8.063 13.8025999,8 13.8795975,8 L13.8795975,8 L14.8595669,8 C14.9365645,8 14.9995625,8.063 14.9995625,8.14 L14.9995625,8.14 L14.9995625,14.44 C14.9995625,14.74975 14.7493203,15 14.43958,15 L14.43958,15 L1.5599825,15 C1.25024218,15 1,14.74975 1,14.44 L1,14.44 L1,1.56 C1,1.25025 1.25024218,1 1.5599825,1 L1.5599825,1 Z M12.6843849,1 C12.7211337,1 12.7561326,1.01225 12.7841317,1.04025 L12.7841317,1.04025 L14.9593138,3.21375 C15.0135621,3.268 15.0135621,3.35725 14.9593138,3.4115 L14.9593138,3.4115 L7.68129121,10.674 C7.65679198,10.6985 7.62179307,10.7125 7.58679416,10.71425 L7.58679416,10.71425 L5.52185869,10.765 C5.35911378,10.765 5.23311772,10.63725 5.23483201,10.4815 L5.23483201,10.4815 L5.26811662,8.40075 C5.26811662,8.364 5.28386613,8.329 5.30836536,8.30275 L5.30836536,8.30275 L12.584638,1.04025 C12.6126371,1.014 12.647636,1 12.6843849,1 Z M12.6843849,2.5225 L6.3793319,8.81375 L6.36708228,9.62575 L7.16680729,9.6065 L13.4753601,3.31175 L12.6843849,2.5225 Z" id="形状结合"></path>
            </g>
        </g>
    </g>
</svg>