<?xml version="1.0" encoding="UTF-8"?>
<svg width="16px" height="16px" viewBox="0 0 16 16" version="1.1" xmlns="http://www.w3.org/2000/svg" xmlns:xlink="http://www.w3.org/1999/xlink">
    <title>p-edit</title>
    <g id="页面-1" stroke="none" stroke-width="1" fill="none" fill-rule="evenodd">
        <g id="画板" transform="translate(-229.000000, -744.000000)" fill="#000000" fill-rule="nonzero">
            <g id="p-edit" transform="translate(229.000000, 744.000000)">
                <rect id="矩形" opacity="0" x="0" y="0" width="16" height="16"></rect>
                <path d="M3.54975,12.2 C3.58475,12.2 3.61975,12.1965 3.65475,12.19125 L6.59825,11.675 C6.63325,11.668 6.6665,11.65225 6.691,11.626 L14.10925,4.20775 C14.1775,4.1395 14.1775,4.02925 14.10925,3.961 L11.20075,1.05075 C11.1675,1.0175 11.12375,1 11.0765,1 C11.02925,1 10.9855,1.0175 10.95225,1.05075 L3.534,8.469 C3.50775,8.49525 3.492,8.52675 3.485,8.56175 L2.96875,11.50525 C2.9355,11.6995 2.995,11.8885 3.13325,12.02675 C3.24875,12.13875 3.394,12.2 3.54975,12.2 L3.54975,12.2 Z M4.72925,9.148 L11.0765,2.8025 L12.35925,4.08525 L6.012,10.43075 L4.45625,10.7055 L4.72925,9.148 L4.72925,9.148 Z M14.44,13.67 L1.56,13.67 C1.25025,13.67 1,13.92025 1,14.23 L1,14.86 C1,14.937 1.063,15 1.14,15 L14.86,15 C14.937,15 15,14.937 15,14.86 L15,14.23 C15,13.92025 14.74975,13.67 14.44,13.67 Z" id="形状"></path>
            </g>
        </g>
    </g>
</svg>