<?xml version="1.0" encoding="UTF-8"?>
<svg width="16px" height="16px" viewBox="0 0 16 16" version="1.1" xmlns="http://www.w3.org/2000/svg" xmlns:xlink="http://www.w3.org/1999/xlink">
    <title>p-enter</title>
    <g id="页面-1" stroke="none" stroke-width="1" fill="none" fill-rule="evenodd">
        <g id="画板" transform="translate(-156.000000, -1656.000000)">
            <g id="p-enter" transform="translate(156.000000, 1656.000000)">
                <rect id="矩形" fill="#D8D8D8" opacity="0" x="0" y="0" width="16" height="16"></rect>
                <path d="M14.9,1.28 C14.9552285,1.28 15,1.32477153 15,1.38 L15,12.1652592 C15,12.607087 14.6418278,12.9652592 14.2,12.9652592 L4.066,12.965 L4.06664288,14.5656553 C4.06664288,14.5886039 4.06138082,14.6110871 4.05144535,14.6314454 L4.03311067,14.6601817 C3.98090515,14.7245051 3.8864398,14.7343286 3.82211641,14.6821231 L3.82211641,14.6821231 L1.05623365,12.437304 C1.04818102,12.4307685 1.04082791,12.4234153 1.03429232,12.4153627 C0.982086795,12.3510393 0.991910263,12.256574 1.05623365,12.2043685 L1.05623365,12.2043685 L3.82211641,9.95954945 C3.84884423,9.93785687 3.88221986,9.92601724 3.91664288,9.92601724 C3.99948559,9.92601724 4.06664288,9.99317453 4.06664288,10.0760172 L4.06664288,10.0760172 L4.066,11.676 L13.7107406,11.6756447 L13.7111501,1.38 C13.7111562,1.32477308 13.7559271,1.28000398 13.811154,1.28 L14.9,1.28 Z" id="形状结合" fill="#000000" fill-rule="nonzero"></path>
            </g>
        </g>
    </g>
</svg>