<?xml version="1.0" encoding="UTF-8"?>
<svg width="16px" height="16px" viewBox="0 0 16 16" version="1.1" xmlns="http://www.w3.org/2000/svg" xmlns:xlink="http://www.w3.org/1999/xlink">
    <title>p-error</title>
    <g id="页面-1" stroke="none" stroke-width="1" fill="none" fill-rule="evenodd">
        <g id="画板" transform="translate(-146.000000, -744.000000)" fill="#000000" fill-rule="nonzero">
            <g id="p-error" transform="translate(146.000000, 744.000000)">
                <rect id="矩形" opacity="0" x="0" y="0" width="16" height="16"></rect>
                <path d="M8,1.83 C8.16122926,1.83 8.31132505,1.89835095 8.41524552,2.02186501 L8.47177643,2.10248751 L14.9718272,13.3525757 C15.1661752,13.6907095 14.954251,14.1057005 14.5873149,14.1632597 L14.5,14.17 L1.5,14.17 C1.11070269,14.17 0.857089537,13.7791614 0.990461488,13.4317026 L1.02822357,13.3524875 L7.52809409,2.10271311 C7.62720559,1.9288618 7.80589945,1.83 8,1.83 Z M7.999,3.836 L4.51057937,9.789 L2.71657937,12.894 L9.79557937,12.939 L13.2565794,12.939 L7.999,3.836 Z M8,10.455 C8.43906639,10.455 8.795,10.8109336 8.795,11.25 C8.795,11.6890664 8.43906639,12.045 8,12.045 C7.56093361,12.045 7.205,11.6890664 7.205,11.25 C7.205,10.8109336 7.56093361,10.455 8,10.455 Z M8.375,6.33 C8.44988225,6.33 8.5137529,6.3788942 8.53630587,6.44637652 L8.545,6.5 L8.545,9.375 C8.545,9.44988225 8.4961058,9.5137529 8.42862348,9.53630587 L8.375,9.545 L7.625,9.545 C7.55011775,9.545 7.4862471,9.4961058 7.46369413,9.42862348 L7.455,9.375 L7.455,6.5 C7.455,6.42511775 7.5038942,6.3612471 7.57137652,6.33869413 L7.625,6.33 L8.375,6.33 Z" id="形状结合"></path>
            </g>
        </g>
    </g>
</svg>