<?xml version="1.0" encoding="UTF-8"?>
<svg width="16px" height="16px" viewBox="0 0 16 16" version="1.1" xmlns="http://www.w3.org/2000/svg" xmlns:xlink="http://www.w3.org/1999/xlink">
    <title>p-export</title>
    <g id="页面-1" stroke="none" stroke-width="1" fill="none" fill-rule="evenodd">
        <g id="画板" transform="translate(-208.000000, -1656.000000)">
            <g id="p-export" transform="translate(208.000000, 1656.000000)">
                <rect id="矩形备份-33" fill="#D8D8D8" opacity="0" x="0" y="0" width="16" height="16"></rect>
                <path d="M14.2690771,1 C14.5452195,1 14.7690771,1.22385763 14.7690771,1.5 L14.7690771,3.34298564 C14.7690771,3.42582836 14.7019198,3.49298564 14.6190771,3.49298564 L13.6016533,3.49298564 C13.5188323,3.49293008 13.451684,3.42580665 13.4515978,3.34298566 L13.4512178,2.31706284 L2.31696013,2.31706284 L2.31696013,13.633733 L13.4512178,13.633733 L13.4516011,12.5320764 C13.4516821,12.4492541 13.518831,12.3821286 13.6016533,12.3820764 L14.6190771,12.3820764 C14.7019198,12.3820764 14.7690771,12.4492337 14.7690771,12.5320764 L14.7690771,14.4520271 C14.7690771,14.7281695 14.5452195,14.9520271 14.2690771,14.9520271 L1.5,14.9520271 C1.22385763,14.9520271 1,14.7281695 1,14.4520271 L1,1.5 C1,1.22385763 1.22385763,1 1.5,1 L14.2690771,1 Z M12.3576146,5.81466885 L12.3995958,5.83799083 L14.9440273,7.84141658 C14.9533409,7.84874984 14.9617523,7.85716126 14.9690855,7.86647479 C15.0100846,7.91854531 15.0111043,7.98931768 14.9765471,8.04178324 L14.9440273,8.07712162 L12.3995958,10.0805474 C12.3731478,10.1013719 12.3404639,10.1126949 12.3068015,10.1126949 C12.2405273,10.1126949 12.1842918,10.0697142 12.1644486,10.0101065 L12.1568015,9.96269486 L12.1566533,8.61796835 L6.5256533,8.61798098 C6.44281059,8.61798098 6.3756533,8.5508237 6.3756533,8.46798098 L6.3756533,7.45055722 C6.3756533,7.3677145 6.44281059,7.30055722 6.5256533,7.30055722 L12.1566533,7.29996835 L12.1568015,5.95584334 C12.1568015,5.93340175 12.1618339,5.91139503 12.1713591,5.89138095 L12.188949,5.86304903 C12.2299481,5.81097852 12.2985062,5.79338429 12.3576146,5.81466885 Z" id="形状结合" fill="#000000" fill-rule="nonzero"></path>
            </g>
        </g>
    </g>
</svg>