<?xml version="1.0" encoding="UTF-8"?>
<svg width="16px" height="16px" viewBox="0 0 16 16" version="1.1" xmlns="http://www.w3.org/2000/svg" xmlns:xlink="http://www.w3.org/1999/xlink">
    <title>p-exclamation-circle</title>
    <g id="页面-1" stroke="none" stroke-width="1" fill="none" fill-rule="evenodd">
        <g id="画板" transform="translate(-341.000000, -744.000000)" fill="#000000" fill-rule="nonzero">
            <g id="p-exclamation-circle" transform="translate(349.000000, 752.000000) scale(1, -1) translate(-349.000000, -752.000000) translate(341.000000, 744.000000)">
                <rect id="矩形" opacity="0" x="0" y="0" width="16" height="16"></rect>
                <path d="M8,1 C11.8659932,1 15,4.13400675 15,8 C15,11.8659932 11.8659932,15 8,15 C4.13400675,15 1,11.8659932 1,8 C1,4.13400675 4.13400675,1 8,1 Z M8,2.3 C4.85197693,2.3 2.3,4.85197693 2.3,8 C2.3,11.1480231 4.85197693,13.7 8,13.7 C11.1480231,13.7 13.7,11.1480231 13.7,8 C13.7,4.85197693 11.1480231,2.3 8,2.3 Z" id="椭圆形"></path>
                <path d="M7,5.5 C7,6.05228475 7.44771525,6.5 8,6.5 C8.55228475,6.5 9,6.05228475 9,5.5 C9,4.94771525 8.55228475,4.5 8,4.5 C7.44771525,4.5 7,4.94771525 7,5.5 Z" id="路径"></path>
                <path d="M8.4875,7.1 L7.5125,7.1 C7.423125,7.1 7.35,7.15625 7.35,7.225 L7.35,11.475 C7.35,11.54375 7.423125,11.6 7.5125,11.6 L8.4875,11.6 C8.576875,11.6 8.65,11.54375 8.65,11.475 L8.65,7.225 C8.65,7.15625 8.576875,7.1 8.4875,7.1 Z" id="路径"></path>
            </g>
        </g>
    </g>
</svg>