<?xml version="1.0" encoding="UTF-8"?>
<svg width="16px" height="16px" viewBox="0 0 16 16" version="1.1" xmlns="http://www.w3.org/2000/svg" xmlns:xlink="http://www.w3.org/1999/xlink">
    <title>p-eye-close</title>
    <g id="页面-1" stroke="none" stroke-width="1" fill="none" fill-rule="evenodd">
        <g id="画板" transform="translate(-200.000000, -744.000000)" fill="#000000" fill-rule="nonzero">
            <g id="p-eye-close" transform="translate(200.000000, 744.000000)">
                <rect id="矩形" opacity="0" x="0" y="0" width="16" height="16"></rect>
                <path d="M14.908682,7.661808 L14.9070764,7.66020242 L14.9054709,7.65859685 C14.3210421,6.42712196 13.6210121,5.43166637 12.8069863,4.6722301 L11.9929605,5.48786145 C12.6945961,6.133302 13.3015029,6.99228384 13.8249199,8.07122924 C12.4874772,10.8376324 10.5912948,12.1509916 7.99989916,12.1509916 C7.17623994,12.1509916 6.42162039,12.017729 5.73282935,11.7479926 L4.85458063,12.6262413 C5.79384114,13.0790131 6.84067508,13.3070045 7.99989916,13.3070045 C11.0858115,13.3070045 13.3849928,11.6934031 14.9070764,8.48546721 C15.0307056,8.2253643 15.0307056,7.92351648 14.908682,7.661808 L14.908682,7.661808 Z M13.881115,2.32809276 L13.2003518,1.64732958 C13.150579,1.59755681 13.0686948,1.59755681 13.018922,1.64732958 L11.1436121,3.52103388 C10.2059572,3.06665658 9.15912324,2.83866514 7.99989916,2.83866514 C4.91398685,2.83866514 2.61480557,4.45226653 1.09272187,7.66020242 L1.09272187,7.661808 C0.96909271,7.92191091 0.96909271,8.22696987 1.09272187,8.48867836 C1.67715063,9.72015325 2.37718069,10.7156088 3.19120646,11.4766507 L1.57439393,13.0902521 C1.52462115,13.1400249 1.52462115,13.2219091 1.57439393,13.2716819 L2.2551571,13.9524451 C2.30492988,14.0022178 2.38681413,14.0022178 2.43658691,13.9524451 L13.881115,2.50791699 C13.9308877,2.45974979 13.9308877,2.37786554 13.881115,2.32809276 Z M6.18399551,8.48065049 C6.15348961,8.34899346 6.13743387,8.21251971 6.13743387,8.07283482 C6.13743387,7.07898481 6.94182621,6.27459247 7.93567622,6.27459247 C8.07536112,6.27459247 8.21344044,6.29064821 8.34349189,6.32115411 L6.18399551,8.48065049 Z M9.14627865,5.51836734 C8.77860232,5.3449654 8.36918107,5.24702542 7.93567622,5.24702542 C6.37505876,5.24702542 5.10986682,6.51221735 5.10986682,8.07283482 C5.10986682,8.50633967 5.20780681,8.91576092 5.38120875,9.28343725 L4.00683781,10.6578082 C3.30520218,10.0123676 2.69829539,9.1533858 2.17487842,8.07444039 C3.51392674,5.30803721 5.41010907,3.99467807 7.99989916,3.99467807 C8.82355838,3.99467807 9.57817793,4.12794067 10.266969,4.39767703 L9.14627865,5.51836734 L9.14627865,5.51836734 Z M7.93567622,9.87107716 C7.83291951,9.87107716 7.73176838,9.86304929 7.6338284,9.84538798 L6.81338033,10.6658361 C7.15697306,10.8151544 7.53749399,10.8970386 7.93567622,10.8970386 C9.49629368,10.8970386 10.7614856,9.63184671 10.7614856,8.07122924 C10.7614856,7.67304701 10.6796014,7.29252609 10.530283,6.94893335 L9.70983496,7.76938142 C9.7258907,7.86732141 9.73552414,7.96847254 9.73552414,8.07122924 C9.73391856,9.06668483 8.92952623,9.87107716 7.93567622,9.87107716 Z" id="形状"></path>
            </g>
        </g>
    </g>
</svg>