<?xml version="1.0" encoding="UTF-8"?>
<svg width="16px" height="16px" viewBox="0 0 16 16" version="1.1" xmlns="http://www.w3.org/2000/svg" xmlns:xlink="http://www.w3.org/1999/xlink">
    <title>p-eye</title>
    <g id="页面-1" stroke="none" stroke-width="1" fill="none" fill-rule="evenodd">
        <g id="画板" transform="translate(-256.000000, -744.000000)" fill="#000000" fill-rule="nonzero">
            <g id="p-eye" transform="translate(256.000000, 744.000000)">
                <rect id="矩形" opacity="0" x="0" y="0" width="16" height="16"></rect>
                <path d="M14.9072768,7.58000115 C13.3851712,4.37362463 11.0843512,2.76 8,2.76 C4.91404324,2.76 2.61482883,4.37362463 1.09272321,7.58160674 C0.969092264,7.8417134 0.969092264,8.14677676 1.09272321,8.40848902 C2.61482883,11.6148655 4.91564883,13.2284902 8,13.2284902 C11.0859568,13.2284902 13.3851712,11.6148655 14.9072768,8.40688342 C15.0309077,8.14677676 15.0309077,7.84492459 14.9072768,7.58000115 Z M8,12.0724606 C5.4101726,12.0724606 3.51396296,10.7590825 2.17650095,7.99424508 C3.51396296,5.22940765 5.4101726,3.91602959 8,3.91602959 C10.5898274,3.91602959 12.486037,5.22940765 13.8234991,7.99424508 C12.4876426,10.7590825 10.591433,12.0724606 8,12.0724606 Z M7.93577613,5.16839498 C6.37513619,5.16839498 5.10992603,6.43360514 5.10992603,7.99424508 C5.10992603,9.55488503 6.37513619,10.8200952 7.93577613,10.8200952 C9.49641608,10.8200952 10.7616262,9.55488503 10.7616262,7.99424508 C10.7616262,6.43360514 9.49641608,5.16839498 7.93577613,5.16839498 Z M7.93577613,9.79251333 C6.94191181,9.79251333 6.13750788,8.98810941 6.13750788,7.99424508 C6.13750788,7.00038076 6.94191181,6.19597683 7.93577613,6.19597683 C8.92964046,6.19597683 9.73404438,7.00038076 9.73404438,7.99424508 C9.73404438,8.98810941 8.92964046,9.79251333 7.93577613,9.79251333 Z" id="形状"></path>
            </g>
        </g>
    </g>
</svg>