<?xml version="1.0" encoding="UTF-8"?>
<svg width="16px" height="16px" viewBox="0 0 16 16" version="1.1" xmlns="http://www.w3.org/2000/svg" xmlns:xlink="http://www.w3.org/1999/xlink">
    <title>p-fall</title>
    <g id="页面-1" stroke="none" stroke-width="1" fill="none" fill-rule="evenodd">
        <g id="画板" transform="translate(-378.000000, -816.000000)" fill="#000000" fill-rule="nonzero">
            <g id="p-fall" transform="translate(378.000000, 816.000000)">
                <rect id="矩形" opacity="0" x="0" y="0" width="16" height="16"></rect>
                <path d="M14.9987564,12.850938 L14.5929586,9.54195968 C14.579432,9.43232486 14.4424753,9.38581312 14.3630065,9.4638864 L13.3603478,10.4505998 L8.77314165,5.94560528 C8.66661972,5.842615 8.49584648,5.842615 8.39101538,5.94560528 L6.66975632,7.63497823 L1.9912457,3.03862136 C1.93883015,2.98712621 1.85259811,2.98712621 1.80018256,3.03862136 L1.03931166,3.78945378 C0.986896112,3.84094892 0.986896112,3.92566674 1.03931166,3.97716188 L6.47869318,9.32435117 C6.58352428,9.42900259 6.75598835,9.42900259 6.86081946,9.32435117 L8.58207851,7.63497823 L12.4050321,11.3891403 L11.4023733,12.3741926 C11.3229046,12.4522659 11.3702477,12.5868177 11.4818421,12.6001068 L14.8499639,12.9987789 C14.9361959,13.0104068 15.0105922,12.9373169 14.9987564,12.850938 L14.9987564,12.850938 Z" id="路径"></path>
            </g>
        </g>
    </g>
</svg>