<?xml version="1.0" encoding="UTF-8"?>
<svg width="16px" height="16px" viewBox="0 0 16 16" version="1.1" xmlns="http://www.w3.org/2000/svg" xmlns:xlink="http://www.w3.org/1999/xlink">
    <title>p-fast-backward</title>
    <g id="页面-1" stroke="none" stroke-width="1" fill="none" fill-rule="evenodd">
        <g id="画板" transform="translate(-353.000000, -816.000000)" fill="#000000" fill-rule="nonzero">
            <g id="p-fast-backward" transform="translate(361.000000, 824.000000) scale(-1, 1) translate(-361.000000, -824.000000) translate(353.000000, 816.000000)">
                <rect id="矩形" opacity="0" x="0" y="0" width="16" height="16"></rect>
                <path d="M13.6039773,7.73541667 L7.88863636,3.03125 C7.67585227,2.85625 7.36363636,3.01458333 7.36363636,3.29583333 L7.36363636,12.7041667 C7.36363636,12.9854167 7.67585227,13.14375 7.88863636,12.96875 L13.6039773,8.26458333 C13.6855114,8.19791667 13.7272727,8.09791667 13.7272727,8 C13.7272727,7.90208333 13.6855114,7.80208333 13.6039773,7.73541667 Z M7.24034091,7.73541667 L1.525,3.03125 C1.31221591,2.85625 1,3.01458333 1,3.29583333 L1,12.7020833 C1,12.9833333 1.31221591,13.1416667 1.525,12.9666667 L7.24034091,8.2625 C7.321875,8.19583333 7.36363636,8.09583333 7.36363636,7.99791667 C7.36363636,7.90208333 7.321875,7.80208333 7.24034091,7.73541667 L7.24034091,7.73541667 Z M14.8727273,2.5 L13.8545455,2.5 C13.7849432,2.5 13.7272727,2.55625 13.7272727,2.625 L13.7272727,13.375 C13.7272727,13.44375 13.7849432,13.5 13.8545455,13.5 L14.8727273,13.5 C14.9423295,13.5 15,13.44375 15,13.375 L15,2.625 C15,2.55625 14.9423295,2.5 14.8727273,2.5 Z" id="形状"></path>
            </g>
        </g>
    </g>
</svg>