<?xml version="1.0" encoding="UTF-8"?>
<svg width="16px" height="16px" viewBox="0 0 16 16" version="1.1" xmlns="http://www.w3.org/2000/svg" xmlns:xlink="http://www.w3.org/1999/xlink">
    <title>p-file-word</title>
    <g id="页面-1" stroke="none" stroke-width="1" fill="none" fill-rule="evenodd">
        <g id="画板" transform="translate(-369.000000, -817.000000)" fill="#000000" fill-rule="nonzero">
            <g id="p-file-word" transform="translate(369.000000, 817.000000)">
                <rect id="矩形" opacity="0" x="0" y="0" width="16" height="16"></rect>
                <path d="M13.353125,4.509375 L9.990625,1.146875 C9.896875,1.053125 9.7703125,1 9.6375,1 L3,1 C2.7234375,1 2.5,1.2234375 2.5,1.5 L2.5,14.5 C2.5,14.7765625 2.7234375,15 3,15 L13,15 C13.2765625,15 13.5,14.7765625 13.5,14.5 L13.5,4.8640625 C13.5,4.73125 13.446875,4.603125 13.353125,4.509375 Z M12.346875,5.09375 L9.40625,5.09375 L9.40625,2.153125 L12.346875,5.09375 Z M12.375,13.875 L3.625,13.875 L3.625,2.125 L8.34375,2.125 L8.34375,5.5 C8.34375,5.8625 8.6375,6.15625 9,6.15625 L12.375,6.15625 L12.375,13.875 Z M8.2515625,7.375 L7.7484375,7.375 C7.6625,7.375 7.5875,7.4328125 7.5671875,7.5171875 L6.790625,10.625 L6.0703125,7.5203125 C6.05,7.4359375 5.975,7.375 5.8875,7.375 L5.334375,7.375 C5.3171875,7.375 5.3015625,7.3765625 5.2859375,7.38125 C5.1859375,7.4078125 5.1265625,7.5109375 5.153125,7.6109375 L6.3125,11.9234375 C6.334375,12.0046875 6.409375,12.0625 6.49375,12.0625 L6.99375,12.0625 C7.078125,12.0625 7.153125,12.00625 7.175,11.9234375 L8,8.8453125 L8.825,11.9234375 C8.846875,12.0046875 8.921875,12.0625 9.00625,12.0625 L9.503125,12.0625 C9.5875,12.0625 9.6625,12.00625 9.684375,11.9234375 L10.846875,7.6109375 C10.8515625,7.5953125 10.853125,7.578125 10.853125,7.5625 C10.853125,7.459375 10.76875,7.375 10.665625,7.375 L10.109375,7.375 C10.021875,7.375 9.946875,7.4359375 9.9265625,7.5203125 L9.2109375,10.63125 L8.4328125,7.5171875 C8.4125,7.4328125 8.3375,7.375 8.2515625,7.375 L8.2515625,7.375 Z" id="形状"></path>
            </g>
        </g>
    </g>
</svg>