<?xml version="1.0" encoding="UTF-8"?>
<svg width="16px" height="16px" viewBox="0 0 16 16" version="1.1" xmlns="http://www.w3.org/2000/svg" xmlns:xlink="http://www.w3.org/1999/xlink">
    <title>p-file-image</title>
    <g id="页面-1" stroke="none" stroke-width="1" fill="none" fill-rule="evenodd">
        <g id="画板" transform="translate(-278.000000, -816.000000)" fill="#000000" fill-rule="nonzero">
            <g id="p-file-image" transform="translate(278.000000, 816.000000)">
                <rect id="矩形" opacity="0" x="0" y="0" width="16" height="16"></rect>
                <path d="M7.4265625,10.2805452 L6.784375,9.46179519 C6.734375,9.39773269 6.6375,9.39773269 6.5875,9.46179519 L5.028125,11.4492952 C4.9640625,11.5305452 5.021875,11.6508577 5.1265625,11.6508577 L10.875,11.6508577 C10.9796875,11.6508577 11.0375,11.5305452 10.9734375,11.4492952 L8.840625,8.73054519 C8.7890625,8.66648269 8.6921875,8.66648269 8.6421875,8.73054519 L7.4265625,10.2805452 Z M5.625,7.68210769 C5.625,8.02728566 5.90482203,8.30710769 6.25,8.30710769 C6.59517797,8.30710769 6.875,8.02728566 6.875,7.68210769 C6.875,7.33692972 6.59517797,7.05710769 6.25,7.05710769 C5.90482203,7.05710769 5.625,7.33692972 5.625,7.68210769 Z M13.353125,4.509375 L9.990625,1.146875 C9.896875,1.053125 9.7703125,1 9.6375,1 L3,1 C2.7234375,1 2.5,1.2234375 2.5,1.5 L2.5,14.5 C2.5,14.7765625 2.7234375,15 3,15 L13,15 C13.2765625,15 13.5,14.7765625 13.5,14.5 L13.5,4.8640625 C13.5,4.73125 13.446875,4.603125 13.353125,4.509375 Z M12.346875,5.09375 L9.40625,5.09375 L9.40625,2.153125 L12.346875,5.09375 Z M12.375,13.875 L3.625,13.875 L3.625,2.125 L8.34375,2.125 L8.34375,5.5 C8.34375,5.8625 8.6375,6.15625 9,6.15625 L12.375,6.15625 L12.375,13.875 Z" id="形状"></path>
            </g>
        </g>
    </g>
</svg>