<?xml version="1.0" encoding="UTF-8"?>
<svg width="16px" height="16px" viewBox="0 0 16 16" version="1.1" xmlns="http://www.w3.org/2000/svg" xmlns:xlink="http://www.w3.org/1999/xlink">
    <title>p-file-markdown</title>
    <g id="页面-1" stroke="none" stroke-width="1" fill="none" fill-rule="evenodd">
        <g id="画板" transform="translate(-210.000000, -816.000000)" fill="#000000" fill-rule="nonzero">
            <g id="p-file-markdown" transform="translate(210.000000, 816.000000)">
                <rect id="矩形" opacity="0" x="0" y="0" width="16" height="16"></rect>
                <path d="M13.353125,4.509375 L9.990625,1.146875 C9.896875,1.053125 9.7703125,1 9.6375,1 L3,1 C2.7234375,1 2.5,1.2234375 2.5,1.5 L2.5,14.5 C2.5,14.7765625 2.7234375,15 3,15 L13,15 C13.2765625,15 13.5,14.7765625 13.5,14.5 L13.5,4.8640625 C13.5,4.73125 13.446875,4.603125 13.353125,4.509375 Z M12.346875,5.09375 L9.40625,5.09375 L9.40625,2.153125 L12.346875,5.09375 Z M12.375,13.875 L3.625,13.875 L3.625,2.125 L8.34375,2.125 L8.34375,5.5 C8.34375,5.8625 8.6375,6.15625 9,6.15625 L12.375,6.15625 L12.375,13.875 Z M6.703125,7.51875 C6.6734375,7.45 6.60625,7.40625 6.53125,7.40625 L5.984375,7.40625 C5.88125,7.40625 5.796875,7.490625 5.796875,7.59375 L5.796875,11.84375 C5.796875,11.946875 5.88125,12.03125 5.984375,12.03125 L6.4078125,12.03125 C6.5109375,12.03125 6.5953125,11.946875 6.5953125,11.84375 L6.5953125,9.0953125 L7.6390625,11.4421875 C7.66875,11.509375 7.7359375,11.553125 7.8109375,11.553125 L8.1875,11.553125 C8.2609375,11.553125 8.328125,11.509375 8.359375,11.4421875 L9.403125,9.0890625 L9.403125,11.84375 C9.403125,11.946875 9.4875,12.03125 9.590625,12.03125 L10.015625,12.03125 C10.11875,12.03125 10.203125,11.946875 10.203125,11.84375 L10.203125,7.59375 C10.203125,7.490625 10.11875,7.40625 10.015625,7.40625 L9.4734375,7.40625 C9.3984375,7.40625 9.33125,7.45 9.3015625,7.51875 L8.003125,10.503125 L6.703125,7.51875 L6.703125,7.51875 Z" id="形状"></path>
            </g>
        </g>
    </g>
</svg>