<?xml version="1.0" encoding="UTF-8"?>
<svg width="16px" height="16px" viewBox="0 0 16 16" version="1.1" xmlns="http://www.w3.org/2000/svg" xmlns:xlink="http://www.w3.org/1999/xlink">
    <title>p-file-exclamation</title>
    <g id="页面-1" stroke="none" stroke-width="1" fill="none" fill-rule="evenodd">
        <g id="画板" transform="translate(-254.000000, -816.000000)" fill="#000000" fill-rule="nonzero">
            <g id="p-file-exclamation" transform="translate(254.000000, 816.000000)">
                <rect id="矩形" opacity="0" x="0" y="0" width="16" height="16"></rect>
                <path d="M13.353125,4.509375 L9.990625,1.146875 C9.896875,1.053125 9.7703125,1 9.6375,1 L3,1 C2.7234375,1 2.5,1.2234375 2.5,1.5 L2.5,14.5 C2.5,14.7765625 2.7234375,15 3,15 L13,15 C13.2765625,15 13.5,14.7765625 13.5,14.5 L13.5,4.8640625 C13.5,4.73125 13.446875,4.603125 13.353125,4.509375 Z M12.346875,5.09375 L9.40625,5.09375 L9.40625,2.153125 L12.346875,5.09375 Z M12.375,13.875 L3.625,13.875 L3.625,2.125 L8.34375,2.125 L8.34375,5.5 C8.34375,5.8625 8.6375,6.15625 9,6.15625 L12.375,6.15625 L12.375,13.875 Z M7.375,11.625 C7.375,11.970178 7.65482203,12.25 8,12.25 C8.34517797,12.25 8.625,11.970178 8.625,11.625 C8.625,11.279822 8.34517797,11 8,11 C7.65482203,11 7.375,11.279822 7.375,11.625 Z M7.625,10.2930452 L8.375,10.2930452 C8.44375,10.2930452 8.5,10.2367952 8.5,10.1680452 L8.5,7.29304519 C8.5,7.22429519 8.44375,7.16804519 8.375,7.16804519 L7.625,7.16804519 C7.55625,7.16804519 7.5,7.22429519 7.5,7.29304519 L7.5,10.1680452 C7.5,10.2367952 7.55625,10.2930452 7.625,10.2930452 Z" id="形状"></path>
            </g>
        </g>
    </g>
</svg>