<?xml version="1.0" encoding="UTF-8"?>
<svg width="16px" height="16px" viewBox="0 0 16 16" version="1.1" xmlns="http://www.w3.org/2000/svg" xmlns:xlink="http://www.w3.org/1999/xlink">
    <title>p-file-unknown</title>
    <g id="页面-1" stroke="none" stroke-width="1" fill="none" fill-rule="evenodd">
        <g id="画板" transform="translate(-394.000000, -817.000000)" fill="#000000" fill-rule="nonzero">
            <g id="p-file-unknown" transform="translate(394.000000, 817.000000)">
                <rect id="矩形" opacity="0" x="0" y="0" width="16" height="16"></rect>
                <path d="M13.353125,4.5109375 L9.990625,1.146875 C9.896875,1.053125 9.76875,1 9.6359375,1 L3,1 C2.7234375,1 2.5,1.2234375 2.5,1.5 L2.5,14.5 C2.5,14.7765625 2.7234375,15 3,15 L13,15 C13.2765625,15 13.5,14.7765625 13.5,14.5 L13.5,4.8640625 C13.5,4.73125 13.446875,4.6046875 13.353125,4.5109375 Z M12.346875,5.09375 L9.40625,5.09375 L9.40625,2.153125 L12.346875,5.09375 Z M12.375,13.875 L3.625,13.875 L3.625,2.125 L8.34375,2.125 L8.34375,5.5 C8.34375,5.8625 8.6375,6.15625 9,6.15625 L12.375,6.15625 L12.375,13.875 Z M6.28125,8.578125 C6.28125,8.6625 6.35,8.7265625 6.434375,8.7265625 L6.940625,8.7265625 C7.025,8.7265625 7.09375,8.6609375 7.09375,8.5796875 C7.09375,8.1390625 7.496875,7.7734375 8,7.7734375 C8.503125,7.7734375 8.90625,8.1390625 8.90625,8.578125 C8.90625,8.9734375 8.578125,9.315625 8.1359375,9.3734375 C7.834375,9.4171875 7.596875,9.690625 7.59375,10 L7.59375,10.5 C7.59375,10.5859375 7.6640625,10.65625 7.75,10.65625 L8.25,10.65625 C8.3359375,10.65625 8.40625,10.5859375 8.40625,10.5 L8.40625,10.309375 C8.40625,10.215625 8.46875,10.1296875 8.5578125,10.1015625 C9.2546875,9.8765625 9.7296875,9.2578125 9.71875,8.55625 C9.70625,7.6890625 8.95,6.98125 8.0234375,6.96875 C7.0640625,6.9578125 6.28125,7.68125 6.28125,8.578125 Z M7.5,11.625 C7.5,11.9011424 7.72385763,12.125 8,12.125 C8.27614237,12.125 8.5,11.9011424 8.5,11.625 C8.5,11.3488576 8.27614237,11.125 8,11.125 C7.72385763,11.125 7.5,11.3488576 7.5,11.625 Z" id="形状"></path>
            </g>
        </g>
    </g>
</svg>