<?xml version="1.0" encoding="UTF-8"?>
<svg width="16px" height="16px" viewBox="0 0 16 16" version="1.1" xmlns="http://www.w3.org/2000/svg" xmlns:xlink="http://www.w3.org/1999/xlink">
    <title>p-file-protect</title>
    <g id="页面-1" stroke="none" stroke-width="1" fill="none" fill-rule="evenodd">
        <g id="画板" transform="translate(-254.000000, -1656.000000)">
            <g id="p-file-protect" transform="translate(254.000000, 1656.000000)">
                <rect id="矩形" fill="#D8D8D8" opacity="0" x="0" y="0" width="16" height="16"></rect>
                <path d="M13.1756595,1 C13.4518019,1 13.6756595,1.22385763 13.6756595,1.5 L13.6756595,6.98 C13.6756595,7.06284271 13.6085022,7.13 13.5256595,7.13 L12.6600448,7.13 C12.5772027,7.12999836 12.5100457,7.06284207 12.5100432,6.98 L12.5099904,2.16561089 L3.46482035,2.16561089 L3.46482035,13.4788728 L7.85,13.4797018 C7.93283163,13.4797458 7.99997164,13.5468985 8,13.6297302 L8,14.4953449 C8,14.5781876 7.93284271,14.6453449 7.85,14.6453449 L2.8,14.6453449 C2.52385763,14.6453449 2.3,14.4214872 2.3,14.1453449 L2.3,1.5 C2.3,1.22385763 2.52385763,1 2.8,1 L13.1756595,1 Z M7.83782975,6.12786803 C7.92067246,6.12786803 7.98782975,6.19502532 7.98782975,6.27786803 L7.98782975,7.04634816 C7.98782975,7.12919088 7.92067246,7.19634816 7.83782975,7.19634816 L4.89439785,7.19634816 C4.81155513,7.19634816 4.74439785,7.12919088 4.74439785,7.04634816 L4.74439785,6.27786803 C4.74439785,6.19502532 4.81155513,6.12786803 4.89439785,6.12786803 L7.83782975,6.12786803 Z M11.0150392,3.76269614 C11.0978819,3.76269614 11.1650392,3.82985342 11.1650392,3.91269614 L11.1650392,4.68117627 C11.1650392,4.76401898 11.0978819,4.83117627 11.0150392,4.83117627 L4.89439785,4.83117627 C4.81155513,4.83117627 4.74439785,4.76401898 4.74439785,4.68117627 L4.74439785,3.91269614 C4.74439785,3.82985342 4.81155513,3.76269614 4.89439785,3.76269614 L11.0150392,3.76269614 Z" id="形状结合" fill="#000000" fill-rule="nonzero"></path>
                <path d="M11.2296446,7.17312236 L11.2635592,7.18096565 L14.3229628,8.27545718 C14.3826226,8.29680027 14.4224367,8.35332885 14.4224367,8.41669143 L14.4224367,8.41669143 L14.4224367,12.495027 C14.4224367,12.5411027 14.4012609,12.5846222 14.3650055,12.6130567 L14.3650055,12.6130567 L11.3042016,15.0135955 C11.2492394,15.0567014 11.171798,15.0561651 11.1174381,15.0123019 L11.1174381,15.0123019 L8.13873204,12.6087752 C8.10344115,12.5802989 8.08292683,12.537386 8.08292683,12.492039 L8.08292683,12.492039 L8.08292683,8.41907072 C8.08292683,8.35620937 8.12212291,8.30001594 8.18111524,8.27830297 L8.18111524,8.27830297 L11.1612215,7.18143215 C11.1942247,7.16928487 11.2304467,7.16911975 11.2635592,7.18096565 Z M11.2159268,8.226 L9.08192683,9.012 L9.08192683,12.085 L11.2179268,13.809 L13.4219268,12.081 L13.4219268,9.014 L11.2159268,8.226 Z M12.7258821,9.57 C12.8087248,9.57 12.8758821,9.63715729 12.8758821,9.72 C12.8758821,9.75163831 12.8658783,9.7824665 12.847301,9.80807642 L11.0188187,12.328754 C10.9701754,12.3958118 10.8763812,12.4107397 10.8093234,12.3620965 C10.7960466,12.3524656 10.7844393,12.3407224 10.7749637,12.3273344 L9.63749879,10.7202258 C9.58963959,10.6526062 9.60565857,10.5589921 9.67327818,10.5111329 C9.6986158,10.4931996 9.72889309,10.483569 9.75993493,10.483569 L10.5210815,10.483569 C10.5696951,10.483569 10.6152942,10.5071283 10.6434224,10.5467779 L10.9040265,10.9141259 L11.8345028,9.63190129 C11.8627213,9.59301531 11.9078597,9.57 11.9559055,9.57 L12.7258821,9.57 Z" id="形状结合备份" fill="#000000" fill-rule="nonzero"></path>
            </g>
        </g>
    </g>
</svg>