<?xml version="1.0" encoding="UTF-8"?>
<svg width="16px" height="16px" viewBox="0 0 16 16" version="1.1" xmlns="http://www.w3.org/2000/svg" xmlns:xlink="http://www.w3.org/1999/xlink">
    <title>p-file-done</title>
    <g id="页面-1" stroke="none" stroke-width="1" fill="none" fill-rule="evenodd">
        <g id="画板" transform="translate(-233.000000, -1656.000000)">
            <g id="p-file-done" transform="translate(233.000000, 1656.000000)">
                <rect id="矩形" fill="#D8D8D8" opacity="0" x="0" y="0" width="16" height="16"></rect>
                <path d="M13.1756595,1 C13.4518019,1 13.6756595,1.22385763 13.6756595,1.5 L13.6756595,7.27930336 C13.6756595,7.36214607 13.6085022,7.42930336 13.5256595,7.42930336 L12.6600448,7.42930336 C12.5772027,7.42930181 12.5100457,7.36214546 12.5100432,7.27930336 L12.5099904,2.16561089 L3.46482035,2.16561089 L3.46482035,13.4788728 L7.04010264,13.4796957 C7.12293186,13.4797492 7.19006811,13.5469009 7.19010264,13.6297302 L7.19010264,14.4953449 C7.19010264,14.5781876 7.12294535,14.6453449 7.04010264,14.6453449 L2.8,14.6453449 C2.52385763,14.6453449 2.3,14.4214872 2.3,14.1453449 L2.3,1.5 C2.3,1.22385763 2.52385763,1 2.8,1 L13.1756595,1 Z M7.83782975,6.12786803 C7.92067246,6.12786803 7.98782975,6.19502532 7.98782975,6.27786803 L7.98782975,7.04634816 C7.98782975,7.12919088 7.92067246,7.19634816 7.83782975,7.19634816 L4.89439785,7.19634816 C4.81155513,7.19634816 4.74439785,7.12919088 4.74439785,7.04634816 L4.74439785,6.27786803 C4.74439785,6.19502532 4.81155513,6.12786803 4.89439785,6.12786803 L7.83782975,6.12786803 Z M11.0150392,3.76269614 C11.0978819,3.76269614 11.1650392,3.82985342 11.1650392,3.91269614 L11.1650392,4.68117627 C11.1650392,4.76401898 11.0978819,4.83117627 11.0150392,4.83117627 L4.89439785,4.83117627 C4.81155513,4.83117627 4.74439785,4.76401898 4.74439785,4.68117627 L4.74439785,3.91269614 C4.74439785,3.82985342 4.81155513,3.76269614 4.89439785,3.76269614 L11.0150392,3.76269614 Z M10.95,7.5 C13.0210678,7.5 14.7,9.17893219 14.7,11.25 C14.7,13.3210678 13.0210678,15 10.95,15 C8.87893219,15 7.2,13.3210678 7.2,11.25 C7.2,9.17893219 8.87893219,7.5 10.95,7.5 Z M10.95,8.5 C9.43121694,8.5 8.2,9.73121694 8.2,11.25 C8.2,12.7687831 9.43121694,14 10.95,14 C12.4687831,14 13.7,12.7687831 13.7,11.25 C13.7,9.73121694 12.4687831,8.5 10.95,8.5 Z M12.5728821,9.6664219 C12.6557248,9.6664219 12.7228821,9.73357918 12.7228821,9.8164219 C12.7228821,9.84806021 12.7128783,9.8788884 12.694301,9.90449832 L10.6881124,12.6701553 C10.6394691,12.7372131 10.5456749,12.752141 10.4786171,12.7034977 C10.4653403,12.6938668 10.453733,12.6821236 10.4442573,12.6687356 L9.18749879,10.8930786 C9.13963959,10.825459 9.15565857,10.731845 9.22327818,10.6839858 C9.2486158,10.6660525 9.27889309,10.6564219 9.30993493,10.6564219 L10.1655007,10.6564219 C10.2141144,10.6564219 10.2597134,10.6799812 10.2878417,10.7196308 L10.574,11.123 L11.5860799,9.72832318 C11.6142984,9.68943721 11.6594367,9.6664219 11.7074826,9.6664219 L12.5728821,9.6664219 Z" id="形状结合" fill="#000000" fill-rule="nonzero"></path>
            </g>
        </g>
    </g>
</svg>