<?xml version="1.0" encoding="UTF-8"?>
<svg width="16px" height="16px" viewBox="0 0 16 16" version="1.1" xmlns="http://www.w3.org/2000/svg" xmlns:xlink="http://www.w3.org/1999/xlink">
    <title>p-file-text</title>
    <g id="页面-1" stroke="none" stroke-width="1" fill="none" fill-rule="evenodd">
        <g id="画板" transform="translate(-418.000000, -817.000000)" fill="#000000" fill-rule="nonzero">
            <g id="p-file-text" transform="translate(418.000000, 817.000000)">
                <rect id="矩形" opacity="0" x="0" y="0" width="16" height="16"></rect>
                <path d="M13.353125,4.509375 L9.990625,1.146875 C9.896875,1.053125 9.7703125,1 9.6375,1 L3,1 C2.7234375,1 2.5,1.2234375 2.5,1.5 L2.5,14.5 C2.5,14.7765625 2.7234375,15 3,15 L13,15 C13.2765625,15 13.5,14.7765625 13.5,14.5 L13.5,4.8640625 C13.5,4.73125 13.446875,4.603125 13.353125,4.509375 Z M12.346875,5.09375 L9.40625,5.09375 L9.40625,2.153125 L12.346875,5.09375 Z M12.375,13.875 L3.625,13.875 L3.625,2.125 L8.34375,2.125 L8.34375,5.5 C8.34375,5.8625 8.6375,6.15625 9,6.15625 L12.375,6.15625 L12.375,13.875 Z M7.875,9.65625 L5,9.65625 C4.93125,9.65625 4.875,9.7125 4.875,9.78125 L4.875,10.53125 C4.875,10.6 4.93125,10.65625 5,10.65625 L7.875,10.65625 C7.94375,10.65625 8,10.6 8,10.53125 L8,9.78125 C8,9.7125 7.94375,9.65625 7.875,9.65625 Z M4.875,7.65625 L4.875,8.40625 C4.875,8.475 4.93125,8.53125 5,8.53125 L11,8.53125 C11.06875,8.53125 11.125,8.475 11.125,8.40625 L11.125,7.65625 C11.125,7.5875 11.06875,7.53125 11,7.53125 L5,7.53125 C4.93125,7.53125 4.875,7.5875 4.875,7.65625 Z" id="形状"></path>
            </g>
        </g>
    </g>
</svg>