<?xml version="1.0" encoding="UTF-8"?>
<svg width="16px" height="16px" viewBox="0 0 16 16" version="1.1" xmlns="http://www.w3.org/2000/svg" xmlns:xlink="http://www.w3.org/1999/xlink">
    <title>p-file-add</title>
    <g id="页面-1" stroke="none" stroke-width="1" fill="none" fill-rule="evenodd">
        <g id="画板" transform="translate(-187.000000, -816.000000)" fill="#000000" fill-rule="nonzero">
            <g id="p-file-add" transform="translate(187.000000, 816.000000)">
                <rect id="矩形" opacity="0" x="0" y="0" width="16" height="16"></rect>
                <path d="M13.353125,4.509375 L9.990625,1.146875 C9.896875,1.053125 9.7703125,1 9.6375,1 L3,1 C2.7234375,1 2.5,1.2234375 2.5,1.5 L2.5,14.5 C2.5,14.7765625 2.7234375,15 3,15 L13,15 C13.2765625,15 13.5,14.7765625 13.5,14.5 L13.5,4.8640625 C13.5,4.73125 13.446875,4.603125 13.353125,4.509375 Z M12.346875,5.09375 L9.40625,5.09375 L9.40625,2.153125 L12.346875,5.09375 Z M12.375,13.875 L3.625,13.875 L3.625,2.125 L8.34375,2.125 L8.34375,5.5 C8.34375,5.8625 8.6375,6.15625 9,6.15625 L12.375,6.15625 L12.375,13.875 Z M8.5,7.375 C8.5,7.30625 8.44375,7.25 8.375,7.25 L7.625,7.25 C7.55625,7.25 7.5,7.30625 7.5,7.375 L7.5,9.0625 L5.8125,9.0625 C5.74375,9.0625 5.6875,9.11875 5.6875,9.1875 L5.6875,9.9375 C5.6875,10.00625 5.74375,10.0625 5.8125,10.0625 L7.5,10.0625 L7.5,11.75 C7.5,11.81875 7.55625,11.875 7.625,11.875 L8.375,11.875 C8.44375,11.875 8.5,11.81875 8.5,11.75 L8.5,10.0625 L10.1875,10.0625 C10.25625,10.0625 10.3125,10.00625 10.3125,9.9375 L10.3125,9.1875 C10.3125,9.11875 10.25625,9.0625 10.1875,9.0625 L8.5,9.0625 L8.5,7.375 Z" id="形状"></path>
            </g>
        </g>
    </g>
</svg>