<?xml version="1.0" encoding="UTF-8"?>
<svg width="16px" height="16px" viewBox="0 0 16 16" version="1.1" xmlns="http://www.w3.org/2000/svg" xmlns:xlink="http://www.w3.org/1999/xlink">
    <title>p-file-pdf</title>
    <g id="页面-1" stroke="none" stroke-width="1" fill="none" fill-rule="evenodd">
        <g id="画板" transform="translate(-165.000000, -816.000000)" fill="#000000" fill-rule="nonzero">
            <g id="p-file-pdf" transform="translate(165.000000, 816.000000)">
                <rect id="矩形" opacity="0" x="0" y="0" width="16" height="16"></rect>
                <path d="M8.3015625,8.975 L8.30625,8.953125 C8.396875,8.5796875 8.5109375,8.1140625 8.421875,7.6921875 C8.3625,7.359375 8.1171875,7.2296875 7.9078125,7.2203125 C7.6609375,7.209375 7.440625,7.35 7.3859375,7.5546875 C7.2828125,7.9296875 7.375,8.4421875 7.54375,9.0953125 C7.33125,9.6015625 6.9921875,10.3375 6.74375,10.775 C6.28125,11.0140625 5.6609375,11.3828125 5.56875,11.8484375 C5.55,11.934375 5.571875,12.04375 5.6234375,12.1421875 C5.68125,12.2515625 5.7734375,12.3359375 5.88125,12.3765625 C5.928125,12.39375 5.984375,12.4078125 6.05,12.4078125 C6.325,12.4078125 6.7703125,12.1859375 7.3640625,11.1671875 C7.4546875,11.1375 7.5484375,11.10625 7.6390625,11.075 C8.0640625,10.93125 8.5046875,10.78125 8.903125,10.7140625 C9.34375,10.95 9.8453125,11.1015625 10.1859375,11.1015625 C10.5234375,11.1015625 10.65625,10.9015625 10.70625,10.78125 C10.79375,10.5703125 10.7515625,10.3046875 10.609375,10.1625 C10.403125,9.959375 9.9015625,9.90625 9.1203125,10.003125 C8.7359375,9.76875 8.484375,9.45 8.3015625,8.975 Z M6.5875,11.3484375 C6.3703125,11.6640625 6.20625,11.821875 6.1171875,11.890625 C6.221875,11.6984375 6.4265625,11.4953125 6.5875,11.3484375 Z M7.95625,7.66875 C8.0375,7.8078125 8.0265625,8.228125 7.9640625,8.440625 C7.8875,8.1296875 7.8765625,7.6890625 7.921875,7.6375 C7.934375,7.6390625 7.9453125,7.6484375 7.95625,7.66875 Z M7.93125,9.5515625 C8.0984375,9.840625 8.309375,10.0890625 8.5421875,10.2734375 C8.2046875,10.35 7.896875,10.4765625 7.621875,10.5890625 C7.55625,10.615625 7.4921875,10.6421875 7.4296875,10.6671875 C7.6375,10.290625 7.8109375,9.8640625 7.93125,9.5515625 L7.93125,9.5515625 Z M10.3625,10.575 C10.3640625,10.578125 10.365625,10.5828125 10.35625,10.5890625 L10.353125,10.5890625 L10.35,10.59375 C10.3375,10.6015625 10.209375,10.6765625 9.6578125,10.459375 C10.2921875,10.4296875 10.3609375,10.5734375 10.3625,10.575 L10.3625,10.575 Z M13.353125,4.509375 L9.990625,1.146875 C9.896875,1.053125 9.7703125,1 9.6375,1 L3,1 C2.7234375,1 2.5,1.2234375 2.5,1.5 L2.5,14.5 C2.5,14.7765625 2.7234375,15 3,15 L13,15 C13.2765625,15 13.5,14.7765625 13.5,14.5 L13.5,4.8640625 C13.5,4.73125 13.446875,4.603125 13.353125,4.509375 Z M12.346875,5.09375 L9.40625,5.09375 L9.40625,2.153125 L12.346875,5.09375 Z M12.375,13.875 L3.625,13.875 L3.625,2.125 L8.34375,2.125 L8.34375,5.5 C8.34375,5.8625 8.6375,6.15625 9,6.15625 L12.375,6.15625 L12.375,13.875 Z" id="形状"></path>
            </g>
        </g>
    </g>
</svg>