<?xml version="1.0" encoding="UTF-8"?>
<svg width="16px" height="16px" viewBox="0 0 16 16" version="1.1" xmlns="http://www.w3.org/2000/svg" xmlns:xlink="http://www.w3.org/1999/xlink">
    <title>p-file-sync</title>
    <g id="页面-1" stroke="none" stroke-width="1" fill="none" fill-rule="evenodd">
        <g id="画板" transform="translate(-296.000000, -1656.000000)">
            <g id="p-file-sync" transform="translate(296.000000, 1656.000000)">
                <rect id="矩形" fill="#D8D8D8" opacity="0" x="0" y="0" width="16" height="16"></rect>
                <path d="M13.1756595,1 C13.4518019,1 13.6756595,1.22385763 13.6756595,1.5 L13.6756595,7.67267244 C13.6756595,7.75551515 13.6085022,7.82267244 13.5256595,7.82267244 L12.6600448,7.82267244 C12.5772026,7.82267099 12.5100456,7.75551458 12.5100434,7.67267244 L12.5099904,2.16561089 L3.46482035,2.16561089 L3.46482035,13.4788728 L7.17228262,13.4796968 C7.25511231,13.4797486 7.32224928,13.5469005 7.32228262,13.6297302 L7.32228262,14.4953449 C7.32228262,14.5781876 7.25512533,14.6453449 7.17228262,14.6453449 L2.8,14.6453449 C2.52385763,14.6453449 2.3,14.4214872 2.3,14.1453449 L2.3,1.5 C2.3,1.22385763 2.52385763,1 2.8,1 L13.1756595,1 Z M7.83782975,6.12786803 C7.92067246,6.12786803 7.98782975,6.19502532 7.98782975,6.27786803 L7.98782975,7.04634816 C7.98782975,7.12919088 7.92067246,7.19634816 7.83782975,7.19634816 L4.89439785,7.19634816 C4.81155513,7.19634816 4.74439785,7.12919088 4.74439785,7.04634816 L4.74439785,6.27786803 C4.74439785,6.19502532 4.81155513,6.12786803 4.89439785,6.12786803 L7.83782975,6.12786803 Z M11.0150392,3.76269614 C11.0978819,3.76269614 11.1650392,3.82985342 11.1650392,3.91269614 L11.1650392,4.68117627 C11.1650392,4.76401898 11.0978819,4.83117627 11.0150392,4.83117627 L4.89439785,4.83117627 C4.81155513,4.83117627 4.74439785,4.76401898 4.74439785,4.68117627 L4.74439785,3.91269614 C4.74439785,3.82985342 4.81155513,3.76269614 4.89439785,3.76269614 L11.0150392,3.76269614 Z" id="形状结合" fill="#000000" fill-rule="nonzero"></path>
                <path d="M14.499,11.859 L14.5,11.85 C14.5,13.7001539 13.0001539,15.2 11.15,15.2 C10.0991755,15.2 9.16135516,14.7161716 8.54715456,13.9591303 L8.2803305,14.1681312 C8.22388114,14.2124965 8.1421547,14.2027005 8.09778938,14.1462511 C8.07978653,14.1233447 8.07,14.0950549 8.07,14.0659206 L8.07,12.5047563 C8.07,12.4329592 8.12820298,12.3747563 8.2,12.3747563 C8.21057828,12.3747563 8.22111702,12.3760474 8.23138245,12.378601 L9.74020325,12.7539361 C9.80987686,12.7712682 9.85230808,12.8418002 9.83497604,12.9114738 C9.82799908,12.9395207 9.81187482,12.9644429 9.78915131,12.982302 L9.334,13.34 L9.381991,13.3981579 C9.81272207,13.8896587 10.445119,14.2 11.15,14.2 C12.4441744,14.2 13.4940076,13.153851 13.4999744,11.8610783 L14.499,11.859 Z M11.15,8.5 C12.2075447,8.5 13.1506352,8.99003649 13.7645894,9.75542728 L14.0837395,9.50376073 C14.1401889,9.45939541 14.2219153,9.46919147 14.2662806,9.52564084 C14.2842835,9.54854725 14.29407,9.57683706 14.29407,9.60597134 L14.29407,11.1671357 C14.29407,11.2389327 14.235867,11.2971357 14.16407,11.2971357 C14.1534917,11.2971357 14.142953,11.2958445 14.1326876,11.2932909 L12.6238668,10.9179558 C12.5541931,10.9006238 12.5117619,10.8300917 12.529094,10.7604181 C12.5360709,10.7323712 12.5521952,10.7074491 12.5749187,10.68959 L12.976,10.373 L12.941717,10.3293176 C12.510662,9.82193522 11.867927,9.5 11.15,9.5 C9.90620872,9.5 8.8881042,10.4662799 8.80542152,11.6891046 L8.8,11.859 L7.8,11.8600517 L7.8,11.85 C7.8,9.99984609 9.29984609,8.5 11.15,8.5 Z" id="形状结合" fill="#000000" fill-rule="nonzero"></path>
            </g>
        </g>
    </g>
</svg>