<?xml version="1.0" encoding="UTF-8"?>
<svg width="16px" height="16px" viewBox="0 0 16 16" version="1.1" xmlns="http://www.w3.org/2000/svg" xmlns:xlink="http://www.w3.org/1999/xlink">
    <title>p-file-ppt</title>
    <g id="页面-1" stroke="none" stroke-width="1" fill="none" fill-rule="evenodd">
        <g id="画板" transform="translate(-142.000000, -816.000000)" fill="#000000" fill-rule="nonzero">
            <g id="p-file-ppt" transform="translate(142.000000, 816.000000)">
                <rect id="矩形" opacity="0" x="0" y="0" width="16" height="16"></rect>
                <path d="M6.5,7.34315385 L6.5,11.6556538 C6.5,11.7244038 6.55625,11.7806538 6.625,11.7806538 L7.1328125,11.7806538 C7.2015625,11.7806538 7.2578125,11.7244038 7.2578125,11.6556538 L7.2578125,10.1634663 L8.246875,10.1634663 C9.175,10.1634663 9.75,9.55565385 9.75,8.69315385 C9.75,7.84159135 9.1828125,7.21971635 8.25,7.21971635 L6.625,7.21971635 C6.55625,7.21815385 6.5,7.27440385 6.5,7.34315385 Z M7.865625,9.54002885 L7.2578125,9.54002885 L7.2578125,7.84627885 L8.1359375,7.84627885 C8.6640625,7.84627885 8.978125,8.15409135 8.978125,8.69159135 C8.978125,9.36971635 8.5640625,9.54002885 7.865625,9.54002885 Z M13.353125,4.509375 L9.990625,1.146875 C9.896875,1.053125 9.7703125,1 9.6375,1 L3,1 C2.7234375,1 2.5,1.2234375 2.5,1.5 L2.5,14.5 C2.5,14.7765625 2.7234375,15 3,15 L13,15 C13.2765625,15 13.5,14.7765625 13.5,14.5 L13.5,4.8640625 C13.5,4.73125 13.446875,4.603125 13.353125,4.509375 Z M12.346875,5.09375 L9.40625,5.09375 L9.40625,2.153125 L12.346875,5.09375 Z M12.375,13.875 L3.625,13.875 L3.625,2.125 L8.34375,2.125 L8.34375,5.5 C8.34375,5.8625 8.6375,6.15625 9,6.15625 L12.375,6.15625 L12.375,13.875 Z" id="形状"></path>
            </g>
        </g>
    </g>
</svg>