<?xml version="1.0" encoding="UTF-8"?>
<svg width="16px" height="16px" viewBox="0 0 16 16" version="1.1" xmlns="http://www.w3.org/2000/svg" xmlns:xlink="http://www.w3.org/1999/xlink">
    <title>p-fire</title>
    <g id="页面-1" stroke="none" stroke-width="1" fill="none" fill-rule="evenodd">
        <g id="画板" transform="translate(-260.000000, -890.000000)" fill="#000000" fill-rule="nonzero">
            <g id="p-fire" transform="translate(260.000000, 890.000000)">
                <rect id="矩形" opacity="0" x="0" y="0" width="16" height="16"></rect>
                <path d="M6.38661773,1.00850753 L6.43816188,1.03094034 L7.07513223,1.40571904 C7.7951478,1.83060455 8.39741531,2.40410688 8.87125097,3.11557751 L9.04289823,3.38882546 L9.18698267,3.64570451 C9.75094453,4.70349082 10.0357179,5.68670086 10.0343358,6.57419111 L10.0270109,6.79405209 L10.1660506,6.63169557 C10.3088872,6.4544422 10.4277348,6.27676252 10.5216179,6.10040963 L10.6071432,5.92456393 L10.6758087,5.74999233 L10.8764538,5.17429651 C10.9225074,5.04340743 11.0720117,4.99074638 11.1890908,5.05071274 L11.2368862,5.08340845 L11.6858371,5.49533248 C12.243073,6.00704768 12.6816154,6.61657422 12.9881358,7.30506604 C13.3001187,8.00585187 13.4579316,8.75061812 13.4579316,9.51885727 C13.4579316,10.2605251 13.3116883,10.9786985 13.0226941,11.6556361 C12.7440099,12.3090482 12.3444001,12.8963835 11.8367507,13.3977649 C11.330579,13.9008024 10.7386376,14.2956938 10.0788985,14.5712411 C9.39660273,14.8557931 8.67398769,15 7.92896582,15 C7.18292235,15 6.46032414,14.8554013 5.77898579,14.5696787 C5.12316516,14.2957679 4.53199877,13.9007343 4.02129024,13.3963307 C3.51506531,12.8948075 3.11552656,12.3075766 2.83525095,11.6541247 C2.54624334,10.9771558 2.4,10.2589824 2.4,9.51731458 C2.4,8.67815842 2.59641899,7.84085693 2.96883611,7.09288 C3.29746031,6.43423322 3.76486383,5.83887573 4.32847016,5.35887169 L4.54424888,5.18437906 C4.80478123,4.9837392 5.04506461,4.75027775 5.26095978,4.48877147 C5.56565597,4.11770581 5.80392579,3.70452774 5.96983034,3.25960193 C6.08126638,2.96120099 6.13945786,2.60999722 6.14268838,2.21539485 L6.13801765,1.97350084 L6.1040869,1.23319007 C6.0966605,1.07723573 6.24695962,0.967953549 6.38661773,1.00850753 Z M7.29313475,3.14296002 L7.28080289,3.2127523 C7.24332466,3.37909765 7.19547065,3.54018623 7.137528,3.695773 C6.92399339,4.26886219 6.6162274,4.80290344 6.22363214,5.28186943 C6.01858123,5.53288004 5.79322805,5.76438703 5.55100228,5.97304672 L5.30327933,6.17396679 C4.79033368,6.56772801 4.36824278,7.07904768 4.08507311,7.64990555 C3.79398216,8.23510394 3.6464856,8.86338621 3.6464856,9.51885727 C3.6464856,10.6472886 4.09055581,11.7083204 4.89766507,12.5093953 C5.70727175,13.3114637 6.7820955,13.7519717 7.92896582,13.7519717 C9.07583614,13.7519717 10.1506599,13.3114637 10.9602678,12.509394 C11.7669789,11.7102223 12.211446,10.6478471 12.211446,9.51885727 C12.211446,8.92835043 12.0895543,8.3542063 11.8496592,7.81406494 C11.7446885,7.5770344 11.619343,7.35246377 11.4740933,7.14102414 L11.4033285,7.04483018 L11.3235615,7.16666061 C11.266761,7.24676578 11.2066208,7.32647408 11.1431525,7.40579285 L10.9427753,7.64258794 C10.7212584,7.88927722 10.417242,8.03490595 10.0880517,8.05161484 C9.75805554,8.07004103 9.43919588,7.95773548 9.19249317,7.73620543 C8.90915347,7.47969079 8.76039143,7.1156035 8.78380781,6.73425388 C8.82878423,6.02362632 8.59604808,5.18166907 8.0888555,4.23106124 C7.87345092,3.83084208 7.62505043,3.48428666 7.34013851,3.18819602 L7.29313475,3.14296002 Z" id="形状结合"></path>
            </g>
        </g>
    </g>
</svg>