<?xml version="1.0" encoding="UTF-8"?>
<svg width="16px" height="16px" viewBox="0 0 16 16" version="1.1" xmlns="http://www.w3.org/2000/svg" xmlns:xlink="http://www.w3.org/1999/xlink">
    <title>p-filter</title>
    <g id="页面-1" stroke="none" stroke-width="1" fill="none" fill-rule="evenodd">
        <g id="画板" transform="translate(-323.000000, -1656.000000)">
            <g id="p-filter" transform="translate(323.000000, 1656.000000)">
                <rect id="矩形备份-38" fill="#D8D8D8" opacity="0" x="0" y="0" width="16" height="16"></rect>
                <path d="M14.5006891,1.82 C14.5901361,1.82 14.6779454,1.84399477 14.7549623,1.88948268 C14.9927304,2.02991387 15.0716376,2.33650501 14.9312065,2.57427316 L14.9312065,2.57427316 L10.776,9.609 L10.7760269,13.6661758 C10.7760269,13.9116357 10.5991517,14.1157842 10.3659025,14.1581201 L10.2760269,14.1661758 L5.70894003,14.1661758 C5.43279766,14.1661758 5.20894003,13.9423182 5.20894003,13.6661758 L5.20894003,13.6661758 L5.208,9.64 L1.06782815,2.5727539 C1.0378856,2.5216467 1.01738246,2.46583577 1.00704065,2.40798146 L0.999239166,2.32 C0.999239166,2.04385763 1.22309679,1.82 1.49923917,1.82 L1.49923917,1.82 Z M9.473,10.388 L6.511,10.388 L6.51107314,12.8626528 L9.47311189,12.8626528 L9.473,10.388 Z M13.0944949,3.12179397 L2.89870856,3.12179397 L6.39283208,9.08495115 L9.57131209,9.08495115 L13.0944949,3.12179397 Z" id="形状结合" fill="#000000" fill-rule="nonzero"></path>
            </g>
        </g>
    </g>
</svg>