<?xml version="1.0" encoding="UTF-8"?>
<svg width="16px" height="16px" viewBox="0 0 16 16" version="1.1" xmlns="http://www.w3.org/2000/svg" xmlns:xlink="http://www.w3.org/1999/xlink">
    <title>p-file-search</title>
    <g id="页面-1" stroke="none" stroke-width="1" fill="none" fill-rule="evenodd">
        <g id="画板" transform="translate(-275.000000, -1656.000000)">
            <g id="p-file-search" transform="translate(275.000000, 1656.000000)">
                <rect id="矩形" fill="#D8D8D8" opacity="0" x="0" y="0" width="16" height="16"></rect>
                <path d="M13.1756595,1 C13.4518019,1 13.6756595,1.22385763 13.6756595,1.5 L13.6756595,7.67267244 C13.6756595,7.75551515 13.6085022,7.82267244 13.5256595,7.82267244 L12.6600448,7.82267244 C12.5772026,7.82267099 12.5100456,7.75551458 12.5100434,7.67267244 L12.5099904,2.16561089 L3.46482035,2.16561089 L3.46482035,13.4788728 L7.17228262,13.4796968 C7.25511231,13.4797486 7.32224928,13.5469005 7.32228262,13.6297302 L7.32228262,14.4953449 C7.32228262,14.5781876 7.25512533,14.6453449 7.17228262,14.6453449 L2.8,14.6453449 C2.52385763,14.6453449 2.3,14.4214872 2.3,14.1453449 L2.3,1.5 C2.3,1.22385763 2.52385763,1 2.8,1 L13.1756595,1 Z M7.83782975,6.12786803 C7.92067246,6.12786803 7.98782975,6.19502532 7.98782975,6.27786803 L7.98782975,7.04634816 C7.98782975,7.12919088 7.92067246,7.19634816 7.83782975,7.19634816 L4.89439785,7.19634816 C4.81155513,7.19634816 4.74439785,7.12919088 4.74439785,7.04634816 L4.74439785,6.27786803 C4.74439785,6.19502532 4.81155513,6.12786803 4.89439785,6.12786803 L7.83782975,6.12786803 Z M11.0150392,3.76269614 C11.0978819,3.76269614 11.1650392,3.82985342 11.1650392,3.91269614 L11.1650392,4.68117627 C11.1650392,4.76401898 11.0978819,4.83117627 11.0150392,4.83117627 L4.89439785,4.83117627 C4.81155513,4.83117627 4.74439785,4.76401898 4.74439785,4.68117627 L4.74439785,3.91269614 C4.74439785,3.82985342 4.81155513,3.76269614 4.89439785,3.76269614 L11.0150392,3.76269614 Z" id="形状结合" fill="#000000" fill-rule="nonzero"></path>
                <path d="M10.55,8.4 C12.0687831,8.4 13.3,9.63121694 13.3,11.15 C13.3,11.7715299 13.0938102,12.3449016 12.7461017,12.8054441 L14.3103984,14.3690309 C14.368977,14.4276096 14.368977,14.5225843 14.3103984,14.5811629 L13.8154236,15.0761377 C13.756845,15.1347163 13.6618703,15.1347163 13.6032916,15.0761377 L12.0082362,13.4819652 C11.5855234,13.7468564 11.085646,13.9 10.55,13.9 C9.03121694,13.9 7.8,12.6687831 7.8,11.15 C7.8,9.63121694 9.03121694,8.4 10.55,8.4 Z M10.55,9.4 C9.58350169,9.4 8.8,10.1835017 8.8,11.15 C8.8,12.1164983 9.58350169,12.9 10.55,12.9 C11.5164983,12.9 12.3,12.1164983 12.3,11.15 C12.3,10.1835017 11.5164983,9.4 10.55,9.4 Z" id="形状结合" fill="#000000" fill-rule="nonzero"></path>
            </g>
        </g>
    </g>
</svg>