<?xml version="1.0" encoding="UTF-8"?>
<svg width="16px" height="16px" viewBox="0 0 16 16" version="1.1" xmlns="http://www.w3.org/2000/svg" xmlns:xlink="http://www.w3.org/1999/xlink">
    <title>p-file-zip</title>
    <g id="页面-1" stroke="none" stroke-width="1" fill="none" fill-rule="evenodd">
        <g id="画板" transform="translate(-349.000000, -817.000000)" fill="#000000" fill-rule="nonzero">
            <g id="p-file-zip" transform="translate(349.000000, 817.000000)">
                <rect id="矩形" opacity="0" x="0" y="0" width="16" height="16"></rect>
                <path d="M4.625,6.125 L5.625,6.125 L5.625,7.125 L4.625,7.125 L4.625,6.125 Z M4.625,9.09375 L4.625,11.59375 L6.625,11.59375 L6.625,9.09375 L5.625,9.09375 L5.625,8.125 L4.625,8.125 L4.625,9.09375 Z M5.875,9.84375 L5.875,10.84375 L5.375,10.84375 L5.375,9.84375 L5.875,9.84375 Z M5.625,5.125 L6.625,5.125 L6.625,6.125 L5.625,6.125 L5.625,5.125 Z M4.625,4.125 L5.625,4.125 L5.625,5.125 L4.625,5.125 L4.625,4.125 Z M5.625,7.125 L6.625,7.125 L6.625,8.125 L5.625,8.125 L5.625,7.125 Z M5.625,3.125 L6.625,3.125 L6.625,4.125 L5.625,4.125 L5.625,3.125 Z M13.353125,4.509375 L9.990625,1.146875 C9.896875,1.053125 9.7703125,1 9.6375,1 L3,1 C2.7234375,1 2.5,1.2234375 2.5,1.5 L2.5,14.5 C2.5,14.7765625 2.7234375,15 3,15 L13,15 C13.2765625,15 13.5,14.7765625 13.5,14.5 L13.5,4.8640625 C13.5,4.73125 13.446875,4.603125 13.353125,4.509375 Z M12.346875,5.09375 L9.40625,5.09375 L9.40625,2.153125 L12.346875,5.09375 Z M12.375,13.875 L3.625,13.875 L3.625,2.125 L4.625,2.125 L4.625,3.125 L5.625,3.125 L5.625,2.125 L8.34375,2.125 L8.34375,5.5 C8.34375,5.8625 8.6375,6.15625 9,6.15625 L12.375,6.15625 L12.375,13.875 Z" id="形状"></path>
            </g>
        </g>
    </g>
</svg>