<?xml version="1.0" encoding="UTF-8"?>
<svg width="16px" height="16px" viewBox="0 0 16 16" version="1.1" xmlns="http://www.w3.org/2000/svg" xmlns:xlink="http://www.w3.org/1999/xlink">
    <title>p-flag</title>
    <g id="页面-1" stroke="none" stroke-width="1" fill="none" fill-rule="evenodd">
        <g id="画板" transform="translate(-468.000000, -890.000000)" fill="#000000" fill-rule="nonzero">
            <g id="p-flag" transform="translate(468.000000, 890.000000)">
                <rect id="矩形" opacity="0" x="0" y="0" width="16" height="16"></rect>
                <path d="M14.44,4.3775 L9.96,4.3775 L9.96,2.4 C9.96,2.09025 9.70975,1.84 9.4,1.84 L2.26,1.84 L2.26,1.14 C2.26,1.063 2.197,1 2.12,1 L1.14,1 C1.063,1 1,1.063 1,1.14 L1,14.86 C1,14.937 1.063,15 1.14,15 L2.12,15 C2.197,15 2.26,14.937 2.26,14.86 L2.26,10.24 L6.6,10.24 L6.6,12.2175 C6.6,12.52725 6.85025,12.7775 7.16,12.7775 L14.44,12.7775 C14.74975,12.7775 15,12.52725 15,12.2175 L15,4.9375 C15,4.62775 14.74975,4.3775 14.44,4.3775 Z M2.26,8.98 L2.26,3.1 L8.7,3.1 L8.7,8.98 L2.26,8.98 Z M13.74,11.5175 L7.86,11.5175 L7.86,10.24 L9.82,10.24 C9.897,10.24 9.96,10.177 9.96,10.1 L9.96,5.6375 L13.74,5.6375 L13.74,11.5175 Z" id="形状"></path>
            </g>
        </g>
    </g>
</svg>