<?xml version="1.0" encoding="UTF-8"?>
<svg width="16px" height="16px" viewBox="0 0 16 16" version="1.1" xmlns="http://www.w3.org/2000/svg" xmlns:xlink="http://www.w3.org/1999/xlink">
    <title>p-folder-open</title>
    <g id="页面-1" stroke="none" stroke-width="1" fill="none" fill-rule="evenodd">
        <g id="画板" transform="translate(-409.000000, -890.000000)" fill="#000000" fill-rule="nonzero">
            <g id="p-folder-open" transform="translate(409.000000, 890.000000)">
                <rect id="矩形" opacity="0" x="0" y="0" width="16" height="16"></rect>
                <path d="M14.6314633,6.81 L12.7414633,6.81 L12.7414633,4.822 C12.7414633,4.51225 12.4912133,4.262 12.1814633,4.262 L8.0575,4.262 L6.00475,2.2985 C5.9785,2.274 5.9435,2.26 5.9085,2.26 L1.46,2.26 C1.15025,2.26 0.9,2.51025 0.9,2.82 L0.9,13.18 C0.9,13.48975 1.15025,13.74 1.46,13.74 L12.2864633,13.74 C12.5139633,13.74 12.7204633,13.60175 12.8062133,13.39 L15.1512133,7.58 C15.1774633,7.5135 15.1914633,7.44175 15.1914633,7.37 C15.1914633,7.06025 14.9412133,6.81 14.6314633,6.81 Z M2.16,3.52 L5.45875,3.52 L7.55175,5.522 L11.7375925,5.522 L11.7375925,6.81 L3.945,6.81 C3.7175,6.81 3.511,6.94825 3.42525,7.16 L2.16,10.296 L2.16,3.52 Z M12.1453425,12.48 L2.5625,12.48 L4.37025,8 L13.9548425,8 L12.1453425,12.48 Z" id="形状"></path>
            </g>
        </g>
    </g>
</svg>