<?xml version="1.0" encoding="UTF-8"?>
<svg width="16px" height="16px" viewBox="0 0 16 16" version="1.1" xmlns="http://www.w3.org/2000/svg" xmlns:xlink="http://www.w3.org/1999/xlink">
    <title>p-folder-add</title>
    <g id="页面-1" stroke="none" stroke-width="1" fill="none" fill-rule="evenodd">
        <g id="画板" transform="translate(-438.000000, -890.000000)" fill="#000000" fill-rule="nonzero">
            <g id="p-folder-add" transform="translate(438.000000, 890.000000)">
                <rect id="矩形" opacity="0" x="0" y="0" width="16" height="16"></rect>
                <path d="M7.51,6.79425 L7.51,8.28 L6.03125,8.28 C5.9595,8.28 5.9,8.33425 5.9,8.4025 L5.9,9.1375 C5.9,9.204 5.9595,9.26 6.03125,9.26 L7.51,9.26 L7.51,10.74575 C7.51,10.814 7.566,10.87 7.6325,10.87 L8.3675,10.87 C8.43575,10.87 8.49,10.814 8.49,10.74575 L8.49,9.26 L9.96875,9.26 C10.0405,9.26 10.1,9.204 10.1,9.1375 L10.1,8.4025 C10.1,8.33425 10.0405,8.28 9.96875,8.28 L8.49,8.28 L8.49,6.79425 C8.49,6.726 8.43575,6.67 8.3675,6.67 L7.6325,6.67 C7.566,6.67 7.51,6.726 7.51,6.79425 Z M14.44,4.262 L8.1575,4.262 L6.10475,2.2985 C6.0785,2.274 6.0435,2.26 6.0085,2.26 L1.56,2.26 C1.25025,2.26 1,2.51025 1,2.82 L1,13.18 C1,13.48975 1.25025,13.74 1.56,13.74 L14.44,13.74 C14.74975,13.74 15,13.48975 15,13.18 L15,4.822 C15,4.51225 14.74975,4.262 14.44,4.262 Z M13.74,12.48 L2.26,12.48 L2.26,3.52 L5.55875,3.52 L7.65175,5.522 L13.74,5.522 L13.74,12.48 Z" id="形状"></path>
            </g>
        </g>
    </g>
</svg>