<?xml version="1.0" encoding="UTF-8"?>
<svg width="16px" height="16px" viewBox="0 0 16 16" version="1.1" xmlns="http://www.w3.org/2000/svg" xmlns:xlink="http://www.w3.org/1999/xlink">
    <title>p-font-colors</title>
    <g id="页面-1" stroke="none" stroke-width="1" fill="none" fill-rule="evenodd">
        <g id="画板" transform="translate(-383.000000, -1656.000000)">
            <g id="p-font-colors" transform="translate(383.000000, 1656.000000)">
                <rect id="矩形备份-38" fill="#D8D8D8" opacity="0" x="0" y="0" width="16" height="16"></rect>
                <path d="M14.88,13.4460837 C14.9462742,13.4460837 15,13.4998095 15,13.5660837 L15,14.7588626 C15,14.8251367 14.9462742,14.8788626 14.88,14.8788626 L1.12,14.8788626 C1.05372583,14.8788626 1,14.8251367 1,14.7588626 L1,13.5660837 C1,13.4998095 1.05372583,13.4460837 1.12,13.4460837 L14.88,13.4460837 Z M8.88437973,1.125 C8.93592872,1.125 8.98171834,1.15792248 8.99813321,1.20678812 L12.5457498,11.7677365 C12.5668536,11.8305608 12.5330325,11.898598 12.4702082,11.9197019 C12.457893,11.9238388 12.4449877,11.9259484 12.4319963,11.9259484 L11.1730617,11.9259484 C11.1215034,11.9259484 11.0757078,11.8930143 11.0593002,11.8441365 L10.106,9.006 L5.911,9.005 L4.9425172,11.8447035 C4.9259371,11.8932905 4.88028571,11.9259484 4.82894766,11.9259484 L3.57038443,11.9259484 C3.50411026,11.9259484 3.45038443,11.8722226 3.45038443,11.8059484 C3.45038443,11.792769 3.45255556,11.7796795 3.45681061,11.7672058 L7.0593872,1.20625742 C7.07596351,1.15766399 7.1216181,1.125 7.17296102,1.125 L8.88437973,1.125 Z M8.02612716,2.80837109 L6.4,7.572 L9.625,7.573 L8.02612716,2.80837109 Z" id="形状结合" fill="#000000" fill-rule="nonzero"></path>
            </g>
        </g>
    </g>
</svg>