<?xml version="1.0" encoding="UTF-8"?>
<svg width="16px" height="16px" viewBox="0 0 16 16" version="1.1" xmlns="http://www.w3.org/2000/svg" xmlns:xlink="http://www.w3.org/1999/xlink">
    <title>p-forward</title>
    <g id="页面-1" stroke="none" stroke-width="1" fill="none" fill-rule="evenodd">
        <g id="画板" transform="translate(-141.000000, -890.000000)" fill="#000000" fill-rule="nonzero">
            <g id="p-forward" transform="translate(141.000000, 890.000000)">
                <rect id="矩形" opacity="0" x="0" y="0" width="16" height="16"></rect>
                <path d="M14.8638334,7.68308824 L8.57720402,2.08694543 C8.34315066,1.87943026 7.99972657,2.06664503 7.99972657,2.40272939 L7.99972657,13.5972706 C7.99972657,13.933355 8.34315066,14.1205697 8.57720402,13.9130546 L14.8638334,8.31465616 C15.0453889,8.15225298 15.0453889,7.84549142 14.8638334,7.68308824 Z M7.86410687,7.68308824 L1.57747744,2.08694543 C1.34342408,1.87943026 1,2.06664503 1,2.40272939 L1,13.5972706 C1,13.933355 1.34342408,14.1205697 1.57747744,13.9130546 L7.86410687,8.31465616 C7.95379087,8.23345457 7.99972657,8.11616338 7.99972657,7.9988722 C7.99972657,7.88158102 7.95379087,7.76428983 7.86410687,7.68308824 L7.86410687,7.68308824 Z" id="形状"></path>
            </g>
        </g>
    </g>
</svg>