<?xml version="1.0" encoding="UTF-8"?>
<svg width="16px" height="16px" viewBox="0 0 16 16" version="1.1" xmlns="http://www.w3.org/2000/svg" xmlns:xlink="http://www.w3.org/1999/xlink">
    <title>p-font-size</title>
    <g id="页面-1" stroke="none" stroke-width="1" fill="none" fill-rule="evenodd">
        <g id="画板" transform="translate(-356.000000, -1656.000000)">
            <g id="p-font-size" transform="translate(356.000000, 1656.000000)">
                <rect id="矩形备份-38" fill="#D8D8D8" opacity="0" x="0" y="0" width="16" height="16"></rect>
                <path d="M10.369776,2.06 C10.4526187,2.06 10.519776,2.12715729 10.519776,2.21 L10.519776,4.36804279 C10.519776,4.45088551 10.4526187,4.51804279 10.369776,4.51804279 L9.40961348,4.51804279 C9.32679077,4.51799155 9.25964177,4.45086548 9.25956224,4.3680428 L9.25920432,3.32016254 L6.389,3.32 L6.389,12.68 L7.98025619,12.6808428 C8.06309891,12.6808428 8.13025619,12.7480001 8.13025619,12.8308428 L8.13025619,13.7910054 C8.13025619,13.8738481 8.06309891,13.9410054 7.98025619,13.9410054 L3.54823471,13.9410054 C3.46539199,13.9410054 3.39823471,13.8738481 3.39823471,13.7910054 L3.39823471,12.8308428 C3.39823471,12.7480001 3.46539199,12.6808428 3.54823471,12.6808428 L5.129,12.68 L5.129,3.32 L2.25948606,3.32016254 L2.26007783,4.36804282 C2.26018301,4.43431694 2.21724766,4.49057669 2.15765385,4.51045358 L2.11016254,4.51804279 L1.15,4.51804279 C1.06715729,4.51804279 1,4.45088551 1,4.36804279 L1,2.21 C1,2.12715729 1.06715729,2.06 1.15,2.06 L10.369776,2.06 Z M14.85,6.37159029 C14.9328427,6.37159029 15,6.43874758 15,6.52159029 L15,8.38885423 C15,8.47169694 14.9328427,8.53885423 14.85,8.53885423 L14.0885281,8.53885423 C14.0057076,8.53879744 13.9385595,8.47167476 13.9384713,8.38885424 L13.9381189,7.45789758 L12.9124734,7.45759029 L12.9124734,12.8155903 L13.6869424,12.8158612 C13.7697851,12.8158612 13.8369424,12.8830185 13.8369424,12.9658612 L13.8369424,13.7910054 C13.8369424,13.8738481 13.7697851,13.9410054 13.6869424,13.9410054 L10.944628,13.9410054 C10.8617853,13.9410054 10.794628,13.8738481 10.794628,13.7910054 L10.794628,12.9658612 C10.794628,12.8830185 10.8617853,12.8158612 10.944628,12.8158612 L11.7294734,12.8155903 L11.7294734,7.45759029 L10.702796,7.45789758 L10.7033786,8.38885426 C10.7034952,8.45512837 10.6605647,8.51139075 10.6009724,8.53127128 L10.5535194,8.53893634 L9.7954734,8.53885423 C9.71263069,8.53885423 9.6454734,8.47169694 9.6454734,8.38885423 L9.6454734,6.52159029 C9.6454734,6.43874758 9.71263069,6.37159029 9.7954734,6.37159029 L14.85,6.37159029 Z" id="形状结合" fill="#000000" fill-rule="nonzero"></path>
            </g>
        </g>
    </g>
</svg>