<?xml version="1.0" encoding="UTF-8"?>
<svg width="16px" height="16px" viewBox="0 0 16 16" version="1.1" xmlns="http://www.w3.org/2000/svg" xmlns:xlink="http://www.w3.org/1999/xlink">
    <title>p-folder</title>
    <g id="页面-1" stroke="none" stroke-width="1" fill="none" fill-rule="evenodd">
        <g id="画板" transform="translate(-379.000000, -890.000000)" fill="#000000" fill-rule="nonzero">
            <g id="p-folder" transform="translate(379.000000, 890.000000)">
                <rect id="矩形" opacity="0" x="0" y="0" width="16" height="16"></rect>
                <path d="M14.44,4.262 L8.1575,4.262 L6.10475,2.2985 C6.0785,2.274 6.0435,2.26 6.0085,2.26 L1.56,2.26 C1.25025,2.26 1,2.51025 1,2.82 L1,13.18 C1,13.48975 1.25025,13.74 1.56,13.74 L14.44,13.74 C14.74975,13.74 15,13.48975 15,13.18 L15,4.822 C15,4.51225 14.74975,4.262 14.44,4.262 Z M13.74,12.48 L2.26,12.48 L2.26,3.52 L5.55875,3.52 L7.65175,5.522 L13.74,5.522 L13.74,12.48 Z" id="形状"></path>
            </g>
        </g>
    </g>
</svg>