<?xml version="1.0" encoding="UTF-8"?>
<svg width="16px" height="16px" viewBox="0 0 16 16" version="1.1" xmlns="http://www.w3.org/2000/svg" xmlns:xlink="http://www.w3.org/1999/xlink">
    <title>p-frown</title>
    <g id="页面-1" stroke="none" stroke-width="1" fill="none" fill-rule="evenodd">
        <g id="画板" transform="translate(-171.000000, -890.000000)" fill="#000000" fill-rule="nonzero">
            <g id="p-frown" transform="translate(171.000000, 890.000000)">
                <rect id="矩形" opacity="0" x="0" y="0" width="16" height="16"></rect>
                <path d="M8,1 C11.8656276,1 15,4.13437239 15,8 C15,11.8656276 11.8656276,15 8,15 C4.13437239,15 1,11.8656276 1,8 C1,4.13437239 4.13437239,1 8,1 Z M8,2.27836879 C7.22642685,2.27836879 6.47743897,2.42901837 5.77449182,2.72588656 C5.09198032,3.01553027 4.48010626,3.42809051 3.9548741,3.95332268 C3.42786435,4.48033242 3.01457982,5.09270621 2.7274511,5.77290946 C2.42930974,6.47676896 2.27836879,7.22566826 2.27836879,8 C2.27836879,8.77357315 2.42901837,9.52256103 2.72588656,10.2255082 C3.01553027,10.9080197 3.42809051,11.5198937 3.95332268,12.0451259 C4.48033242,12.5721357 5.09270621,12.9854202 5.77290946,13.2725489 C6.47676896,13.5706903 7.22566826,13.7216312 8,13.7216312 C8.7745184,13.7216312 9.52338445,13.5706189 10.2255082,13.272562 C10.9080197,12.9829183 11.5198937,12.5703581 12.0451773,12.0450745 C12.5717498,11.5200417 12.9852061,10.907801 13.2725489,10.2270905 C13.5706903,9.52323104 13.7216312,8.77433174 13.7216312,8 C13.7216312,7.22642685 13.5709816,6.47743897 13.2741134,5.77449182 C12.9844697,5.09198032 12.5719095,4.48010626 12.0466773,3.9548741 C11.5196676,3.42786435 10.9072938,3.01457982 10.2270905,2.7274511 C9.52323104,2.42930974 8.77433174,2.27836879 8,2.27836879 Z M8,8.27615248 C9.3479094,8.27615248 10.4619488,9.33596658 10.531868,10.6755918 C10.5353333,10.7552936 10.485827,10.82403 10.414887,10.8483364 L10.358156,10.8577128 L9.61192376,10.8577128 C9.52048212,10.8577128 9.44323451,10.7877278 9.43675159,10.696963 C9.38101248,9.95126413 8.75382176,9.36835106 8,9.36835106 C7.24670775,9.36835106 6.62053411,9.95074271 6.56326036,10.6967995 C6.55806446,10.7695421 6.50758681,10.828881 6.44078547,10.8497069 L6.38807624,10.8577128 L5.64184397,10.8577128 C5.54223694,10.8577128 5.46380034,10.7752191 5.46815259,10.6751605 C5.53805121,9.33596658 6.6520906,8.27615248 8,8.27615248 Z M5.26950355,5.79388298 C5.70819781,5.79388298 6.06382979,6.14951495 6.06382979,6.58820922 C6.06382979,7.02690349 5.70819781,7.38253546 5.26950355,7.38253546 C4.83080928,7.38253546 4.4751773,7.02690349 4.4751773,6.58820922 C4.4751773,6.14951495 4.83080928,5.79388298 5.26950355,5.79388298 Z M10.7304965,5.79388298 C11.1691907,5.79388298 11.5248227,6.14951494 11.5248227,6.58820922 C11.5248227,7.0269035 11.1691907,7.38253546 10.7304965,7.38253546 C10.2918022,7.38253546 9.93617021,7.0269035 9.93617021,6.58820922 C9.93617021,6.14951494 10.2918022,5.79388298 10.7304965,5.79388298 Z" id="形状结合"></path>
            </g>
        </g>
    </g>
</svg>