<?xml version="1.0" encoding="UTF-8"?>
<svg width="16px" height="16px" viewBox="0 0 16 16" version="1.1" xmlns="http://www.w3.org/2000/svg" xmlns:xlink="http://www.w3.org/1999/xlink">
    <title>p-funnel-plot</title>
    <g id="页面-1" stroke="none" stroke-width="1" fill="none" fill-rule="evenodd">
        <g id="画板" transform="translate(-200.000000, -890.000000)" fill="#000000" fill-rule="nonzero">
            <g id="p-funnel-plot" transform="translate(200.000000, 890.000000)">
                <rect id="矩形" opacity="0" x="0" y="0" width="16" height="16"></rect>
                <path d="M14.44196,2.21 L1.55727717,2.21 C1.12848781,2.21 0.860713227,2.6772929 1.07598299,3.05007712 L5.14685669,10.1452284 L5.14685669,14.1810989 C5.14685669,14.4908774 5.39537951,14.7411503 5.70340778,14.7411503 L10.2958294,14.7411503 C10.6038576,14.7411503 10.8523805,14.4908774 10.8523805,14.1810989 L10.8523805,10.1452284 L14.9250043,3.05007712 C15.1385239,2.6772929 14.8707493,2.21 14.44196,2.21 Z M9.59926542,13.4810347 L6.39997173,13.4810347 L6.39997173,10.8907969 L9.60101558,10.8907969 L9.60101558,13.4810347 L9.59926542,13.4810347 Z M9.76728084,9.51517061 L9.62026735,9.77069407 L6.37721964,9.77069407 L6.23020614,9.51517061 L4.89133323,7.18045628 L11.1079039,7.18045628 L9.76728084,9.51517061 Z M11.7502129,6.06035346 L4.24902427,6.06035346 L2.76138771,3.47011568 L13.2378494,3.47011568 L11.7502129,6.06035346 Z" id="形状"></path>
            </g>
        </g>
    </g>
</svg>