<?xml version="1.0" encoding="UTF-8"?>
<svg width="16px" height="16px" viewBox="0 0 16 16" version="1.1" xmlns="http://www.w3.org/2000/svg" xmlns:xlink="http://www.w3.org/1999/xlink">
    <title>p-fund</title>
    <g id="页面-1" stroke="none" stroke-width="1" fill="none" fill-rule="evenodd">
        <g id="画板" transform="translate(-230.000000, -890.000000)" fill="#000000" fill-rule="nonzero">
            <g id="p-fund" transform="translate(230.000000, 890.000000)">
                <rect id="矩形" opacity="0" x="0" y="0" width="16" height="16"></rect>
                <path d="M14.4539007,2.5125 C14.7257182,2.5125 14.9506046,2.71020467 14.9928637,2.96991778 L15,3.05859929 L15,12.9876773 C15,13.2594948 14.8022953,13.4843812 14.5425822,13.5266403 L14.4539007,13.5337766 L1.54609929,13.5337766 C1.27428178,13.5337766 1.04939536,13.3360719 1.00713625,13.0763588 L1,12.9876773 L1,3.05859929 C1,2.78678178 1.19770467,2.56189536 1.45741778,2.51963625 L1.54609929,2.5125 L14.4539007,2.5125 Z M2.21631206,3.67916667 L2.16666667,12.3174645 L13.7836879,12.3671099 L13.7836879,3.7283156 L2.21631206,3.67916667 Z M12.4396039,4.76592618 L12.4845727,4.79831739 L13.0554947,5.36923938 C13.10948,5.42322474 13.1202771,5.50477769 13.0878919,5.56978404 L13.0555065,5.61474703 L8.4477819,10.2255745 C8.39379653,10.2795598 8.31224358,10.2903569 8.24722333,10.2579578 L8.2022471,10.2255591 L6.49764892,8.44920034 L3.82145211,11.1253971 C3.76746675,11.1793825 3.6859138,11.1901796 3.62085262,11.1577395 L3.57583738,11.1253016 L3.00656207,10.5529237 C2.95257671,10.4989384 2.94177964,10.4173854 2.97416668,10.3523772 L3.00655391,10.3074124 L6.3405603,6.97185463 C6.39454566,6.91786927 6.47609862,6.90707219 6.54111886,6.93947126 L6.5860951,6.97186997 L8.32567376,8.71171986 L12.2390532,4.79831739 C12.2930386,4.74433203 12.3745915,4.73353496 12.4396039,4.76592618 Z" id="形状结合"></path>
            </g>
        </g>
    </g>
</svg>