<?xml version="1.0" encoding="UTF-8"?>
<svg width="16px" height="16px" viewBox="0 0 16 16" version="1.1" xmlns="http://www.w3.org/2000/svg" xmlns:xlink="http://www.w3.org/1999/xlink">
    <title>p-fullscreen-exit</title>
    <g id="页面-1" stroke="none" stroke-width="1" fill="none" fill-rule="evenodd">
        <g id="画板" transform="translate(-156.000000, -1698.000000)">
            <g id="p-fullscreen-exit" transform="translate(156.000000, 1698.000000)">
                <rect id="矩形" fill="#D8D8D8" opacity="0" x="0" y="0" width="16" height="16"></rect>
                <path d="M10.1577527,10.02 L10.174784,10.0210171 L13.0711724,10.3682049 L13.1183588,10.3817335 C13.1764392,10.4091232 13.213218,10.4714238 13.2051556,10.5386837 L13.2051556,10.5386837 L13.1973773,10.5718237 C13.1897938,10.5931405 13.1775364,10.6126524 13.1613387,10.6288501 L13.1613387,10.6288501 L12.3486429,11.4428088 L14.9638116,14.0412124 L14.9869644,14.0731059 C15.0100422,14.1190022 15.002485,14.1763841 14.9642361,14.2147757 L14.9642361,14.2147757 L14.2161073,14.9656968 C14.1683356,15.0136467 14.0907519,15.0138365 14.0427463,14.9661208 L14.0427463,14.9661208 L11.4256769,12.3657748 L10.6235034,13.1666854 L10.5837091,13.1954257 C10.526285,13.2241659 10.4545754,13.2145858 10.406675,13.1666854 C10.3823785,13.142389 10.3669477,13.1106353 10.3628582,13.0765191 L10.3628582,13.0765191 L10.0156704,10.1801307 L10.0175306,10.1343534 C10.0295585,10.075639 10.0779455,10.028542 10.1407214,10.0210171 C10.1520351,10.019661 10.1634703,10.019661 10.174784,10.0210171 Z M5.85927861,10.0210171 C5.92205451,10.028542 5.97044152,10.075639 5.98246936,10.1343534 L5.9843296,10.1801307 L5.63714182,13.0765191 C5.63305233,13.1106353 5.61762146,13.142389 5.59332497,13.1666854 C5.54542457,13.2145858 5.47371499,13.2241659 5.41629092,13.1954257 L5.37649663,13.1666854 L4.57432308,12.3657748 L1.95725374,14.9661208 C1.90924809,15.0138365 1.83166442,15.0136467 1.78389275,14.9656968 L1.0357639,14.2147757 C0.997515026,14.1763841 0.989957832,14.1190022 1.01303555,14.0731059 L1.03618838,14.0412124 L3.65135709,11.4428088 L2.83866128,10.6288501 C2.82246362,10.6126524 2.81020623,10.5931405 2.80262268,10.5718237 L2.79484443,10.5386837 C2.78678204,10.4714238 2.82356081,10.4091232 2.88164115,10.3817335 L2.92882764,10.3682049 L5.82521603,10.0210171 C5.83652973,10.019661 5.84796491,10.019661 5.85927861,10.0210171 Z M14.2161073,1.036087 L14.9642361,1.78700806 C15.002485,1.82539969 15.0100422,1.88278153 14.9869644,1.92867789 L14.9638116,1.96057132 L12.3486429,4.55897499 L13.1613387,5.37293366 C13.1775364,5.38913133 13.1897938,5.40864329 13.1973773,5.42996002 L13.2051556,5.46310002 C13.213218,5.53035992 13.1764392,5.59266052 13.1183588,5.6200503 L13.0711724,5.63357885 L10.174784,5.98076664 C10.1634703,5.9821228 10.1520351,5.9821228 10.1407214,5.98076664 C10.0779455,5.97324174 10.0295585,5.92614472 10.0175306,5.86743032 L10.0156704,5.82165307 L10.3628582,2.92526468 C10.3669477,2.89114847 10.3823785,2.85939481 10.406675,2.83509832 C10.4545754,2.78719792 10.526285,2.77761784 10.5837091,2.80635808 L10.6235034,2.83509832 L11.4256769,3.636009 L14.0427463,1.03566301 C14.0907519,0.987947284 14.1683356,0.98813703 14.2161073,1.036087 Z M1.78389275,1.036087 C1.83166442,0.98813703 1.90924809,0.987947284 1.95725374,1.03566301 L1.95725374,1.03566301 L4.57432308,3.636009 L5.37649663,2.83509832 L5.41629092,2.80635808 C5.47371499,2.77761784 5.54542457,2.78719792 5.59332497,2.83509832 C5.61762146,2.85939481 5.63305233,2.89114847 5.63714182,2.92526468 L5.63714182,2.92526468 L5.9843296,5.82165307 L5.98246936,5.86743032 C5.97044152,5.92614472 5.92205451,5.97324174 5.85927861,5.98076664 C5.84796491,5.9821228 5.83652973,5.9821228 5.82521603,5.98076664 L5.82521603,5.98076664 L2.92882764,5.63357885 L2.88164115,5.6200503 C2.82356081,5.59266052 2.78678204,5.53035992 2.79484443,5.46310002 L2.79484443,5.46310002 L2.80262268,5.42996002 C2.81020623,5.40864329 2.82246362,5.38913133 2.83866128,5.37293366 L2.83866128,5.37293366 L3.65135709,4.55897499 L1.03618838,1.96057132 L1.01303555,1.92867789 C0.989957832,1.88278153 0.997515026,1.82539969 1.0357639,1.78700806 L1.0357639,1.78700806 Z" id="形状结合" fill="#000000"></path>
            </g>
        </g>
    </g>
</svg>