<?xml version="1.0" encoding="UTF-8"?>
<svg width="16px" height="16px" viewBox="0 0 16 16" version="1.1" xmlns="http://www.w3.org/2000/svg" xmlns:xlink="http://www.w3.org/1999/xlink">
    <title>p-fullscreen</title>
    <g id="页面-1" stroke="none" stroke-width="1" fill="none" fill-rule="evenodd">
        <g id="画板" transform="translate(-184.000000, -1698.000000)">
            <g id="p-fullscreen" transform="translate(184.000000, 1698.000000)">
                <rect id="矩形" fill="#D8D8D8" opacity="0" x="0" y="0" width="16" height="16"></rect>
                <path d="M10.7995631,10.056087 C10.8473348,10.008137 10.9249185,10.0079473 10.9729241,10.055663 L10.9729241,10.055663 L13.5899935,12.656009 L14.392167,11.8550983 L14.4319613,11.8263581 C14.4893854,11.7976178 14.561095,11.8071979 14.6089954,11.8550983 C14.6332919,11.8793948 14.6487227,11.9111485 14.6528122,11.9452647 L14.6528122,11.9452647 L15,14.8416531 L14.9981398,14.8874303 C14.9861119,14.9461447 14.9377249,14.9932417 14.874949,15.0007666 C14.8636353,15.0021228 14.8522001,15.0021228 14.8408864,15.0007666 L14.8408864,15.0007666 L11.944498,14.6535789 L11.8973115,14.6400503 C11.8392312,14.6126605 11.8024524,14.5503599 11.8105148,14.4831 L11.8105148,14.4831 L11.8182931,14.44996 C11.8258766,14.4286433 11.838134,14.4091313 11.8543317,14.3929337 L11.8543317,14.3929337 L12.6670275,13.578975 L10.0518588,10.9805713 L10.0287059,10.9486779 C10.0056282,10.9027815 10.0131854,10.8453997 10.0514343,10.8070081 L10.0514343,10.8070081 Z M5.20043686,10.056087 L5.9485657,10.8070081 C5.98681458,10.8453997 5.99437177,10.9027815 5.97129405,10.9486779 L5.94814122,10.9805713 L3.33297251,13.578975 L4.14566832,14.3929337 C4.16186598,14.4091313 4.17412337,14.4286433 4.18170692,14.44996 L4.18948517,14.4831 C4.19754756,14.5503599 4.16076879,14.6126605 4.10268845,14.6400503 L4.05550196,14.6535789 L1.15911357,15.0007666 C1.14779988,15.0021228 1.13636469,15.0021228 1.12505099,15.0007666 C1.06227509,14.9932417 1.01388808,14.9461447 1.00186024,14.8874303 L1,14.8416531 L1.34718779,11.9452647 C1.35127727,11.9111485 1.36670814,11.8793948 1.39100463,11.8550983 C1.43890503,11.8071979 1.51061462,11.7976178 1.56803869,11.8263581 L1.60783298,11.8550983 L2.41000652,12.656009 L5.02707587,10.055663 C5.07508151,10.0079473 5.15266518,10.008137 5.20043686,10.056087 Z M14.874949,1.00101712 C14.9377249,1.00854202 14.9861119,1.05563905 14.9981398,1.11435344 L15,1.1601307 L14.6528122,4.05651908 C14.6487227,4.09063529 14.6332919,4.12238895 14.6089954,4.14668545 C14.561095,4.19458584 14.4893854,4.20416592 14.4319613,4.17542568 L14.392167,4.14668545 L13.5899935,3.34577476 L10.9729241,5.94612075 C10.9249185,5.99383648 10.8473348,5.99364673 10.7995631,5.94569676 L10.0514343,5.1947757 C10.0131854,5.15638407 10.0056282,5.09900223 10.0287059,5.05310588 L10.0518588,5.02121244 L12.6670275,2.42280878 L11.8543317,1.6088501 C11.838134,1.59265244 11.8258766,1.57314048 11.8182931,1.55182374 L11.8105148,1.51868374 C11.8024524,1.45142384 11.8392312,1.38912324 11.8973115,1.36173347 L11.944498,1.34820491 L14.8408864,1.00101712 C14.8522001,0.999660959 14.8636353,0.999660959 14.874949,1.00101712 Z M1.14208228,1 L1.15911357,1.00101712 L4.05550196,1.34820491 L4.10268845,1.36173347 C4.16076879,1.38912324 4.19754756,1.45142384 4.18948517,1.51868374 L4.18948517,1.51868374 L4.18170692,1.55182374 C4.17412337,1.57314048 4.16186598,1.59265244 4.14566832,1.6088501 L4.14566832,1.6088501 L3.33297251,2.42280878 L5.94814122,5.02121244 L5.97129405,5.05310588 C5.99437177,5.09900223 5.98681458,5.15638407 5.9485657,5.1947757 L5.9485657,5.1947757 L5.20043686,5.94569676 C5.15266518,5.99364673 5.07508151,5.99383648 5.02707587,5.94612075 L5.02707587,5.94612075 L2.41000652,3.34577476 L1.60783298,4.14668545 L1.56803869,4.17542568 C1.51061462,4.20416592 1.43890503,4.19458584 1.39100463,4.14668545 C1.36670814,4.12238895 1.35127727,4.09063529 1.34718779,4.05651908 L1.34718779,4.05651908 L1,1.1601307 L1.00186024,1.11435344 C1.01388808,1.05563905 1.06227509,1.00854202 1.12505099,1.00101712 C1.13636469,0.999660959 1.14779988,0.999660959 1.15911357,1.00101712 Z" id="形状结合" fill="#000000"></path>
            </g>
        </g>
    </g>
</svg>