<?xml version="1.0" encoding="UTF-8"?>
<svg width="16px" height="16px" viewBox="0 0 16 16" version="1.1" xmlns="http://www.w3.org/2000/svg" xmlns:xlink="http://www.w3.org/1999/xlink">
    <title>p-gift</title>
    <g id="页面-1" stroke="none" stroke-width="1" fill="none" fill-rule="evenodd">
        <g id="画板" transform="translate(-290.000000, -890.000000)" fill-rule="nonzero">
            <g id="p-gift" transform="translate(290.000000, 890.000000)">
                <rect id="矩形" fill="#D8D8D8" opacity="0" x="0" y="0" width="16" height="16"></rect>
                <path d="M14.44,4.23 L11.857,4.23 C12.095,3.8555 12.235,3.411 12.235,2.935 C12.235,1.60325 11.15175,0.52 9.82,0.52 C9.0955,0.52 8.44275,0.842 8,1.3495 C7.55725,0.842 6.9045,0.52 6.18,0.52 C4.84825,0.52 3.765,1.60325 3.765,2.935 C3.765,3.411 3.90325,3.8555 4.143,4.23 L1.56,4.23 C1.25025,4.23 1,4.48025 1,4.79 L1,8.29 C1,8.367 1.063,8.43 1.14,8.43 L1.84,8.43 L1.84,14.45 C1.84,14.75975 2.09025,15.01 2.4,15.01 L13.6,15.01 C13.90975,15.01 14.16,14.75975 14.16,14.45 L14.16,8.43 L14.86,8.43 C14.937,8.43 15,8.367 15,8.29 L15,4.79 C15,4.48025 14.74975,4.23 14.44,4.23 Z M8.595,2.935 C8.595,2.2595 9.1445,1.71 9.82,1.71 C10.4955,1.71 11.045,2.2595 11.045,2.935 C11.045,3.6105 10.4955,4.16 9.82,4.16 L8.595,4.16 L8.595,2.935 Z M6.18,1.71 C6.8555,1.71 7.405,2.2595 7.405,2.935 L7.405,4.16 L6.18,4.16 C5.5045,4.16 4.955,3.6105 4.955,2.935 C4.955,2.2595 5.5045,1.71 6.18,1.71 Z M2.19,7.24 L2.19,5.42 L7.405,5.42 L7.405,7.24 L2.19,7.24 Z M3.03,8.43 L7.405,8.43 L7.405,13.82 L3.03,13.82 L3.03,8.43 Z M12.97,13.82 L8.595,13.82 L8.595,8.43 L12.97,8.43 L12.97,13.82 Z M13.81,7.24 L8.595,7.24 L8.595,5.42 L13.81,5.42 L13.81,7.24 Z" id="形状" fill="#000000"></path>
            </g>
        </g>
    </g>
</svg>