<?xml version="1.0" encoding="UTF-8"?>
<svg width="16px" height="16px" viewBox="0 0 16 16" version="1.1" xmlns="http://www.w3.org/2000/svg" xmlns:xlink="http://www.w3.org/1999/xlink">
    <title>p-gold</title>
    <g id="页面-1" stroke="none" stroke-width="1" fill="none" fill-rule="evenodd">
        <g id="画板" transform="translate(-319.000000, -890.000000)" fill="#000000" fill-rule="nonzero">
            <g id="p-gold" transform="translate(319.000000, 890.000000)">
                <rect id="矩形" opacity="0" x="0" y="0" width="16" height="16"></rect>
                <path d="M4.97968808,7.29034667 L11.055819,7.29034667 C11.0629256,7.29034667 11.0718088,7.29034667 11.0789154,7.28857002 C11.1570878,7.2761335 11.2086106,7.20329099 11.1961741,7.12511855 L10.4819622,2.71903531 C10.4713023,2.6497461 10.4108963,2.6 10.3416071,2.6 L5.69389996,2.6 C5.62461075,2.6 5.56420477,2.6497461 5.55354489,2.71903531 L4.83933301,7.12511855 C4.83755636,7.13222513 4.83755636,7.14110836 4.83755636,7.14821495 C4.83755636,7.22638739 4.90151564,7.29034667 4.97968808,7.29034667 Z M6.59998966,3.8081196 L9.43374077,3.8081196 L9.80150659,6.08222707 L6.23044719,6.08222707 L6.59998966,3.8081196 L6.59998966,3.8081196 Z M6.64440582,8.83069915 C6.63374594,8.76140994 6.57333996,8.71166384 6.50405075,8.71166384 L1.8563436,8.71166384 C1.78705438,8.71166384 1.7266484,8.76140994 1.71598853,8.83069915 L1.00177665,13.2367824 C1,13.243889 1,13.2527722 1,13.2598788 C1,13.3380512 1.06395927,13.4020105 1.14213172,13.4020105 L7.21826263,13.4020105 C7.22536921,13.4020105 7.23425244,13.4020105 7.24135903,13.4002339 C7.31953147,13.3877973 7.37105422,13.3149548 7.3586177,13.2367824 L6.64440582,8.83069915 L6.64440582,8.83069915 Z M2.39466747,12.1938909 L2.76243329,9.91978343 L5.5961844,9.91978343 L5.96395022,12.1938909 L2.39466747,12.1938909 Z M14.9981975,13.2367824 L14.2839856,8.83069915 C14.2733257,8.76140994 14.2129198,8.71166384 14.1436305,8.71166384 L9.49592339,8.71166384 C9.42663418,8.71166384 9.3662282,8.76140994 9.35556832,8.83069915 L8.64135644,13.2367824 C8.6395798,13.243889 8.6395798,13.2527722 8.6395798,13.2598788 C8.6395798,13.3380512 8.70353907,13.4020105 8.78171152,13.4020105 L14.8578424,13.4020105 C14.864949,13.4020105 14.8738322,13.4020105 14.8809388,13.4002339 C14.9573346,13.3877973 15.010634,13.3149548 14.9981975,13.2367824 L14.9981975,13.2367824 Z M10.0342473,12.1938909 L10.4020131,9.91978343 L13.2357642,9.91978343 L13.60353,12.1938909 L10.0342473,12.1938909 Z" id="形状"></path>
            </g>
        </g>
    </g>
</svg>