<?xml version="1.0" encoding="UTF-8"?>
<svg width="16px" height="16px" viewBox="0 0 16 16" version="1.1" xmlns="http://www.w3.org/2000/svg" xmlns:xlink="http://www.w3.org/1999/xlink">
    <title>p-heat-map</title>
    <g id="页面-1" stroke="none" stroke-width="1" fill="none" fill-rule="evenodd">
        <g id="画板" transform="translate(-175.000000, -978.000000)" fill="#000000" fill-rule="nonzero">
            <g id="p-heat-map" transform="translate(175.000000, 978.000000)">
                <rect id="矩形" opacity="0" x="0" y="0" width="16" height="16"></rect>
                <path d="M7.99998778,1.825 C8.16151422,1.825 8.3119244,1.89349786 8.41604865,2.01724599 L8.47268754,2.09801891 L14.9262436,13.2676354 C15.1209666,13.6064218 14.9086271,14.0222246 14.5409734,14.0798965 L14.4534878,14.08665 L1.54648779,14.08665 C1.1564292,14.08665 0.902319591,13.6950462 1.03595214,13.3469081 L1.07378802,13.2675381 L7.52714518,2.09826778 C7.62645122,1.92407521 7.80553082,1.825 7.99998778,1.825 Z M8.028,3.66 L2.70712494,12.8714063 L9.841,12.92 L13.321,12.92 L9.811,6.747 L8.028,3.66 Z M7.99998778,5.26893509 C8.1606907,5.26893509 8.31182196,5.3377299 8.41606181,5.46132219 L8.47268019,5.54194128 L12.0065176,11.6540223 C12.20307,11.9916485 11.9904239,12.408651 11.621656,12.4665003 L11.5338995,12.473275 L4.46297336,12.473275 C4.07315174,12.473275 3.81867627,12.0804828 3.95241992,11.7332552 L3.9902904,11.6541341 L7.52714518,5.54220287 C7.62645122,5.3680103 7.80553082,5.26893509 7.99998778,5.26893509 Z M7.99899493,6.65718222 L6.083,9.87 L5.137,11.505 L8.908,11.554 L10.833,11.554 L7.99899493,6.65718222 Z M7.99998778,8.24747354 C8.16168415,8.24747354 8.31310619,8.31601433 8.41660933,8.43881547 L8.47265978,8.51889315 L9.35698406,10.0455165 C9.55062824,10.382013 9.3386016,10.7957854 8.97157677,10.853179 L8.88424138,10.8599 L7.11573417,10.8599 C6.7258822,10.8599 6.47139307,10.4697172 6.60518054,10.1241504 L6.64306217,10.0453941 L7.52742093,8.51871249 C7.6285977,8.34573285 7.80657682,8.24747354 7.99998778,8.24747354 Z M7.99700924,9.37460214 L7.714,9.779 L7.573,10.022 L8.124,10.07 L8.399,10.07 L7.99700924,9.37460214 Z" id="形状结合"></path>
            </g>
        </g>
    </g>
</svg>