<?xml version="1.0" encoding="UTF-8"?>
<svg width="16px" height="16px" viewBox="0 0 16 16" version="1.1" xmlns="http://www.w3.org/2000/svg" xmlns:xlink="http://www.w3.org/1999/xlink">
    <title>p-heart</title>
    <g id="页面-1" stroke="none" stroke-width="1" fill="none" fill-rule="evenodd">
        <g id="画板" transform="translate(-349.000000, -890.000000)" fill="#000000" fill-rule="nonzero">
            <g id="p-heart" transform="translate(349.000000, 890.000000)">
                <rect id="矩形" opacity="0" x="0" y="0" width="16" height="16"></rect>
                <path d="M14.661255,4.52332077 C14.444101,4.01932904 14.1329549,3.56881553 13.7391608,3.18150356 C13.3453666,2.79581214 12.8883709,2.49438943 12.3778969,2.28209709 C11.8512175,2.06332255 11.2937475,1.953125 10.7184515,1.953125 C9.91951925,1.953125 9.14003365,2.17189955 8.46264283,2.58514035 C8.30058761,2.68399404 8.14663515,2.79257103 8.00078546,2.91087134 C7.85493576,2.79257103 7.7009833,2.68399404 7.53892808,2.58514035 C6.86153727,2.17189955 6.08205166,1.953125 5.28311944,1.953125 C4.70782341,1.953125 4.15035346,2.06332255 3.62367399,2.28209709 C3.11482061,2.49276888 2.65620434,2.79581214 2.26241016,3.18150356 C1.86699542,3.56881553 1.55746995,4.01932904 1.34031596,4.52332077 C1.11505921,5.04675913 1,5.60260853 1,6.17466345 C1,6.71430733 1.11019755,7.27663894 1.32897209,7.84869386 C1.51209449,8.32675676 1.77462395,8.82264573 2.11007825,9.32339636 C2.64161937,10.1158464 3.3724884,10.942328 4.27999763,11.7801535 C5.78387006,13.1689667 7.27315752,14.1283336 7.33635906,14.1672268 L7.72042993,14.4135508 C7.89058791,14.5221278 8.10936245,14.5221278 8.27952043,14.4135508 L8.6635913,14.1672268 C8.72679284,14.126713 10.2144597,13.1689667 11.7199527,11.7801535 C12.627462,10.942328 13.358331,10.1158464 13.8898721,9.32339636 C14.2253264,8.82264573 14.4894764,8.32675676 14.6709783,7.84869386 C14.8897528,7.27663894 14.9999838,6.71430733 14.9999838,6.17466345 C15.0015709,5.60260853 14.8865117,5.04675913 14.661255,4.52332077 Z M8.00078546,13.131694 C8.00078546,13.131694 2.23161966,9.43521446 2.23161966,6.17466345 C2.23161966,4.52332077 3.59774516,3.18474466 5.28311944,3.18474466 C6.46774309,3.18474466 7.49517317,3.84592996 8.00078546,4.81177906 C8.50639774,3.84592996 9.53382783,3.18474466 10.7184515,3.18474466 C12.4038258,3.18474466 13.7699513,4.52332077 13.7699513,6.17466345 C13.7699513,9.43521446 8.00078546,13.131694 8.00078546,13.131694 Z" id="形状"></path>
            </g>
        </g>
    </g>
</svg>