<?xml version="1.0" encoding="UTF-8"?>
<svg width="16px" height="16px" viewBox="0 0 16 16" version="1.1" xmlns="http://www.w3.org/2000/svg" xmlns:xlink="http://www.w3.org/1999/xlink">
    <title>p-highlight</title>
    <g id="页面-1" stroke="none" stroke-width="1" fill="none" fill-rule="evenodd">
        <g id="画板" transform="translate(-258.000000, -978.000000)" fill="#000000" fill-rule="nonzero">
            <g id="p-highlight" transform="translate(258.000000, 978.000000)">
                <rect id="矩形" opacity="0" x="0" y="0" width="16" height="16"></rect>
                <path d="M14.9625,7.928125 L9.425,2.471875 C9.3765625,2.4234375 9.2984375,2.4234375 9.25,2.471875 L5.5203125,6.146875 C5.471875,6.1953125 5.4703125,6.275 5.51875,6.3234375 L5.5203125,6.325 L6.1453125,6.940625 L4.3140625,8.7421875 C4.265625,8.790625 4.2640625,8.8703125 4.3125,8.91875 L4.3140625,8.9203125 L4.93125,9.528125 L1.9765625,12.45 L1.1265625,12.45 C1.0578125,12.45 1,12.50625 1,12.575 L1,13.4375 C1,13.50625 1.05625,13.5625 1.125,13.5625 L6.5140625,13.5625 C6.546875,13.5625 6.578125,13.55 6.6015625,13.5265625 L7.790625,12.3453125 L8.421875,12.9671875 C8.4703125,13.015625 8.5484375,13.015625 8.596875,12.9671875 L10.4265625,11.1609375 L11.053125,11.778125 C11.1015625,11.8265625 11.1796875,11.8265625 11.228125,11.778125 L14.9578125,8.103125 C15.0109375,8.05625 15.0109375,7.978125 14.9625,7.928125 Z M6.090625,12.440625 L3.5875,12.440625 L5.6875,10.3625 L6.9390625,11.5953125 L6.090625,12.440625 Z M8.509375,11.4703125 L5.83125,8.83125 L6.903125,7.775 L9.58125,10.4140625 L8.509375,11.4703125 L8.509375,11.4703125 Z M11.1421875,10.28125 L7.0359375,6.2359375 L9.3375,3.96875 L13.44375,8.015625 L11.1421875,10.28125 L11.1421875,10.28125 Z" id="形状"></path>
            </g>
        </g>
    </g>
</svg>