<?xml version="1.0" encoding="UTF-8"?>
<svg width="16px" height="16px" viewBox="0 0 16 16" version="1.1" xmlns="http://www.w3.org/2000/svg" xmlns:xlink="http://www.w3.org/1999/xlink">
    <title>p-home</title>
    <g id="页面-1" stroke="none" stroke-width="1" fill="none" fill-rule="evenodd">
        <g id="画板" transform="translate(-451.000000, -978.000000)" fill="#000000" fill-rule="nonzero">
            <g id="p-home" transform="translate(451.000000, 978.000000)">
                <rect id="矩形" opacity="0" x="0" y="0" width="16" height="16"></rect>
                <path d="M14.7096856,7.88505032 L8.74279788,1.92125107 L8.34284345,1.52129664 C8.15290371,1.33290112 7.84714704,1.33290112 7.65720729,1.52129664 L1.29036515,7.88505032 C1.10042541,8.07499007 0.998506517,8.32669885 1.00001654,8.5953941 C1.00622765,9.13896151 1.45868574,9.5728889 2.00225315,9.5728889 L2.65854903,9.5728889 L2.65854903,14.6024317 L13.3415017,14.6024317 L13.3415017,9.5728889 L14.0116956,9.5728889 C14.2757582,9.5728889 14.5243785,9.46942579 14.7112298,9.28257449 C14.8980811,9.09572319 15,8.84710287 15,8.58304029 C15,8.32052194 14.8965369,8.07190162 14.7096856,7.88505032 Z M8.86479171,13.4905892 L7.13525904,13.4905892 L7.13525904,10.340369 L8.86479171,10.340369 L8.86479171,13.4905892 Z M12.2296593,8.46104647 L12.2296593,13.4905892 L9.85309609,13.4905892 L9.85309609,9.96975488 C9.85309609,9.62848102 9.57667971,9.35206464 9.23540585,9.35206464 L6.76464489,9.35206464 C6.42337104,9.35206464 6.14695466,9.62848102 6.14695466,9.96975488 L6.14695466,13.4905892 L3.77039146,13.4905892 L3.77039146,8.46104647 L2.28793489,8.46104647 L8.0015696,2.75204444 L8.35828571,3.10876056 L13.7136601,8.46104647 L12.2296593,8.46104647 Z" id="形状"></path>
            </g>
        </g>
    </g>
</svg>