<?xml version="1.0" encoding="UTF-8"?>
<svg width="16px" height="16px" viewBox="0 0 16 16" version="1.1" xmlns="http://www.w3.org/2000/svg" xmlns:xlink="http://www.w3.org/1999/xlink">
    <title>p-hourglass</title>
    <g id="页面-1" stroke="none" stroke-width="1" fill="none" fill-rule="evenodd">
        <g id="画板" transform="translate(-543.000000, -978.000000)" fill="#000000" fill-rule="nonzero">
            <g id="p-hourglass" transform="translate(543.000000, 978.000000)">
                <rect id="矩形" opacity="0" x="0" y="0" width="16" height="16"></rect>
                <path d="M11.59375,4.96875 L11.59375,2.875 L12.9375,2.875 C13.00625,2.875 13.0625,2.81875 13.0625,2.75 L13.0625,1.875 C13.0625,1.80625 13.00625,1.75 12.9375,1.75 L3.0625,1.75 C2.99375,1.75 2.9375,1.80625 2.9375,1.875 L2.9375,2.75 C2.9375,2.81875 2.99375,2.875 3.0625,2.875 L4.40625,2.875 L4.40625,4.96875 C4.40625,6.2421875 5.06875,7.3625 6.06875,8 C5.06875,8.6375 4.40625,9.7578125 4.40625,11.03125 L4.40625,13.125 L3.0625,13.125 C2.99375,13.125 2.9375,13.18125 2.9375,13.25 L2.9375,14.125 C2.9375,14.19375 2.99375,14.25 3.0625,14.25 L12.9375,14.25 C13.00625,14.25 13.0625,14.19375 13.0625,14.125 L13.0625,13.25 C13.0625,13.18125 13.00625,13.125 12.9375,13.125 L11.59375,13.125 L11.59375,11.03125 C11.59375,9.7578125 10.93125,8.6375 9.93125,8 C10.93125,7.3625 11.59375,6.2421875 11.59375,4.96875 Z M10.46875,11.03125 L10.46875,13.125 L5.53125,13.125 L5.53125,11.03125 C5.53125,10.371875 5.7875,9.7515625 6.2546875,9.2859375 C6.7203125,8.81875 7.340625,8.5625 8,8.5625 C8.659375,8.5625 9.2796875,8.81875 9.7453125,9.2859375 C10.2125,9.7515625 10.46875,10.371875 10.46875,11.03125 Z M10.46875,4.96875 C10.46875,5.628125 10.2125,6.2484375 9.7453125,6.7140625 C9.2796875,7.18125 8.659375,7.4375 8,7.4375 C7.340625,7.4375 6.7203125,7.18125 6.2546875,6.7140625 C5.7875,6.2484375 5.53125,5.628125 5.53125,4.96875 L5.53125,2.875 L10.46875,2.875 L10.46875,4.96875 Z" id="形状"></path>
            </g>
        </g>
    </g>
</svg>