<?xml version="1.0" encoding="UTF-8"?>
<svg width="16px" height="16px" viewBox="0 0 16 16" version="1.1" xmlns="http://www.w3.org/2000/svg" xmlns:xlink="http://www.w3.org/1999/xlink">
    <title>p-Import</title>
    <g id="页面-1" stroke="none" stroke-width="1" fill="none" fill-rule="evenodd">
        <g id="画板" transform="translate(-218.000000, -1698.000000)">
            <g id="p-Import" transform="translate(218.000000, 1698.000000)">
                <rect id="矩形备份-33" fill="#D8D8D8" opacity="0" x="0" y="0" width="16" height="16"></rect>
                <path d="M14.2690771,1 C14.5452195,1 14.7690771,1.22385763 14.7690771,1.5 L14.7690771,3.34298564 C14.7690771,3.42582836 14.7019198,3.49298564 14.6190771,3.49298564 L13.6016533,3.49298564 C13.5188323,3.49293008 13.451684,3.42580665 13.4515978,3.34298566 L13.4512178,2.31706284 L2.31696013,2.31706284 L2.31696013,13.633733 L13.4512178,13.633733 L13.4516011,12.5320764 C13.4516821,12.4492541 13.518831,12.3821286 13.6016533,12.3820764 L14.6190771,12.3820764 C14.7019198,12.3820764 14.7690771,12.4492337 14.7690771,12.5320764 L14.7690771,14.4520271 C14.7690771,14.7281695 14.5452195,14.9520271 14.2690771,14.9520271 L1.5,14.9520271 C1.22385763,14.9520271 1,14.7281695 1,14.4520271 L1,1.5 C1,1.22385763 1.22385763,1 1.5,1 L14.2690771,1 Z M9.01803872,5.81466885 C9.07714713,5.79338429 9.14570522,5.81097852 9.18670433,5.86304903 L9.18670433,5.86304903 L9.2042942,5.89138095 C9.21381938,5.91139503 9.21885181,5.93340175 9.21885181,5.95584334 L9.21885181,5.95584334 L9.219,7.29996835 L14.85,7.30055722 C14.9328427,7.30055722 15,7.3677145 15,7.45055722 L15,7.45055722 L15,8.46798098 C15,8.5508237 14.9328427,8.61798098 14.85,8.61798098 L14.85,8.61798098 L9.219,8.61796835 L9.21885181,9.96269486 L9.21120471,10.0101065 C9.19136148,10.0697142 9.13512598,10.1126949 9.06885181,10.1126949 C9.03518942,10.1126949 9.00250548,10.1013719 8.9760575,10.0805474 L8.9760575,10.0805474 L6.43162597,8.07712162 L6.39910617,8.04178324 C6.36454896,7.98931768 6.36556866,7.91854531 6.40656776,7.86647479 C6.41390102,7.85716126 6.42231244,7.84874984 6.43162597,7.84141658 L6.43162597,7.84141658 L8.9760575,5.83799083 Z" id="形状结合" fill="#000000" fill-rule="nonzero"></path>
            </g>
        </g>
    </g>
</svg>