<?xml version="1.0" encoding="UTF-8"?>
<svg width="16px" height="16px" viewBox="0 0 16 16" version="1.1" xmlns="http://www.w3.org/2000/svg" xmlns:xlink="http://www.w3.org/1999/xlink">
    <title>p-image-failed</title>
    <g id="页面-1" stroke="none" stroke-width="1" fill="none" fill-rule="evenodd">
        <g id="画板" transform="translate(-141.000000, -978.000000)" fill="#000000" fill-rule="nonzero">
            <g id="p-image-failed" transform="translate(141.000000, 978.000000)">
                <rect id="矩形备份-27" opacity="0" x="0" y="0" width="16" height="16"></rect>
                <path d="M14.3,1.05 L14.3960522,1.05704767 C14.6746652,1.09831511 14.8956533,1.31637308 14.9413222,1.59352702 L14.95,1.7 L14.95,5.6095 L13.599,6.94 L13.599,5.091 L13.65,2.40000001 L2.40000001,2.35000001 L2.35000001,13.6 L6.96,13.648 L6.412,14.197 L5.57414466,14.9646447 L1.7,14.95 L1.60394777,14.9429523 C1.32533481,14.9016849 1.10434665,14.6836269 1.05867784,14.406473 L1.05,14.3 L1.05,1.7 L1.05704767,1.60394777 C1.09831511,1.32533481 1.31637308,1.10434665 1.59352702,1.05867784 L1.7,1.05 L14.3,1.05 Z M14.95,7.709 L14.95,14.3 L14.9429523,14.3960522 C14.9016849,14.6746652 14.6836269,14.8956533 14.406473,14.9413222 L14.3,14.95 L7.639,14.949 L8.187,14.401 L9.02585533,13.6346553 L13.5999924,13.65 L13.65,8.9898 L14.95,7.709 Z M11.92,6.69597975 C11.9810441,6.69597975 12.0395843,6.72024696 12.082725,6.76343567 C12.1114398,6.79218243 12.1317682,6.82772928 12.1421299,6.86626979 L12.15,6.92585 L12.14965,8.41053821 L8.37414792,12.1646432 L6.75715,12.1500017 L6.73448845,12.1485058 L6.71241253,12.1438671 L3.70631697,12.1349501 L3.65934837,12.1278785 C3.61444427,12.1140626 3.57700593,12.0808687 3.55848369,12.0359862 C3.53996144,11.9911036 3.54309323,11.9411671 3.5651626,11.8997252 L3.59344389,11.8616167 L6.48625748,8.96845321 L6.53528458,8.93106335 C6.60547221,8.89118102 6.6921797,8.8911823 6.76237344,8.93107123 L6.81140626,8.96846693 L8.14664929,10.30336 L11.7572553,6.76345535 L11.8050654,6.72675794 C11.8397207,6.70676517 11.8793039,6.69597975 11.92,6.69597975 Z M12.149,10.504 L12.15,11.9900109 L12.1418431,12.040578 C12.1259685,12.08826 12.0882586,12.1259689 12.0405724,12.1418432 L11.99,12.15 L10.439,12.149 L11.174,11.414 L12.149,10.504 Z M5.9,4 C5.95522847,4 6,4.04477153 6,4.1 L6,5.9 C6,5.95522847 5.95522847,6 5.9,6 L4.1,6 C4.04477153,6 4,5.95522847 4,5.9 L4,4.1 C4,4.04477153 4.04477153,4 4.1,4 L5.9,4 Z" id="形状结合"></path>
            </g>
        </g>
    </g>
</svg>