<?xml version="1.0" encoding="UTF-8"?>
<svg width="16px" height="16px" viewBox="0 0 16 16" version="1.1" xmlns="http://www.w3.org/2000/svg" xmlns:xlink="http://www.w3.org/1999/xlink">
    <title>p-interation</title>
    <g id="页面-1" stroke="none" stroke-width="1" fill="none" fill-rule="evenodd">
        <g id="画板" transform="translate(-335.000000, -978.000000)" fill="#000000" fill-rule="nonzero">
            <g id="p-interation" transform="translate(335.000000, 978.000000)">
                <rect id="矩形" opacity="0" x="0" y="0" width="16" height="16"></rect>
                <path d="M14.44,1 L1.56,1 C1.25025,1 1,1.25025 1,1.56 L1,14.44 C1,14.74975 1.25025,15 1.56,15 L14.44,15 C14.74975,15 15,14.74975 15,14.44 L15,1.56 C15,1.25025 14.74975,1 14.44,1 Z M13.74,13.74 L2.26,13.74 L2.26,2.26 L13.74,2.26 L13.74,13.74 Z M4.374,8.21 L5.26125,8.21 C5.326,8.21 5.38025,8.1575 5.38025,8.091 L5.38025,6.71025 C5.38025,6.3655 5.6585,6.08725 6.0015,6.08725 L9.60125,6.08725 L9.60125,7.02175 C9.60125,7.1215 9.715,7.17575 9.792,7.1145 L11.70125,5.61475 C11.7625,5.5675 11.7625,5.47475 11.70125,5.4275 L9.792,3.92775 C9.715,3.8665 9.60125,3.9225 9.60125,4.0205 L9.60125,4.955 L5.99975,4.955 C5.0355,4.955 4.255,5.739 4.255,6.70675 L4.255,8.0875 C4.255,8.1575 4.3075,8.21 4.374,8.21 Z M4.3005,10.57075 L6.20975,12.0705 C6.28675,12.13175 6.4005,12.07575 6.4005,11.97775 L6.4005,11.04325 L10.00025,11.04325 C10.9645,11.04325 11.745,10.25925 11.745,9.2915 L11.745,7.91075 C11.745,7.846 11.6925,7.79175 11.626,7.79175 L10.73875,7.79175 C10.674,7.79175 10.61975,7.84425 10.61975,7.91075 L10.61975,9.2915 C10.61975,9.63625 10.3415,9.9145 9.9985,9.9145 L6.4005,9.9145 L6.4005,8.98 C6.4005,8.88025 6.28675,8.826 6.20975,8.88725 L4.3005,10.387 C4.23925,10.43075 4.23925,10.5235 4.3005,10.57075 L4.3005,10.57075 Z" id="形状"></path>
            </g>
        </g>
    </g>
</svg>