<?xml version="1.0" encoding="UTF-8"?>
<svg width="16px" height="16px" viewBox="0 0 16 16" version="1.1" xmlns="http://www.w3.org/2000/svg" xmlns:xlink="http://www.w3.org/1999/xlink">
    <title>p-indent</title>
    <g id="页面-1" stroke="none" stroke-width="1" fill="none" fill-rule="evenodd">
        <g id="画板" transform="translate(-486.000000, -978.000000)" fill="#000000" fill-rule="nonzero">
            <g id="p-indent" transform="translate(486.000000, 978.000000)">
                <rect id="矩形" opacity="0" x="0" y="0" width="16" height="16"></rect>
                <path d="M6.18,6.935 L14.58,6.935 C14.657,6.935 14.72,6.872 14.72,6.795 L14.72,5.815 C14.72,5.738 14.657,5.675 14.58,5.675 L6.18,5.675 C6.103,5.675 6.04,5.738 6.04,5.815 L6.04,6.795 C6.04,6.872 6.103,6.935 6.18,6.935 Z M6.04,10.505 C6.04,10.582 6.103,10.645 6.18,10.645 L14.58,10.645 C14.657,10.645 14.72,10.582 14.72,10.505 L14.72,9.525 C14.72,9.448 14.657,9.385 14.58,9.385 L6.18,9.385 C6.103,9.385 6.04,9.448 6.04,9.525 L6.04,10.505 Z M14.86,2 L1.14,2 C1.063,2 1,2.063 1,2.14 L1,3.12 C1,3.197 1.063,3.26 1.14,3.26 L14.86,3.26 C14.937,3.26 15,3.197 15,3.12 L15,2.14 C15,2.063 14.937,2 14.86,2 Z M14.86,13.06 L1.14,13.06 C1.063,13.06 1,13.123 1,13.2 L1,14.18 C1,14.257 1.063,14.32 1.14,14.32 L14.86,14.32 C14.937,14.32 15,14.257 15,14.18 L15,13.2 C15,13.123 14.937,13.06 14.86,13.06 Z M1.532,10.43675 L4.26725,8.2825 C4.346,8.22125 4.346,8.10225 4.26725,8.03925 L1.532,5.88325 C1.4305,5.80275 1.28,5.8745 1.28,6.004 L1.28,10.31425 C1.28,10.44375 1.42875,10.51725 1.532,10.43675 L1.532,10.43675 Z" id="形状"></path>
            </g>
        </g>
    </g>
</svg>