<?xml version="1.0" encoding="UTF-8"?>
<svg width="16px" height="16px" viewBox="0 0 16 16" version="1.1" xmlns="http://www.w3.org/2000/svg" xmlns:xlink="http://www.w3.org/1999/xlink">
    <title>p-insurance</title>
    <g id="页面-1" stroke="none" stroke-width="1" fill="none" fill-rule="evenodd">
        <g id="画板" transform="translate(-362.000000, -978.000000)" fill="#000000" fill-rule="nonzero">
            <g id="p-insurance" transform="translate(362.000000, 978.000000)">
                <rect id="矩形" opacity="0" x="0" y="0" width="16" height="16"></rect>
                <path d="M6.9,4.79375 L6.296875,4.509375 C6.2453125,4.484375 6.1828125,4.5125 6.165625,4.5671875 C5.8921875,5.48125 5.459375,6.2875 4.88125,6.9671875 C4.8609375,6.9921875 4.853125,7.025 4.8625,7.0546875 L5.06875,7.734375 C5.0890625,7.803125 5.178125,7.8234375 5.228125,7.771875 C5.3484375,7.6453125 5.46875,7.5078125 5.5890625,7.365625 L5.5890625,10.25 C5.5890625,10.31875 5.6453125,10.375 5.7140625,10.375 L6.296875,10.375 C6.365625,10.375 6.421875,10.31875 6.421875,10.25 L6.421875,6.1421875 C6.6375,5.75 6.8140625,5.334375 6.946875,4.9078125 C6.9625,4.8625 6.9421875,4.8140625 6.9,4.79375 Z M7.31875,4.9375 L7.31875,6.925 C7.31875,6.99375 7.375,7.05 7.44375,7.05 L8.4734375,7.05 L8.4734375,7.340625 L6.990625,7.340625 C6.921875,7.340625 6.865625,7.396875 6.865625,7.465625 L6.865625,8.021875 C6.865625,8.090625 6.921875,8.146875 6.990625,8.146875 L7.8515625,8.146875 C7.553125,8.628125 7.1890625,9.0171875 6.7421875,9.334375 C6.7015625,9.3625 6.690625,9.41875 6.7171875,9.4609375 L7.0734375,10.03125 C7.103125,10.0796875 7.1703125,10.090625 7.2125,10.053125 C7.70625,9.634375 8.1296875,9.0703125 8.471875,8.371875 L8.471875,10.246875 C8.471875,10.315625 8.528125,10.371875 8.596875,10.371875 L9.1625,10.371875 C9.23125,10.371875 9.2875,10.315625 9.2875,10.246875 L9.2875,8.375 C9.6203125,9.0265625 10.0296875,9.5859375 10.5078125,10.0453125 C10.5484375,10.084375 10.6140625,10.078125 10.646875,10.034375 L11.0578125,9.4828125 C11.0890625,9.440625 11.0796875,9.38125 11.0390625,9.3515625 C10.5625,8.9984375 10.1921875,8.6046875 9.909375,8.15 L10.83125,8.15 C10.9,8.15 10.95625,8.09375 10.95625,8.025 L10.95625,7.46875 C10.95625,7.4 10.9,7.34375 10.83125,7.34375 L9.2875,7.34375 L9.2875,7.053125 L10.3296875,7.053125 C10.3984375,7.053125 10.4546875,6.996875 10.4546875,6.928125 L10.4546875,4.9375 C10.4546875,4.86875 10.3984375,4.8125 10.3296875,4.8125 L7.44375,4.8125 C7.375,4.8125 7.31875,4.86875 7.31875,4.9375 Z M8.1234375,5.60625 L9.653125,5.60625 L9.653125,6.25625 L8.1234375,6.25625 L8.1234375,5.60625 Z M13.5453125,2.6546875 L8.2359375,0.8453125 C8.171875,0.8234375 8.0859375,0.8125 8,0.8125 C7.9140625,0.8125 7.828125,0.8234375 7.7640625,0.8453125 L2.4546875,2.6546875 C2.325,2.6984375 2.21875,2.8484375 2.21875,2.9859375 L2.21875,10.5234375 C2.21875,10.6609375 2.3078125,10.8421875 2.415625,10.928125 L7.8015625,15.125 C7.85625,15.1671875 7.9265625,15.1890625 7.9984375,15.1890625 C8.0703125,15.1890625 8.1421875,15.1671875 8.1953125,15.125 L13.58125,10.928125 C13.6890625,10.84375 13.7782566,10.6625 13.7782566,10.5234375 L13.7782566,2.9859375 C13.78125,2.8484375 13.675,2.7 13.5453125,2.6546875 Z M12.65625,10.2234375 L8,13.8515625 L3.34375,10.2234375 L3.34375,3.5421875 L8,1.9546875 L12.65625,3.5421875 L12.65625,10.2234375 Z" id="形状"></path>
            </g>
        </g>
    </g>
</svg>