<?xml version="1.0" encoding="UTF-8"?>
<svg width="16px" height="16px" viewBox="0 0 16 16" version="1.1" xmlns="http://www.w3.org/2000/svg" xmlns:xlink="http://www.w3.org/1999/xlink">
    <title>p-issues-close</title>
    <g id="页面-1" stroke="none" stroke-width="1" fill="none" fill-rule="evenodd">
        <g id="画板" transform="translate(-302.000000, -978.000000)" fill="#000000" fill-rule="nonzero">
            <g id="p-issues-close" transform="translate(302.000000, 978.000000)">
                <rect id="矩形" opacity="0" x="0" y="0" width="16" height="16"></rect>
                <path d="M7.22215698,10.8521564 C7.22215698,11.2817035 7.57037369,11.6299202 7.99992076,11.6299202 C8.42946783,11.6299202 8.77768454,11.2817035 8.77768454,10.8521564 C8.77768454,10.4226093 8.42946783,10.0743926 7.99992076,10.0743926 C7.57037369,10.0743926 7.22215698,10.4226093 7.22215698,10.8521564 Z M8.38880265,9.03737423 C8.46009766,9.03737423 8.51842995,8.97904195 8.51842995,8.90774693 L8.51842995,4.50041885 C8.51842995,4.42912383 8.46009766,4.37079155 8.38880265,4.37079155 L7.61103887,4.37079155 C7.53974386,4.37079155 7.48141157,4.42912383 7.48141157,4.50041885 L7.48141157,8.90774693 C7.48141157,8.97904195 7.53974386,9.03737423 7.61103887,9.03737423 L8.38880265,9.03737423 Z M14.8701675,5.99113276 L13.9093051,5.99113276 C13.8671763,5.99113276 13.8282881,6.01057685 13.803983,6.04460402 L12.0783196,8.42326491 L11.2697693,7.30847016 C11.2454642,7.274443 11.206576,7.2549989 11.1644471,7.2549989 L10.2035848,7.2549989 C10.0982626,7.2549989 10.0366897,7.37490415 10.0982626,7.46078223 L11.8676752,9.90263643 C11.9713771,10.0452265 12.1852621,10.0452265 12.2889639,9.90263643 L14.9754897,6.19691609 C15.0370626,6.11103801 14.9754897,5.99113276 14.8701675,5.99113276 Z M14.1572173,10.9493769 L13.1169583,10.9493769 C13.0278395,10.9493769 12.9452021,10.9963667 12.8965919,11.0709024 C12.6681238,11.4338589 12.3991471,11.7708898 12.089662,12.0787547 C11.5581901,12.6086063 10.9408401,13.0250339 10.2538154,13.315075 C9.54248559,13.6148381 8.78740659,13.7671502 8.00640212,13.7671502 C7.227018,13.7671502 6.47031866,13.6148381 5.75898887,13.315075 C5.0719642,13.0250339 4.4546142,12.6086063 3.92314228,12.0787547 C3.39167036,11.5489031 2.97524267,10.9315531 2.6852016,10.2445284 C2.38381813,9.53481898 2.23150606,8.77811964 2.23150606,8.00035586 C2.23150606,7.22259208 2.38381813,6.46589273 2.6852016,5.75618328 C2.97524267,5.06915861 3.39167036,4.45180861 3.92314228,3.92195704 C4.4546142,3.39210546 5.0719642,2.97567777 5.75898887,2.68563669 C6.47031866,2.38587357 7.22539766,2.2335615 8.00640212,2.2335615 C8.78578625,2.2335615 9.54248559,2.38587357 10.2538154,2.68563669 C10.9408401,2.97567777 11.5581901,3.39210546 12.089662,3.92195704 C12.3975268,4.22982187 12.6665034,4.56685284 12.8965919,4.92980927 C12.9435818,5.0059653 13.0278395,5.05133486 13.1169583,5.05133486 L14.1572173,5.05133486 C14.2544378,5.05133486 14.3160108,4.94925336 14.2738819,4.86337528 C13.1331617,2.59651793 10.79825,1.03288866 8.09228021,1.00048184 C4.2229054,0.955112284 1.00814845,4.11963866 1.00001552,7.98739313 C0.991945035,11.8583883 4.1321663,15.0002299 8.00640212,15.0002299 C10.7480194,15.0002299 13.120199,13.4284989 14.2722616,11.1373364 C14.3160108,11.0514584 14.2528175,10.9493769 14.1572173,10.9493769 Z" id="形状"></path>
            </g>
        </g>
    </g>
</svg>