<?xml version="1.0" encoding="UTF-8"?>
<svg width="16px" height="16px" viewBox="0 0 16 16" version="1.1" xmlns="http://www.w3.org/2000/svg" xmlns:xlink="http://www.w3.org/1999/xlink">
    <title>p-italic</title>
    <g id="页面-1" stroke="none" stroke-width="1" fill="none" fill-rule="evenodd">
        <g id="画板" transform="translate(-282.000000, -978.000000)" fill="#000000">
            <g id="p-italic" transform="translate(282.000000, 978.000000)">
                <rect id="矩形" fill-rule="nonzero" opacity="0" x="0" y="0" width="16" height="16"></rect>
                <path d="M13.7682373,1 C13.8786943,1 13.9682373,1.08954305 13.9682373,1.2 L13.9682373,2.11546644 C13.9682373,2.22592339 13.8786943,2.31546644 13.7682373,2.31546644 L10.372,2.315 L7,13.648 L10.9070753,13.6487157 C11.0175323,13.6487157 11.1070753,13.7382588 11.1070753,13.8487157 L11.1070753,14.7641822 C11.1070753,14.8746391 11.0175323,14.9641822 10.9070753,14.9641822 L6.609,14.964 L6.59816191,15 L6.477,14.964 L2.2,14.9641822 C2.08954305,14.9641822 2,14.8746391 2,14.7641822 L2,13.8487157 C2,13.7382588 2.08954305,13.6487157 2.2,13.6487157 L5.627,13.648 L9,2.315 L5.061162,2.31546644 C4.95070505,2.31546644 4.861162,2.22592339 4.861162,2.11546644 L4.861162,1.2 C4.861162,1.08954305 4.95070505,1 5.061162,1 L13.7682373,1 Z" id="形状结合"></path>
            </g>
        </g>
    </g>
</svg>