<?xml version="1.0" encoding="UTF-8"?>
<svg width="16px" height="16px" viewBox="0 0 16 16" version="1.1" xmlns="http://www.w3.org/2000/svg" xmlns:xlink="http://www.w3.org/1999/xlink">
    <title>p-key</title>
    <g id="页面-1" stroke="none" stroke-width="1" fill="none" fill-rule="evenodd">
        <g id="画板" transform="translate(-207.000000, -978.000000)" fill="#000000" fill-rule="nonzero">
            <g id="p-key" transform="translate(207.000000, 978.000000)">
                <rect id="矩形" opacity="0" x="0" y="0" width="16" height="16"></rect>
                <path d="M9.68083112,1.03 C12.6020535,1.03 14.97,3.39794645 14.97,6.31916888 C14.97,9.24039131 12.6020535,11.6083378 9.68083112,11.6083378 C8.49059435,11.6083378 7.3590838,11.2134572 6.43419255,10.4982797 L6.43419255,10.4982797 L1.9573214,14.9381057 L1.92109654,14.9620264 C1.88140726,14.9779736 1.83392305,14.97 1.8020287,14.9381057 L1.8020287,14.9381057 L1.06189435,14.1979713 L1.03797359,14.1617464 C1.02202641,14.1220572 1.03,14.0745729 1.06189435,14.0426786 L1.06189435,14.0426786 L2.20446582,12.9001071 L2.183,12.878 L1.11438615,11.767601 L1.09043407,11.7305054 C1.07446602,11.6901353 1.08245005,11.6424947 1.11438615,11.6105586 L1.11438615,11.6105586 L1.81077733,10.9141674 L1.84787303,10.8902154 C1.88824312,10.8742473 1.93588366,10.8822313 1.96781976,10.9141674 L1.96781976,10.9141674 L3.05789944,12.0042471 L3.88595309,11.2186199 L2.79587341,10.0861138 L2.77192134,10.0490181 C2.75595329,10.008648 2.76393732,9.96100745 2.79587341,9.92907135 L2.79587341,9.92907135 L3.4922646,9.23268016 L3.52936029,9.20872809 C3.56973039,9.19276004 3.61737093,9.20074406 3.64930703,9.23268016 L3.64930703,9.23268016 L4.7393867,10.3227598 L5.50095074,9.6036222 L5.3419101,9.37869667 C4.72863267,8.46735095 4.39166224,7.41868431 4.39166224,6.31916888 C4.39166224,3.39794645 6.75960869,1.03 9.68083112,1.03 Z M9.68083112,2.32979222 C8.61524762,2.32979222 7.61265427,2.74447743 6.86027183,3.49860959 C6.10613967,4.25099203 5.69145446,5.25358538 5.69145446,6.31916888 C5.69145446,7.38475238 6.10613967,8.38734573 6.86027183,9.13972817 C7.61265427,9.89386033 8.61524762,10.3085455 9.68083112,10.3085455 C10.7464146,10.3085455 11.749008,9.89386033 12.5013904,9.13972817 C13.2555226,8.38734573 13.6702078,7.38475238 13.6702078,6.31916888 C13.6702078,5.25358538 13.2555226,4.25099203 12.5013904,3.49860959 C11.749008,2.74447743 10.7464146,2.32979222 9.68083112,2.32979222 Z" id="形状结合"></path>
            </g>
        </g>
    </g>
</svg>