<?xml version="1.0" encoding="UTF-8"?>
<svg width="16px" height="16px" viewBox="0 0 16 16" version="1.1" xmlns="http://www.w3.org/2000/svg" xmlns:xlink="http://www.w3.org/1999/xlink">
    <title>p-layout</title>
    <g id="页面-1" stroke="none" stroke-width="1" fill="none" fill-rule="evenodd">
        <g id="画板" transform="translate(-244.000000, -1698.000000)">
            <g id="p-layout" transform="translate(244.000000, 1698.000000)">
                <rect id="矩形" fill="#D8D8D8" opacity="0" x="0" y="0" width="16" height="16"></rect>
                <path d="M14.5,1 C14.7761424,1 15,1.22385763 15,1.5 L15,14.5 C15,14.7761424 14.7761424,15 14.5,15 L1.5,15 C1.22385763,15 1,14.7761424 1,14.5 L1,1.5 C1,1.22385763 1.22385763,1 1.5,1 L14.5,1 Z M4.499,2.299 L2.29994737,2.3 L2.29994737,13.7 L4.499,13.7 L4.499,2.299 Z M13.699,5.599 L5.799,5.599 L5.799,13.7 L13.6999474,13.7 L13.699,5.599 Z M13.699,4.299 L13.6999474,2.3 L5.799,2.299 L5.799,4.299 L13.699,4.299 Z" id="形状结合" fill="#000000"></path>
            </g>
        </g>
    </g>
</svg>