<?xml version="1.0" encoding="UTF-8"?>
<svg width="16px" height="16px" viewBox="0 0 16 16" version="1.1" xmlns="http://www.w3.org/2000/svg" xmlns:xlink="http://www.w3.org/1999/xlink">
    <title>p-laptop</title>
    <g id="页面-1" stroke="none" stroke-width="1" fill="none" fill-rule="evenodd">
        <g id="画板" transform="translate(-233.000000, -978.000000)" fill="#000000" fill-rule="nonzero">
            <g id="p-laptop" transform="translate(233.000000, 978.000000)">
                <rect id="矩形" opacity="0" x="0" y="0" width="16" height="16"></rect>
                <path d="M13.4725916,2.065 C13.7498099,2.065 13.9791756,2.26664381 14.0222765,2.5315194 L14.0295549,2.62196332 L14.0272934,9.81912873 L14.9666008,13.1281666 C15.0871073,13.4639778 14.8677561,13.8159083 14.5295665,13.8680643 L14.4426711,13.8746753 L1.55802514,13.8746753 C1.20156389,13.8746753 0.945522932,13.5485765 1.00995039,13.2152973 L1.97114134,9.83537518 L1.97114134,2.62196332 C1.97114134,2.344745 2.17278514,2.11537937 2.43766074,2.07227842 L2.52810466,2.065 L13.4725916,2.065 Z M9.16164526,12.1206587 L6.82505948,12.1206587 L6.6991357,12.6958661 L9.28756905,12.6958661 L9.16164526,12.1206587 Z M12.9611234,10.3794903 L3.03957287,10.3794903 L2.38197089,12.6958661 L5.8067869,12.6958661 L6.1037183,11.3480152 C6.11615521,11.2904945 6.16590288,11.2500745 6.22497824,11.2500745 L6.22497824,11.2500745 L9.76328112,11.2500745 C9.82080186,11.2500745 9.87210415,11.2904945 9.88454106,11.3480152 L9.88454106,11.3480152 L10.1814725,12.6958661 L13.6187254,12.6958661 L12.9611234,10.3794903 Z M12.8507458,3.24380917 L3.14995051,3.24380917 L3.14995051,9.38453694 L12.8507458,9.38453694 L12.8507458,3.24380917 Z" id="形状结合"></path>
            </g>
        </g>
    </g>
</svg>