<?xml version="1.0" encoding="UTF-8"?>
<svg width="16px" height="16px" viewBox="0 0 16 16" version="1.1" xmlns="http://www.w3.org/2000/svg" xmlns:xlink="http://www.w3.org/1999/xlink">
    <title>p-left-square</title>
    <g id="页面-1" stroke="none" stroke-width="1" fill="none" fill-rule="evenodd">
        <g id="画板" transform="translate(-534.000000, -436.000000)" fill="#000000" fill-rule="nonzero">
            <g id="p-left-square" transform="translate(534.000000, 436.000000)">
                <rect id="矩形" opacity="0" x="0" y="0" width="16" height="16"></rect>
                <path d="M14.44,1 C14.74975,1 15,1.25025 15,1.56 L15,1.56 L15,14.44 C15,14.74975 14.74975,15 14.44,15 L14.44,15 L1.56,15 C1.25025,15 1,14.74975 1,14.44 L1,14.44 L1,1.56 C1,1.25025 1.25025,1 1.56,1 L1.56,1 Z M13.74,2.26 L2.26,2.26 L2.26,13.74 L13.74,13.74 L13.74,2.26 Z M9.73775,4.77125 C9.8305,4.70475 9.96,4.77125 9.96,4.885 L9.96,4.885 L9.96,5.70575 C9.96,5.886 9.87425,6.054 9.729,6.159 L9.729,6.159 L7.1845,8 L9.729,9.841 C9.87425,9.946 9.96,10.11575 9.96,10.29425 L9.96,10.29425 L9.96,11.115 C9.96,11.22875 9.8305,11.29525 9.73775,11.22875 L9.73775,11.22875 L5.43275,8.11375 C5.35575,8.05775 5.35575,7.94225 5.43275,7.88625 L5.43275,7.88625 Z" id="形状结合"></path>
            </g>
        </g>
    </g>
</svg>