<?xml version="1.0" encoding="UTF-8"?>
<svg width="16px" height="16px" viewBox="0 0 16 16" version="1.1" xmlns="http://www.w3.org/2000/svg" xmlns:xlink="http://www.w3.org/1999/xlink">
    <title>p-line-height</title>
    <g id="页面-1" stroke="none" stroke-width="1" fill="none" fill-rule="evenodd">
        <g id="画板" transform="translate(-311.000000, -1697.000000)">
            <g id="p-line-height" transform="translate(311.000000, 1697.000000)">
                <rect id="矩形备份-38" fill="#D8D8D8" opacity="0" x="0" y="0" width="16" height="16"></rect>
                <path d="M10.3361314,2.08 C10.4189741,2.08 10.4861314,2.14715729 10.4861314,2.23 L10.4861314,4.37935561 C10.4861314,4.46219833 10.4189741,4.52935561 10.3361314,4.52935561 L9.38042247,4.52935561 C9.29759977,4.52930437 9.23045077,4.46217831 9.23037124,4.37935562 L9.23001476,3.3357089 L6.37,3.335 L6.37,12.663 L7.95505655,12.6633068 C8.03789926,12.6633068 8.10505655,12.7304641 8.10505655,12.8133068 L8.10505655,13.7690157 C8.10505655,13.8518584 8.03789926,13.9190157 7.95505655,13.9190157 L3.5397589,13.9190157 C3.45691619,13.9190157 3.3897589,13.8518584 3.3897589,13.7690157 L3.3897589,12.8133068 C3.3897589,12.7304641 3.45691619,12.6633068 3.5397589,12.6633068 L5.115,12.663 L5.115,3.335 L2.2550348,3.3357089 L2.25562419,4.37935564 C2.25572936,4.44562976 2.21279401,4.50188951 2.15320021,4.5217664 L2.1057089,4.52935561 L1.15,4.52935561 C1.06715729,4.52935561 1,4.46219833 1,4.37935561 L1,2.23 C1,2.14715729 1.06715729,2.08 1.15,2.08 L10.3361314,2.08 Z M13.2396385,2.30187224 L13.2756283,2.33310416 L14.9745922,4.53650598 C14.9907814,4.55750188 14.9995616,4.58326809 14.9995616,4.60978068 C14.9995616,4.66280001 14.965177,4.70778841 14.9174908,4.723663 L14.8795616,4.72978068 L13.8279151,4.72910144 L13.8279151,11.2571014 L14.8795616,11.2571113 C14.9458357,11.2571113 14.9995616,11.3108371 14.9995616,11.3771113 C14.9995616,11.4036239 14.9907814,11.4293901 14.9745922,11.450386 L13.2756283,13.6537878 C13.2351598,13.7062718 13.159807,13.7160123 13.107323,13.6755438 C13.0990884,13.6691944 13.091714,13.6618016 13.0853851,13.6535512 L11.3951443,11.4501494 C11.3548065,11.3975649 11.3647344,11.3222365 11.4173189,11.2818987 C11.4382739,11.265824 11.4639466,11.2571113 11.4903569,11.2571113 L12.5319151,11.2571014 L12.5319151,4.72910144 L11.4903569,4.72978068 C11.4771517,4.72978068 11.464131,4.7276025 11.4517921,4.72341499 L11.4173189,4.70499328 C11.3778805,4.67473992 11.3624365,4.62480436 11.3741969,4.57954334 L11.3951443,4.5367426 L13.0853851,2.33334078 C13.091714,2.32509041 13.0990884,2.31769763 13.107323,2.31134823 C13.146686,2.28099686 13.1989127,2.27888802 13.2396385,2.30187224 Z" id="形状结合" fill="#000000" fill-rule="nonzero"></path>
            </g>
        </g>
    </g>
</svg>