<?xml version="1.0" encoding="UTF-8"?>
<svg width="16px" height="16px" viewBox="0 0 16 16" version="1.1" xmlns="http://www.w3.org/2000/svg" xmlns:xlink="http://www.w3.org/1999/xlink">
    <title>p-like</title>
    <g id="页面-1" stroke="none" stroke-width="1" fill="none" fill-rule="evenodd">
        <g id="画板" transform="translate(-178.000000, -1057.000000)" fill="#000000" fill-rule="nonzero">
            <g id="p-like" transform="translate(178.000000, 1057.000000)">
                <rect id="矩形" opacity="0" x="0" y="0" width="16" height="16"></rect>
                <path d="M14.3471909,8.36949399 C14.6325931,7.9923553 14.7905837,7.53027545 14.7905837,7.04950855 C14.7905837,6.28673705 14.3641791,5.56473729 13.6778546,5.16211625 C13.501167,5.05847971 13.2999974,5.00393515 13.0951584,5.00412571 L9.0213809,5.00412571 L9.12331028,2.9162723 C9.1470938,2.41172188 8.96871739,1.9326538 8.62215751,1.56740687 C8.2738988,1.20215993 7.80502366,1 7.29877442,1 C6.41538648,1 5.63392792,1.59458804 5.39949035,2.44569834 L3.94020143,7.72903774 L1.74362335,7.72903774 C1.44293168,7.72903774 1.2,7.97196942 1.2,8.27266108 L1.2,14.4563767 C1.2,14.7570683 1.44293168,15 1.74362335,15 L11.9586458,15 C12.1149375,15 12.2678316,14.9694212 12.4088339,14.9082636 C13.2174736,14.5634025 13.7390123,13.7734498 13.7390123,12.8968572 C13.7390123,12.6828055 13.7084334,12.4721514 13.6472758,12.2682927 C13.9326781,11.891154 14.0906686,11.4290741 14.0906686,10.9483072 C14.0906686,10.7342556 14.0600898,10.5236015 13.9989322,10.3197427 C14.2843344,9.94260405 14.442325,9.48052421 14.442325,8.99975731 C14.4389273,8.78570562 14.4083485,8.57335275 14.3471909,8.36949399 Z M2.42315253,13.7768475 L2.42315253,8.95219027 L3.79919913,8.95219027 L3.79919913,13.7768475 L2.42315253,13.7768475 Z M13.2344618,7.78000243 L12.8624196,8.10277879 L13.098556,8.53427982 C13.1767019,8.67698095 13.2157748,8.83327266 13.2157748,8.99805849 C13.2157748,9.27836428 13.0934595,9.54507948 12.8828055,9.72855236 L12.5107633,10.0513287 L12.7468996,10.4828298 C12.8250455,10.6255309 12.8641184,10.7818226 12.8641184,10.9466084 C12.8641184,11.2269142 12.7418032,11.4936294 12.5311491,11.6771023 L12.1591069,11.9998787 L12.3952433,12.4313797 C12.4733892,12.5740808 12.5124621,12.7303725 12.5124621,12.8951584 C12.5124621,13.2756947 12.2882174,13.6188569 11.9416576,13.7751486 L4.88644582,13.7751486 L4.88644582,8.89782793 L6.57677466,2.77357117 C6.66511346,2.45249363 6.95900983,2.22655018 7.29367795,2.22485135 C7.4227885,2.22485135 7.55020022,2.26222546 7.6521296,2.33867249 C7.82031307,2.46438539 7.91035069,2.65465356 7.90015775,2.85681349 L7.73707074,6.22727824 L13.0781701,6.22727824 C13.3805606,6.41244995 13.5674311,6.72503337 13.5674311,7.04950855 C13.5674311,7.32981434 13.4451159,7.59483072 13.2344618,7.78000243 Z" id="形状"></path>
            </g>
        </g>
    </g>
</svg>