<?xml version="1.0" encoding="UTF-8"?>
<svg width="16px" height="16px" viewBox="0 0 16 16" version="1.1" xmlns="http://www.w3.org/2000/svg" xmlns:xlink="http://www.w3.org/1999/xlink">
    <title>p-line-chart</title>
    <g id="页面-1" stroke="none" stroke-width="1" fill="none" fill-rule="evenodd">
        <g id="画板" transform="translate(-521.000000, -1057.000000)" fill="#000000" fill-rule="nonzero">
            <g id="p-line-chart" transform="translate(521.000000, 1057.000000)">
                <rect id="矩形" opacity="0" x="0" y="0" width="16" height="16"></rect>
                <path d="M14.8541667,13.1008333 L2.3125,13.1008333 L2.3125,1.72583333 C2.3125,1.645625 2.246875,1.58 2.16666667,1.58 L1.14583333,1.58 C1.065625,1.58 1,1.645625 1,1.72583333 L1,14.2675 C1,14.3477083 1.065625,14.4133333 1.14583333,14.4133333 L14.8541667,14.4133333 C14.934375,14.4133333 15,14.3477083 15,14.2675 L15,13.2466667 C15,13.1664583 14.934375,13.1008333 14.8541667,13.1008333 Z M4.24114583,10.2880729 C4.29765625,10.3445833 4.38880208,10.3445833 4.44713542,10.2880729 L6.96822917,7.77973958 L9.29427083,10.1203646 C9.35078125,10.176875 9.44375,10.176875 9.50026042,10.1203646 L14.5205729,5.101875 C14.5770833,5.04536458 14.5770833,4.95239583 14.5205729,4.89588542 L13.7986979,4.17401042 C13.7421875,4.1175 13.6492187,4.1175 13.5927083,4.17401042 L9.4,8.36489583 L7.07760417,6.02791667 C7.02109375,5.97140625 6.928125,5.97140625 6.87161458,6.02791667 L3.52109375,9.35838542 C3.46458333,9.41489583 3.46458333,9.50786458 3.52109375,9.564375 L4.24114583,10.2880729 Z" id="形状"></path>
            </g>
        </g>
    </g>
</svg>