<?xml version="1.0" encoding="UTF-8"?>
<svg width="16px" height="16px" viewBox="0 0 16 16" version="1.1" xmlns="http://www.w3.org/2000/svg" xmlns:xlink="http://www.w3.org/1999/xlink">
    <title>p-link</title>
    <g id="页面-1" stroke="none" stroke-width="1" fill="none" fill-rule="evenodd">
        <g id="画板" transform="translate(-147.000000, -1057.000000)" fill="#000000" fill-rule="nonzero">
            <g id="p-link" transform="translate(147.000000, 1057.000000)">
                <rect id="矩形" opacity="0" x="0" y="0" width="16" height="16"></rect>
                <path d="M9.13007387,10.7961655 C9.07356529,10.7396569 8.98059956,10.7396569 8.92409099,10.7961655 L6.80593077,12.9143257 C5.82523353,13.8950229 4.17007907,13.9989258 3.08730182,12.9143257 C2.00270171,11.8297256 2.10660458,10.176394 3.08730182,9.19569673 L5.20546204,7.07753651 C5.26197061,7.02102794 5.26197061,6.92806221 5.20546204,6.87155363 L4.47996482,6.14605642 C4.42345624,6.08954784 4.33049052,6.08954784 4.27398194,6.14605642 L2.15582173,8.26421663 C0.613684425,9.80635393 0.613684425,12.3018456 2.15582173,13.8421601 C3.69795903,15.3824745 6.19345071,15.3842974 7.73376515,13.8421601 L9.85192537,11.7239998 C9.90843394,11.6674913 9.90843394,11.5745255 9.85192537,11.518017 L9.13007387,10.7961655 Z M13.8439829,2.15582173 C12.3018456,0.613684425 9.80635393,0.613684425 8.26603949,2.15582173 L6.14605642,4.27398194 C6.08954784,4.33049052 6.08954784,4.42345624 6.14605642,4.47996482 L6.86973078,5.20363918 C6.92623935,5.26014776 7.01920508,5.26014776 7.07571366,5.20363918 L9.19387387,3.08547896 C10.1745711,2.10478172 11.8297256,2.00087885 12.9125028,3.08547896 C13.9971029,4.17007907 13.8932001,5.82341067 12.9125028,6.80410791 L10.7943426,8.92226813 C10.737834,8.97877671 10.737834,9.07174243 10.7943426,9.12825101 L11.5198398,9.85374822 C11.5763484,9.9102568 11.6693141,9.9102568 11.7258227,9.85374822 L13.8439829,7.73558801 C15.3842974,6.19345071 15.3842974,3.69795903 13.8439829,2.15582173 L13.8439829,2.15582173 Z M9.78812536,5.45337063 C9.73161678,5.39686206 9.63865106,5.39686206 9.58214248,5.45337063 L5.45337063,9.58031963 C5.39686206,9.6368282 5.39686206,9.72979393 5.45337063,9.7863025 L6.17522214,10.508154 C6.23173071,10.5646626 6.32469644,10.5646626 6.38120501,10.508154 L10.508154,6.38120501 C10.5646626,6.32469644 10.5646626,6.23173071 10.508154,6.17522214 L9.78812536,5.45337063 Z" id="形状"></path>
            </g>
        </g>
    </g>
</svg>