<?xml version="1.0" encoding="UTF-8"?>
<svg width="16px" height="16px" viewBox="0 0 16 16" version="1.1" xmlns="http://www.w3.org/2000/svg" xmlns:xlink="http://www.w3.org/1999/xlink">
    <title>p-location</title>
    <g id="页面-1" stroke="none" stroke-width="1" fill="none" fill-rule="evenodd">
        <g id="画板" transform="translate(-490.000000, -1057.000000)" fill="#000000" fill-rule="nonzero">
            <g id="p-location" transform="translate(490.000000, 1057.000000)">
                <rect id="矩形" opacity="0" x="0" y="0" width="16" height="16"></rect>
                <path d="M8.0037059,1 C8.79372663,1 9.55971365,1.15153135 10.2809485,1.45073368 C10.9798767,1.73945568 11.6055462,2.15115338 12.1440348,2.67704575 C12.6838141,3.20419867 13.1076864,3.8177815 13.4037534,4.50125539 C13.7113016,5.21098205 13.8674118,5.96491875 13.8674118,6.7406528 C13.8674118,7.85337776 13.6013371,8.95727089 13.0768541,10.0203691 C12.6571777,10.8770119 12.0717365,11.7111571 11.3363532,12.4997383 C10.3451116,13.5638109 9.27646918,14.3701929 8.38646214,14.8952594 C8.26989103,14.9645263 8.13806908,15 8.00214827,15 C7.86721763,15 7.73395115,14.9642563 7.61802184,14.8953704 C6.72782735,14.3701929 5.65918496,13.5638109 4.66792155,12.4997149 C3.93088609,11.7077938 3.34617146,10.8750782 2.9274367,10.0203574 C2.40546227,8.9543976 2.14,7.84896515 2.14,6.73909517 C2.14,5.96336112 2.29611018,5.20942441 2.60367806,4.49965244 C2.90042005,3.81619881 3.32483568,3.20143198 3.86345137,2.67541559 C4.40374832,2.14933698 5.0299177,1.73691383 5.72648674,1.44916636 C6.44868053,1.15114315 7.21471052,1 8.0037059,1 Z M8.0037059,2.26011044 C6.77154202,2.26011044 5.61429381,2.72775452 4.74372476,3.576828 C3.87678277,4.42382265 3.40011044,5.54623139 3.40011044,6.7406528 C3.40011044,8.39933235 4.10898783,9.9462807 5.33465251,11.3575965 C6.17385851,12.3239169 7.14180008,13.1058481 7.96651968,13.6775015 C8.86561172,13.1058481 9.83355329,12.3239169 10.6727593,11.3575965 C11.898424,9.9462807 12.6073014,8.39933235 12.6073014,6.7406528 C12.6073014,5.54604092 12.1304928,4.42371303 11.263685,3.57838362 C10.3934374,2.72808879 9.23635688,2.26011044 8.0037059,2.26011044 Z M8.0037059,4.0529629 C9.55600344,4.0529629 10.8144489,5.31140836 10.8144489,6.8637059 C10.8144489,8.41600344 9.55600344,9.6744489 8.0037059,9.6744489 C6.45140836,9.6744489 5.1929629,8.41600344 5.1929629,6.8637059 C5.1929629,5.31140836 6.45140836,4.0529629 8.0037059,4.0529629 Z M8.0037059,5.1884626 C7.55582648,5.1884626 7.1359151,5.36221904 6.81918279,5.67895108 C6.50280322,5.99683008 6.3284626,6.41720643 6.3284626,6.8637059 C6.3284626,7.31020537 6.50280322,7.73058173 6.81895108,8.04822901 C7.13683008,8.36460858 7.55720643,8.5389492 8.0037059,8.5389492 C8.45020537,8.5389492 8.87058173,8.36460858 9.18834473,8.04834473 C9.50519276,7.7314967 9.6789492,7.31158532 9.6789492,6.8637059 C9.6789492,6.41582648 9.50519276,5.9959151 9.18834473,5.67906707 C8.8714967,5.36221904 8.45158532,5.1884626 8.0037059,5.1884626 Z" id="形状结合"></path>
            </g>
        </g>
    </g>
</svg>