<?xml version="1.0" encoding="UTF-8"?>
<svg width="16px" height="16px" viewBox="0 0 16 16" version="1.1" xmlns="http://www.w3.org/2000/svg" xmlns:xlink="http://www.w3.org/1999/xlink">
    <title>p-logout</title>
    <g id="页面-1" stroke="none" stroke-width="1" fill="none" fill-rule="evenodd">
        <g id="画板" transform="translate(-396.000000, -1057.000000)" fill="#000000" fill-rule="nonzero">
            <g id="p-logout" transform="translate(396.000000, 1057.000000)">
                <rect id="矩形" opacity="0" x="0" y="0" width="16" height="16"></rect>
                <path d="M7.84703562,1.14002342 C10.2177007,1.13387576 12.3850857,2.3386692 13.6422142,4.29239034 C13.7171458,4.40585818 13.6541834,4.55173474 13.5335843,4.58643095 L13.4786042,4.59407516 L12.3687455,4.59407516 C12.2729874,4.59407516 12.1808507,4.55100536 12.121628,4.47794103 C12.0033764,4.33803778 11.8887075,4.21220983 11.7719886,4.09549077 C11.2622244,3.58729026 10.6709523,3.18879012 10.0146019,2.91194075 C9.33630603,2.62413172 8.61313158,2.47855509 7.86458224,2.47855509 C7.11895275,2.47855509 6.39546604,2.62458713 5.71442661,2.91199827 C5.05821222,3.18879012 4.4669401,3.58729026 3.95717589,4.09549077 C3.44890843,4.60219912 3.04978639,5.19302545 2.77225022,5.84944523 C2.48468967,6.53083872 2.33881202,7.25277623 2.33881202,7.99801033 C2.33881202,8.74616118 2.48423686,9.46779764 2.7721778,10.1464045 C3.05233193,10.8053144 3.45070402,11.3956116 3.95717589,11.9005299 C4.4669401,12.4087304 5.05821222,12.8072305 5.7144384,13.0840274 C6.39546604,13.3714335 7.11895275,13.5174656 7.86458224,13.5174656 C8.61021173,13.5174656 9.33369844,13.3714335 10.0147379,13.0840224 C10.6709523,12.8072305 11.2622244,12.4087304 11.7722264,11.900294 C11.8954359,11.778644 12.0122166,11.6509274 12.1207253,11.51917 C12.1660553,11.463263 12.2284439,11.4252777 12.2976484,11.4097793 L12.3687455,11.4019455 L13.4786042,11.4019455 C13.6328799,11.4019455 13.725978,11.5730686 13.6426429,11.7029731 C12.3865027,13.6527781 10.2286685,14.8559263 7.86458224,14.8559263 C4.10000931,14.8559263 1.03865681,11.8265551 1.0003548,8.06817023 C0.962870132,4.33063605 3.90018422,1.27920008 7.60926487,1.1446523 L7.84703562,1.14002342 Z M12.6341722,6.04652239 L12.6848079,6.07595085 L14.9247521,7.84391371 C15.0083196,7.90913715 15.0222475,8.02532508 14.9667076,8.10740182 L14.925049,8.15187393 L12.6854166,9.9195838 C12.5738094,10.0097281 12.4139758,9.95015882 12.3757613,9.82407292 L12.3673248,9.76620621 L12.4366316,8.63566575 L7.47936814,8.63566575 C7.38958322,8.63566575 7.31360202,8.5746487 7.29076898,8.49195905 L7.28376169,8.4400593 L7.28376169,7.55596136 C7.28376169,7.46617644 7.34477874,7.39019524 7.42746839,7.3673622 L7.47936814,7.36035491 L12.3664031,7.35963086 L12.3673248,6.22981445 C12.3673248,6.08637356 12.5117474,5.99797643 12.6341722,6.04652239 Z" id="形状结合"></path>
            </g>
        </g>
    </g>
</svg>