<?xml version="1.0" encoding="UTF-8"?>
<svg width="16px" height="16px" viewBox="0 0 16 16" version="1.1" xmlns="http://www.w3.org/2000/svg" xmlns:xlink="http://www.w3.org/1999/xlink">
    <title>p-lock</title>
    <g id="页面-1" stroke="none" stroke-width="1" fill="none" fill-rule="evenodd">
        <g id="画板" transform="translate(-459.000000, -1057.000000)" fill="#000000" fill-rule="nonzero">
            <g id="p-lock" transform="translate(459.000000, 1057.000000)">
                <rect id="矩形" opacity="0" x="0" y="0" width="16" height="16"></rect>
                <path d="M13.6,7.16 L12.41,7.16 L12.41,3.24 C12.41,2.00275 11.40725,1 10.17,1 L5.83,1 C4.59275,1 3.59,2.00275 3.59,3.24 L3.59,7.16 L2.4,7.16 C2.09025,7.16 1.84,7.41025 1.84,7.72 L1.84,14.44 C1.84,14.74975 2.09025,15 2.4,15 L13.6,15 C13.90975,15 14.16,14.74975 14.16,14.44 L14.16,7.72 C14.16,7.41025 13.90975,7.16 13.6,7.16 Z M4.85,3.24 C4.85,2.69925 5.28925,2.26 5.83,2.26 L10.17,2.26 C10.71075,2.26 11.15,2.69925 11.15,3.24 L11.15,7.16 L4.85,7.16 L4.85,3.24 Z M12.9,13.74 L3.1,13.74 L3.1,8.42 L12.9,8.42 L12.9,13.74 Z M7.51,11.3075 L7.51,12.235 C7.51,12.312 7.573,12.375 7.65,12.375 L8.35,12.375 C8.427,12.375 8.49,12.312 8.49,12.235 L8.49,11.3075 C8.70175,11.15525 8.84,10.90675 8.84,10.625 C8.84,10.16125 8.46375,9.785 8,9.785 C7.53625,9.785 7.16,10.16125 7.16,10.625 C7.16,10.90675 7.29825,11.15525 7.51,11.3075 Z" id="形状"></path>
            </g>
        </g>
    </g>
</svg>