<?xml version="1.0" encoding="UTF-8"?>
<svg width="16px" height="16px" viewBox="0 0 16 16" version="1.1" xmlns="http://www.w3.org/2000/svg" xmlns:xlink="http://www.w3.org/1999/xlink">
    <title>p-login</title>
    <g id="页面-1" stroke="none" stroke-width="1" fill="none" fill-rule="evenodd">
        <g id="画板" transform="translate(-427.000000, -1057.000000)" fill="#000000" fill-rule="nonzero">
            <g id="p-login" transform="translate(427.000000, 1057.000000)">
                <rect id="矩形" opacity="0" x="0" y="0" width="16" height="16"></rect>
                <path d="M8.15294028,1.14 C11.9734691,1.14961536 15.0379276,4.25107533 14.9996452,8.06815289 C14.9613432,11.8265366 11.8999825,14.8559158 8.13539959,14.8559158 C5.77130706,14.8559158 3.61346706,13.6527644 2.35775226,11.7036114 C2.28282047,11.5901433 2.34578303,11.4442664 2.46638245,11.4095701 L2.52136272,11.4019258 L3.63122434,11.4019258 C3.7269827,11.4019258 3.81911962,11.4449957 3.87834251,11.5180603 C3.99659438,11.6579639 4.11126359,11.7837922 4.22798284,11.9005115 C4.73774841,12.4087134 5.3290221,12.8072146 5.98525003,13.0840122 C6.66627948,13.3714191 7.38976812,13.5174515 8.13539959,13.5174515 C8.88103107,13.5174515 9.60451971,13.3714191 10.2855609,13.0840072 C10.9417771,12.8072146 11.5330508,12.4087134 12.0428164,11.9005115 C12.5510852,11.3938018 12.9502083,10.8029739 13.2277452,10.1465524 C13.5153065,9.4651571 13.6611845,8.74321767 13.6611845,7.99798159 C13.6611845,7.24982875 13.5157593,6.52819037 13.2278176,5.84958175 C12.9476627,5.19067 12.5492896,4.60037126 12.0428164,4.09545165 C11.5330508,3.58724978 10.9417771,3.18874858 10.285425,2.91189848 C9.6071273,2.62408867 8.88395092,2.47851166 8.13539959,2.47851166 C7.38976812,2.47851166 6.66627948,2.62454409 5.98523824,2.91195599 C5.3290221,3.18874858 4.73774841,3.58724978 4.22774504,4.09568757 C4.10453519,4.21733781 3.98775417,4.34505484 3.87924521,4.47681254 C3.83391507,4.53271972 3.77152631,4.57070509 3.70232164,4.58620358 L3.63122434,4.59403736 L2.52136272,4.59403736 C2.36708657,4.59403736 2.27398825,4.42291377 2.35730283,4.29304116 C3.5665156,2.41379523 5.61689835,1.22761432 7.88034959,1.14463582 L8.15294028,1.14 Z M6.35138006,6.04669325 L6.4016693,6.07640301 L8.64101072,7.84388456 C8.72457847,7.90910817 8.73850642,8.02529641 8.6829664,8.10737338 L8.64130761,8.1518456 L6.40103289,9.92006806 C6.28924992,10.0082046 6.13003474,9.94939368 6.09197756,9.82384225 L6.08357669,9.76618218 L6.15288362,8.63563871 L1.19560697,8.63563871 C1.10582181,8.63563871 1.02984041,8.5746215 1.00700731,8.49193163 L1,8.44003174 L1,7.55593144 C1,7.46614629 1.06101721,7.39016488 1.14370708,7.36733178 L1.19560697,7.36032447 L6.08357669,7.4296314 L6.08357669,6.229781 C6.08357669,6.08638786 6.22945981,5.99762624 6.35138006,6.04669325 Z" id="形状结合"></path>
            </g>
        </g>
    </g>
</svg>