<?xml version="1.0" encoding="UTF-8"?>
<svg width="16px" height="16px" viewBox="0 0 16 16" version="1.1" xmlns="http://www.w3.org/2000/svg" xmlns:xlink="http://www.w3.org/1999/xlink">
    <title>p-man</title>
    <g id="页面-1" stroke="none" stroke-width="1" fill="none" fill-rule="evenodd">
        <g id="画板" transform="translate(-334.000000, -1057.000000)" fill="#000000" fill-rule="nonzero">
            <g id="p-man" transform="translate(334.000000, 1057.000000)">
                <rect id="矩形" opacity="0" x="0" y="0" width="16" height="16"></rect>
                <path d="M14.4642857,1 L9.96428571,1 C9.90535714,1 9.85714286,1.04821429 9.85714286,1.10714286 L9.85714286,2.10714286 C9.85714286,2.16607143 9.90535714,2.21428571 9.96428571,2.21428571 L12.8285714,2.21428571 L9.26964286,5.77321429 C8.37678571,5.08571429 7.2875,4.71428571 6.14285714,4.71428571 C4.76964286,4.71428571 3.47678571,5.25 2.50714286,6.22142857 C1.5375,7.19285714 1,8.48392857 1,9.85714286 C1,11.2303571 1.53571429,12.5232143 2.50714286,13.4928571 C3.47678571,14.4642857 4.76964286,15 6.14285714,15 C7.51607143,15 8.80892857,14.4642857 9.77857143,13.4928571 C10.75,12.5232143 11.2857143,11.2303571 11.2857143,9.85714286 C11.2857143,8.7125 10.9142857,7.62678571 10.2285714,6.73392857 L13.7857143,3.17678571 L13.7857143,6.03571429 C13.7857143,6.09464286 13.8339286,6.14285714 13.8928571,6.14285714 L14.8928571,6.14285714 C14.9517857,6.14285714 15,6.09464286 15,6.03571429 L15,1.53571429 C15,1.24107143 14.7589286,1 14.4642857,1 Z M6.14285714,13.6428571 C4.05535714,13.6428571 2.35714286,11.9446429 2.35714286,9.85714286 C2.35714286,7.76964286 4.05535714,6.07142857 6.14285714,6.07142857 C8.23035714,6.07142857 9.92857143,7.76964286 9.92857143,9.85714286 C9.92857143,11.9446429 8.23035714,13.6428571 6.14285714,13.6428571 Z" id="形状"></path>
            </g>
        </g>
    </g>
</svg>