<?xml version="1.0" encoding="UTF-8"?>
<svg width="16px" height="16px" viewBox="0 0 16 16" version="1.1" xmlns="http://www.w3.org/2000/svg" xmlns:xlink="http://www.w3.org/1999/xlink">
    <title>p-mail</title>
    <g id="页面-1" stroke="none" stroke-width="1" fill="none" fill-rule="evenodd">
        <g id="画板" transform="translate(-365.000000, -1057.000000)" fill="#000000" fill-rule="nonzero">
            <g id="p-mail" transform="translate(365.000000, 1057.000000)">
                <rect id="矩形" opacity="0" x="0" y="0" width="16" height="16"></rect>
                <path d="M14.4356436,2.49 C14.7165348,2.49 14.9489505,2.69432656 14.9926248,2.96271381 L15,3.05435644 L15,12.9553465 C15,13.2362378 14.7956734,13.4686535 14.5272862,13.5123277 L14.4356436,13.519703 L1.56435644,13.519703 C1.28346516,13.519703 1.05104947,13.3153764 1.00737524,13.0469892 L1,12.9553465 L1,3.05435644 C1,2.77346516 1.20432656,2.54104947 1.47271381,2.49737524 L1.56435644,2.49 L14.4356436,2.49 Z M2.25049505,4.41277228 L2.18316832,12.2672277 L13.7475248,12.3365432 L13.7465347,4.41475248 L8.57161574,8.43550187 C8.2678476,8.67159888 7.85447666,8.69520859 7.52878075,8.50632537 L7.42373328,8.43549418 L2.25049505,4.41277228 Z M3.2009901,3.72366337 L7.95746003,7.48602693 L12.7722772,3.74247525 L3.2009901,3.72366337 Z" id="形状结合"></path>
            </g>
        </g>
    </g>
</svg>