<?xml version="1.0" encoding="UTF-8"?>
<svg width="16px" height="16px" viewBox="0 0 16 16" version="1.1" xmlns="http://www.w3.org/2000/svg" xmlns:xlink="http://www.w3.org/1999/xlink">
    <title>p-mobile</title>
    <g id="页面-1" stroke="none" stroke-width="1" fill="none" fill-rule="evenodd">
        <g id="画板" transform="translate(-240.000000, -1057.000000)" fill="#000000" fill-rule="nonzero">
            <g id="p-mobile" transform="translate(240.000000, 1057.000000)">
                <rect id="矩形" opacity="0" x="0" y="0" width="16" height="16"></rect>
                <path d="M11.5884996,1 C12.1317521,1 12.5801312,1.4121623 12.6375007,1.94035052 L12.6437013,2.0552017 L12.6437013,13.9447983 C12.6437013,14.4880508 12.231539,14.9364299 11.7033508,14.9937993 L11.5884996,15 L4.4052017,15 C3.86194924,15 3.41357011,14.5878377 3.35620069,14.0596495 L3.35,13.9447983 L3.35,2.0552017 C3.35,1.51194924 3.7621623,1.06357011 4.29035052,1.00620069 L4.4052017,1 L11.5884996,1 Z M4.59345364,2.17905166 L4.52905166,13.7565464 L11.4002477,13.8209483 L11.4002477,2.24246285 L4.59345364,2.17905166 Z M7.99685067,11.5582095 C8.37442115,11.5582095 8.68050248,11.8642908 8.68050248,12.2418613 C8.68050248,12.6194318 8.37442115,12.9255131 7.99685067,12.9255131 C7.6192802,12.9255131 7.31319887,12.6194318 7.31319887,12.2418613 C7.31319887,11.8642908 7.6192802,11.5582095 7.99685067,11.5582095 Z" id="形状结合"></path>
            </g>
        </g>
    </g>
</svg>