<?xml version="1.0" encoding="UTF-8"?>
<svg width="16px" height="16px" viewBox="0 0 16 16" version="1.1" xmlns="http://www.w3.org/2000/svg" xmlns:xlink="http://www.w3.org/1999/xlink">
    <title>p-money-collect</title>
    <g id="页面-1" stroke="none" stroke-width="1" fill="none" fill-rule="evenodd">
        <g id="画板" transform="translate(-209.000000, -1057.000000)" fill="#000000" fill-rule="nonzero">
            <g id="p-money-collect" transform="translate(209.000000, 1057.000000)">
                <rect id="矩形" opacity="0" x="0" y="0" width="16" height="16"></rect>
                <path d="M14.99125,11.30225 C14.965,11.22875 14.8845,11.192 14.811,11.21825 L13.74,11.6085 L13.74,2.19 C13.74,1.532 13.208,1 12.55,1 L3.45,1 C2.792,1 2.26,1.532 2.26,2.19 L2.26,11.6085 L1.18725,11.21825 C1.1715,11.213 1.15575,11.2095 1.14,11.2095 C1.063,11.2095 1,11.2725 1,11.3495 L1,12.3925 C1,12.45025 1.03675,12.50275 1.09275,12.52375 L7.8075,14.96675 C7.93175,15.01225 8.0665,15.01225 8.19075,14.96675 L14.90725,12.5255 C14.96325,12.5045 15,12.452 15,12.39425 L15,11.35125 C15,11.33375 14.9965,11.318 14.99125,11.30225 Z M8,13.69625 L3.52,12.067 L3.52,2.26 L12.48,2.26 L12.48,12.067 L8,13.69625 Z M10.6005,4.5 L9.64675,4.5 C9.59425,4.5 9.54525,4.52975 9.5225,4.577 L8.04025,7.531 L7.9825,7.531 L6.50025,4.577 C6.47575,4.52975 6.4285,4.5 6.376,4.5 L5.40125,4.5 C5.3785,4.5 5.35575,4.50525 5.33475,4.5175 C5.2665,4.55425 5.242,4.64 5.27875,4.7065 L7.097,8.0595 L6.0995,8.0595 C6.0225,8.0595 5.9595,8.1225 5.9595,8.1995 L5.9595,8.67375 C5.9595,8.75075 6.0225,8.81375 6.0995,8.81375 L7.4295,8.81375 L7.4295,9.49625 L6.0995,9.49625 C6.0225,9.49625 5.9595,9.55925 5.9595,9.63625 L5.9595,10.1105 C5.9595,10.1875 6.0225,10.2505 6.0995,10.2505 L7.4295,10.2505 L7.4295,11.36 C7.4295,11.437 7.4925,11.5 7.5695,11.5 L8.44275,11.5 C8.51975,11.5 8.58275,11.437 8.58275,11.36 L8.58275,10.24875 L9.918,10.24875 C9.995,10.24875 10.058,10.18575 10.058,10.10875 L10.058,9.6345 C10.058,9.5575 9.995,9.4945 9.918,9.4945 L8.58275,9.4945 L8.58275,8.812 L9.918,8.812 C9.995,8.812 10.058,8.749 10.058,8.672 L10.058,8.19775 C10.058,8.12075 9.995,8.05775 9.918,8.05775 L8.91,8.05775 L10.72475,4.70475 C10.73525,4.68375 10.74225,4.661 10.74225,4.63825 C10.7405,4.563 10.6775,4.5 10.6005,4.5 Z" id="形状"></path>
            </g>
        </g>
    </g>
</svg>