<?xml version="1.0" encoding="UTF-8"?>
<svg width="16px" height="16px" viewBox="0 0 16 16" version="1.1" xmlns="http://www.w3.org/2000/svg" xmlns:xlink="http://www.w3.org/1999/xlink">
    <title>p-name</title>
    <g id="页面-1" stroke="none" stroke-width="1" fill="none" fill-rule="evenodd">
        <g id="画板" transform="translate(-337.000000, -1697.000000)">
            <g id="p-name" transform="translate(337.000000, 1697.000000)">
                <rect id="矩形" fill="#D8D8D8" opacity="0" x="0" y="0" width="16" height="16"></rect>
                <path d="M13.7805613,13.7092788 C13.8468355,13.7092788 13.9005613,13.7630047 13.9005613,13.8292788 L13.9005613,14.88 C13.9005613,14.9462742 13.8468355,15 13.7805613,15 L2.22,15 C2.15372583,15 2.1,14.9462742 2.1,14.88 L2.1,13.8292788 C2.1,13.7630047 2.15372583,13.7092788 2.22,13.7092788 L13.7805613,13.7092788 Z M8.04967274,3.15134147 L8.08566254,3.18257339 L9.77075622,5.36798686 C9.7869454,5.38898276 9.7957256,5.41474896 9.7957256,5.44126155 C9.7957256,5.49428088 9.76134107,5.53926928 9.71365488,5.55514387 L9.6757256,5.56126155 L8.63330405,5.56029381 L8.63330405,10.4322938 L9.6757256,10.4325632 C9.74199977,10.4325632 9.7957256,10.486289 9.7957256,10.5525632 C9.7957256,10.5790758 9.7869454,10.604842 9.77075622,10.6258379 L8.08566254,12.8112513 C8.04519404,12.8637353 7.96984118,12.8734757 7.91735722,12.8330073 C7.90912262,12.8266578 7.90174821,12.8192651 7.89541931,12.8110147 L6.2189775,10.6256012 C6.17863969,10.5730168 6.18856756,10.4976884 6.24115203,10.4573506 C6.26210703,10.4412759 6.28777974,10.4325632 6.31419011,10.4325632 L7.34730405,10.4322938 L7.34730405,5.56029381 L6.31419011,5.56126155 C6.30098492,5.56126155 6.28796415,5.55908337 6.27562531,5.55489586 L6.24115203,5.53647415 C6.20171368,5.50622079 6.18626966,5.45628523 6.19803007,5.41102421 L6.2189775,5.36822348 L7.89541931,3.18281001 C7.90174821,3.17455964 7.90912262,3.16716686 7.91735722,3.16081746 C7.95672019,3.13046609 8.00894692,3.12835725 8.04967274,3.15134147 Z M13.7805613,1 C13.8468355,1 13.9005613,1.05372583 13.9005613,1.12 L13.9005613,2.17072118 C13.9005613,2.23699535 13.8468355,2.29072118 13.7805613,2.29072118 L2.22,2.29072118 C2.15372583,2.29072118 2.1,2.23699535 2.1,2.17072118 L2.1,1.12 C2.1,1.05372583 2.15372583,1 2.22,1 L13.7805613,1 Z" id="形状结合" fill="#000000"></path>
            </g>
        </g>
    </g>
</svg>