<?xml version="1.0" encoding="UTF-8"?>
<svg width="16px" height="16px" viewBox="0 0 16 16" version="1.1" xmlns="http://www.w3.org/2000/svg" xmlns:xlink="http://www.w3.org/1999/xlink">
    <title>p-notification</title>
    <g id="页面-1" stroke="none" stroke-width="1" fill="none" fill-rule="evenodd">
        <g id="画板" transform="translate(-209.000000, -1157.000000)" fill="#000000" fill-rule="nonzero">
            <g id="p-notification" transform="translate(209.000000, 1157.000000)">
                <rect id="矩形" opacity="0" x="0" y="0" width="16" height="16"></rect>
                <path d="M14.4383202,1 C14.3718285,1 14.3035871,1.01224847 14.2353456,1.04024497 L4.1496063,5.09273841 L1.279965,5.09273841 C1.12598425,5.09273841 1,5.22222222 1,5.3832021 L1,10.6150481 C1,10.776028 1.12598425,10.9055118 1.279965,10.9055118 L3.05949256,10.9055118 C2.99475066,11.1084864 2.95975503,11.3237095 2.95975503,11.5424322 C2.95975503,12.6955381 3.90113736,13.6334208 5.05949256,13.6334208 C6.02887139,13.6334208 6.84601925,12.9755031 7.08748906,12.0866142 L14.2370954,14.959755 C14.3053368,14.9860017 14.3735783,15 14.44007,15 C14.735783,15 15,14.7515311 15,14.4190726 L15,1.58092738 C14.9982502,1.24846894 14.735783,1 14.4383202,1 Z M5.05949256,12.3788276 C4.59580052,12.3788276 4.21959755,12.0043745 4.21959755,11.5424322 C4.21959755,11.3464567 4.28783902,11.1592301 4.41207349,11.0104987 L5.8976378,11.6071741 C5.86264217,12.0376203 5.50043745,12.3788276 5.05949256,12.3788276 L5.05949256,12.3788276 Z M13.7384077,13.4006999 L4.61854768,9.73665792 L4.3928259,9.64566929 L2.25984252,9.64566929 L2.25984252,6.35258093 L4.3928259,6.35258093 L4.61854768,6.2615923 L13.7384077,2.59755031 L13.7384077,13.4006999 L13.7384077,13.4006999 Z" id="形状"></path>
            </g>
        </g>
    </g>
</svg>