<?xml version="1.0" encoding="UTF-8"?>
<svg width="16px" height="16px" viewBox="0 0 16 16" version="1.1" xmlns="http://www.w3.org/2000/svg" xmlns:xlink="http://www.w3.org/1999/xlink">
    <title>p-outdent</title>
    <g id="页面-1" stroke="none" stroke-width="1" fill="none" fill-rule="evenodd">
        <g id="画板" transform="translate(-610.000000, -1157.000000)" fill="#000000" fill-rule="nonzero">
            <g id="p-outdent" transform="translate(610.000000, 1157.000000)">
                <rect id="矩形" opacity="0" x="0" y="0" width="16" height="16"></rect>
                <path d="M6.18,6.775 L14.58,6.775 C14.657,6.775 14.72,6.712 14.72,6.635 L14.72,5.655 C14.72,5.578 14.657,5.515 14.58,5.515 L6.18,5.515 C6.103,5.515 6.04,5.578 6.04,5.655 L6.04,6.635 C6.04,6.712 6.103,6.775 6.18,6.775 Z M6.04,10.345 C6.04,10.422 6.103,10.485 6.18,10.485 L14.58,10.485 C14.657,10.485 14.72,10.422 14.72,10.345 L14.72,9.365 C14.72,9.288 14.657,9.225 14.58,9.225 L6.18,9.225 C6.103,9.225 6.04,9.288 6.04,9.365 L6.04,10.345 Z M14.86,1.84 L1.14,1.84 C1.063,1.84 1,1.903 1,1.98 L1,2.96 C1,3.037 1.063,3.1 1.14,3.1 L14.86,3.1 C14.937,3.1 15,3.037 15,2.96 L15,1.98 C15,1.903 14.937,1.84 14.86,1.84 Z M14.86,12.9 L1.14,12.9 C1.063,12.9 1,12.963 1,13.04 L1,14.02 C1,14.097 1.063,14.16 1.14,14.16 L14.86,14.16 C14.937,14.16 15,14.097 15,14.02 L15,13.04 C15,12.963 14.937,12.9 14.86,12.9 Z M1.0595,8.12075 L3.79475,10.275 C3.89625,10.3555 4.04675,10.28375 4.04675,10.15425 L4.04675,5.84575 C4.04675,5.71625 3.898,5.6445 3.79475,5.725 L1.0595,7.87925 C0.98075,7.9405 0.98075,8.0595 1.0595,8.12075 Z" id="形状"></path>
            </g>
        </g>
    </g>
</svg>