<?xml version="1.0" encoding="UTF-8"?>
<svg width="16px" height="16px" viewBox="0 0 16 16" version="1.1" xmlns="http://www.w3.org/2000/svg" xmlns:xlink="http://www.w3.org/1999/xlink">
    <title>p-phone</title>
    <g id="页面-1" stroke="none" stroke-width="1" fill="none" fill-rule="evenodd">
        <g id="画板" transform="translate(-550.000000, -1157.000000)" fill="#000000" fill-rule="nonzero">
            <g id="p-phone" transform="translate(550.000000, 1157.000000)">
                <rect id="矩形" opacity="0" x="0" y="0" width="16" height="16"></rect>
                <path d="M14.3893089,3.21725976 L12.5255507,1.35525156 C12.2980497,1.12775056 11.9935484,1 11.671547,1 C11.3495455,1 11.0450442,1.12600055 10.8175432,1.35525156 L8.81028437,3.35901038 C8.58278337,3.58651138 8.45503281,3.89276273 8.45503281,4.21476415 C8.45503281,4.53851557 8.58103336,4.84126691 8.81028437,5.07051791 L10.3782913,6.64027482 C10.0177897,7.4767785 9.51028745,8.2257818 8.86628462,8.86803463 C8.22403179,9.51378747 7.47327849,10.0230397 6.64027482,10.3835413 L5.07226792,8.81378439 C4.84476692,8.58628339 4.54026558,8.45853283 4.21826416,8.45853283 C3.89451274,8.45853283 3.59176141,8.58453338 3.36426041,8.81378439 L1.35525156,10.8175432 C1.12775056,11.0450442 1,11.3512956 1,11.673297 C1,11.9970484 1.12600055,12.2997997 1.35525156,12.5290507 L3.21725976,14.3910589 C3.60576147,14.7795606 4.14126382,15.0018116 4.69076624,15.0018116 C4.80451674,15.0018116 4.91476723,14.9930616 5.02676772,14.9738115 C7.34377792,14.5923098 9.64328804,13.3585544 11.5000462,11.5035462 C13.3550544,9.64503805 14.5870598,7.34552793 14.9720615,5.02676772 C15.082312,4.36876483 14.861811,3.69151185 14.3893089,3.21725976 Z M13.731306,4.81851681 C13.3900545,6.88177589 12.2805496,8.93978494 10.6092923,10.6110423 C8.93803494,12.2822997 6.88177589,13.3918045 4.81851681,13.733056 C4.55951567,13.7768062 4.29351449,13.6893058 4.10451366,13.502055 L2.27575561,11.673297 L4.21476415,9.73253843 L6.31127338,11.8325477 L6.32702344,11.8482977 L6.70502511,11.7082971 C9.02728533,10.8525434 10.8507934,9.02903534 11.7047971,6.70677512 L11.8447977,6.32877345 L9.73078842,4.21651416 L11.669797,2.27575561 L13.498555,4.10451366 C13.6875558,4.29351449 13.7750562,4.55951567 13.731306,4.81851681 Z" id="形状"></path>
            </g>
        </g>
    </g>
</svg>