<?xml version="1.0" encoding="UTF-8"?>
<svg width="16px" height="16px" viewBox="0 0 16 16" version="1.1" xmlns="http://www.w3.org/2000/svg" xmlns:xlink="http://www.w3.org/1999/xlink">
    <title>p-pic-right</title>
    <g id="页面-1" stroke="none" stroke-width="1" fill="none" fill-rule="evenodd">
        <g id="画板" transform="translate(-444.000000, -1697.000000)">
            <g id="p-pic-right" transform="translate(444.000000, 1697.000000)">
                <rect id="矩形" stroke="#979797" opacity="0" x="0.5" y="0.5" width="15" height="15"></rect>
                <path d="M14.88,12.3524352 C14.9462742,12.3524352 15,12.406161 15,12.4724352 L15,13.5275267 C15,13.5938009 14.9462742,13.6475267 14.88,13.6475267 L1.12,13.6475267 C1.05372583,13.6475267 1,13.5938009 1,13.5275267 L1,12.4724352 C1,12.406161 1.05372583,12.3524352 1.12,12.3524352 L14.88,12.3524352 Z M14.2983596,5.56181303 C14.464045,5.56181303 14.5983596,5.6961276 14.5983596,5.86181303 L14.5983596,5.86181303 L14.5983596,10.143331 C14.5983596,10.3090165 14.464045,10.443331 14.2983596,10.443331 L14.2983596,10.443331 L6.1754444,10.443331 C6.00975898,10.443331 5.8754444,10.3090165 5.8754444,10.143331 L5.8754444,10.143331 L5.8754444,5.86181303 C5.8754444,5.6961276 6.00975898,5.56181303 6.1754444,5.56181303 L6.1754444,5.56181303 Z M4.7554444,9.14333104 C4.82171857,9.14333104 4.8754444,9.19705687 4.8754444,9.26333104 L4.8754444,10.323331 C4.8754444,10.3896052 4.82171857,10.443331 4.7554444,10.443331 L1.29,10.443331 C1.22372583,10.443331 1.17,10.3896052 1.17,10.323331 L1.17,9.26333104 C1.17,9.19705687 1.22372583,9.14333104 1.29,9.14333104 L4.7554444,9.14333104 Z M13.3028263,6.85648565 L7.17030472,6.85648565 L7.17030472,9.14781228 L13.3028263,9.14781228 L13.3028263,6.85648565 Z M4.7554444,5.56181303 C4.82171857,5.56181303 4.8754444,5.61553886 4.8754444,5.68181303 L4.8754444,6.74181303 C4.8754444,6.8080872 4.82171857,6.86181303 4.7554444,6.86181303 L1.29,6.86181303 C1.22372583,6.86181303 1.17,6.8080872 1.17,6.74181303 L1.17,5.68181303 C1.17,5.61553886 1.22372583,5.56181303 1.29,5.56181303 L4.7554444,5.56181303 Z M14.88,2.35 C14.9462742,2.35 15,2.40372583 15,2.47 L15,3.52509154 C15,3.59136571 14.9462742,3.64509154 14.88,3.64509154 L1.12,3.64509154 C1.05372583,3.64509154 1,3.59136571 1,3.52509154 L1,2.47 C1,2.40372583 1.05372583,2.35 1.12,2.35 L14.88,2.35 Z" id="形状结合" fill="#000000" fill-rule="nonzero"></path>
            </g>
        </g>
    </g>
</svg>