<?xml version="1.0" encoding="UTF-8"?>
<svg width="16px" height="16px" viewBox="0 0 16 16" version="1.1" xmlns="http://www.w3.org/2000/svg" xmlns:xlink="http://www.w3.org/1999/xlink">
    <title>p-pic-left</title>
    <g id="页面-1" stroke="none" stroke-width="1" fill="none" fill-rule="evenodd">
        <g id="画板" transform="translate(-419.000000, -1697.000000)">
            <g id="p-pic-left" transform="translate(419.000000, 1697.000000)">
                <rect id="矩形" stroke="#979797" opacity="0" x="0.5" y="0.5" width="15" height="15"></rect>
                <path d="M14.88,12.3524352 C14.9462742,12.3524352 15,12.406161 15,12.4724352 L15,13.5275267 C15,13.5938009 14.9462742,13.6475267 14.88,13.6475267 L1.12,13.6475267 C1.05372583,13.6475267 1,13.5938009 1,13.5275267 L1,12.4724352 C1,12.406161 1.05372583,12.3524352 1.12,12.3524352 L14.88,12.3524352 Z M9.65754559,5.56181303 C9.82323102,5.56181303 9.95754559,5.6961276 9.95754559,5.86181303 L9.95754559,5.86181303 L9.95754559,10.143331 C9.95754559,10.3090165 9.82323102,10.443331 9.65754559,10.443331 L9.65754559,10.443331 L1.53463042,10.443331 C1.368945,10.443331 1.23463042,10.3090165 1.23463042,10.143331 L1.23463042,10.143331 L1.23463042,5.86181303 C1.23463042,5.6961276 1.368945,5.56181303 1.53463042,5.56181303 L1.53463042,5.56181303 Z M14.6092762,9.14333104 C14.6755504,9.14333104 14.7292762,9.19705687 14.7292762,9.26333104 L14.7292762,10.323331 C14.7292762,10.3896052 14.6755504,10.443331 14.6092762,10.443331 L11.1438318,10.443331 C11.0775577,10.443331 11.0238318,10.3896052 11.0238318,10.323331 L11.0238318,9.26333104 C11.0238318,9.19705687 11.0775577,9.14333104 11.1438318,9.14333104 L14.6092762,9.14333104 Z M8.66201229,6.85648565 L2.52949074,6.85648565 L2.52949074,9.14781228 L8.66201229,9.14781228 L8.66201229,6.85648565 Z M14.6092762,5.56181303 C14.6755504,5.56181303 14.7292762,5.61553886 14.7292762,5.68181303 L14.7292762,6.74181303 C14.7292762,6.8080872 14.6755504,6.86181303 14.6092762,6.86181303 L11.1438318,6.86181303 C11.0775577,6.86181303 11.0238318,6.8080872 11.0238318,6.74181303 L11.0238318,5.68181303 C11.0238318,5.61553886 11.0775577,5.56181303 11.1438318,5.56181303 L14.6092762,5.56181303 Z M14.88,2.35 C14.9462742,2.35 15,2.40372583 15,2.47 L15,3.52509154 C15,3.59136571 14.9462742,3.64509154 14.88,3.64509154 L1.12,3.64509154 C1.05372583,3.64509154 1,3.59136571 1,3.52509154 L1,2.47 C1,2.40372583 1.05372583,2.35 1.12,2.35 L14.88,2.35 Z" id="形状结合" fill="#000000" fill-rule="nonzero"></path>
            </g>
        </g>
    </g>
</svg>