<?xml version="1.0" encoding="UTF-8"?>
<svg width="16px" height="16px" viewBox="0 0 16 16" version="1.1" xmlns="http://www.w3.org/2000/svg" xmlns:xlink="http://www.w3.org/1999/xlink">
    <title>p-pie-chart</title>
    <g id="页面-1" stroke="none" stroke-width="1" fill="none" fill-rule="evenodd">
        <g id="画板" transform="translate(-519.000000, -1157.000000)" fill="#000000" fill-rule="nonzero">
            <g id="p-pie-chart" transform="translate(519.000000, 1157.000000)">
                <rect id="矩形" opacity="0" x="0" y="0" width="16" height="16"></rect>
                <path d="M13.5995756,8.09569876 L7.90431292,8.09569876 L7.90431292,2.40043604 C7.90431292,2.33043839 7.84704212,2.27316759 7.77704448,2.27316759 L7.36342204,2.27316759 C6.50436007,2.27316759 5.67075178,2.44179828 4.88646001,2.77269623 C4.12921279,3.09245818 3.44832663,3.55221543 2.86448266,4.1360594 C2.28063869,4.71990337 1.82088144,5.40078953 1.50111949,6.15803675 C1.16863068,6.94391937 1,7.77752766 1,8.63658964 C1,9.49565161 1.16863068,10.3292599 1.49952863,11.1135517 C1.81929059,11.8707989 2.27904783,12.5516851 2.8628918,13.135529 C3.44673578,13.719373 4.12762193,14.1791302 4.88486916,14.4988922 C5.67075178,14.831381 6.50436007,15.0000117 7.36342204,15.0000117 C8.22248402,15.0000117 9.05609231,14.831381 9.84038407,14.5004831 C10.5976313,14.1807211 11.2785175,13.7209639 11.8623614,13.1371199 C12.4462054,12.5532759 12.9059626,11.8723897 13.2257246,11.1151425 C13.5582134,10.3292599 13.7268441,9.49565161 13.7268441,8.63658964 L13.7268441,8.22296721 C13.7268441,8.15296956 13.6695733,8.09569876 13.5995756,8.09569876 Z M11.0812514,12.3878269 C10.0853758,13.3757482 8.74110292,13.9245934 7.33796835,13.9183384 C5.93642465,13.9118665 4.61919629,13.3630214 3.6280933,12.3719184 C2.6306269,11.374452 2.08178175,10.0476785 2.08178175,8.63658964 C2.08178175,7.2255008 2.6306269,5.8987273 3.6280933,4.9012609 C4.49670041,4.03265379 5.61507184,3.5028989 6.82253117,3.38199389 L6.82253117,9.17748051 L12.6180178,9.17748051 C12.4955219,10.3913033 11.9609945,11.5160381 11.0812514,12.3878269 Z M14.9995285,7.2111831 L14.9581663,6.76256185 C14.8229435,5.29738392 14.1722836,3.91493048 13.1255007,2.87132927 C12.0787178,1.8261372 10.6946735,1.17706815 9.22472299,1.04184543 L8.77451088,1.00048319 C8.69974067,0.994119764 8.63610645,1.05139056 8.63610645,1.12616077 L8.63610645,7.23663679 C8.63610645,7.30663443 8.69337725,7.36390523 8.76337489,7.36390523 L14.8722601,7.34799667 C14.9470303,7.34799667 15.0058919,7.28436245 14.9995285,7.2111831 Z M9.71470649,6.28530519 L9.71470649,2.20316995 C10.710582,2.41157202 11.6348691,2.90632809 12.3618901,3.6317582 C13.088911,4.35718831 13.5868488,5.27988451 13.79366,6.2741692 L9.71470649,6.28530519 Z" id="形状"></path>
            </g>
        </g>
    </g>
</svg>