<?xml version="1.0" encoding="UTF-8"?>
<svg width="16px" height="16px" viewBox="0 0 16 16" version="1.1" xmlns="http://www.w3.org/2000/svg" xmlns:xlink="http://www.w3.org/1999/xlink">
    <title>p-pic-center</title>
    <g id="页面-1" stroke="none" stroke-width="1" fill="none" fill-rule="evenodd">
        <g id="画板" transform="translate(-393.000000, -1697.000000)">
            <g id="p-pic-center" transform="translate(393.000000, 1697.000000)">
                <rect id="矩形" stroke="#979797" opacity="0" x="0.5" y="0.5" width="15" height="15"></rect>
                <path d="M14.88,12.3524352 C14.9462742,12.3524352 15,12.406161 15,12.4724352 L15,13.5275267 C15,13.5938009 14.9462742,13.6475267 14.88,13.6475267 L1.12,13.6475267 C1.05372583,13.6475267 1,13.5938009 1,13.5275267 L1,12.4724352 C1,12.406161 1.05372583,12.3524352 1.12,12.3524352 L14.88,12.3524352 Z M13.1370248,5.56181303 C13.3027102,5.56181303 13.4370248,5.6961276 13.4370248,5.86181303 L13.4370248,5.86181303 L13.4370248,10.143331 C13.4370248,10.3090165 13.3027102,10.443331 13.1370248,10.443331 L13.1370248,10.443331 L2.87,10.443331 C2.70431458,10.443331 2.57,10.3090165 2.57,10.143331 L2.57,10.143331 L2.57,5.86181303 C2.57,5.6961276 2.70431458,5.56181303 2.87,5.56181303 L2.87,5.56181303 Z M12.1414915,6.85648565 L3.86486031,6.85648565 L3.86486031,9.14781228 L12.1414915,9.14781228 L12.1414915,6.85648565 Z M14.88,2.35 C14.9462742,2.35 15,2.40372583 15,2.47 L15,3.52509154 C15,3.59136571 14.9462742,3.64509154 14.88,3.64509154 L1.12,3.64509154 C1.05372583,3.64509154 1,3.59136571 1,3.52509154 L1,2.47 C1,2.40372583 1.05372583,2.35 1.12,2.35 L14.88,2.35 Z" id="形状结合" fill="#000000" fill-rule="nonzero"></path>
            </g>
        </g>
    </g>
</svg>