<?xml version="1.0" encoding="UTF-8"?>
<svg width="16px" height="16px" viewBox="0 0 16 16" version="1.1" xmlns="http://www.w3.org/2000/svg" xmlns:xlink="http://www.w3.org/1999/xlink">
    <title>p-plus</title>
    <g id="页面-1" stroke="none" stroke-width="1" fill="none" fill-rule="evenodd">
        <g id="画板" transform="translate(-682.000000, -436.000000)" fill="#000000" fill-rule="nonzero">
            <g id="p-plus" transform="translate(682.000000, 436.000000)">
                <rect id="矩形" opacity="0" x="0" y="0" width="16" height="16"></rect>
                <path d="M7.48684211,1 L8.51315789,1 C8.60438596,1 8.65,1.05185186 8.65,1.15555556 L8.65,14.8444444 C8.65,14.9481481 8.60438596,15 8.51315789,15 L7.48684211,15 C7.39561404,15 7.35,14.9481481 7.35,14.8444444 L7.35,1.15555556 C7.35,1.05185186 7.39561404,1 7.48684211,1 Z M1.1627907,7.35 L14.8372093,7.35 C14.9457364,7.35 15,7.39561404 15,7.48684211 L15,8.51315789 C15,8.60438596 14.9457364,8.65 14.8372093,8.65 L1.1627907,8.65 C1.05426357,8.65 1,8.60438596 1,8.51315789 L1,7.48684211 C1,7.39561404 1.05426357,7.35 1.1627907,7.35 Z" id="形状"></path>
            </g>
        </g>
    </g>
</svg>