<?xml version="1.0" encoding="UTF-8"?>
<svg width="16px" height="16px" viewBox="0 0 16 16" version="1.1" xmlns="http://www.w3.org/2000/svg" xmlns:xlink="http://www.w3.org/1999/xlink">
    <title>p-pound</title>
    <g id="页面-1" stroke="none" stroke-width="1" fill="none" fill-rule="evenodd">
        <g id="画板" transform="translate(-422.000000, -1157.000000)" fill="#000000" fill-rule="nonzero">
            <g id="p-pound" transform="translate(422.000000, 1157.000000)">
                <rect id="矩形" opacity="0" x="0" y="0" width="16" height="16"></rect>
                <path d="M8,1 C4.134375,1 1,4.134375 1,8 C1,11.865625 4.134375,15 8,15 C11.865625,15 15,11.865625 15,8 C15,4.134375 11.865625,1 8,1 Z M8,13.8125 C4.790625,13.8125 2.1875,11.209375 2.1875,8 C2.1875,4.790625 4.790625,2.1875 8,2.1875 C11.209375,2.1875 13.8125,4.790625 13.8125,8 C13.8125,11.209375 11.209375,13.8125 8,13.8125 Z M10.15625,10.534375 L7.340625,10.534375 L7.340625,10.4609375 C7.76875,10.1921875 8.0265625,9.6734375 8.0265625,9.0375 C8.0265625,8.8171875 7.9921875,8.6015625 7.94375,8.396875 L9.484375,8.396875 C9.553125,8.396875 9.609375,8.340625 9.609375,8.271875 L9.609375,7.803125 C9.609375,7.734375 9.553125,7.678125 9.484375,7.678125 L7.734375,7.678125 C7.621875,7.325 7.525,6.9640625 7.525,6.5765625 C7.525,5.896875 8.05625,5.4796875 8.8890625,5.4796875 C9.225,5.4796875 9.553125,5.54375 9.8328125,5.64375 C9.9140625,5.6734375 9.9984375,5.6125 9.9984375,5.525 L9.9984375,4.9078125 C9.9984375,4.85625 9.965625,4.809375 9.9171875,4.790625 C9.6234375,4.678125 9.2328125,4.5921875 8.81875,4.5921875 C7.3671875,4.5921875 6.4515625,5.2875 6.4515625,6.471875 C6.4515625,6.8828125 6.559375,7.284375 6.6796875,7.6765625 L5.84375,7.6765625 C5.775,7.6765625 5.71875,7.7328125 5.71875,7.8015625 L5.71875,8.2703125 C5.71875,8.3390625 5.775,8.3953125 5.84375,8.3953125 L6.8921875,8.3953125 C6.9453125,8.625 6.984375,8.8546875 6.984375,9.0859375 C6.984375,9.7921875 6.534375,10.3875 5.846875,10.5578125 C5.790625,10.571875 5.7515625,10.621875 5.7515625,10.6796875 L5.7515625,11.28125 C5.7515625,11.35 5.8078125,11.40625 5.8765625,11.40625 L10.15625,11.40625 C10.225,11.40625 10.28125,11.35 10.28125,11.28125 L10.28125,10.659375 C10.28125,10.590625 10.225,10.534375 10.15625,10.534375 Z" id="形状"></path>
            </g>
        </g>
    </g>
</svg>