<?xml version="1.0" encoding="UTF-8"?>
<svg width="16px" height="16px" viewBox="0 0 16 16" version="1.1" xmlns="http://www.w3.org/2000/svg" xmlns:xlink="http://www.w3.org/1999/xlink">
    <title>p-point-map</title>
    <g id="页面-1" stroke="none" stroke-width="1" fill="none" fill-rule="evenodd">
        <g id="画板" transform="translate(-149.000000, -1157.000000)" fill="#000000" fill-rule="nonzero">
            <g id="p-point-map" transform="translate(149.000000, 1157.000000)">
                <rect id="矩形" opacity="0" x="0" y="0" width="16" height="16"></rect>
                <path d="M14.8541667,13.1008333 L2.3125,13.1008333 L2.3125,1.72583333 C2.3125,1.645625 2.246875,1.58 2.16666667,1.58 L1.14583333,1.58 C1.065625,1.58 1,1.645625 1,1.72583333 L1,14.2675 C1,14.3477083 1.065625,14.4133333 1.14583333,14.4133333 L14.8541667,14.4133333 C14.934375,14.4133333 15,14.3477083 15,14.2675 L15,13.2466667 C15,13.1664583 14.934375,13.1008333 14.8541667,13.1008333 Z M3.91666667,9.67375 C3.91666667,10.3180822 4.43900112,10.8404167 5.08333333,10.8404167 C5.72766554,10.8404167 6.25,10.3180822 6.25,9.67375 C6.25,9.02941779 5.72766554,8.50708333 5.08333333,8.50708333 C4.43900112,8.50708333 3.91666667,9.02941779 3.91666667,9.67375 Z M6.06770833,5.59041667 C6.06770833,6.07366582 6.45945918,6.46541667 6.94270833,6.46541667 C7.42595749,6.46541667 7.81770833,6.07366582 7.81770833,5.59041667 C7.81770833,5.10716751 7.42595749,4.71541667 6.94270833,4.71541667 C6.45945918,4.71541667 6.06770833,5.10716751 6.06770833,5.59041667 L6.06770833,5.59041667 Z M8.94791667,9.74666667 C8.94791667,10.7131649 9.73141836,11.4966667 10.6979167,11.4966667 C11.664415,11.4966667 12.4479167,10.7131649 12.4479167,9.74666667 C12.4479167,8.78016836 11.664415,7.99666667 10.6979167,7.99666667 C9.73141836,7.99666667 8.94791667,8.78016836 8.94791667,9.74666667 Z M11.6458333,4.02270833 C11.6458333,4.58649902 12.1028759,5.04354167 12.6666667,5.04354167 C13.2304574,5.04354167 13.6875,4.58649902 13.6875,4.02270833 C13.6875,3.45891765 13.2304574,3.001875 12.6666667,3.001875 C12.1028759,3.001875 11.6458333,3.45891765 11.6458333,4.02270833 Z" id="形状"></path>
            </g>
        </g>
    </g>
</svg>