<?xml version="1.0" encoding="UTF-8"?>
<svg width="16px" height="16px" viewBox="0 0 16 16" version="1.1" xmlns="http://www.w3.org/2000/svg" xmlns:xlink="http://www.w3.org/1999/xlink">
    <title>p-poweroff</title>
    <g id="页面-1" stroke="none" stroke-width="1" fill="none" fill-rule="evenodd">
        <g id="画板" transform="translate(-370.000000, -1157.000000)" fill="#000000" fill-rule="nonzero">
            <g id="p-poweroff" transform="translate(370.000000, 1157.000000)">
                <rect id="矩形" opacity="0" x="0" y="0" width="16" height="16"></rect>
                <path d="M11.13717,1.72752126 C11.0512933,1.68377276 10.9492135,1.74696503 10.9492135,1.84418391 L10.9492135,2.88442588 C10.9492135,2.97354319 10.9962026,3.05617923 11.0707371,3.10478867 C11.4336876,3.33325303 11.770713,3.60222525 12.0785728,3.91170534 C12.6084156,4.44316853 13.0248365,5.0605084 13.3148728,5.74752179 C13.614631,6.4588399 13.7669406,7.2139065 13.7669406,7.99489814 C13.7669406,8.77426947 13.614631,9.53095638 13.3148728,10.2422745 C13.0248365,10.9292879 12.6084156,11.5466278 12.0785728,12.0780909 C11.5487299,12.6095541 10.93139,13.025975 10.2443766,13.3160113 C9.53467884,13.6173898 8.77799192,13.7696994 8.00024091,13.7696994 C7.22248991,13.7696994 6.46580299,13.6173898 5.75610519,13.3160113 C5.0690918,13.025975 4.45175193,12.6095541 3.92190906,12.0780909 C3.39206618,11.5466278 2.97564533,10.9292879 2.68560902,10.2422745 C2.38585082,9.53095638 2.23354124,8.77588978 2.23354124,7.99489814 C2.23354124,7.21552682 2.38585082,6.4588399 2.68560902,5.74752179 C2.97564533,5.0605084 3.39206618,4.44316853 3.92190906,3.91170534 C4.22976883,3.60384557 4.56679427,3.33487334 4.92974474,3.10478867 C5.00589953,3.05779955 5.05126834,2.97354319 5.05126834,2.88442588 L5.05126834,1.84256359 C5.05126834,1.74534472 4.94918852,1.68377276 4.86331184,1.72590094 C2.59649171,2.86660242 1.03288812,5.20147577 1.00048183,7.90740115 C0.955113021,11.7767124 4.11958744,14.9914166 7.9872784,14.9995494 C11.8598303,15.0076197 15,11.86745 15,7.99327783 C15,5.25170552 13.4282948,2.87794462 11.13717,1.72752126 Z M7.48174024,8.77751009 L8.51874159,8.77751009 C8.59003543,8.77751009 8.64836676,8.71917877 8.64836676,8.64788493 L8.64836676,1.12962517 C8.64836676,1.05833133 8.59003543,1 8.51874159,1 L7.48174024,1 C7.4104464,1 7.35211507,1.05833133 7.35211507,1.12962517 L7.35211507,8.64788493 C7.35211507,8.71917877 7.4104464,8.77751009 7.48174024,8.77751009 Z" id="形状"></path>
            </g>
        </g>
    </g>
</svg>