<?xml version="1.0" encoding="UTF-8"?>
<svg width="16px" height="16px" viewBox="0 0 16 16" version="1.1" xmlns="http://www.w3.org/2000/svg" xmlns:xlink="http://www.w3.org/1999/xlink">
    <title>p-property-safety</title>
    <g id="页面-1" stroke="none" stroke-width="1" fill="none" fill-rule="evenodd">
        <g id="画板" transform="translate(-179.000000, -1157.000000)" fill="#000000" fill-rule="nonzero">
            <g id="p-property-safety" transform="translate(179.000000, 1157.000000)">
                <rect id="矩形" opacity="0" x="0" y="0" width="16" height="16"></rect>
                <path d="M8.00338896,1 C8.06510399,1 8.12537438,1.00539594 8.17882915,1.01586749 L8.25322823,1.03534148 L13.3728486,2.78005243 C13.5048222,2.82616367 13.612268,2.9580382 13.638063,3.095837 L13.6438918,3.16486047 L13.6438918,10.4322582 C13.6438918,10.561229 13.5777057,10.7182266 13.4854202,10.821934 L13.4272376,10.8771131 L8.23480328,14.9232012 C8.17191714,14.9731402 8.08791927,15 8.00188245,15 C7.94499807,15 7.88940892,14.9882192 7.83950525,14.9655807 L7.76946262,14.9235953 L2.57592718,10.8766401 C2.47523595,10.796379 2.39241401,10.6476741 2.36760367,10.5116801 L2.36,10.4322582 L2.36,3.16486047 C2.36,3.02560934 2.44930242,2.88012206 2.57109342,2.80891768 L2.63443327,2.77987851 L7.75351004,1.03535501 C7.82149432,1.01214087 7.9108164,1 8.00338896,1 Z M8.00257426,2.24356436 L3.58330009,3.70117755 L3.55659175,10.0883385 L7.96079037,13.5864516 L12.4234778,10.1430086 L12.4704194,3.76677666 L8.00257426,2.24356436 Z M6.7755844,5.00731302 C6.83832374,5.00731302 6.8971161,5.0335224 6.93826735,5.07798021 L6.97303104,5.12822598 L8.00950495,7.18019802 L9.05018932,5.12848293 C9.06886309,5.09113539 9.09700394,5.06084291 9.13091458,5.03988732 L9.18564572,5.01574183 L9.2462586,5.00731302 L9.92418749,5.00731302 C10.0453226,5.00731302 10.1441453,5.10613568 10.1441453,5.22727082 L10.1375212,5.28143161 L10.1176319,5.3327207 L8.85207921,7.65643564 L9.42402662,7.65726175 C9.50478338,7.65726175 9.57562348,7.70118293 9.61387724,7.76635561 L9.63610341,7.81886556 L9.64398441,7.87721954 L9.64398441,8.19810589 C9.64398441,8.29905184 9.57535757,8.38450301 9.4823806,8.41018268 L9.42402662,8.41806368 L8.53820706,8.34875675 L8.46890013,8.72688289 L9.42402662,8.72688289 C9.52497257,8.72688289 9.61042374,8.79550974 9.63610341,8.88848671 L9.64398441,8.94684069 L9.64398441,9.26772703 C9.64398441,9.36867298 9.57535757,9.45412415 9.4823806,9.47980382 L9.42402662,9.48768483 L8.53820706,9.4183779 L8.53820706,10.1987494 C8.53820706,10.2996953 8.46958021,10.3851465 8.37660325,10.4108262 L8.31824926,10.4187072 L7.69606119,10.4187072 C7.59511524,10.4187072 7.50966407,10.3500803 7.4839844,10.2571034 L7.47610339,10.1987494 L7.54541032,9.48768483 L6.59480336,9.48768483 C6.49385742,9.48768483 6.40840624,9.41905798 6.38272657,9.32608102 L6.37484557,9.26772703 L6.37484557,8.94684069 C6.37484557,8.84589474 6.44347241,8.76044357 6.53644938,8.7347639 L6.59480336,8.72688289 L7.47610339,8.79618982 L7.54541032,8.41806368 L6.59480336,8.41806368 C6.49385742,8.41806368 6.40840624,8.34943684 6.38272657,8.25645987 L6.37484557,8.19810589 L6.37484557,7.87721954 C6.37484557,7.7762736 6.44347241,7.69082243 6.53644938,7.66514276 L6.59480336,7.65726175 L7.1580198,7.65643564 L5.88879545,5.33206849 C5.85087415,5.26060142 5.85572841,5.17735743 5.89469996,5.11272835 L5.93019033,5.06822171 L5.97766298,5.03354488 L6.02849493,5.01390188 L6.08259042,5.00731302 L6.7755844,5.00731302 Z" id="形状结合"></path>
            </g>
        </g>
    </g>
</svg>