<?xml version="1.0" encoding="UTF-8"?>
<svg width="16px" height="16px" viewBox="0 0 16 16" version="1.1" xmlns="http://www.w3.org/2000/svg" xmlns:xlink="http://www.w3.org/1999/xlink">
    <title>p-pushpin-disable</title>
    <g id="页面-1" stroke="none" stroke-width="1" fill="none" fill-rule="evenodd">
        <g id="画板" transform="translate(-239.000000, -1156.000000)">
            <g id="p-pushpin-disable" transform="translate(239.000000, 1156.000000)">
                <rect id="矩形" fill="#D8D8D8" opacity="0" x="0" y="0" width="16" height="16"></rect>
                <path d="M9.74069992,1.22934632 L9.85518253,1.31481274 L9.94996501,1.40109721 L14.5992713,6.0504035 C15.0659728,6.51710497 15.128302,7.24415094 14.769038,7.78180508 L14.6855936,7.89395393 L14.599334,7.98884076 L13.736493,8.85168177 L13.6147202,8.83958379 C13.4861149,8.64640288 13.3415467,8.46433178 13.1827346,8.29532913 L13.0192382,8.13075517 L13.0178705,8.01752053 L13.8232233,7.21273007 C13.9116847,7.12426865 13.9264283,6.98871177 13.867454,6.88455186 L13.8232233,6.82645149 L9.17391702,2.1771452 C9.10057159,2.10379977 8.9933229,2.08031354 8.90177493,2.10757043 L8.8368329,2.13754125 L8.78763843,2.1771452 L7.62531186,3.33947177 C7.55196643,3.4128172 7.5284802,3.52006589 7.55573709,3.61161386 L7.58570791,3.67655589 L7.62531186,3.72575036 L8.56715754,4.66759603 L8.56715754,4.77945741 L5.51246744,7.80773865 L2.70658629,8.0438736 L2.6901023,8.05157275 L2.68190584,8.06340569 L2.6768643,8.06638194 L2.69011055,8.08916162 L6.02360374,11.4506859 C6.07081721,12.0784252 6.25876065,12.6783072 6.56913374,13.2132733 L6.70959312,13.4384619 L6.58790902,13.5383636 L5.01649192,11.9662523 L2.18731307,14.7966617 C1.97002707,15.0139477 1.64471943,15.0574049 1.38422478,14.9270333 L1.28991496,14.8699958 L1.20370676,14.7966617 C0.959260012,14.552215 0.934815337,14.1710534 1.13036611,13.8992703 L1.20369767,13.8130645 L4.03172259,10.9824717 L1.91405431,8.86520135 C1.56989098,8.52103802 1.49336126,8.00487675 1.6964055,7.58277055 L1.75872176,7.47018251 L1.83495501,7.3634577 L1.91405431,7.27552476 C2.03888152,7.15069755 2.19075243,7.05757921 2.35925069,7.00238131 L2.48857926,6.96819003 L2.61469323,6.95022984 L5.02872837,6.76573248 L7.07106086,4.72384737 L6.84926387,4.50179835 C6.44968126,4.10221573 6.34430908,3.50818103 6.55384987,3.00470971 L6.61280774,2.88089355 L6.68495887,2.7618405 L6.7629794,2.65820626 L6.84926387,2.56342378 L8.01159044,1.40109721 C8.47829193,0.934395732 9.20533793,0.872066514 9.74069992,1.22934632 Z M10.1595412,7.76844985 C12.0188929,7.76844985 13.5261951,9.27575215 13.5261951,11.1351038 C13.5261951,12.9944555 12.0188929,14.5017577 10.1595412,14.5017577 C8.30018958,14.5017577 6.79288727,12.9944554 6.79288727,11.1351038 C6.79288727,9.27575217 8.3001896,7.76844985 10.1595412,7.76844985 Z M11.9425051,9.73470174 L9.7257854,13.3613422 L9.79556167,13.3752367 L9.97627244,13.396971 L10.1595413,13.4042602 C11.4127617,13.4042602 12.4286976,12.3883242 12.4286976,11.1351038 C12.4286976,10.643292 12.2717607,10.1759404 11.9876254,9.79048576 L11.9425051,9.73470174 Z M10.1595412,8.86594744 C8.90632079,8.86594744 7.89038488,9.88188335 7.89038488,11.1351038 C7.89038488,11.7960694 8.17481671,12.4096797 8.65714018,12.8357488 L8.72519649,12.8916982 L11.0704504,9.05841437 L10.9639453,9.01262358 C10.7732564,8.94030477 10.5728958,8.89395885 10.3670544,8.87530581 L10.1595412,8.86594744 Z" id="形状" fill="#000000" fill-rule="nonzero"></path>
            </g>
        </g>
    </g>
</svg>