<?xml version="1.0" encoding="UTF-8"?>
<svg width="16px" height="16px" viewBox="0 0 16 16" version="1.1" xmlns="http://www.w3.org/2000/svg" xmlns:xlink="http://www.w3.org/1999/xlink">
    <title>p-pushpin-stop</title>
    <g id="页面-1" stroke="none" stroke-width="1" fill="none" fill-rule="evenodd">
        <g id="画板" transform="translate(-285.000000, -1202.000000)">
            <g id="p-pushpin-stop" transform="translate(285.000000, 1202.000000)">
                <rect id="矩形" fill="#D8D8D8" opacity="0" x="0" y="0" width="16" height="16"></rect>
                <path d="M15.7869234,4.4276244 L15.808991,4.5679347 L15.8166936,4.71279845 L15.8166936,11.2879359 C15.8166936,11.941933 15.3549885,12.496706 14.7277485,12.6290911 L14.5909142,12.6508764 L14.4460505,12.658579 L12.8022661,12.658579 C12.1482691,12.658579 11.593496,12.1968739 11.461111,11.5696339 L11.4393256,11.4327996 L11.431623,11.2879359 L11.4314354,11.0122464 L8.5456872,10.9951544 L6.70608277,12.5508281 C6.33382826,12.8654005 5.80820753,12.900222 5.3998637,12.6545627 L5.30037763,12.5873041 L5.20906522,12.5096974 L5.12201751,12.4177687 C5.00807952,12.2829528 4.92800135,12.1238285 4.88709289,11.9512748 L4.86383883,11.8195115 L4.8564856,11.6922416 L4.85675751,8.69530866 L0.855517378,8.69588455 C0.548227383,8.69588455 0.287470258,8.49658542 0.195459008,8.22020017 L0.169103449,8.11318099 L0.16,8.00036717 C0.16,7.65466592 0.412237956,7.36785784 0.742694182,7.31395324 L0.855504521,7.30484979 L4.85675751,7.3040274 L4.8564856,4.30846859 C4.8564856,3.82174626 5.16735325,3.40264882 5.60940308,3.24774803 L5.73307957,3.21220037 L5.86245096,3.1906395 L5.98056104,3.18439315 C6.15709404,3.18439315 6.33032826,3.22593764 6.48850593,3.30605341 L6.60413237,3.37332589 L6.70600862,3.44980246 L8.54345568,5.02632984 L11.4314354,5.02624131 L11.431623,4.71279845 C11.431623,4.15040336 11.7739125,3.65761926 12.2747963,3.44805678 L12.403215,3.40169023 L12.5376039,3.36786628 L12.674232,3.34816437 L12.8022661,3.34215535 L14.4460505,3.34215535 C15.1000476,3.34215535 15.6548206,3.80386048 15.7869234,4.4276244 Z M14.6247496,4.50665416 L14.5772582,4.47343478 L14.5084212,4.44688405 L14.4460505,4.43965719 L12.8022661,4.43965719 C12.7008068,4.43965719 12.6099484,4.49635561 12.5637152,4.57695591 L12.5379392,4.64137529 L12.5291249,4.71279845 L12.5291249,6.04477453 L12.4500266,6.12387277 L8.14869971,6.10519882 L5.98970507,4.28349941 L5.98970507,4.28349941 L5.9607286,4.28300595 L5.95398743,4.30846859 L5.95398743,11.6922657 C5.95398743,11.6984976 5.95620548,11.7045505 5.96030368,11.7093997 L5.97139761,11.7185544 L5.99766256,11.7125853 L8.15176824,9.91639458 L12.4500266,9.91639458 L12.5291249,9.99549282 L12.5291249,11.2879359 C12.5291249,11.3893952 12.5858233,11.4802536 12.6664236,11.5264868 L12.730843,11.5522628 L12.8022661,11.5610771 L14.4460505,11.5610771 C14.5475098,11.5610771 14.6383682,11.5043787 14.6846014,11.4237784 L14.7103774,11.359359 L14.7191918,11.2879359 L14.7191918,4.71279845 C14.7191918,4.63163098 14.6829048,4.55724813 14.6247496,4.50665416 Z" id="形状" fill="#000000" fill-rule="nonzero"></path>
            </g>
        </g>
    </g>
</svg>