<?xml version="1.0" encoding="UTF-8"?>
<svg width="16px" height="16px" viewBox="0 0 16 16" version="1.1" xmlns="http://www.w3.org/2000/svg" xmlns:xlink="http://www.w3.org/1999/xlink">
    <title>p-pushpin</title>
    <g id="页面-1" stroke="none" stroke-width="1" fill="none" fill-rule="evenodd">
        <g id="画板" transform="translate(-262.000000, -1157.000000)">
            <g id="p-pushpin" transform="translate(262.000000, 1157.000000)">
                <rect id="矩形" fill="#D8D8D8" opacity="0" x="0" y="0" width="16" height="16"></rect>
                <path d="M9.7273004,1.22050868 L9.84211893,1.30411889 L9.94999962,1.40110647 L14.5993239,6.05043074 C15.0617696,6.5128765 15.1275786,7.23163509 14.7776634,7.76877107 L14.6963115,7.88093211 L14.5993239,7.9888128 L13.4369928,9.15114386 C12.9745471,9.61358962 12.2557885,9.67939856 11.7186525,9.32948336 L11.6064915,9.24813145 L11.4986108,9.15114386 L11.3035361,8.95633466 L9.25091819,10.9847809 L9.05014885,13.3856051 C9.0093614,13.871265 8.66231394,14.2675575 8.19986394,14.3825929 L8.08195767,14.4053812 L7.96251376,14.4150725 L7.83595833,14.4116211 C7.66006277,14.3968582 7.49092113,14.3409642 7.33998058,14.247877 L7.23036673,14.1711493 L7.1351738,14.0863554 L5.01621447,11.9670116 L2.18731766,14.7967228 C1.97003082,15.0140096 1.64472192,15.057467 1.38422626,14.9270949 L1.28991608,14.8700571 L1.20370755,14.7967228 C0.959259854,14.5522751 0.934815084,14.171112 1.13036661,13.8993279 L1.20369846,13.8131218 L4.03243006,10.9832272 L1.91405784,8.86523948 C1.56989318,8.52107482 1.49336317,8.00491155 1.69640819,7.58280372 L1.75872469,7.47021525 L1.83495824,7.36349002 L1.91405784,7.27555674 C2.03888553,7.15072906 2.19075701,7.05761037 2.35925592,7.00241226 L2.48858498,6.96822084 L2.61469947,6.95026056 L5.02874395,6.76576249 L7.07079136,4.72358988 L6.8492865,4.5018196 C6.45161311,4.10414621 6.34519735,3.51366003 6.5511926,3.01129867 L6.60921222,2.88770684 L6.68032241,2.76876236 L6.76300168,2.65822038 L6.8492865,2.56343754 L8.01161756,1.40110647 C8.47406332,0.93866071 9.19282192,0.872851769 9.7273004,1.22050868 Z M8.9614019,2.09817213 L8.90433077,2.10826396 L8.8368815,2.13816484 L8.78766855,2.17715746 L7.62533749,3.33948853 C7.5535949,3.41123111 7.52944017,3.51556952 7.55374139,3.60525434 L7.58106635,3.66903214 L7.62533749,3.7257686 L8.5671868,4.66761792 L8.5671868,4.77947973 L5.5124849,7.80777268 L2.70659289,8.04390855 C2.70041188,8.04442706 2.69457877,8.0471378 2.69010827,8.05160829 L2.6819121,8.06344071 L2.67687075,8.06641695 L2.69010883,8.08918849 L7.91124187,13.3103215 C7.91564847,13.3147281 7.92149692,13.3174398 7.92782366,13.3179708 L7.94214162,13.3165996 L7.95649291,13.2938066 L8.20957704,10.5005253 L11.2489047,7.46119762 L11.3607665,7.46119762 L12.2746618,8.37509287 C12.3464043,8.44683546 12.4507427,8.47099018 12.5404276,8.44668897 L12.6042054,8.419364 L12.6609418,8.37509287 L13.8232729,7.21276181 C13.8950155,7.14101922 13.9191702,7.03668081 13.894869,6.94699599 L13.867544,6.8832182 L13.8232729,6.82648173 L9.17394863,2.17715746 C9.11655456,2.11976339 9.03829917,2.09282555 8.9614019,2.09817213 Z" id="形状" fill="#000000" fill-rule="nonzero"></path>
            </g>
        </g>
    </g>
</svg>