<?xml version="1.0" encoding="UTF-8"?>
<svg width="16px" height="16px" viewBox="0 0 16 16" version="1.1" xmlns="http://www.w3.org/2000/svg" xmlns:xlink="http://www.w3.org/1999/xlink">
    <title>p-qrcode</title>
    <g id="页面-1" stroke="none" stroke-width="1" fill="none" fill-rule="evenodd">
        <g id="画板" transform="translate(-449.000000, -1157.000000)" fill="#000000" fill-rule="nonzero">
            <g id="p-qrcode" transform="translate(449.000000, 1157.000000)">
                <rect id="矩形" opacity="0" x="0" y="0" width="16" height="16"></rect>
                <path d="M7.19791667,1 L1.58333333,1 C1.26067708,1 1,1.26067708 1,1.58333333 L1,7.19791667 C1,7.278125 1.065625,7.34375 1.14583333,7.34375 L7.19791667,7.34375 C7.278125,7.34375 7.34375,7.278125 7.34375,7.19791667 L7.34375,1.14583333 C7.34375,1.065625 7.278125,1 7.19791667,1 Z M6.17708333,6.17708333 L2.16666667,6.17708333 L2.16666667,2.16666667 L6.17708333,2.16666667 L6.17708333,6.17708333 Z M3.66145833,4.828125 L4.68229167,4.828125 C4.7625,4.828125 4.828125,4.7625 4.828125,4.68229167 L4.828125,3.66145833 C4.828125,3.58125 4.7625,3.515625 4.68229167,3.515625 L3.66145833,3.515625 C3.58125,3.515625 3.515625,3.58125 3.515625,3.66145833 L3.515625,4.68229167 C3.515625,4.7625 3.58125,4.828125 3.66145833,4.828125 Z M7.19791667,8.65625 L1.14583333,8.65625 C1.065625,8.65625 1,8.721875 1,8.80208333 L1,14.4166667 C1,14.7393229 1.26067708,15 1.58333333,15 L7.19791667,15 C7.278125,15 7.34375,14.934375 7.34375,14.8541667 L7.34375,8.80208333 C7.34375,8.721875 7.278125,8.65625 7.19791667,8.65625 Z M6.17708333,13.8333333 L2.16666667,13.8333333 L2.16666667,9.82291667 L6.17708333,9.82291667 L6.17708333,13.8333333 Z M3.66145833,12.484375 L4.68229167,12.484375 C4.7625,12.484375 4.828125,12.41875 4.828125,12.3385417 L4.828125,11.3177083 C4.828125,11.2375 4.7625,11.171875 4.68229167,11.171875 L3.66145833,11.171875 C3.58125,11.171875 3.515625,11.2375 3.515625,11.3177083 L3.515625,12.3385417 C3.515625,12.41875 3.58125,12.484375 3.66145833,12.484375 Z M14.4166667,1 L8.80208333,1 C8.721875,1 8.65625,1.065625 8.65625,1.14583333 L8.65625,7.19791667 C8.65625,7.278125 8.721875,7.34375 8.80208333,7.34375 L14.8541667,7.34375 C14.934375,7.34375 15,7.278125 15,7.19791667 L15,1.58333333 C15,1.26067708 14.7393229,1 14.4166667,1 Z M13.8333333,6.17708333 L9.82291667,6.17708333 L9.82291667,2.16666667 L13.8333333,2.16666667 L13.8333333,6.17708333 Z M11.3177083,4.828125 L12.3385417,4.828125 C12.41875,4.828125 12.484375,4.7625 12.484375,4.68229167 L12.484375,3.66145833 C12.484375,3.58125 12.41875,3.515625 12.3385417,3.515625 L11.3177083,3.515625 C11.2375,3.515625 11.171875,3.58125 11.171875,3.66145833 L11.171875,4.68229167 C11.171875,4.7625 11.2375,4.828125 11.3177083,4.828125 Z M14.8541667,8.65625 L13.9791667,8.65625 C13.8989583,8.65625 13.8333333,8.721875 13.8333333,8.80208333 L13.8333333,11.2447917 L12.4114583,11.2447917 L12.4114583,8.80208333 C12.4114583,8.721875 12.3458333,8.65625 12.265625,8.65625 L8.80208333,8.65625 C8.721875,8.65625 8.65625,8.721875 8.65625,8.80208333 L8.65625,14.8541667 C8.65625,14.934375 8.721875,15 8.80208333,15 L9.67708333,15 C9.75729167,15 9.82291667,14.934375 9.82291667,14.8541667 L9.82291667,10.40625 L11.2447917,10.40625 L11.2447917,12.265625 C11.2447917,12.3458333 11.3104167,12.4114583 11.390625,12.4114583 L14.8541667,12.4114583 C14.934375,12.4114583 15,12.3458333 15,12.265625 L15,8.80208333 C15,8.721875 14.934375,8.65625 14.8541667,8.65625 Z M12.265625,13.8333333 L11.390625,13.8333333 C11.3104167,13.8333333 11.2447917,13.8989583 11.2447917,13.9791667 L11.2447917,14.8541667 C11.2447917,14.934375 11.3104167,15 11.390625,15 L12.265625,15 C12.3458333,15 12.4114583,14.934375 12.4114583,14.8541667 L12.4114583,13.9791667 C12.4114583,13.8989583 12.3458333,13.8333333 12.265625,13.8333333 Z M14.8541667,13.8333333 L13.9791667,13.8333333 C13.8989583,13.8333333 13.8333333,13.8989583 13.8333333,13.9791667 L13.8333333,14.8541667 C13.8333333,14.934375 13.8989583,15 13.9791667,15 L14.8541667,15 C14.934375,15 15,14.934375 15,14.8541667 L15,13.9791667 C15,13.8989583 14.934375,13.8333333 14.8541667,13.8333333 Z" id="形状"></path>
            </g>
        </g>
    </g>
</svg>