<?xml version="1.0" encoding="UTF-8"?>
<svg width="16px" height="16px" viewBox="0 0 16 16" version="1.1" xmlns="http://www.w3.org/2000/svg" xmlns:xlink="http://www.w3.org/1999/xlink">
    <title>p-question</title>
    <g id="页面-1" stroke="none" stroke-width="1" fill="none" fill-rule="evenodd">
        <g id="画板" transform="translate(-311.000000, -1156.000000)" fill="#000000" fill-rule="nonzero">
            <g id="p-question" transform="translate(311.000000, 1156.000000)">
                <rect id="矩形" opacity="0" x="0" y="0" width="16" height="16"></rect>
                <path d="M12.5542119,3.81989664 C12.3009819,3.26640827 11.9410336,2.76899225 11.4816021,2.34392765 C10.5482687,1.47751938 9.30925065,1 7.99607235,1 C6.68289406,1 5.44387597,1.47751938 4.51054264,2.34211886 C4.05111111,2.76899225 3.69116279,3.26459948 3.43793282,3.81989664 C3.17385013,4.39870801 3.04,5.0118863 3.04,5.64496124 L3.04,6.13333333 C3.04,6.24547804 3.13043928,6.33591731 3.24258398,6.33591731 L4.21932817,6.33591731 C4.33147287,6.33591731 4.42191214,6.24547804 4.42191214,6.13333333 L4.42191214,5.64496124 C4.42191214,3.84521964 6.02449612,2.38191214 7.99607235,2.38191214 C9.96764858,2.38191214 11.5702326,3.84521964 11.5702326,5.64496124 C11.5702326,6.38294574 11.3079587,7.07751938 10.8105426,7.65633075 C10.318553,8.22971576 9.62397933,8.64031008 8.85524548,8.81395349 C8.41571059,8.91343669 8.01958656,9.16124031 7.73922481,9.51576227 C7.46067183,9.86666667 7.30692506,10.3080103 7.30692506,10.7565891 L7.30692506,11.3245478 C7.30692506,11.4366925 7.39736434,11.5271318 7.50950904,11.5271318 L8.48625323,11.5271318 C8.59839793,11.5271318 8.68883721,11.4366925 8.68883721,11.3245478 L8.68883721,10.7565891 C8.68883721,10.4726098 8.88599483,10.2229974 9.15912145,10.1614987 C10.2154522,9.92273902 11.1741085,9.35297158 11.8596382,8.55710594 C12.2051163,8.15374677 12.4746253,7.70516796 12.6609302,7.21860465 C12.8544703,6.71395349 12.9521447,6.18397933 12.9521447,5.64496124 C12.9521447,5.0118863 12.8182946,4.39689922 12.5542119,3.81989664 L12.5542119,3.81989664 Z M7.99607235,12.9741602 C7.43715762,12.9741602 6.98315245,13.4281654 6.98315245,13.9870801 C6.98315245,14.5459948 7.43715762,15 7.99607235,15 C8.55498708,15 9.00899225,14.5459948 9.00899225,13.9870801 C9.00899225,13.4281654 8.55498708,12.9741602 7.99607235,12.9741602 Z" id="形状"></path>
            </g>
        </g>
    </g>
</svg>