<?xml version="1.0" encoding="UTF-8"?>
<svg width="16px" height="16px" viewBox="0 0 16 16" version="1.1" xmlns="http://www.w3.org/2000/svg" xmlns:xlink="http://www.w3.org/1999/xlink">
    <title>p-radius-setting</title>
    <g id="页面-1" stroke="none" stroke-width="1" fill="none" fill-rule="evenodd">
        <g id="画板" transform="translate(-255.000000, -1783.000000)">
            <g id="p-radius-setting" transform="translate(255.000000, 1783.000000)">
                <rect id="矩形" stroke="#979797" opacity="0" x="0.5" y="0.5" width="15" height="15"></rect>
                <rect id="矩形备份-39" fill="#000000" transform="translate(1.645390, 11.177305) scale(1, -1) translate(-1.645390, -11.177305) " x="1" y="10.5319149" width="1.29078014" height="1.29078014" rx="0.2"></rect>
                <rect id="矩形备份-34" fill="#000000" transform="translate(4.822695, 14.354610) scale(1, -1) translate(-4.822695, -14.354610) " x="4.17730496" y="13.7092199" width="1.29078014" height="1.29078014" rx="0.2"></rect>
                <rect id="矩形备份-35" fill="#000000" transform="translate(8.000000, 14.354610) scale(1, -1) translate(-8.000000, -14.354610) " x="7.35460993" y="13.7092199" width="1.29078014" height="1.29078014" rx="0.2"></rect>
                <rect id="矩形备份-36" fill="#000000" transform="translate(11.177305, 14.354610) scale(1, -1) translate(-11.177305, -14.354610) " x="10.5319149" y="13.7092199" width="1.29078014" height="1.29078014" rx="0.2"></rect>
                <rect id="矩形备份-50" fill="#000000" transform="translate(11.177305, 1.645390) scale(1, -1) translate(-11.177305, -1.645390) " x="10.5319149" y="1" width="1.29078014" height="1.29078014" rx="0.2"></rect>
                <rect id="矩形备份-37" fill="#000000" transform="translate(14.354610, 14.354610) scale(1, -1) translate(-14.354610, -14.354610) " x="13.7092199" y="13.7092199" width="1.29078014" height="1.29078014" rx="0.2"></rect>
                <rect id="矩形备份-43" fill="#000000" transform="translate(14.354610, 11.177305) scale(1, -1) translate(-14.354610, -11.177305) " x="13.7092199" y="10.5319149" width="1.29078014" height="1.29078014" rx="0.2"></rect>
                <rect id="矩形备份-48" fill="#000000" transform="translate(14.354610, 8.000000) scale(1, -1) translate(-14.354610, -8.000000) " x="13.7092199" y="7.35460993" width="1.29078014" height="1.29078014" rx="0.2"></rect>
                <rect id="矩形备份-49" fill="#000000" transform="translate(14.354610, 4.822695) scale(1, -1) translate(-14.354610, -4.822695) " x="13.7092199" y="4.17730496" width="1.29078014" height="1.29078014" rx="0.2"></rect>
                <path d="M2.29078014,1.2 L2.29078014,4.5248227 L2.29078014,4.5248227 C2.29078014,6.03185502 3.4688394,7.26373686 4.95429588,7.34980618 L5.12056738,7.35460993 L8.44539007,7.35460993 C8.55584702,7.35460993 8.64539007,7.44415298 8.64539007,7.55460993 L8.64539007,8.44539007 C8.64539007,8.55584702 8.55584702,8.64539007 8.44539007,8.64539007 L5.12056738,8.64539007 L5.12056738,8.64539007 C2.91380226,8.64539007 1.11220421,6.91066369 1.00504286,4.73048057 L1,4.5248227 L1,1.2 C1,1.08954305 1.08954305,1 1.2,1 L2.09078014,1 C2.20123709,1 2.29078014,1.08954305 2.29078014,1.2 Z" id="路径-39" fill="#000000" fill-rule="nonzero" transform="translate(4.822695, 4.822695) scale(1, -1) translate(-4.822695, -4.822695) "></path>
                <path d="M15.65,0.15 L13.05,0.15 C12.9395431,0.15 12.85,0.23954305 12.85,0.35 L12.85,2.95 C12.85,3.06045695 12.9395431,3.15 13.05,3.15 L15.65,3.15 C15.7604569,3.15 15.85,3.06045695 15.85,2.95 L15.85,0.35 C15.85,0.23954305 15.7604569,0.15 15.65,0.15 Z M14.85,1.15 L14.85,2.15 L13.85,2.15 L13.85,1.15 L14.85,1.15 Z" id="矩形备份-32" fill="#000000" fill-rule="nonzero"></path>
                <path d="M2.95,12.85 L0.35,12.85 C0.23954305,12.85 0.15,12.9395431 0.15,13.05 L0.15,15.65 C0.15,15.7604569 0.23954305,15.85 0.35,15.85 L2.95,15.85 C3.06045695,15.85 3.15,15.7604569 3.15,15.65 L3.15,13.05 C3.15,12.9395431 3.06045695,12.85 2.95,12.85 Z M2.15,13.85 L2.15,14.85 L1.15,14.85 L1.15,13.85 L2.15,13.85 Z" id="矩形备份-51" fill="#000000" fill-rule="nonzero"></path>
            </g>
        </g>
    </g>
</svg>