<?xml version="1.0" encoding="UTF-8"?>
<svg width="16px" height="16px" viewBox="0 0 16 16" version="1.1" xmlns="http://www.w3.org/2000/svg" xmlns:xlink="http://www.w3.org/1999/xlink">
    <title>p-radar-chart</title>
    <g id="页面-1" stroke="none" stroke-width="1" fill="none" fill-rule="evenodd">
        <g id="画板" transform="translate(-343.000000, -1157.000000)" fill="#000000" fill-rule="nonzero">
            <g id="p-radar-chart" transform="translate(343.000000, 1157.000000)">
                <rect id="矩形" opacity="0" x="0" y="0" width="16" height="16"></rect>
                <path d="M14.7837898,6.12088463 L8.30712696,1.41058438 C8.12407759,1.27647187 7.87522045,1.27647187 7.69217109,1.41058438 L1.21550824,6.12088463 C1.0323299,6.25336183 0.955460413,6.49051236 1.02578781,6.70640113 L3.50033097,14.3279286 C3.57065837,14.5438174 3.77182744,14.6893787 3.99752933,14.6893787 L12.0034042,14.6893787 C12.2307416,14.6893787 12.4302752,14.5438174 12.5006026,14.3279286 L14.9751458,6.70640113 C15.0438376,6.49051236 14.9669682,6.25499735 14.7837898,6.12088463 Z M13.3412604,6.4463533 L11.7302722,6.96971999 L8.4592304,4.60312122 L8.4592304,2.89563738 L13.3412604,6.4463533 Z M7.2473094,8.90290572 L5.79006026,10.9031478 L4.88725271,8.13584641 L7.2473094,8.90290572 Z M5.34519857,7.31972147 L7.54170317,5.73163066 L7.54170317,8.03444411 L5.34519857,7.31972147 Z M7.99964902,9.42627242 L9.53540317,11.5344589 L6.46389488,11.5344589 L7.99964902,9.42627242 Z M8.4592304,5.73163066 L10.6540995,7.31972147 L8.4592304,8.03280859 L8.4592304,5.73163066 L8.4592304,5.73163066 Z M8.75198865,8.90290572 L11.1120453,8.13584641 L10.2092378,10.9031478 L8.75198865,8.90290572 Z M7.54170317,2.89563738 L7.54170317,4.60312122 L4.2690258,6.96971999 L2.65803769,6.4463533 L7.54170317,2.89563738 Z M2.39471882,7.32626355 L3.80944442,7.78584493 L5.12440324,11.8157685 L4.24449299,13.0244184 L2.39471882,7.32626355 L2.39471882,7.32626355 Z M4.97557084,13.5772245 L5.79823786,12.4487151 L10.2026957,12.4487151 L11.0253627,13.5772245 L4.97557084,13.5772245 Z M11.7548051,13.0244184 L10.8748948,11.8157685 L12.1898536,7.78584493 L13.6045792,7.32626355 L11.7548051,13.0244184 Z" id="形状"></path>
            </g>
        </g>
    </g>
</svg>