<?xml version="1.0" encoding="UTF-8"?>
<svg width="16px" height="16px" viewBox="0 0 16 16" version="1.1" xmlns="http://www.w3.org/2000/svg" xmlns:xlink="http://www.w3.org/1999/xlink">
    <title>p-radius-bottomright</title>
    <g id="页面-1" stroke="none" stroke-width="1" fill="none" fill-rule="evenodd">
        <g id="画板" transform="translate(-179.000000, -1783.000000)">
            <g id="p-radius-bottomright" transform="translate(179.000000, 1783.000000)">
                <rect id="矩形" stroke="#979797" opacity="0" x="0.5" y="0.5" width="15" height="15"></rect>
                <path d="M11.622695,13.7092199 C11.733152,13.7092199 11.822695,13.7987629 11.822695,13.9092199 L11.822695,14.8 C11.822695,14.9104569 11.733152,15 11.622695,15 L10.7319149,15 C10.6214579,15 10.5319149,14.9104569 10.5319149,14.8 L10.5319149,13.9092199 C10.5319149,13.7987629 10.6214579,13.7092199 10.7319149,13.7092199 L11.622695,13.7092199 Z M14.8,13.7092199 C14.9104569,13.7092199 15,13.7987629 15,13.9092199 L15,14.8 C15,14.9104569 14.9104569,15 14.8,15 L13.9092199,15 C13.7987629,15 13.7092199,14.9104569 13.7092199,14.8 L13.7092199,13.9092199 C13.7092199,13.7987629 13.7987629,13.7092199 13.9092199,13.7092199 L14.8,13.7092199 Z M2.09078014,7.35460993 C2.20123709,7.35460993 2.29078014,7.44415298 2.29078014,7.55460993 L2.29078014,10.8794326 C2.29078014,12.3864649 3.4688394,13.6183468 4.95429588,13.7044161 L5.12056738,13.7092199 L8.44539007,13.7092199 C8.55584702,13.7092199 8.64539007,13.7987629 8.64539007,13.9092199 L8.64539007,14.8 C8.64539007,14.9104569 8.55584702,15 8.44539007,15 L5.12056738,15 C2.91380226,15 1.11220421,13.2652736 1.00504286,11.0850905 L1,10.8794326 L1,7.55460993 C1,7.44415298 1.08954305,7.35460993 1.2,7.35460993 L2.09078014,7.35460993 Z M14.8,10.5319149 C14.9104569,10.5319149 15,10.6214579 15,10.7319149 L15,11.622695 C15,11.733152 14.9104569,11.822695 14.8,11.822695 L13.9092199,11.822695 C13.7987629,11.822695 13.7092199,11.733152 13.7092199,11.622695 L13.7092199,10.7319149 C13.7092199,10.6214579 13.7987629,10.5319149 13.9092199,10.5319149 L14.8,10.5319149 Z M14.8,7.35460993 C14.9104569,7.35460993 15,7.44415298 15,7.55460993 L15,8.44539007 C15,8.55584702 14.9104569,8.64539007 14.8,8.64539007 L13.9092199,8.64539007 C13.7987629,8.64539007 13.7092199,8.55584702 13.7092199,8.44539007 L13.7092199,7.55460993 C13.7092199,7.44415298 13.7987629,7.35460993 13.9092199,7.35460993 L14.8,7.35460993 Z M2.09078014,4.17730496 C2.20123709,4.17730496 2.29078014,4.26684801 2.29078014,4.37730496 L2.29078014,5.26808511 C2.29078014,5.37854206 2.20123709,5.46808511 2.09078014,5.46808511 L1.2,5.46808511 C1.08954305,5.46808511 1,5.37854206 1,5.26808511 L1,4.37730496 C1,4.26684801 1.08954305,4.17730496 1.2,4.17730496 L2.09078014,4.17730496 Z M14.8,4.17730496 C14.9104569,4.17730496 15,4.26684801 15,4.37730496 L15,5.26808511 C15,5.37854206 14.9104569,5.46808511 14.8,5.46808511 L13.9092199,5.46808511 C13.7987629,5.46808511 13.7092199,5.37854206 13.7092199,5.26808511 L13.7092199,4.37730496 C13.7092199,4.26684801 13.7987629,4.17730496 13.9092199,4.17730496 L14.8,4.17730496 Z M2.09078014,1 C2.20123709,1 2.29078014,1.08954305 2.29078014,1.2 L2.29078014,2.09078014 C2.29078014,2.20123709 2.20123709,2.29078014 2.09078014,2.29078014 L1.2,2.29078014 C1.08954305,2.29078014 1,2.20123709 1,2.09078014 L1,1.2 C1,1.08954305 1.08954305,1 1.2,1 L2.09078014,1 Z M5.26808511,1 C5.37854206,1 5.46808511,1.08954305 5.46808511,1.2 L5.46808511,2.09078014 C5.46808511,2.20123709 5.37854206,2.29078014 5.26808511,2.29078014 L4.37730496,2.29078014 C4.26684801,2.29078014 4.17730496,2.20123709 4.17730496,2.09078014 L4.17730496,1.2 C4.17730496,1.08954305 4.26684801,1 4.37730496,1 L5.26808511,1 Z M8.44539007,1 C8.55584702,1 8.64539007,1.08954305 8.64539007,1.2 L8.64539007,2.09078014 C8.64539007,2.20123709 8.55584702,2.29078014 8.44539007,2.29078014 L7.55460993,2.29078014 C7.44415298,2.29078014 7.35460993,2.20123709 7.35460993,2.09078014 L7.35460993,1.2 C7.35460993,1.08954305 7.44415298,1 7.55460993,1 L8.44539007,1 Z M11.622695,1 C11.733152,1 11.822695,1.08954305 11.822695,1.2 L11.822695,2.09078014 C11.822695,2.20123709 11.733152,2.29078014 11.622695,2.29078014 L10.7319149,2.29078014 C10.6214579,2.29078014 10.5319149,2.20123709 10.5319149,2.09078014 L10.5319149,1.2 C10.5319149,1.08954305 10.6214579,1 10.7319149,1 L11.622695,1 Z M14.8,1 C14.9104569,1 15,1.08954305 15,1.2 L15,2.09078014 C15,2.20123709 14.9104569,2.29078014 14.8,2.29078014 L13.9092199,2.29078014 C13.7987629,2.29078014 13.7092199,2.20123709 13.7092199,2.09078014 L13.7092199,1.2 C13.7092199,1.08954305 13.7987629,1 13.9092199,1 L14.8,1 Z" id="形状结合" fill="#000000" transform="translate(8.000000, 8.000000) scale(-1, 1) translate(-8.000000, -8.000000) "></path>
            </g>
        </g>
    </g>
</svg>