<?xml version="1.0" encoding="UTF-8"?>
<svg width="16px" height="16px" viewBox="0 0 16 16" version="1.1" xmlns="http://www.w3.org/2000/svg" xmlns:xlink="http://www.w3.org/1999/xlink">
    <title>p-read</title>
    <g id="页面-1" stroke="none" stroke-width="1" fill="none" fill-rule="evenodd">
        <g id="画板" transform="translate(-144.000000, -1253.000000)" fill="#000000" fill-rule="nonzero">
            <g id="p-read" transform="translate(144.000000, 1253.000000)">
                <rect id="矩形" opacity="0" x="0" y="0" width="16" height="16"></rect>
                <path d="M14.5,2.515625 L10.925,2.515625 C10.1578125,2.515625 9.4078125,2.7359375 8.7625,3.1515625 L8,3.640625 L7.2375,3.1515625 C6.59375,2.7359375 5.8421875,2.515625 5.075,2.515625 L1.5,2.515625 C1.2234375,2.515625 1,2.7390625 1,3.015625 L1,11.890625 C1,12.1671875 1.2234375,12.390625 1.5,12.390625 L5.075,12.390625 C5.8421875,12.390625 6.5921875,12.6109375 7.2375,13.0265625 L7.93125,13.4734375 C7.9515625,13.4859375 7.975,13.49375 7.9984375,13.49375 C8.021875,13.49375 8.0453125,13.4875 8.065625,13.4734375 L8.759375,13.0265625 C9.40625,12.6109375 10.1578125,12.390625 10.925,12.390625 L14.5,12.390625 C14.7765625,12.390625 15,12.1671875 15,11.890625 L15,3.015625 C15,2.7390625 14.7765625,2.515625 14.5,2.515625 Z M5.075,11.265625 L2.125,11.265625 L2.125,3.640625 L5.075,3.640625 C5.628125,3.640625 6.165625,3.7984375 6.6296875,4.096875 L7.3921875,4.5859375 L7.5,4.65625 L7.5,11.875 C6.75625,11.475 5.925,11.265625 5.075,11.265625 Z M13.875,11.265625 L10.925,11.265625 C10.075,11.265625 9.24375,11.475 8.5,11.875 L8.5,4.65625 L8.6078125,4.5859375 L9.3703125,4.096875 C9.834375,3.7984375 10.371875,3.640625 10.925,3.640625 L13.875,3.640625 L13.875,11.265625 Z M6.2015625,5.640625 L3.2984375,5.640625 C3.2375,5.640625 3.1875,5.69375 3.1875,5.7578125 L3.1875,6.4609375 C3.1875,6.525 3.2375,6.578125 3.2984375,6.578125 L6.2,6.578125 C6.2609375,6.578125 6.3109375,6.525 6.3109375,6.4609375 L6.3109375,5.7578125 C6.3125,5.69375 6.2625,5.640625 6.2015625,5.640625 Z M9.6875,5.7578125 L9.6875,6.4609375 C9.6875,6.525 9.7375,6.578125 9.7984375,6.578125 L12.7,6.578125 C12.7609375,6.578125 12.8109375,6.525 12.8109375,6.4609375 L12.8109375,5.7578125 C12.8109375,5.69375 12.7609375,5.640625 12.7,5.640625 L9.7984375,5.640625 C9.7375,5.640625 9.6875,5.69375 9.6875,5.7578125 Z M6.2015625,7.828125 L3.2984375,7.828125 C3.2375,7.828125 3.1875,7.88125 3.1875,7.9453125 L3.1875,8.6484375 C3.1875,8.7125 3.2375,8.765625 3.2984375,8.765625 L6.2,8.765625 C6.2609375,8.765625 6.3109375,8.7125 6.3109375,8.6484375 L6.3109375,7.9453125 C6.3125,7.88125 6.2625,7.828125 6.2015625,7.828125 Z M12.7015625,7.828125 L9.7984375,7.828125 C9.7375,7.828125 9.6875,7.88125 9.6875,7.9453125 L9.6875,8.6484375 C9.6875,8.7125 9.7375,8.765625 9.7984375,8.765625 L12.7,8.765625 C12.7609375,8.765625 12.8109375,8.7125 12.8109375,8.6484375 L12.8109375,7.9453125 C12.8125,7.88125 12.7625,7.828125 12.7015625,7.828125 Z" id="形状"></path>
            </g>
        </g>
    </g>
</svg>