<?xml version="1.0" encoding="UTF-8"?>
<svg width="16px" height="16px" viewBox="0 0 16 16" version="1.1" xmlns="http://www.w3.org/2000/svg" xmlns:xlink="http://www.w3.org/1999/xlink">
    <title>p-retweet</title>
    <g id="页面-1" stroke="none" stroke-width="1" fill="none" fill-rule="evenodd">
        <g id="画板" transform="translate(-355.000000, -1783.000000)" fill="#000000" fill-rule="nonzero">
            <g id="p-retweet" transform="translate(355.000000, 1783.000000)">
                <rect id="矩形" opacity="0" x="0" y="0" width="16" height="16"></rect>
                <path d="M14.7574551,7.24466945 C14.8237293,7.24466945 14.8774551,7.29839528 14.8774551,7.36466945 L14.8774551,12.2190553 C14.8774551,12.8617786 14.3889893,13.3904146 13.7630375,13.4539835 L13.636118,13.4603924 L4.01145509,13.461 L4.01105763,14.8488739 C4.01105763,14.8715459 4.00592149,14.8937693 3.99621078,14.9139406 L3.97828395,14.942458 C3.93693588,14.9942519 3.86826111,15.011385 3.80929707,14.9897038 L3.7674735,14.9661002 L1.17706525,12.8981254 C1.16774663,12.8906861 1.15934828,12.8821623 1.15204806,12.8727344 C1.11147265,12.820333 1.11102704,12.7495547 1.14600868,12.6973712 L1.17881404,12.6622977 L3.7692223,10.6564937 C3.79550868,10.6361397 3.82781215,10.625095 3.86105763,10.625095 C3.9273318,10.625095 3.98356729,10.6680757 4.00341053,10.7276834 L4.01105763,10.775095 L4.01145509,12.17 L13.5868223,12.1695041 L13.5864732,7.36466945 C13.5864624,7.31165011 13.6208423,7.26665922 13.668527,7.25078117 L13.7064645,7.24466945 L14.7574551,7.24466945 Z M12.188158,1.01029624 L12.2299816,1.03389978 L14.8203898,3.10187464 C14.8297085,3.10931388 14.8381068,3.11783771 14.845407,3.12726564 C14.8859824,3.17966699 14.8864281,3.25044531 14.8514464,3.30262884 L14.818641,3.33770228 L12.2282328,5.34350628 C12.2019464,5.36386034 12.1696429,5.37490496 12.1363975,5.37490496 C12.0701233,5.37490496 12.0138878,5.3319243 11.9940446,5.27231656 L11.9863975,5.22490496 L11.986,3.83 L2.41063279,3.83049589 L2.41098187,8.63533055 C2.41099269,8.68834989 2.37661282,8.73334078 2.32892807,8.74921883 L2.29099058,8.75533055 L1.24,8.75533055 C1.17372583,8.75533055 1.12,8.70160472 1.12,8.63533055 L1.12,3.78094471 C1.12,3.13822139 1.60846582,2.60958536 2.23441759,2.5460165 L2.3613371,2.53960761 L11.986,2.539 L11.9863975,1.15112611 C11.9863975,1.12845412 11.9915336,1.10623074 12.0012443,1.08605944 L12.0191711,1.05754198 C12.0605192,1.00574813 12.129194,0.988614979 12.188158,1.01029624 Z" id="形状结合"></path>
            </g>
        </g>
    </g>
</svg>