<?xml version="1.0" encoding="UTF-8"?>
<svg width="16px" height="16px" viewBox="0 0 16 16" version="1.1" xmlns="http://www.w3.org/2000/svg" xmlns:xlink="http://www.w3.org/1999/xlink">
    <title>p-reconciliation</title>
    <g id="页面-1" stroke="none" stroke-width="1" fill="none" fill-rule="evenodd">
        <g id="画板" transform="translate(-279.000000, -1253.000000)" fill="#000000" fill-rule="nonzero">
            <g id="p-reconciliation" transform="translate(279.000000, 1253.000000)">
                <rect id="矩形" opacity="0" x="0" y="0" width="16" height="16"></rect>
                <path d="M10.87,8.9275 C9.981,8.9275 9.26,9.6485 9.26,10.5375 C9.26,11.4265 9.981,12.1475 10.87,12.1475 C11.759,12.1475 12.48,11.4265 12.48,10.5375 C12.48,9.6485 11.759,8.9275 10.87,8.9275 Z M10.87,11.1325 C10.541,11.1325 10.275,10.8665 10.275,10.5375 C10.275,10.2085 10.541,9.9425 10.87,9.9425 C11.199,9.9425 11.465,10.2085 11.465,10.5375 C11.465,10.8665 11.199,11.1325 10.87,11.1325 Z M14.44,1.98 L10.73,1.98 C10.73,1.43925 10.29075,1 9.75,1 L8.35,1 C7.80925,1 7.37,1.43925 7.37,1.98 L3.66,1.98 C3.35025,1.98 3.1,2.23025 3.1,2.54 L3.1,6.04 L1.56,6.04 C1.25025,6.04 1,6.29025 1,6.6 L1,14.44 C1,14.74975 1.25025,15 1.56,15 L7.44,15 C7.74975,15 8,14.74975 8,14.44 L8,14.16 L14.44,14.16 C14.74975,14.16 15,13.90975 15,13.6 L15,2.54 C15,2.23025 14.74975,1.98 14.44,1.98 Z M7.23,3.1 L8.49,3.1 L8.49,2.12 L9.61,2.12 L9.61,3.1 L10.87,3.1 L10.87,3.94 L7.23,3.94 L7.23,3.1 Z M6.88,13.88 L2.12,13.88 L2.12,9.82 L6.88,9.82 L6.88,13.88 Z M6.88,8.7 L2.12,8.7 L2.12,7.16 L6.88,7.16 L6.88,8.7 Z M13.74,12.9 L8,12.9 L8,6.6 C8,6.29025 7.74975,6.04 7.44,6.04 L4.36,6.04 L4.36,3.24 L6.11,3.24 L6.11,5.06 L11.99,5.06 L11.99,3.24 L13.74,3.24 L13.74,12.9 Z M11.36,6.18 L11.36,7.86 C11.36,7.937 11.423,8 11.5,8 L12.34,8 C12.417,8 12.48,7.937 12.48,7.86 L12.48,6.18 C12.48,6.103 12.417,6.04 12.34,6.04 L11.5,6.04 C11.423,6.04 11.36,6.103 11.36,6.18 Z M9.4,8 L10.24,8 C10.317,8 10.38,7.937 10.38,7.86 L10.38,6.88 C10.38,6.803 10.317,6.74 10.24,6.74 L9.4,6.74 C9.323,6.74 9.26,6.803 9.26,6.88 L9.26,7.86 C9.26,7.937 9.323,8 9.4,8 Z" id="形状"></path>
            </g>
        </g>
    </g>
</svg>