<?xml version="1.0" encoding="UTF-8"?>
<svg width="16px" height="16px" viewBox="0 0 16 16" version="1.1" xmlns="http://www.w3.org/2000/svg" xmlns:xlink="http://www.w3.org/1999/xlink">
    <title>p-redo</title>
    <g id="页面-1" stroke="none" stroke-width="1" fill="none" fill-rule="evenodd">
        <g id="画板" transform="translate(-617.000000, -1253.000000)" fill="#000000" fill-rule="nonzero">
            <g id="p-redo" transform="translate(617.000000, 1253.000000)">
                <rect id="矩形" opacity="0" x="0" y="0" width="16" height="16"></rect>
                <path d="M12.3085,13.7142632 C13.9465,12.4332632 15,10.4382632 15,8.19826315 C15,4.33251315 11.87625,1.20526315 8.0105,1.2 C4.1395,1.19476315 1,4.32901315 1,8.19826315 C1,10.3892632 2.00625,12.3440132 3.583,13.6267632 C3.64425,13.6757632 3.7335,13.6652632 3.7825,13.6040132 L4.472,12.7202632 C4.51925,12.6607632 4.50875,12.5750132 4.451,12.5260132 C4.30925,12.4105132 4.17275,12.2862632 4.0415,12.1550132 C3.527,11.6405132 3.12275,11.0420132 2.841,10.3752632 C2.547,9.68751315 2.4,8.95426315 2.4,8.19826315 C2.4,7.44226315 2.547,6.70901315 2.83925,6.01951315 C3.121,5.35276315 3.52525,4.75426315 4.03975,4.23976315 C4.55425,3.72526315 5.15275,3.32101315 5.8195,3.03926315 C6.51075,2.74701315 7.244,2.60001315 8,2.60001315 C8.756,2.60001315 9.48925,2.74701315 10.17875,3.03926315 C10.8455,3.32101315 11.444,3.72526315 11.9585,4.23976315 C12.473,4.75426315 12.87725,5.35276315 13.159,6.01951315 C13.45125,6.70901315 13.59825,7.44226315 13.59825,8.19826315 C13.59825,8.95426315 13.45125,9.68751315 13.159,10.3770132 C12.87725,11.0437632 12.473,11.6422632 11.9585,12.1567632 C11.79575,12.3195132 11.62425,12.4717632 11.44575,12.6117632 L10.7335,11.7000132 C10.66175,11.6072632 10.51475,11.6387632 10.48675,11.7525132 L9.79375,14.5910132 C9.77275,14.6785132 9.83925,14.7642632 9.9285,14.7642632 L12.851,14.7782632 C12.96825,14.7782632 13.03475,14.6435132 12.96125,14.5525132 L12.3085,13.7142632 Z" id="路径"></path>
            </g>
        </g>
    </g>
</svg>