<?xml version="1.0" encoding="UTF-8"?>
<svg width="16px" height="16px" viewBox="0 0 16 16" version="1.1" xmlns="http://www.w3.org/2000/svg" xmlns:xlink="http://www.w3.org/1999/xlink">
    <title>p-reload-time</title>
    <g id="页面-1" stroke="none" stroke-width="1" fill="none" fill-rule="evenodd">
        <g id="画板" transform="translate(-289.000000, -1783.000000)" fill="#000000" fill-rule="nonzero">
            <g id="p-reload-time" transform="translate(289.000000, 1783.000000)">
                <rect id="矩形" opacity="0" x="0" y="0" width="16" height="16"></rect>
                <path d="M7.85662232,1.0591279 C11.6453314,1.0591279 14.7291956,4.06924662 14.8511293,7.8286787 L14.854868,8.06963769 C14.8496046,11.9355706 11.7222597,15.0591279 7.85662232,15.0591279 C5.67553733,15.0591279 3.65934399,14.0538498 2.34060238,12.36759 L1.39474579,13.0147038 C1.34858891,13.05197 1.28086474,13.0187654 1.28086474,12.9591279 L1.29500535,10.0074464 C1.29500616,9.96299286 1.33857595,9.92913796 1.38279797,9.93975124 L4.24970073,10.6396861 C4.30716048,10.6538302 4.32301099,10.7281295 4.27623742,10.7643128 L3.3550132,11.4839629 C3.48588956,11.7656244 3.64152957,11.9409997 3.80814002,12.1076102 C4.3348964,12.6343666 4.94725086,13.0475594 5.62834233,13.3353697 C6.33209892,13.6336625 7.08199387,13.7846329 7.85662232,13.7846329 C8.63125077,13.7846329 9.38114572,13.6336625 10.0849733,13.3353396 C10.7659938,13.0475594 11.3783482,12.6343666 11.9051046,12.1076102 C12.431861,11.5808538 12.8450538,10.9684994 13.1328641,10.2874079 C13.4311569,9.5836513 13.5821274,8.83375635 13.5821274,8.0591279 C13.5821274,7.28473471 13.4312468,6.53483559 13.1328592,5.82906848 C12.8450538,5.14798876 12.431861,4.5356343 11.9051046,4.00887792 C11.3783482,3.48212155 10.7659938,3.06892873 10.0849023,2.78111842 C9.38114572,2.48282561 8.63125077,2.33185517 7.85662232,2.33185517 C7.0806221,2.33185517 6.33080547,2.4833515 5.62983945,2.78300109 C4.94901853,3.07069641 4.33666408,3.48388922 3.8099077,4.0106456 C3.67329382,4.14725948 3.5466053,4.28693022 3.43034308,4.42961567 C3.40575131,4.45857717 3.36231306,4.46346398 3.33291702,4.44012006 L2.43976274,3.74327955 C2.40884164,3.71853594 2.40357917,3.67283555 2.42850193,3.64168209 C3.74860408,2.01902278 5.72315138,1.0591279 7.85662232,1.0591279 Z" id="形状结合"></path>
                <path d="M6.09997139,5.25337914 L6.09902067,9.24109694 L6.09902067,9.24109694 L8.4706476,10.9041028 C8.52489466,10.9421632 8.53804205,11.0169869 8.50001911,11.0712602 L8.06377599,11.6935881 C8.02573435,11.7478568 7.95090197,11.7610115 7.89663321,11.7229699 L5.1,9.76256909 L5.1,9.76256909 L5.1,5.25337914 C5.1,5.18710497 5.15372583,5.13337914 5.22,5.13337914 L5.98,5.13337914 C6.04627417,5.13335053 6.1,5.18707636 6.1,5.25335053 C6.1,5.25336007 6.1,5.25336961 6.09997139,5.25337914 Z" id="路径-40" transform="translate(6.810878, 8.439048) scale(-1, -1) translate(-6.810878, -8.439048) "></path>
            </g>
        </g>
    </g>
</svg>