<?xml version="1.0" encoding="UTF-8"?>
<svg width="16px" height="16px" viewBox="0 0 16 16" version="1.1" xmlns="http://www.w3.org/2000/svg" xmlns:xlink="http://www.w3.org/1999/xlink">
    <title>p-red-envelope</title>
    <g id="页面-1" stroke="none" stroke-width="1" fill="none" fill-rule="evenodd">
        <g id="画板" transform="translate(-651.000000, -1253.000000)" fill="#000000" fill-rule="nonzero">
            <g id="p-red-envelope" transform="translate(651.000000, 1253.000000)">
                <rect id="矩形" opacity="0" x="0" y="0" width="16" height="16"></rect>
                <path d="M6.884375,7.228125 C6.8625,7.184375 6.8171875,7.15625 6.7671875,7.15625 L6.0046875,7.15625 C5.984375,7.15625 5.9640625,7.1625 5.94375,7.171875 C5.8796875,7.20625 5.85625,7.2859375 5.890625,7.35 L7.25625,9.8671875 L6.546875,9.8671875 C6.475,9.8671875 6.415625,9.9265625 6.415625,9.9984375 L6.415625,10.390625 C6.415625,10.4625 6.475,10.521875 6.546875,10.521875 L7.53125,10.521875 L7.53125,10.96875 L6.546875,10.96875 C6.475,10.96875 6.415625,11.028125 6.415625,11.1 L6.415625,11.4921875 C6.415625,11.5640625 6.475,11.6234375 6.546875,11.6234375 L7.53125,11.6234375 L7.53125,12.403125 C7.53125,12.475 7.590625,12.534375 7.6625,12.534375 L8.3453125,12.534375 C8.4171875,12.534375 8.4765625,12.475 8.4765625,12.403125 L8.4765625,11.6234375 L9.465625,11.6234375 C9.5390625,11.6234375 9.596875,11.5640625 9.59375,11.490625 L9.59375,11.1 C9.59375,11.028125 9.534375,10.96875 9.4625,10.96875 L8.4734375,10.96875 L8.4734375,10.521875 L9.4625,10.521875 C9.534375,10.521875 9.59375,10.4625 9.59375,10.390625 L9.59375,9.9984375 C9.59375,9.9265625 9.534375,9.8671875 9.4625,9.8671875 L8.7453125,9.8671875 L10.1078125,7.3515625 C10.11875,7.3328125 10.1234375,7.3109375 10.1234375,7.2890625 C10.1234375,7.2171875 10.0640625,7.1578125 9.9921875,7.1578125 L9.2453125,7.1578125 C9.196875,7.1578125 9.1515625,7.1859375 9.128125,7.2296875 L8.0046875,9.446875 L6.884375,7.228125 L6.884375,7.228125 Z M13,1 L3,1 C2.7234375,1 2.5,1.2234375 2.5,1.5 L2.5,14.5 C2.5,14.7765625 2.7234375,15 3,15 L13,15 C13.2765625,15 13.5,14.7765625 13.5,14.5 L13.5,1.5 C13.5,1.2234375 13.2765625,1 13,1 Z M12.375,13.875 L3.625,13.875 L3.625,3.0171875 L7.6921875,6.20625 C7.8734375,6.3484375 8.128125,6.3484375 8.309375,6.20625 L12.375,3.0171875 L12.375,13.875 Z M12.375,2.1359375 L11.8796875,2.1359375 L8,5.1765625 L4.1203125,2.1359375 L3.625,2.1359375 L3.625,2.125 L12.375,2.125 L12.375,2.1359375 L12.375,2.1359375 Z" id="形状"></path>
            </g>
        </g>
    </g>
</svg>