<?xml version="1.0" encoding="UTF-8"?>
<svg width="16px" height="16px" viewBox="0 0 16 16" version="1.1" xmlns="http://www.w3.org/2000/svg" xmlns:xlink="http://www.w3.org/1999/xlink">
    <title>p-right-square</title>
    <g id="页面-1" stroke="none" stroke-width="1" fill="none" fill-rule="evenodd">
        <g id="画板" transform="translate(-878.000000, -436.000000)" fill="#000000" fill-rule="nonzero">
            <g id="p-right-square" transform="translate(878.000000, 436.000000)">
                <rect id="矩形" opacity="0" x="0" y="0" width="16" height="16"></rect>
                <path d="M14.44,1 C14.74975,1 15,1.25025 15,1.56 L15,1.56 L15,14.44 C15,14.74975 14.74975,15 14.44,15 L14.44,15 L1.56,15 C1.25025,15 1,14.74975 1,14.44 L1,14.44 L1,1.56 C1,1.25025 1.25025,1 1.56,1 L1.56,1 Z M13.74,2.26 L2.26,2.26 L2.26,13.74 L13.74,13.74 L13.74,2.26 Z M6.04,4.88675 C6.04,4.773 6.1695,4.7065 6.26225,4.773 L6.26225,4.773 L10.56725,7.888 C10.64425,7.944 10.64425,8.05775 10.56725,8.11375 L10.56725,8.11375 L6.26225,11.22875 C6.1695,11.29525 6.04,11.22875 6.04,11.115 L6.04,11.115 L6.04,10.29425 C6.04,10.114 6.12575,9.946 6.271,9.841 L6.271,9.841 L8.8155,8 L6.271,6.16075 C6.12575,6.05575 6.04,5.886 6.04,5.7075 L6.04,5.7075 Z" id="形状结合"></path>
            </g>
        </g>
    </g>
</svg>