<?xml version="1.0" encoding="UTF-8"?>
<svg width="16px" height="16px" viewBox="0 0 16 16" version="1.1" xmlns="http://www.w3.org/2000/svg" xmlns:xlink="http://www.w3.org/1999/xlink">
    <title>p-right-circle</title>
    <g id="页面-1" stroke="none" stroke-width="1" fill="none" fill-rule="evenodd">
        <g id="画板" transform="translate(-834.000000, -436.000000)" fill="#000000" fill-rule="nonzero">
            <g id="p-right-circle" transform="translate(834.000000, 436.000000)">
                <rect id="矩形" opacity="0" x="0" y="0" width="16" height="16"></rect>
                <path d="M8,1 C11.865625,1 15,4.134375 15,8 C15,11.865625 11.865625,15 8,15 C4.134375,15 1,11.865625 1,8 C1,4.134375 4.134375,1 8,1 Z M8,2.1875 C4.790625,2.1875 2.1875,4.790625 2.1875,8 C2.1875,11.209375 4.790625,13.8125 8,13.8125 C11.209375,13.8125 13.8125,11.209375 13.8125,8 C13.8125,4.790625 11.209375,2.1875 8,2.1875 Z M6.375,5.21875 C6.375,5.115625 6.490625,5.0578125 6.5734375,5.1171875 L6.5734375,5.1171875 L10.4171875,7.8984375 C10.4859375,7.9484375 10.4859375,8.0515625 10.4171875,8.1015625 L10.4171875,8.1015625 L6.5734375,10.8828125 C6.490625,10.9421875 6.375,10.8828125 6.375,10.78125 L6.375,10.78125 L6.375,10.0484375 C6.375,9.8875 6.4515625,9.7375 6.58125,9.64375 L6.58125,9.64375 L8.853125,8 L6.58125,6.35625 C6.4515625,6.2625 6.375,6.1109375 6.375,5.9515625 L6.375,5.9515625 Z" id="形状结合"></path>
            </g>
        </g>
    </g>
</svg>