<?xml version="1.0" encoding="UTF-8"?>
<svg width="16px" height="16px" viewBox="0 0 16 16" version="1.1" xmlns="http://www.w3.org/2000/svg" xmlns:xlink="http://www.w3.org/1999/xlink">
    <title>p-rise</title>
    <g id="页面-1" stroke="none" stroke-width="1" fill="none" fill-rule="evenodd">
        <g id="画板" transform="translate(-583.000000, -1253.000000)" fill="#000000" fill-rule="nonzero">
            <g id="p-rise" transform="translate(583.000000, 1253.000000)">
                <rect id="矩形" opacity="0" x="0" y="0" width="16" height="16"></rect>
                <path d="M14.8482737,2.90124357 L11.4801517,3.3070414 C11.3685573,3.32056799 11.3212142,3.45752476 11.4006829,3.5369935 L12.4033417,4.53965231 L8.58207884,8.36091521 L6.86081971,6.64134691 C6.75429778,6.53482498 6.58352452,6.5365158 6.47869342,6.64134691 L1.03931166,12.0824195 C0.986896112,12.134835 0.986896112,12.2210671 1.03931166,12.2734826 L1.8001826,13.0377352 C1.85259815,13.0901508 1.93883019,13.0901508 1.99124574,13.0377352 L6.66975656,8.36091521 L8.38932487,10.0804835 C8.4958468,10.1853146 8.66662005,10.1853146 8.77145116,10.0804835 L13.3603483,5.49496804 L14.3630071,6.49762684 C14.4424758,6.57709558 14.5794326,6.5297525 14.5929592,6.4181581 L14.998757,3.05003611 C15.0105928,2.96380407 14.9361965,2.8894078 14.8482737,2.90124357 Z" id="路径"></path>
            </g>
        </g>
    </g>
</svg>