<?xml version="1.0" encoding="UTF-8"?>
<svg width="16px" height="16px" viewBox="0 0 16 16" version="1.1" xmlns="http://www.w3.org/2000/svg" xmlns:xlink="http://www.w3.org/1999/xlink">
    <title>p-rotate-right</title>
    <g id="页面-1" stroke="none" stroke-width="1" fill="none" fill-rule="evenodd">
        <g id="画板" transform="translate(-482.000000, -1253.000000)" fill="#000000" fill-rule="nonzero">
            <g id="p-rotate-right" transform="translate(482.000000, 1253.000000)">
                <rect id="矩形" opacity="0" x="0" y="0" width="16" height="16"></rect>
                <path d="M7.36868342,3.62180516 C7.59808251,3.59357142 7.82571699,3.57945455 8.05335147,3.57768995 L8.05335147,4.7052747 C8.05335147,4.81997425 8.1856971,4.88350015 8.27569213,4.81291581 L10.5361555,3.02889674 C10.6067398,2.97242927 10.6067398,2.86655277 10.5361555,2.81184991 L8.27745674,1.02959544 C8.18746171,0.959011108 8.05511608,1.02253701 8.05511608,1.13723655 L8.05158687,2.26658592 C5.95876133,2.27540896 3.8906403,3.20888679 2.5001289,4.98761204 C1.27196146,6.56164272 0.811398677,8.49212429 1.0690315,10.3237878 L2.39072318,10.3237878 C2.3748417,10.2302635 2.36072484,10.1349747 2.34837258,10.0396858 C2.25837755,9.29678571 2.3113158,8.55565019 2.50542272,7.83745458 C2.70658808,7.09278984 3.05245132,6.40635718 3.53066019,5.79403807 C4.01063367,5.18171897 4.59471905,4.67880558 5.26703484,4.30647321 C5.91993994,3.94296388 6.62401869,3.71356479 7.36868342,3.62180516 Z M14.4182939,6.56517194 L5.10116165,6.56517194 C4.78882597,6.56517194 4.53648697,6.81751093 4.53648697,7.12984662 L4.53648697,14.4353253 C4.53648697,14.747661 4.78882597,15 5.10116165,15 L14.4182939,15 C14.7306296,15 14.9829686,14.747661 14.9829686,14.4353253 L14.9829686,7.12984662 C14.9829686,6.81751093 14.7306296,6.56517194 14.4182939,6.56517194 Z M13.6418662,13.6588976 L5.87758934,13.6588976 L5.87758934,7.90627431 L13.6418662,7.90627431 L13.6418662,13.6588976 Z" id="形状"></path>
            </g>
        </g>
    </g>
</svg>