<?xml version="1.0" encoding="UTF-8"?>
<svg width="16px" height="16px" viewBox="0 0 16 16" version="1.1" xmlns="http://www.w3.org/2000/svg" xmlns:xlink="http://www.w3.org/1999/xlink">
    <title>p-rocket</title>
    <g id="页面-1" stroke="none" stroke-width="1" fill="none" fill-rule="evenodd">
        <g id="画板" transform="translate(-550.000000, -1253.000000)" fill="#000000" fill-rule="nonzero">
            <g id="p-rocket" transform="translate(550.000000, 1253.000000)">
                <rect id="矩形" opacity="0" x="0" y="0" width="16" height="16"></rect>
                <path d="M13.7640187,11.6635514 C13.7640187,9.83831776 12.6943925,8.26168224 11.1471963,7.52733645 L11.1471963,4.81565421 C11.1471963,4.56869159 11.060514,4.32990654 10.9002336,4.14182243 L8.40771028,1.1864486 C8.30303738,1.06214953 8.15420561,1 8.00700935,1 C7.85981308,1 7.71098131,1.06214953 7.60630841,1.1864486 L5.11378505,4.14182243 C4.95514019,4.32990654 4.86682243,4.56869159 4.86682243,4.81565421 L4.86682243,7.52733645 C3.31962617,8.26168224 2.25,9.83831776 2.25,11.6635514 L4.80957944,11.6635514 C4.77196262,11.7813084 4.75233645,11.9088785 4.75233645,12.0528037 C4.75233645,12.4142523 4.87663551,12.7675234 5.10233645,13.0471963 C5.28714953,13.2761682 5.53084112,13.4495327 5.80724299,13.5476636 C6.18504673,14.4308411 7.04369159,15 8.00700935,15 C8.48294393,15 8.94415888,14.8593458 9.33831776,14.5943925 C9.72429907,14.3359813 10.0235981,13.9745327 10.2051402,13.5476636 C10.4815421,13.4495327 10.7252336,13.2778037 10.9100467,13.0488318 C11.1357477,12.7675234 11.2600467,12.4142523 11.2600467,12.0544393 C11.2600467,11.9170561 11.2420561,11.786215 11.2093458,11.6651869 L13.7640187,11.6651869 L13.7640187,11.6635514 Z M12.1007009,9.78925234 C12.2544393,10.0280374 12.3787383,10.2848131 12.4686916,10.5514019 L11.0817757,10.5514019 L11.0817757,8.76378505 C11.4873832,9.02873832 11.8357477,9.3771028 12.1007009,9.78925234 L12.1007009,9.78925234 Z M5.97897196,7.52733645 L5.97897196,4.84018692 L8.00700935,2.43598131 L10.0350467,4.84018692 L10.0350467,10.5514019 L5.97897196,10.5514019 L5.97897196,7.52733645 Z M3.5453271,10.5514019 C3.63528037,10.2848131 3.75957944,10.0280374 3.91331776,9.78925234 C4.17990654,9.3771028 4.52663551,9.02873832 4.93224299,8.76378505 L4.93224299,10.5514019 L3.5453271,10.5514019 Z M9.90584112,12.4518692 C9.82079439,12.5009346 9.72266355,12.5205607 9.62616822,12.5074766 L9.30724299,12.4682243 L9.2614486,12.785514 C9.17313084,13.4053738 8.63341121,13.8731308 8.00700935,13.8731308 C7.38060748,13.8731308 6.84088785,13.4053738 6.75257009,12.785514 L6.7067757,12.4665888 L6.38785047,12.5074766 C6.37149533,12.5091121 6.35350467,12.5107477 6.3338785,12.5107477 C6.25373832,12.5107477 6.17686916,12.489486 6.10817757,12.4502336 C5.96588785,12.3684579 5.87757009,12.2163551 5.87757009,12.0511682 C5.87757009,11.8778037 5.97406542,11.7338785 6.11635514,11.6619159 L9.89929907,11.6619159 C10.0432243,11.735514 10.1380841,11.8794393 10.1380841,12.0511682 C10.1364486,12.2179907 10.0481308,12.371729 9.90584112,12.4518692 Z M7.22196262,6.1682243 C7.22196262,6.60179363 7.57344001,6.95327103 8.00700935,6.95327103 C8.44057868,6.95327103 8.79205607,6.60179363 8.79205607,6.1682243 C8.79205607,5.73465497 8.44057868,5.38317757 8.00700935,5.38317757 C7.57344001,5.38317757 7.22196262,5.73465497 7.22196262,6.1682243 L7.22196262,6.1682243 Z" id="形状"></path>
            </g>
        </g>
    </g>
</svg>