<?xml version="1.0" encoding="UTF-8"?>
<svg width="16px" height="16px" viewBox="0 0 16 16" version="1.1" xmlns="http://www.w3.org/2000/svg" xmlns:xlink="http://www.w3.org/1999/xlink">
    <title>p-rotate-left</title>
    <g id="页面-1" stroke="none" stroke-width="1" fill="none" fill-rule="evenodd">
        <g id="画板" transform="translate(-516.000000, -1253.000000)" fill="#000000" fill-rule="nonzero">
            <g id="p-rotate-left" transform="translate(516.000000, 1253.000000)">
                <rect id="矩形" opacity="0" x="0" y="0" width="16" height="16"></rect>
                <path d="M10.8805616,6.56623496 L1.56460352,6.56623496 C1.2523072,6.56623496 1,6.81854215 1,7.13083847 L1,14.4353965 C1,14.7476928 1.2523072,15 1.56460352,15 L10.8805616,15 C11.1928579,15 11.4451651,14.7476928 11.4451651,14.4353965 L11.4451651,7.13083847 C11.4451651,6.81854215 11.1928579,6.56623496 10.8805616,6.56623496 Z M10.1042317,13.6590666 L2.34093335,13.6590666 L2.34093335,7.90716831 L10.1042317,7.90716831 L10.1042317,13.6590666 Z M13.4795021,4.98710949 C12.089166,3.2103728 10.0213056,2.27701261 7.92874379,2.26642629 L7.92521502,1.13721926 C7.92521502,1.02253417 7.79112168,0.959016274 7.70290238,1.02959171 L5.44448831,2.81162157 C5.37391287,2.86631753 5.37567726,2.97218069 5.44448831,3.02864104 L7.70466677,4.81243528 C7.79465046,4.88301072 7.92874379,4.81949282 7.92697941,4.70480774 L7.92697941,3.57736509 C8.1545852,3.57912947 8.38395538,3.59324456 8.61156117,3.62147474 C9.35436767,3.71322281 10.0601221,3.94259299 10.7111805,4.30429212 C11.3834116,4.67834195 11.9674233,5.18119195 12.4473363,5.79166951 C12.9254849,6.40391145 13.2713046,7.09202198 13.4724446,7.83482849 C13.666527,8.55293358 13.7194586,9.2939757 13.6294749,10.0367822 C13.6171242,10.132059 13.6047735,10.2273359 13.5871297,10.3208483 L14.9086548,10.3208483 C15.1697839,8.49294446 14.7092792,6.56270619 13.4795021,4.98710949 Z" id="形状"></path>
            </g>
        </g>
    </g>
</svg>