<?xml version="1.0" encoding="UTF-8"?>
<svg width="16px" height="16px" viewBox="0 0 16 16" version="1.1" xmlns="http://www.w3.org/2000/svg" xmlns:xlink="http://www.w3.org/1999/xlink">
    <title>p-rollback</title>
    <g id="页面-1" stroke="none" stroke-width="1" fill="none" fill-rule="evenodd">
        <g id="画板" transform="translate(-383.000000, -1783.000000)" fill="#000000" fill-rule="nonzero">
            <g id="p-rollback" transform="translate(383.000000, 1783.000000)">
                <rect id="矩形" opacity="0" x="0" y="0" width="16" height="16"></rect>
                <path d="M5.14464984,5.72161724 C5.14464984,5.80445995 5.07749255,5.87161724 4.99464984,5.87161724 C4.96073692,5.87161724 4.92782479,5.86012536 4.90128249,5.8390163 L2.00542853,3.53594685 C1.94059082,3.48438149 1.92983145,3.39001816 1.98139681,3.32518045 C1.98868193,3.31602022 1.99701411,3.30774411 2.00622331,3.30052101 L4.90207727,1.02920068 C4.96726166,0.978074267 5.0615502,0.989470508 5.11267661,1.0546549 C5.13339171,1.08106592 5.14464984,1.11366174 5.14464984,1.14722746 L5.144,2.774 L13.7572429,2.77434174 C14.3079849,2.77434174 14.7614013,3.19104203 14.8194091,3.72635954 L14.8256785,3.84277737 L14.8256785,13.9315644 C14.8256785,14.4823064 14.4089782,14.9357228 13.8736607,14.9937306 L13.7572429,15 L1.28,15 C1.21372583,15 1.16,14.9462742 1.16,14.88 L1.16,13.7971749 C1.16000704,13.7309035 1.21372858,13.6771788 1.28,13.6771679 L13.5027791,13.6764509 L13.5027791,4.09716236 L5.144,4.097 L5.14464984,5.72161724 Z" id="形状结合"></path>
            </g>
        </g>
    </g>
</svg>