<?xml version="1.0" encoding="UTF-8"?>
<svg width="16px" height="16px" viewBox="0 0 16 16" version="1.1" xmlns="http://www.w3.org/2000/svg" xmlns:xlink="http://www.w3.org/1999/xlink">
    <title>p-ruro</title>
    <g id="页面-1" stroke="none" stroke-width="1" fill="none" fill-rule="evenodd">
        <g id="画板" transform="translate(-448.000000, -1253.000000)" fill="#000000" fill-rule="nonzero">
            <g id="p-ruro" transform="translate(448.000000, 1253.000000)">
                <rect id="矩形" opacity="0" x="0" y="0" width="16" height="16"></rect>
                <path d="M8,1 C4.134375,1 1,4.134375 1,8 C1,11.865625 4.134375,15 8,15 C11.865625,15 15,11.865625 15,8 C15,4.134375 11.865625,1 8,1 Z M8,13.8125 C4.790625,13.8125 2.1875,11.209375 2.1875,8 C2.1875,4.790625 4.790625,2.1875 8,2.1875 C11.209375,2.1875 13.8125,4.790625 13.8125,8 C13.8125,11.209375 11.209375,13.8125 8,13.8125 Z M9.8390625,4.615625 C9.590625,4.5609375 9.3015625,4.53125 8.975,4.53125 C7.3078125,4.53125 6.1796875,5.4015625 5.871875,6.8734375 L5.375,6.8734375 C5.30625,6.8734375 5.25,6.9296875 5.25,6.9984375 L5.25,7.4234375 C5.25,7.4921875 5.30625,7.5484375 5.375,7.5484375 L5.7875,7.5484375 C5.7828125,7.6125 5.7828125,7.6796875 5.7828125,7.7484375 L5.7828125,8.325 L5.375,8.325 C5.30625,8.325 5.25,8.38125 5.25,8.45 L5.25,8.875 C5.25,8.94375 5.30625,9 5.375,9 L5.846875,9 C6.115625,10.55 7.259375,11.46875 8.975,11.46875 C9.3015625,11.46875 9.590625,11.4421875 9.8390625,11.3890625 C9.896875,11.3765625 9.9390625,11.3265625 9.9390625,11.2671875 L9.9390625,10.5984375 C9.9390625,10.5203125 9.8671875,10.4609375 9.790625,10.4765625 C9.5609375,10.5203125 9.2921875,10.540625 8.98125,10.540625 C7.9109375,10.540625 7.1921875,9.96875 6.953125,9 L8.99375,9 C9.0625,9 9.11875,8.94375 9.11875,8.875 L9.11875,8.45 C9.11875,8.38125 9.0625,8.325 8.99375,8.325 L6.8625,8.325 L6.8625,7.7625 C6.8625,7.6890625 6.8625,7.615625 6.8671875,7.546875 L8.990625,7.546875 C9.059375,7.546875 9.115625,7.490625 9.115625,7.421875 L9.115625,6.996875 C9.115625,6.928125 9.059375,6.871875 8.990625,6.871875 L6.9859375,6.871875 C7.2546875,5.9828125 7.959375,5.459375 8.9796875,5.459375 C9.290625,5.459375 9.559375,5.4828125 9.7875,5.528125 C9.865625,5.54375 9.9375,5.484375 9.9375,5.40625 L9.9375,4.7375 C9.9375,4.678125 9.896875,4.628125 9.8390625,4.615625 L9.8390625,4.615625 Z" id="形状"></path>
            </g>
        </g>
    </g>
</svg>