<?xml version="1.0" encoding="UTF-8"?>
<svg width="16px" height="16px" viewBox="0 0 16 16" version="1.1" xmlns="http://www.w3.org/2000/svg" xmlns:xlink="http://www.w3.org/1999/xlink">
    <title>p-safety-certificate</title>
    <g id="页面-1" stroke="none" stroke-width="1" fill="none" fill-rule="evenodd">
        <g id="画板" transform="translate(-381.000000, -1253.000000)" fill="#000000" fill-rule="nonzero">
            <g id="p-safety-certificate" transform="translate(381.000000, 1253.000000)">
                <rect id="矩形" opacity="0" x="0" y="0" width="16" height="16"></rect>
                <path d="M13.5453125,2.6546875 L8.2359375,0.8453125 C8.171875,0.8234375 8.0859375,0.8125 8,0.8125 C7.9140625,0.8125 7.828125,0.8234375 7.7640625,0.8453125 L2.4546875,2.6546875 C2.325,2.6984375 2.21875,2.8484375 2.21875,2.9859375 L2.21875,10.5234375 C2.21875,10.6609375 2.3078125,10.8421875 2.415625,10.928125 L7.8015625,15.125 C7.85625,15.1671875 7.9265625,15.1890625 7.9984375,15.1890625 C8.0703125,15.1890625 8.1421875,15.1671875 8.1953125,15.125 L13.58125,10.928125 C13.6890625,10.84375 13.7782566,10.6625 13.7782566,10.5234375 L13.7782566,2.9859375 C13.78125,2.8484375 13.675,2.7 13.5453125,2.6546875 Z M12.65625,10.2234375 L8,13.8515625 L3.34375,10.2234375 L3.34375,3.5421875 L8,1.9546875 L12.65625,3.5421875 L12.65625,10.2234375 Z M6.315625,7.0828125 C6.26875,7.01875 6.19375,6.9796875 6.1125,6.9796875 L5.25,6.9796875 C5.1484375,6.9796875 5.0890625,7.0953125 5.1484375,7.178125 L7.1234375,9.896875 C7.2234375,10.034375 7.4296875,10.034375 7.5296875,9.896875 L10.8515625,5.3234375 C10.9109375,5.240625 10.8515625,5.125 10.75,5.125 L9.8875,5.125 C9.8078125,5.125 9.73125,5.1640625 9.684375,5.228125 L7.3265625,8.475 L6.315625,7.0828125 Z" id="形状"></path>
            </g>
        </g>
    </g>
</svg>