<?xml version="1.0" encoding="UTF-8"?>
<svg width="16px" height="16px" viewBox="0 0 16 16" version="1.1" xmlns="http://www.w3.org/2000/svg" xmlns:xlink="http://www.w3.org/1999/xlink">
    <title>p-save</title>
    <g id="页面-1" stroke="none" stroke-width="1" fill="none" fill-rule="evenodd">
        <g id="画板" transform="translate(-414.000000, -1253.000000)" fill="#000000" fill-rule="nonzero">
            <g id="p-save" transform="translate(414.000000, 1253.000000)">
                <rect id="矩形" opacity="0" x="0" y="0" width="16" height="16"></rect>
                <path d="M14.67275,4.17275 L11.82725,1.32725 C11.696,1.196 11.535,1.09975 11.36,1.04725 L11.36,1 L1.56,1 C1.25025,1 1,1.25025 1,1.56 L1,14.44 C1,14.74975 1.25025,15 1.56,15 L14.44,15 C14.74975,15 15,14.74975 15,14.44 L15,4.96375 C15,4.66625 14.88275,4.38275 14.67275,4.17275 Z M5.76,2.26 L10.24,2.26 L10.24,4.08 L5.76,4.08 L5.76,2.26 Z M13.74,13.74 L2.26,13.74 L2.26,2.26 L4.64,2.26 L4.64,4.64 C4.64,4.94975 4.89025,5.2 5.2,5.2 L10.8,5.2 C11.10975,5.2 11.36,4.94975 11.36,4.64 L11.36,2.6415 L13.74,5.0215 L13.74,13.74 Z M8,6.775 C6.60875,6.775 5.48,7.90375 5.48,9.295 C5.48,10.68625 6.60875,11.815 8,11.815 C9.39125,11.815 10.52,10.68625 10.52,9.295 C10.52,7.90375 9.39125,6.775 8,6.775 Z M8,10.695 C7.2265,10.695 6.6,10.0685 6.6,9.295 C6.6,8.5215 7.2265,7.895 8,7.895 C8.7735,7.895 9.4,8.5215 9.4,9.295 C9.4,10.0685 8.7735,10.695 8,10.695 Z" id="形状"></path>
            </g>
        </g>
    </g>
</svg>