<?xml version="1.0" encoding="UTF-8"?>
<svg width="16px" height="16px" viewBox="0 0 16 16" version="1.1" xmlns="http://www.w3.org/2000/svg" xmlns:xlink="http://www.w3.org/1999/xlink">
    <title>p-scissor</title>
    <g id="页面-1" stroke="none" stroke-width="1" fill="none" fill-rule="evenodd">
        <g id="画板" transform="translate(-347.000000, -1253.000000)" fill="#000000" fill-rule="nonzero">
            <g id="p-scissor" transform="translate(347.000000, 1253.000000)">
                <rect id="矩形" opacity="0" x="0" y="0" width="16" height="16"></rect>
                <path d="M9.0258598,7.96281969 L14.9554268,2.01835892 C15.0485127,1.9252731 14.9833526,1.76330376 14.8511707,1.76330376 L13.1663173,1.76330376 C13.1272212,1.76330376 13.0881252,1.77819749 13.0620612,1.80612324 L7.97398998,6.90722643 L6.29472171,5.22237301 C6.52743627,4.81093366 6.66147986,4.33619596 6.66147986,3.82980907 C6.66147986,2.26782893 5.39365092,1 3.83167079,1 C2.26969065,1 1.00186172,2.26782893 1.00186172,3.82980907 C1.00186172,5.39178921 2.26969065,6.65961814 3.83167079,6.65961814 C4.34736626,6.65961814 4.82955083,6.52185112 5.2447136,6.28168969 L6.92025845,7.96281969 L5.24285189,9.64394968 C4.82768911,9.40378825 4.34550454,9.26602123 3.82980907,9.26602123 C2.26782893,9.26602123 1,10.5338502 1,12.0958303 C1,13.6578104 2.26782893,14.9256394 3.82980907,14.9256394 C5.39178921,14.9256394 6.65961814,13.6578104 6.65961814,12.0958303 C6.65961814,11.5894434 6.52557455,11.1147057 6.29285999,10.7032664 L7.97212827,9.01841294 L13.0601994,14.1195161 C13.0881252,14.1474419 13.1253595,14.1623356 13.1644556,14.1623356 L14.8511707,14.1623356 C14.9833526,14.1623356 15.0503744,14.002228 14.9554268,13.9072804 L9.0258598,7.96281969 Z M3.82980907,5.31918226 C3.0087921,5.31918226 2.34043588,4.65082604 2.34043588,3.82980907 C2.34043588,3.0087921 3.0087921,2.34043588 3.82980907,2.34043588 C4.65082604,2.34043588 5.31918226,3.0087921 5.31918226,3.82980907 C5.31918226,4.65082604 4.65082604,5.31918226 3.82980907,5.31918226 Z M3.82980907,13.5852035 C3.0087921,13.5852035 2.34043588,12.9168473 2.34043588,12.0958303 C2.34043588,11.2748133 3.0087921,10.6064571 3.82980907,10.6064571 C4.65082604,10.6064571 5.31918226,11.2748133 5.31918226,12.0958303 C5.31918226,12.9168473 4.65082604,13.5852035 3.82980907,13.5852035 Z" id="形状"></path>
            </g>
        </g>
    </g>
</svg>