<?xml version="1.0" encoding="UTF-8"?>
<svg width="16px" height="16px" viewBox="0 0 16 16" version="1.1" xmlns="http://www.w3.org/2000/svg" xmlns:xlink="http://www.w3.org/1999/xlink">
    <title>p-security-scan</title>
    <g id="页面-1" stroke="none" stroke-width="1" fill="none" fill-rule="evenodd">
        <g id="画板" transform="translate(-245.000000, -1253.000000)" fill="#000000" fill-rule="nonzero">
            <g id="p-security-scan" transform="translate(245.000000, 1253.000000)">
                <rect id="矩形" opacity="0" x="0" y="0" width="16" height="16"></rect>
                <path d="M13.5453125,2.6546875 L8.2359375,0.8453125 C8.171875,0.8234375 8.0859375,0.8125 8,0.8125 C7.9140625,0.8125 7.828125,0.8234375 7.7640625,0.8453125 L2.4546875,2.6546875 C2.325,2.6984375 2.21875,2.8484375 2.21875,2.9859375 L2.21875,10.5234375 C2.21875,10.6609375 2.3078125,10.8421875 2.415625,10.928125 L7.8015625,15.125 C7.85625,15.1671875 7.9265625,15.1890625 7.9984375,15.1890625 C8.0703125,15.1890625 8.1421875,15.1671875 8.1953125,15.125 L13.58125,10.928125 C13.6890625,10.84375 13.7782566,10.6625 13.7782566,10.5234375 L13.7782566,2.9859375 C13.78125,2.8484375 13.675,2.7 13.5453125,2.6546875 Z M12.65625,10.2234375 L8,13.8515625 L3.34375,10.2234375 L3.34375,3.5421875 L8,1.9546875 L12.65625,3.5421875 L12.65625,10.2234375 Z M6.2953125,8.2625 L5.084375,9.4734375 C5.0359375,9.521875 5.0359375,9.6015625 5.084375,9.65 L5.615625,10.18125 C5.6640625,10.2296875 5.74375,10.2296875 5.7921875,10.18125 L7.003125,8.9703125 C7.8734375,9.51875 9.0359375,9.4140625 9.79375,8.65625 C10.6734375,7.7765625 10.6734375,6.3515625 9.79375,5.471875 C8.9140625,4.5921875 7.4890625,4.5921875 6.609375,5.471875 C5.8515625,6.2296875 5.746875,7.39375 6.2953125,8.2625 L6.2953125,8.2625 Z M7.3171875,6.1796875 C7.80625,5.690625 8.5984375,5.690625 9.0859375,6.1796875 C9.575,6.66875 9.575,7.4609375 9.0859375,7.9484375 C8.596875,8.4375 7.8046875,8.4375 7.3171875,7.9484375 C6.8296875,7.459375 6.828125,6.66875 7.3171875,6.1796875 L7.3171875,6.1796875 Z" id="形状"></path>
            </g>
        </g>
    </g>
</svg>