<?xml version="1.0" encoding="UTF-8"?>
<svg width="16px" height="16px" viewBox="0 0 16 16" version="1.1" xmlns="http://www.w3.org/2000/svg" xmlns:xlink="http://www.w3.org/1999/xlink">
    <title>p-search</title>
    <g id="页面-1" stroke="none" stroke-width="1" fill="none" fill-rule="evenodd">
        <g id="画板" transform="translate(-313.000000, -1253.000000)" fill="#000000" fill-rule="nonzero">
            <g id="p-search" transform="translate(313.000000, 1253.000000)">
                <rect id="矩形" opacity="0" x="0" y="0" width="16" height="16"></rect>
                <path d="M14.958,13.99375 L10.41325,9.449 C11.1185,8.53725 11.5,7.4225 11.5,6.25 C11.5,4.8465 10.95225,3.5305 9.96175,2.53825 C8.97125,1.546 7.65175,1 6.25,1 C4.84825,1 3.52875,1.54775 2.53825,2.53825 C1.546,3.52875 1,4.8465 1,6.25 C1,7.65175 1.54775,8.97125 2.53825,9.96175 C3.52875,10.954 4.8465,11.5 6.25,11.5 C7.4225,11.5 8.5355,11.1185 9.44725,10.415 L13.992,14.958 C14.048,15.014 14.139,15.014 14.195,14.958 L14.958,14.19675 C15.014,14.14075 15.014,14.04975 14.958,13.99375 Z M9.022,9.022 C8.28,9.76225 7.2965,10.17 6.25,10.17 C5.2035,10.17 4.22,9.76225 3.478,9.022 C2.73775,8.28 2.33,7.2965 2.33,6.25 C2.33,5.2035 2.73775,4.21825 3.478,3.478 C4.22,2.73775 5.2035,2.33 6.25,2.33 C7.2965,2.33 8.28175,2.736 9.022,3.478 C9.76225,4.22 10.17,5.2035 10.17,6.25 C10.17,7.2965 9.76225,8.28175 9.022,9.022 Z" id="形状"></path>
            </g>
        </g>
    </g>
</svg>