<?xml version="1.0" encoding="UTF-8"?>
<svg width="16px" height="16px" viewBox="0 0 16 16" version="1.1" xmlns="http://www.w3.org/2000/svg" xmlns:xlink="http://www.w3.org/1999/xlink">
    <title>p-shrink</title>
    <g id="页面-1" stroke="none" stroke-width="1" fill="none" fill-rule="evenodd">
        <g id="画板" transform="translate(-154.000000, -1839.000000)">
            <g id="p-shrink" transform="translate(154.000000, 1839.000000)">
                <rect id="矩形" fill="#D8D8D8" opacity="0" x="0" y="0" width="16" height="16"></rect>
                <path d="M9.66421205,3.05223151 C9.70170239,3.01474117 9.75782752,3.00724311 9.80277178,3.02973731 L9.83391768,3.05223151 L10.9304425,4.14915193 L13.8644979,1.21514719 C13.9113608,1.16828427 13.9873406,1.16828427 14.0342035,1.21514719 L14.7837367,1.96468037 C14.8305996,2.01154329 14.8305996,2.08752309 14.7837367,2.134386 L11.8496813,5.06839074 L12.9466524,6.16496624 C12.9561085,6.17442237 12.9638496,6.18532252 12.9696364,6.19717669 L12.9808948,6.23511118 C12.986987,6.28444205 12.9622212,6.33047172 12.9217089,6.35383024 L12.8765075,6.3689143 L9.32519788,6.80748915 C9.31542974,6.80869549 9.30555029,6.80869549 9.29578215,6.80748915 C9.24645128,6.80139696 9.20782966,6.76617695 9.19502889,6.7211991 L9.19139476,6.67368604 L9.62996962,3.12237646 C9.63324775,3.09583213 9.64529979,3.07114377 9.66421205,3.05223151 Z M3.05223151,9.66421205 L3.08444196,9.64122804 L3.08444196,9.64122804 L3.12237646,9.62996962 L6.67368604,9.19139476 L6.7211991,9.19502889 C6.76617695,9.20782966 6.80139696,9.24645128 6.80748915,9.29578215 L6.80748915,9.32519788 L6.3689143,12.8765075 L6.35383024,12.9217089 C6.3382579,12.9487171 6.31260948,12.9687269 6.28262425,12.9772607 L6.23511118,12.9808948 L6.19717669,12.9696364 L6.1801722,12.9595204 L6.1801722,12.9595204 L5.06839074,11.8496813 L2.134386,14.7837367 C2.09923882,14.8188839 2.04771338,14.8276707 2.00437707,14.8100971 L1.96468037,14.7837367 L1.21514719,14.0342035 C1.18,13.9990564 1.1712132,13.9475309 1.1887868,13.9041946 L1.21514719,13.8644979 L4.14915193,10.9304425 L3.05223151,9.83391768 L3.02973731,9.80277178 C3.00724311,9.75782752 3.01474117,9.70170239 3.05223151,9.66421205 Z" id="形状" fill="#000000"></path>
            </g>
        </g>
    </g>
</svg>