<?xml version="1.0" encoding="UTF-8"?>
<svg width="16px" height="16px" viewBox="0 0 16 16" version="1.1" xmlns="http://www.w3.org/2000/svg" xmlns:xlink="http://www.w3.org/1999/xlink">
    <title>p-share</title>
    <g id="页面-1" stroke="none" stroke-width="1" fill="none" fill-rule="evenodd">
        <g id="画板" transform="translate(-144.000000, -1343.000000)" fill="#000000" fill-rule="nonzero">
            <g id="p-share" transform="translate(144.000000, 1343.000000)">
                <rect id="矩形" opacity="0" x="0" y="0" width="16" height="16"></rect>
                <path d="M12.2842857,10.7142857 C11.7753571,10.7142857 11.3057143,10.8928571 10.9378571,11.1910714 L7.23785714,8.51428571 C7.26821429,8.34821429 7.28428571,8.175 7.28428571,8 C7.28428571,7.825 7.26821429,7.65357143 7.23785714,7.48571429 L10.9378571,4.80892857 C11.3057143,5.10714286 11.7753571,5.28571429 12.2842857,5.28571429 C13.4664286,5.28571429 14.4271429,4.325 14.4271429,3.14285714 C14.4271429,1.96071429 13.4664286,1 12.2842857,1 C11.1021429,1 10.1414286,1.96071429 10.1414286,3.14285714 C10.1414286,3.35 10.17,3.54821429 10.2253571,3.7375 L6.71107143,6.28214286 C6.18964286,5.59107143 5.36107143,5.14285714 4.42714286,5.14285714 C2.84857143,5.14285714 1.57,6.42142857 1.57,8 C1.57,9.57857143 2.84857143,10.8571429 4.42714286,10.8571429 C5.36107143,10.8571429 6.18964286,10.4089286 6.71107143,9.71785714 L10.2253571,12.2625 C10.17,12.4517857 10.1414286,12.6517857 10.1414286,12.8571429 C10.1414286,14.0392857 11.1021429,15 12.2842857,15 C13.4664286,15 14.4271429,14.0392857 14.4271429,12.8571429 C14.4271429,11.675 13.4664286,10.7142857 12.2842857,10.7142857 Z M12.2842857,2.21428571 C12.7967857,2.21428571 13.2128571,2.63035714 13.2128571,3.14285714 C13.2128571,3.65535714 12.7967857,4.07142857 12.2842857,4.07142857 C11.7717857,4.07142857 11.3557143,3.65535714 11.3557143,3.14285714 C11.3557143,2.63035714 11.7717857,2.21428571 12.2842857,2.21428571 Z M4.42714286,9.57142857 C3.56107143,9.57142857 2.85571429,8.86607143 2.85571429,8 C2.85571429,7.13392857 3.56107143,6.42857143 4.42714286,6.42857143 C5.29321429,6.42857143 5.99857143,7.13392857 5.99857143,8 C5.99857143,8.86607143 5.29321429,9.57142857 4.42714286,9.57142857 Z M12.2842857,13.7857143 C11.7717857,13.7857143 11.3557143,13.3696429 11.3557143,12.8571429 C11.3557143,12.3446429 11.7717857,11.9285714 12.2842857,11.9285714 C12.7967857,11.9285714 13.2128571,12.3446429 13.2128571,12.8571429 C13.2128571,13.3696429 12.7967857,13.7857143 12.2842857,13.7857143 Z" id="形状"></path>
            </g>
        </g>
    </g>
</svg>