<?xml version="1.0" encoding="UTF-8"?>
<svg width="16px" height="16px" viewBox="0 0 16 16" version="1.1" xmlns="http://www.w3.org/2000/svg" xmlns:xlink="http://www.w3.org/1999/xlink">
    <title>p-shop</title>
    <g id="页面-1" stroke="none" stroke-width="1" fill="none" fill-rule="evenodd">
        <g id="画板" transform="translate(-180.000000, -1343.000000)" fill="#000000" fill-rule="nonzero">
            <g id="p-shop" transform="translate(180.000000, 1343.000000)">
                <rect id="矩形" opacity="0" x="0" y="0" width="16" height="16"></rect>
                <path d="M14.475,3.80175 L14.475,1.56 C14.475,1.25025 14.22475,1 13.915,1 L2.085,1 C1.77525,1 1.525,1.25025 1.525,1.56 L1.525,3.80175 C1.23275,3.81925 1,4.0625 1,4.36 L1,6.66475 C1,7.09175 1.084,7.5065 1.252,7.89675 C1.32725,8.07525 1.42,8.24325 1.525,8.4025 L1.525,14.44 C1.525,14.748 1.77525,15 2.085,15 L13.915,15 C14.22475,15 14.475,14.74975 14.475,14.44 L14.475,8.4025 C14.58175,8.24325 14.67275,8.0735 14.748,7.89675 C14.91425,7.5065 15,7.09175 15,6.66475 L15,4.36 C15,4.0625 14.76725,3.81925 14.475,3.80175 Z M2.785,2.26 L13.215,2.26 L13.215,3.8 L2.785,3.8 L2.785,2.26 Z M9.12,13.74175 L6.88,13.74175 L6.88,11.92 L9.12,11.92 L9.12,13.74175 Z M13.215,13.74175 L10.24,13.74175 L10.24,11.36 C10.24,11.05025 9.98975,10.8 9.68,10.8 L6.32,10.8 C6.01025,10.8 5.76,11.05025 5.76,11.36 L5.76,13.74175 L2.785,13.74175 L2.785,9.50325 C2.83575,9.52775 2.88825,9.55225 2.9425,9.57325 C3.33275,9.73775 3.7475,9.82 4.1745,9.82 C4.6015,9.82 5.0145,9.73775 5.4065,9.57325 C5.648,9.47175 5.8755,9.34225 6.08375,9.1865 C6.08725,9.18475 6.09075,9.18475 6.09425,9.1865 C6.3025,9.34225 6.52825,9.47175 6.7715,9.57325 C7.16175,9.73775 7.5765,9.82 8.0035,9.82 C8.4305,9.82 8.8435,9.73775 9.2355,9.57325 C9.477,9.47175 9.7045,9.34225 9.91275,9.1865 C9.91625,9.18475 9.91975,9.18475 9.92325,9.1865 C10.1315,9.34225 10.35725,9.47175 10.6005,9.57325 C10.99075,9.73775 11.4055,9.82 11.8325,9.82 C12.2595,9.82 12.6725,9.73775 13.0645,9.57325 C13.117,9.5505 13.1695,9.52775 13.222,9.50325 L13.222,13.74175 L13.215,13.74175 Z M13.74,6.66475 C13.74,7.71125 12.8825,8.56 11.82725,8.56 C11.11325,8.56 10.49025,8.17325 10.16125,7.59925 C10.1105,7.51175 10.0195,7.4575 9.918,7.4575 L9.9075,7.4575 C9.80775,7.4575 9.715,7.51175 9.66425,7.59925 C9.337,8.17325 8.714,8.56 8,8.56 C7.28775,8.56 6.6665,8.175 6.3375,7.60275 C6.285,7.5135 6.1905,7.4575 6.08725,7.4575 C5.984,7.4575 5.88775,7.5135 5.837,7.60275 C5.50625,8.175 4.885,8.56 4.17275,8.56 C3.1175,8.56 2.26,7.71125 2.26,6.66475 L2.26,5.06875 C2.26,5.0635 2.2635,5.06 2.26875,5.06 L13.73125,5.06 C13.7365,5.06 13.74,5.0635 13.74,5.06875 L13.74,6.66475 L13.74,6.66475 Z" id="形状"></path>
            </g>
        </g>
    </g>
</svg>