<?xml version="1.0" encoding="UTF-8"?>
<svg width="16px" height="16px" viewBox="0 0 16 16" version="1.1" xmlns="http://www.w3.org/2000/svg" xmlns:xlink="http://www.w3.org/1999/xlink">
    <title>p-shopping</title>
    <g id="页面-1" stroke="none" stroke-width="1" fill="none" fill-rule="evenodd">
        <g id="画板" transform="translate(-216.000000, -1343.000000)" fill="#000000" fill-rule="nonzero">
            <g id="p-shopping" transform="translate(216.000000, 1343.000000)">
                <rect id="矩形" opacity="0" x="0" y="0" width="16" height="16"></rect>
                <path d="M13.6,4.5 L11.22,4.5 L11.22,4.22 C11.22,2.442 9.778,1 8,1 C6.222,1 4.78,2.442 4.78,4.22 L4.78,4.5 L2.4,4.5 C2.09025,4.5 1.84,4.75025 1.84,5.06 L1.84,14.44 C1.84,14.74975 2.09025,15 2.4,15 L13.6,15 C13.90975,15 14.16,14.74975 14.16,14.44 L14.16,5.06 C14.16,4.75025 13.90975,4.5 13.6,4.5 Z M6.04,4.22 C6.04,3.13675 6.91675,2.26 8,2.26 C9.08325,2.26 9.96,3.13675 9.96,4.22 L9.96,4.5 L6.04,4.5 L6.04,4.22 Z M12.9,13.74 L3.1,13.74 L3.1,5.76 L4.78,5.76 L4.78,7.3 C4.78,7.377 4.843,7.44 4.92,7.44 L5.9,7.44 C5.977,7.44 6.04,7.377 6.04,7.3 L6.04,5.76 L9.96,5.76 L9.96,7.3 C9.96,7.377 10.023,7.44 10.1,7.44 L11.08,7.44 C11.157,7.44 11.22,7.377 11.22,7.3 L11.22,5.76 L12.9,5.76 L12.9,13.74 Z" id="形状"></path>
            </g>
        </g>
    </g>
</svg>