<?xml version="1.0" encoding="UTF-8"?>
<svg width="16px" height="16px" viewBox="0 0 16 16" version="1.1" xmlns="http://www.w3.org/2000/svg" xmlns:xlink="http://www.w3.org/1999/xlink">
    <title>p-shake</title>
    <g id="页面-1" stroke="none" stroke-width="1" fill="none" fill-rule="evenodd">
        <g id="画板" transform="translate(-178.000000, -1253.000000)" fill="#000000" fill-rule="nonzero">
            <g id="p-shake" transform="translate(178.000000, 1253.000000)">
                <rect id="矩形" opacity="0" x="0" y="0" width="16" height="16"></rect>
                <path d="M5.0625,10.40625 C5.0625,10.8204636 5.39828644,11.15625 5.8125,11.15625 C6.22671356,11.15625 6.5625,10.8204636 6.5625,10.40625 C6.5625,9.99203644 6.22671356,9.65625 5.8125,9.65625 C5.39828644,9.65625 5.0625,9.99203644 5.0625,10.40625 Z M14.6984375,5.56875 L10.43125,1.3 C10.2375,1.1078125 9.9796875,1 9.7046875,1 C9.4296875,1 9.171875,1.10625 8.978125,1.3 L1.3015625,8.9765625 C0.9,9.378125 0.9,10.0296875 1.3015625,10.43125 L5.5703125,14.7 C5.7625,14.8921875 6.021875,15 6.296875,15 C6.571875,15 6.8296875,14.89375 7.0234375,14.7 L14.7,7.0234375 C15.1,6.621875 15.1,5.96875 14.6984375,5.56875 Z M6.296875,13.7515625 L2.2484375,9.703125 L9.7046875,2.246875 L13.7515625,6.296875 L6.296875,13.7515625 Z M2.3875,5.8390625 C2.4359375,5.8875 2.5140625,5.8875 2.5625,5.8390625 L5.8390625,2.5625 C5.8875,2.5140625 5.8875,2.4359375 5.8390625,2.3875 L5.2390625,1.7875 C5.190625,1.7390625 5.1125,1.7390625 5.0640625,1.7875 L1.7859375,5.0609375 C1.7375,5.109375 1.7375,5.1875 1.7859375,5.2359375 L2.3875,5.8390625 Z M13.615625,10.1609375 C13.5671875,10.1125 13.4890625,10.1125 13.440625,10.1609375 L10.1609375,13.4390625 C10.1125,13.4875 10.1125,13.565625 10.1609375,13.6140625 L10.7609375,14.2140625 C10.809375,14.2625 10.8875,14.2625 10.9359375,14.2140625 L14.2140625,10.9375 C14.2625,10.8890625 14.2625,10.8109375 14.2140625,10.7625 L13.615625,10.1609375 L13.615625,10.1609375 Z" id="形状"></path>
            </g>
        </g>
    </g>
</svg>