<?xml version="1.0" encoding="UTF-8"?>
<svg width="16px" height="16px" viewBox="0 0 16 16" version="1.1" xmlns="http://www.w3.org/2000/svg" xmlns:xlink="http://www.w3.org/1999/xlink">
    <title>p-skin</title>
    <g id="页面-1" stroke="none" stroke-width="1" fill="none" fill-rule="evenodd">
        <g id="画板" transform="translate(-253.000000, -1343.000000)" fill="#000000" fill-rule="nonzero">
            <g id="p-skin" transform="translate(253.000000, 1343.000000)">
                <rect id="矩形" opacity="0" x="0" y="0" width="16" height="16"></rect>
                <path d="M14.2338308,1.28 L10.6432836,1.28 C10.3402985,1.28 10.070398,1.48721393 9.99900498,1.790199 C9.78134328,2.70960199 8.95771144,3.36955224 8,3.36955224 C7.04228856,3.36955224 6.21865672,2.70960199 6.00099502,1.790199 C5.92960199,1.48721393 5.66144279,1.28 5.35671642,1.28 L1.76616915,1.28 C1.34303483,1.28 1,1.62303483 1,2.04616915 L1,6.43422886 C1,6.85736318 1.34303483,7.20039801 1.76616915,7.20039801 L3.0721393,7.20039801 L3.0721393,13.9566169 C3.0721393,14.3797512 3.41517413,14.7227861 3.83830846,14.7227861 L12.1616915,14.7227861 C12.5848259,14.7227861 12.9278607,14.3797512 12.9278607,13.9566169 L12.9278607,7.20039801 L14.2338308,7.20039801 C14.6569652,7.20039801 15,6.85736318 15,6.43422886 L15,2.04616915 C15,1.62303483 14.6569652,1.28 14.2338308,1.28 Z M13.7462687,5.94666667 L11.6741294,5.94666667 L11.6741294,13.4690547 L4.32587065,13.4690547 L4.32587065,5.94666667 L2.25373134,5.94666667 L2.25373134,2.53373134 L4.92313433,2.53373134 C5.4141791,3.77353234 6.62089552,4.62328358 8,4.62328358 C9.37910448,4.62328358 10.5858209,3.77353234 11.0768657,2.53373134 L13.7462687,2.53373134 L13.7462687,5.94666667 Z" id="形状"></path>
            </g>
        </g>
    </g>
</svg>