<?xml version="1.0" encoding="UTF-8"?>
<svg width="16px" height="16px" viewBox="0 0 16 16" version="1.1" xmlns="http://www.w3.org/2000/svg" xmlns:xlink="http://www.w3.org/1999/xlink">
    <title>p-sliders</title>
    <g id="页面-1" stroke="none" stroke-width="1" fill="none" fill-rule="evenodd">
        <g id="画板" transform="translate(-289.000000, -1343.000000)" fill="#000000" fill-rule="nonzero">
            <g id="p-sliders" transform="translate(289.000000, 1343.000000)">
                <rect id="矩形" opacity="0" x="0" y="0" width="16" height="16"></rect>
                <path d="M4.64,2.96 L3.485,2.96 L3.485,1.98 C3.485,1.903 3.422,1.84 3.345,1.84 L2.435,1.84 C2.358,1.84 2.295,1.903 2.295,1.98 L2.295,2.96 L1.14,2.96 C1.063,2.96 1,3.023 1,3.1 L1,12.9 C1,12.977 1.063,13.04 1.14,13.04 L2.295,13.04 L2.295,14.02 C2.295,14.097 2.358,14.16 2.435,14.16 L3.345,14.16 C3.422,14.16 3.485,14.097 3.485,14.02 L3.485,13.04 L4.64,13.04 C4.717,13.04 4.78,12.977 4.78,12.9 L4.78,3.1 C4.78,3.023 4.717,2.96 4.64,2.96 Z M3.59,11.85 L2.19,11.85 L2.19,4.15 L3.59,4.15 L3.59,11.85 Z M14.86,4.22 L13.705,4.22 L13.705,2.54 C13.705,2.463 13.642,2.4 13.565,2.4 L12.655,2.4 C12.578,2.4 12.515,2.463 12.515,2.54 L12.515,4.22 L11.36,4.22 C11.283,4.22 11.22,4.283 11.22,4.36 L11.22,11.64 C11.22,11.717 11.283,11.78 11.36,11.78 L12.515,11.78 L12.515,13.46 C12.515,13.537 12.578,13.6 12.655,13.6 L13.565,13.6 C13.642,13.6 13.705,13.537 13.705,13.46 L13.705,11.78 L14.86,11.78 C14.937,11.78 15,11.717 15,11.64 L15,4.36 C15,4.283 14.937,4.22 14.86,4.22 Z M13.81,10.59 L12.41,10.59 L12.41,5.41 L13.81,5.41 L13.81,10.59 Z M9.75,6.11 L8.595,6.11 L8.595,3.1 C8.595,3.023 8.532,2.96 8.455,2.96 L7.545,2.96 C7.468,2.96 7.405,3.023 7.405,3.1 L7.405,6.11 L6.25,6.11 C6.173,6.11 6.11,6.173 6.11,6.25 L6.11,9.75 C6.11,9.827 6.173,9.89 6.25,9.89 L7.405,9.89 L7.405,12.9 C7.405,12.977 7.468,13.04 7.545,13.04 L8.455,13.04 C8.532,13.04 8.595,12.977 8.595,12.9 L8.595,9.89 L9.75,9.89 C9.827,9.89 9.89,9.827 9.89,9.75 L9.89,6.25 C9.89,6.173 9.827,6.11 9.75,6.11 Z M8.7,8.6475 C8.7,8.6755 8.67725,8.7 8.6475,8.7 L7.3525,8.7 C7.3245,8.7 7.3,8.67725 7.3,8.6475 L7.3,7.3525 C7.3,7.3245 7.32275,7.3 7.3525,7.3 L8.6475,7.3 C8.6755,7.3 8.7,7.32275 8.7,7.3525 L8.7,8.6475 Z" id="形状"></path>
            </g>
        </g>
    </g>
</svg>