<?xml version="1.0" encoding="UTF-8"?>
<svg width="16px" height="16px" viewBox="0 0 16 16" version="1.1" xmlns="http://www.w3.org/2000/svg" xmlns:xlink="http://www.w3.org/1999/xlink">
    <title>p-snippets</title>
    <g id="页面-1" stroke="none" stroke-width="1" fill="none" fill-rule="evenodd">
        <g id="画板" transform="translate(-361.000000, -1343.000000)" fill="#000000" fill-rule="nonzero">
            <g id="p-snippets" transform="translate(361.000000, 1343.000000)">
                <rect id="矩形" opacity="0" x="0" y="0" width="16" height="16"></rect>
                <path d="M13,1.75 L11.3125,1.75 L11.3125,1.125 C11.3125,1.05625 11.25625,1 11.1875,1 L10.3125,1 C10.24375,1 10.1875,1.05625 10.1875,1.125 L10.1875,1.75 L7.8125,1.75 L7.8125,1.125 C7.8125,1.05625 7.75625,1 7.6875,1 L6.8125,1 C6.74375,1 6.6875,1.05625 6.6875,1.125 L6.6875,1.75 L5,1.75 C4.7234375,1.75 4.5,1.9734375 4.5,2.25 L4.5,4.125 L3,4.125 C2.7234375,4.125 2.5,4.3484375 2.5,4.625 L2.5,14.5 C2.5,14.7765625 2.7234375,15 3,15 L11,15 C11.2765625,15 11.5,14.7765625 11.5,14.5 L11.5,13 L13,13 C13.2765625,13 13.5,12.7765625 13.5,12.5 L13.5,2.25 C13.5,1.9734375 13.2765625,1.75 13,1.75 Z M10.375,13.875 L3.625,13.875 L3.625,5.25 L7.03125,5.25 L7.03125,7.96875 C7.03125,8.3140625 7.3109375,8.59375 7.65625,8.59375 L10.375,8.59375 L10.375,13.875 Z M10.375,7.59375 L8.03125,7.59375 L8.03125,5.25 L8.034375,5.25 L10.375,7.590625 L10.375,7.59375 Z M12.375,11.875 L11.5,11.875 L11.5,7.125 L8.5,4.125 L5.625,4.125 L5.625,2.875 L6.6875,2.875 L6.6875,3.375 C6.6875,3.44375 6.74375,3.5 6.8125,3.5 L7.6875,3.5 C7.75625,3.5 7.8125,3.44375 7.8125,3.375 L7.8125,2.875 L10.1875,2.875 L10.1875,3.375 C10.1875,3.44375 10.24375,3.5 10.3125,3.5 L11.1875,3.5 C11.25625,3.5 11.3125,3.44375 11.3125,3.375 L11.3125,2.875 L12.375,2.875 L12.375,11.875 Z" id="形状"></path>
            </g>
        </g>
    </g>
</svg>