<?xml version="1.0" encoding="UTF-8"?>
<svg width="16px" height="16px" viewBox="0 0 16 16" version="1.1" xmlns="http://www.w3.org/2000/svg" xmlns:xlink="http://www.w3.org/1999/xlink">
    <title>p-sort-ascending</title>
    <g id="页面-1" stroke="none" stroke-width="1" fill="none" fill-rule="evenodd">
        <g id="画板" transform="translate(-239.000000, -1885.000000)">
            <g id="p-sort-ascending" transform="translate(239.000000, 1885.000000)">
                <rect id="矩形" fill="#D8D8D8" opacity="0" x="0" y="0" width="16" height="16"></rect>
                <path d="M4.67982026,1.38536674 L4.679,11.6033667 L6.21451109,11.6037126 C6.28078526,11.6037126 6.33451109,11.6574385 6.33451109,11.7237126 C6.33451109,11.7506551 6.3254443,11.7768137 6.30877047,11.7979768 L4.1378677,14.5533824 C4.09685272,14.6054405 4.02140215,14.6143926 3.96934413,14.5733776 L3.94934893,14.5533824 L3.94934893,14.5533824 L1.77844616,11.7979768 C1.73743118,11.7459188 1.74638334,11.6704682 1.79844136,11.6294533 C1.81960451,11.6127794 1.84576309,11.6037126 1.87270554,11.6037126 L3.407,11.6033667 L3.40739637,1.38536674 L4.67982026,1.38536674 Z M13.5471722,8.72040629 C13.6134464,8.72039307 13.667176,8.77411508 13.6671807,8.84038925 L13.6671722,9.72563888 C13.6671722,9.75045794 13.6594767,9.77466644 13.6451455,9.79492982 L11.1536457,13.3177631 L13.6855774,13.3185417 C13.7518371,13.318599 13.8055405,13.3723189 13.8055774,13.4385786 L13.8055774,14.4710025 C13.8055952,14.5240219 13.7712142,14.5690103 13.7235287,14.5848848 L13.6855774,14.5909803 L13.6855774,14.5909803 L9.52063708,14.5902092 C9.45437159,14.5901747 9.4006593,14.5364525 9.40063708,14.470187 L9.40063708,13.630946 C9.40063708,13.6061288 9.40833155,13.5819219 9.42266077,13.5616594 L11.9464636,9.99282165 L9.55484316,9.99310768 C9.50182383,9.99312551 9.45683132,9.95874865 9.44095103,9.91106482 L9.43484316,9.87312204 L9.43484316,9.87312204 L9.43484316,8.84069815 C9.43485168,8.77442731 9.48857232,8.72070286 9.55484316,8.72068964 L13.5471722,8.72040629 Z M12.3541519,1.39 C12.3997152,1.39 12.4413787,1.41203896 12.4672357,1.4474486 L12.4873829,1.48699408 L14.2446491,6.93094928 C14.2491342,6.94484392 14.2514181,6.95935463 14.2514181,6.9739552 C14.2514181,7.03581109 14.2113028,7.08829756 14.155669,7.10681791 L14.1114181,7.1139552 L12.841615,7.1139552 C12.7932933,7.1139552 12.7496508,7.08922094 12.724352,7.05046089 L12.705674,7.00742218 L12.4176755,5.84 L10.6736755,5.84 L10.3783744,7.00828779 C10.3665855,7.05489213 10.3321888,7.09102788 10.2886867,7.10618298 L10.2426494,7.1139552 L9.07681821,7.1139552 C9.06225767,7.1139552 9.04778625,7.11168375 9.0339259,7.10722279 C8.97504458,7.08827177 8.93737238,7.03400511 8.93678741,6.97537243 L8.94355063,6.93106289 L10.6956933,1.48710769 C10.7096628,1.44370407 10.7434438,1.41078281 10.7851092,1.3970349 L10.8289608,1.39 L12.3541519,1.39 Z M11.6229505,2.60945939 L11.4910891,2.60945939 L10.9206755,4.861 L12.1766755,4.861 L11.6229505,2.60945939 Z" id="形状结合" fill="#000000"></path>
            </g>
        </g>
    </g>
</svg>