<?xml version="1.0" encoding="UTF-8"?>
<svg width="16px" height="16px" viewBox="0 0 16 16" version="1.1" xmlns="http://www.w3.org/2000/svg" xmlns:xlink="http://www.w3.org/1999/xlink">
    <title>p-sound</title>
    <g id="页面-1" stroke="none" stroke-width="1" fill="none" fill-rule="evenodd">
        <g id="画板" transform="translate(-397.000000, -1343.000000)" fill="#000000" fill-rule="nonzero">
            <g id="p-sound" transform="translate(397.000000, 1343.000000)">
                <rect id="矩形" opacity="0" x="0" y="0" width="16" height="16"></rect>
                <path d="M9.82031963,1.796875 C9.7260274,1.796875 9.63013699,1.82244578 9.54223744,1.8815782 L3.87671233,5.58454623 L1.25570776,5.58454623 C1.11506849,5.58454623 1,5.69961473 1,5.840254 L1,10.4429937 C1,10.583633 1.11506849,10.6987015 1.25570776,10.6987015 L3.87671233,10.6987015 L9.54223744,14.4016695 C9.63013699,14.4592038 9.72762557,14.4863727 9.82031963,14.4863727 C10.0872146,14.4863727 10.3333333,14.2738156 10.3333333,13.973359 L10.3333333,2.3098887 C10.3333333,2.00943208 10.0872146,1.796875 9.82031963,1.796875 Z M9.1826484,12.7923088 L4.50639269,9.73500285 L4.21872146,9.54801655 L2.15068493,9.54801655 L2.15068493,6.73523116 L4.21872146,6.73523116 L4.50479452,6.54824486 L9.1826484,3.49093893 L9.1826484,12.7923088 Z M14.7442922,7.56628139 L12.6986301,7.56628139 C12.5579909,7.56628139 12.4429224,7.68134989 12.4429224,7.82198916 L12.4429224,8.46125856 C12.4429224,8.60189783 12.5579909,8.71696632 12.6986301,8.71696632 L14.7442922,8.71696632 C14.8849315,8.71696632 15,8.60189783 15,8.46125856 L15,7.82198916 C15,7.68134989 14.8849315,7.56628139 14.7442922,7.56628139 Z M14.0746575,11.7502997 L12.3118721,10.7322631 C12.2719178,10.7098887 12.2287671,10.6987015 12.1856164,10.6987015 C12.0977169,10.6987015 12.0114155,10.7450485 11.9650685,10.8265554 L11.647032,11.3779252 C11.5767123,11.4993864 11.6182648,11.6560074 11.739726,11.7263271 L13.5025114,12.7443636 C13.5424658,12.766738 13.5856164,12.7779252 13.6287671,12.7779252 C13.7166667,12.7779252 13.802968,12.7315782 13.8493151,12.6500713 L14.1673516,12.0987015 C14.2376712,11.9772403 14.1945205,11.8206193 14.0746575,11.7502997 L14.0746575,11.7502997 Z M11.9634703,5.45669235 C12.0098174,5.5381992 12.0961187,5.58454623 12.1840183,5.58454623 C12.2271689,5.58454623 12.2703196,5.57335902 12.310274,5.55098459 L14.0730594,4.53294806 C14.1945205,4.46262842 14.2360731,4.30600742 14.1657534,4.18454623 L13.8493151,3.63477454 C13.802968,3.55326769 13.7166667,3.50692066 13.6287671,3.50692066 C13.5856164,3.50692066 13.5424658,3.51810788 13.5025114,3.54048231 L11.739726,4.55851884 C11.6182648,4.62883847 11.5767123,4.78545947 11.647032,4.90692066 L11.9634703,5.45669235 Z" id="形状"></path>
            </g>
        </g>
    </g>
</svg>