<?xml version="1.0" encoding="UTF-8"?>
<svg width="16px" height="16px" viewBox="0 0 16 16" version="1.1" xmlns="http://www.w3.org/2000/svg" xmlns:xlink="http://www.w3.org/1999/xlink">
    <title>p-solution</title>
    <g id="页面-1" stroke="none" stroke-width="1" fill="none" fill-rule="evenodd">
        <g id="画板" transform="translate(-210.000000, -1839.000000)">
            <g id="p-solution" transform="translate(210.000000, 1839.000000)">
                <rect id="矩形" fill="#D8D8D8" opacity="0" x="0" y="0" width="16" height="16"></rect>
                <path d="M13.1756595,1 C13.4518019,1 13.6756595,1.22385763 13.6756595,1.5 L13.6756595,7.67267244 C13.6756595,7.75551515 13.6085022,7.82267244 13.5256595,7.82267244 L12.6600448,7.82267244 C12.5772026,7.82267099 12.5100456,7.75551458 12.5100434,7.67267244 L12.5099904,2.16561089 L3.46482035,2.16561089 L3.46482035,13.4788728 L7.04010264,13.4796957 C7.12293186,13.4797492 7.19006811,13.5469009 7.19010264,13.6297302 L7.19010264,14.4953449 C7.19010264,14.5781876 7.12294535,14.6453449 7.04010264,14.6453449 L2.8,14.6453449 C2.52385763,14.6453449 2.3,14.4214872 2.3,14.1453449 L2.3,1.5 C2.3,1.22385763 2.52385763,1 2.8,1 L13.1756595,1 Z M7.83782975,8.5 C7.92067246,8.5 7.98782975,8.56715729 7.98782975,8.65 L7.98782975,9.41848013 C7.98782975,9.50132285 7.92067246,9.56848013 7.83782975,9.56848013 L4.89439785,9.56848013 C4.81155513,9.56848013 4.74439785,9.50132285 4.74439785,9.41848013 L4.74439785,8.65 C4.74439785,8.56715729 4.81155513,8.5 4.89439785,8.5 L7.83782975,8.5 Z M11.0143978,6.12786803 C11.0972406,6.12786803 11.1643978,6.19502532 11.1643978,6.27786803 L11.1643978,7.04634816 C11.1643978,7.12919088 11.0972406,7.19634816 11.0143978,7.19634816 L4.89439785,7.19634816 C4.81155513,7.19634816 4.74439785,7.12919088 4.74439785,7.04634816 L4.74439785,6.27786803 C4.74439785,6.19502532 4.81155513,6.12786803 4.89439785,6.12786803 L11.0143978,6.12786803 Z M11.0150392,3.76269614 C11.0978819,3.76269614 11.1650392,3.82985342 11.1650392,3.91269614 L11.1650392,4.68117627 C11.1650392,4.76401898 11.0978819,4.83117627 11.0150392,4.83117627 L4.89439785,4.83117627 C4.81155513,4.83117627 4.74439785,4.76401898 4.74439785,4.68117627 L4.74439785,3.91269614 C4.74439785,3.82985342 4.81155513,3.76269614 4.89439785,3.76269614 L11.0150392,3.76269614 Z" id="形状结合" fill="#000000" fill-rule="nonzero"></path>
                <g id="编组" transform="translate(8.104491, 8.400000)" fill="#000000" fill-rule="nonzero">
                    <path d="M3.19550912,0 C4.15466057,0 5.01178965,0.598827699 5.34173119,1.4994442 C5.67167273,2.4000607 5.40423673,3.41087367 4.67208055,4.03048551 C5.73106606,4.58127297 6.39550912,5.6756856 6.39550912,6.86934265 L6.389,6.699 L5.47502171,6.69967741 C5.39199833,5.56817519 4.485271,4.66552877 3.35200315,4.58890157 L3.19550912,4.58362836 C1.99021169,4.58362836 1.00280834,5.51654386 0.915996539,6.69967741 L3.11135666e-14,6.69954333 C0.0596840684,5.57268854 0.710380064,4.555045 1.71893769,4.03048551 C0.986781512,3.41087367 0.719345518,2.4000607 1.04928706,1.4994442 C1.3792286,0.598827699 2.23635767,0 3.19550912,0 Z M3.19550912,0.926485506 C2.43809004,0.926485506 1.82408055,1.54049499 1.82408055,2.29791408 C1.82408055,3.05533316 2.43809004,3.66934265 3.19550912,3.66934265 C3.95292821,3.66934265 4.56693769,3.05533316 4.56693769,2.29791408 C4.56693769,1.54049499 3.95292821,0.926485506 3.19550912,0.926485506 Z" id="形状结合"></path>
                </g>
            </g>
        </g>
    </g>
</svg>