<?xml version="1.0" encoding="UTF-8"?>
<svg width="16px" height="16px" viewBox="0 0 16 16" version="1.1" xmlns="http://www.w3.org/2000/svg" xmlns:xlink="http://www.w3.org/1999/xlink">
    <title>p-stop</title>
    <g id="页面-1" stroke="none" stroke-width="1" fill="none" fill-rule="evenodd">
        <g id="画板" transform="translate(-579.000000, -1343.000000)" fill="#000000" fill-rule="nonzero">
            <g id="p-stop" transform="translate(579.000000, 1343.000000)">
                <rect id="矩形" opacity="0" x="0" y="0" width="16" height="16"></rect>
                <path d="M8,1 C11.8656286,1 15,4.13437135 15,8 C15,11.8656286 11.8656286,15 8,15 C4.13437135,15 1,11.8656286 1,8 C1,4.13437135 4.13437135,1 8,1 Z M3.54257426,4.47128713 L3.42034606,4.63069159 C2.70736405,5.59712735 2.31435644,6.76891406 2.31435644,8 C2.31435644,11.1393218 4.86067815,13.6856436 8,13.6856436 C9.23108594,13.6856436 10.4028727,13.292636 11.3693084,12.5796539 L11.5277228,12.4564356 L3.54257426,4.47128713 Z M8,2.31435644 C6.76891406,2.31435644 5.59712735,2.70736405 4.63069159,3.42034606 L4.47128713,3.54257426 L12.4564356,11.5277228 L12.5796539,11.3693084 C13.2377912,10.4772139 13.6232875,9.41014572 13.6787003,8.28297763 L13.6856436,8 C13.6856436,4.86067815 11.1393218,2.31435644 8,2.31435644 Z" id="形状"></path>
            </g>
        </g>
    </g>
</svg>