<?xml version="1.0" encoding="UTF-8"?>
<svg width="16px" height="16px" viewBox="0 0 16 16" version="1.1" xmlns="http://www.w3.org/2000/svg" xmlns:xlink="http://www.w3.org/1999/xlink">
    <title>p-step-forward</title>
    <g id="页面-1" stroke="none" stroke-width="1" fill="none" fill-rule="evenodd">
        <g id="画板" transform="translate(-503.000000, -1343.000000)" fill="#000000" fill-rule="nonzero">
            <g id="p-step-forward" transform="translate(511.000000, 1351.000000) scale(-1, 1) translate(-511.000000, -1351.000000) translate(503.000000, 1343.000000)">
                <rect id="矩形" opacity="0" x="0" y="0" width="16" height="16"></rect>
                <path d="M4.73163921,8.33707386 L12.3522926,14.3233465 C12.6356533,14.5459147 13.0522727,14.3453011 13.0522727,13.9862727 L13.0522727,2.0136875 C13.0522727,1.65473864 12.6356533,1.45408523 12.3522926,1.67665341 L4.73163921,7.66290624 C4.51269035,7.83492329 4.51269035,8.1650767 4.73163921,8.33707386 M4.38181818,15 L3.10909091,15 C3.02122743,15 2.95,14.9287726 2.95,14.8409091 L2.95,1.15909091 C2.95,1.07122743 3.02122743,1 3.10909091,1 L4.38181818,1 C4.46968166,1 4.54090909,1.07122743 4.54090909,1.15909091 L4.54090909,14.8409091 C4.54090909,14.9287726 4.46968166,15 4.38181818,15" id="形状"></path>
            </g>
        </g>
    </g>
</svg>