<?xml version="1.0" encoding="UTF-8"?>
<svg width="16px" height="16px" viewBox="0 0 16 16" version="1.1" xmlns="http://www.w3.org/2000/svg" xmlns:xlink="http://www.w3.org/1999/xlink">
    <title>p-stock</title>
    <g id="页面-1" stroke="none" stroke-width="1" fill="none" fill-rule="evenodd">
        <g id="画板" transform="translate(-542.000000, -1343.000000)" fill="#000000" fill-rule="nonzero">
            <g id="p-stock" transform="translate(542.000000, 1343.000000)">
                <rect id="矩形" opacity="0" x="0" y="0" width="16" height="16"></rect>
                <path d="M14.86,12.0776875 L1.14,12.0776875 C1.063,12.0776875 1,12.1406875 1,12.2176875 L1,13.1976875 C1,13.2746875 1.063,13.3376875 1.14,13.3376875 L14.86,13.3376875 C14.937,13.3376875 15,13.2746875 15,13.1976875 L15,12.2176875 C15,12.1406875 14.937,12.0776875 14.86,12.0776875 Z M1.93975,9.8866875 L2.6345,10.5779375 C2.68875,10.6321875 2.778,10.6321875 2.83225,10.5779375 L6.9395,6.4846875 L8.6475,8.1874375 C8.86625,8.4044375 9.21975,8.4044375 9.4385,8.1874375 L14.062,3.5814375 C14.11625,3.5271875 14.11625,3.4379375 14.062,3.3836875 L13.36725,2.6906875 C13.313,2.6364375 13.22375,2.6364375 13.1695,2.6906875 L9.04475,6.8031875 L7.335,5.1004375 C7.11625,4.8834375 6.76275,4.8834375 6.544,5.1004375 L1.93975,9.6889375 C1.8855,9.7431875 1.88375,9.8324375 1.93975,9.8866875 Z" id="形状"></path>
            </g>
        </g>
    </g>
</svg>