<?xml version="1.0" encoding="UTF-8"?>
<svg width="16px" height="16px" viewBox="0 0 16 16" version="1.1" xmlns="http://www.w3.org/2000/svg" xmlns:xlink="http://www.w3.org/1999/xlink">
    <title>p-strikethrough</title>
    <g id="页面-1" stroke="none" stroke-width="1" fill="none" fill-rule="evenodd">
        <g id="画板" transform="translate(-615.000000, -1343.000000)" fill="#000000" fill-rule="nonzero">
            <g id="p-strikethrough" transform="translate(615.000000, 1343.000000)">
                <rect id="矩形" opacity="0" x="0" y="0" width="16" height="16"></rect>
                <path d="M14.875,7.40625 L8.9046875,7.40625 C8.7484375,7.375 8.584375,7.34375 8.4109375,7.3125 C8.1625,7.2671875 8.0640625,7.2484375 7.9296875,7.221875 C7.128125,7.065625 6.6453125,6.909375 6.2609375,6.6875 C5.7125,6.3671875 5.4453125,5.9328125 5.4453125,5.3578125 C5.4453125,4.7796875 5.6828125,4.3 6.1328125,3.9671875 C6.5765625,3.6390625 7.2078125,3.465625 7.9578125,3.465625 C8.8140625,3.465625 9.475,3.690625 9.9234375,4.134375 C10.1515625,4.359375 10.31875,4.6359375 10.4203125,4.95625 C10.440625,5.0203125 10.4640625,5.1125 10.4875,5.234375 C10.5015625,5.309375 10.56875,5.3625 10.6421875,5.3625 L11.7796875,5.3625 C11.8671875,5.3625 11.9375,5.290625 11.9375,5.2046875 L11.9375,5.1890625 C11.9265625,5.0828125 11.9171875,5 11.90625,4.9390625 C11.7921875,4.259375 11.46875,3.6625 10.9734375,3.215625 C10.2796875,2.5828125 9.259375,2.25 8.025,2.25 C6.8953125,2.25 5.878125,2.5328125 5.1609375,3.0453125 C4.7609375,3.3328125 4.4515625,3.6890625 4.2453125,4.103125 C4.034375,4.5265625 3.928125,5.015625 3.928125,5.5546875 C3.928125,6.015625 4.0171875,6.40625 4.1984375,6.75 C4.328125,6.9953125 4.5046875,7.2109375 4.73125,7.40625 L1.125,7.40625 C1.05625,7.40625 1,7.4625 1,7.53125 L1,8.46875 C1,8.5375 1.05625,8.59375 1.125,8.59375 L7.89375,8.59375 C7.9265625,8.6 7.9546875,8.60625 7.9859375,8.6125 C8.46875,8.709375 8.759375,8.775 9.0265625,8.85 C9.3859375,8.9515625 9.6609375,9.0578125 9.8890625,9.1859375 C10.4484375,9.5015625 10.721875,9.9546875 10.721875,10.5765625 C10.721875,11.128125 10.4796875,11.6203125 10.040625,11.9640625 C9.5640625,12.3375 8.859375,12.5328125 8.0015625,12.5328125 C7.31875,12.5328125 6.740625,12.4 6.2796875,12.1421875 C5.825,11.8875 5.5125,11.5203125 5.346875,11.05625 C5.334375,11.021875 5.3203125,10.975 5.3046875,10.915625 C5.2859375,10.846875 5.221875,10.7984375 5.153125,10.7984375 L3.9078125,10.7984375 C3.8203125,10.7984375 3.75,10.8703125 3.75,10.95625 L3.75,10.971875 C3.753125,11.0078125 3.75625,11.0375 3.759375,11.0609375 C3.8609375,11.8234375 4.2328125,12.4484375 4.8640625,12.9171875 C5.6,13.4609375 6.6359375,13.7484375 7.8609375,13.7484375 C9.1765625,13.7484375 10.2796875,13.4390625 11.0515625,12.853125 C11.4421875,12.5578125 11.7421875,12.19375 11.94375,11.775 C12.146875,11.3515625 12.2515625,10.8703125 12.2515625,10.3453125 C12.2515625,9.8484375 12.1609375,9.4328125 11.9734375,9.0734375 C11.8828125,8.8984375 11.76875,8.7375 11.6328125,8.5921875 L14.875,8.5921875 C14.94375,8.5921875 15,8.5359375 15,8.4671875 L15,7.5296875 C15,7.4625 14.94375,7.40625 14.875,7.40625 L14.875,7.40625 Z" id="路径"></path>
            </g>
        </g>
    </g>
</svg>