<?xml version="1.0" encoding="UTF-8"?>
<svg width="16px" height="16px" viewBox="0 0 16 16" version="1.1" xmlns="http://www.w3.org/2000/svg" xmlns:xlink="http://www.w3.org/1999/xlink">
    <title>p-star</title>
    <g id="页面-1" stroke="none" stroke-width="1" fill="none" fill-rule="evenodd">
        <g id="画板" transform="translate(-434.000000, -1343.000000)" fill="#000000" fill-rule="nonzero">
            <g id="p-star" transform="translate(434.000000, 1343.000000)">
                <rect id="矩形" opacity="0" x="0" y="0" width="16" height="16"></rect>
                <path d="M14.5475045,6.01771193 L10.3505716,5.40775988 L8.47443179,1.60423773 C8.42318921,1.50009958 8.33888689,1.41579726 8.23474874,1.36455468 C7.97357685,1.23562172 7.65620343,1.34306585 7.52561749,1.60423773 L5.64947771,5.40775988 L1.45254475,6.01771193 C1.33683569,6.0342418 1.23104455,6.08879035 1.1500482,6.17143968 C0.946730854,6.38136898 0.950036827,6.71527227 1.15996612,6.92024261 L4.19650249,9.8807416 L3.47910631,14.0611447 C3.45927047,14.1752008 3.47745333,14.2942158 3.53200188,14.396701 C3.66754678,14.6545669 3.98822618,14.7553991 4.24609209,14.6182012 L8.00002464,12.6445352 L11.7539572,14.6182012 C11.8564424,14.6727497 11.9754574,14.6909326 12.0895135,14.6710967 C12.3771331,14.6215071 12.5705326,14.3487644 12.520943,14.0611447 L11.8035468,9.8807416 L14.8400832,6.92024261 C14.9227325,6.83924627 14.977281,6.73345513 14.9938109,6.61774606 C15.0384415,6.32847341 14.8367772,6.06068958 14.5475045,6.01771193 Z M10.5257882,9.46418897 L11.1225163,12.9404198 L8.00002464,11.3006571 L4.87753297,12.9420728 L5.47426113,9.46584196 L2.94849762,7.00289194 L6.4396053,6.49542506 L8.00002464,3.33326171 L9.56044398,6.49542506 L13.0515517,7.00289194 L10.5257882,9.46418897 Z" id="形状"></path>
            </g>
        </g>
    </g>
</svg>