<?xml version="1.0" encoding="UTF-8"?>
<svg width="16px" height="16px" viewBox="0 0 16 16" version="1.1" xmlns="http://www.w3.org/2000/svg" xmlns:xlink="http://www.w3.org/1999/xlink">
    <title>p-switch-user</title>
    <g id="页面-1" stroke="none" stroke-width="1" fill="none" fill-rule="evenodd">
        <g id="画板" transform="translate(-651.000000, -1343.000000)" fill="#000000" fill-rule="nonzero">
            <g id="p-switch-user" transform="translate(651.000000, 1343.000000)">
                <rect id="矩形" opacity="0" x="0" y="0" width="16" height="16"></rect>
                <path d="M11.859375,5.234375 C11.859375,3.09375 10.125,1.359375 7.984375,1.359375 C5.84375,1.359375 4.109375,3.09375 4.109375,5.234375 C4.109375,6.528125 4.74375,7.675 5.71875,8.378125 C5.7125,8.38125 5.7078125,8.3828125 5.7046875,8.384375 C5.00625,8.6796875 4.3796875,9.103125 3.840625,9.64375 C3.3015625,10.1828125 2.8796875,10.8109375 2.584375,11.5109375 C2.2953125,12.1953125 2.140625,12.921875 2.1249377,13.66875 C2.1234375,13.7390625 2.1796875,13.796875 2.25,13.796875 L3.1859375,13.796875 C3.253125,13.796875 3.309375,13.7421875 3.3109375,13.675 C3.3421875,12.46875 3.825,11.3390625 4.6796875,10.4828125 C5.5625,9.596875 6.734375,9.109375 7.984375,9.109375 C10.125,9.109375 11.859375,7.375 11.859375,5.234375 Z M7.984375,7.921875 C6.5,7.921875 5.296875,6.71875 5.296875,5.234375 C5.296875,3.75 6.5,2.546875 7.984375,2.546875 C9.46875,2.546875 10.671875,3.75 10.671875,5.234375 C10.671875,6.71875 9.46875,7.921875 7.984375,7.921875 Z M9.625,11.375 L13.75,11.375 C13.81875,11.375 13.875,11.31875 13.875,11.25 L13.875,10.375 C13.875,10.30625 13.81875,10.25 13.75,10.25 L10.9921875,10.25 L11.7296875,9.3109375 C11.746875,9.2890625 11.75625,9.2609375 11.75625,9.234375 C11.75625,9.165625 11.7,9.109375 11.63125,9.109375 L10.496875,9.109375 C10.4203125,9.109375 10.3484375,9.1453125 10.3,9.2046875 L9.2296875,10.565625 C9.1609375,10.653125 9.1234375,10.7625 9.1234375,10.875 C9.125,11.1515625 9.3484375,11.375 9.625,11.375 L9.625,11.375 Z M13.375,12.375 L9.25,12.375 C9.18125,12.375 9.125,12.43125 9.125,12.5 L9.125,13.375 C9.125,13.44375 9.18125,13.5 9.25,13.5 L12.0078125,13.5 L11.2703125,14.4390625 C11.253125,14.4609375 11.24375,14.4890625 11.24375,14.515625 C11.24375,14.584375 11.3,14.640625 11.36875,14.640625 L12.503125,14.640625 C12.5796875,14.640625 12.6515625,14.6046875 12.7,14.5453125 L13.7703125,13.184375 C13.8390625,13.096875 13.8765625,12.9875 13.8765625,12.875 C13.875,12.5984375 13.6515625,12.375 13.375,12.375 L13.375,12.375 Z" id="形状"></path>
            </g>
        </g>
    </g>
</svg>