<?xml version="1.0" encoding="UTF-8"?>
<svg width="16px" height="16px" viewBox="0 0 16 16" version="1.1" xmlns="http://www.w3.org/2000/svg" xmlns:xlink="http://www.w3.org/1999/xlink">
    <title>p-swap</title>
    <g id="页面-1" stroke="none" stroke-width="1" fill="none" fill-rule="evenodd">
        <g id="画板" transform="translate(-342.000000, -1839.000000)">
            <g id="p-swap" transform="translate(342.000000, 1839.000000)">
                <rect id="矩形" stroke="#979797" fill="#D8D8D8" opacity="0" x="0.5" y="0.5" width="15" height="15"></rect>
                <path d="M14.5155039,9.54 C14.7830837,9.54 15,9.7569163 15,10.0244961 C15,10.1339121 14.962964,10.2401065 14.8949209,10.325792 L11.5185906,14.5782142 C11.4958266,14.6068851 11.4612199,14.6235964 11.4246109,14.6235964 L10.1216392,14.6235964 C10.0553651,14.6235964 10.0016392,14.5698706 10.0016392,14.5035964 C10.0016392,14.4764896 10.0108168,14.4501814 10.0276772,14.4289563 L12.9104294,10.799953 L1.12,10.799953 C1.05372583,10.799953 1,10.7462272 1,10.679953 L1,9.66026309 C1.00000234,9.59398983 1.05372674,9.54026438 1.12,9.54026075 L14.5155039,9.54 Z M5.87836077,1.38 C5.94463494,1.38 5.99836077,1.43372583 5.99836077,1.5 C5.99836077,1.52710678 5.9891832,1.55341503 5.97232276,1.57464009 L3.0895706,5.20364341 L14.88,5.20364341 C14.9462742,5.20364341 15,5.25736924 15,5.32364341 L15,6.34333333 C14.9999977,6.40960659 14.9462733,6.46333204 14.88,6.46333567 L1.48449612,6.46359642 C1.2169163,6.46359642 1,6.24668012 1,5.9791003 C1,5.86968432 1.03703604,5.76348994 1.10507907,5.67780445 L4.4814094,1.42538218 C4.50417345,1.39671131 4.53878005,1.38 4.57538909,1.38 L5.87836077,1.38 Z" id="形状结合" fill="#000000" fill-rule="nonzero"></path>
            </g>
        </g>
    </g>
</svg>