<?xml version="1.0" encoding="UTF-8"?>
<svg width="16px" height="16px" viewBox="0 0 16 16" version="1.1" xmlns="http://www.w3.org/2000/svg" xmlns:xlink="http://www.w3.org/1999/xlink">
    <title>p-swap-left</title>
    <g id="页面-1" stroke="none" stroke-width="1" fill="none" fill-rule="evenodd">
        <g id="画板" transform="translate(-293.000000, -1839.000000)">
            <g id="p-swap-left" transform="translate(293.000000, 1839.000000)">
                <rect id="矩形" stroke="#979797" fill="#D8D8D8" opacity="0" x="0.5" y="0.5" width="15" height="15"></rect>
                <path d="M5.97232276,5.65464009 L3.0895706,9.28364341 L3.0895706,9.28364341 L14.88,9.28364341 C14.9462742,9.28364341 15,9.33736924 15,9.40364341 L15,10.4233333 C14.9999977,10.4896066 14.9462733,10.543332 14.88,10.5433357 L1.48449612,10.5435964 L1.48449612,10.5435964 C1.2169163,10.5435964 1,10.3266801 1,10.0591003 C1,9.94968432 1.03703604,9.84348994 1.10507907,9.75780445 L4.4814094,5.50538218 C4.50417345,5.47671131 4.53878005,5.46 4.57538909,5.46 L5.87836077,5.46 C5.94463494,5.46 5.99836077,5.51372583 5.99836077,5.58 C5.99836077,5.60710678 5.9891832,5.63341503 5.97232276,5.65464009 Z" id="路径" fill="#000000" fill-rule="nonzero"></path>
            </g>
        </g>
    </g>
</svg>