<?xml version="1.0" encoding="UTF-8"?>
<svg width="16px" height="16px" viewBox="0 0 16 16" version="1.1" xmlns="http://www.w3.org/2000/svg" xmlns:xlink="http://www.w3.org/1999/xlink">
    <title>p-sync</title>
    <g id="页面-1" stroke="none" stroke-width="1" fill="none" fill-rule="evenodd">
        <g id="画板" transform="translate(-374.000000, -1839.000000)" fill="#000000" fill-rule="nonzero">
            <g id="p-sync" transform="translate(374.000000, 1839.000000)">
                <rect id="矩形" opacity="0" x="0" y="0" width="16" height="16"></rect>
                <path d="M14.9918647,7.94029189 L14.992868,8.01050979 C14.9876046,11.8764427 11.8602597,15 7.99462232,15 C5.81353733,15 3.79734399,13.9947219 2.47860238,12.3084621 L1.53274579,12.9555759 C1.48658891,12.9928421 1.41886474,12.9596375 1.41886474,12.9 L1.43300535,9.94831851 C1.43300616,9.90386497 1.47657595,9.87001006 1.52079797,9.88062334 L4.38770073,10.5805582 C4.44516048,10.5947023 4.46101099,10.6690016 4.41423742,10.7051849 L3.4930132,11.424835 C3.62388956,11.7064965 3.77952957,11.8818718 3.94614002,12.0484823 C4.4728964,12.5752387 5.08525086,12.9884315 5.76634233,13.2762418 C6.47009892,13.5745346 7.21999387,13.7255051 7.99462232,13.7255051 C8.76925077,13.7255051 9.51914572,13.5745346 10.2229733,13.2762117 C10.9039938,12.9884315 11.5163482,12.5752387 12.0431046,12.0484823 C12.569861,11.5217259 12.9830538,10.9093715 13.2708641,10.22828 C13.5691569,9.5245234 13.7201274,8.77462845 13.7201274,8 L13.7188647,7.94029189 L14.9918647,7.94029189 Z M7.99624568,1 C10.1773307,1 12.193524,2.00527814 13.5122656,3.69153789 L14.4581222,3.04442405 C14.5042791,3.00715788 14.5720033,3.04036245 14.5720033,3.1 L14.5578626,6.05168149 C14.5578618,6.09613503 14.514292,6.12998994 14.47007,6.11937666 L11.6031673,5.41944176 C11.5457075,5.40529769 11.529857,5.33099845 11.5766306,5.29481512 L12.4978548,4.57516496 C12.3669784,4.29350349 12.2113384,4.11812815 12.044728,3.9515177 C11.5179716,3.42476132 10.9056171,3.01156851 10.2245257,2.7237582 C9.52076908,2.42546539 8.77087413,2.27449495 7.99624568,2.27449495 C7.22161722,2.27449495 6.47172228,2.42546539 5.76789468,2.72378825 C5.08687421,3.01156851 4.47451976,3.42476132 3.94776338,3.9515177 C3.421007,4.47827408 3.00781418,5.09062854 2.72000388,5.77172001 C2.42942553,6.457276 2.27864798,7.18661474 2.27104349,7.94 L1,7.94 L1.00237262,7.74885756 C1.13388988,3.99476478 4.21114238,1 7.99624568,1 Z" id="形状结合"></path>
            </g>
        </g>
    </g>
</svg>