<?xml version="1.0" encoding="UTF-8"?>
<svg width="16px" height="16px" viewBox="0 0 16 16" version="1.1" xmlns="http://www.w3.org/2000/svg" xmlns:xlink="http://www.w3.org/1999/xlink">
    <title>p-tag</title>
    <g id="页面-1" stroke="none" stroke-width="1" fill="none" fill-rule="evenodd">
        <g id="画板" transform="translate(-177.000000, -1422.000000)" fill="#000000" fill-rule="nonzero">
            <g id="p-tag" transform="translate(177.000000, 1422.000000)">
                <rect id="矩形" opacity="0" x="0" y="0" width="16" height="16"></rect>
                <path d="M14.9995873,7.12546128 L14.5132309,1.98914369 C14.4885845,1.72296217 14.2766251,1.5126459 14.0104436,1.48635637 L8.87412602,1 L8.86755364,1 C8.81497457,1 8.77389718,1.01643096 8.74267836,1.04764978 L1.04806055,8.74226758 C0.983979816,8.80634832 0.983979816,8.90986336 1.04806055,8.9739441 L7.02564321,14.9515268 C7.05686203,14.9827456 7.09793942,14.9991765 7.14230301,14.9991765 C7.1866666,14.9991765 7.227744,14.9827456 7.25896282,14.9515268 L14.9535806,7.25690895 C14.9864425,7.22240393 15.0028735,7.17475416 14.9995873,7.12546128 Z M7.14065992,13.3018585 L2.69772877,8.85892739 L9.26518283,2.29147333 L13.3236296,2.67595775 L13.708114,6.73440447 L7.14065992,13.3018585 Z M10.7604,3.79326292 C9.96349856,3.79326292 9.31447571,4.44228578 9.31447571,5.23918726 C9.31447571,6.03608874 9.96349856,6.6851116 10.7604,6.6851116 C11.5573015,6.6851116 12.2063244,6.03608874 12.2063244,5.23918726 C12.2063244,4.44228578 11.5573015,3.79326292 10.7604,3.79326292 Z M10.7604,5.76497793 C10.4695721,5.76497793 10.2346094,5.53001522 10.2346094,5.23918726 C10.2346094,4.9483593 10.4695721,4.71339659 10.7604,4.71339659 C11.051228,4.71339659 11.2861907,4.9483593 11.2861907,5.23918726 C11.2861907,5.53001522 11.051228,5.76497793 10.7604,5.76497793 Z" id="形状"></path>
            </g>
        </g>
    </g>
</svg>