<?xml version="1.0" encoding="UTF-8"?>
<svg width="16px" height="16px" viewBox="0 0 16 16" version="1.1" xmlns="http://www.w3.org/2000/svg" xmlns:xlink="http://www.w3.org/1999/xlink">
    <title>p-tablet</title>
    <g id="页面-1" stroke="none" stroke-width="1" fill="none" fill-rule="evenodd">
        <g id="画板" transform="translate(-144.000000, -1422.000000)" fill="#000000" fill-rule="nonzero">
            <g id="p-tablet" transform="translate(144.000000, 1422.000000)">
                <rect id="矩形" opacity="0" x="0" y="0" width="16" height="16"></rect>
                <path d="M12.4108881,1 C12.941621,1 13.3923996,1.37292491 13.5033854,1.88082443 L13.5228474,2.0003197 L13.5291119,2.1182237 L13.5291119,13.8817763 C13.5291119,14.4125091 13.1561869,14.8632878 12.6482874,14.9742735 L12.5287922,14.9937355 L12.4108881,15 L3.5882237,15 C3.05749085,15 2.60671222,14.6270751 2.49572649,14.1191756 L2.4762645,13.9996803 L2.47,13.8817763 L2.47,2.1182237 C2.47,1.58749085 2.84292491,1.13671222 3.35082443,1.02572649 L3.4703197,1.0062645 L3.5882237,1 L12.4108881,1 Z M3.84722772,2.31089109 L3.71131163,13.6213138 L12.150198,13.7564356 L12.219175,2.37770584 L3.84722772,2.31089109 Z M7.99955593,11.4156455 C8.41410788,11.4156455 8.75016861,11.7517063 8.75016861,12.1662582 C8.75016861,12.5808102 8.41410788,12.9168709 7.99955593,12.9168709 C7.58500397,12.9168709 7.24894324,12.5808102 7.24894324,12.1662582 C7.24894324,11.7517063 7.58500397,11.4156455 7.99955593,11.4156455 Z" id="形状"></path>
            </g>
        </g>
    </g>
</svg>