<?xml version="1.0" encoding="UTF-8"?>
<svg width="16px" height="16px" viewBox="0 0 16 16" version="1.1" xmlns="http://www.w3.org/2000/svg" xmlns:xlink="http://www.w3.org/1999/xlink">
    <title>p-tags</title>
    <g id="页面-1" stroke="none" stroke-width="1" fill="none" fill-rule="evenodd">
        <g id="画板" transform="translate(-211.000000, -1422.000000)" fill="#000000" fill-rule="nonzero">
            <g id="p-tags" transform="translate(211.000000, 1422.000000)">
                <rect id="矩形" opacity="0" x="0" y="0" width="16" height="16"></rect>
                <path d="M7.55,12.3484375 L13.459375,6.4375 C13.4859375,6.4109375 13.4984375,6.375 13.4953125,6.3390625 L13.096875,1.6296875 C13.0859375,1.5078125 12.990625,1.4125 12.86875,1.4015625 L8.159375,1.0046875 C8.1234375,1.0015625 8.0859375,1.0140625 8.0609375,1.040625 L2.1515625,6.95 C2.103125,6.9984375 2.103125,7.078125 2.1515625,7.1265625 L7.3734375,12.3484375 C7.421875,12.3984375 7.5015625,12.3984375 7.55,12.3484375 Z M8.528125,2.165625 L12.0375,2.4625 L12.334375,5.971875 L7.4609375,10.84375 L3.6546875,7.0390625 L8.528125,2.165625 Z M9.46810706,5.07540987 C9.65757152,5.26491295 9.9337481,5.33893264 10.1925893,5.26958255 C10.4514305,5.20023245 10.6536056,4.99805027 10.7229467,4.73920666 C10.7922877,4.48036305 10.7182584,4.20418905 10.5287487,4.0147312 C10.3392843,3.82522813 10.0631077,3.75120844 9.80426649,3.82055853 C9.5454253,3.88990862 9.34325017,4.09209081 9.27390911,4.35093442 C9.20456805,4.60977803 9.27859737,4.88595203 9.46810706,5.07540987 Z M13.9015625,8.434375 L13.2828125,7.8171875 C13.234375,7.76875 13.1546875,7.76875 13.10625,7.8171875 L7.45,13.4625 L3.7375,9.759375 C3.6890625,9.7109375 3.609375,9.7109375 3.5609375,9.759375 L2.9421875,10.3765625 C2.89375,10.425 2.89375,10.5046875 2.9421875,10.553125 L6.7421875,14.346875 L7.3609375,14.9640625 C7.409375,15.0125 7.4890625,15.0125 7.5375,14.9640625 L13.9015625,8.6109375 C13.95,8.5625 13.95,8.4828125 13.9015625,8.434375 L13.9015625,8.434375 Z" id="形状"></path>
            </g>
        </g>
    </g>
</svg>