<?xml version="1.0" encoding="UTF-8"?>
<svg width="16px" height="16px" viewBox="0 0 16 16" version="1.1" xmlns="http://www.w3.org/2000/svg" xmlns:xlink="http://www.w3.org/1999/xlink">
    <title>p-team</title>
    <g id="页面-1" stroke="none" stroke-width="1" fill="none" fill-rule="evenodd">
        <g id="画板" transform="translate(-244.000000, -1422.000000)" fill="#000000" fill-rule="nonzero">
            <g id="p-team" transform="translate(244.000000, 1422.000000)">
                <rect id="矩形" opacity="0" x="0" y="0" width="16" height="16"></rect>
                <path d="M13.4634199,11.2885098 C13.0189264,10.8440163 12.5061839,10.4887715 11.9514421,10.2315253 C12.7441804,9.58928469 13.249923,8.60929906 13.249923,7.51031517 C13.249923,5.5713436 11.6329467,3.98061692 9.69397515,4.01036648 C7.78475315,4.04011604 6.2465257,5.59584324 6.2465257,7.51031517 C6.2465257,8.60929906 6.75401826,9.58928469 7.54500666,10.2315253 C6.99026479,10.4887715 6.47927228,10.8422663 6.03302883,11.2885098 C5.07754284,12.2457457 4.53505079,13.5092272 4.49998153,14.8567075 C4.49830133,14.9354563 4.5613004,15.0002054 4.64004925,15.0002054 L5.62003488,15.0002054 C5.69528378,15.0002054 5.75828286,14.9407062 5.76003283,14.8654573 C5.79328234,13.8504722 6.20452631,12.9002361 6.92726572,12.1792467 C7.68150466,11.4250078 8.68423996,11.0102639 9.74997433,11.0102639 C10.8157087,11.0102639 11.818444,11.4250078 12.572683,12.1792467 C13.2936724,12.9002361 13.7049164,13.8504722 13.7399158,14.8654573 C13.7416658,14.9407062 13.8046649,15.0002054 13.8799138,15.0002054 L14.8598994,15.0002054 C14.9386483,15.0002054 15.0016473,14.9354563 14.9999672,14.8567075 C14.9648979,13.5092272 14.4224058,12.2457457 13.4634199,11.2885098 Z M9.74997433,9.75028233 C9.15148311,9.75028233 8.58799137,9.51753574 8.16624755,9.09404195 C7.73750384,8.66529824 7.50300728,8.0948066 7.51000717,7.4875655 C7.5152571,6.91357392 7.74450374,6.35883205 8.14524786,5.94758808 C8.5652417,5.51709439 9.12698347,5.27734791 9.72722467,5.27034801 C10.320466,5.26509809 10.8962075,5.4960947 11.3197013,5.91083862 C11.753695,6.33608238 11.9916915,6.90482405 11.9916915,7.51031517 C11.9916915,8.10880639 11.7589449,8.67054816 11.3354511,9.09404195 C10.9119573,9.51753574 10.3484656,9.75028233 9.74997433,9.75028233 L9.74997433,9.75028233 Z M5.3662886,7.9723084 C5.35053883,7.82006063 5.34178896,7.66606289 5.34178896,7.51031517 C5.34178896,7.23206925 5.36803858,6.96082322 5.41703786,6.6965771 C5.42928768,6.63357802 5.39603817,6.56882897 5.33828901,6.54257936 C5.1002925,6.43583092 4.88154571,6.28883308 4.69254848,6.1033358 C4.2410551,5.66234226 3.99780867,5.06560101 4.01530841,4.43386027 C4.03105818,3.87211851 4.25680487,3.33837633 4.6505491,2.93588223 C5.08279276,2.49313872 5.66378424,2.25164227 6.28152518,2.25864216 C6.839767,2.26389209 7.3787591,2.47913893 7.78650312,2.86063334 C7.92475109,2.99013144 8.04374935,3.13362933 8.14349789,3.28762708 C8.17849737,3.34187628 8.24674637,3.36462595 8.3062455,3.34362626 C8.61424098,3.23687782 8.93973621,3.16162892 9.27398131,3.12662944 C9.37197988,3.11612959 9.42797905,3.01113113 9.3842297,2.92363241 C8.81548803,1.79839891 7.65350507,1.0214103 6.30952477,1.00041061 C4.36880323,0.970661046 2.75182693,2.56138772 2.75182693,4.49860932 C2.75182693,5.59759321 3.25756952,6.57757884 4.0503079,7.21981943 C3.49381605,7.47706566 2.98107357,7.83231045 2.53658009,8.27680393 C1.57759415,9.2340399 1.0351021,10.4975214 1.00003284,11.8467516 C0.99835264,11.9255004 1.06135172,11.9902495 1.14010056,11.9902495 L2.12183617,11.9902495 C2.19708507,11.9902495 2.26008414,11.9307504 2.26183412,11.8555015 C2.29508363,10.8405163 2.7063276,9.89028028 3.429067,9.16929085 C3.94355946,8.65479839 4.57355022,8.29780362 5.26129014,8.12455616 C5.32953914,8.10705642 5.37503847,8.04230737 5.3662886,7.9723084 L5.3662886,7.9723084 Z" id="形状"></path>
            </g>
        </g>
    </g>
</svg>