<?xml version="1.0" encoding="UTF-8"?>
<svg width="16px" height="16px" viewBox="0 0 16 16" version="1.1" xmlns="http://www.w3.org/2000/svg" xmlns:xlink="http://www.w3.org/1999/xlink">
    <title>p-thunderbolt</title>
    <g id="页面-1" stroke="none" stroke-width="1" fill="none" fill-rule="evenodd">
        <g id="画板" transform="translate(-278.000000, -1422.000000)" fill="#000000" fill-rule="nonzero">
            <g id="p-thunderbolt" transform="translate(278.000000, 1422.000000)">
                <rect id="矩形" opacity="0" x="0" y="0" width="16" height="16"></rect>
                <path d="M13.6597545,5.43539641 L9.94871068,5.43539641 L13.2857864,1.21899033 C13.3548526,1.12970966 13.2925245,1 13.1796603,1 L6.71944561,1 C6.67227847,1 6.62679586,1.02526811 6.60321229,1.06738164 L2.2385666,8.60570254 C2.18634583,8.69498322 2.25035838,8.80784746 2.35479992,8.80784746 L5.2926394,8.80784746 L3.78665976,14.831766 C3.75465348,14.9631602 3.91300033,15.05581 4.01070371,14.9614757 L13.7524042,5.66617853 C13.8400004,5.58363602 13.7810414,5.43539641 13.6597545,5.43539641 Z M5.74578093,11.7221034 L6.76155914,7.66235959 L4.11009163,7.66235959 L7.30398134,2.14717241 L11.0874604,2.14717241 L7.57856152,6.58256882 L11.132943,6.58256882 L5.74578093,11.7221034 Z" id="形状"></path>
            </g>
        </g>
    </g>
</svg>