<?xml version="1.0" encoding="UTF-8"?>
<svg width="16px" height="16px" viewBox="0 0 16 16" version="1.1" xmlns="http://www.w3.org/2000/svg" xmlns:xlink="http://www.w3.org/1999/xlink">
    <title>p-time-circle (2)</title>
    <g id="页面-1" stroke="none" stroke-width="1" fill="none" fill-rule="evenodd">
        <g id="画板" transform="translate(-404.000000, -1839.000000)" fill="#000000" fill-rule="nonzero">
            <g id="p-time-circle-(2)" transform="translate(404.000000, 1839.000000)">
                <rect id="矩形" opacity="0" x="0" y="0" width="16" height="16"></rect>
                <path d="M8,1 C4.134375,1 1,4.134375 1,8 C1,11.865625 4.134375,15 8,15 C11.865625,15 15,11.865625 15,8 C15,4.134375 11.865625,1 8,1 Z M8,13.8125 C4.790625,13.8125 2.1875,11.209375 2.1875,8 C2.1875,4.790625 4.790625,2.1875 8,2.1875 C11.209375,2.1875 13.8125,4.790625 13.8125,8 C13.8125,11.209375 11.209375,13.8125 8,13.8125 Z" id="形状"></path>
                <path d="M10.7296875,9.978125 L8.5015625,8.3671875 L8.5015625,4.5 C8.5015625,4.43125 8.4453125,4.375 8.3765625,4.375 L7.625,4.375 C7.55625,4.375 7.5,4.43125 7.5,4.5 L7.5,8.803125 C7.5,8.84375 7.51875,8.88125 7.5515625,8.9046875 L10.1359375,10.7890625 C10.1921875,10.8296875 10.2703125,10.8171875 10.3109375,10.7625 L10.7578125,10.153125 C10.7984375,10.0953125 10.7859375,10.0171875 10.7296875,9.978125 L10.7296875,9.978125 Z" id="路径"></path>
            </g>
        </g>
    </g>
</svg>