<?xml version="1.0" encoding="UTF-8"?>
<svg width="16px" height="16px" viewBox="0 0 16 16" version="1.1" xmlns="http://www.w3.org/2000/svg" xmlns:xlink="http://www.w3.org/1999/xlink">
    <title>p-time-out</title>
    <g id="页面-1" stroke="none" stroke-width="1" fill="none" fill-rule="evenodd">
        <g id="画板" transform="translate(-345.000000, -1422.000000)" fill="#000000" fill-rule="nonzero">
            <g id="p-time-out" transform="translate(345.000000, 1422.000000)">
                <rect id="矩形" opacity="0" x="0" y="0" width="16" height="16"></rect>
                <path d="M8,1 C4.134375,1 1,4.134375 1,8 C1,11.865625 4.134375,15 8,15 C11.865625,15 15,11.865625 15,8 C15,4.134375 11.865625,1 8,1 Z M8,13.8125 C4.790625,13.8125 2.1875,11.209375 2.1875,8 C2.1875,4.790625 4.790625,2.1875 8,2.1875 C11.209375,2.1875 13.8125,4.790625 13.8125,8 C13.8125,11.209375 11.209375,13.8125 8,13.8125 Z M6.625,5.5 L5.875,5.5 C5.80625,5.5 5.75,5.55625 5.75,5.625 L5.75,10.375 C5.75,10.44375 5.80625,10.5 5.875,10.5 L6.625,10.5 C6.69375,10.5 6.75,10.44375 6.75,10.375 L6.75,5.625 C6.75,5.55625 6.69375,5.5 6.625,5.5 Z M10.125,5.5 L9.375,5.5 C9.30625,5.5 9.25,5.55625 9.25,5.625 L9.25,10.375 C9.25,10.44375 9.30625,10.5 9.375,10.5 L10.125,10.5 C10.19375,10.5 10.25,10.44375 10.25,10.375 L10.25,5.625 C10.25,5.55625 10.19375,5.5 10.125,5.5 Z" id="形状"></path>
            </g>
        </g>
    </g>
</svg>