<?xml version="1.0" encoding="UTF-8"?>
<svg width="16px" height="16px" viewBox="0 0 16 16" version="1.1" xmlns="http://www.w3.org/2000/svg" xmlns:xlink="http://www.w3.org/1999/xlink">
    <title>p-translate</title>
    <g id="页面-1" stroke="none" stroke-width="1" fill="none" fill-rule="evenodd">
        <g id="画板" transform="translate(-412.000000, -1422.000000)" fill="#000000" fill-rule="nonzero">
            <g id="p-translate" transform="translate(412.000000, 1422.000000)">
                <rect id="矩形" opacity="0" x="0" y="0" width="16" height="16"></rect>
                <path d="M2.1875,2.9375 L11.3125,2.9375 L11.3125,5.5 L12.5,5.5 L12.5,2.25 C12.5,1.9734375 12.2765625,1.75 12,1.75 L1.5,1.75 C1.2234375,1.75 1,1.9734375 1,2.25 L1,13.75 C1,14.0265625 1.2234375,14.25 1.5,14.25 L10,14.25 L10,13.0625 L2.1875,13.0625 L2.1875,2.9375 Z M6.4734375,4 L5.5265625,4 C5.4734375,4 5.4265625,4.034375 5.4078125,4.084375 L3.421875,9.834375 C3.4171875,9.846875 3.415625,9.8609375 3.415625,9.875 C3.415625,9.94375 3.471875,10 3.540625,10 L4.4015625,10 C4.4546875,10 4.5015625,9.965625 4.5203125,9.915625 L5.03125,8.4375 L8.096875,8.4375 L6.59375,4.084375 C6.5734375,4.034375 6.5265625,4 6.4734375,4 Z M6.6671875,7.5625 L5.33125,7.5625 L6,5.628125 L6.6671875,7.5625 Z M14.625,8.25 L12.5,8.25 L12.5,6.796875 C12.5,6.728125 12.44375,6.671875 12.375,6.671875 L11.5,6.671875 C11.43125,6.671875 11.375,6.728125 11.375,6.796875 L11.375,8.25 L9.25,8.25 C9.0421875,8.25 8.875,8.4171875 8.875,8.625 L8.875,11.375 C8.875,11.5828125 9.0421875,11.75 9.25,11.75 L11.375,11.75 L11.375,14.125 C11.375,14.19375 11.43125,14.25 11.5,14.25 L12.375,14.25 C12.44375,14.25 12.5,14.19375 12.5,14.125 L12.5,11.75 L14.625,11.75 C14.8328125,11.75 15,11.5828125 15,11.375 L15,8.625 C15,8.4171875 14.8328125,8.25 14.625,8.25 Z M11.375,10.625 L10,10.625 L10,9.375 L11.375,9.375 L11.375,10.625 Z M13.875,10.625 L12.5,10.625 L12.5,9.375 L13.875,9.375 L13.875,10.625 Z" id="形状"></path>
            </g>
        </g>
    </g>
</svg>