<?xml version="1.0" encoding="UTF-8"?>
<svg width="16px" height="16px" viewBox="0 0 16 16" version="1.1" xmlns="http://www.w3.org/2000/svg" xmlns:xlink="http://www.w3.org/1999/xlink">
    <title>p-trademark</title>
    <g id="页面-1" stroke="none" stroke-width="1" fill="none" fill-rule="evenodd">
        <g id="画板" transform="translate(-378.000000, -1422.000000)" fill="#000000" fill-rule="nonzero">
            <g id="p-trademark" transform="translate(378.000000, 1422.000000)">
                <rect id="矩形" opacity="0" x="0" y="0" width="16" height="16"></rect>
                <path d="M8,1 C4.134375,1 1,4.134375 1,8 C1,11.865625 4.134375,15 8,15 C11.865625,15 15,11.865625 15,8 C15,4.134375 11.865625,1 8,1 Z M8,13.8125 C4.790625,13.8125 2.1875,11.209375 2.1875,8 C2.1875,4.790625 4.790625,2.1875 8,2.1875 C11.209375,2.1875 13.8125,4.790625 13.8125,8 C13.8125,11.209375 11.209375,13.8125 8,13.8125 Z M9.3671875,8.5828125 C9.9109375,8.3828125 10.5921875,7.8171875 10.5921875,6.7203125 C10.5921875,5.6078125 9.88125,4.671875 8.3390625,4.671875 L5.90625,4.671875 C5.8375,4.671875 5.78125,4.728125 5.78125,4.796875 L5.78125,11.203125 C5.78125,11.271875 5.8375,11.328125 5.90625,11.328125 L6.7578125,11.328125 C6.8265625,11.328125 6.8828125,11.271875 6.8828125,11.203125 L6.8828125,8.76875 L8.26875,8.76875 L9.434375,11.25625 C9.4546875,11.3 9.4984375,11.328125 9.546875,11.328125 L10.515625,11.328125 C10.534375,11.328125 10.553125,11.3234375 10.5703125,11.315625 C10.6328125,11.284375 10.6578125,11.2109375 10.6265625,11.1484375 L9.3671875,8.5828125 L9.3671875,8.5828125 Z M8.15625,7.890625 L6.8828125,7.890625 L6.8828125,5.578125 L8.1859375,5.578125 C8.9359375,5.578125 9.45,5.9734375 9.45,6.7578125 C9.45,7.490625 8.984375,7.890625 8.15625,7.890625 Z" id="形状"></path>
            </g>
        </g>
    </g>
</svg>