<?xml version="1.0" encoding="UTF-8"?>
<svg width="16px" height="16px" viewBox="0 0 16 16" version="1.1" xmlns="http://www.w3.org/2000/svg" xmlns:xlink="http://www.w3.org/1999/xlink">
    <title>p-unordered-list</title>
    <g id="页面-1" stroke="none" stroke-width="1" fill="none" fill-rule="evenodd">
        <g id="画板" transform="translate(-153.000000, -1896.000000)">
            <g id="p-unordered-list" transform="translate(153.000000, 1896.000000)">
                <rect id="矩形" fill="#D8D8D8" opacity="0" x="0" y="0" width="16" height="16"></rect>
                <path d="M1.96227895,11.791497 C2.49373094,11.791497 2.9245579,12.2223239 2.9245579,12.7537759 C2.9245579,13.2852279 2.49373094,13.7160549 1.96227895,13.7160549 C1.43082696,13.7160549 1,13.2852279 1,12.7537759 C1,12.2223239 1.43082696,11.791497 1.96227895,11.791497 Z M14.88,12.0953745 C14.9462742,12.0953745 15,12.1491004 15,12.2153745 L15,13.2921773 C15,13.3584515 14.9462742,13.4121773 14.88,13.4121773 L4.8024985,13.4121773 C4.73622433,13.4121773 4.6824985,13.3584515 4.6824985,13.2921773 L4.6824985,12.2153745 C4.6824985,12.1491004 4.73622433,12.0953745 4.8024985,12.0953745 L14.88,12.0953745 Z M1.96227895,7.03074849 C2.49373094,7.03074849 2.9245579,7.46157545 2.9245579,7.99302744 C2.9245579,8.52447943 2.49373094,8.95530639 1.96227895,8.95530639 C1.43082696,8.95530639 1,8.52447943 1,7.99302744 C1,7.46157545 1.43082696,7.03074849 1.96227895,7.03074849 Z M14.88,7.33462605 C14.9462742,7.33462605 15,7.38835188 15,7.45462605 L15,8.53142883 C15,8.597703 14.9462742,8.65142883 14.88,8.65142883 L4.8024985,8.65142883 C4.73622433,8.65142883 4.6824985,8.597703 4.6824985,8.53142883 L4.6824985,7.45462605 C4.6824985,7.38835188 4.73622433,7.33462605 4.8024985,7.33462605 L14.88,7.33462605 Z M1.96227895,2.27 C2.49373094,2.27 2.9245579,2.70082696 2.9245579,3.23227895 C2.9245579,3.76373094 2.49373094,4.1945579 1.96227895,4.1945579 C1.43082696,4.1945579 1,3.76373094 1,3.23227895 C1,2.70082696 1.43082696,2.27 1.96227895,2.27 Z M14.88,2.57387756 C14.9462742,2.57387756 15,2.62760339 15,2.69387756 L15,3.77068034 C15,3.83695451 14.9462742,3.89068034 14.88,3.89068034 L4.8024985,3.89068034 C4.73622433,3.89068034 4.6824985,3.83695451 4.6824985,3.77068034 L4.6824985,2.69387756 C4.6824985,2.62760339 4.73622433,2.57387756 4.8024985,2.57387756 L14.88,2.57387756 Z" id="形状结合" fill="#000000"></path>
            </g>
        </g>
    </g>
</svg>