<?xml version="1.0" encoding="UTF-8"?>
<svg width="16px" height="16px" viewBox="0 0 16 16" version="1.1" xmlns="http://www.w3.org/2000/svg" xmlns:xlink="http://www.w3.org/1999/xlink">
    <title>p-unlike</title>
    <g id="页面-1" stroke="none" stroke-width="1" fill="none" fill-rule="evenodd">
        <g id="画板" transform="translate(-546.000000, -1422.000000)" fill="#000000" fill-rule="nonzero">
            <g id="p-unlike" transform="translate(546.000000, 1422.000000)">
                <rect id="矩形" opacity="0" x="0" y="0" width="16" height="16"></rect>
                <path d="M14.3503823,7.63041631 C14.4115548,7.42650807 14.442141,7.21580289 14.442141,7.00169924 C14.442141,6.52081563 14.2841121,6.05862362 13.9986406,5.68139337 C14.0598131,5.47748513 14.0903993,5.26677995 14.0903993,5.0526763 C14.0903993,4.57179269 13.9323704,4.10960068 13.6468989,3.73237043 C13.7080714,3.52846219 13.7386576,3.31775701 13.7386576,3.10365336 C13.7386576,2.22684792 13.2169924,1.43670348 12.4081563,1.09175871 C12.2671198,1.03058624 12.1158879,1 11.957859,1 L1.74375531,1 C1.44299065,1 1.2,1.24299065 1.2,1.54375531 L1.2,7.72897196 C1.2,8.02973662 1.44299065,8.27272727 1.74375531,8.27272727 L3.94086661,8.27272727 L5.39881054,13.5539507 C5.63330501,14.4052676 6.41495327,15 7.29855565,15 C7.80322855,15 8.27391674,14.7994902 8.62225998,14.4324554 C8.97060323,14.0671198 9.14902294,13.5879354 9.12353441,13.0832625 L9.02158029,10.9949023 L13.0980459,10.9949023 C13.3036534,10.9949023 13.5041631,10.9405268 13.6808836,10.8368734 C14.3673747,10.4375531 14.7938828,9.71367884 14.7938828,8.95072218 C14.7938828,8.46983857 14.6358539,8.00764656 14.3503823,7.63041631 Z M2.42344945,7.04757859 L2.42344945,2.22175021 L3.79983008,2.22175021 L3.79983008,7.04757859 L2.42344945,7.04757859 Z M13.0810535,9.77315208 L7.7386576,9.77315208 L7.9017842,13.144435 C7.91197961,13.346644 7.82192014,13.5369584 7.65369584,13.6627018 C7.55004248,13.7391674 7.42259983,13.7782498 7.29515718,13.7766537 C6.96210705,13.7748513 6.66813934,13.548853 6.57807986,13.2276975 L4.8873407,7.10195412 L4.8873407,2.22175021 L11.9459643,2.22175021 C12.2926083,2.37807986 12.5169074,2.7213254 12.5169074,3.10195412 C12.5169074,3.26677995 12.477825,3.4231096 12.3996602,3.56584537 L12.1634664,3.99745115 L12.535599,4.32030586 C12.7480034,4.50382328 12.8686491,4.77060323 12.8686491,5.05097706 C12.8686491,5.21580289 12.8295667,5.37213254 12.7514019,5.51486831 L12.5152082,5.94647409 L12.8873407,6.2693288 C13.0997451,6.45284622 13.2203908,6.71962617 13.2203908,7 C13.2203908,7.16482583 13.1813084,7.32115548 13.1031436,7.46389125 L12.8652506,7.89719626 L13.2373832,8.22005098 C13.4497876,8.40356839 13.5704333,8.67034834 13.5704333,8.95072218 C13.5704333,9.27527613 13.3835174,9.58793543 13.0810535,9.77315208 L13.0810535,9.77315208 Z" id="形状"></path>
            </g>
        </g>
    </g>
</svg>