<?xml version="1.0" encoding="UTF-8"?>
<svg width="16px" height="16px" viewBox="0 0 16 16" version="1.1" xmlns="http://www.w3.org/2000/svg" xmlns:xlink="http://www.w3.org/1999/xlink">
    <title>p-undo</title>
    <g id="页面-1" stroke="none" stroke-width="1" fill="none" fill-rule="evenodd">
        <g id="画板" transform="translate(-512.000000, -1422.000000)" fill="#000000" fill-rule="nonzero">
            <g id="p-undo" transform="translate(512.000000, 1422.000000)">
                <rect id="矩形" opacity="0" x="0" y="0" width="16" height="16"></rect>
                <path d="M7.98948595,1.21 L8.23044516,1.21373872 C11.9898846,1.33567227 15,4.41953309 15,8.20823808 C15,10.341495 14.0403375,12.3160322 12.4169395,13.638534 C12.4053257,13.6478217 12.389563,13.6495482 12.3759239,13.6441409 L12.3578418,13.6307328 L11.6591157,12.7351453 L11.6504218,12.7157748 C11.6482611,12.7022761 11.6532794,12.6883882 11.6649268,12.6787962 C11.8170663,12.5529528 11.9567289,12.4267193 12.087605,12.2958431 C12.6194192,11.764029 13.0366235,11.1457294 13.3272165,10.4580528 C13.6283931,9.74749261 13.7808333,8.99029697 13.7808333,8.20823808 C13.7808333,7.42617918 13.6283931,6.66898354 13.3271734,5.95832143 C13.0366235,5.27074675 12.6194192,4.65244716 12.087605,4.12063304 C11.5557909,3.58881893 10.9374913,3.17161456 10.2498148,2.88102158 C9.53925454,2.57984497 8.7820589,2.42740474 8,2.42740474 C7.21818327,2.42740474 6.46099265,2.57975241 5.74839301,2.88102871 C5.06073331,3.17161456 4.44243372,3.58881893 3.9106196,4.12063304 C3.37880549,4.65244716 2.96160112,5.27074675 2.67100814,5.95842331 C2.36983153,6.66898354 2.2173913,7.42617918 2.2173913,8.20823808 C2.2173913,8.99029697 2.36983153,9.74749261 2.67105126,10.4581547 C2.96160112,11.1457294 3.37880549,11.764029 3.9106196,12.2958431 C4.0227488,12.4079723 4.13881481,12.5151832 4.25827048,12.6169726 L4.43992783,12.7655276 L4.58248306,12.7481555 L5.30505552,11.8231917 L5.32401222,11.8094132 C5.33818533,11.8045088 5.35425899,11.8079119 5.36521278,11.8180901 L5.37692603,11.8382473 L6.07813094,14.7194021 L6.07701639,14.744003 L6.06293055,14.7624546 L6.06293055,14.7624546 L6.04,14.7697236 L3.07465779,14.7839616 L3.05294978,14.7777317 C3.04075488,14.7697177 3.03365957,14.7550519 3.03493619,14.7401517 L3.04353908,14.718428 L3.70900247,13.8666367 L3.69155437,13.7242667 L3.47549189,13.5483423 C1.91974724,12.2298688 1,10.2945094 1,8.20823808 C1,4.42312145 3.99474445,1.34588903 7.7488523,1.21437259 L7.98948595,1.21 Z" id="路径"></path>
            </g>
        </g>
    </g>
</svg>