<?xml version="1.0" encoding="UTF-8"?>
<svg width="16px" height="16px" viewBox="0 0 16 16" version="1.1" xmlns="http://www.w3.org/2000/svg" xmlns:xlink="http://www.w3.org/1999/xlink">
    <title>p-underline</title>
    <g id="页面-1" stroke="none" stroke-width="1" fill="none" fill-rule="evenodd">
        <g id="画板" transform="translate(-479.000000, -1422.000000)" fill="#000000" fill-rule="nonzero">
            <g id="p-underline" transform="translate(479.000000, 1422.000000)">
                <rect id="矩形" opacity="0" x="0" y="0" width="16" height="16"></rect>
                <path d="M14.0730155,13.8275497 L14.0730155,15 L1.94,15 L1.94,13.8275497 L14.0730155,13.8275497 Z M4.35101252,1 C4.3837373,1 4.41235776,1.02043927 4.42462269,1.04906659 L4.43098204,1.07996951 L4.43098204,7.14432412 L4.43628334,7.34006297 C4.53833186,9.21952869 6.10079935,10.718517 8.00517491,10.718517 C9.90955048,10.718517 11.472018,9.21952869 11.5740665,7.34006297 L11.5793678,7.14432412 L11.5793678,1.07996951 L11.5857271,1.04906659 C11.5939038,1.02998171 11.6093495,1.01453596 11.6284344,1.00635934 L11.6593373,1 L12.8255593,1 L12.8564623,1.00635934 C12.8755471,1.01453596 12.8909929,1.02998171 12.8991695,1.04906659 L12.9055289,1.07996951 L12.9055289,7.14432412 L12.8987628,7.4050947 C12.8357408,8.61644343 12.3342484,9.74529881 11.4694304,10.608359 C10.5409699,11.5349324 9.31225091,12.0446781 8.00517491,12.0446781 C6.69567675,12.0446781 5.46584738,11.5351703 4.54113999,10.6085796 C3.67633819,9.74201646 3.17463963,8.61389483 3.11159005,7.40462881 L3.10482097,7.14432412 L3.10482097,1.07996951 L3.11118031,1.04906659 C3.11935694,1.02998171 3.13480268,1.01453596 3.15388756,1.00635934 L3.18479048,1 L4.35101252,1 Z" id="形状"></path>
            </g>
        </g>
    </g>
</svg>