<?xml version="1.0" encoding="UTF-8"?>
<svg width="16px" height="16px" viewBox="0 0 16 16" version="1.1" xmlns="http://www.w3.org/2000/svg" xmlns:xlink="http://www.w3.org/1999/xlink">
    <title>p-upload</title>
    <g id="页面-1" stroke="none" stroke-width="1" fill="none" fill-rule="evenodd">
        <g id="画板" transform="translate(-179.000000, -1896.000000)">
            <g id="p-upload" transform="translate(179.000000, 1896.000000)">
                <rect id="矩形" fill="#D8D8D8" opacity="0" x="0" y="0" width="16" height="16"></rect>
                <path d="M2.18618635,10.2351986 C2.25246052,10.2351626 2.30618635,10.2888884 2.30618635,10.3551626 L2.30526183,13.3129428 L13.6931973,13.3129428 L13.6937896,10.3551986 C13.6938269,10.2889338 13.7475489,10.2352227 13.8138136,10.2351986 L14.88,10.2351986 C14.9462742,10.2351986 15,10.2889244 15,10.3551986 L15,14.12011 C15,14.3962524 14.7761424,14.62011 14.5,14.62011 L1.5,14.62011 C1.22385763,14.62011 1,14.3962524 1,14.12011 L1,10.3551986 C1,10.2889244 1.05372583,10.2351986 1.12,10.2351986 L2.18618635,10.2351986 Z M7.94344379,1.41552922 C7.99542819,1.37442097 8.07089469,1.38323783 8.11200294,1.43522222 L8.11200294,1.43522222 L10.2839588,4.18181948 C10.3007163,4.20301056 10.3098327,4.22923634 10.3098327,4.25625255 C10.3098327,4.32252672 10.2561069,4.37625255 10.1898327,4.37625255 L10.1898327,4.37625255 L8.67,4.37565044 L8.67097004,10.8137113 C8.67097004,10.8799855 8.61724421,10.9337113 8.55097004,10.9337113 L7.48478369,10.9337113 C7.41850952,10.9337113 7.36478369,10.8799855 7.36478369,10.8137113 L7.364,4.37565044 L5.84592101,4.37625255 C5.83241291,4.37625255 5.81910241,4.37397344 5.80652005,4.36959965 L5.77148794,4.35037862 C5.71950354,4.30927037 5.71068669,4.23380387 5.75179494,4.18181948 L5.75179494,4.18181948 L7.92375079,1.43522222 L7.92375079,1.43522222 Z" id="形状结合" fill="#000000"></path>
            </g>
        </g>
    </g>
</svg>