<?xml version="1.0" encoding="UTF-8"?>
<svg width="16px" height="16px" viewBox="0 0 16 16" version="1.1" xmlns="http://www.w3.org/2000/svg" xmlns:xlink="http://www.w3.org/1999/xlink">
    <title>p-up-circle</title>
    <g id="页面-1" stroke="none" stroke-width="1" fill="none" fill-rule="evenodd">
        <g id="画板" transform="translate(-933.000000, -436.000000)" fill="#000000" fill-rule="nonzero">
            <g id="p-up-circle" transform="translate(933.000000, 436.000000)">
                <rect id="矩形" opacity="0" x="0" y="0" width="16" height="16"></rect>
                <path d="M8.1015625,5.6296875 C8.0515625,5.5609375 7.95,5.5609375 7.9,5.6296875 L5.11875,9.4734375 C5.059375,9.55625 5.11875,9.671875 5.2203125,9.671875 L5.953125,9.671875 C6.1125,9.671875 6.2640625,9.5953125 6.3578125,9.465625 L8,7.19375 L9.64375,9.465625 C9.7375,9.5953125 9.8875,9.671875 10.0484375,9.671875 L10.78125,9.671875 C10.8828125,9.671875 10.9421875,9.55625 10.8828125,9.4734375 L8.1015625,5.6296875 Z" id="路径"></path>
                <path d="M8,1 C4.134375,1 1,4.134375 1,8 C1,11.865625 4.134375,15 8,15 C11.865625,15 15,11.865625 15,8 C15,4.134375 11.865625,1 8,1 Z M8,13.8125 C4.790625,13.8125 2.1875,11.209375 2.1875,8 C2.1875,4.790625 4.790625,2.1875 8,2.1875 C11.209375,2.1875 13.8125,4.790625 13.8125,8 C13.8125,11.209375 11.209375,13.8125 8,13.8125 Z" id="形状"></path>
            </g>
        </g>
    </g>
</svg>