<?xml version="1.0" encoding="UTF-8"?>
<svg width="16px" height="16px" viewBox="0 0 16 16" version="1.1" xmlns="http://www.w3.org/2000/svg" xmlns:xlink="http://www.w3.org/1999/xlink">
    <title>p-user</title>
    <g id="页面-1" stroke="none" stroke-width="1" fill="none" fill-rule="evenodd">
        <g id="画板" transform="translate(-144.000000, -1512.000000)" fill="#000000" fill-rule="nonzero">
            <g id="p-user" transform="translate(144.000000, 1512.000000)">
                <rect id="矩形" opacity="0" x="0" y="0" width="16" height="16"></rect>
                <path d="M1.42,5.76 L2.4,5.76 C2.477,5.76 2.54,5.697 2.54,5.62 L2.54,2.54 L5.62,2.54 C5.697,2.54 5.76,2.477 5.76,2.4 L5.76,1.42 C5.76,1.343 5.697,1.28 5.62,1.28 L2.47,1.28 C1.812,1.28 1.28,1.812 1.28,2.47 L1.28,5.62 C1.28,5.697 1.343,5.76 1.42,5.76 Z M10.38,2.54 L13.46,2.54 L13.46,5.62 C13.46,5.697 13.523,5.76 13.6,5.76 L14.58,5.76 C14.657,5.76 14.72,5.697 14.72,5.62 L14.72,2.47 C14.72,1.812 14.188,1.28 13.53,1.28 L10.38,1.28 C10.303,1.28 10.24,1.343 10.24,1.42 L10.24,2.4 C10.24,2.477 10.303,2.54 10.38,2.54 Z M5.62,13.46 L2.54,13.46 L2.54,10.38 C2.54,10.303 2.477,10.24 2.4,10.24 L1.42,10.24 C1.343,10.24 1.28,10.303 1.28,10.38 L1.28,13.53 C1.28,14.188 1.812,14.72 2.47,14.72 L5.62,14.72 C5.697,14.72 5.76,14.657 5.76,14.58 L5.76,13.6 C5.76,13.523 5.697,13.46 5.62,13.46 Z M14.58,10.24 L13.6,10.24 C13.523,10.24 13.46,10.303 13.46,10.38 L13.46,13.46 L10.38,13.46 C10.303,13.46 10.24,13.523 10.24,13.6 L10.24,14.58 C10.24,14.657 10.303,14.72 10.38,14.72 L13.53,14.72 C14.188,14.72 14.72,14.188 14.72,13.53 L14.72,10.38 C14.72,10.303 14.657,10.24 14.58,10.24 Z M14.86,7.37 L1.14,7.37 C1.063,7.37 1,7.433 1,7.51 L1,8.49 C1,8.567 1.063,8.63 1.14,8.63 L14.86,8.63 C14.937,8.63 15,8.567 15,8.49 L15,7.51 C15,7.433 14.937,7.37 14.86,7.37 Z" id="形状"></path>
            </g>
        </g>
    </g>
</svg>