<?xml version="1.0" encoding="UTF-8"?>
<svg width="16px" height="16px" viewBox="0 0 16 16" version="1.1" xmlns="http://www.w3.org/2000/svg" xmlns:xlink="http://www.w3.org/1999/xlink">
    <title>p-vertical-left</title>
    <g id="页面-1" stroke="none" stroke-width="1" fill="none" fill-rule="evenodd">
        <g id="画板" transform="translate(-282.000000, -1896.000000)">
            <g id="p-vertical-left" transform="translate(282.000000, 1896.000000)">
                <rect id="矩形" fill="#D8D8D8" opacity="0" x="0" y="0" width="16" height="16"></rect>
                <path d="M12.7501146,1 C12.8163887,1 12.8701146,1.05372583 12.8701146,1.12 L12.8701146,14.88 C12.8701146,14.9462742 12.8163887,15 12.7501146,15 L11.6731826,15 C11.6069084,15 11.5531826,14.9462742 11.5531826,14.88 L11.553,7.979 L3.32683143,14.8369532 C3.27592248,14.879386 3.20025402,14.8725148 3.1578212,14.8216058 C3.13984486,14.8000386 3.13,14.7728509 3.13,14.7447744 L3.13,13.3421536 C3.13,13.3065479 3.14581179,13.2727809 3.17316056,13.2499815 L9.49382055,7.98075253 L3.17348224,2.74901754 C3.14594146,2.72622033 3.13,2.69233022 3.13,2.6565782 L3.13,1.25914337 C3.13,1.1928692 3.18372583,1.13914337 3.25,1.13914337 C3.27793422,1.13914337 3.30499327,1.14888884 3.32651274,1.16669988 L11.553,7.975 L11.5531826,1.12 C11.5531826,1.05372583 11.6069084,1 11.6731826,1 L12.7501146,1 Z" id="形状结合" fill="#000000" fill-rule="nonzero"></path>
            </g>
        </g>
    </g>
</svg>