<?xml version="1.0" encoding="UTF-8"?>
<svg width="16px" height="16px" viewBox="0 0 16 16" version="1.1" xmlns="http://www.w3.org/2000/svg" xmlns:xlink="http://www.w3.org/1999/xlink">
    <title>p-vertical-align-middl</title>
    <g id="页面-1" stroke="none" stroke-width="1" fill="none" fill-rule="evenodd">
        <g id="画板" transform="translate(-230.000000, -1896.000000)">
            <g id="p-vertical-align-middl" transform="translate(230.000000, 1896.000000)">
                <rect id="矩形" fill="#D8D8D8" opacity="0" x="0" y="0" width="16" height="16"></rect>
                <path d="M7.89263488,9.86998353 C7.94479732,9.82910144 8.02022482,9.83824596 8.06110691,9.8904084 L8.06110691,9.8904084 L9.74362315,12.0371711 C9.76017826,12.0582942 9.7691747,12.0843571 9.7691747,12.1111947 C9.7691747,12.1774689 9.71544887,12.2311947 9.6491747,12.2311947 L9.6491747,12.2311947 L8.60493193,12.232 L8.60532879,14.88 C8.60532879,14.9462742 8.55160296,15 8.48532879,15 L8.48532879,15 L7.44798812,15 C7.38171395,15 7.32798812,14.9462742 7.32798812,14.88 L7.32798812,14.88 L7.32793193,12.232 L6.28414221,12.2311947 C6.25730465,12.2311947 6.23124169,12.2221983 6.21011864,12.2056432 C6.1579562,12.1647611 6.14881167,12.0893336 6.18969376,12.0371711 L6.18969376,12.0371711 L7.87221001,9.8904084 C7.87817106,9.88280255 7.88502902,9.87594459 7.89263488,9.86998353 Z M13.8095845,7.35265069 C13.8758587,7.35265069 13.9295845,7.40637652 13.9295845,7.47265069 L13.9295845,8.50999136 C13.9295845,8.57626553 13.8758587,8.62999136 13.8095845,8.62999136 L2.12,8.62999136 C2.05372583,8.62999136 2,8.57626553 2,8.50999136 L2,7.47265069 C2,7.40637652 2.05372583,7.35265069 2.12,7.35265069 L13.8095845,7.35265069 Z M8.48532879,1 C8.55160296,1 8.60532879,1.05372583 8.60532879,1.12 L8.60493193,3.768 L9.6491747,3.76880529 C9.71544887,3.76880529 9.7691747,3.82253112 9.7691747,3.88880529 C9.7691747,3.91564285 9.76017826,3.94170581 9.74362315,3.96282887 L8.06110691,6.1095916 C8.02022482,6.16175404 7.94479732,6.17089856 7.89263488,6.13001647 C7.88502902,6.12405541 7.87817106,6.11719745 7.87221001,6.1095916 L6.18969376,3.96282887 C6.14881167,3.91066643 6.1579562,3.83523893 6.21011864,3.79435684 C6.23124169,3.77780173 6.25730465,3.76880529 6.28414221,3.76880529 L7.32793193,3.768 L7.32798812,1.12 C7.32798812,1.05372583 7.38171395,1 7.44798812,1 L8.48532879,1 Z" id="形状结合" fill="#000000"></path>
            </g>
        </g>
    </g>
</svg>