<?xml version="1.0" encoding="UTF-8"?>
<svg width="16px" height="16px" viewBox="0 0 16 16" version="1.1" xmlns="http://www.w3.org/2000/svg" xmlns:xlink="http://www.w3.org/1999/xlink">
    <title>p-vertical-align-bottom</title>
    <g id="页面-1" stroke="none" stroke-width="1" fill="none" fill-rule="evenodd">
        <g id="画板" transform="translate(-204.000000, -1896.000000)">
            <g id="p-vertical-align-bottom" transform="translate(204.000000, 1896.000000)">
                <rect id="矩形" fill="#D8D8D8" opacity="0" x="0" y="0" width="16" height="16"></rect>
                <path d="M14.88,13.4036221 C14.9462742,13.4036221 15,13.4573479 15,13.5236221 L15,14.5926205 C15,14.6588947 14.9462742,14.7126205 14.88,14.7126205 L1.12,14.7126205 C1.05372583,14.7126205 1,14.6588947 1,14.5926205 L1,13.5236221 C1,13.4573479 1.05372583,13.4036221 1.12,13.4036221 L14.88,13.4036221 Z M8.55843413,1.29 C8.6247083,1.29 8.67843413,1.34372583 8.67843413,1.41 L8.67843413,1.41 L8.67799496,8.14776491 L10.209526,8.14748992 L10.2474553,8.1536076 C10.2951414,8.16948219 10.329526,8.21447058 10.329526,8.26748992 C10.329526,8.29450613 10.3204095,8.32073191 10.303652,8.34192299 L10.303652,8.34192299 L8.1149464,11.1097016 L8.07857679,11.1404904 C8.03757253,11.1629741 7.98537555,11.1602258 7.94638725,11.1293946 C7.93908085,11.1236168 7.93247202,11.117008 7.92669425,11.1097016 L7.92669425,11.1097016 L5.73798861,8.34192299 L5.71641279,8.29943556 C5.70398676,8.25435274 5.71869331,8.20419504 5.75768161,8.17336385 L5.75768161,8.17336385 L5.79271372,8.15414282 C5.80529608,8.14976903 5.81860658,8.14748992 5.83211468,8.14748992 L5.83211468,8.14748992 L7.36299496,8.14776491 L7.36320652,1.41 C7.36320652,1.34372583 7.41693235,1.29 7.48320652,1.29 L7.48320652,1.29 Z" id="形状结合" fill="#000000" fill-rule="nonzero"></path>
            </g>
        </g>
    </g>
</svg>