<?xml version="1.0" encoding="UTF-8"?>
<svg width="16px" height="16px" viewBox="0 0 16 16" version="1.1" xmlns="http://www.w3.org/2000/svg" xmlns:xlink="http://www.w3.org/1999/xlink">
    <title>p-verified</title>
    <g id="页面-1" stroke="none" stroke-width="1" fill="none" fill-rule="evenodd">
        <g id="画板" transform="translate(-175.000000, -1512.000000)" fill="#000000" fill-rule="nonzero">
            <g id="p-verified" transform="translate(175.000000, 1512.000000)">
                <rect id="矩形" opacity="0" x="0" y="0" width="16" height="16"></rect>
                <path d="M6.996875,9.2 L6.8828125,8.6921875 C6.8796875,8.6765625 6.8734375,8.6625 6.865625,8.65 C6.8265625,8.5921875 6.75,8.5765625 6.6921875,8.615625 L6.328125,8.859375 L6.328125,6.421875 C6.328125,6.353125 6.271875,6.296875 6.203125,6.296875 L4.9375,6.296875 C4.86875,6.296875 4.8125,6.353125 4.8125,6.421875 L4.8125,6.984375 C4.8125,7.053125 4.86875,7.109375 4.9375,7.109375 L5.515625,7.109375 L5.515625,10.115625 C5.515625,10.1421875 5.5234375,10.1671875 5.5390625,10.1890625 C5.5796875,10.2453125 5.6578125,10.2578125 5.7140625,10.2171875 L6.9484375,9.3296875 C6.9890625,9.3 7.0078125,9.25 6.996875,9.2 L6.996875,9.2 Z M6.1109375,5.815625 L6.1140625,5.81875 C6.1640625,5.865625 6.24375,5.8625 6.290625,5.8109375 L6.6671875,5.4015625 C6.7125,5.3515625 6.7109375,5.275 6.6625,5.2265625 L5.8234375,4.4125 C5.775,4.365625 5.696875,4.365625 5.6484375,4.4140625 L5.2625,4.8 C5.2140625,4.8484375 5.2140625,4.928125 5.2640625,4.9765625 L6.1109375,5.815625 L6.1109375,5.815625 Z M13.5453125,2.6546875 L8.2359375,0.8453125 C8.171875,0.8234375 8.0859375,0.8125 8,0.8125 C7.9140625,0.8125 7.828125,0.8234375 7.7640625,0.8453125 L2.4546875,2.6546875 C2.325,2.6984375 2.21875,2.8484375 2.21875,2.9859375 L2.21875,10.5234375 C2.21875,10.6609375 2.3078125,10.8421875 2.415625,10.928125 L7.8015625,15.125 C7.85625,15.1671875 7.9265625,15.1890625 7.9984375,15.1890625 C8.0703125,15.1890625 8.1421875,15.1671875 8.1953125,15.125 L13.58125,10.928125 C13.6890625,10.84375 13.7782566,10.6625 13.7782566,10.5234375 L13.7782566,2.9859375 C13.78125,2.8484375 13.675,2.7 13.5453125,2.6546875 Z M12.65625,10.2234375 L8,13.8515625 L3.34375,10.2234375 L3.34375,3.5421875 L8,1.9546875 L12.65625,3.5421875 L12.65625,10.2234375 Z M7.0625,4.640625 L7.0625,5.203125 C7.0625,5.271875 7.11875,5.328125 7.1875,5.328125 L8.875,5.328125 L8.875,9.609375 L8.28125,9.609375 L8.28125,6.328125 C8.28125,6.259375 8.225,6.203125 8.15625,6.203125 L7.609375,6.203125 C7.540625,6.203125 7.484375,6.259375 7.484375,6.328125 L7.484375,9.609375 L7,9.609375 C6.93125,9.609375 6.875,9.665625 6.875,9.734375 L6.875,10.3125 C6.875,10.38125 6.93125,10.4375 7,10.4375 L10.8125,10.4375 C10.88125,10.4375 10.9375,10.38125 10.9375,10.3125 L10.9375,9.734375 C10.9375,9.665625 10.88125,9.609375 10.8125,9.609375 L9.6875,9.609375 L9.6875,7.703125 L10.59375,7.703125 C10.6625,7.703125 10.71875,7.646875 10.71875,7.578125 L10.71875,7.03125 C10.71875,6.9625 10.6625,6.90625 10.59375,6.90625 L9.6875,6.90625 L9.6875,5.328125 L10.671875,5.328125 C10.740625,5.328125 10.796875,5.271875 10.796875,5.203125 L10.796875,4.640625 C10.796875,4.571875 10.740625,4.515625 10.671875,4.515625 L7.1875,4.515625 C7.11875,4.515625 7.0625,4.571875 7.0625,4.640625 Z" id="形状"></path>
            </g>
        </g>
    </g>
</svg>