<?xml version="1.0" encoding="UTF-8"?>
<svg width="16px" height="16px" viewBox="0 0 16 16" version="1.1" xmlns="http://www.w3.org/2000/svg" xmlns:xlink="http://www.w3.org/1999/xlink">
    <title>p-videocamera-add</title>
    <g id="页面-1" stroke="none" stroke-width="1" fill="none" fill-rule="evenodd">
        <g id="画板" transform="translate(-236.000000, -1512.000000)" fill="#000000" fill-rule="nonzero">
            <g id="p-videocamera-add" transform="translate(236.000000, 1512.000000)">
                <rect id="矩形" opacity="0" x="0" y="0" width="16" height="16"></rect>
                <path d="M5.75,11.3125 L3.9375,11.3125 L3.9375,9.5 C3.9375,9.43125 3.88125,9.375 3.8125,9.375 L3.0625,9.375 C2.99375,9.375 2.9375,9.43125 2.9375,9.5 L2.9375,11.3125 L1.125,11.3125 C1.05625,11.3125 1,11.36875 1,11.4375 L1,12.1875 C1,12.25625 1.05625,12.3125 1.125,12.3125 L2.9375,12.3125 L2.9375,14.125 C2.9375,14.19375 2.99375,14.25 3.0625,14.25 L3.8125,14.25 C3.88125,14.25 3.9375,14.19375 3.9375,14.125 L3.9375,12.3125 L5.75,12.3125 C5.81875,12.3125 5.875,12.25625 5.875,12.1875 L5.875,11.4375 C5.875,11.36875 5.81875,11.3125 5.75,11.3125 Z M14.25,4.7234375 L12.25,5.875 L12.25,3.5 C12.25,2.9484375 11.8015625,2.5 11.25,2.5 L2,2.5 C1.4484375,2.5 1,2.9484375 1,3.5 L1,9 L2.125,9 L2.125,3.625 L11.125,3.625 L11.125,12.375 L7,12.375 L7,13.5 L11.25,13.5 C11.8015625,13.5 12.25,13.0515625 12.25,12.5 L12.25,10.125 L14.25,11.2765625 C14.5828125,11.46875 15,11.228125 15,10.8453125 L15,5.15625 C15,4.771875 14.5828125,4.53125 14.25,4.7234375 Z M13.875,9.765625 L12.25,8.83125 L12.25,7.1703125 L13.875,6.234375 L13.875,9.765625 Z M5,5.625 C5.06875,5.625 5.125,5.56875 5.125,5.5 L5.125,4.75 C5.125,4.68125 5.06875,4.625 5,4.625 L3.25,4.625 C3.18125,4.625 3.125,4.68125 3.125,4.75 L3.125,5.5 C3.125,5.56875 3.18125,5.625 3.25,5.625 L5,5.625 Z" id="形状"></path>
            </g>
        </g>
    </g>
</svg>