<?xml version="1.0" encoding="UTF-8"?>
<svg width="16px" height="16px" viewBox="0 0 16 16" version="1.1" xmlns="http://www.w3.org/2000/svg" xmlns:xlink="http://www.w3.org/1999/xlink">
    <title>p-wallet</title>
    <g id="页面-1" stroke="none" stroke-width="1" fill="none" fill-rule="evenodd">
        <g id="画板" transform="translate(-267.000000, -1512.000000)" fill="#000000" fill-rule="nonzero">
            <g id="p-wallet" transform="translate(267.000000, 1512.000000)">
                <rect id="矩形" opacity="0" x="0" y="0" width="16" height="16"></rect>
                <path d="M14.44,1 L1.56,1 C1.25025,1 1,1.25025 1,1.56 L1,14.44 C1,14.74975 1.25025,15 1.56,15 L14.44,15 C14.74975,15 15,14.74975 15,14.44 L15,1.56 C15,1.25025 14.74975,1 14.44,1 Z M13.74,9.12 L8.28,9.12 L8.28,6.88 L13.74,6.88 L13.74,9.12 Z M13.74,13.74 L2.26,13.74 L2.26,2.26 L13.74,2.26 L13.74,5.76 L7.72,5.76 C7.41025,5.76 7.16,6.01025 7.16,6.32 L7.16,9.68 C7.16,9.98975 7.41025,10.24 7.72,10.24 L13.74,10.24 L13.74,13.74 Z M9.19,8 C9.19,8.38659933 9.50340067,8.7 9.89,8.7 C10.2765994,8.7 10.59,8.38659933 10.59,8 C10.59,7.61340067 10.2765994,7.3 9.89,7.3 C9.50340067,7.3 9.19,7.61340067 9.19,8 Z" id="形状"></path>
            </g>
        </g>
    </g>
</svg>