<?xml version="1.0" encoding="UTF-8"?>
<svg width="16px" height="16px" viewBox="0 0 16 16" version="1.1" xmlns="http://www.w3.org/2000/svg" xmlns:xlink="http://www.w3.org/1999/xlink">
    <title>p-wifi</title>
    <g id="页面-1" stroke="none" stroke-width="1" fill="none" fill-rule="evenodd">
        <g id="画板" transform="translate(-298.000000, -1512.000000)" fill="#000000" fill-rule="nonzero">
            <g id="p-wifi" transform="translate(298.000000, 1512.000000)">
                <rect id="矩形" opacity="0" x="0" y="0" width="16" height="16"></rect>
                <path d="M7.99689434,11.1569133 C8.59599337,11.1569133 9.08165913,11.6425791 9.08165913,12.2416781 C9.08165913,12.8407771 8.59599337,13.3264429 7.99689434,13.3264429 C7.3977953,13.3264429 6.91212954,12.8407771 6.91212954,12.2416781 C6.91212954,11.6425791 7.3977953,11.1569133 7.99689434,11.1569133 Z M8.01230293,8.4092534 C9.24280956,8.4092534 10.4038304,8.85211281 11.3132042,9.64336665 C11.3890543,9.71002277 11.4094059,9.81721054 11.3690535,9.90415726 L11.3375159,9.95341018 L10.7822951,10.6150434 C10.7022626,10.7088746 10.5614344,10.7199701 10.4665249,10.6390041 C9.79311398,10.0474528 8.92920265,9.71590191 8.01230293,9.71590191 C7.09488886,9.71590191 6.23109436,10.0477994 5.55699419,10.6414857 C5.4788086,10.7081735 5.36798029,10.7115828 5.2865982,10.6562165 L5.24179921,10.6159796 L4.68650724,9.9542501 C4.60988837,9.86121291 4.62009272,9.72345429 4.71021624,9.64459667 C5.62051068,8.8523333 6.78144553,8.4092534 8.01230293,8.4092534 Z M8.01230293,5.53955745 C9.90537209,5.53955745 11.6960534,6.20026409 13.1197658,7.3864257 C13.1985397,7.45129827 13.2200116,7.5598422 13.1796781,7.64922799 L13.1480253,7.70005786 L12.5938988,8.36038547 C12.5160596,8.45490439 12.3768655,8.46693352 12.2821256,8.38891083 C11.0915816,7.39835324 9.59351678,6.84620595 8.01230293,6.84620595 C6.43128627,6.84620595 4.93322053,7.39820804 3.741668,8.38829862 C3.66416247,8.45406089 3.55296014,8.45657963 3.47326415,8.40121113 L3.42974893,8.36108641 L2.87445696,7.69935692 C2.79675671,7.60500662 2.80877058,7.46427278 2.90290805,7.38674949 C4.32881492,6.20009953 6.11945568,5.53955745 8.01230293,5.53955745 Z M7.98148575,2.66 C10.5461887,2.66 12.9761899,3.54554659 14.9168624,5.13773899 C14.9979854,5.20263739 15.0211556,5.31236287 14.9801228,5.40165294 L14.9477487,5.45225263 L14.3936222,6.11258024 C14.3158679,6.2069962 14.1766789,6.22074326 14.0824677,6.14315697 C12.3720949,4.74347571 10.2372058,3.9666485 7.98148575,3.9666485 C5.74139943,3.9666485 3.62061392,4.7322679 1.91593591,6.11388689 C1.83866258,6.17711053 1.72979417,6.17810847 1.65047157,6.1234362 L1.60691264,6.08400486 L1.05180889,5.42250323 C0.972142129,5.32635369 0.985879193,5.18469023 1.08250574,5.10739264 C3.01951082,3.53347605 5.43367914,2.66 7.98148575,2.66 Z" id="形状"></path>
            </g>
        </g>
    </g>
</svg>