<?xml version="1.0" encoding="UTF-8"?>
<svg width="16px" height="16px" viewBox="0 0 16 16" version="1.1" xmlns="http://www.w3.org/2000/svg" xmlns:xlink="http://www.w3.org/1999/xlink">
    <title>p-woman</title>
    <g id="页面-1" stroke="none" stroke-width="1" fill="none" fill-rule="evenodd">
        <g id="画板" transform="translate(-329.000000, -1512.000000)" fill="#000000" fill-rule="nonzero">
            <g id="p-woman" transform="translate(329.000000, 1512.000000)">
                <rect id="矩形" opacity="0" x="0" y="0" width="16" height="16"></rect>
                <path d="M11.1375,8.575 C11.975,7.7375 12.4375,6.621875 12.4375,5.4375 C12.4375,4.2515625 11.9765625,3.1375 11.1375,2.3 C10.3,1.4625 9.184375,1 8,1 C6.815625,1 5.7,1.4609375 4.8625,2.3 C4.025,3.1390625 3.5625,4.2515625 3.5625,5.4375 C3.5625,6.434375 3.8890625,7.38125 4.490625,8.1546875 C4.6046875,8.3015625 4.728125,8.440625 4.8609375,8.575 C4.99375,8.7078125 5.134375,8.83125 5.2796875,8.9453125 C5.8984375,9.4265625 6.628125,9.7328125 7.40625,9.8359375 L7.40625,11.5 L5.625,11.5 C5.55625,11.5 5.5,11.55625 5.5,11.625 L5.5,12.5625 C5.5,12.63125 5.55625,12.6875 5.625,12.6875 L7.40625,12.6875 L7.40625,14.875 C7.40625,14.94375 7.4625,15 7.53125,15 L8.46875,15 C8.5375,15 8.59375,14.94375 8.59375,14.875 L8.59375,12.6875 L10.375,12.6875 C10.44375,12.6875 10.5,12.63125 10.5,12.5625 L10.5,11.625 C10.5,11.55625 10.44375,11.5 10.375,11.5 L8.59375,11.5 L8.59375,9.8359375 C9.5546875,9.7078125 10.440625,9.271875 11.1375,8.575 Z M8,8.6875 C7.13125,8.6875 6.3171875,8.35 5.7015625,7.7359375 C5.0875,7.121875 4.75,6.30625 4.75,5.4375 C4.75,4.56875 5.0875,3.7546875 5.7015625,3.1390625 C6.315625,2.5234375 7.13125,2.1875 8,2.1875 C8.86875,2.1875 9.6828125,2.525 10.2984375,3.1390625 C10.9125,3.753125 11.25,4.56875 11.25,5.4375 C11.25,6.30625 10.9125,7.1203125 10.2984375,7.7359375 C9.6828125,8.35 8.86875,8.6875 8,8.6875 Z" id="形状"></path>
            </g>
        </g>
    </g>
</svg>