<?xml version="1.0" encoding="UTF-8"?>
<svg width="16px" height="16px" viewBox="0 0 16 16" version="1.1" xmlns="http://www.w3.org/2000/svg" xmlns:xlink="http://www.w3.org/1999/xlink">
    <title>p-wrench</title>
    <g id="页面-1" stroke="none" stroke-width="1" fill="none" fill-rule="evenodd">
        <g id="画板" transform="translate(-359.000000, -1512.000000)" fill="#000000" fill-rule="nonzero">
            <g id="p-wrench" transform="translate(359.000000, 1512.000000)">
                <rect id="矩形" opacity="0" x="0" y="0" width="16" height="16"></rect>
                <path d="M14.3795378,3.20670953 C14.370774,3.1909347 14.3585047,3.17515986 14.3444826,3.16289055 C14.2568446,3.07525257 14.1148711,3.07525257 14.0272332,3.16289055 L11.0072285,6.18289516 L9.81710484,4.99277146 L12.8388622,1.97101409 C12.8528843,1.95699201 12.8634008,1.94296994 12.8739174,1.9271951 C12.9370167,1.82027677 12.9019616,1.68356153 12.7950432,1.62046219 C11.0738334,0.603861684 8.81978469,0.836978696 7.33870292,2.31630771 C6.16435406,3.49065657 5.77524145,5.15577809 6.17311785,6.6526347 L1.03753253,11.78822 C0.984949749,11.8408028 0.988455268,11.926688 1.04279081,11.9810236 L4.01722368,14.9554564 C4.07155922,15.009792 4.15919719,15.0132975 4.21002722,14.9607147 L9.34385978,9.82688215 C10.8424691,10.2265113 12.5075907,9.83915146 13.6836923,8.66304984 C15.1630213,7.18196807 15.3961383,4.92791936 14.3795378,3.20670953 Z M12.7915377,7.7691425 C11.7731844,8.78749577 10.2447782,8.98380483 9.03011583,8.35806969 L8.875873,8.51231252 L8.87412024,8.51055977 L4.07155922,13.3148735 L2.6833737,11.926688 L6.7164733,7.89358842 C6.7164733,7.89358842 6.7164733,7.89534118 6.71822606,7.89534118 L7.64368307,6.96988417 C7.01794793,5.75522184 7.21425699,4.22681556 8.23261026,3.20846229 C8.91969198,2.52138057 9.84690176,2.2041311 10.7565839,2.27073596 L8.42716656,4.59840057 C8.20807163,4.81749551 8.20807163,5.17330569 8.42716656,5.39240062 L10.6093521,7.57458619 C10.8284471,7.79368113 11.1842573,7.79368113 11.4033522,7.57458619 L13.7310168,5.24692159 C13.7958689,6.154851 13.4786194,7.08381354 12.7915377,7.7691425 Z" id="形状"></path>
            </g>
        </g>
    </g>
</svg>