<?xml version="1.0" encoding="UTF-8"?>
<svg width="16px" height="16px" viewBox="0 0 16 16" version="1.1" xmlns="http://www.w3.org/2000/svg" xmlns:xlink="http://www.w3.org/1999/xlink">
    <title>p-yuan</title>
    <g id="页面-1" stroke="none" stroke-width="1" fill="none" fill-rule="evenodd">
        <g id="画板" transform="translate(-390.000000, -1512.000000)" fill="#000000" fill-rule="nonzero">
            <g id="p-yuan" transform="translate(390.000000, 1512.000000)">
                <rect id="矩形" opacity="0" x="0" y="0" width="16" height="16"></rect>
                <path d="M8,1 C4.134375,1 1,4.134375 1,8 C1,11.865625 4.134375,15 8,15 C11.865625,15 15,11.865625 15,8 C15,4.134375 11.865625,1 8,1 Z M8,13.8125 C4.790625,13.8125 2.1875,11.209375 2.1875,8 C2.1875,4.790625 4.790625,2.1875 8,2.1875 C11.209375,2.1875 13.8125,4.790625 13.8125,8 C13.8125,11.209375 11.209375,13.8125 8,13.8125 Z M10.49375,4.671875 L9.5640625,4.671875 C9.5171875,4.671875 9.4734375,4.6984375 9.453125,4.740625 L8.0375,7.553125 L7.984375,7.553125 L6.56875,4.740625 C6.546875,4.6984375 6.5046875,4.671875 6.4578125,4.671875 L5.509375,4.671875 C5.4890625,4.671875 5.46875,4.6765625 5.45,4.6875 C5.3890625,4.7203125 5.3671875,4.796875 5.4,4.8578125 L7.140625,8.0578125 L6.18125,8.0578125 C6.1125,8.0578125 6.05625,8.1140625 6.05625,8.1828125 L6.05625,8.65 C6.05625,8.71875 6.1125,8.775 6.18125,8.775 L7.4578125,8.775 L7.4578125,9.421875 L6.18125,9.421875 C6.1125,9.421875 6.05625,9.478125 6.05625,9.546875 L6.05625,10.0140625 C6.05625,10.0828125 6.1125,10.1390625 6.18125,10.1390625 L7.4578125,10.1390625 L7.4578125,11.203125 C7.4578125,11.271875 7.5140625,11.328125 7.5828125,11.328125 L8.43125,11.328125 C8.5,11.328125 8.55625,11.271875 8.55625,11.203125 L8.55625,10.1390625 L9.8375,10.1390625 C9.90625,10.1390625 9.9625,10.0828125 9.9625,10.0140625 L9.9625,9.546875 C9.9625,9.478125 9.90625,9.421875 9.8375,9.421875 L8.55625,9.421875 L8.55625,8.7734375 L9.8375,8.7734375 C9.90625,8.7734375 9.9625,8.7171875 9.9625,8.6484375 L9.9625,8.18125 C9.9625,8.1125 9.90625,8.05625 9.8375,8.05625 L8.86875,8.05625 L10.6046875,4.85625 C10.6140625,4.8375 10.6203125,4.8171875 10.6203125,4.796875 C10.61875,4.728125 10.5625,4.671875 10.49375,4.671875 Z" id="形状"></path>
            </g>
        </g>
    </g>
</svg>