<?xml version="1.0" encoding="UTF-8"?>
<svg width="16px" height="16px" viewBox="0 0 16 16" version="1.1" xmlns="http://www.w3.org/2000/svg" xmlns:xlink="http://www.w3.org/1999/xlink">
    <title>p-zoom-out</title>
    <g id="页面-1" stroke="none" stroke-width="1" fill="none" fill-rule="evenodd">
        <g id="画板" transform="translate(-359.000000, -1896.000000)">
            <g id="p-zoom-out" transform="translate(359.000000, 1896.000000)">
                <rect id="矩形" fill="#D8D8D8" opacity="0" x="0" y="0" width="16" height="16"></rect>
                <path d="M7.45,1 C11.0122366,1 13.9,3.88776336 13.9,7.45 C13.9,8.98963405 13.3605501,10.4032728 12.4603496,11.5122172 L14.9657762,14.0177545 C15.0126391,14.0646174 15.0126391,14.1405972 14.9657762,14.1874601 L14.216243,14.9369933 C14.1693801,14.9838562 14.0934003,14.9838562 14.0465374,14.9369933 L11.5441047,12.434296 C10.4304324,13.3501317 9.00443053,13.9 7.45,13.9 C3.88776336,13.9 1,11.0122366 1,7.45 C1,3.88776336 3.88776336,1 7.45,1 Z M7.45,2.3 C4.60573354,2.3 2.3,4.60573354 2.3,7.45 C2.3,10.2942665 4.60573354,12.6 7.45,12.6 C10.2942665,12.6 12.6,10.2942665 12.6,7.45 C12.6,4.60573354 10.2942665,2.3 7.45,2.3 Z M10.0971955,6.85 C10.1634697,6.85 10.2171955,6.90372583 10.2171955,6.97 L10.2171955,8.03 C10.2171955,8.09627417 10.1634697,8.15 10.0971955,8.15 L4.76346399,8.15 C4.69718982,8.15 4.64346399,8.09627417 4.64346399,8.03 L4.64346399,6.97 C4.64346399,6.90372583 4.69718982,6.85 4.76346399,6.85 L10.0971955,6.85 Z" id="形状结合" fill="#000000" fill-rule="nonzero"></path>
            </g>
        </g>
    </g>
</svg>