<?xml version="1.0" encoding="utf-8"?>
<!-- Generator: Adobe Illustrator 16.0.0, SVG Export Plug-In . SVG Version: 6.00 Build 0)  -->
<!DOCTYPE svg PUBLIC "-//W3C//DTD SVG 1.1//EN" "http://www.w3.org/Graphics/SVG/1.1/DTD/svg11.dtd">
<svg version="1.1" id="图层_1" xmlns="http://www.w3.org/2000/svg" xmlns:xlink="http://www.w3.org/1999/xlink" x="0px" y="0px"
	 width="200px" height="200px" viewBox="0 0 200 200" enable-background="new 0 0 200 200" xml:space="preserve">
<path d="M170.996,32.015H29.004c-6.653,0-12.065,5.412-12.065,12.065v111.84c0,6.653,5.412,12.065,12.065,12.065h141.992
	c6.652,0,12.064-5.412,12.064-12.065V44.08C183.061,37.427,177.648,32.015,170.996,32.015L170.996,32.015z M80.546,50.436
	c0,3.009-2.44,5.449-5.449,5.449c-3.01,0-5.449-2.44-5.449-5.449c0-3.01,2.439-5.449,5.449-5.449
	C78.106,44.986,80.546,47.426,80.546,50.436L80.546,50.436z M62.155,50.436c0,3.009-2.44,5.449-5.449,5.449
	c-3.01,0-5.449-2.44-5.449-5.449c0-3.01,2.439-5.449,5.449-5.449C59.715,44.986,62.155,47.426,62.155,50.436z M43.763,50.436
	c0,3.009-2.439,5.449-5.449,5.449c-3.009,0-5.449-2.44-5.449-5.449c0-3.01,2.44-5.449,5.449-5.449
	C41.324,44.986,43.763,47.426,43.763,50.436z M170.996,161.855H29.004c-3.272,0-5.935-2.662-5.935-5.936V66.615h153.86v89.305
	C176.93,159.192,174.268,161.854,170.996,161.855L170.996,161.855z M151.387,92.157H85.996c-1.692,0-3.065,1.373-3.065,3.065
	c0,1.692,1.373,3.065,3.065,3.065h65.391c1.693,0,3.065-1.373,3.065-3.065C154.452,93.53,153.08,92.157,151.387,92.157
	L151.387,92.157z M151.387,125.324H51.938c-1.692,0-3.065,1.373-3.065,3.064c0,1.692,1.373,3.065,3.065,3.065h99.449
	c1.693,0,3.066-1.373,3.066-3.065C154.453,126.697,153.08,125.324,151.387,125.324L151.387,125.324z"/>
</svg>
