<?xml version="1.0" standalone="no"?><!DOCTYPE svg PUBLIC "-//W3C//DTD SVG 1.1//EN" "http://www.w3.org/Graphics/SVG/1.1/DTD/svg11.dtd"><svg t="1571972576313" class="icon" viewBox="0 0 1024 1024" version="1.1" xmlns="http://www.w3.org/2000/svg" p-id="4931" xmlns:xlink="http://www.w3.org/1999/xlink" width="200" height="200"><defs><style type="text/css"></style></defs><path d="M817.09056 362.56768h-81.80736c0-134.7584-100.42368-237.74208-228.41344-237.74208-128.18432 0-228.42368 102.98368-228.42368 237.74208h-81.9712c0-161.7408 139.07968-321.6384 310.21056-321.6384 171.14112 0 310.40512 159.8976 310.40512 321.6384m103.8336 137.86112c0-46.26432-36.68992-83.89632-81.8176-83.89632H183.57248c-45.1072 0-81.80736 37.632-81.80736 83.89632v398.35648c0 46.26432 36.70016 83.89632 81.80736 83.89632h655.36c45.1072 0 81.80736-37.632 81.80736-83.89632V500.4288h0.18432M576.1536 811.96032c0 34.69312-27.392 62.95552-61.39904 62.95552h-8.77568c-33.83296 0-61.39904-28.07808-61.39904-62.95552V641.2288c0-34.69312 27.38176-62.96576 61.39904-62.96576h8.77568c33.83296 0 61.39904 28.08832 61.39904 62.96576v170.73152m0 0z" p-id="4932"></path></svg>