<?xml version="1.0" encoding="utf-8"?>
<!-- Generator: Adobe Illustrator 16.0.0, SVG Export Plug-In . SVG Version: 6.00 Build 0)  -->
<!DOCTYPE svg PUBLIC "-//W3C//DTD SVG 1.1//EN" "http://www.w3.org/Graphics/SVG/1.1/DTD/svg11.dtd">
<svg version="1.1" id="图层_1" xmlns="http://www.w3.org/2000/svg" xmlns:xlink="http://www.w3.org/1999/xlink" x="0px" y="0px"
	 width="200px" height="200px" viewBox="0 0 200 200" enable-background="new 0 0 200 200" xml:space="preserve">
<path d="M175.4,187H24.6c-6.6,0-12-5.4-12-12V24.1c0-6.6,5.4-12,12-12h150.9c6.6,0,12,5.4,12,12V175C187.4,181.6,182,187,175.4,187z
	 M177,168.6V28.5c0-3.8-3.1-7-7-7H29.9c-3.8,0-7,3.1-7,7v140.1c0,3.801,3.1,7,7,7H170C173.9,175.6,177,172.4,177,168.6L177,168.6z
	 M108.2,121.1H49.1c-6.6,0-12-5.399-12-12V50c0-6.6,5.4-12,12-12h59.1c6.6,0,12,5.4,12,12v59.1C120.2,115.7,114.8,121.1,108.2,121.1
	L108.2,121.1z M111.7,104.2V55c0-4.7-3.8-8.5-8.5-8.5H54c-4.7,0-8.5,3.8-8.5,8.5v49.2c0,4.7,3.8,8.5,8.5,8.5h49.2
	C107.9,112.6,111.7,108.8,111.7,104.2L111.7,104.2z M149.7,159.6H90.6c-6.6,0-12-5.399-12-12V88.5c0-6.6,5.4-12,12-12h59.1
	c6.6,0,12,5.4,12,12v59.1C161.7,154.2,156.3,159.6,149.7,159.6L149.7,159.6z M153.2,142.7V93.5c0-4.7-3.8-8.5-8.5-8.5H95.5
	c-4.7,0-8.5,3.8-8.5,8.5v49.2c0,4.7,3.8,8.5,8.5,8.5h49.2C149.4,151.1,153.2,147.3,153.2,142.7L153.2,142.7z"/>
</svg>
