<?xml version="1.0" standalone="no"?><!DOCTYPE svg PUBLIC "-//W3C//DTD SVG 1.1//EN" "http://www.w3.org/Graphics/SVG/1.1/DTD/svg11.dtd"><svg t="1571983313773" class="icon" viewBox="0 0 1024 1024" version="1.1" xmlns="http://www.w3.org/2000/svg" p-id="16552" xmlns:xlink="http://www.w3.org/1999/xlink" width="200" height="200"><defs><style type="text/css"></style></defs><path d="M928.942529 184.176696c0-48.629557-39.418778-88.050382-88.015589-88.050382L185.282379 96.126314c-48.64286 0-88.087221 39.396265-88.087221 88.050382l0 655.6814c0 48.641837 39.397289 88.015589 88.087221 88.015589l655.644561 0c48.595788 0 88.015589-39.373753 88.015589-88.015589L928.942529 655.754055l0 0M493.7171 881.571127l-51.700499 0c-0.047072 0-0.047072 0-0.070608 0L189.893396 881.571127c-25.564235 0-46.325072-20.738323-46.325072-46.373167L143.568325 434.701496c1.505283 0.285502 2.962471 0.916882 4.562922 0.916882 0.047072 0 0.047072-0.023536 0.095167-0.023536l340.306616 0c0.023536 0 0.071631 0.023536 0.095167 0.023536 1.815345 0 3.416819-0.654916 5.088902-1.027399L493.7171 881.571127zM493.7171 387.66932c-1.672082-0.358157-3.273557-1.025353-5.088902-1.025353L148.131247 386.643967c-1.600451 0-3.034103 0.620124-4.562922 0.931209L143.568325 188.799994c0-25.587771 20.760836-46.337351 46.325072-46.337351l303.823704 0L493.7171 387.66932zM882.592898 835.221496c0 25.611308-20.761859 46.349631-46.37112 46.349631l-293.576315 0L542.645462 669.919682c0.455371 0.023536 0.837064 0.26299 1.315972 0.26299 0.047072 0 0.047072-0.071631 0.094144-0.071631l338.53732 0L882.592898 835.221496zM882.592898 621.158119 543.961434 621.158119c-0.455371 0-0.813528 0.239454-1.292436 0.239454L542.668998 142.487202l293.576315 0c25.610284 0 46.347584 20.74958 46.347584 46.337351L882.592898 621.158119 882.592898 621.158119z" p-id="16553"></path></svg>