<?xml version="1.0" encoding="utf-8"?>
<!-- Generator: Adobe Illustrator 16.0.0, SVG Export Plug-In . SVG Version: 6.00 Build 0)  -->
<!DOCTYPE svg PUBLIC "-//W3C//DTD SVG 1.1//EN" "http://www.w3.org/Graphics/SVG/1.1/DTD/svg11.dtd">
<svg version="1.1" id="图层_1" xmlns="http://www.w3.org/2000/svg" xmlns:xlink="http://www.w3.org/1999/xlink" x="0px" y="0px"
	 width="200px" height="200px" viewBox="0 0 200 200" enable-background="new 0 0 200 200" xml:space="preserve">
<path d="M99.901,13.297c-47.775,0-86.502,38.728-86.502,86.512c0,47.776,38.728,86.503,86.502,86.503
	c47.775,0,86.503-38.729,86.503-86.503C186.404,52.024,147.677,13.297,99.901,13.297L99.901,13.297z M99.901,170.071
	c-38.805,0-70.262-31.458-70.262-70.262c0-38.813,31.457-70.27,70.262-70.27c38.805,0,70.263,31.457,70.263,70.27
	C170.164,138.613,138.706,170.071,99.901,170.071z M69.5,78c-0.007,15.188,11.628,27.506,25.987,27.514
	c14.36,0.007,26.006-12.299,26.013-27.487c0-0.009,0-0.018,0-0.026c0-15.188-11.641-27.5-26-27.5S69.5,62.812,69.5,78L69.5,78z
	 M129.5,99.805c-13.807,0-25,11.125-25,24.847c0,13.724,11.193,24.849,25,24.849s25-11.125,25-24.849
	C154.5,110.93,143.307,99.805,129.5,99.805z M127.125,139.25l-13.29-12.917L118,122.25l8,7.75l14.75-18l5.5,4.5L127.125,139.25
	L127.125,139.25z M80.5,107.834c5.5,5.541,13.75,6.916,19.5,5c-0.473,7.29-1.5,21.666,8.25,32.666l-61.083,0.001v-19.334
	C47.167,126.167,75.75,110.375,80.5,107.834z"/>
</svg>
