<?xml version="1.0" encoding="UTF-8"?>
<svg width="32px" height="32px" viewBox="0 0 32 32" version="1.1" xmlns="http://www.w3.org/2000/svg" xmlns:xlink="http://www.w3.org/1999/xlink">
    <!-- Generator: Sketch 59 (86127) - https://sketch.com -->
    <title>icons/send</title>
    <desc>Created with Sketch.</desc>
    <g id="icons/send" stroke="none" stroke-width="1" fill="none" fill-rule="evenodd">
        <rect id="Rectangle" fill="#2D3040" fill-rule="nonzero" opacity="0" x="0" y="0" width="32" height="32"></rect>
        <path d="M29.10625,15.590625 L2.965625,2.484375 C2.859375,2.43125 2.7375,2.41875 2.621875,2.446875 C2.35625,2.5125 2.190625,2.78125 2.25625,3.05 L4.95,14.05625 C4.990625,14.221875 5.1125,14.35625 5.275,14.409375 L9.890625,15.99375 L5.278125,17.578125 C5.115625,17.634375 4.99375,17.765625 4.95625,17.93125 L2.25625,28.953125 C2.228125,29.06875 2.240625,29.190625 2.29375,29.29375 C2.415625,29.540625 2.715625,29.640625 2.965625,29.51875 L29.10625,16.4875 C29.203125,16.440625 29.28125,16.359375 29.33125,16.265625 C29.453125,16.015625 29.353125,15.715625 29.10625,15.590625 Z M5.3375,25.821875 L6.909375,19.396875 L16.134375,16.23125 C16.20625,16.20625 16.265625,16.15 16.290625,16.075 C16.334375,15.94375 16.265625,15.803125 16.134375,15.75625 L6.909375,12.59375 L5.34375,6.19375 L24.96875,16.034375 L5.3375,25.821875 Z" id="Shape" fill="#2D3040" fill-rule="nonzero"></path>
    </g>
</svg>