<?xml version="1.0" standalone="no"?><!DOCTYPE svg PUBLIC "-//W3C//DTD SVG 1.1//EN" "http://www.w3.org/Graphics/SVG/1.1/DTD/svg11.dtd"><svg t="1571982473610" class="icon" viewBox="0 0 1024 1024" version="1.1" xmlns="http://www.w3.org/2000/svg" p-id="13854" xmlns:xlink="http://www.w3.org/1999/xlink" width="200" height="200"><defs><style type="text/css"></style></defs><path d="M128 213.344h768q17.664 0 30.176 12.512t12.512 30.176-12.512 30.176T896 298.72H128q-17.664 0-30.176-12.512t-12.512-30.176 12.512-30.176T128 213.344z m0 512h768q17.664 0 30.176 12.512t12.512 30.176-12.512 30.176T896 810.72H128q-17.664 0-30.176-12.512t-12.512-30.176 12.512-30.176T128 725.344z m0-256h768q17.664 0 30.176 12.512t12.512 30.176-12.512 30.176T896 554.72H128q-17.664 0-30.176-12.512t-12.512-30.176 12.512-30.176T128 469.344z" p-id="13855"></path></svg>