<?xml version="1.0" encoding="UTF-8"?>
<svg width="32px" height="32px" viewBox="0 0 32 32" version="1.1" xmlns="http://www.w3.org/2000/svg" xmlns:xlink="http://www.w3.org/1999/xlink">
    <!-- Generator: Sketch 59 (86127) - https://sketch.com -->
    <title>icons/router</title>
    <desc>Created with Sketch.</desc>
    <defs>
        <path d="M11.5353431,18.0657506 L11.0100893,11.3809083 L10.4848632,11.3809083 L9.95958181,18.0657506 L4.5757336,18.0657506 C3.70528782,18.0657506 3,18.7562238 3,19.6083857 L3,27.1142293 C3,27.9663642 3.70528782,28.6568915 4.5757336,28.6568915 L27.4242387,28.6568915 C28.2946845,28.6568915 29,27.9663642 29,27.1142293 L29,19.6083857 C29,18.7562238 28.2946845,18.0657506 27.4242387,18.0657506 L11.5353431,18.0657506 Z M6.28280552,23.3613617 C6.28280552,22.793353 6.75317254,22.3328932 7.33331303,22.3328932 C7.91345352,22.3328932 8.38384818,22.793353 8.38384818,23.3613617 C8.38384821,23.9292892 7.91345355,24.389749 7.33331303,24.389749 C6.75320018,24.389749 6.28280552,23.9292621 6.28280552,23.3613617 Z M9.43432807,23.3613617 C9.43432807,22.793353 9.90472272,22.3328932 10.4848632,22.3328932 C11.0649484,22.3328932 11.5353707,22.793353 11.5353707,23.3613617 C11.5353431,23.9292892 11.0649484,24.389749 10.4848632,24.389749 C9.90472272,24.389749 9.43432807,23.9292621 9.43432807,23.3613617 Z M12.5858506,23.3613617 C12.5858506,22.793353 13.0562176,22.3328932 13.6363581,22.3328932 C14.2164986,22.3328932 14.6868656,22.793353 14.6868656,23.3613617 C14.686838,23.9292892 14.2164986,24.389749 13.6363581,24.389749 C13.0562176,24.389749 12.5858506,23.9292621 12.5858506,23.3613617 Z M23.6161794,23.3613617 C23.6161794,22.793353 24.0865188,22.3328932 24.6666593,22.3328932 C25.2468274,22.3328932 25.7171668,22.793353 25.7171668,23.3613617 C25.7171668,23.9292892 25.2468551,24.389749 24.6666593,24.389749 C24.0865188,24.389749 23.6161794,23.9292621 23.6161794,23.3613617 Z M10.7474624,9.68486942 C11.1824365,9.68486942 11.5353431,9.33937568 11.5353431,8.91353833 C11.5353431,8.48770098 11.1824365,8.14223431 10.7474624,8.14223431 C10.3124884,8.14223431 9.95958181,8.48770098 9.95958181,8.91353833 C9.95958181,9.33937568 10.3124884,9.68486942 10.7474624,9.68486942 Z M6.96450725,5.72827174 C7.89346204,4.70085897 9.28609235,4.04652418 10.8444336,4.04652418 C12.380682,4.04652418 13.7537908,4.6838049 14.6822479,5.68609677 C15.171058,5.84377922 15.7373454,5.70970176 15.5060192,4.97402178 C14.3719235,3.76632314 12.7058548,3 10.8438806,3 C9.03626776,3 7.41438505,3.72363383 6.28280552,4.87107476 C6.29616084,5.43602458 6.61519526,5.66952997 6.96450725,5.72827174 L6.96450725,5.72827174 Z M12.0534353,8.05282228 C12.3770874,8.11107681 12.7679584,8.08043362 12.851049,7.70583969 C12.457634,7.05350809 11.7066948,6.61161827 10.8439083,6.61161827 C10.0093255,6.61161827 9.28100462,7.02589675 8.87782895,7.64306448 C8.91833732,8.11259272 9.27127155,8.20801428 9.57285835,8.16481066 C9.8047376,7.72744152 10.2853354,7.42360843 10.8459821,7.42360843 C11.3578529,7.42360843 11.8030853,7.67668535 12.0534353,8.05282228 L12.0534353,8.05282228 Z M13.4671078,6.91591155 C13.8343375,6.9731645 14.176488,6.952077 14.1826541,6.37456675 C13.4137695,5.44355005 12.2062887,4.83994435 10.8444336,4.83994435 C9.51896702,4.83994435 8.33816915,5.41041643 7.56723844,6.2997454 C7.58568149,6.72257799 7.90272505,6.89282089 8.20174032,6.9364847 C8.79982616,6.18472519 9.7585055,5.69513812 10.8428575,5.69513812 C11.9170064,5.69513812 12.8679712,6.17622523 13.4671078,6.91591155 L13.4671078,6.91591155 Z" id="path-1"></path>
    </defs>
    <g id="icons/router" stroke="none" stroke-width="1" fill="none" fill-rule="evenodd">
        <rect id="Shape" x="0" y="0" width="32" height="32"></rect>
        <mask id="mask-2" fill="white">
            <use xlink:href="#path-1"></use>
        </mask>
        <use id="Shape" fill="#2D3040" fill-rule="nonzero" xlink:href="#path-1"></use>
    </g>
</svg>