<?xml version="1.0" encoding="UTF-8"?>
<svg width="32px" height="32px" viewBox="0 0 32 32" version="1.1" xmlns="http://www.w3.org/2000/svg" xmlns:xlink="http://www.w3.org/1999/xlink">
    <!-- Generator: Sketch 59 (86127) - https://sketch.com -->
    <title>icons/interation-square</title>
    <desc>Created with Sketch.</desc>
    <g id="icons/interation-square" stroke="none" stroke-width="1" fill="none" fill-rule="evenodd">
        <rect id="Rectangle" fill="#2D3040" fill-rule="nonzero" opacity="0" x="0" y="0" width="32" height="32"></rect>
        <path d="M27.5,3.5 L4.5,3.5 C3.946875,3.5 3.5,3.946875 3.5,4.5 L3.5,27.5 C3.5,28.053125 3.946875,28.5 4.5,28.5 L27.5,28.5 C28.053125,28.5 28.5,28.053125 28.5,27.5 L28.5,4.5 C28.5,3.946875 28.053125,3.5 27.5,3.5 Z M26.25,26.25 L5.75,26.25 L5.75,5.75 L26.25,5.75 L26.25,26.25 Z M9.525,16.375 L11.109375,16.375 C11.225,16.375 11.321875,16.28125 11.321875,16.1625 L11.321875,13.696875 C11.321875,13.08125 11.81875,12.584375 12.43125,12.584375 L18.859375,12.584375 L18.859375,14.253125 C18.859375,14.43125 19.0625,14.528125 19.2,14.41875 L22.609375,11.740625 C22.71875,11.65625 22.71875,11.490625 22.609375,11.40625 L19.2,8.728125 C19.0625,8.61875 18.859375,8.71875 18.859375,8.89375 L18.859375,10.5625 L12.428125,10.5625 C10.70625,10.5625 9.3125,11.9625 9.3125,13.690625 L9.3125,16.15625 C9.3125,16.28125 9.40625,16.375 9.525,16.375 Z M9.39375,20.590625 L12.803125,23.26875 C12.940625,23.378125 13.14375,23.278125 13.14375,23.103125 L13.14375,21.434375 L19.571875,21.434375 C21.29375,21.434375 22.6875,20.034375 22.6875,18.30625 L22.6875,15.840625 C22.6875,15.725 22.59375,15.628125 22.475,15.628125 L20.890625,15.628125 C20.775,15.628125 20.678125,15.721875 20.678125,15.840625 L20.678125,18.30625 C20.678125,18.921875 20.18125,19.41875 19.56875,19.41875 L13.14375,19.41875 L13.14375,17.75 C13.14375,17.571875 12.940625,17.475 12.803125,17.584375 L9.39375,20.2625 C9.284375,20.340625 9.284375,20.50625 9.39375,20.590625 L9.39375,20.590625 Z" id="Shape" fill="#2D3040" fill-rule="nonzero"></path>
    </g>
</svg>