<?xml version="1.0" encoding="UTF-8"?>
<svg width="32px" height="32px" viewBox="0 0 32 32" version="1.1" xmlns="http://www.w3.org/2000/svg" xmlns:xlink="http://www.w3.org/1999/xlink">
    <!-- Generator: Sketch 59 (86127) - https://sketch.com -->
    <title>icons/issues close</title>
    <desc>Created with Sketch.</desc>
    <g id="icons/issues-close" stroke="none" stroke-width="1" fill="none" fill-rule="evenodd">
        <rect id="Rectangle" fill="#2D3040" fill-rule="nonzero" opacity="0" x="0" y="0" width="32" height="32"></rect>
        <path d="M14.5,21.5 C14.5,22.3284271 15.1715729,23 16,23 C16.8284271,23 17.5,22.3284271 17.5,21.5 C17.5,20.6715729 16.8284271,20 16,20 C15.1715729,20 14.5,20.6715729 14.5,21.5 Z M16.75,18 C16.8875,18 17,17.8875 17,17.75 L17,9.25 C17,9.1125 16.8875,9 16.75,9 L15.25,9 C15.1125,9 15,9.1125 15,9.25 L15,17.75 C15,17.8875 15.1125,18 15.25,18 L16.75,18 Z M29.25,12.125 L27.396875,12.125 C27.315625,12.125 27.240625,12.1625 27.19375,12.228125 L23.865625,16.815625 L22.30625,14.665625 C22.259375,14.6 22.184375,14.5625 22.103125,14.5625 L20.25,14.5625 C20.046875,14.5625 19.928125,14.79375 20.046875,14.959375 L23.459375,19.66875 C23.659375,19.94375 24.071875,19.94375 24.271875,19.66875 L29.453125,12.521875 C29.571875,12.35625 29.453125,12.125 29.25,12.125 Z M27.875,21.6875 L25.86875,21.6875 C25.696875,21.6875 25.5375,21.778125 25.44375,21.921875 C25.003125,22.621875 24.484375,23.271875 23.8875,23.865625 C22.8625,24.8875 21.671875,25.690625 20.346875,26.25 C18.975,26.828125 17.51875,27.121875 16.0125,27.121875 C14.509375,27.121875 13.05,26.828125 11.678125,26.25 C10.353125,25.690625 9.1625,24.8875 8.1375,23.865625 C7.1125,22.84375 6.309375,21.653125 5.75,20.328125 C5.16875,18.959375 4.875,17.5 4.875,16 C4.875,14.5 5.16875,13.040625 5.75,11.671875 C6.309375,10.346875 7.1125,9.15625 8.1375,8.134375 C9.1625,7.1125 10.353125,6.309375 11.678125,5.75 C13.05,5.171875 14.50625,4.878125 16.0125,4.878125 C17.515625,4.878125 18.975,5.171875 20.346875,5.75 C21.671875,6.309375 22.8625,7.1125 23.8875,8.134375 C24.48125,8.728125 25,9.378125 25.44375,10.078125 C25.534375,10.225 25.696875,10.3125 25.86875,10.3125 L27.875,10.3125 C28.0625,10.3125 28.18125,10.115625 28.1,9.95 C25.9,5.578125 21.396875,2.5625 16.178125,2.5 C8.715625,2.4125 2.515625,8.515625 2.49996983,15.975 C2.484375,23.440625 8.540625,29.5 16.0125,29.5 C21.3,29.5 25.875,26.46875 28.096875,22.05 C28.18125,21.884375 28.059375,21.6875 27.875,21.6875 Z" id="Shape" fill="#2D3040" fill-rule="nonzero"></path>
    </g>
</svg>