<?xml version="1.0" encoding="UTF-8"?>
<svg width="32px" height="32px" viewBox="0 0 32 32" version="1.1" xmlns="http://www.w3.org/2000/svg" xmlns:xlink="http://www.w3.org/1999/xlink">
    <!-- Generator: Sketch 59 (86127) - https://sketch.com -->
    <title>icons/arr-reload</title>
    <desc>Created with Sketch.</desc>
    <g id="icons/arr-reload" stroke="none" stroke-width="1" fill="none" fill-rule="evenodd">
        <rect id="Rectangle" fill="#2D3040" fill-rule="nonzero" opacity="0" x="0" y="0" width="32" height="32"></rect>
        <path d="M28.409375,6.540625 L26.646875,7.91875 C24.24375,4.846875 20.50625,2.875 16.309375,2.875 C9.0625,2.875 3.196875,8.734375 3.1874888,15.984375 C3.178125,23.240625 9.05625,29.125 16.309375,29.125 C21.975,29.125 26.803125,25.53125 28.640625,20.496875 C28.6875,20.365625 28.61875,20.21875 28.4875,20.175 L26.715625,19.565625 C26.5875,19.521875 26.446875,19.5875 26.4,19.715625 C26.34375,19.871875 26.28125,20.028125 26.215625,20.18125 C25.675,21.4625 24.9,22.6125 23.9125,23.6 C22.925,24.5875 21.775,25.3625 20.496875,25.90625 C19.175,26.465625 17.765625,26.75 16.315625,26.75 C14.8625,26.75 13.45625,26.465625 12.134375,25.90625 C10.85625,25.365625 9.70625,24.590625 8.71875,23.6 C7.73125,22.6125 6.95625,21.4625 6.415625,20.18125 C5.85625,18.85625 5.571875,17.45 5.571875,15.996875 C5.571875,14.54375 5.85625,13.1375 6.415625,11.8125 C6.95625,10.53125 7.73125,9.38125 8.71875,8.39375 C9.70625,7.40625 10.85625,6.63125 12.134375,6.0875 C13.45625,5.528125 14.865625,5.24375 16.315625,5.24375 C17.76875,5.24375 19.175,5.528125 20.496875,6.0875 C21.775,6.628125 22.925,7.403125 23.9125,8.39375 C24.221875,8.703125 24.5125,9.03125 24.78125,9.375 L22.9,10.84375 C22.734375,10.971875 22.790625,11.234375 22.99375,11.284375 L28.48125,12.628125 C28.6375,12.665625 28.790625,12.546875 28.790625,12.3875 L28.815625,6.734375 C28.8125,6.528125 28.571875,6.4125 28.409375,6.540625 L28.409375,6.540625 Z" id="Shape" fill="#2D3040" fill-rule="nonzero"></path>
    </g>
</svg>