<?xml version="1.0" encoding="UTF-8"?>
<svg width="32px" height="32px" viewBox="0 0 32 32" version="1.1" xmlns="http://www.w3.org/2000/svg" xmlns:xlink="http://www.w3.org/1999/xlink">
    <!-- Generator: Sketch 59 (86127) - https://sketch.com -->
    <title>icons/control-square</title>
    <desc>Created with Sketch.</desc>
    <g id="icons/control-square" stroke="none" stroke-width="1" fill="none" fill-rule="evenodd">
        <rect id="Rectangle" fill="#2D3040" fill-rule="nonzero" opacity="0" x="0" y="0" width="32" height="32"></rect>
        <path d="M27.5,3.5 L4.5,3.5 C3.946875,3.5 3.5,3.946875 3.5,4.5 L3.5,27.5 C3.5,28.053125 3.946875,28.5 4.5,28.5 L27.5,28.5 C28.053125,28.5 28.5,28.053125 28.5,27.5 L28.5,4.5 C28.5,3.946875 28.053125,3.5 27.5,3.5 Z M26.25,26.25 L5.75,26.25 L5.75,5.75 L26.25,5.75 L26.25,26.25 Z M10.625,21.34375 L10.625,23.75 C10.625,23.8875 10.7375,24 10.875,24 L12.375,24 C12.5125,24 12.625,23.8875 12.625,23.75 L12.625,21.34375 C12.309375,21.446875 11.975,21.5 11.625,21.5 C11.275,21.5 10.940625,21.44375 10.625,21.34375 Z M12.625,15.15625 L12.625,8.25 C12.625,8.1125 12.5125,8 12.375,8 L10.875,8 C10.7375,8 10.625,8.1125 10.625,8.25 L10.625,15.15625 C10.940625,15.053125 11.275,15 11.625,15 C11.975,15 12.309375,15.05625 12.625,15.15625 Z M10.625,21.34375 C10.940625,21.446875 11.275,21.5 11.625,21.5 C11.975,21.5 12.309375,21.44375 12.625,21.34375 C13.93125,20.921875 14.875,19.696875 14.875,18.25 C14.875,16.803125 13.93125,15.578125 12.625,15.15625 C12.309375,15.053125 11.975,15 11.625,15 C11.275,15 10.940625,15.05625 10.625,15.15625 C9.31875,15.578125 8.375,16.803125 8.375,18.25 C8.375,19.696875 9.31875,20.921875 10.625,21.34375 Z M10.628125,17.728125 C10.6375,17.709375 10.65,17.690625 10.659375,17.671875 L10.659375,17.66875 L10.696875,17.6125 C10.7,17.60625 10.703125,17.603125 10.70625,17.596875 C10.715625,17.58125 10.728125,17.56875 10.7375,17.553125 C10.740625,17.55 10.74375,17.54375 10.746875,17.540625 C10.7625,17.521875 10.775,17.50625 10.790625,17.490625 L10.8,17.48125 L10.8375,17.44375 L10.85,17.43125 C10.865625,17.415625 10.88125,17.403125 10.9,17.3875 C10.91875,17.371875 10.934375,17.359375 10.953125,17.346875 C10.959375,17.34375 10.9625,17.340625 10.96875,17.3375 C10.984375,17.328125 10.996875,17.315625 11.0125,17.30625 C11.015625,17.303125 11.021875,17.3 11.025,17.296875 C11.04375,17.284375 11.0625,17.275 11.084375,17.2625 C11.0875,17.259375 11.09375,17.259375 11.096875,17.25625 C11.1125,17.246875 11.128125,17.240625 11.146875,17.23125 L11.165625,17.221875 C11.1875,17.2125 11.20625,17.203125 11.228125,17.196875 C11.25,17.1875 11.271875,17.18125 11.29375,17.175 C11.3,17.171875 11.30625,17.171875 11.3125,17.16875 C11.33125,17.1625 11.346875,17.159375 11.365625,17.15625 C11.371875,17.15625 11.375,17.153125 11.38125,17.153125 C11.403125,17.146875 11.428125,17.14375 11.45,17.140625 C11.45625,17.140625 11.459375,17.140625 11.465625,17.1375 C11.484375,17.134375 11.503125,17.134375 11.521875,17.13125 L11.540625,17.13125 C11.565625,17.13125 11.5875,17.128125 11.6125,17.128125 C11.6375,17.128125 11.659375,17.128125 11.684375,17.13125 L11.703125,17.13125 C11.721875,17.13125 11.740625,17.134375 11.759375,17.1375 C11.765625,17.1375 11.76875,17.1375 11.775,17.140625 C11.796875,17.14375 11.821875,17.146875 11.84375,17.153125 C11.85,17.153125 11.853125,17.15625 11.859375,17.15625 C11.878125,17.159375 11.896875,17.165625 11.9125,17.16875 C11.91875,17.171875 11.925,17.171875 11.93125,17.175 C11.953125,17.18125 11.975,17.1875 11.996875,17.196875 C12.01875,17.203125 12.0375,17.2125 12.059375,17.221875 L12.078125,17.23125 C12.09375,17.2375 12.1125,17.246875 12.128125,17.25625 C12.13125,17.259375 12.1375,17.259375 12.140625,17.2625 C12.159375,17.271875 12.18125,17.284375 12.2,17.296875 C12.203125,17.3 12.209375,17.303125 12.2125,17.30625 C12.228125,17.315625 12.24375,17.325 12.25625,17.3375 C12.2625,17.340625 12.265625,17.34375 12.271875,17.346875 C12.290625,17.359375 12.309375,17.375 12.325,17.3875 C12.340625,17.4 12.359375,17.415625 12.375,17.43125 L12.3875,17.44375 L12.425,17.48125 L12.434375,17.490625 C12.45,17.50625 12.465625,17.525 12.478125,17.540625 C12.48125,17.54375 12.484375,17.55 12.4875,17.553125 C12.5,17.565625 12.509375,17.58125 12.51875,17.596875 C12.521875,17.603125 12.525,17.60625 12.528125,17.6125 L12.565625,17.66875 C12.565625,17.66875 12.565625,17.671875 12.56875,17.671875 C12.58125,17.690625 12.590625,17.709375 12.6,17.728125 C12.68125,17.884375 12.728125,18.0625 12.728125,18.25 C12.728125,18.4375 12.68125,18.615625 12.6,18.771875 C12.590625,18.790625 12.578125,18.809375 12.56875,18.828125 C12.56875,18.828125 12.56875,18.83125 12.565625,18.83125 L12.528125,18.8875 C12.525,18.89375 12.521875,18.896875 12.51875,18.903125 C12.509375,18.91875 12.496875,18.93125 12.4875,18.946875 C12.484375,18.95 12.48125,18.95625 12.478125,18.959375 C12.4625,18.978125 12.45,18.99375 12.434375,19.009375 L12.425,19.01875 L12.3875,19.05625 L12.375,19.06875 C12.359375,19.084375 12.34375,19.096875 12.325,19.1125 C12.30625,19.128125 12.290625,19.140625 12.271875,19.153125 C12.265625,19.15625 12.2625,19.159375 12.25625,19.1625 C12.240625,19.171875 12.228125,19.184375 12.2125,19.19375 C12.209375,19.196875 12.203125,19.2 12.2,19.203125 C12.18125,19.215625 12.1625,19.225 12.140625,19.2375 C12.1375,19.240625 12.13125,19.240625 12.128125,19.24375 C12.1125,19.253125 12.096875,19.259375 12.078125,19.26875 L12.059375,19.278125 C12.0375,19.2875 12.01875,19.296875 11.996875,19.303125 C11.975,19.3125 11.953125,19.31875 11.93125,19.325 C11.925,19.328125 11.91875,19.328125 11.9125,19.33125 C11.89375,19.3375 11.878125,19.340625 11.859375,19.34375 C11.853125,19.34375 11.85,19.346875 11.84375,19.346875 C11.821875,19.353125 11.796875,19.35625 11.775,19.359375 C11.76875,19.359375 11.765625,19.359375 11.759375,19.3625 C11.740625,19.365625 11.721875,19.365625 11.703125,19.36875 L11.684375,19.36875 C11.659375,19.36875 11.6375,19.371875 11.6125,19.371875 C11.5875,19.371875 11.565625,19.371875 11.540625,19.36875 L11.521875,19.36875 C11.503125,19.36875 11.484375,19.365625 11.465625,19.3625 C11.459375,19.3625 11.45625,19.3625 11.45,19.359375 C11.428125,19.35625 11.403125,19.353125 11.38125,19.346875 C11.375,19.346875 11.371875,19.34375 11.365625,19.34375 C11.346875,19.340625 11.328125,19.334375 11.3125,19.33125 C11.30625,19.328125 11.3,19.328125 11.29375,19.325 C11.271875,19.31875 11.25,19.3125 11.228125,19.303125 C11.20625,19.296875 11.1875,19.2875 11.165625,19.278125 L11.146875,19.26875 C11.13125,19.2625 11.1125,19.253125 11.096875,19.24375 C11.09375,19.240625 11.0875,19.240625 11.084375,19.2375 C11.065625,19.228125 11.04375,19.215625 11.025,19.203125 C11.021875,19.2 11.015625,19.196875 11.0125,19.19375 C10.996875,19.184375 10.98125,19.175 10.96875,19.1625 C10.9625,19.159375 10.959375,19.15625 10.953125,19.153125 C10.934375,19.140625 10.915625,19.125 10.9,19.1125 C10.884375,19.1 10.865625,19.084375 10.85,19.06875 L10.8375,19.05625 L10.8,19.01875 L10.790625,19.009375 C10.775,18.99375 10.759375,18.975 10.746875,18.959375 C10.74375,18.95625 10.740625,18.95 10.7375,18.946875 C10.725,18.934375 10.715625,18.91875 10.70625,18.903125 C10.703125,18.896875 10.7,18.89375 10.696875,18.8875 L10.659375,18.83125 L10.659375,18.828125 C10.646875,18.809375 10.6375,18.790625 10.628125,18.771875 C10.546875,18.615625 10.5,18.4375 10.5,18.25 C10.5,18.0625 10.546875,17.884375 10.628125,17.728125 Z M19.375,16.84375 L19.375,23.75 C19.375,23.8875 19.4875,24 19.625,24 L21.125,24 C21.2625,24 21.375,23.8875 21.375,23.75 L21.375,16.84375 C21.059375,16.946875 20.725,17 20.375,17 C20.025,17 19.690625,16.94375 19.375,16.84375 Z M21.375,10.65625 L21.375,8.25 C21.375,8.1125 21.2625,8 21.125,8 L19.625,8 C19.4875,8 19.375,8.1125 19.375,8.25 L19.375,10.65625 C19.690625,10.553125 20.025,10.5 20.375,10.5 C20.725,10.5 21.059375,10.55625 21.375,10.65625 Z M19.375,16.84375 C19.690625,16.946875 20.025,17 20.375,17 C20.725,17 21.059375,16.94375 21.375,16.84375 C22.68125,16.421875 23.625,15.196875 23.625,13.75 C23.625,12.303125 22.68125,11.078125 21.375,10.65625 C21.059375,10.553125 20.725,10.5 20.375,10.5 C20.025,10.5 19.690625,10.55625 19.375,10.65625 C18.06875,11.078125 17.125,12.303125 17.125,13.75 C17.125,15.196875 18.06875,16.421875 19.375,16.84375 Z M19.378125,13.228125 C19.3875,13.209375 19.4,13.190625 19.409375,13.171875 L19.409375,13.16875 L19.446875,13.1125 C19.45,13.10625 19.453125,13.103125 19.45625,13.096875 C19.465625,13.08125 19.478125,13.06875 19.4875,13.053125 C19.490625,13.05 19.49375,13.04375 19.496875,13.040625 C19.5125,13.021875 19.525,13.00625 19.540625,12.990625 L19.55,12.98125 L19.5875,12.94375 L19.6,12.93125 C19.615625,12.915625 19.63125,12.903125 19.65,12.8875 C19.66875,12.871875 19.684375,12.859375 19.703125,12.846875 C19.709375,12.84375 19.7125,12.840625 19.71875,12.8375 C19.734375,12.828125 19.746875,12.815625 19.7625,12.80625 C19.765625,12.803125 19.771875,12.8 19.775,12.796875 C19.79375,12.784375 19.8125,12.775 19.834375,12.7625 C19.8375,12.759375 19.84375,12.759375 19.846875,12.75625 C19.8625,12.746875 19.878125,12.740625 19.896875,12.73125 L19.915625,12.721875 C19.9375,12.7125 19.95625,12.703125 19.978125,12.696875 C20,12.6875 20.021875,12.68125 20.04375,12.675 C20.05,12.671875 20.05625,12.671875 20.0625,12.66875 C20.08125,12.6625 20.096875,12.659375 20.115625,12.65625 C20.121875,12.65625 20.125,12.653125 20.13125,12.653125 C20.153125,12.646875 20.178125,12.64375 20.2,12.640625 C20.20625,12.640625 20.209375,12.640625 20.215625,12.6375 C20.234375,12.634375 20.253125,12.634375 20.271875,12.63125 L20.290625,12.63125 C20.315625,12.63125 20.3375,12.628125 20.3625,12.628125 C20.3875,12.628125 20.409375,12.628125 20.434375,12.63125 L20.453125,12.63125 C20.471875,12.63125 20.490625,12.634375 20.509375,12.6375 C20.515625,12.6375 20.51875,12.6375 20.525,12.640625 C20.546875,12.64375 20.571875,12.646875 20.59375,12.653125 C20.6,12.653125 20.603125,12.65625 20.609375,12.65625 C20.628125,12.659375 20.646875,12.665625 20.6625,12.66875 C20.66875,12.671875 20.675,12.671875 20.68125,12.675 C20.703125,12.68125 20.725,12.6875 20.746875,12.696875 C20.76875,12.703125 20.7875,12.7125 20.809375,12.721875 L20.828125,12.73125 C20.84375,12.7375 20.8625,12.746875 20.878125,12.75625 C20.88125,12.759375 20.8875,12.759375 20.890625,12.7625 C20.909375,12.771875 20.93125,12.784375 20.95,12.796875 C20.953125,12.8 20.959375,12.803125 20.9625,12.80625 C20.978125,12.815625 20.99375,12.825 21.00625,12.8375 C21.0125,12.840625 21.015625,12.84375 21.021875,12.846875 C21.040625,12.859375 21.059375,12.875 21.075,12.8875 C21.090625,12.9 21.109375,12.915625 21.125,12.93125 L21.1375,12.94375 L21.175,12.98125 L21.184375,12.990625 C21.2,13.00625 21.215625,13.025 21.228125,13.040625 C21.23125,13.04375 21.234375,13.05 21.2375,13.053125 C21.25,13.065625 21.259375,13.08125 21.26875,13.096875 C21.271875,13.103125 21.275,13.10625 21.278125,13.1125 L21.315625,13.16875 L21.315625,13.171875 C21.328125,13.190625 21.3375,13.209375 21.346875,13.228125 C21.428125,13.384375 21.475,13.5625 21.475,13.75 C21.475,13.9375 21.428125,14.115625 21.346875,14.271875 C21.3375,14.290625 21.325,14.309375 21.315625,14.328125 L21.315625,14.33125 L21.278125,14.3875 C21.275,14.39375 21.271875,14.396875 21.26875,14.403125 C21.259375,14.41875 21.246875,14.43125 21.2375,14.446875 C21.234375,14.45 21.23125,14.45625 21.228125,14.459375 C21.2125,14.478125 21.2,14.49375 21.184375,14.509375 L21.175,14.51875 L21.1375,14.55625 L21.125,14.56875 C21.109375,14.584375 21.09375,14.596875 21.075,14.6125 C21.05625,14.628125 21.040625,14.640625 21.021875,14.653125 C21.015625,14.65625 21.0125,14.659375 21.00625,14.6625 C20.990625,14.671875 20.978125,14.684375 20.9625,14.69375 C20.959375,14.696875 20.953125,14.7 20.95,14.703125 C20.93125,14.715625 20.9125,14.725 20.890625,14.7375 C20.8875,14.740625 20.88125,14.740625 20.878125,14.74375 C20.8625,14.753125 20.846875,14.759375 20.828125,14.76875 L20.809375,14.778125 C20.7875,14.7875 20.76875,14.796875 20.746875,14.803125 C20.725,14.8125 20.703125,14.81875 20.68125,14.825 C20.675,14.828125 20.66875,14.828125 20.6625,14.83125 C20.64375,14.8375 20.628125,14.840625 20.609375,14.84375 C20.603125,14.84375 20.6,14.846875 20.59375,14.846875 C20.571875,14.853125 20.546875,14.85625 20.525,14.859375 C20.51875,14.859375 20.515625,14.859375 20.509375,14.8625 C20.490625,14.865625 20.471875,14.865625 20.453125,14.86875 L20.434375,14.86875 C20.409375,14.86875 20.3875,14.871875 20.3625,14.871875 C20.3375,14.871875 20.315625,14.871875 20.290625,14.86875 L20.271875,14.86875 C20.253125,14.86875 20.234375,14.865625 20.215625,14.8625 C20.209375,14.8625 20.20625,14.8625 20.2,14.859375 C20.178125,14.85625 20.153125,14.853125 20.13125,14.846875 C20.125,14.846875 20.121875,14.84375 20.115625,14.84375 C20.096875,14.840625 20.078125,14.834375 20.0625,14.83125 C20.05625,14.828125 20.05,14.828125 20.04375,14.825 C20.021875,14.81875 20,14.8125 19.978125,14.803125 C19.95625,14.796875 19.9375,14.7875 19.915625,14.778125 L19.896875,14.76875 C19.88125,14.7625 19.8625,14.753125 19.846875,14.74375 C19.84375,14.740625 19.8375,14.740625 19.834375,14.7375 C19.815625,14.728125 19.79375,14.715625 19.775,14.703125 C19.771875,14.7 19.765625,14.696875 19.7625,14.69375 C19.746875,14.684375 19.73125,14.675 19.71875,14.6625 C19.7125,14.659375 19.709375,14.65625 19.703125,14.653125 C19.684375,14.640625 19.665625,14.625 19.65,14.6125 C19.634375,14.6 19.615625,14.584375 19.6,14.56875 L19.5875,14.55625 L19.55,14.51875 L19.540625,14.509375 C19.525,14.49375 19.509375,14.475 19.496875,14.459375 C19.49375,14.45625 19.490625,14.45 19.4875,14.446875 C19.475,14.434375 19.465625,14.41875 19.45625,14.403125 C19.453125,14.396875 19.45,14.39375 19.446875,14.3875 L19.409375,14.33125 L19.409375,14.328125 C19.396875,14.309375 19.3875,14.290625 19.378125,14.271875 C19.296875,14.115625 19.25,13.9375 19.25,13.75 C19.25,13.5625 19.296875,13.384375 19.378125,13.228125 Z" id="Shape" fill="#2D3040" fill-rule="nonzero"></path>
    </g>
</svg>