<?xml version="1.0" encoding="UTF-8"?>
<svg width="32px" height="32px" viewBox="0 0 32 32" version="1.1" xmlns="http://www.w3.org/2000/svg" xmlns:xlink="http://www.w3.org/1999/xlink">
    <!-- Generator: Sketch 59 (86127) - https://sketch.com -->
    <title>icons/arr-logout</title>
    <desc>Created with Sketch.</desc>
    <g id="icons/arr-logout" stroke="none" stroke-width="1" fill="none" fill-rule="evenodd">
        <rect id="Rectangle" fill="#2D3040" fill-rule="nonzero" opacity="0" x="0" y="0" width="32" height="32"></rect>
        <path d="M27.125,22.875 L24.928125,22.875 C24.778125,22.875 24.6375,22.940625 24.54375,23.05625 C24.325,23.321875 24.090625,23.578125 23.84375,23.821875 C22.825,24.8375 21.640625,25.6375 20.321875,26.19375 C18.959375,26.76875 17.509375,27.0625 16.0125,27.0625 C14.515625,27.0625 13.065625,26.76875 11.703125,26.19375 C10.384375,25.6375 9.2,24.8375 8.18125,23.821875 C7.1625,22.80625 6.365625,21.621875 5.80625,20.30625 C5.228125,18.94375 4.9375,17.496875 4.9375,16 C4.9375,14.503125 5.23125,13.05625 5.80625,11.69375 C6.3625,10.378125 7.1625,9.19375 8.18125,8.178125 C9.2,7.1625 10.384375,6.3625 11.703125,5.80625 C13.065625,5.23125 14.515625,4.9375 16.0125,4.9375 C17.509375,4.9375 18.959375,5.228125 20.321875,5.80625 C21.640625,6.3625 22.825,7.1625 23.84375,8.178125 C24.090625,8.425 24.321875,8.68125 24.54375,8.94375 C24.6375,9.059375 24.78125,9.125 24.928125,9.125 L27.125,9.125 C27.321875,9.125 27.44375,8.90625 27.334375,8.740625 C24.9375,5.015625 20.74375,2.55 15.978125,2.56245269 C8.490625,2.58125 2.4875,8.659375 2.5625,16.1375 C2.6375,23.496875 8.63125,29.4375 16.0125,29.4375 C20.765625,29.4375 24.940625,26.975 27.334375,23.259375 C27.440625,23.09375 27.321875,22.875 27.125,22.875 Z M29.903125,15.803125 L25.46875,12.303125 C25.303125,12.171875 25.0625,12.290625 25.0625,12.5 L25.0625,14.875 L15.25,14.875 C15.1125,14.875 15,14.9875 15,15.125 L15,16.875 C15,17.0125 15.1125,17.125 15.25,17.125 L25.0625,17.125 L25.0625,19.5 C25.0625,19.709375 25.30625,19.828125 25.46875,19.696875 L29.903125,16.196875 C30.03125,16.096875 30.03125,15.903125 29.903125,15.803125 L29.903125,15.803125 Z" id="Shape" fill="#2D3040" fill-rule="nonzero"></path>
    </g>
</svg>