<?xml version="1.0" encoding="UTF-8"?>
<svg width="32px" height="32px" viewBox="0 0 32 32" version="1.1" xmlns="http://www.w3.org/2000/svg" xmlns:xlink="http://www.w3.org/1999/xlink">
    <!-- Generator: Sketch 59 (86127) - https://sketch.com -->
    <title>icons/lock</title>
    <desc>Created with Sketch.</desc>
    <g id="icons/lock" stroke="none" stroke-width="1" fill="none" fill-rule="evenodd">
        <rect id="Rectangle" fill="#2D3040" fill-rule="nonzero" opacity="0" x="0" y="0" width="32" height="32"></rect>
        <path d="M26,14.5 L23.875,14.5 L23.875,7.5 C23.875,5.290625 22.084375,3.5 19.875,3.5 L12.125,3.5 C9.915625,3.5 8.125,5.290625 8.125,7.5 L8.125,14.5 L6,14.5 C5.446875,14.5 5,14.946875 5,15.5 L5,27.5 C5,28.053125 5.446875,28.5 6,28.5 L26,28.5 C26.553125,28.5 27,28.053125 27,27.5 L27,15.5 C27,14.946875 26.553125,14.5 26,14.5 Z M10.375,7.5 C10.375,6.534375 11.159375,5.75 12.125,5.75 L19.875,5.75 C20.840625,5.75 21.625,6.534375 21.625,7.5 L21.625,14.5 L10.375,14.5 L10.375,7.5 Z M24.75,26.25 L7.25,26.25 L7.25,16.75 L24.75,16.75 L24.75,26.25 Z M15.125,21.90625 L15.125,23.5625 C15.125,23.7 15.2375,23.8125 15.375,23.8125 L16.625,23.8125 C16.7625,23.8125 16.875,23.7 16.875,23.5625 L16.875,21.90625 C17.253125,21.634375 17.5,21.190625 17.5,20.6875 C17.5,19.859375 16.828125,19.1875 16,19.1875 C15.171875,19.1875 14.5,19.859375 14.5,20.6875 C14.5,21.190625 14.746875,21.634375 15.125,21.90625 Z" id="Shape" fill="#2D3040" fill-rule="nonzero"></path>
    </g>
</svg>