<?xml version="1.0" encoding="UTF-8"?>
<svg width="32px" height="32px" viewBox="0 0 32 32" version="1.1" xmlns="http://www.w3.org/2000/svg" xmlns:xlink="http://www.w3.org/1999/xlink">
    <!-- Generator: Sketch 59 (86127) - https://sketch.com -->
    <title>icons/chart-bar</title>
    <desc>Created with Sketch.</desc>
    <g id="icons/chart-bar" stroke="none" stroke-width="1" fill="none" fill-rule="evenodd">
        <rect id="Rectangle" fill="#2D3040" fill-rule="nonzero" opacity="0" x="0" y="0" width="32" height="32"></rect>
        <path d="M27.75,24.75 L6.25,24.75 L6.25,5.25 C6.25,5.1125 6.1375,5 6,5 L4.25,5 C4.1125,5 4,5.1125 4,5.25 L4,26.75 C4,26.8875 4.1125,27 4.25,27 L27.75,27 C27.8875,27 28,26.8875 28,26.75 L28,25 C28,24.8625 27.8875,24.75 27.75,24.75 Z M9,22.25 L10.75,22.25 C10.8875,22.25 11,22.1375 11,22 L11,17.5 C11,17.3625 10.8875,17.25 10.75,17.25 L9,17.25 C8.8625,17.25 8.75,17.3625 8.75,17.5 L8.75,22 C8.75,22.1375 8.8625,22.25 9,22.25 Z M13.75,22.25 L15.5,22.25 C15.6375,22.25 15.75,22.1375 15.75,22 L15.75,12 C15.75,11.8625 15.6375,11.75 15.5,11.75 L13.75,11.75 C13.6125,11.75 13.5,11.8625 13.5,12 L13.5,22 C13.5,22.1375 13.6125,22.25 13.75,22.25 Z M18.5,22.25 L20.25,22.25 C20.3875,22.25 20.5,22.1375 20.5,22 L20.5,14.4375 C20.5,14.3 20.3875,14.1875 20.25,14.1875 L18.5,14.1875 C18.3625,14.1875 18.25,14.3 18.25,14.4375 L18.25,22 C18.25,22.1375 18.3625,22.25 18.5,22.25 Z M23.25,22.25 L25,22.25 C25.1375,22.25 25.25,22.1375 25.25,22 L25.25,9.5 C25.25,9.3625 25.1375,9.25 25,9.25 L23.25,9.25 C23.1125,9.25 23,9.3625 23,9.5 L23,22 C23,22.1375 23.1125,22.25 23.25,22.25 Z" id="Shape" fill="#2D3040" fill-rule="nonzero"></path>
    </g>
</svg>