<?xml version="1.0" encoding="UTF-8"?>
<svg width="32px" height="32px" viewBox="0 0 32 32" version="1.1" xmlns="http://www.w3.org/2000/svg" xmlns:xlink="http://www.w3.org/1999/xlink">
    <!-- Generator: Sketch 59 (86127) - https://sketch.com -->
    <title>icons/search</title>
    <desc>Created with Sketch.</desc>
    <g id="icons/search" stroke="none" stroke-width="1" fill="none" fill-rule="evenodd">
        <rect id="Rectangle" fill="#2D3040" fill-rule="nonzero" opacity="0" x="0" y="0" width="32" height="32"></rect>
        <path d="M28.425,26.703125 L20.309375,18.5875 C21.56875,16.959375 22.25,14.96875 22.25,12.875 C22.25,10.36875 21.271875,8.01875 19.503125,6.246875 C17.734375,4.475 15.378125,3.5 12.875,3.5 C10.371875,3.5 8.015625,4.478125 6.246875,6.246875 C4.475,8.015625 3.5,10.36875 3.5,12.875 C3.5,15.378125 4.478125,17.734375 6.246875,19.503125 C8.015625,21.275 10.36875,22.25 12.875,22.25 C14.96875,22.25 16.95625,21.56875 18.584375,20.3125 L26.7,28.425 C26.8,28.525 26.9625,28.525 27.0625,28.425 L28.425,27.065625 C28.525,26.965625 28.525,26.803125 28.425,26.703125 Z M17.825,17.825 C16.5,19.146875 14.74375,19.875 12.875,19.875 C11.00625,19.875 9.25,19.146875 7.925,17.825 C6.603125,16.5 5.875,14.74375 5.875,12.875 C5.875,11.00625 6.603125,9.246875 7.925,7.925 C9.25,6.603125 11.00625,5.875 12.875,5.875 C14.74375,5.875 16.503125,6.6 17.825,7.925 C19.146875,9.25 19.875,11.00625 19.875,12.875 C19.875,14.74375 19.146875,16.503125 17.825,17.825 Z" id="Shape" fill="#2D3040" fill-rule="nonzero"></path>
    </g>
</svg>