<?xml version="1.0" encoding="UTF-8"?>
<svg width="32px" height="32px" viewBox="0 0 32 32" version="1.1" xmlns="http://www.w3.org/2000/svg" xmlns:xlink="http://www.w3.org/1999/xlink">
    <!-- Generator: Sketch 59 (86127) - https://sketch.com -->
    <title>icons/user</title>
    <desc>Created with Sketch.</desc>
    <g id="icons/user" stroke="none" stroke-width="1" fill="none" fill-rule="evenodd">
        <rect id="Rectangle" fill="#2D3040" fill-rule="nonzero" opacity="0" x="0" y="0" width="32" height="32"></rect>
        <path d="M26.828125,23.8625 C26.2375,22.4625 25.3875,21.20625 24.309375,20.128125 C23.23125,19.05 21.975,18.203125 20.575,17.609375 C20.5625,17.603125 20.55,17.6 20.5375,17.59375 C22.484375,16.1875 23.75,13.896875 23.75,11.3125 C23.75,7.03125 20.28125,3.5625 16,3.5625 C11.71875,3.5625 8.25,7.03125 8.25,11.3125 C8.25,13.896875 9.515625,16.1875 11.4625,17.596875 C11.45,17.603125 11.4375,17.60625 11.425,17.6125 C10.025,18.203125 8.76875,19.05 7.690625,20.13125 C6.6125,21.209375 5.765625,22.465625 5.171875,23.865625 C4.590625,25.234375 4.28125,26.6875 4.24993644,28.18125 C4.246875,28.321875 4.359375,28.4375 4.5,28.4375 L6.375,28.4375 C6.5125,28.4375 6.621875,28.328125 6.625,28.19375 C6.6875,25.78125 7.65625,23.521875 9.36875,21.809375 C11.140625,20.0375 13.49375,19.0625 16,19.0625 C18.50625,19.0625 20.859375,20.0375 22.63125,21.809375 C24.34375,23.521875 25.3125,25.78125 25.375,28.19375 C25.378125,28.33125 25.4875,28.4375 25.625,28.4375 L27.5,28.4375 C27.640625,28.4375 27.753125,28.321875 27.7500636,28.18125 C27.71875,26.6875 27.409375,25.234375 26.828125,23.8625 Z M16,16.6875 C14.565625,16.6875 13.215625,16.128125 12.2,15.1125 C11.184375,14.096875 10.625,12.746875 10.625,11.3125 C10.625,9.878125 11.184375,8.528125 12.2,7.5125 C13.215625,6.496875 14.565625,5.9375 16,5.9375 C17.434375,5.9375 18.784375,6.496875 19.8,7.5125 C20.815625,8.528125 21.375,9.878125 21.375,11.3125 C21.375,12.746875 20.815625,14.096875 19.8,15.1125 C18.784375,16.128125 17.434375,16.6875 16,16.6875 Z" id="Shape" fill="#2D3040" fill-rule="nonzero"></path>
    </g>
</svg>