<?xml version="1.0" encoding="UTF-8"?>
<svg width="32px" height="32px" viewBox="0 0 32 32" version="1.1" xmlns="http://www.w3.org/2000/svg" xmlns:xlink="http://www.w3.org/1999/xlink">
    <!-- Generator: Sketch 59 (86127) - https://sketch.com -->
    <title>icons/code library</title>
    <desc>Created with Sketch.</desc>
    <g id="icons/code-library" stroke="none" stroke-width="1" fill="none" fill-rule="evenodd">
        <rect id="Rectangle" fill="#2D3040" fill-rule="nonzero" opacity="0" x="0" y="0" width="32" height="32"></rect>
        <path d="M16.125,21.03125 C16.125,21.16875 16.23125,21.28125 16.359375,21.28125 L22.140625,21.28125 C22.26875,21.28125 22.375,21.16875 22.375,21.03125 L22.375,19.53125 C22.375,19.39375 22.26875,19.28125 22.140625,19.28125 L16.359375,19.28125 C16.23125,19.28125 16.125,19.39375 16.125,19.53125 L16.125,21.03125 Z M10.034375,21.221875 L16.034375,16.190625 C16.153125,16.090625 16.153125,15.90625 16.034375,15.80625 L10.034375,10.778125 C9.871875,10.640625 9.625,10.75625 9.625,10.96875 L9.625,12.928125 C9.625,13.003125 9.65625,13.071875 9.715625,13.11875 L13.146875,16 L9.715625,18.88125 C9.659375,18.928125 9.625,19 9.625,19.071875 L9.625,21.03125 C9.625,21.24375 9.871875,21.359375 10.034375,21.221875 Z M27.5,3.5 L4.5,3.5 C3.946875,3.5 3.5,3.946875 3.5,4.5 L3.5,27.5 C3.5,28.053125 3.946875,28.5 4.5,28.5 L27.5,28.5 C28.053125,28.5 28.5,28.053125 28.5,27.5 L28.5,4.5 C28.5,3.946875 28.053125,3.5 27.5,3.5 Z M26.25,26.25 L5.75,26.25 L5.75,5.75 L26.25,5.75 L26.25,26.25 Z" id="Shape" fill="#2D3040" fill-rule="nonzero"></path>
    </g>
</svg>