<?xml version="1.0" encoding="UTF-8"?>
<svg width="32px" height="32px" viewBox="0 0 32 32" version="1.1" xmlns="http://www.w3.org/2000/svg" xmlns:xlink="http://www.w3.org/1999/xlink">
    <!-- Generator: Sketch 59 (86127) - https://sketch.com -->
    <title>icons/cir-copyright-circle</title>
    <desc>Created with Sketch.</desc>
    <g id="icons/cir-copyright-circle" stroke="none" stroke-width="1" fill="none" fill-rule="evenodd">
        <rect id="Rectangle" fill="#2D3040" fill-rule="nonzero" opacity="0" x="0" y="0" width="32" height="32"></rect>
        <path d="M16,2 C8.26875,2 2,8.26875 2,16 C2,23.73125 8.26875,30 16,30 C23.73125,30 30,23.73125 30,16 C30,8.26875 23.73125,2 16,2 Z M16,27.625 C9.58125,27.625 4.375,22.41875 4.375,16 C4.375,9.58125 9.58125,4.375 16,4.375 C22.41875,4.375 27.625,9.58125 27.625,16 C27.625,22.41875 22.41875,27.625 16,27.625 Z M16.175,10.978125 C17.83125,10.978125 18.95625,12.034375 19.08125,13.584375 C19.090625,13.715625 19.2,13.815625 19.33125,13.815625 L21.103125,13.815625 C21.184375,13.815625 21.25,13.75 21.25,13.66875 C21.25,10.959375 19.1125,9.0625 16.165625,9.0625 C12.73125,9.0625 10.75,11.38125 10.75,15.2125 L10.75,16.846875 C10.75,20.65 12.73125,22.9375 16.165625,22.9375 C19.103125,22.9375 21.25,21.1 21.25,18.51875 C21.25,18.4375 21.184375,18.371875 21.103125,18.371875 L19.328125,18.371875 C19.196875,18.371875 19.090625,18.471875 19.078125,18.6 C18.946875,20.040625 17.825,21.03125 16.171875,21.03125 C14.13125,21.03125 12.98125,19.534375 12.98125,16.85625 L12.98125,15.2125 C12.984375,12.49375 14.1375,10.978125 16.175,10.978125 L16.175,10.978125 Z" id="Shape" fill="#2D3040" fill-rule="nonzero"></path>
    </g>
</svg>