<?xml version="1.0" encoding="UTF-8"?>
<svg width="32px" height="32px" viewBox="0 0 32 32" version="1.1" xmlns="http://www.w3.org/2000/svg" xmlns:xlink="http://www.w3.org/1999/xlink">
    <!-- Generator: Sketch 59 (86127) - https://sketch.com -->
    <title>icons/star</title>
    <desc>Created with Sketch.</desc>
    <g id="icons/star" stroke="none" stroke-width="1" fill="none" fill-rule="evenodd">
        <rect id="Rectangle" fill="#2D3040" fill-rule="nonzero" opacity="0" x="0" y="0" width="32" height="32"></rect>
        <path d="M28.378125,11.034375 L20.44375,9.88125 L16.896875,2.690625 C16.8,2.49375 16.640625,2.334375 16.44375,2.2375 C15.95,1.99375 15.35,2.196875 15.103125,2.690625 L11.55625,9.88125 L3.621875,11.034375 C3.403125,11.065625 3.203125,11.16875 3.05,11.325 C2.665625,11.721875 2.671875,12.353125 3.06875,12.740625 L8.809375,18.3375 L7.453125,26.240625 C7.415625,26.45625 7.45,26.68125 7.553125,26.875 C7.809375,27.3625 8.415625,27.553125 8.903125,27.29375 L16,23.5625 L23.096875,27.29375 C23.290625,27.396875 23.515625,27.43125 23.73125,27.39375 C24.275,27.3 24.640625,26.784375 24.546875,26.240625 L23.190625,18.3375 L28.93125,12.740625 C29.0875,12.5875 29.190625,12.3875 29.221875,12.16875 C29.30625,11.621875 28.925,11.115625 28.378125,11.034375 Z M20.775,17.55 L21.903125,24.121875 L16,21.021875 L10.096875,24.125 L11.225,17.553125 L6.45,12.896875 L13.05,11.9375 L16,5.959375 L18.95,11.9375 L25.55,12.896875 L20.775,17.55 Z" id="Shape" fill="#2D3040" fill-rule="nonzero"></path>
    </g>
</svg>