<?xml version="1.0" encoding="UTF-8"?>
<svg width="32px" height="32px" viewBox="0 0 32 32" version="1.1" xmlns="http://www.w3.org/2000/svg" xmlns:xlink="http://www.w3.org/1999/xlink">
    <!-- Generator: Sketch 59 (86127) - https://sketch.com -->
    <title>icons/arr-arrowr-ight</title>
    <desc>Created with Sketch.</desc>
    <g id="icons/arr-arrowr-ight" stroke="none" stroke-width="1" fill="none" fill-rule="evenodd">
        <rect id="Rectangle" fill="#2D3040" fill-rule="nonzero" opacity="0" x="0" y="0" width="32" height="32"></rect>
        <path d="M27.15625,15.24375 L15.35,4.996875 C15.259375,4.91875 15.14375,4.875 15.021875,4.875 L12.25625,4.875 C12.025,4.875 11.91875,5.1625 12.09375,5.3125 L23.0375,14.8125 L4.75,14.8125 C4.6125,14.8125 4.5,14.925 4.5,15.0625 L4.5,16.9375 C4.5,17.075 4.6125,17.1875 4.75,17.1875 L23.034375,17.1875 L12.090625,26.6875 C11.915625,26.840625 12.021875,27.125 12.253125,27.125 L15.1125,27.125 C15.171875,27.125 15.23125,27.103125 15.275,27.0625 L27.15625,16.75625 C27.615625,16.35625 27.615625,15.64375 27.15625,15.24375 Z" id="Shape" fill="#2D3040" fill-rule="nonzero"></path>
    </g>
</svg>