<?xml version="1.0" encoding="UTF-8"?>
<svg width="280px" height="88px" viewBox="0 0 280 88" version="1.1" xmlns="http://www.w3.org/2000/svg" xmlns:xlink="http://www.w3.org/1999/xlink">
    <!-- Generator: Sketch 59 (86127) - https://sketch.com -->
    <title>Portal/Logo/Dito-S</title>
    <desc>Created with Sketch.</desc>
    <g id="Portal/Logo/Dito-S" stroke="none" stroke-width="1" fill="none" fill-rule="evenodd">
        <path d="M54.2822666,2.34337518 C69.7642666,3.24637518 83.3752666,15.3813752 85.9372666,30.6713752 C87.5602666,40.3563752 87.8392666,50.2793752 85.5582666,59.9093752 C81.8572666,75.5373752 67.7962666,86.5533752 51.7682666,86.7053752 C36.2942666,86.8543752 20.8192666,86.7423752 5.34426658,86.7293752 C2.78226658,86.7273752 2.05226658,86.0363752 2.04426658,83.4903752 C2.01726658,73.3773752 2.03326658,63.2643752 2.03326658,53.1513752 L2.00626658,53.1513752 C2.00626658,43.7683752 1.98926658,34.3863752 2.01126658,25.0043752 C2.03726658,13.7453752 9.16626658,4.84837518 20.1472666,2.47237518 C21.9142666,2.09037518 23.7812666,2.04337518 25.6012666,2.05037518 C35.1632666,2.08137518 44.7482666,1.78737518 54.2822666,2.34337518 Z M109.919867,2.03177518 C112.376867,2.04877518 113.250867,2.88877518 113.251867,5.30977518 C113.267867,31.1977752 113.274867,57.0847752 113.260867,82.9727752 C113.258867,86.1837752 112.621867,86.7387752 109.344867,86.7437752 C105.933867,86.7487752 102.522867,86.7607752 99.1118666,86.7517752 C95.2968666,86.7417752 94.8738666,86.3227752 94.8728666,82.5757752 C94.8688666,69.7847752 94.8718666,56.9927752 94.8738666,44.2017752 C94.8758666,31.4097752 94.8728666,18.6187752 94.8788666,5.82677518 C94.8798666,2.69177518 95.5848666,2.01777518 98.7728666,2.01977518 C102.488867,2.02177518 106.203867,2.00577518 109.919867,2.03177518 Z M157.167267,2.02097518 L157.167267,2.02997518 L178.483563,2.02745666 C182.036378,2.0281974 185.589267,2.03030851 189.142267,2.03497518 C192.139267,2.03997518 192.836267,2.75297518 192.842267,5.66997518 C192.851267,9.38497518 192.861267,13.0999752 192.857267,16.8159752 C192.854267,19.8189752 192.188267,20.4929752 189.230267,20.4959752 C182.957267,20.5029752 176.684267,20.4929752 170.411267,20.5019752 C167.184267,20.5069752 166.319267,21.3879752 166.319267,24.6509752 C166.313267,43.8359752 166.312267,63.0199752 166.308267,82.2059752 L166.312142,83.1197252 C166.311517,83.4244752 166.305767,83.7289752 166.285267,84.0319752 C166.159267,85.8609752 165.372267,86.7029752 163.522267,86.7229752 C159.199267,86.7719752 154.874267,86.7469752 150.550267,86.7249752 C148.938267,86.7179752 148.082267,85.8149752 147.956267,84.2469752 C147.884267,83.3389752 147.912267,82.4219752 147.912267,81.5089752 C147.910267,62.6279752 147.910267,43.7479752 147.910267,24.8669752 C147.910267,21.2799752 147.124267,20.4959752 143.500267,20.4949752 L125.229267,20.4949752 L125.229267,20.4949752 C121.939267,20.4929752 121.340267,19.8809752 121.337267,16.5269752 C121.333267,12.9939752 121.339267,9.46197518 121.341267,5.92897518 C121.343267,2.78597518 122.085267,2.02397518 125.192267,2.02197518 C135.851267,2.01797518 146.509267,2.02097518 157.167267,2.02097518 Z M235.106067,2.04395779 C258.595067,1.96347518 277.686067,20.8534752 277.746362,44.2354752 C277.807067,67.8064752 259.040067,86.6724752 235.488067,86.7186359 C212.028067,86.7634752 193.027067,67.9414752 192.9809,44.6104752 C192.935067,21.2494752 211.862067,2.12447518 235.106067,2.04395779 Z M233.677067,20.4454752 C228.537067,20.9440742 228.537067,21.3974752 225.580067,22.6864752 C216.400067,26.6894752 210.924067,35.9524752 211.496067,45.8574752 C212.060067,55.6154752 218.614067,64.1564752 228.053067,67.1394752 C229.806067,67.6934752 230.646067,68.6744752 231.227067,70.2394752 C232.199067,72.8624752 233.240067,75.4624752 234.305067,78.0494752 C234.495067,78.5104752 234.946067,78.8634752 235.276067,79.2664752 C235.668067,78.8594752 236.221067,78.5194752 236.427067,78.0314752 C237.688067,75.0644752 238.804067,72.0334752 240.125067,69.0954752 C240.444067,68.3894752 241.268067,67.6694752 242.011067,67.4354752 C247.430067,65.7284752 251.905067,62.7114752 255.054067,57.9734752 C260.376067,49.9654752 260.918067,41.5094752 256.371067,33.0674752 C251.885067,24.7384752 244.526067,20.7954752 233.677067,20.4454752 Z M24.3022666,20.4893721 C21.4372666,20.4873752 20.4412666,21.4543752 20.4382666,24.2963752 C20.4212666,37.6293752 20.4142666,50.9613752 20.4142666,64.2943752 C20.4142666,67.4253752 21.1142666,68.2123752 24.1922666,68.3423752 C25.4032666,68.3933752 25.9802666,68.8543752 25.6062666,69.9973752 C24.8302666,72.3813752 23.9332666,74.7243752 23.0222666,77.2613752 C23.0692666,77.2673752 23.4122666,77.3723752 23.7492666,77.3563752 C27.3782666,77.1763752 32.3362666,73.5753752 33.3032666,70.1013752 C33.7392666,68.5313752 34.5162666,68.3053752 35.8762666,68.3173752 C40.9282666,68.3603752 45.9822666,68.3853752 51.0342666,68.3063752 C60.8322666,68.1543752 68.1482666,60.7833752 68.2752666,50.9803752 C68.3272666,47.0233752 68.2882666,43.0653752 68.2892666,39.1083752 C68.2892666,27.7713752 61.1682666,20.5713752 49.8712666,20.5263752 C41.3482666,20.4923752 32.8252666,20.4943752 24.3022666,20.4893721 Z" id="Combined-Shape" fill="#FFFFFF" fill-rule="nonzero"></path>
    </g>
</svg>