<?xml version="1.0" encoding="UTF-8"?>
<svg width="32px" height="32px" viewBox="0 0 32 32" version="1.1" xmlns="http://www.w3.org/2000/svg" xmlns:xlink="http://www.w3.org/1999/xlink">
    <!-- Generator: Sketch 59 (86127) - https://sketch.com -->
    <title>icons/message</title>
    <desc>Created with Sketch.</desc>
    <g id="icons/message" stroke="none" stroke-width="1" fill="none" fill-rule="evenodd">
        <rect id="Rectangle" fill="#2D3040" fill-rule="nonzero" opacity="0" x="0" y="0" width="32" height="32"></rect>
        <path d="M14.5,16 C14.5,16.8284271 15.1715729,17.5 16,17.5 C16.8284271,17.5 17.5,16.8284271 17.5,16 C17.5,15.1715729 16.8284271,14.5 16,14.5 C15.1715729,14.5 14.5,15.1715729 14.5,16 Z M20.75,16 C20.75,16.8284271 21.4215729,17.5 22.25,17.5 C23.0784271,17.5 23.75,16.8284271 23.75,16 C23.75,15.1715729 23.0784271,14.5 22.25,14.5 C21.4215729,14.5 20.75,15.1715729 20.75,16 Z M8.25,16 C8.25,16.8284271 8.92157288,17.5 9.75,17.5 C10.5784271,17.5 11.25,16.8284271 11.25,16 C11.25,15.1715729 10.5784271,14.5 9.75,14.5 C8.92157288,14.5 8.25,15.1715729 8.25,16 Z M28.9125,10.575 C28.20625,8.896875 27.19375,7.390625 25.903125,6.096875 C24.6125,4.80625 23.10625,3.790625 21.425,3.0875 C19.70625,2.365625 17.88125,2 16,2 L15.9375,2 C14.04375,2.009375 12.209375,2.384375 10.484375,3.121875 C8.81875,3.834375 7.325,4.846875 6.046875,6.1375 C4.76875,7.428125 3.765625,8.928125 3.071875,10.6 C2.353125,12.33125 1.990625,14.171875 1.99982271,16.065625 C2.009375,18.234375 2.528125,20.3875 3.5,22.3125 L3.5,27.0625 C3.5,27.85625 4.14375,28.5 4.9375,28.5 L9.690625,28.5 C11.615625,29.471875 13.76875,29.990625 15.9375,30 L16.003125,30 C17.875,30 19.690625,29.6375 21.4,28.928125 C23.071875,28.23125 24.575,27.23125 25.8625,25.953125 C27.153125,24.675 28.16875,23.18125 28.878125,21.515625 C29.615625,19.790625 29.990625,17.95625 30.0001744,16.0625 C30.009375,14.159375 29.640625,12.3125 28.9125,10.575 L28.9125,10.575 Z M24.190625,24.2625 C22,26.43125 19.09375,27.625 16,27.625 L15.946875,27.625 C14.0625,27.615625 12.190625,27.146875 10.5375,26.265625 L10.275,26.125 L5.875,26.125 L5.875,21.725 L5.734375,21.4625 C4.853125,19.809375 4.384375,17.9375 4.37490257,16.053125 C4.3625,12.9375 5.553125,10.0125 7.7375,7.809375 C9.91875,5.60625 12.834375,4.3875 15.95,4.375 L16.003125,4.375 C17.565625,4.375 19.08125,4.678125 20.509375,5.278125 C21.903125,5.8625 23.153125,6.703125 24.228125,7.778125 C25.3,8.85 26.14375,10.103125 26.728125,11.496875 C27.334375,12.940625 27.6375,14.471875 27.6313447,16.053125 C27.6125,19.165625 26.390625,22.08125 24.190625,24.2625 Z" id="Shape" fill="#2D3040" fill-rule="nonzero"></path>
    </g>
</svg>