<?xml version="1.0" encoding="UTF-8"?>
<svg width="32px" height="32px" viewBox="0 0 32 32" version="1.1" xmlns="http://www.w3.org/2000/svg" xmlns:xlink="http://www.w3.org/1999/xlink">
    <!-- Generator: Sketch 59 (86127) - https://sketch.com -->
    <title>icons/clear</title>
    <desc>Created with Sketch.</desc>
    <g id="icons/clear" stroke="none" stroke-width="1" fill="none" fill-rule="evenodd">
        <rect id="Rectangle" fill="#2D3040" fill-rule="nonzero" opacity="0" x="0" y="0" width="32" height="32"></rect>
        <path d="M28.096875,27.175 L26.440625,17.625 L27,17.625 C27.45,17.625 27.8125,17.2625 27.8125,16.8125 L27.8125,10.8125 C27.8125,10.3625 27.45,10 27,10 L19.3125,10 L19.3125,4.3125 C19.3125,3.8625 18.95,3.5 18.5,3.5 L13.5,3.5 C13.05,3.5 12.6875,3.8625 12.6875,4.3125 L12.6875,10 L5,10 C4.55,10 4.1875,10.3625 4.1875,10.8125 L4.1875,16.8125 C4.1875,17.2625 4.55,17.625 5,17.625 L5.559375,17.625 L3.903125,27.175 C3.89375,27.221875 3.890625,27.26875 3.890625,27.3125 C3.890625,27.7625 4.253125,28.125 4.703125,28.125 L27.296875,28.125 C27.34375,28.125 27.390625,28.121875 27.434375,28.1125 C27.878125,28.0375 28.175,27.615625 28.096875,27.175 Z M6.375,12.1875 L14.875,12.1875 L14.875,5.6875 L17.125,5.6875 L17.125,12.1875 L25.625,12.1875 L25.625,15.4375 L6.375,15.4375 L6.375,12.1875 Z M21,25.9375 L21,21.0625 C21,20.925 20.8875,20.8125 20.75,20.8125 L19.25,20.8125 C19.1125,20.8125 19,20.925 19,21.0625 L19,25.9375 L13,25.9375 L13,21.0625 C13,20.925 12.8875,20.8125 12.75,20.8125 L11.25,20.8125 C11.1125,20.8125 11,20.925 11,21.0625 L11,25.9375 L6.3375,25.9375 L7.746875,17.8125 L24.25,17.8125 L25.659375,25.9375 L21,25.9375 Z" id="Shape" fill="#2D3040" fill-rule="nonzero"></path>
    </g>
</svg>