<?xml version="1.0" encoding="UTF-8"?>
<svg width="32px" height="32px" viewBox="0 0 32 32" version="1.1" xmlns="http://www.w3.org/2000/svg" xmlns:xlink="http://www.w3.org/1999/xlink">
    <!-- Generator: Sketch 59 (86127) - https://sketch.com -->
    <title>icons/location</title>
    <desc>Created with Sketch.</desc>
    <g id="icons/location" stroke="none" stroke-width="1" fill="none" fill-rule="evenodd">
        <rect id="Rectangle" fill="#2D3040" fill-rule="nonzero" opacity="0" x="0" y="0" width="32" height="32"></rect>
        <path d="M26.70625,9.034375 C26.11875,7.678125 25.278125,6.4625 24.209375,5.41875 C23.140625,4.375 21.9,3.559375 20.515625,2.9875 C19.084375,2.39375 17.565625,2.09375 16,2.09375 C14.434375,2.09375 12.915625,2.39375 11.484375,2.984375 C10.1,3.55625 8.859375,4.375 7.790625,5.415625 C6.721875,6.459375 5.88125,7.678125 5.29375,9.03125 C4.684375,10.4375 4.375,11.93125 4.375,13.46875 C4.375,15.675 4.903125,17.871875 5.940625,19.990625 C6.775,21.69375 7.940625,23.353125 9.409375,24.93125 C11.91875,27.625 14.55,29.271875 15.296875,29.7125 C15.5125,29.840625 15.75625,29.903125 15.996875,29.903125 C16.240625,29.903125 16.48125,29.840625 16.696875,29.7125 C17.44375,29.271875 20.075,27.625 22.584375,24.93125 C24.053125,23.35625 25.21875,21.69375 26.053125,19.990625 C27.096875,17.875 27.625,15.68125 27.625,13.471875 C27.625,11.934375 27.315625,10.440625 26.70625,9.034375 Z M16,27.50625 C13.940625,26.196875 6.625,21.0125 6.625,13.471875 C6.625,11.0375 7.596875,8.75 9.3625,7.025 C11.134375,5.296875 13.490625,4.34375 16,4.34375 C18.509375,4.34375 20.865625,5.296875 22.6375,7.028125 C24.403125,8.75 25.375,11.0375 25.375,13.471875 C25.375,21.0125 18.059375,26.196875 16,27.50625 Z M16,8.21875 C12.9625,8.21875 10.5,10.68125 10.5,13.71875 C10.5,16.75625 12.9625,19.21875 16,19.21875 C19.0375,19.21875 21.5,16.75625 21.5,13.71875 C21.5,10.68125 19.0375,8.21875 16,8.21875 Z M18.475,16.19375 C17.8125,16.853125 16.934375,17.21875 16,17.21875 C15.065625,17.21875 14.1875,16.853125 13.525,16.19375 C12.865625,15.53125 12.5,14.653125 12.5,13.71875 C12.5,12.784375 12.865625,11.90625 13.525,11.24375 C14.1875,10.58125 15.065625,10.21875 16,10.21875 C16.934375,10.21875 17.8125,10.58125 18.475,11.24375 C19.1375,11.90625 19.5,12.784375 19.5,13.71875 C19.5,14.653125 19.1375,15.53125 18.475,16.19375 Z" id="Shape" fill="#2D3040" fill-rule="nonzero"></path>
    </g>
</svg>