<?xml version="1.0" encoding="UTF-8"?>
<svg width="32px" height="32px" viewBox="0 0 32 32" version="1.1" xmlns="http://www.w3.org/2000/svg" xmlns:xlink="http://www.w3.org/1999/xlink">
    <!-- Generator: Sketch 59 (86127) - https://sketch.com -->
    <title>icons/arr-download</title>
    <desc>Created with Sketch.</desc>
    <g id="icons/arr-download" stroke="none" stroke-width="1" fill="none" fill-rule="evenodd">
        <rect id="Rectangle" fill="#2D3040" fill-rule="nonzero" opacity="0" x="0" y="0" width="32" height="32"></rect>
        <path d="M15.803125,20.65625 C15.903125,20.784375 16.096875,20.784375 16.196875,20.65625 L19.696875,16.228125 C19.825,16.065625 19.709375,15.825 19.5,15.825 L17.184375,15.825 L17.184375,5.25 C17.184375,5.1125 17.071875,5 16.934375,5 L15.059375,5 C14.921875,5 14.809375,5.1125 14.809375,5.25 L14.809375,15.821875 L12.5,15.821875 C12.290625,15.821875 12.175,16.0625 12.303125,16.225 L15.803125,20.65625 Z M27.4375,19.5625 L25.5625,19.5625 C25.425,19.5625 25.3125,19.675 25.3125,19.8125 L25.3125,24.625 L6.6875,24.625 L6.6875,19.8125 C6.6875,19.675 6.575,19.5625 6.4375,19.5625 L4.5625,19.5625 C4.425,19.5625 4.3125,19.675 4.3125,19.8125 L4.3125,26 C4.3125,26.553125 4.759375,27 5.3125,27 L26.6875,27 C27.240625,27 27.6875,26.553125 27.6875,26 L27.6875,19.8125 C27.6875,19.675 27.575,19.5625 27.4375,19.5625 Z" id="Shape" fill="#2D3040" fill-rule="nonzero"></path>
    </g>
</svg>