<?xml version="1.0" encoding="UTF-8"?>
<svg width="32px" height="32px" viewBox="0 0 32 32" version="1.1" xmlns="http://www.w3.org/2000/svg" xmlns:xlink="http://www.w3.org/1999/xlink">
    <!-- Generator: Sketch 59 (86127) - https://sketch.com -->
    <title>icons/key</title>
    <desc>Created with Sketch.</desc>
    <g id="icons/key" stroke="none" stroke-width="1" fill="none" fill-rule="evenodd">
        <rect id="Rectangle" fill="#2D3040" fill-rule="nonzero" opacity="0" x="0" y="0" width="32" height="32"></rect>
        <path d="M19,3.5 C13.753125,3.5 9.5,7.753125 9.5,13 C9.5,15.196875 10.246875,17.21875 11.496875,18.828125 L10.2125,20.1125 L8.265625,18.165625 C8.16875,18.06875 8.009375,18.06875 7.909375,18.165625 L6.665625,19.409375 C6.56875,19.50625 6.56875,19.665625 6.665625,19.765625 L8.6125,21.7125 L7.209375,23.115625 L5.2625,21.16875 C5.165625,21.071875 5.00625,21.071875 4.90625,21.16875 L3.6625,22.4125 C3.565625,22.509375 3.565625,22.66875 3.6625,22.76875 L5.609375,24.715625 L3.56875,26.75625 C3.471875,26.853125 3.471875,27.0125 3.56875,27.109375 L4.890625,28.43125 C4.9875,28.528125 5.146875,28.528125 5.24375,28.43125 L13.16875,20.50625 C14.78125,21.753125 16.803125,22.5 19,22.5 C24.246875,22.5 28.5,18.246875 28.5,13 C28.5,7.753125 24.246875,3.5 19,3.5 Z M24.0375,18.0375 C22.69375,19.384375 20.903125,20.125 19,20.125 C17.096875,20.125 15.30625,19.384375 13.9625,18.0375 C12.615625,16.69375 11.875,14.903125 11.875,13 C11.875,11.096875 12.615625,9.30625 13.9625,7.9625 C15.30625,6.615625 17.096875,5.875 19,5.875 C20.903125,5.875 22.69375,6.615625 24.0375,7.9625 C25.384375,9.30625 26.125,11.096875 26.125,13 C26.125,14.903125 25.384375,16.69375 24.0375,18.0375 Z" id="Shape" fill="#2D3040" fill-rule="nonzero"></path>
    </g>
</svg>