<?xml version="1.0" encoding="utf-8"?>
<!-- Generator: Adobe Illustrator 16.0.0, SVG Export Plug-In . SVG Version: 6.00 Build 0)  -->
<!DOCTYPE svg PUBLIC "-//W3C//DTD SVG 1.1//EN" "http://www.w3.org/Graphics/SVG/1.1/DTD/svg11.dtd">
<svg version="1.1" id="图层_1" xmlns="http://www.w3.org/2000/svg" xmlns:xlink="http://www.w3.org/1999/xlink" x="0px" y="0px"
	 width="200px" height="200px" viewBox="0 0 200 200" enable-background="new 0 0 200 200" xml:space="preserve">
<path d="M179.314,94.386l-0.03-0.03l-26.87-26.87c-1.49-1.49-3.501-2.311-5.664-2.311s-4.174,0.821-5.664,2.311
	c-3.07,3.07-3.07,8.257,0,11.328L154.271,92H79.6c-4.411,0-8,3.589-8,8s3.589,8,8,8h74.772l-13.286,13.286
	c-3.07,3.069-3.07,8.258,0,11.328c1.535,1.534,3.6,2.303,5.664,2.303s4.129-0.769,5.664-2.303l26.9-26.9
	C182.385,102.643,182.385,97.456,179.314,94.386z M140.4,141.9c-3.647,0-6.727,2.455-7.686,5.8H132.4v21.8c0,2.206-1.795,4-4,4h-90
	c-2.206,0-4-1.794-4-4v-139c0-2.206,1.794-4,4-4h90c2.205,0,4,1.794,4,4V55h0.263c0.892,3.445,4.017,6,7.737,6
	c3.72,0,6.845-2.555,7.736-6h0.264V30.5c0-11.028-8.973-20-20-20h-90c-11.028,0-20,8.972-20,20v139c0,11.027,8.972,20,20,20h90
	c11.027,0,20-8.973,20-20v-21.8h-0.315C147.127,144.357,144.048,141.9,140.4,141.9z"/>
</svg>
