<?xml version="1.0" standalone="no"?><!DOCTYPE svg PUBLIC "-//W3C//DTD SVG 1.1//EN" "http://www.w3.org/Graphics/SVG/1.1/DTD/svg11.dtd"><svg t="1571982795346" class="icon" viewBox="0 0 1024 1024" version="1.1" xmlns="http://www.w3.org/2000/svg" p-id="14633" xmlns:xlink="http://www.w3.org/1999/xlink" width="200" height="200"><defs><style type="text/css"></style></defs><path d="M890.825 166.182a21.415 21.415 0 0 0-30.283-30.27l-262.936 262.97V193.81a21.402 21.402 0 0 0-42.81 0.014v256.71a21.49 21.49 0 0 0 21.402 21.394h256.71a21.395 21.395 0 1 0-0.007-42.796H627.85l262.976-262.95zM469.238 835.707v-256.71a21.477 21.477 0 0 0-21.388-21.402H191.12a21.415 21.415 0 0 0-21.402 21.402 21.422 21.422 0 0 0 21.415 21.395h205.066l-262.983 262.95a21.395 21.395 0 0 0 0 30.275 21.388 21.388 0 0 0 30.283 0l262.956-262.97v205.08a21.388 21.388 0 1 0 42.783-0.02z" p-id="14634"></path></svg>