<?xml version="1.0" encoding="utf-8"?>
<!-- Generator: Adobe Illustrator 16.0.0, SVG Export Plug-In . SVG Version: 6.00 Build 0)  -->
<!DOCTYPE svg PUBLIC "-//W3C//DTD SVG 1.1//EN" "http://www.w3.org/Graphics/SVG/1.1/DTD/svg11.dtd">
<svg version="1.1" id="图层_1" xmlns="http://www.w3.org/2000/svg" xmlns:xlink="http://www.w3.org/1999/xlink" x="0px" y="0px"
	 width="200px" height="200px" viewBox="0 0 200 200" enable-background="new 0 0 200 200" xml:space="preserve">
<path d="M147.641,138.833l0.002,7.425l-60.206,34.75l-60.222-34.707l-0.025-69.43l7.334-4.234l-0.003-7.72L20.502,73.01
	l0.028,77.156l66.913,38.563l66.887-38.609l-0.006-15.148L147.641,138.833z M46.47,126.111l-5.241-3.02l-0.025-69.544l60.192-34.75
	l60.166,34.706l0.002,8.174l6.688,3.858l-0.006-15.897l-66.851-38.563l-66.88,38.611l0.028,77.27l11.928,6.875L46.47,126.111z
	 M180.125,72.384l-66.852-38.563L46.451,72.432l0.026,77.16l66.851,38.564l66.822-38.609L180.125,72.384L180.125,72.384z
	 M86.833,141.086h-7.045v-5.309h7.045V141.086z M86.833,123.256h-7.045v-5.309h7.045V123.256L86.833,123.256z M86.833,107.02h-7.045
	v-5.309h7.045V107.02z M86.833,89.034h-7.045V83.7h7.045V89.034z M146.291,141.086h-50.34v-5.309h50.34V141.086z M146.291,123.256
	h-50.34v-5.309h50.34V123.256L146.291,123.256z M146.291,107.02h-50.34v-5.309h50.34V107.02z M146.291,89.034h-50.34V83.7h50.34
	V89.034z"/>
</svg>
