<?xml version="1.0" standalone="no"?><!DOCTYPE svg PUBLIC "-//W3C//DTD SVG 1.1//EN" "http://www.w3.org/Graphics/SVG/1.1/DTD/svg11.dtd"><svg t="1571973790277" class="icon" viewBox="0 0 1024 1024" version="1.1" xmlns="http://www.w3.org/2000/svg" p-id="9054" xmlns:xlink="http://www.w3.org/1999/xlink" width="200" height="200"><defs><style type="text/css"></style></defs><path d="M768 548.571V182.857H512v649.714q68-36 121.714-78.285Q768 649.143 768 548.57z m109.714-438.857v438.857q0 49.143-19.143 97.429t-47.428 85.714-67.429 72.857-72.285 58.858-69.143 44.285T551.143 936t-24.286 11.429Q520 950.857 512 950.857t-14.857-3.428q-9.143-4-24.286-11.429t-51.143-28.286-69.143-44.285-72.285-58.858-67.429-72.857T165.43 646t-19.143-97.429V109.714q0-14.857 10.857-25.714t25.714-10.857h658.286Q856 73.143 866.857 84t10.857 25.714z" p-id="9055"></path></svg>