<?xml version="1.0" encoding="utf-8"?>
<!-- Generator: Adobe Illustrator 16.0.0, SVG Export Plug-In . SVG Version: 6.00 Build 0)  -->
<!DOCTYPE svg PUBLIC "-//W3C//DTD SVG 1.1//EN" "http://www.w3.org/Graphics/SVG/1.1/DTD/svg11.dtd">
<svg version="1.1" id="图层_1" xmlns="http://www.w3.org/2000/svg" xmlns:xlink="http://www.w3.org/1999/xlink" x="0px" y="0px"
	 width="200px" height="200px" viewBox="0 0 200 200" enable-background="new 0 0 200 200" xml:space="preserve">
<path d="M31.328,196.504c-9.297,0-16.875-7.52-16.875-16.777l-0.059-78.477c0-1.445,0.566-2.813,1.582-3.828
	s2.402-1.582,3.848-1.582c3.008,0,5.449,2.422,5.449,5.391l0.059,78.496c0,3.281,2.695,5.977,6.016,5.977l137.891-0.078
	c3.32,0,6.016-2.695,6.016-6.016l-0.02-79.18c0-2.988,2.441-5.41,5.449-5.41s5.449,2.422,5.449,5.41l0.02,79.16
	c0,9.258-7.559,16.797-16.855,16.816L31.328,196.504z M38.965,110.137c-6.406,0-12.148-1.211-17.07-3.594v-0.723l-0.625-0.02h-0.801
	C8.184,99.082,0.547,86.23,0.527,72.266c0-4.023,0.645-8.047,1.934-11.934L2.5,60.234l0.02-0.098
	c0.059-0.293,0.117-0.566,0.176-0.723l18.457-43.477l0.02-0.059C23.77,8.145,31.094,3.32,40.215,3.32h120.586
	c9.316,0.02,17.09,5.117,19.727,12.988l0.02,0.059l17.207,42.637c0.098,0.273,0.195,0.547,0.273,0.879l0.02,0.059
	c0.02,0.039,0.02,0.078,0.02,0.098l0.02,0.156l0.059,0.156c1.23,3.73,1.875,7.793,1.855,11.719c0,14.023-7.656,26.914-20,33.613
	c-5.195,2.852-11.367,4.277-18.379,4.336c-11.387,0-22.09-4.961-29.375-13.574l-1.445-1.719l-1.445,1.719
	c-7.207,8.555-17.773,13.516-29.023,13.594c-11.289-0.059-21.914-5.02-29.141-13.574l-1.445-1.699l-1.445,1.699
	C61.016,105.137,50.332,110.098,38.965,110.137z M26.445,96.719c3.477,1.738,7.676,2.617,12.52,2.617
	c9.551-0.039,18.281-4.902,23.359-13.027l0.059-0.098l0.059-0.117c0.273-0.586,0.781-1.68,1.719-2.734l0.039-0.059
	c1.074-1.289,3.145-2.051,5.43-2.051c2.422,0,4.609,0.879,5.859,2.363l0.039,0.039c0.664,0.742,1.133,1.68,1.445,2.324l0.059,0.117
	l0.039,0.078c5.059,8.145,13.75,13.066,23.262,13.105c9.453-0.078,18.105-4.961,23.145-13.086l0.059-0.078l0.039-0.078
	c0.332-0.645,0.801-1.641,1.621-2.578l0.039-0.039c1.172-1.445,3.34-2.344,5.605-2.344c2.93,0,4.668,1.25,5.625,2.324
	c0.879,0.977,1.367,1.992,1.641,2.598l0.039,0.098l0.059,0.098c5.078,8.184,13.828,13.066,23.418,13.066
	c5.156-0.039,9.59-1.035,13.184-3.008c8.867-4.844,14.355-14.082,14.336-24.102c0-2.988-0.508-5.996-1.504-8.926
	c-0.059-0.195-0.117-0.43-0.156-0.645l-0.039-0.156l-17.09-42.344c-1.914-5.508-7.344-5.82-9.414-5.957H40.215
	c-4.609,0-7.617,1.914-8.945,5.645l-18.223,42.93l-0.039,0.156c-0.039,0.176-0.078,0.332-0.117,0.469
	c-0.996,2.93-1.504,5.938-1.504,8.965c0,10.176,5.605,19.453,14.609,24.238l0.43,0.215L26.445,96.719z M40.352,65.02
	c-3.008,0-5.449-2.422-5.449-5.41s2.441-5.41,5.449-5.41h117.285c3.008,0,5.449,2.422,5.449,5.41s-2.441,5.41-5.449,5.41H40.352z"/>
</svg>
