<?xml version="1.0" encoding="utf-8"?>
<!-- Generator: Adobe Illustrator 16.0.0, SVG Export Plug-In . SVG Version: 6.00 Build 0)  -->
<!DOCTYPE svg PUBLIC "-//W3C//DTD SVG 1.1//EN" "http://www.w3.org/Graphics/SVG/1.1/DTD/svg11.dtd">
<svg version="1.1" id="图层_1" xmlns="http://www.w3.org/2000/svg" xmlns:xlink="http://www.w3.org/1999/xlink" x="0px" y="0px"
	 width="200px" height="200px" viewBox="0 0 200 200" enable-background="new 0 0 200 200" xml:space="preserve">
<path fill="#666666" d="M173.33,52.25L115,18.92c-2.53-1.47-5.41-2.25-8.33-2.25c-2.93,0-5.8,0.78-8.34,2.25L40,52.25
	c-5.15,2.97-8.33,8.47-8.33,14.42v66.66c0,5.95,3.18,11.45,8.33,14.42l58.33,33.33c5.16,2.979,11.51,2.979,16.67,0l58.33-33.33
	c5.15-2.97,8.33-8.47,8.34-14.42V66.67C181.66,60.72,178.48,55.22,173.33,52.25z M167.09,72.5L165,73.71v59.62l-50,28.58v4.76
	c0,5.55-2.78,8.33-8.33,8.33c-2.78,0-4.87-0.7-6.25-2.08c-1.4-1.39-2.09-3.479-2.09-6.25v-4.77l-50-28.57V73.67
	c-4.32-2.75-5.13-6.42-2.47-11.03c2.77-4.82,6.57-5.83,11.38-3.05l1.73,1l47.7-27.26v-0.66l48.29,27.59l3.79-2.19
	c4.81-2.78,8.61-1.76,11.39,3.05c1.011,1.76,1.521,3.39,1.521,4.88C171.66,68.57,170.14,70.74,167.09,72.5z M115,161.91v4.76
	c0,5.55-2.78,8.33-8.33,8.33c-2.78,0-4.87-0.7-6.25-2.08c-1.4-1.39-2.09-3.479-2.09-6.25v-4.77l8.34,4.77L115,161.91z M171.66,66
	c0,2.57-1.521,4.74-4.57,6.5L165,73.71V66l-10.04-5.74l3.79-2.19c4.81-2.78,8.61-1.76,11.39,3.05
	C171.15,62.88,171.66,64.51,171.66,66z M165,66v7.71l-50,28.87V100c0-3.56-1.14-5.98-3.42-7.25c-0.66-1.58-2.04-2.96-4.11-4.16
	l-0.79-0.46l48.28-27.87L165,66z M115,102.58v59.33l-8.33,4.76l-8.34-4.77V102.55l0.81,0.47c1.76,1.021,3.379,1.53,4.87,1.53
	c0.931,0,1.811-0.2,2.63-0.59c2.16,1.05,4.67,0.75,7.551-0.91L115,102.58z M115,100v2.58l-0.81,0.47
	c-2.881,1.66-5.391,1.96-7.551,0.91c1.46-0.71,2.75-2.04,3.88-3.99c1.58-2.74,1.931-5.14,1.061-7.22C113.86,94.02,115,96.44,115,100
	z M106.64,103.96c-0.819,0.39-1.699,0.59-2.63,0.59c-1.49,0-3.109-0.51-4.87-1.53l-0.81-0.47V100c0-3.56,1.14-5.98,3.42-7.24
	c-0.32,0.74-0.48,1.53-0.48,2.36c0,1.49,0.511,3.12,1.53,4.88C103.92,101.93,105.2,103.25,106.64,103.96z M110.52,99.97
	c-1.13,1.95-2.42,3.28-3.88,3.99c-1.439-0.71-2.72-2.03-3.84-3.96c-1.02-1.76-1.53-3.39-1.53-4.88c0-0.83,0.16-1.62,0.48-2.36
	c1.28-0.73,2.92-1.09,4.92-1.09c1.99,0,3.63,0.36,4.91,1.08C112.45,94.83,112.1,97.23,110.52,99.97z M111.58,92.75
	c-1.28-0.72-2.92-1.08-4.91-1.08c-2,0-3.64,0.36-4.92,1.09c0.66-1.57,2.03-2.96,4.1-4.15l0.83-0.48l0.79,0.46
	C109.54,89.79,110.92,91.17,111.58,92.75z M106.68,88.13l-0.83,0.48c-2.069,1.19-3.439,2.58-4.1,4.15
	c-2.28,1.26-3.42,3.68-3.42,7.24v2.55L48.91,74.02c-0.2-0.12-0.4-0.23-0.58-0.35v-7l10.64-6.08L106.68,88.13z M58.97,60.59
	l-10.64,6.08v7c-4.32-2.75-5.13-6.42-2.47-11.03c2.77-4.82,6.57-5.83,11.38-3.05L58.97,60.59z"/>
</svg>
