<?xml version="1.0" encoding="UTF-8"?>
<svg width="16px" height="16px" viewBox="0 0 16 16" version="1.1" xmlns="http://www.w3.org/2000/svg" xmlns:xlink="http://www.w3.org/1999/xlink">
    <title>p-amb-worksheet备份 2</title>
    <g id="页面-1" stroke="none" stroke-width="1" fill="none" fill-rule="evenodd">
        <g id="画板" transform="translate(-438.000000, -121.000000)">
            <g id="p-amb-worksheet备份-2" transform="translate(438.000000, 121.000000)">
                <rect id="矩形" fill="#D8D8D8" opacity="0" x="0" y="0" width="16" height="16"></rect>
                <g id="编组" transform="translate(1.000000, 4.000000)" fill="#000000" fill-rule="nonzero">
                    <path d="M10.2222316,0 C12.3000084,0 14,1.69999157 14,3.77776841 C14,5.85554525 12.3000084,7.55553681 10.2222316,7.55553681 L3.77776841,7.55553681 C1.69999157,7.55553681 0,5.85554525 0,3.77776841 C0,1.69999157 1.69999157,0 3.77776841,0 L10.2222316,0 Z M3.77516088,1.30260753 C2.40816727,1.30260753 1.3,2.4107748 1.3,3.77776841 C1.3,5.14476201 2.40816727,6.25292928 3.77516088,6.25292928 C5.14215448,6.25292928 6.25032175,5.14476201 6.25032175,3.77776841 C6.25032175,2.4107748 5.14215448,1.30260753 3.77516088,1.30260753 Z" id="形状结合"></path>
                </g>
            </g>
        </g>
    </g>
</svg>