<?xml version="1.0" standalone="no"?><!DOCTYPE svg PUBLIC "-//W3C//DTD SVG 1.1//EN" "http://www.w3.org/Graphics/SVG/1.1/DTD/svg11.dtd"><svg t="1571972703885" class="icon" viewBox="0 0 1024 1024" version="1.1" xmlns="http://www.w3.org/2000/svg" p-id="5636" xmlns:xlink="http://www.w3.org/1999/xlink" width="200" height="200"><defs><style type="text/css"></style></defs><path d="M587.459 269.23c-2.253-13.046-14.388-26.347-27.044-29.235l-9.421-2.253c-22.15-6.922-41.79-22.088-54.323-44.38a100.065 100.065 0 0 1-10.005-71.28l2.98-9.186c3.779-12.677-1.126-30.188-11.018-38.892 0 0-8.878-7.741-33.813-22.63-24.995-14.807-35.747-18.944-35.747-18.944-12.125-4.587-29.174-0.205-38.063 9.534l-6.563 7.28a91.402 91.402 0 0 1-64.39 26.41 91.77 91.77 0 0 1-64.593-26.625l-6.37-7.065c-8.755-9.739-25.866-14.05-38.062-9.524 0 0-10.885 4.127-35.88 18.934-24.997 15.022-33.752 22.774-33.752 22.774-9.881 8.56-14.786 25.938-11.008 38.748l2.714 9.257c5.314 23.398 2.519 48.783-10.005 71.209-12.533 22.415-32.368 37.724-54.65 44.523l-9.083 2.12c-12.473 2.939-24.74 16.108-27.055 29.225 0 0-2.058 11.725-2.058 41.564 0 29.83 2.058 41.554 2.058 41.554 2.253 13.169 14.388 26.337 27.055 29.235l8.878 2.11a93.696 93.696 0 0 1 54.722 44.667 99.963 99.963 0 0 1 10.005 71.26l-2.58 9.062c-3.78 12.667 1.126 30.188 11.007 38.892 0 0 8.889 7.741 33.823 22.63 24.996 14.879 35.748 18.944 35.748 18.944 12.124 4.588 29.174 0.184 38.052-9.533l6.246-6.943c16.906-16.538 39.66-26.675 64.717-26.675 25.067 0 47.943 10.21 64.717 26.747l6.246 6.932c8.755 9.728 25.856 14.06 38.062 9.534 0 0 10.875-4.127 35.87-18.934 24.997-14.89 33.752-22.64 33.752-22.64 9.892-8.582 14.797-26.072 11.018-38.882l-2.724-9.39c-5.304-23.276-2.519-48.66 10.015-70.933a94.536 94.536 0 0 1 54.723-44.667l8.878-2.12c12.472-2.959 24.73-16.127 27.054-29.224 0 0 2.058-11.725 2.058-41.564-0.133-29.83-2.191-41.626-2.191-41.626zM300.052 430.264c-63.733 0-115.517-53.422-115.517-119.48 0-65.915 51.65-119.347 115.517-119.347 63.724 0 115.528 53.432 115.528 119.49-0.133 65.915-51.804 119.337-115.528 119.337z m701.277 231.097c-2.253-13.046-14.388-26.348-27.054-29.225l-9.421-2.263c-22.15-6.923-41.78-22.088-54.313-44.38a100.116 100.116 0 0 1-10.015-71.281l2.99-9.185c3.779-12.678-1.136-30.188-11.018-38.892 0 0-8.888-7.741-33.813-22.63-24.995-14.807-35.747-18.934-35.747-18.934-12.135-4.598-29.174-0.215-38.062 9.523l-6.575 7.28a91.382 91.382 0 0 1-64.389 26.41 91.77 91.77 0 0 1-64.594-26.624l-6.359-7.056c-8.755-9.748-25.866-14.06-38.062-9.533 0 0-10.885 4.127-35.88 18.934-24.997 15.032-33.752 22.773-33.752 22.773-9.881 8.561-14.797 25.938-11.018 38.749l2.724 9.257c5.304 23.408 2.519 48.793-10.015 71.208-12.523 22.416-32.368 37.725-54.65 44.524l-9.073 2.12c-12.473 2.949-24.74 16.117-27.065 29.225 0 0-2.048 11.724-2.048 41.564 0 29.829 2.048 41.554 2.048 41.554 2.253 13.168 14.388 26.337 27.065 29.235l8.878 2.11c22.282 6.799 42.25 22.108 54.712 44.666a99.983 99.983 0 0 1 10.015 71.27l-2.591 9.053c-3.779 12.677 1.137 30.187 11.018 38.891 0 0 8.889 7.742 33.813 22.63 24.996 14.88 35.748 18.945 35.748 18.945 12.134 4.587 29.173 0.194 38.062-9.534l6.246-6.942c16.906-16.538 39.65-26.676 64.717-26.676 25.057 0 47.944 10.21 64.717 26.747l6.246 6.943c8.745 9.718 25.856 14.05 38.052 9.523 0 0 10.875-4.127 35.88-18.934 24.997-14.889 33.752-22.63 33.752-22.63 9.882-8.581 14.797-26.081 11.018-38.892l-2.724-9.39c-5.304-23.275-2.519-48.65 10.015-70.932a94.546 94.546 0 0 1 54.712-44.667l8.889-2.12c12.462-2.959 24.73-16.128 27.054-29.225 0 0 2.058-11.724 2.058-41.554-0.133-29.839-2.191-41.635-2.191-41.635zM713.912 822.395c-63.723 0-115.517-53.422-115.517-119.47 0-65.925 51.66-119.358 115.517-119.358 63.734 0 115.528 53.433 115.528 119.49-0.133 65.916-51.794 119.338-115.528 119.338z" p-id="5637"></path></svg>