<?xml version="1.0" encoding="utf-8"?>
<!-- Generator: Adobe Illustrator 16.0.0, SVG Export Plug-In . SVG Version: 6.00 Build 0)  -->
<!DOCTYPE svg PUBLIC "-//W3C//DTD SVG 1.1//EN" "http://www.w3.org/Graphics/SVG/1.1/DTD/svg11.dtd">
<svg version="1.1" id="图层_1" xmlns="http://www.w3.org/2000/svg" xmlns:xlink="http://www.w3.org/1999/xlink" x="0px" y="0px"
	 width="200px" height="200px" viewBox="0 0 200 200" enable-background="new 0 0 200 200" xml:space="preserve">
<path d="M79.395,28.223c-2.52,0.977-4.219,2.656-5.234,5.117c-0.84,2.07-1.23,4.688-1.23,7.93v8.984H38.32
	c-2.129,0-3.848,1.719-3.848,3.848v3.848c0,2.109,1.738,3.848,3.848,3.848h11.543v100c0,4.238,3.438,7.695,7.695,7.695h88.457
	c4.258,0,7.695-3.438,7.695-7.695v-100h11.543c2.109,0,3.848-1.719,3.848-3.848v-3.848c0-2.129-1.738-3.848-3.848-3.848h-38.457
	V41.27c0-3.223-0.371-5.859-1.23-7.93c-1.016-2.461-2.695-4.141-5.234-5.117 M120.332,28.223c-1.855-0.723-4.18-1.055-7.012-1.055
	H86.406c-2.832,0-5.137,0.352-7.012,1.055 M84.492,41.27c0-1.152,0.078-1.914,0.137-2.48c0.43-0.059,0.977-0.098,1.777-0.098h26.934
	c0.781,0,1.348,0.039,1.777,0.098c0.078,0.547,0.137,1.328,0.137,2.48v8.984H84.492V41.27z M142.168,157.93H61.406V61.777h80.762
	V157.93z M99.883,142.539h3.848c2.109,0,3.848-1.719,3.848-3.848V84.844c0-2.129-1.738-3.848-3.848-3.848h-3.848
	c-2.129,0-3.848,1.719-3.848,3.848v53.848C96.035,140.82,97.754,142.539,99.883,142.539z M122.949,134.863h3.848
	c2.129,0,3.848-1.719,3.848-3.848V92.539c0-2.109-1.719-3.848-3.848-3.848h-3.848c-2.129,0-3.848,1.738-3.848,3.848v38.457
	C119.102,133.145,120.82,134.863,122.949,134.863z M76.797,134.863h3.848c2.129,0,3.848-1.719,3.848-3.848V92.539
	c0-2.109-1.719-3.848-3.848-3.848h-3.848c-2.129,0-3.848,1.738-3.848,3.848v38.457C72.949,133.145,74.668,134.863,76.797,134.863z"
	/>
</svg>
