<?xml version="1.0" standalone="no"?><!DOCTYPE svg PUBLIC "-//W3C//DTD SVG 1.1//EN" "http://www.w3.org/Graphics/SVG/1.1/DTD/svg11.dtd"><svg t="1571983516363" class="icon" viewBox="0 0 1024 1024" version="1.1" xmlns="http://www.w3.org/2000/svg" p-id="17334" xmlns:xlink="http://www.w3.org/1999/xlink" width="200" height="200"><defs><style type="text/css"></style></defs><path d="M817.72 622.11c-34.16 0-65.495 12.212-89.968 32.4l-52.122-47.938a187.085 187.085 0 0 0 50.862-128.569c0-51.568-20.792-98.294-54.497-132.198l30.679-31.59c23.106 23.613 55.25 38.246 90.824 38.246 70.19 0 127.052-56.92 127.052-127.053 0-70.236-56.862-127.053-127.052-127.053s-127.053 56.817-127.053 127.053c0 25.533 7.516 49.352 20.485 69.228l-33.603 34.616c-31.682-24.32-71.393-38.953-114.442-38.953-55.506 0-105.36 24.12-139.72 62.367l-57.42-52.788a103.598 103.598 0 0 0 14.883-53.688c0-57.523-46.725-104.248-104.248-104.248-57.574 0-104.248 46.725-104.248 104.248 0 57.626 46.679 104.248 104.248 104.248 28.964 0 55.102-11.806 74.025-30.878l57.324 52.782a186.839 186.839 0 0 0-32.548 105.661c0 45.113 15.79 86.288 42.286 118.682l-24.725 25.43c-31.994-35.117-78.11-57.118-129.326-57.118-96.68 0-175.042 78.413-175.042 174.997 0 96.675 78.361 175.088 175.042 175.088 96.63 0 174.94-78.407 174.94-175.088 0-36.332-11.054-70.134-30.074-98.094l26.137-26.942a187.34 187.34 0 0 0 128.471 50.76 186.624 186.624 0 0 0 118.375-42.087l52.68 48.338c-20.941 24.725-33.706 56.715-33.706 91.633 0 78.208 63.376 141.491 141.486 141.491s141.492-63.278 141.492-141.491c-0.005-78.11-63.386-141.491-141.497-141.491zM537.8 362.103c30.428 0 55.111 24.284 55.111 54.236 0 29.962-24.678 54.246-55.111 54.246-30.367 0-55.056-24.289-55.056-54.246s24.7-54.236 55.056-54.236z m96.491 201.303c0 15.252-31.897 15.836-71.23 15.836h-45.86c-39.33 0-71.218-0.026-71.218-15.836v-4.51c0-38.708 31.887-70.15 71.219-70.15h45.86c39.342 0 71.23 31.447 71.23 70.15v4.51z" p-id="17335"></path></svg>