<svg xmlns="http://www.w3.org/2000/svg" xmlns:xlink="http://www.w3.org/1999/xlink" preserveAspectRatio="xMidYMid" width="200" height="200" viewBox="0 0 200 200">
  <defs>
    <style>
      .cls-1 {
        fill: #000;
        fill-rule: evenodd;
      }
    </style>
  </defs>
  <path d="M152.156,176.876 C150.639,186.173 142.756,192.989 133.517,192.992 L23.895,192.992 C13.459,192.988 5.000,184.356 5.000,173.708 L5.000,40.392 C5.000,30.747 11.945,22.750 21.017,21.333 C20.875,22.295 20.797,23.285 20.797,24.283 L20.797,157.599 C20.802,168.243 29.259,176.872 39.691,176.876 L152.163,176.876 L152.156,176.876 ZM55.489,4.999 L165.097,4.999 C175.536,4.999 183.998,13.633 183.998,24.283 L183.998,141.489 C183.995,152.137 175.534,160.765 165.097,160.765 L55.489,160.765 C45.050,160.765 36.587,152.132 36.587,141.482 L36.587,24.276 C36.591,13.629 45.052,4.999 55.489,4.999 Z" class="cls-1"/>
</svg>
