<?xml version="1.0" standalone="no"?><!DOCTYPE svg PUBLIC "-//W3C//DTD SVG 1.1//EN" "http://www.w3.org/Graphics/SVG/1.1/DTD/svg11.dtd"><svg t="1571983839983" class="icon" viewBox="0 0 1024 1024" version="1.1" xmlns="http://www.w3.org/2000/svg" p-id="17556" xmlns:xlink="http://www.w3.org/1999/xlink" width="200" height="200"><defs><style type="text/css"></style></defs><path d="M906.88 228.672H774.272V178.56c0-63.04-52.032-114.304-116.032-114.304H365.824c-64 0-116.096 51.2-116.096 114.304v50.112h-132.48c-64 0-116.096 51.264-116.096 114.304v501.568c0 63.104 52.032 114.368 116.096 114.368h789.568c64 0 116.096-51.264 116.096-114.368V602.24c-69.888 0-139.456 0.192-209.408 0.192v49.472a50.752 50.752 0 0 1-51.008 50.24 50.752 50.752 0 0 1-50.944-50.24v-49.472h-399.04v49.472a50.752 50.752 0 0 1-50.944 50.24 50.752 50.752 0 0 1-51.008-50.24v-49.472L1.152 602.24v-67.52c69.824 0 139.584-0.384 209.408-0.384a50.752 50.752 0 0 1 51.008-49.472c27.776 0 50.56 22.208 50.944 49.472h399.04a50.752 50.752 0 0 1 50.944-49.472c27.776 0 50.56 22.208 51.008 49.472 69.824 0 139.52 0.32 209.408 0.32v-191.68c0-63.04-52.096-114.304-116.096-114.304zM318.72 178.56c0-25.536 21.12-46.336 47.04-46.336h292.416a46.72 46.72 0 0 1 46.976 46.336v50.112H318.784V178.56z" p-id="17557"></path></svg>