<svg xmlns="http://www.w3.org/2000/svg" xmlns:xlink="http://www.w3.org/1999/xlink" preserveAspectRatio="xMidYMid" width="200" height="200" viewBox="0 0 200 200">
  <defs>
    <style>
      .cls-1 {
        fill: #000;
        fill-rule: evenodd;
      }
    </style>
  </defs>
  <path d="M162.294,9.999 L37.683,9.999 C22.452,9.999 9.992,22.461 9.992,37.690 L9.992,162.302 C9.992,177.531 22.452,189.993 37.683,189.993 L162.294,189.993 C177.523,189.993 189.985,177.531 189.985,162.302 L189.985,37.690 C189.985,22.461 177.523,9.999 162.294,9.999 ZM58.451,148.456 C54.574,148.456 51.529,145.410 51.529,141.533 C51.529,137.656 54.574,134.611 58.451,134.611 C62.328,134.611 65.374,137.656 65.374,141.533 C65.374,145.410 62.328,148.456 58.451,148.456 ZM58.451,106.919 C54.574,106.919 51.529,103.873 51.529,99.996 C51.529,96.119 54.574,93.074 58.451,93.074 C62.328,93.074 65.374,96.119 65.374,99.996 C65.374,103.873 62.328,106.919 58.451,106.919 ZM58.451,65.381 C54.574,65.381 51.529,62.336 51.529,58.459 C51.529,54.582 54.574,51.536 58.451,51.536 C62.328,51.536 65.374,54.582 65.374,58.459 C65.374,62.336 62.328,65.381 58.451,65.381 ZM141.525,148.456 L86.143,148.456 C82.265,148.456 79.220,145.410 79.220,141.533 C79.220,137.656 82.265,134.611 86.143,134.611 L141.525,134.611 C145.401,134.611 148.448,137.656 148.448,141.533 C148.448,145.410 145.401,148.456 141.525,148.456 ZM141.525,106.919 L86.143,106.919 C82.265,106.919 79.220,103.873 79.220,99.996 C79.220,96.119 82.265,93.074 86.143,93.074 L141.525,93.074 C145.401,93.074 148.448,96.119 148.448,99.996 C148.448,103.873 145.401,106.919 141.525,106.919 ZM141.525,65.381 L86.143,65.381 C82.265,65.381 79.220,62.336 79.220,58.459 C79.220,54.582 82.265,51.536 86.143,51.536 L141.525,51.536 C145.401,51.536 148.448,54.582 148.448,58.459 C148.448,62.336 145.401,65.381 141.525,65.381 Z" class="cls-1"/>
</svg>
