<?xml version="1.0" standalone="no"?><!DOCTYPE svg PUBLIC "-//W3C//DTD SVG 1.1//EN" "http://www.w3.org/Graphics/SVG/1.1/DTD/svg11.dtd"><svg t="1571973739406" class="icon" viewBox="0 0 1024 1024" version="1.1" xmlns="http://www.w3.org/2000/svg" p-id="8819" xmlns:xlink="http://www.w3.org/1999/xlink" width="200" height="200"><defs><style type="text/css"></style></defs><path d="M108.997 903.31v14.035c0 22.607 15.268 40.914 34.13 40.914h736.889c18.852 0 34.129-18.307 34.129-40.914V903.31H108.997zM914.13 685.847c0-23.08-15.286-41.767-34.134-41.767h-189.39c-76.109-48.33-68.91-110.11-68.91-110.11-2.945-33.444 63.65-115.384 63.65-115.384 30.849-37.293 49.299-84.562 49.299-135.98 0-116.72-95.048-212.01-214.545-217.766h-17.01c-119.51 5.734-214.548 101.046-214.548 217.766-0.085 49.42 17.31 97.39 49.307 135.98 0 0 66.59 81.94 63.65 115.384 0 0 7.202 61.78-68.915 110.11H143.126c-18.862 0-34.13 18.687-34.13 41.767v152.58l805.134-1.373V685.847zM499.119 644.08l12.453-0.032 12.457 0.032h-24.91z" p-id="8820"></path></svg>