<?xml version="1.0" standalone="no"?><!DOCTYPE svg PUBLIC "-//W3C//DTD SVG 1.1//EN" "http://www.w3.org/Graphics/SVG/1.1/DTD/svg11.dtd"><svg t="1567579386455" class="icon" viewBox="0 0 1366 1024" version="1.1" xmlns="http://www.w3.org/2000/svg" p-id="943" xmlns:xlink="http://www.w3.org/1999/xlink" width="266.796875" height="200"><defs><style type="text/css"></style></defs><path d="M1335.437831 591.164167c15.410301-22.518373 29.740175-55.670423 29.626446-83.590932-0.284323-27.977373-15.182843-60.8451-30.877466-83.07915-122.145116-172.811457-334.875508-220.009058-462.707083-228.879932-35.483498-40.089528-199.082892-165.930843-199.082892-165.930843-86.54789-66.133506-85.581192 0.568646-85.581192 0.568646l1.535344 208.294954C357.878848 363.421527 358.2769 428.872658 306.530133 462.991405c-51.689903 34.061883-106.848545-55.101777-192.259143-129.594376C28.689798 258.847565-4.177929 283.299334 0.883019 334.079404c3.809927 38.440456 41.738601 122.429439 60.048995 161.154218 3.411875 10.519947 5.572729 28.091102-4.776624 52.03109-18.822176 42.250382-49.529049 115.491961-52.429142 150.577406-4.321708 50.723205 28.944071 74.776922 113.444835-0.73924 84.4439-75.459297 137.95347-165.532791 190.325747-131.812095 52.258548 33.550102 52.827194 98.830639 285.062137 220.918891l1.649073 208.124361s0 66.702152 85.524327-0.568646c0 0 161.722864-127.604116 196.637715-168.319155 127.604116-10.463083 339.652132-60.276454 459.067749-234.282067z m-205.39486-9.212062c-39.293424 0.398052-71.194453-32.185352-71.478776-72.27488a71.990557 71.990557 0 0 1 70.512078-73.298443c39.464018-0.398052 71.251318 32.014758 71.535641 72.27488a71.64937 71.64937 0 0 1-70.568943 73.298443z" p-id="944"></path></svg>