<?xml version="1.0" standalone="no"?><!DOCTYPE svg PUBLIC "-//W3C//DTD SVG 1.1//EN" "http://www.w3.org/Graphics/SVG/1.1/DTD/svg11.dtd"><svg t="1568006526129" class="icon" viewBox="0 0 1024 1024" version="1.1" xmlns="http://www.w3.org/2000/svg" p-id="4473" xmlns:xlink="http://www.w3.org/1999/xlink" width="200" height="200"><defs><style type="text/css"></style></defs><path d="M490.666667 746.112c-190.826667-10.581333-342.336-169.109333-342.336-363.093333 0-70.229333 19.84-135.808 54.229333-191.381334 55.338667 4.629333 130.858667 17.386667 187.861333 51.541334 19.989333-83.242667 62.421333-141.845333 121.578667-179.093334 62.826667 37.248 98.773333 97.642667 122.090667 179.093334 45.610667-35.541333 126.229333-47.914667 185.045333-52.053334a362.688 362.688 0 0 1 54.528 191.872c0 193.344-150.442667 351.424-340.330667 362.986667V960a21.333333 21.333333 0 0 1-42.666666 0V746.666667v-0.554667z m-104.746667 180.074667c-47.082667-103.189333-134.762667-157.653333-236.693333-158.186667a21.333333 21.333333 0 1 1 0.213333-42.666667c118.272 0.597333 221.184 64.554667 275.306667 183.146667a21.333333 21.333333 0 1 1-38.826667 17.706667z m213.333333-17.706667c54.122667-118.613333 157.034667-182.549333 275.306667-183.146667a21.333333 21.333333 0 1 1 0.213333 42.666667c-101.930667 0.512-189.610667 54.997333-236.693333 158.186667a21.333333 21.333333 0 1 1-38.826667-17.706667z" fill="#3D3D3D" p-id="4474"></path></svg>