<?xml version="1.0" encoding="UTF-8"?>
<svg width="16px" height="16px" viewBox="0 0 16 16" version="1.1" xmlns="http://www.w3.org/2000/svg" xmlns:xlink="http://www.w3.org/1999/xlink">
    <title>p-amb-home</title>
    <g id="页面-1" stroke="none" stroke-width="1" fill="none" fill-rule="evenodd">
        <g id="画板" transform="translate(-234.000000, -141.000000)" fill="#000000" fill-rule="nonzero">
            <g id="p-amb-home" transform="translate(234.000000, 141.000000)">
                <rect id="矩形" opacity="0" x="0" y="0" width="16" height="16"></rect>
                <path d="M14.1580752,6.26697658 L9.27096077,1.49561093 C8.59398248,0.834796358 7.40185717,0.834796358 6.72487888,1.49561093 L1.83807993,6.26697658 C1.56236745,6.53634086 1.41,6.88386604 1.41,7.24366441 L1.41,13.5278627 C1.41,14.3411233 2.17152171,15 3.1112786,15 L5.82297727,15 C6.34317168,15 6.76462692,14.635034 6.76462692,14.1848015 L6.76462692,11.924596 C6.76462692,11.4152585 7.1602144,10.949846 7.73624535,10.8455239 C8.52773577,10.7021213 9.23184367,11.2282537 9.23184367,11.8893913 L9.23184367,14.1848015 C9.23184367,14.635034 9.65361441,15 10.1734933,15 L12.885192,15 C13.8246334,15 14.5864706,14.3408003 14.5864706,13.5278627 L14.5864706,7.24366441 C14.5861551,6.88386604 14.4341031,6.53634086 14.1580752,6.26697658 Z" id="路径"></path>
            </g>
        </g>
    </g>
</svg>