<?xml version="1.0" encoding="UTF-8"?>
<svg width="16px" height="16px" viewBox="0 0 16 16" version="1.1" xmlns="http://www.w3.org/2000/svg" xmlns:xlink="http://www.w3.org/1999/xlink">
    <title>p-amb-task</title>
    <g id="页面-1" stroke="none" stroke-width="1" fill="none" fill-rule="evenodd">
        <g id="画板" transform="translate(-140.000000, -141.000000)" fill="#000000" fill-rule="nonzero">
            <g id="p-amb-task" transform="translate(140.000000, 141.000000)">
                <rect id="矩形" opacity="0" x="0" y="0" width="16" height="16"></rect>
                <path d="M12.7842088,2.7334814 C13.3283509,2.7334814 13.6703831,3.19988895 13.6703831,3.6662965 L13.6703831,3.6662965 L13.6703831,13.9039423 C13.6703831,14.424764 13.126241,15 12.636513,15 L12.636513,15 L3.40164353,15 C2.80308717,15 2.36,14.3781233 2.36,13.9039423 L2.36,13.9039423 L2.36,3.72071072 C2.36,3.14547474 2.65539145,2.72570794 3.30058856,2.78012215 L3.30058856,2.78012215 L3.56488617,2.78012215 C3.78254303,2.79566907 3.95355913,2.98223209 3.94578567,3.19988895 L3.94578567,3.19988895 L3.94578567,5.02665186 C3.94578567,5.23653526 4.0934814,5.44641866 4.34223209,5.44641866 L4.34223209,5.44641866 L11.6959245,5.3997779 C11.8980344,5.3997779 12.0923709,5.24430872 12.0923709,4.9800111 L12.0923709,4.9800111 L12.0923709,3.1532482 C12.0923709,2.88895058 12.2867074,2.7334814 12.5354581,2.7334814 L12.5354581,2.7334814 Z M8.36111049,10.1804553 L5.36055525,10.1804553 C5.05739034,10.1804553 4.8164131,10.4214325 4.8164131,10.7245974 C4.8164131,11.0199889 5.05739034,11.2687396 5.36055525,11.2687396 L5.36055525,11.2687396 L8.36111049,11.2687396 C8.6642754,11.2687396 8.90525264,11.0199889 8.90525264,10.7245974 C8.90525264,10.4214325 8.6642754,10.1804553 8.36111049,10.1804553 L8.36111049,10.1804553 Z M10.6231871,8.01166019 L5.31391449,8.01166019 C5.01852304,8.01943365 4.77754581,8.2759578 4.79309273,8.57912271 C4.80086619,8.87451416 5.05739034,9.11549139 5.36055525,9.09994448 L5.36055525,9.09994448 L10.6231871,9.09994448 C10.926352,9.09994448 11.1751027,8.85119378 11.1673293,8.55580233 C11.1673293,8.25263742 10.926352,8.01166019 10.6231871,8.01166019 L10.6231871,8.01166019 Z M9.16566352,1 C9.60097723,1.00777346 9.9507829,1.34980566 9.95855636,1.78511938 C9.95855636,1.99500278 10.1062521,2.20488617 10.3550028,2.20488617 L10.3550028,2.20488617 L10.6115269,2.20488617 C10.8369572,2.21265963 11.0079733,2.39922265 11.0001999,2.62465297 L11.0001999,2.62465297 L11.0001999,3.8761799 C11.0001999,4.0860633 10.8525042,4.2959467 10.6037535,4.2959467 L10.6037535,4.2959467 L5.37221544,4.2959467 C5.17787896,4.2959467 4.97576902,4.14047751 4.97576902,3.88395336 L4.97576902,3.88395336 L4.97576902,2.63242643 C4.97576902,2.42254303 5.12346474,2.21265963 5.37221544,2.21265963 L5.37221544,2.21265963 L5.66760689,2.21265963 C5.86971682,2.21265963 6.0640533,2.05719045 6.0640533,1.79289284 C6.07182676,1.35757912 6.42163243,1.00777346 6.85694614,1 L6.85694614,1 Z M8.03851194,1.79289284 C7.59542476,1.79289284 7.19897835,2.21265963 7.19897835,2.67906718 C7.19897835,3.14547474 7.59542476,3.56524153 8.03851194,3.56524153 C8.48159911,3.56524153 8.87804553,3.25430316 8.87804553,2.67906718 C8.87804553,2.21265963 8.53601333,1.79289284 8.03851194,1.79289284 Z" id="形状结合"></path>
            </g>
        </g>
    </g>
</svg>