<?xml version="1.0" encoding="UTF-8"?>
<svg width="16px" height="16px" viewBox="0 0 16 16" version="1.1" xmlns="http://www.w3.org/2000/svg" xmlns:xlink="http://www.w3.org/1999/xlink">
    <title>p-amb-app-permisson</title>
    <g id="页面-1" stroke="none" stroke-width="1" fill="none" fill-rule="evenodd">
        <g id="画板" transform="translate(-329.000000, -141.000000)">
            <g id="p-amb-app-permisson" transform="translate(329.000000, 141.000000)">
                <rect id="矩形" fill="#D8D8D8" opacity="0" x="0" y="0" width="16" height="16"></rect>
                <path d="M10.8873818,1.0322413 L12.432,2.492 L13.9007295,1.04442835 C13.9479088,0.997884062 14.0238869,0.998398909 14.0704312,1.0455783 L14.824659,1.81009754 C14.8712033,1.85727693 14.8706885,1.93325498 14.8235091,1.97979927 L8.7502519,7.97203819 C9.36304116,8.71456706 9.73115271,9.66650682 9.73115271,10.7044236 C9.73115271,13.076805 7.80795767,15 5.43557636,15 C3.06319504,15 1.14,13.076805 1.14,10.7044236 C1.14,8.33204233 3.06319504,6.40884729 5.43557636,6.40884729 C6.29471914,6.40884729 7.09495203,6.66107049 7.76626786,7.09550971 L9.656,5.231 L7.5216231,3.12354007 C7.4744599,3.07697937 7.47397149,3.00100114 7.52053219,2.95383795 L8.27502591,2.18958112 C8.32158661,2.14241793 8.39756484,2.14192951 8.44472803,2.18849021 L10.591,4.308 L11.496,3.415 L9.98502661,1.98733086 C9.93685263,1.94181676 9.93469637,1.86586756 9.98021047,1.81769358 L10.7177445,1.03705744 C10.7632586,0.988883456 10.8392078,0.986727197 10.8873818,1.0322413 Z M5.43557636,7.72278829 C3.78886462,7.72278829 2.453941,9.05771191 2.453941,10.7044236 C2.453941,12.3511354 3.78886462,13.686059 5.43557636,13.686059 C7.08228809,13.686059 8.41721171,12.3511354 8.41721171,10.7044236 C8.41721171,9.05771191 7.08228809,7.72278829 5.43557636,7.72278829 Z" id="形状结合" fill="#000000" fill-rule="nonzero"></path>
            </g>
        </g>
    </g>
</svg>