<?xml version="1.0" encoding="UTF-8"?>
<svg width="16px" height="16px" viewBox="0 0 16 16" version="1.1" xmlns="http://www.w3.org/2000/svg" xmlns:xlink="http://www.w3.org/1999/xlink">
    <title>p-amb-basic-attr</title>
    <g id="页面-1" stroke="none" stroke-width="1" fill="none" fill-rule="evenodd">
        <g id="画板" transform="translate(-379.000000, -141.000000)">
            <g id="p-amb-basic-attr" transform="translate(379.000000, 141.000000)">
                <rect id="矩形备份-41" fill="#D8D8D8" opacity="0" x="0" y="0" width="16" height="16"></rect>
                <path d="M11.5519431,10.2475833 C11.6182173,10.2475833 11.6719431,10.3013091 11.6719431,10.3675833 L11.6719431,11.4275833 C11.6719431,11.4938574 11.6182173,11.5475833 11.5519431,11.5475833 L4.45333333,11.5475833 C4.38705916,11.5475833 4.33333333,11.4938574 4.33333333,11.4275833 L4.33333333,10.3675833 C4.33333333,10.3013091 4.38705916,10.2475833 4.45333333,10.2475833 L11.5519431,10.2475833 Z M11.5519431,7.34758326 C11.6182173,7.34758326 11.6719431,7.40130909 11.6719431,7.46758326 L11.6719431,8.52758326 C11.6719431,8.59385743 11.6182173,8.64758326 11.5519431,8.64758326 L4.45333333,8.64758326 C4.38705916,8.64758326 4.33333333,8.59385743 4.33333333,8.52758326 L4.33333333,7.46758326 C4.33333333,7.40130909 4.38705916,7.34758326 4.45333333,7.34758326 L11.5519431,7.34758326 Z M11.5519431,4.45 C11.6182173,4.45 11.6719431,4.50372583 11.6719431,4.57 L11.6719431,5.63 C11.6719431,5.69627417 11.6182173,5.75 11.5519431,5.75 L4.45333333,5.75 C4.38705916,5.75 4.33333333,5.69627417 4.33333333,5.63 L4.33333333,4.57 C4.33333333,4.50372583 4.38705916,4.45 4.45333333,4.45 L11.5519431,4.45 Z" id="形状结合" fill="#000000" fill-rule="nonzero"></path>
                <path d="M15,1.5 L15,14.5 C15,14.7761424 14.7761424,15 14.5,15 L1.5,15 C1.22385763,15 1,14.7761424 1,14.5 L1,1.5 C1,1.22385763 1.22385763,1 1.5,1 L14.5,1 C14.7761424,1 15,1.22385763 15,1.5 Z M13.7,2.299 L2.3,2.299 L2.3,13.699 L13.7,13.699 L13.7,2.299 Z" id="矩形" fill="#000000" fill-rule="nonzero"></path>
            </g>
        </g>
    </g>
</svg>