<?xml version="1.0" encoding="UTF-8"?>
<svg width="16px" height="16px" viewBox="0 0 16 16" version="1.1" xmlns="http://www.w3.org/2000/svg" xmlns:xlink="http://www.w3.org/1999/xlink">
    <title>p-amb-worksheet</title>
    <g id="页面-1" stroke="none" stroke-width="1" fill="none" fill-rule="evenodd">
        <g id="画板" transform="translate(-434.000000, -141.000000)">
            <g id="p-amb-worksheet" transform="translate(434.000000, 141.000000)">
                <rect id="矩形" fill="#D8D8D8" opacity="0" x="0" y="0" width="16" height="16"></rect>
                <path d="M1,1.3 L1,14.7 C1,14.8656854 1.13431458,15 1.3,15 L14.7,15 C14.8656854,15 15,14.8656854 15,14.7 L15,1.30100575 C15,1.13532032 14.8656854,1.00100575 14.7,1.00100575 L14.125,1.00100575 L14.125,1.00100575 L1.3,1.00002299 C1.13431458,0.999987305 0.999989709,1.13429159 0.999977013,1.29997701 C0.999977013,1.29998467 0.999977012,1.29999234 1,1.3 Z M1.87499999,14.1260058 L1.87499999,11.5010058 L5.37499999,11.5010058 L5.37499999,14.1260058 L1.87499999,14.1260058 Z M1.87499999,10.625 L1.87499999,8.00100576 L5.37499999,8.00100576 L5.37499999,10.625 L1.87499999,10.625 Z M9.75,14.1260058 L6.25,14.1260058 L6.25,11.5010058 L9.75,11.5010058 L9.75,14.1260058 Z M9.75,10.625 L6.25,10.625 L6.25,8.00100576 L9.75,8.00100576 L9.75,10.625 Z M14.125,14.1260058 L10.625,14.1260058 L10.625,11.5010058 L14.125,11.5010058 L14.125,14.1260058 Z M14.125,10.625 L10.625,10.625 L10.625,8.00100576 L14.125,8.00100576 L14.125,10.625 Z M10.625,7.125 L10.625,4.50100575 L9.75,4.50100575 L9.75,7.12600575 L6.25,7.12600575 L6.25,4.50100575 L5.37499999,4.50100575 L5.37499999,7.12600575 L1.87499999,7.12600575 L1.87499999,4.50100575 L14.125,4.50100575 L14.125,7.125 L10.625,7.125 Z" id="形状" fill="#000000" fill-rule="nonzero"></path>
            </g>
        </g>
    </g>
</svg>