<?xml version="1.0" encoding="UTF-8"?>
<svg width="16px" height="16px" viewBox="0 0 16 16" version="1.1" xmlns="http://www.w3.org/2000/svg" xmlns:xlink="http://www.w3.org/1999/xlink">
    <title>p-amb-mine</title>
    <g id="页面-1" stroke="none" stroke-width="1" fill="none" fill-rule="evenodd">
        <g id="画板" transform="translate(-162.000000, -141.000000)" fill="#000000" fill-rule="nonzero">
            <g id="p-amb-mine" transform="translate(162.000000, 141.000000)">
                <rect id="矩形" opacity="0" x="0" y="0" width="16" height="16"></rect>
                <path d="M10.6484,8.3200377 C12.4814,8.3200377 14,9.82485101 14,11.6600188 C14,13.4951867 12.482,15 10.6298,15 L5.3702,15 C3.5186,15 2,13.4951867 2,11.6600188 C2,9.82485101 3.518,8.3200377 5.3702,8.3200377 L10.6484,8.3200377 Z M9.19064969,1.24668743 C10.3245393,1.7020445 11.1209591,2.72543441 11.2736871,3.92336536 C11.426415,5.12129631 10.911672,6.30725658 9.92737596,7.02524632 C8.44235875,8.1084846 6.3510644,7.81852877 5.22649792,6.37347437 C4.10193143,4.92842 4.35886867,2.86124905 5.80404964,1.72682169 C6.76194146,0.974902898 8.05676006,0.79133036 9.19064969,1.24668743 Z" id="形状结合"></path>
            </g>
        </g>
    </g>
</svg>