<?xml version="1.0" encoding="UTF-8"?>
<svg width="16px" height="16px" viewBox="0 0 16 16" version="1.1" xmlns="http://www.w3.org/2000/svg" xmlns:xlink="http://www.w3.org/1999/xlink">
    <title>p-amb-advanced-attr</title>
    <g id="页面-1" stroke="none" stroke-width="1" fill="none" fill-rule="evenodd">
        <g id="画板" transform="translate(-355.000000, -141.000000)">
            <g id="p-amb-advanced-attr" transform="translate(355.000000, 141.000000)">
                <rect id="矩形备份-40" fill="#D8D8D8" opacity="0" x="0" y="0" width="16" height="16"></rect>
                <path d="M11.53,11 C11.5962742,11 11.65,11.0537258 11.65,11.12 L11.649,12.349 L14.88,12.35 C14.9462742,12.35 15,12.4037258 15,12.47 L15,13.53 C15,13.5962742 14.9462742,13.65 14.88,13.65 L11.649,13.649 L11.65,14.88 C11.65,14.9462742 11.5962742,15 11.53,15 L10.47,15 C10.4037258,15 10.35,14.9462742 10.35,14.88 L10.35,13.649 L1.12,13.65 C1.05372583,13.65 1,13.5962742 1,13.53 L1,12.47 C1,12.4037258 1.05372583,12.35 1.12,12.35 L10.35,12.349 L10.35,11.12 C10.35,11.0537258 10.4037258,11 10.47,11 L11.53,11 Z M8.53,6 C8.59627417,6 8.65,6.05372583 8.65,6.12 L8.649,7.349 L14.88,7.35 C14.9462742,7.35 15,7.40372583 15,7.47 L15,8.53 C15,8.59627417 14.9462742,8.65 14.88,8.65 L8.649,8.649 L8.65,9.88 C8.65,9.94627417 8.59627417,10 8.53,10 L7.47,10 C7.40372583,10 7.35,9.94627417 7.35,9.88 L7.35,8.649 L1.12,8.65 C1.05372583,8.65 1,8.59627417 1,8.53 L1,7.47 C1,7.40372583 1.05372583,7.35 1.12,7.35 L7.35,7.349 L7.35,6.12 C7.35,6.05372583 7.40372583,6 7.47,6 L8.53,6 Z M4.53,1 C4.59627417,1 4.65,1.05372583 4.65,1.12 L4.649,2.349 L14.88,2.35 C14.9462742,2.35 15,2.40372583 15,2.47 L15,3.53 C15,3.59627417 14.9462742,3.65 14.88,3.65 L4.649,3.649 L4.65,4.88 C4.65,4.94627417 4.59627417,5 4.53,5 L3.47,5 C3.40372583,5 3.35,4.94627417 3.35,4.88 L3.35,3.649 L1.12,3.65 C1.05372583,3.65 1,3.59627417 1,3.53 L1,2.47 C1,2.40372583 1.05372583,2.35 1.12,2.35 L3.35,2.349 L3.35,1.12 C3.35,1.05372583 3.40372583,1 3.47,1 L4.53,1 Z" id="形状结合" fill="#000000" fill-rule="nonzero"></path>
            </g>
        </g>
    </g>
</svg>