<?xml version="1.0" encoding="UTF-8"?>
<svg width="16px" height="16px" viewBox="0 0 16 16" version="1.1" xmlns="http://www.w3.org/2000/svg" xmlns:xlink="http://www.w3.org/1999/xlink">
    <title>p-amb-keepaccount</title>
    <g id="页面-1" stroke="none" stroke-width="1" fill="none" fill-rule="evenodd">
        <g id="画板" transform="translate(-185.000000, -141.000000)" fill="#000000" fill-rule="nonzero">
            <g id="p-amb-keepaccount" transform="translate(185.000000, 141.000000)">
                <rect id="矩形" opacity="0" x="0" y="0" width="16" height="16"></rect>
                <path d="M12.755,9.54999998 L14.08,10.875 C14.28,11.075 14.28,11.375 14.08,11.575 L10.805,14.85 C10.705,14.95 10.58,15 10.455,15 L9.13,15 C8.855,15 8.63,14.775 8.63,14.5 L8.63,13.175 C8.63,13.05 8.67999999,12.925 8.78,12.825 L12.055,9.54999998 C12.255,9.34999999 12.555,9.34999999 12.755,9.54999998 Z M9.70499998,1 C9.80499999,1 9.905,1.05000001 9.98,1.12500001 L9.98,1.12500001 L12.93,4.4 C13.005,4.475 13.03,4.55 13.03,4.65000001 L13.03,4.65000001 L13.03,8.64999998 C12.655,8.40000001 12.155,8.45 11.83,8.77500001 L11.83,8.77500001 L8.255,12.35 C8.07999999,12.525 7.97999998,12.775 7.97999998,13.025 L7.97999998,13.025 L7.97999998,14.45 C7.98000002,14.6 8.03,14.75 8.105,14.9 L8.105,14.9 L3.155,14.9 C2.38,14.9 1.78,14.275 1.78,13.525 L1.78,13.525 L1.78,2.375 C1.78,1.6 2.405,1 3.155,1 L3.155,1 Z M12.43,10.6 L9.62999998,13.4 L9.62999998,14 L10.23,14 L13.03,11.2 L12.43,10.6 Z M9.42999999,1.6 C9.35499999,1.5 9.22999997,1.475 9.10499998,1.525 C8.97999999,1.57500001 8.90499999,1.67500001 8.90499999,1.80000001 L8.90499999,1.80000001 L8.90499999,4.475 C8.90499999,4.85 9.20499999,5.17500001 9.605,5.17500001 L9.605,5.17500001 L12.08,5.17500001 C12.205,5.17500001 12.305,5.10000001 12.355,5 C12.405,4.89999999 12.38,4.775 12.305,4.67499999 L12.305,4.67499999 Z" id="形状结合"></path>
            </g>
        </g>
    </g>
</svg>