<?xml version="1.0" encoding="UTF-8"?>
<svg width="16px" height="16px" viewBox="0 0 16 16" version="1.1" xmlns="http://www.w3.org/2000/svg" xmlns:xlink="http://www.w3.org/1999/xlink">
    <title>p-amb-form</title>
    <g id="页面-1" stroke="none" stroke-width="1" fill="none" fill-rule="evenodd">
        <g id="画板" transform="translate(-208.000000, -141.000000)">
            <g id="p-amb-form" transform="translate(208.000000, 141.000000)">
                <rect id="矩形" fill="#D8D8D8" opacity="0" x="0" y="0" width="16" height="16"></rect>
                <path d="M14.795103,8.8728541 C14.9247774,8.97425243 15.0003881,9.12982946 15,9.29444086 L15,14.4161053 C15,14.7116607 14.7612174,14.9496606 14.4664397,14.9496606 L1.53355646,14.9496606 C1.39191393,14.9496606 1.25608404,14.8933403 1.15600062,14.793111 C1.0559172,14.6928817 0.999794658,14.5569699 1,14.4153275 L1,9.29444086 C1,8.9475521 1.32666766,8.6924411 1.66344528,8.77644109 L7.87010922,11.2038845 C7.95566477,11.2248845 8.04433138,11.2248845 8.12910915,11.2038845 L14.3365509,8.77721887 L14.3365509,8.77566331 C14.4962104,8.73558968 14.6654287,8.77145573 14.795103,8.8728541 Z M12.2155518,1.05 C12.8945515,1.05 13.4444401,1.59833309 13.4444401,2.27655503 L13.4444401,7.80266373 L7.92222033,9.93532946 L2.40077829,7.80266373 L2.40077829,2.27655503 C2.40155608,1.59988866 2.95066695,1.05 3.62888888,1.05 L12.2155518,1.05 Z M5.68766576,6.2447755 L4.46033296,6.2447755 L4.46033296,7.4721083 L5.68766576,7.4721083 L5.68766576,6.2447755 Z M11.5489965,6.2447755 L6.64122091,6.2447755 L6.64122091,7.4721083 L11.5489965,7.4721083 L11.5489965,6.2447755 Z M11.5489965,3.81033213 L6.64122091,3.81033213 L6.64122091,5.03766491 L11.5489965,5.03766491 L11.5489965,3.81033213 Z M5.68766576,3.81033213 L4.46033296,3.81033213 L4.46033296,5.03766491 L5.68766576,5.03766491 L5.68766576,3.81033213 Z" id="形状结合" fill="#000000" fill-rule="nonzero"></path>
            </g>
        </g>
    </g>
</svg>