<?xml version="1.0" encoding="UTF-8"?>
<svg width="32px" height="32px" viewBox="0 0 32 32" version="1.1" xmlns="http://www.w3.org/2000/svg" xmlns:xlink="http://www.w3.org/1999/xlink">
    <!-- Generator: Sketch 59 (86127) - https://sketch.com -->
    <title>icons/cir-check-circle-fill</title>
    <desc>Created with Sketch.</desc>
    <g id="icons/cir-check-circle-fill" stroke="none" stroke-width="1" fill="none" fill-rule="evenodd">
        <rect id="Rectangle" fill="#2D3040" fill-rule="nonzero" opacity="0" x="0" y="0" width="32" height="32"></rect>
        <path d="M16,2 C8.26875,2 2,8.26875 2,16 C2,23.73125 8.26875,30 16,30 C23.73125,30 30,23.73125 30,16 C30,8.26875 23.73125,2 16,2 Z M22.046875,11.428125 L15.465625,20.553125 C15.06875,21.10625 14.246875,21.10625 13.85,20.553125 L9.953125,15.153125 C9.834375,14.9875 9.953125,14.75625 10.15625,14.75625 L11.621875,14.75625 C11.940625,14.75625 12.24375,14.909375 12.43125,15.171875 L14.65625,18.259375 L19.56875,11.446875 C19.75625,11.1875 20.05625,11.03125 20.378125,11.03125 L21.84375,11.03125 C22.046875,11.03125 22.165625,11.2625 22.046875,11.428125 Z" id="Shape" fill="#2D3040" fill-rule="nonzero"></path>
    </g>
</svg>