<?xml version="1.0" encoding="UTF-8"?>
<svg width="32px" height="32px" viewBox="0 0 32 32" version="1.1" xmlns="http://www.w3.org/2000/svg" xmlns:xlink="http://www.w3.org/1999/xlink">
    <!-- Generator: Sketch 59 (86127) - https://sketch.com -->
    <title>icons/cir-close-circle-fill</title>
    <desc>Created with Sketch.</desc>
    <g id="icons/cir-close-circle-fill" stroke="none" stroke-width="1" fill="none" fill-rule="evenodd">
        <rect id="Rectangle" fill="#2D3040" fill-rule="nonzero" opacity="0" x="0" y="0" width="32" height="32"></rect>
        <path d="M16,2 C8.26875,2 2,8.26875 2,16 C2,23.73125 8.26875,30 16,30 C23.73125,30 30,23.73125 30,16 C30,8.26875 23.73125,2 16,2 Z M21.16875,21.31875 L19.10625,21.309375 L16,17.60625 L12.896875,21.30625 L10.83125,21.315625 C10.69375,21.315625 10.58125,21.20625 10.58125,21.065625 C10.58125,21.00625 10.603125,20.95 10.640625,20.903125 L14.70625,16.059375 L10.640625,11.21875 C10.603125,11.171875 10.58125,11.115625 10.58125,11.05625 C10.58125,10.91875 10.69375,10.80625 10.83125,10.80625 L12.896875,10.815625 L16,14.51875 L19.103125,10.81875 L21.165625,10.809375 C21.303125,10.809375 21.415625,10.91875 21.415625,11.059375 C21.415625,11.11875 21.39375,11.175 21.35625,11.221875 L17.296875,16.0625 L21.359375,20.90625 C21.396875,20.953125 21.41875,21.009375 21.41875,21.06875 C21.41875,21.20625 21.30625,21.31875 21.16875,21.31875 Z" id="Shape" fill="#2D3040" fill-rule="nonzero"></path>
    </g>
</svg>