<?xml version="1.0" encoding="UTF-8"?>
<svg width="32px" height="32px" viewBox="0 0 32 32" version="1.1" xmlns="http://www.w3.org/2000/svg" xmlns:xlink="http://www.w3.org/1999/xlink">
    <!-- Generator: Sketch 59 (86127) - https://sketch.com -->
    <title>icons/cir-dollar-circle-fill</title>
    <desc>Created with Sketch.</desc>
    <g id="icons/cir-dollar-circle-fill" stroke="none" stroke-width="1" fill="none" fill-rule="evenodd">
        <rect id="Rectangle" fill="#2D3040" fill-rule="nonzero" opacity="0" x="0" y="0" width="32" height="32"></rect>
        <path d="M16,2 C8.26875,2 2,8.26875 2,16 C2,23.73125 8.26875,30 16,30 C23.73125,30 30,23.73125 30,16 C30,8.26875 23.73125,2 16,2 Z M16.696875,22.7875 L16.703125,23.778125 C16.703125,23.915625 16.590625,24.03125 16.453125,24.03125 L15.565625,24.03125 C15.428125,24.03125 15.315625,23.91875 15.315625,23.78125 L15.315625,22.8 C12.540625,22.59375 11.234375,21.0125 11.09375,19.29375 C11.08125,19.146875 11.196875,19.021875 11.34375,19.021875 L12.7875,19.021875 C12.909375,19.021875 13.015625,19.109375 13.034375,19.228125 C13.19375,20.21875 13.965625,20.959375 15.35,21.14375 L15.35,16.684375 L14.578125,16.4875 C12.94375,16.096875 11.3875,15.078125 11.3875,12.965625 C11.3875,10.6875 13.11875,9.4625 15.33125,9.246875 L15.33125,8.215625 C15.33125,8.078125 15.44375,7.965625 15.58125,7.965625 L16.459375,7.965625 C16.596875,7.965625 16.709375,8.078125 16.709375,8.215625 L16.709375,9.2375 C18.85,9.453125 20.45625,10.703125 20.64375,12.65 C20.659375,12.796875 20.54375,12.925 20.39375,12.925 L18.990625,12.925 C18.865625,12.925 18.759375,12.83125 18.74375,12.709375 C18.61875,11.796875 17.8875,11.053125 16.696875,10.890625 L16.696875,15.0875 L17.490625,15.271875 C19.515625,15.771875 20.89375,16.740625 20.89375,18.909375 C20.89375,21.2625 19.14375,22.575 16.696875,22.7875 Z M13.33125,12.821875 C13.33125,13.615625 13.821875,14.23125 14.878125,14.6125 C15.025,14.671875 15.171875,14.71875 15.346875,14.76875 L15.346875,10.89375 C14.19375,11.040625 13.33125,11.6875 13.33125,12.821875 Z M16.971875,17.046875 C16.884375,17.028125 16.796875,17.00625 16.696875,16.978125 L16.696875,21.15625 C18.028125,21.0375 18.946875,20.30625 18.946875,19.08125 C18.946875,18.121875 18.45,17.496875 16.971875,17.046875 Z" id="Shape" fill="#2D3040" fill-rule="nonzero"></path>
    </g>
</svg>