<?xml version="1.0" encoding="UTF-8"?>
<svg width="32px" height="32px" viewBox="0 0 32 32" version="1.1" xmlns="http://www.w3.org/2000/svg" xmlns:xlink="http://www.w3.org/1999/xlink">
    <!-- Generator: Sketch 59 (86127) - https://sketch.com -->
    <title>icons/app store-fill</title>
    <desc>Created with Sketch.</desc>
    <g id="icons/app-store-fill" stroke="none" stroke-width="1" fill="none" fill-rule="evenodd">
        <rect id="Rectangle" fill="#2D3040" fill-rule="nonzero" opacity="0" x="0" y="0" width="32" height="32"></rect>
        <path d="M27,4.5 L17.5,4.5 C17.225,4.5 17,4.725 17,5 L17,14.5 C17,14.775 17.225,15 17.5,15 L27,15 C27.275,15 27.5,14.775 27.5,14.5 L27.5,5 C27.5,4.725 27.275,4.5 27,4.5 Z M27,17 L17.5,17 C17.225,17 17,17.225 17,17.5 L17,27 C17,27.275 17.225,27.5 17.5,27.5 L27,27.5 C27.275,27.5 27.5,27.275 27.5,27 L27.5,17.5 C27.5,17.225 27.275,17 27,17 Z M14.5,4.5 L5,4.5 C4.725,4.5 4.5,4.725 4.5,5 L4.5,14.5 C4.5,14.775 4.725,15 5,15 L14.5,15 C14.775,15 15,14.775 15,14.5 L15,5 C15,4.725 14.775,4.5 14.5,4.5 Z M14.5,17 L5,17 C4.725,17 4.5,17.225 4.5,17.5 L4.5,27 C4.5,27.275 4.725,27.5 5,27.5 L14.5,27.5 C14.775,27.5 15,27.275 15,27 L15,17.5 C15,17.225 14.775,17 14.5,17 Z" id="Shape" fill="#2D3040" fill-rule="nonzero"></path>
    </g>
</svg>