<?xml version="1.0" encoding="UTF-8"?>
<svg width="32px" height="32px" viewBox="0 0 32 32" version="1.1" xmlns="http://www.w3.org/2000/svg" xmlns:xlink="http://www.w3.org/1999/xlink">
    <!-- Generator: Sketch 59 (86127) - https://sketch.com -->
    <title>icons/home-fill</title>
    <desc>Created with Sketch.</desc>
    <g id="icons/home-fill" stroke="none" stroke-width="1" fill="none" fill-rule="evenodd">
        <rect id="Rectangle" fill="#2D3040" fill-rule="nonzero" opacity="0" x="0" y="0" width="32" height="32"></rect>
        <path d="M29.578125,15.78125 L16.70625,2.91875 C16.315625,2.528125 15.684375,2.528125 15.29375,2.91875 L2.421875,15.78125 C2.046875,16.15625 1.834375,16.665625 1.834375,17.196875 C1.834375,18.3 2.73125,19.196875 3.834375,19.196875 L5.190625,19.196875 L5.190625,28.375 C5.190625,28.928125 5.6375,29.375 6.190625,29.375 L14,29.375 L14,22.375 L17.5,22.375 L17.5,29.375 L25.809375,29.375 C26.3625,29.375 26.809375,28.928125 26.809375,28.375 L26.809375,19.196875 L28.165625,19.196875 C28.696875,19.196875 29.20625,18.9875 29.58125,18.609375 C30.359375,17.828125 30.359375,16.5625 29.578125,15.78125 L29.578125,15.78125 Z" id="Shape" fill="#2D3040" fill-rule="nonzero"></path>
    </g>
</svg>