<?xml version="1.0" standalone="no"?><!DOCTYPE svg PUBLIC "-//W3C//DTD SVG 1.1//EN" "http://www.w3.org/Graphics/SVG/1.1/DTD/svg11.dtd"><svg t="1571972772597" class="icon" viewBox="0 0 1024 1024" version="1.1" xmlns="http://www.w3.org/2000/svg" p-id="5982" xmlns:xlink="http://www.w3.org/1999/xlink" width="200" height="200"><defs><style type="text/css"></style></defs><path d="M969.574 304.814H728.7c-24.423 0-44.186-19.712-44.186-43.878 0-24.259 19.856-43.879 44.186-43.879h240.783c24.423 0 44.186 19.62 44.278 43.879 0 24.258-19.855 43.878-44.186 43.878zM407.48 531.62c-133.57-0.03-241.828-107.592-241.797-240.24 0-132.65 108.278-240.18 241.849-240.18 133.57 0 241.848 107.53 241.848 240.18v0.102c-0.03 132.659-108.33 240.169-241.9 240.138z m93.481 59.77c172.462 0 312.505 139.09 312.607 310.355 0 56.258-45.937 101.775-102.482 101.775H122.962c-56.648 0-102.482-45.62-102.482-101.775 0-171.264 139.858-310.354 312.504-310.354h167.977z m468.613-72.1H728.7c-24.423 0-44.186-19.721-44.186-43.878 0-24.268 19.856-43.888 44.186-43.888h240.783c24.423 0 44.186 19.62 44.278 43.888 0 24.259-19.855 43.879-44.186 43.879zM854.252 645.909h115.23c24.423 0 44.186 19.62 44.186 43.879s-19.856 43.878-44.186 43.878h-115.23c-24.433 0-44.186-19.712-44.186-43.878 0-24.259 19.855-43.879 44.186-43.879z" p-id="5983"></path></svg>