<?xml version="1.0" standalone="no"?><!DOCTYPE svg PUBLIC "-//W3C//DTD SVG 1.1//EN" "http://www.w3.org/Graphics/SVG/1.1/DTD/svg11.dtd"><svg t="1571972737804" class="icon" viewBox="0 0 1024 1024" version="1.1" xmlns="http://www.w3.org/2000/svg" p-id="5871" xmlns:xlink="http://www.w3.org/1999/xlink" width="200" height="200"><defs><style type="text/css"></style></defs><path d="M994.642 951.03a29.256 29.256 0 0 1-21.545 9.021H668.815c-8.458 0-15.636-2.97-21.534-9.021a30.075 30.075 0 0 1-8.889-21.852V743.864c0-8.58 2.919-15.872 8.889-21.862a29.204 29.204 0 0 1 21.534-9.011h10.169V610.058c0-39.649 13.875-73.605 41.687-101.826 27.812-28.222 61.153-42.24 100.29-42.24 39.066 0 72.54 14.08 100.342 42.301 27.812 28.222 41.687 62.116 41.687 101.827 0 5.55-2.007 10.434-6.021 14.448-4.014 4.014-8.827 6.114-14.244 6.114H922.46a19.23 19.23 0 0 1-14.233-6.114 19.927 19.927 0 0 1-6.032-14.448c0-22.723-7.905-42.117-23.787-58.235-15.883-16.118-34.99-24.085-57.385-24.085-22.395 0-41.503 8.028-57.395 24.146-15.883 16.118-23.788 35.513-23.788 58.235v102.871h233.257c8.458 0 15.636 2.96 21.545 9.011 5.898 5.99 8.878 13.343 8.878 21.863v185.252c0 8.58-2.918 15.861-8.878 21.852zM620.585 683.5c-7.004 7.034-10.435 15.585-10.435 25.661V926.71c0 10.004 3.502 18.637 10.435 25.671a33.628 33.628 0 0 0 19.947 10.179H133.704c-51.262 0-92.744-42.189-92.744-94.116 0-158.372 126.577-286.996 282.839-286.996h152.023c69.294 0 132.772 25.395 181.985 67.44v24.023h-11.93c-9.86 0-18.36 3.554-25.292 10.589zM391.219 526.172c-120.893-0.02-218.87-99.481-218.839-222.146 0-122.665 97.997-222.106 218.89-222.106 120.884 0 218.88 99.44 218.88 222.106v0.092c-0.02 122.665-98.048 222.085-218.93 222.054z" p-id="5872"></path></svg>